<?xml version="1.0" encoding="UTF-8" standalone="no"?>
<!-- Created with Inkscape (http://www.inkscape.org/) -->

<svg
   width="84.29493mm"
   height="45.060799mm"
   viewBox="0 0 84.29493 45.060799"
   version="1.1"
   id="svg1"
   sodipodi:docname="montañaRusa.svg"
   inkscape:version="1.3 (0e150ed6c4, 2023-07-21)"
   xmlns:inkscape="http://www.inkscape.org/namespaces/inkscape"
   xmlns:sodipodi="http://sodipodi.sourceforge.net/DTD/sodipodi-0.dtd"
   xmlns:xlink="http://www.w3.org/1999/xlink"
   xmlns="http://www.w3.org/2000/svg"
   xmlns:svg="http://www.w3.org/2000/svg">
  <sodipodi:namedview
     id="namedview1"
     pagecolor="#ffffff"
     bordercolor="#000000"
     borderopacity="0.25"
     inkscape:showpageshadow="2"
     inkscape:pageopacity="0.0"
     inkscape:pagecheckerboard="0"
     inkscape:deskcolor="#d1d1d1"
     inkscape:document-units="mm"
     inkscape:zoom="0.97890839"
     inkscape:cx="421.89852"
     inkscape:cy="221.16472"
     inkscape:window-width="1920"
     inkscape:window-height="991"
     inkscape:window-x="-9"
     inkscape:window-y="-9"
     inkscape:window-maximized="1"
     inkscape:current-layer="layer1" />
  <defs
     id="defs1">
    <linearGradient
       x1="-1163.6676"
       y1="732.01868"
       x2="-1084.0492"
       y2="728.61084"
       id="linearGradient4681-0"
       xlink:href="#linearGradient4264-2-2"
       gradientUnits="userSpaceOnUse"
       gradientTransform="translate(-4.0065918e-6)" />
    <linearGradient
       id="linearGradient4264-2-2">
      <stop
         id="stop4266-3-2"
         style="stop-color:#cfc3e7;stop-opacity:1"
         offset="0" />
      <stop
         id="stop4268-8-4"
         style="stop-color:#9a80cc;stop-opacity:1"
         offset="1" />
    </linearGradient>
  </defs>
  <g
     inkscape:label="Layer 1"
     inkscape:groupmode="layer"
     id="layer1"
     transform="translate(132.99647,-112.02584)">
    <path
       id="path4382-0"
       d="m -110.22355,116.60984 c -0.73508,0.0232 -1.46368,0.17174 -2.15476,0.39688 -1.7742,0.57798 -3.37425,1.66452 -4.78837,2.71198 a 0.23642018,0.21228314 0 0 0 -0.35914,-0.0827 c -0.45084,0.33325 -0.89833,0.68768 -1.34442,1.05008 -0.19452,0.158 -0.39212,0.32147 -0.58015,0.47956 a 0.23642018,0.21228314 0 0 0 -0.0645,0.2067 c 0.007,0.0266 0.0112,0.0553 0.0184,0.0827 -1.94823,1.46534 -3.9562,3.56605 -5.80141,5.78776 -0.10886,0.0108 -0.21612,0.0227 -0.32231,0.0331 a 0.23642018,0.21228314 0 0 0 -0.15654,0.0827 c -0.521,0.57261 -1.02989,1.13419 -1.51017,1.68672 0.0326,-0.0373 0.0242,-0.0323 -0.0184,0.0165 a 0.23642018,0.21228314 0 0 0 -0.0184,0.0165 c -0.0683,0.0948 -0.17794,0.26092 -0.28546,0.41342 a 0.23642018,0.21228314 0 0 0 -0.0276,0.14882 c 0.0269,0.15927 0.056,0.31877 0.0829,0.47956 -0.11481,0.15572 -0.23876,0.30996 -0.34991,0.46302 -1.18112,1.62637 -2.174,3.17103 -2.92826,4.45664 -5.9e-4,0.001 -0.009,-0.001 -0.009,0 a 0.23642018,0.21228314 0 0 0 -0.0737,0 l -0.89319,0.13229 a 0.23642018,0.21228314 0 0 0 -0.19338,0.26459 c 0.11576,0.37973 0.22732,0.75565 0.3315,1.13273 -0.0635,0.1232 -0.13869,0.25265 -0.19337,0.37206 -0.20209,0.44135 -0.34005,0.79203 -0.38675,1.1493 -5.9e-4,0.005 -0.009,0.0111 -0.009,0.0165 h 0.009 c -0.003,0.0155 -0.009,0.0354 -0.009,0.0413 -8.9e-4,0.007 -0.008,0.0356 -0.009,0.0496 -2e-4,0.003 1.8e-4,0.006 0,0.008 -0.0468,0.70175 0.45818,1.40404 1.30758,1.7694 0.0282,0.0122 0.0609,0.0282 0.0921,0.0413 0.12933,0.67725 0.25013,1.34932 0.34992,2.01745 -0.1931,0.002 -0.38598,0.006 -0.58014,0.008 a 0.23642018,0.21228314 0 0 0 -0.23021,0.25632 l 0.29467,1.20716 a 0.23642018,0.21228314 0 0 0 0.23021,0.17363 c 0.16128,-0.003 0.32484,-0.007 0.48803,-0.008 0.4699,4.11744 0.41223,8.10339 0.16575,11.9888 a 0.23642018,0.21228314 0 0 0 0.20258,0.21497 l 1.26153,0.1571 a 0.23642018,0.21228314 0 0 0 0.27625,-0.19017 c 0.0615,-0.61251 0.11162,-1.2627 0.14733,-1.92649 l 1.86009,-3.43958 3.0386,5.68034 c 0.02,0.15402 0.0461,0.32523 0.0645,0.47128 a 0.23642018,0.21228314 0 0 0 0.2118,0.1819 l 1.62986,0.19844 a 0.23642018,0.21228314 0 0 0 0.25783,-0.24805 c -0.11807,-0.55317 -0.22739,-1.10313 -0.34069,-1.65365 h 1.38125 a 0.23642018,0.21228314 0 0 0 0.23021,-0.24804 c -0.0778,-0.39492 -0.15228,-0.79357 -0.23021,-1.19063 l 2.17318,-2.6045 4.5214,4.82864 c 0.043,0.33375 0.0858,0.66702 0.12892,1.00044 a 0.23642018,0.21228314 0 0 0 0.23942,0.19017 h 2.23765 a 0.23642018,0.21228314 0 0 0 0.23021,-0.25631 c -0.11456,-0.53539 -0.22662,-1.09202 -0.34069,-1.64539 0.21771,0.0105 0.44294,0.0204 0.63536,0.0165 0.14223,-0.003 0.27398,-0.006 0.38675,-0.0248 0.11278,-0.019 0.22059,-0.026 0.32231,-0.16536 0.0584,-0.08 0.0442,-0.091 0.046,-0.10749 0.002,-0.0165 -1.1e-4,-0.0286 0,-0.0413 2.2e-4,-0.0256 0.002,-0.0488 0,-0.0827 -0.004,-0.0678 -0.0168,-0.15833 -0.0276,-0.27284 -0.02,-0.21094 -0.0446,-0.52147 -0.0829,-0.86815 l 1.80485,-2.38951 3.52688,4.15899 c 0.009,0.48805 0.0164,0.97962 0.0276,1.47174 a 0.23642018,0.21228314 0 0 0 0.23942,0.20671 h 2.82698 a 0.23642018,0.21228314 0 0 0 0.23942,-0.23978 c -0.0681,-0.57026 -0.12868,-1.15409 -0.19337,-1.73633 h 0.62617 a 0.23642018,0.21228314 0 0 0 0.23942,-0.23151 l -0.0737,-1.1493 2.707251,-3.01783 4.143607,4.98581 c -0.03294,0.38242 -0.06839,0.76416 -0.110502,1.14929 a 0.23642018,0.21228314 0 0 0 0.239417,0.23978 h 2.228419 a 0.23642018,0.21228314 0 0 0 0.239417,-0.23978 c -0.07356,-0.57287 -0.134654,-1.15213 -0.193375,-1.73633 h 0.699834 a 0.23642018,0.21228314 0 0 0 0.239417,-0.21497 c -0.0012,-0.33173 -0.0075,-0.67032 -0.0092,-1.00044 l 3.130837,-4.55586 c 0.975377,1.11601 1.946835,2.25168 2.900643,3.38164 -0.03256,0.72212 -0.06844,1.44409 -0.101292,2.16627 a 0.23642018,0.21228314 0 0 0 0.239417,0.22325 h 1.860085 a 0.23642018,0.21228314 0 0 0 0.02761,0 c 0.171747,0.19979 0.344113,0.3979 0.515668,0.59531 -0.03582,0.39224 -0.06943,0.77258 -0.110502,1.14101 a 0.23642018,0.21228314 0 0 0 0.239417,0.23978 h 2.007419 a 0.23642018,0.21228314 0 0 0 0.239417,-0.21497 c -0.03398,-2.47769 -0.07063,-4.20688 -0.101291,-5.6142 l 3.112273,-3.22474 3.351837,4.24974 c -0.04822,0.84513 -0.102294,1.67442 -0.147333,2.53836 a 0.23642018,0.21228314 0 0 0 0.230208,0.22324 l 2.007419,0.0661 a 0.23642018,0.21228314 0 0 0 0.129653,-0.0212 l 0.239417,0.30591 c -0.0438,0.50361 -0.08723,0.99179 -0.138125,1.45521 a 0.23642018,0.21228314 0 0 0 0.239417,0.23978 h 2.302086 a 0.23642018,0.21228314 0 0 0 0.239417,-0.21497 c 0.02599,-2.18911 0.02048,-4.23307 0.01842,-6.30026 l 2.440196,-2.48047 2.75331,3.60495 c -0.08571,1.07127 -0.168779,2.15878 -0.257833,3.1832 a 0.23642018,0.21228314 0 0 0 0.211791,0.23151 l 2.237643,0.19844 a 0.23642018,0.21228314 0 0 0 0.267041,-0.21498 c -0.0012,-0.0632 8.84e-4,-0.12707 0,-0.19017 l 0.128918,0.17364 c -0.01291,0.60089 -0.01694,1.20475 -0.01842,1.79419 a 0.23642018,0.21228314 0 0 0 0.257833,0.21497 l 1.942976,-0.13229 a 0.23642018,0.21228314 0 0 0 0.221001,-0.20671 c 0.06457,-1.49349 0.09847,-4.2328 0.184166,-7.66471 l 0.976084,-1.41388 1.012919,2.45565 c -0.09159,1.78716 -0.181598,3.5687 -0.27625,5.35781 a 0.23642018,0.21228314 0 0 0 0.239417,0.22325 h 1.491751 a 0.23642018,0.21228314 0 0 0 0.239417,-0.20671 c 0.01903,-0.37454 0.03131,-0.74422 0.04604,-1.11622 l 0.294666,0.70278 c -0.02619,0.52221 -0.05234,1.04778 -0.07367,1.57925 a 0.23642018,0.21228314 0 0 0 0.276251,0.21497 l 1.491751,-0.19844 a 0.23642018,0.21228314 0 0 0 0.202584,-0.2067 c 0.04773,-4.11533 0.246188,-8.25156 0.580141,-12.59258 0.04284,0.001 0.08624,-10e-4 0.128916,0 a 0.23642018,0.21228314 0 0 0 0.253414,-0.20902 l 0.07367,-1.67018 a 0.23642018,0.21228314 0 0 0 -0.239417,-0.22325 c -0.01279,-1e-4 -0.02417,4e-5 -0.03683,0 0.249365,-2.90274 0.557776,-5.91211 0.930028,-9.07838 0.256661,-0.25449 0.48791,-0.58084 0.478834,-0.99219 -0.0018,-0.0624 -0.0099,-0.0816 -0.0092,-0.0661 -0.01502,-0.30666 -0.103941,-0.6327 -0.230209,-0.95912 5.9e-4,-0.006 -5.89e-4,-0.011 0,-0.0165 0.04982,-0.40611 0.09579,-0.79809 0.147334,-1.20717 a 0.23642018,0.21228314 0 0 0 -0.257834,-0.23977 l -0.874807,0.0496 c -0.13639,-0.12803 -0.279164,-0.25841 -0.451194,-0.38033 -1.067962,-0.75687 -2.687835,-1.25476 -4.935673,-1.28985 0.01785,-0.1262 0.03885,-0.25086 0.05525,-0.38034 a 0.23642018,0.21228314 0 0 0 -0.285459,-0.23151 c -0.491622,0.0927 -1.001573,0.26607 -1.537809,0.4961 a 0.23642018,0.21228314 0 0 0 -0.138124,0.17363 c -0.0072,0.10337 -0.01187,0.20479 -0.01842,0.30591 -0.125266,0.0587 -0.244779,0.11917 -0.377527,0.19017 -0.601327,0.32155 -1.253042,0.75602 -1.970586,1.28984 -0.765191,0.56928 -1.618546,1.27855 -2.495475,2.03399 -0.961204,-0.82828 -2.092962,-1.86695 -3.18594,-2.96016 -0.190158,-0.19015 -0.375789,-0.38097 -0.561695,-0.57049 0.456145,0.0503 0.912112,0.0968 1.362835,0.15709 a 0.23642018,0.21228314 0 0 0 0.257834,-0.28112 l -0.52486,-1.2733 a 0.23642018,0.21228314 0 0 0 -0.200101,-0.1451 c -0.854181,-0.0738 -1.695544,-0.13196 -2.541503,-0.19016 -0.637424,-0.68446 -1.213999,-1.327 -1.648308,-1.83555 0.05251,-0.87548 0.102238,-1.74318 0.16575,-2.62102 a 0.23642018,0.21228314 0 0 0 -0.06483,-0.15875 l -1.261528,-1.26502 a 0.23642018,0.21228314 0 0 0 -0.414361,0.14056 c -0.0119,0.66757 -0.03068,1.31085 -0.04604,1.95955 -1.84161,-2.10981 -3.769676,-3.37634 -5.78284,-3.71236 -0.590985,-0.0986 -1.187951,-0.12273 -1.768002,-0.0661 -0.644938,0.0629 -1.271902,0.24112 -1.887696,0.47956 0.04385,-0.41508 0.08747,-0.82484 0.138124,-1.24024 a 0.23642018,0.21228314 0 0 0 -0.285458,-0.23151 l -1.482528,0.26459 a 0.23642018,0.21228314 0 0 0 -0.193376,0.19843 c -0.03021,0.67824 -0.06215,1.35649 -0.09208,2.03399 -0.361822,0.25232 -0.712564,0.52406 -1.058975,0.83507 l -0.01842,0.0165 c -0.927699,0.83442 -2.64166,2.58845 -4.604172,4.53099 -0.73487,-0.0182 -1.474602,-0.0356 -2.210003,-0.0579 a 0.23642018,0.21228314 0 0 0 -0.35914,-0.0165 0.23642018,0.21228314 0 0 0 -0.184166,0.0992 l -0.211793,0.30591 -0.727473,0.74414 a 0.23642018,0.21228314 0 0 0 -0.06446,0.14883 c 0.03717,0.76157 0.07405,1.52632 0.101292,2.29028 -1.24373,1.1598 -2.477443,2.26346 -3.581973,3.15013 -0.434133,0.34848 -0.841332,0.64397 -1.233918,0.91779 -0.901415,-1.67691 -1.829321,-3.42133 -2.78092,-5.17578 0.230318,0.002 0.460918,0.006 0.690642,0.008 a 0.23642018,0.21228314 0 0 0 0.211791,-0.30591 c -0.233288,-0.44561 -0.465102,-0.89413 -0.709028,-1.33945 a 0.23642018,0.21228314 0 0 0 -0.202584,-0.12402 c -0.324954,-0.0154 -0.644734,-0.0213 -0.966864,-0.0331 -0.78335,-1.41517 -1.57415,-2.80723 -2.37576,-4.13411 5.9e-4,-0.40894 0.007,-0.83206 0.009,-1.24852 a 0.23642018,0.21228314 0 0 0 -0.046,-0.11575 c -0.57613,-0.75608 -1.16406,-1.44315 -1.75881,-2.04227 a 0.23642018,0.21228314 0 0 0 -0.41437,0.1571 c 0.003,0.036 0.006,0.0714 0.009,0.10748 -0.85946,-0.93323 -1.78333,-1.58498 -2.76252,-1.93476 -0.73505,-0.26258 -1.47519,-0.36219 -2.21001,-0.33898 z m 0.046,1.48003 c 0.52825,-0.0171 1.04955,0.0555 1.56543,0.23978 1.02978,0.36785 2.11407,1.21581 3.18596,2.90221 0.12491,0.1965 0.25069,0.39801 0.37753,0.60357 0.0754,1.20303 0.1378,2.39469 0.19337,3.58008 l -11.30054,-4.52173 c 1.38686,-1.01839 2.89205,-2.02325 4.34636,-2.49701 0.56267,-0.1833 1.10165,-0.28882 1.62987,-0.30591 z m 31.703272,2.0257 c 0.320923,-0.01 0.637777,0.0112 0.966862,0.0661 0.812044,0.13554 1.681901,0.52882 2.569143,1.13273 l -6.418142,3.60495 c 0.08924,-1.33353 0.191492,-2.6752 0.322307,-4.0267 0.855831,-0.47998 1.703528,-0.75184 2.559919,-0.77721 z m -4.383171,2.11667 c -0.05052,1.14368 -0.09676,2.28788 -0.147334,3.43138 -1.092713,-0.0217 -2.18525,-0.0426 -3.27817,-0.0661 1.458719,-1.4514 2.722693,-2.72097 3.425504,-3.36523 z m -33.913311,0.0248 9.63213,3.83646 c -3.00297,0.0508 -6.02745,0.19007 -8.96912,0.38862 -0.21884,-1.38981 -0.44419,-2.79453 -0.66301,-4.22513 z m 43.215948,0.17363 c 0.569886,0.54869 1.152738,1.18719 1.731169,1.95956 0.100111,0.13368 0.226116,0.29141 0.35914,0.45476 -0.01235,0.39564 -0.0313,0.78317 -0.04604,1.17409 -2.717891,-0.13663 -5.406256,-0.21135 -8.094208,-0.27284 l 6.046566,-3.31522 z m -45.493738,0.6694 c 0.3107,1.17753 0.60814,2.35241 0.88401,3.5306 -1.66618,0.12624 -3.28408,0.2625 -4.85289,0.40513 1.31746,-1.50165 2.67381,-2.87417 3.96888,-3.93568 z m 16.01347,2.15799 c 0.15878,0.27752 0.31226,0.55444 0.46964,0.83508 -0.15227,-0.004 -0.30728,-0.005 -0.46042,-0.008 -0.003,-0.27342 -0.007,-0.55152 -0.009,-0.82682 z m 12.458829,1.76112 c 0.199893,0.006 0.39892,0.0108 0.598527,0.0165 -0.19428,0.18853 -0.392673,0.37319 -0.589334,0.56224 -0.0038,-0.19198 -0.0051,-0.38709 -0.0092,-0.57878 z m 2.790142,0.0662 c 1.303489,0.0277 2.616997,0.0483 3.922608,0.0661 l -6.509194,11.42471 c -0.03992,-2.95672 -0.08794,-5.91026 -0.147334,-8.85534 0.170836,-0.16019 0.344112,-0.31631 0.515667,-0.47956 0.754908,-0.71837 1.499089,-1.45042 2.219196,-2.15799 z m 6.279943,0.10748 c 3.149402,0.0434 6.279355,0.10467 9.392512,0.28112 l -9.676865,11.53319 c 0.02331,-3.90737 0.07761,-7.82849 0.285459,-11.81523 z m 11.528847,0.4217 c 0.352716,0.0256 0.700011,0.0528 1.049751,0.0827 0.562049,0.59206 1.155273,1.18978 1.768002,1.80247 1.109953,1.10988 2.204463,2.16101 3.204504,3.02631 -0.383302,0.34422 -0.767283,0.69474 -1.160251,1.05833 -0.744063,0.68847 -1.513145,1.4237 -2.274476,2.158 0.02269,-0.29975 0.04249,-0.5922 0.06446,-0.89297 a 0.23642018,0.21228314 0 0 0 -0.405167,-0.16537 c -0.648208,0.5941 -1.297742,1.18327 -1.924529,1.77768 a 0.23642018,0.21228314 0 0 0 -0.06446,0.14056 c -0.01427,0.49229 -0.03169,0.97547 -0.04604,1.47175 -0.185147,0.18432 -0.363118,0.36494 -0.543306,0.5457 0.0678,-3.65654 0.157921,-7.3197 0.3315,-11.00508 z m -33.020401,0.32247 c 0.48217,-7.9e-4 0.96475,-0.002 1.44571,0 1.10462,2.03306 2.188051,4.08861 3.241338,6.05234 -0.207339,0.104 -0.427473,0.21283 -0.552499,0.24805 -0.779955,0.21972 -1.761049,0.21583 -2.808539,0.0827 l -0.10129,-1.55442 a 0.23642018,0.21228314 0 0 0 -0.23868,-0.20638 h -0.87481 c -0.0501,-1.50529 -0.0832,-3.03239 -0.11051,-4.622 z m -2.37576,0.008 c 0.20906,-0.002 0.42253,-2.7e-4 0.63537,0 0.0724,1.93468 0.11972,3.8436 0.15654,5.74648 -1.96341,-0.57237 -3.8245,-1.33091 -5.19353,-1.64539 -0.96888,-0.22255 -1.77574,-0.36946 -2.51388,-0.47128 l -0.58015,-0.68627 c -0.0288,-0.12938 -0.058,-0.24921 -0.0829,-0.33899 -0.0142,-0.0514 -0.0306,-0.0927 -0.046,-0.13229 -0.008,-0.0198 -0.0147,-0.0436 -0.0276,-0.0661 -0.0129,-0.0226 -0.0179,-0.0466 -0.0921,-0.091 a 0.23642018,0.21228314 0 0 0 -0.10129,-0.0413 l -0.24862,-0.0248 -1.69435,-1.98437 c 3.26198,-0.14542 6.52603,-0.23852 9.7886,-0.26458 z m -12.40378,0.38862 c 0.27809,1.25597 0.54579,2.5061 0.79192,3.76211 -0.60148,0.26884 -1.20449,0.59385 -1.87851,1.00872 -0.63713,0.39217 -1.2829,0.85722 -1.93376,1.33945 l -4.27267,-4.95273 c 0.17903,-0.22847 0.36002,-0.45905 0.54331,-0.68628 2.24718,-0.19459 4.50192,-0.34639 6.74965,-0.47127 z m 34.614624,0.71702 c -0.168455,3.78936 -0.337629,7.57925 -0.506474,11.36888 -1.967639,0.008 -3.946474,0.0214 -5.939307,0.0413 l 6.44584,-11.41016 z m 27.265833,0.0331 c 1.908028,0.046 3.125533,0.45948 3.830671,0.95911 0.450487,0.31928 0.711857,0.67247 0.865584,1.00873 -0.02602,0.27948 -0.04715,0.55769 -0.07367,0.83508 -0.150206,0.10274 -0.344052,0.21722 -0.616973,0.33898 -0.08728,0.0389 -0.203279,0.0772 -0.303861,0.11576 0.08564,-0.55843 0.177811,-1.11364 0.27625,-1.67847 a 0.23642018,0.21228314 0 0 0 -0.349917,-0.21497 l -1.197084,0.60357 a 0.23642018,0.21228314 0 0 0 -0.110501,0.14882 c -0.100523,0.55552 -0.187303,1.10554 -0.276251,1.65365 -0.190941,0.0472 -0.390257,0.0895 -0.589335,0.13229 l -1.454918,-3.9026 z m -15.75555,0.56224 c -0.158873,3.77269 -0.358639,7.33795 -0.570917,10.79817 -2.67593,-0.0245 -5.458117,-0.0362 -8.315209,-0.0331 l 8.887159,-10.76569 z m 13.61008,0.16536 c -0.0947,1.19251 -0.198099,2.37866 -0.303861,3.55547 -0.226728,-0.005 -0.443091,-0.0166 -0.653807,-0.0331 0.07641,-0.58719 0.148494,-1.17541 0.230208,-1.74461 a 0.23642018,0.21228314 0 0 0 -0.221,-0.23978 l -1.095807,-0.0496 c 0.285004,-0.22695 0.611728,-0.51535 0.874807,-0.71106 0.437433,-0.32544 0.80615,-0.54957 1.169474,-0.77722 z m -57.542647,0.008 0.76431,0.89297 c 0.0408,0.24645 0.08,0.49556 0.11971,0.74414 -0.0923,0.009 -0.18673,0.0214 -0.27626,0.0331 -0.1124,0.0146 -0.21453,0.0376 -0.3223,0.0579 -0.0946,-0.57618 -0.19114,-1.15186 -0.28546,-1.72805 z m -9.95418,1.26502 3.62794,4.20027 c -0.24604,0.19002 -0.49371,0.37345 -0.73667,0.56223 -0.01,-0.26839 -0.0184,-0.53715 -0.0276,-0.81028 a 0.23642018,0.21228314 0 0 0 -0.35914,-0.17363 l -1.71275,0.93429 a 0.23642018,0.21228314 0 0 0 -0.1105,0.21498 c 0.0848,0.43905 0.16266,0.88201 0.23942,1.32291 -0.0249,0.0173 -0.049,0.0326 -0.0737,0.0496 -0.30154,-2.05555 -0.58085,-4.15819 -0.84717,-6.30026 z m 69.10836,0.43128 0.671841,1.70391 c -0.281283,0.0362 -0.56414,0.0681 -0.847168,0.091 0.05466,-0.59333 0.112651,-1.19525 0.174959,-1.79419 z m -4.337203,0.34726 c -0.05063,0.33121 -0.09866,0.67434 -0.147334,1.03352 -0.14917,-0.0843 -0.381417,-0.25291 -0.607751,-0.4217 0.268613,-0.23016 0.497221,-0.39825 0.755085,-0.61185 z m -31.270063,0.30591 c 0.05011,2.73818 0.04134,5.47661 -0.01842,8.21849 -0.271934,-0.27837 -0.542011,-0.55703 -0.819528,-0.8599 -0.100689,-0.10988 -0.226013,-0.28217 -0.349917,-0.47955 a 0.23642018,0.21228314 0 0 0 -0.377527,-0.0331 c -0.587508,-0.96879 -1.185623,-1.98292 -1.814029,-3.11705 l 3.379535,-3.72904 z m -35.130304,0.1905 c 0.34054,1.96842 0.67759,3.9505 1.01292,5.93672 -0.57278,0.31047 -1.08067,0.50951 -1.38126,0.53742 -0.0338,0.003 -0.0673,0.006 -0.10129,0.008 l -2.21919,-2.26549 c 0.11613,-0.2152 0.23614,-0.43437 0.37752,-0.678 0.57956,-0.99859 1.41573,-2.25586 2.31131,-3.5388 z m 16.40947,1.00045 c 0.19347,0.0421 0.36887,0.0755 0.58014,0.12402 1.10704,0.25428 3.12202,1.05061 5.26721,1.6619 0.0402,0.0115 0.0799,0.0222 0.1197,0.0331 l -2.66121,2.05878 -3.30589,-3.87774 z m 48.030772,0.14882 c 0.175388,0.13169 0.343257,0.2462 0.506474,0.35555 l -3.344471,2.55588 -0.165014,-0.10584 c 0.602182,-0.57703 1.198499,-1.15099 1.786419,-1.69497 0.413182,-0.38232 0.816404,-0.7507 1.215502,-1.10794 z m -49.677972,0.0413 3.84896,4.5392 -2.86382,2.21588 c -0.36038,-2.60101 -0.6986,-4.94929 -0.98532,-6.75508 z m -4.29096,0.0827 c 0.0508,0.26506 0.10791,0.52982 0.15654,0.79375 l -2.23948,2.36537 -1.00482,-1.15887 c 0.64326,-0.4853 1.27365,-0.95369 1.86009,-1.31467 0.47124,-0.29003 0.84768,-0.49297 1.22471,-0.68627 z m 65.251142,0.0248 c -0.195355,1.92235 -0.400835,3.8227 -0.607751,5.72161 l -0.755084,-2.00091 c 0.108597,-1.11543 0.226476,-2.24054 0.377528,-3.37344 0.351714,-0.10712 0.674079,-0.22304 0.985307,-0.34726 z m -62.837812,0.63664 c 0.31427,2.22319 0.58513,4.47834 0.81953,6.7138 -0.0766,0.004 -0.15465,0.0127 -0.2302,0.0165 -0.35705,-2.01205 -0.71219,-4.09205 -1.06818,-6.21771 l 0.47884,-0.51263 z m 59.045448,0.35555 -1.620668,1.83554 c 0.0427,-0.54758 0.08212,-1.09738 0.128916,-1.65364 0.497988,-0.0423 0.998538,-0.10495 1.491752,-0.1819 z m -3.941171,0.19843 c 0.229369,0.0201 0.462921,0.035 0.699833,0.0413 -0.119867,1.29649 -0.236681,2.57588 -0.35914,3.85287 l -0.810334,0.91778 c 0.137924,-1.64975 0.285912,-3.26496 0.469641,-4.81224 z m -38.398058,0.47956 c 0.04441,0.0824 0.08446,0.16592 0.128916,0.24805 l -3.874875,4.1275 -0.25047,-3.87879 c 1.09717,0.11534 2.195424,0.10496 3.213646,-0.18191 0.25219,-0.071 0.512691,-0.18934 0.773501,-0.31419 z m 36.356015,0.0909 c -0.124479,1.13461 -0.244633,2.35027 -0.35914,3.62162 l -2.486253,-1.64539 2.845364,-1.97612 z m 6.593174,0.678 0.230209,0.57049 c -0.177858,1.43364 -0.333652,2.84798 -0.460417,4.24974 -0.711297,-0.0418 -1.47914,-0.0886 -2.274476,-0.12403 0.03548,-0.67556 0.07615,-1.35659 0.119709,-2.05052 l 2.384975,-2.64583 z m -61.585488,0.24804 c 0.24322,1.41192 0.47418,2.82125 0.69065,4.23334 l -2.24538,-2.59292 1.54701,-1.63711 z m -4.67786,0.11576 1.16948,1.33945 -2.56655,2.69875 c -0.0934,-0.89985 -0.18453,-1.81459 -0.24863,-2.75325 0.54637,-0.41572 1.09274,-0.85495 1.63909,-1.28159 z m 16.37238,0.41341 c 0.0161,1.28111 0.0276,2.56151 0.0368,3.83646 l -1.93377,-2.2655 z m 7.965157,0.2894 c 0.680268,1.21375 1.3438,2.35244 1.989002,3.37344 -1.71396,0.0278 -3.427271,0.0567 -5.119839,0.0909 l 3.130837,-3.46446 z m 30.848689,1.36424 3.057171,2.0836 c -1.588049,-0.0417 -3.252535,-0.0718 -5.000204,-0.0992 0.0078,-0.21362 0.01842,-0.42804 0.02761,-0.64492 l 1.915335,-1.33946 z m -52.993006,0.46303 1.86009,2.16627 c -1.42555,0.0631 -2.80298,0.12893 -4.09766,0.19844 l 2.23765,-2.36471 z m -5.64289,0.0529 c 0.12939,0.83275 0.24584,1.66196 0.34992,2.48873 -0.0211,10e-4 -0.0434,-0.001 -0.0645,0 -0.13072,-0.80418 -0.27135,-1.60335 -0.39597,-2.41433 0.0367,-0.024 0.0738,-0.05 0.1105,-0.0744 z m 16.84206,0.2894 1.22471,1.45521 c -1.04537,0.0288 -2.0755,0.0587 -3.09402,0.0909 l 1.86931,-1.54617 z m -18.38906,0.55399 c 0.0499,0.29501 0.0974,0.58999 0.14734,0.88471 l -0.67185,-0.68262 c 0.17632,-0.0571 0.34951,-0.1224 0.52487,-0.19844 z m 72.847684,0.27284 0.359141,0.9095 c -0.140368,-0.0103 -0.279837,-0.0229 -0.423584,-0.0331 0.01971,-0.29112 0.04317,-0.58484 0.06446,-0.87643 z m -76.041874,0.19017 c 0.3348,0.0177 0.68416,0.0273 1.07736,0.008 l 1.35364,1.36425 c -0.77002,0.0592 -1.5112,0.11911 -2.18236,0.1819 -0.0768,-0.53526 -0.15856,-1.05408 -0.24862,-1.55443 z m 45.048799,1.80247 -2.246836,3.24935 c -1.518538,-0.48273 -2.895605,-1.19097 -3.950306,-2.0092 0.313113,-2.5e-4 0.626756,-7.9e-4 0.939251,0 a 0.23642018,0.21228314 0 0 0 0.153226,-0.37835 c -0.315057,-0.24142 -0.647913,-0.51816 -0.976084,-0.802 2.026809,-0.0256 4.053145,-0.052 6.077507,-0.0579 z m 2.228418,0 c 2.042278,0.003 4.08438,0.0222 6.123475,0.0496 -0.347058,0.3171 -0.696091,0.64622 -0.9945,0.89297 a 0.23642018,0.21228314 0 0 0 0.156542,0.37206 c 0.476299,0.005 0.951744,0.004 1.427307,0.008 -0.04823,0.0489 -0.09403,0.10347 -0.138124,0.14883 -0.486761,0.50064 -1.040028,0.90847 -1.629862,1.24851 l -0.710146,-0.83002 a 0.23642018,0.21228314 0 0 0 -0.322306,-0.0413 c -0.281765,0.18864 -0.572716,0.37166 -0.856362,0.52917 a 0.23642018,0.21228314 0 0 0 -0.06446,0.30591 l 0.524861,0.66971 c -0.393703,0.13792 -0.800079,0.25202 -1.215501,0.33899 2.95e-4,-0.19943 0.0012,-0.4018 0,-0.59532 a 0.23642018,0.21228314 0 0 0 -0.340693,-0.19017 c -0.455939,0.1837 -0.923163,0.32367 -1.399669,0.4217 a 0.23642018,0.21228314 0 0 0 -0.184167,0.21497 c 0.0043,0.12714 0.0053,0.25848 0.0092,0.38862 -0.134492,0.004 -0.268902,-5.3e-4 -0.405168,0 0.0074,-1.30963 0.01411,-2.61903 0.01842,-3.92747 z m -16.465991,1.24354 c 1.570044,-0.003 3.135551,-0.001 4.705537,0 l -4.254402,4.78737 -3.213641,-4.05976 -0.046,-0.71935 c 0.93633,-0.003 1.873078,-0.007 2.808527,-0.008 z m -6.335356,0.0159 -3.62737,5.16731 -2.47817,-3.0189 c -0.0921,-0.69432 -0.18903,-1.3848 -0.28546,-2.10013 2.13037,-0.0169 4.2618,-0.0392 6.39078,-0.0496 z m -10.48844,0.0827 c 0.0431,0.31287 0.0854,0.62701 0.12892,0.94258 l -3.20452,3.97695 -3.67746,-4.17513 c -0.0322,-0.22238 -0.061,-0.44669 -0.0921,-0.66971 2.28011,-0.0269 4.56146,-0.0535 6.84191,-0.0744 z m 44.715796,0.0331 c 0.153678,0.001 0.307337,0.007 0.460417,0.008 -0.06782,2.39246 -0.151604,4.74265 -0.257833,6.93711 l -0.331501,0.37205 c 0.04585,-2.44133 0.09119,-4.87865 0.128917,-7.31731 z m 3.701606,0.0579 c 0.883176,0.0133 1.76759,0.0267 2.652003,0.0413 l -1.418084,1.57925 -1.233919,-1.62058 z m -58.582852,0.0248 c 0.0778,0.47953 0.1529,0.94369 0.23021,1.42214 l -1.29836,2.29856 -1.93376,-3.68776 c 0.99978,-0.0133 2.00012,-0.0204 3.00207,-0.0331 z m 65.315993,0.0827 c 0.215567,0.003 0.430392,0.0134 0.644584,0.0165 -0.178891,1.99139 -0.341843,3.94705 -0.46964,5.87057 l -0.395973,0.62839 c 0.03048,-2.22856 0.100533,-4.41325 0.221,-6.51536 z m 3.747871,0.0744 c 0.04605,7.9e-4 0.09212,-8e-4 0.138124,0 l -0.08287,0.14056 z m 2.928252,0.0661 c 0.2489,0.005 0.497782,0.003 0.745862,0.008 -0.252795,2.46507 -0.468344,4.98475 -0.653808,7.5737 l -0.38012,-0.94986 c 0.08313,-2.20562 0.170527,-4.41325 0.285459,-6.63099 z m -19.165141,0.20902 c -0.118129,1.87878 -0.235534,3.76688 -0.349918,5.67214 l -2.394168,-2.83607 z m -11.418347,0.57878 c -0.02089,0.4464 -0.04415,0.89265 -0.06446,1.33945 -0.252871,-0.0368 -0.503822,-0.0977 -0.755084,-0.14883 l 0.819528,-1.19062 z m 21.77766,0.13229 c -0.115831,1.46701 -0.235386,2.94428 -0.349917,4.41537 l -1.749586,-2.29029 2.099503,-2.12492 z m -5.709174,0.1819 1.187863,1.55443 -1.215503,1.35599 c 0.0045,-0.94377 0.01047,-1.9131 0.02761,-2.91042 z m 10.432981,0.60357 0.06446,0.1571 -0.07367,0.10748 c 0.0027,-0.0865 0.0065,-0.17761 0.0092,-0.26458 z m 2.127142,0.33073 c -0.0063,0.10999 -0.01226,0.22089 -0.01842,0.33073 l -0.08287,-0.19017 z m -35.074214,0.0165 c 0.71884,0.73077 1.431846,1.47698 2.127142,2.24895 l -2.090309,3.02631 c -0.0098,-1.74956 -0.02251,-3.50811 -0.03683,-5.27526 z m -3.152937,0.0714 c 0.08629,2.55061 0.118444,5.11493 -0.0092,7.72266 l -3.253124,-4.0931 3.261964,-3.63009 z m 5.331705,0.35555 c 0.316561,0.12854 0.619361,0.26985 0.948474,0.38034 l -0.257833,0.37206 -0.690641,-0.75243 z m -16.326331,0.38862 c 0.0133,2.17953 0.0245,4.36219 0.0553,6.55664 l -2.61519,-3.1832 z m -23.8858,0.19315 1.09581,2.05052 -0.97609,1.75286 c -0.004,-1.25711 -0.0443,-2.53016 -0.11971,-3.80338 z m 50.562015,0.0165 -1.685142,1.9017 c -0.01332,-0.51346 -0.02743,-1.02508 -0.03683,-1.43868 0.590336,-0.10601 1.160517,-0.26955 1.721975,-0.46302 z m -23.094535,0.0248 2.007427,2.41433 -1.731167,1.94304 -0.27626,-4.35742 z m -13.75748,0.0827 c 0.28724,2.12693 0.55593,4.25529 0.82876,6.38307 l -3.15885,-3.58511 2.33083,-2.79664 z m 29.015936,0.13229 c 0.487054,0.11355 0.980916,0.21057 1.482527,0.28112 0.04769,0.007 0.09199,0.0112 0.138126,0.0165 -0.04757,1.06942 -0.09062,2.13895 -0.138126,3.20808 l -2.227682,-2.413 0.745508,-1.09273 z m -39.070006,0.12402 c 0.25072,1.57872 0.48482,3.0742 0.69984,4.53099 l -1.55585,-2.95275 0.85637,-1.57924 z m 3.35184,0.23151 2.09031,2.23242 -1.36284,1.69498 c -0.2512,-1.29347 -0.49778,-2.60422 -0.72747,-3.92748 z m 39.494323,0.0767 c 0.143583,-2.6e-4 0.28847,0.005 0.432807,0 0.01794,1.23902 0.01486,2.38797 -0.0091,3.44779 l -0.488027,0.5457 c 0.02716,-1.33326 0.05324,-2.66674 0.06446,-3.99362 z m -28.518213,0.7855 1.24314,1.46346 -0.89319,1.26503 c -0.10229,-0.82191 -0.22152,-1.74477 -0.34992,-2.72839 z m 28.840578,5.08502 c -8.84e-4,0.0193 8.85e-4,0.0386 0,0.0579 l -0.02761,-0.0331 z"
       style="display:inline;stroke-width:0.27922" />
    <path
       id="path3983"
       d="m -80.951278,117.87455 -1.482529,0.26458 c -0.03154,0.70808 -0.0606,1.41685 -0.09208,2.12492 -0.38572,0.26411 -0.765722,0.55526 -1.132641,0.88472 l -0.01842,0.0165 c -0.929616,0.83614 -2.671039,2.61258 -4.67784,4.59714 -0.826069,-0.0206 -1.65815,-0.0401 -2.486253,-0.0662 -5.89e-4,-0.0246 5.9e-4,-0.0498 0,-0.0744 l -0.06446,0.0662 c -0.03064,-0.001 -0.06143,10e-4 -0.09208,0 l -0.211793,0.30591 -0.755084,0.76893 c 0.0388,0.79518 0.07338,1.59128 0.101291,2.3895 -1.269278,1.18573 -2.533311,2.30796 -3.665068,3.21628 -1.378806,1.10683 -2.623951,1.88793 -3.259606,2.06706 -0.884355,0.24913 -1.967439,0.23799 -3.112279,0.0744 l -0.1105,-1.73633 h -1.1142 l 0.0368,1.5131 c -0.46478,-0.10165 -0.93483,-0.21479 -1.39967,-0.34726 -2.04477,-0.58272 -3.97243,-1.3724 -5.34087,-1.68672 -1.23599,-0.2839 -2.24046,-0.46723 -3.11229,-0.55399 -0.13787,-0.75861 -0.24733,-1.23118 -0.30387,-1.26502 l -1.40887,-0.13229 c 0.0762,0.44508 0.14869,0.89627 0.22101,1.34773 -0.17244,0.01 -0.34046,0.028 -0.50648,0.0496 -1.32789,0.17257 -2.39745,0.72541 -3.78473,1.57924 -1.35341,0.83302 -2.78084,1.97057 -4.14361,3.02631 -0.0205,-0.41386 -0.0318,-0.83399 -0.046,-1.25677 l -1.71275,0.93429 c 0.0933,0.48332 0.17345,0.96589 0.25783,1.44696 -1.27948,0.90175 -2.44155,1.55569 -3.13997,1.62057 -1.4609,0.1357 -2.37387,-0.0122 -2.84537,-0.21497 -0.47149,-0.20282 -0.50986,-0.38071 -0.49725,-0.55399 a 0.59048393,0.53019918 0 1 0 -1.17867,-0.0661 c -0.044,0.60409 0.39026,1.23579 1.16948,1.57096 0.77919,0.33517 1.88973,0.46196 3.48061,0.31419 1.05585,-0.0981 2.11747,-0.68096 3.22306,-1.44695 0.1653,1.02957 0.30655,2.05618 0.43281,3.07578 -2.85904,0.18113 -5.27719,0.37693 -7.08114,0.59531 l 0.221,0.94258 c 2.31794,-0.0932 4.64012,-0.18842 6.96151,-0.28112 l -5.84738,10.43464 0.30386,1.67018 5.74601,-10.61641 c 0.32372,3.5269 0.42518,6.994 0.34992,10.41797 h 2.90984 c -0.0839,-0.42627 -0.16447,-0.85566 -0.24863,-1.28159 l 7.53232,-9.0289 c 0.33575,3.74253 0.58212,7.3017 0.74587,10.31055 0,0 2.14819,0.22355 2.31132,0 0.0183,-0.0251 -0.0339,-0.53277 -0.11971,-1.30638 l 7.12744,-9.41758 0.28546,10.72382 h 1.93376 l -0.0829,-1.23195 8.766344,-9.76471 c -0.136977,3.70284 -0.355575,7.3832 -0.644584,10.99661 h 2.081085 c -0.0012,-0.34621 -0.0078,-0.70265 -0.0092,-1.05008 l 6.901102,-10.04093 c -0.165152,3.69675 -0.329085,7.3914 -0.49725,11.08762 h 1.860085 c 0.01199,-0.35374 0.01744,-0.70538 0.02761,-1.05833 l 10.027567,-10.41135 c -0.235813,3.74279 -0.476859,7.47818 -0.681417,11.40195 l 2.007419,0.0661 c 0.01388,-0.54348 0.02478,-1.08588 0.03683,-1.62883 l 9.005613,-9.12813 c -0.286508,3.60469 -0.559072,7.33664 -0.856361,10.7569 l 2.237641,0.19844 c -0.01434,-0.71895 -0.0236,-1.43335 -0.02761,-2.14148 l 5.497308,-7.90443 c -0.229998,3.50705 -0.377586,6.96277 -0.561695,10.44284 h 1.491752 c 0.21483,-4.22645 0.303301,-8.39655 0.543307,-12.63385 0.66085,0.0457 1.328772,0.0909 1.989002,0.14056 l 0.07367,-1.60404 c -0.58789,-0.0568 -1.25873,-0.10695 -1.961363,-0.1571 0.161601,-2.42189 0.38071,-4.87415 0.718251,-7.37526 0.503792,-0.14996 0.975142,-0.30662 1.381252,-0.48784 0.445005,-0.19856 0.817524,-0.41695 1.114195,-0.66971 0.2967,-0.25276 0.552294,-0.5761 0.543307,-0.98393 a 0.58949578,0.52931191 0 1 0 -1.178668,0.0248 c -2.95e-4,-0.0183 -0.01058,0.0584 -0.174959,0.19844 -0.164365,0.14002 -0.451547,0.31125 -0.82875,0.47955 -0.204945,0.0914 -0.440498,0.1773 -0.690642,0.26459 0.101125,-0.68006 0.211498,-1.36197 0.331501,-2.05052 l -1.197084,0.60356 c -0.108753,0.60103 -0.208,1.20092 -0.303862,1.7942 -0.375375,0.0959 -0.763599,0.18885 -1.169473,0.26458 -1.500238,0.27993 -3.152347,0.37192 -4.447704,0.23978 0.08541,-0.66403 0.174728,-1.32482 0.267042,-1.96784 l -1.473335,-0.0635 c -0.08627,0.52713 -0.167648,1.1103 -0.248626,1.71979 -0.113404,-0.0439 -0.220911,-0.0884 -0.313083,-0.14056 -0.950448,-0.53734 -3.092531,-2.4515 -5.064737,-4.42357 -0.331559,-0.33152 -0.654336,-0.66034 -0.976084,-0.99218 0.663149,0.0714 1.329597,0.14322 1.989002,0.23151 l -0.52486,-1.27331 c -0.885446,-0.0765 -1.763347,-0.13805 -2.64281,-0.19844 -0.693529,-0.74295 -1.317073,-1.43444 -1.777195,-1.97612 0.05393,-0.9008 0.109544,-1.79954 0.174958,-2.70378 l -1.261528,-1.26502 c -0.01538,0.86254 -0.03476,1.70553 -0.05525,2.53836 -1.944242,-2.38673 -3.974764,-3.73645 -6.058944,-4.08464 -0.568235,-0.0949 -1.136824,-0.11226 -1.694335,-0.0579 -0.74592,0.0728 -1.480642,0.27887 -2.191585,0.59531 0.0575,-0.53109 0.109778,-1.06121 0.174958,-1.59575 z m 2.467836,2.0257 c 0.340104,-0.0101 0.678735,0.0171 1.022141,0.0744 0.950154,0.15859 1.948485,0.59549 2.964939,1.34773 l -7.136541,4.00182 c 0.09677,-1.51069 0.218308,-3.03768 0.368335,-4.57226 0.91768,-0.53306 1.842022,-0.82381 2.780919,-0.85164 z m -4.10707,1.80248 c -0.06193,1.39419 -0.122366,2.7895 -0.184166,4.18359 -1.344536,-0.0267 -2.687569,-0.0529 -4.033402,-0.0827 1.736178,-1.72414 3.220416,-3.22236 3.978004,-3.90261 0.07835,-0.0704 0.160957,-0.13176 0.239417,-0.19844 z m 9.08871,0.45476 c 0.619537,0.5815 1.243848,1.28149 1.869308,2.11667 0.111248,0.14855 0.251566,0.32552 0.405168,0.51263 -0.0145,0.49456 -0.03915,0.97001 -0.05525,1.45521 -3.058349,-0.15759 -6.091946,-0.23992 -9.116409,-0.30591 l 6.898155,-3.77825 z m 3.360972,3.87774 c 0.08652,0.0964 0.157782,0.18118 0.248625,0.28112 -0.0858,-0.005 -0.17208,-0.0116 -0.257834,-0.0165 0.0046,-0.0883 0.0045,-0.1763 0.0092,-0.26458 z m -20.682089,0.76067 c 0.457648,0.0161 0.913675,0.0285 1.372029,0.0413 -0.442266,0.43202 -0.889865,0.86352 -1.344418,1.2981 -0.0096,-0.44577 -0.01751,-0.89469 -0.02761,-1.33945 z m 2.946671,0.0744 c 1.464495,0.0315 2.934352,0.0552 4.401736,0.0744 l -7.117977,12.50156 c -0.04116,-3.27422 -0.09985,-6.54526 -0.16575,-9.80598 0.19364,-0.18185 0.387134,-0.36203 0.580141,-0.54571 0.78125,-0.74342 1.559789,-1.49368 2.302085,-2.22414 z m 6.142039,0.0992 c 3.376,0.0459 6.741687,0.104 10.083211,0.30591 l -10.387013,12.37747 c 0.02136,-4.19232 0.0747,-8.39788 0.303861,-12.6836 z m 11.528846,0.41341 c 0.467696,0.0344 0.933447,0.0665 1.399669,0.10748 0.578667,0.61103 1.189187,1.2346 1.823253,1.86862 1.912034,1.91191 3.842752,3.71502 5.138403,4.50612 l -8.738646,6.67253 c 0.07212,-4.36721 0.166184,-8.74633 0.377528,-13.15482 z m -12.670681,0.69453 c -0.185464,4.18624 -0.375317,8.373 -0.561693,12.5595 -2.171078,0.009 -4.355768,0.0176 -6.556342,0.0413 l 7.122101,-12.59946 z m 11.501148,0.87643 c -0.16567,4.1275 -0.386456,7.95814 -0.616973,11.70781 -2.894161,-0.0274 -5.908369,-0.0382 -9.015043,-0.0331 l 9.632075,-11.67467 z m -20.42396,2.61276 c 0.06604,3.04033 0.05172,6.09177 -0.01842,9.13633 -2.820288,0.0355 -5.616353,0.0908 -8.379744,0.14883 l 8.398013,-9.28529 z m -22.809064,1.15755 -7.87324,8.30951 c -0.11847,-1.09916 -0.22688,-2.22295 -0.30386,-3.38164 1.59659,-1.20865 3.26049,-2.60506 4.72382,-3.50573 1.35023,-0.83106 2.22142,-1.26706 3.28732,-1.4056 0.0533,-0.007 0.11097,-0.0111 0.16575,-0.0165 z m 1.85087,0.0579 c 0.724,0.0911 1.57577,0.25311 2.6336,0.49609 1.15384,0.26504 3.15679,1.06352 5.28577,1.67019 0.17432,0.0497 0.3485,0.0935 0.52486,0.14056 l -7.28391,5.63059 c -0.42459,-3.07631 -0.84358,-6.01054 -1.16026,-7.9375 z m 17.606417,0.678 -6.372177,6.79661 -0.30057,-4.65402 c 1.17402,0.14983 2.333833,0.14266 3.397818,-0.1571 0.95478,-0.26897 2.032347,-1.00732 3.278169,-1.98437 z m -18.955997,0.32279 c 0.35522,2.45538 0.65475,4.96093 0.91165,7.4332 -2.96909,0.11157 -5.7814,0.24093 -8.28756,0.38034 l 7.37556,-7.81315 z m 59.440297,0.56356 -5.295167,6.0034 c 0.15742,-1.97829 0.340576,-3.88647 0.561695,-5.72162 1.465909,0.1634 3.159419,0.007 4.732941,-0.28112 z m -6.270809,0.60357 c -0.204169,1.78273 -0.389078,3.77507 -0.570918,5.90338 -2.361697,-0.071 -4.960719,-0.11955 -7.698175,-0.1571 l 8.268945,-5.74648 z m 6.989207,0.0579 c -0.294319,2.08225 -0.511895,4.12221 -0.690641,6.13516 -1.385259,-0.0838 -2.952858,-0.15198 -4.65014,-0.21497 l 5.34084,-5.92005 z m -49.126895,0.38034 c 0.01,0.002 0.0182,0.006 0.0276,0.008 l 0.14733,5.51497 c -2.43546,0.0583 -4.7972,0.12341 -7.09031,0.19844 l 6.91557,-5.72161 z m 19.475733,6.54844 -6.887842,9.96315 c -0.01659,-3.27051 -0.0375,-6.57437 -0.07367,-9.90547 2.322684,-0.0303 4.641302,-0.0533 6.961509,-0.0579 z m 1.556195,0 c 2.975253,0.002 5.944907,0.028 8.913677,0.0827 l -9.005024,10.17059 c 0.07542,-3.43826 0.08094,-6.84319 0.09208,-10.25261 z m -9.990979,0.0744 -8.748079,9.84753 -0.61698,-9.64909 c 3.122302,-0.0828 6.244593,-0.15115 9.364822,-0.19844 z m 0.174958,0 c 0.0031,-4e-5 0.0061,5e-5 0.0092,0 -7.9e-5,0.003 8e-5,0.006 0,0.008 z m 21.261993,0.0661 c 2.678787,0.0643 5.358224,0.14827 8.029675,0.26458 l -8.186144,9.11172 c 0.06011,-3.12869 0.108753,-6.25078 0.156542,-9.3763 z m -32.26605,0.17363 0.009,0.33073 -0.39597,-0.32247 c 0.12879,-0.004 0.25796,-0.005 0.38675,-0.008 z m -0.6538,0.0165 -6.63005,9.45065 c -0.28852,-2.38273 -0.72789,-5.73299 -1.19709,-9.19427 2.60967,-0.091 5.21681,-0.1816 7.82699,-0.25631 z m 41.751374,0.10749 c 0.03981,0.002 0.07989,0.006 0.119708,0.008 -0.0031,0.0377 -0.0061,0.078 -0.0092,0.11576 l -0.110501,-0.12403 z m 1.648308,0.0827 c 1.666165,0.0834 3.328264,0.17447 4.991069,0.28112 l -5.304006,8.3095 c 0.02086,-2.97365 0.134412,-5.842 0.313084,-8.59075 z m -53.066642,0.13229 -7.54175,9.3763 c -0.57083,-2.92152 -1.12012,-5.87427 -1.52859,-9.0289 3.02123,-0.11983 6.04571,-0.23836 9.07019,-0.34727 z"
       fill="url(#linearGradient4392)"
       style="display:inline;fill:#97d0ed;fill-opacity:1;stroke-width:0.27922" />
    <path
       id="path4366"
       d="m -108.89754,114.31855 c -2.27791,-0.0397 -4.81547,0.95983 -7.37585,2.50529 -2.5604,1.54543 -5.14697,3.64516 -7.5049,5.87057 -2.35795,2.22517 -4.48277,4.57385 -6.1052,6.60638 -1.62244,2.03258 -2.74362,3.72639 -3.10314,4.7543 a 0.3157357,0.28350104 0 0 0 -0.009,0.0909 l 0.0276,1.46346 a 0.3157357,0.28350104 0 0 0 0.1105,0.19844 0.3157357,0.28350104 0 0 0 0.009,0.0165 c 0.30757,0.73869 1.24909,1.19229 2.24684,1.55443 0.99462,0.36099 2.07442,0.60224 2.7625,0.73585 0.01,0.003 0.0179,0.006 0.0276,0.008 0.22271,0.0606 0.44392,0.0922 0.65381,0.10749 v 0.008 c 5e-5,1e-5 0.0162,-0.001 0.0276,0 0.003,1.8e-4 0.006,-1.7e-4 0.009,0 0.003,2.6e-4 0.008,-3e-5 0.009,0 a 0.3157357,0.28350104 0 0 0 0.0184,0 c 0.26215,0.0118 0.51664,-0.0209 0.73667,-0.11575 1.42032,-0.61214 3.39309,-2.27875 5.51587,-3.83646 2.11946,-1.55522 4.37199,-2.97604 6.0407,-3.12526 0.003,-2e-4 0.006,1.9e-4 0.009,0 3.19952,-0.20379 6.43291,1.02793 9.4571,1.92648 1.51353,0.44972 2.97703,0.81415 4.37405,0.85164 1.396963,0.0375 2.741087,-0.27021 3.922612,-1.14929 0.09439,-0.0702 0.244309,-0.20512 0.368335,-0.3142 0.787349,1.67148 1.515472,3.25253 2.099502,4.47305 0.63483,1.32691 1.103115,2.26777 1.510168,2.71198 3.444068,3.75867 6.352137,5.58377 8.987344,6.05234 2.635354,0.46853 4.933904,-0.46109 7.02604,-2.05052 1.423773,-1.08172 3.556042,-3.19299 6.031539,-5.58112 2.419747,-2.33428 5.162272,-4.91199 7.81781,-7.01966 0.180213,0.13346 0.362677,0.27564 0.543307,0.35555 2.872208,1.27053 4.542587,1.82589 7.237612,1.43867 0.25702,-0.0369 0.500992,-0.11829 0.74586,-0.19017 a 0.3157357,0.28350104 0 0 0 0.239417,-0.008 c 0,0 1.111484,-0.50028 2.31131,-1.05008 0.599912,-0.2749 1.223575,-0.56375 1.740362,-0.81029 0.516817,-0.24653 0.916031,-0.44458 1.123418,-0.57049 0.118577,-0.072 0.225302,-0.16905 0.276251,-0.29766 0.0195,-0.0493 -0.003,-0.0982 0,-0.14883 a 0.3157357,0.28350104 0 0 0 0.03683,-0.0992 l 0.239417,-1.71153 a 0.3157357,0.28350104 0 0 0 -0.02761,-0.14883 c 0,0 -1.464878,-3.05356 -4.926538,-3.27422 -2.609158,-0.16628 -6.29615,1.19962 -9.650345,3.65442 -1.333279,-1.55294 -3.353015,-4.55586 -5.856506,-7.25117 -2.592569,-2.79135 -5.69768,-5.23927 -9.143811,-5.19244 -2.949912,0.0401 -6.111395,2.40688 -9.245177,5.25039 -3.015918,2.73658 -5.979383,5.92719 -8.508511,8.06979 -1.512142,-2.80538 -3.241042,-5.85946 -4.972506,-8.4418 -1.80287,-2.68896 -3.56401,-4.85642 -5.20266,-5.68854 -0.81733,-0.41505 -1.71819,-0.61193 -2.66122,-0.62838 z m -0.60775,1.99263 c 2.08484,0.019 4.28566,1.8782 6.3445,4.62201 2.01497,2.68525 3.884907,6.16849 5.469626,9.40911 -0.841775,0.57727 -1.617899,0.99171 -2.246836,1.11622 -2.11483,0.41865 -4.92803,-0.24289 -7.54174,-1.00044 -1.30683,-0.37878 -2.56989,-0.77568 -3.68336,-1.06659 -1.11346,-0.29091 -2.07261,-0.48223 -2.84538,-0.40513 -2.94668,0.29401 -5.58927,1.89534 -7.75331,3.50573 -1.08205,0.80521 -2.04381,1.616 -2.85459,2.27378 -0.81077,0.65775 -1.49464,1.16051 -1.91533,1.33945 -0.55887,0.23769 -1.24804,0.0392 -1.97059,-0.38862 -0.66359,-0.39291 -1.29303,-0.95173 -1.768,-1.42214 0.78496,-1.75992 2.69685,-4.47357 3.1494,-5.10143 0.005,-0.006 0.0134,-0.0108 0.0184,-0.0165 2.38138,-2.7395 5.33907,-5.85708 8.38888,-8.33438 3.05631,-2.48258 6.20956,-4.30636 8.8769,-4.52279 0.10106,-0.008 0.21273,-0.009 0.3315,-0.008 z m 30.792743,1.43039 c 2.525887,-0.0486 5.202053,1.94432 7.652208,4.47305 2.380379,2.45684 4.515478,5.3459 6.206277,7.25117 -1.476458,1.34329 -4.466858,4.18385 -7.35754,6.89557 -1.483355,1.39168 -2.923067,2.72362 -4.069941,3.76211 -0.573511,0.51919 -1.066989,0.96803 -1.464142,1.30638 -0.397152,0.33835 -0.704048,0.57676 -0.82875,0.6532 -1.608647,0.98589 -3.094594,1.30249 -4.456839,1.21544 -1.362275,-0.0871 -2.613284,-0.58938 -3.738736,-1.28984 -2.250607,-1.40089 -3.941171,-3.58352 -4.843735,-4.67995 -0.165309,-0.20082 -0.646382,-1.04391 -1.261529,-2.20763 -0.590601,-1.11723 -1.350518,-2.59056 -2.191586,-4.18359 2.003765,-2.01081 5.098918,-5.24404 8.213843,-8.02852 1.587017,-1.41861 3.174153,-2.71806 4.595038,-3.65442 1.420707,-0.93658 2.689868,-1.49662 3.545138,-1.5131 z m 23.296963,9.36784 c 0.867854,-0.0214 1.723862,0.20108 2.75331,0.71107 0.245932,0.21208 0.695621,0.63809 1.068168,1.017 -2.131798,1.78419 -5.3485,2.52249 -9.576677,0.82682 2.533605,-1.63713 4.212264,-2.51677 5.755141,-2.55487 z"
       style="display:inline;stroke-width:0.27922" />
    <path
       id="path3071"
       fill="url(#linearGradient4414)"
       d="m -131.33649,133.6199 c 0,0 2.94666,3.59066 4.94628,2.74029 1.99952,-0.85045 6.7352,-6.52012 12.41818,-7.08713 2.72751,-0.27212 9.62889,3.34222 14.10195,2.45685 5.076524,-1.00497 14.592206,-15.59111 21.573751,-15.68609 7.473934,-0.10161 13.775977,12.39546 15.891097,13.41808 5.472261,2.64583 9.57874,1.36908 11.891876,-1.22844 l -0.210477,1.32292 c 0,0 -2.104748,2.64583 -4.735594,3.02392 -2.630964,0.37799 -4.188396,-0.15119 -7.051086,-1.4174 -2.871177,-1.27008 -9.57992,-13.82924 -16.206686,-13.70171 -4.7518,0.0915 -16.520506,13.63001 -18.521884,15.11909 -4.481307,3.33348 -10.963417,-2.12768 -17.574897,-1.7009 -3.65861,0.3189 -9.05043,5.85866 -11.68152,6.99267 -1.35841,0.58547 -5.05147,-1.86627 -5.47226,-3.21284 z"
       style="display:inline;fill:#2f627d;fill-opacity:1;stroke:none;stroke-width:0;stroke-dasharray:none;stroke-opacity:1" />
    <path
       id="path3841"
       d="m -52.672086,127.42336 c 0,0 1.870547,1.57231 1.860086,1.90998 -0.02711,0.87405 -3.757005,3.06758 -3.757005,3.06758 0,0 4.445936,-1.98578 5.138404,-2.40607 0.419222,-0.25454 0.03697,-0.69676 -0.893195,-1.2981 -0.580023,-0.375 -2.348143,-1.27331 -2.348143,-1.27331 z m -74.494874,1.30638 c 0,0 -3.80562,4.32541 -4.2267,4.84505 -0.42096,0.51972 -1.39457,1.57078 -1.16948,2.13321 0.60513,1.5119 5.51588,2.25721 5.51588,2.25721 0,0 -4.03606,-1.25772 -3.86751,-2.74505 0.18302,-1.61534 3.74787,-6.4905 3.74787,-6.4905 z"
       fill="#483737"
       style="display:inline;fill:#23485c;fill-opacity:1;stroke-width:0.27922" />
    <path
       id="path3900"
       d="m -110.21471,116.82415 c -0.70602,0.0223 -1.40951,0.16156 -2.08109,0.38034 -1.84893,0.60233 -3.56137,1.78594 -5.03707,2.89401 -0.0151,-0.10037 -0.0309,-0.1989 -0.046,-0.29765 -0.44681,0.33025 -0.89073,0.68074 -1.3352,1.0418 -0.19062,0.15483 -0.38116,0.31996 -0.57092,0.47955 0.0185,0.0688 0.0362,0.13804 0.0553,0.20671 -1.98374,1.46828 -4.05463,3.63061 -5.94875,5.92005 -0.14058,0.0134 -0.27631,0.0279 -0.41436,0.0413 -0.52079,0.5724 -1.03192,1.13655 -1.51017,1.68672 -0.005,0.006 -0.0134,0.0108 -0.0184,0.0165 -0.062,0.086 -0.17539,0.2573 -0.28546,0.41341 0.0319,0.1889 0.0599,0.37692 0.0921,0.56224 -0.1302,0.17575 -0.26007,0.35472 -0.38675,0.52916 -1.2264,1.68873 -2.27052,3.30597 -3.02947,4.61381 -0.0205,0.0353 -0.0352,0.0644 -0.0553,0.0992 -0.0307,-0.0546 -0.0609,-0.11452 -0.0921,-0.16537 l -0.89319,0.13229 c 0.12301,0.40352 0.23992,0.80656 0.34991,1.20717 -0.0744,0.14725 -0.16009,0.30519 -0.221,0.4382 -0.22024,0.48098 -0.36096,0.83651 -0.38675,1.19062 l 1.04053,0.0579 c 0.31291,1.3408 0.549,2.66674 0.73667,3.97695 -0.28224,0.003 -0.56494,0.005 -0.84717,0.008 l 0.29467,1.20716 c 0.23644,-0.004 0.47262,-0.005 0.70903,-0.008 0.49598,4.20185 0.4349,8.26003 0.18416,12.21211 l 1.26153,0.1571 c 0.29172,-2.92629 0.28583,-6.54315 0.0265,-9.9695 l 5.49731,10.26081 c 0.0202,0.15641 0.0452,0.33459 0.0645,0.48783 l 1.62986,0.19844 c -0.88553,-4.14866 -1.66325,-8.19547 -2.36653,-12.29492 l 10.56209,11.29453 c 0.0457,0.35566 0.0921,0.71096 0.13812,1.06659 h 2.23766 c -0.81081,-3.7891 -1.619,-7.91025 -2.43102,-12.328 l 9.17156,10.79818 c 0.01,0.5111 0.0159,1.01663 0.0276,1.52961 h 2.82699 c -0.46051,-3.85789 -0.87346,-7.88776 -1.20632,-12.23698 l 9.143825,11.00508 c -0.03455,0.40849 -0.07471,0.82037 -0.119708,1.23195 h 2.22842 c -0.506827,-3.94705 -0.651803,-8.11371 -0.644584,-12.84869 3.734904,3.4544 7.073186,7.75467 10.442409,11.62526 -0.03824,0.41928 -0.07567,0.82859 -0.119708,1.2237 h 2.007419 c -0.07708,-5.62108 -0.153316,-7.80839 -0.193376,-9.6655 0.868473,-0.14109 1.713519,-0.37862 2.513863,-0.71106 l 6.980072,8.83867 c -0.04594,0.53168 -0.09357,1.04838 -0.147333,1.53789 h 2.302086 c 0.05144,-4.33414 -0.03072,-8.09969 0.06446,-12.61745 l 8.213843,10.76536 c -0.01411,0.62085 -0.01688,1.24116 -0.01842,1.85209 l 1.942976,-0.1323 c 0.09139,-2.11396 0.09733,-6.65083 0.322306,-12.31952 l 4.366965,10.64154 c -0.02679,0.53242 -0.05193,1.07055 -0.07367,1.61232 l 1.491752,-0.19844 c 0.04856,-4.1865 0.245005,-8.39391 0.589334,-12.81589 0.122853,0.003 0.245482,0.005 0.368334,0.008 l 0.07367,-1.67019 c -0.101391,-7.9e-4 -0.202492,8e-4 -0.30386,0 0.277502,-3.26522 0.635125,-6.66512 1.068167,-10.26901 l 0.368334,-0.008 c -0.0074,-0.3347 -0.08556,-0.69771 -0.239417,-1.05833 0.0505,-0.41069 0.09488,-0.80741 0.147333,-1.2237 l -0.976084,0.0579 c -0.155322,-0.15005 -0.321776,-0.30081 -0.515667,-0.43821 -1.060624,-0.75168 -2.695496,-1.26174 -5.055308,-1.25677 0.02558,-0.20148 0.05737,-0.40222 0.08287,-0.60356 -0.465603,0.0878 -0.957255,0.25421 -1.482528,0.47955 -0.0099,0.14048 -0.01751,0.28157 -0.02761,0.4217 -0.158624,0.0714 -0.31874,0.14923 -0.488027,0.23977 -0.58509,0.31287 -1.231001,0.74364 -1.942975,1.27331 -1.42389,1.05931 -3.091352,2.50465 -4.843737,4.12591 -0.89337,0.82661 -1.811936,1.70016 -2.725668,2.58795 0.03115,-0.47864 0.07418,-0.99113 0.110501,-1.48829 -0.647973,0.59389 -1.290199,1.18484 -1.915336,1.77769 -0.01491,0.5148 -0.03118,1.0184 -0.04604,1.53789 -1.311298,1.30344 -2.56428,2.57 -3.729305,3.76211 -0.586123,-5.3e-4 -1.172421,-0.006 -1.758809,-0.008 -0.555684,0.51356 -1.05591,0.97208 -1.510169,1.34774 0.650537,0.007 1.301044,0.01 1.95217,0.0165 -0.15478,0.15911 -0.339251,0.34306 -0.488028,0.4961 -0.550143,0.56586 -1.174159,1.02978 -1.850862,1.39732 l -0.847168,-0.99219 c -0.284507,0.19047 -0.572951,0.37494 -0.865585,0.53742 l 0.718251,0.9095 c -0.589275,0.22842 -1.204952,0.39884 -1.841669,0.51264 -0.0037,-0.27091 0.0018,-0.60045 0,-0.88472 -0.469345,0.18909 -0.953277,0.33692 -1.445694,0.4382 0.0067,0.19788 0.01329,0.41011 0.01842,0.60357 -0.898352,0.0496 -1.816269,0.0121 -2.72567,-0.11575 -2.728852,-0.38378 -5.331705,-1.54155 -6.961509,-2.99297 0.52159,7.9e-4 1.043505,-0.001 1.565419,0 -0.485169,-0.37177 -0.983835,-0.78896 -1.491752,-1.24852 -0.356046,0.002 -0.712181,0.007 -1.068168,0.008 0.0032,-0.32623 0.0051,-0.66945 0.0092,-1.00044 -0.397918,-0.39601 -0.802614,-0.82275 -1.215502,-1.27331 -0.115583,-0.12614 -0.240462,-0.30067 -0.368333,-0.50435 0.0035,0.20973 0.0042,0.41857 0.0092,0.62839 -1.995986,-3.20093 -4.266189,-7.64831 -6.65771,-12.04675 0.356197,0.003 0.712213,0.005 1.068171,0.008 -0.233609,-0.44622 -0.466693,-0.89699 -0.709028,-1.33946 -0.367593,-0.0174 -0.734073,-0.0267 -1.105003,-0.0413 -0.81308,-1.47129 -1.63612,-2.9165 -2.46784,-4.29127 2.9e-4,-0.42572 0.006,-0.86601 0.009,-1.2981 -0.57131,-0.74973 -1.15357,-1.42632 -1.74037,-2.01745 0.0204,0.2642 0.0451,0.53052 0.0645,0.79375 -0.97545,-1.22531 -2.02591,-2.00806 -3.13999,-2.40607 -0.70308,-0.25116 -1.41188,-0.34475 -2.11794,-0.32247 z m 0.0265,1.0504 c 0.5587,-0.0181 1.1112,0.0612 1.65752,0.25631 1.09263,0.39032 2.21652,1.27964 3.30588,2.99297 0.13885,0.21841 0.27583,0.44622 0.41437,0.66971 0.0836,1.32967 0.15189,2.6438 0.21179,3.95235 l -12.00775,-4.80377 c 1.47181,-1.09551 3.10257,-2.21983 4.7147,-2.74506 0.57991,-0.18892 1.14485,-0.30437 1.70354,-0.32247 z m -6.86931,4.0431 10.95814,4.36562 c -3.40932,0.03 -6.86637,0.20128 -10.21204,0.42995 -0.24772,-1.57258 -0.49828,-3.17024 -0.74587,-4.79557 z m -1.85087,0.76067 c 0.36948,1.3811 0.71018,2.7612 1.03134,4.14232 -1.96052,0.14646 -3.86487,0.31123 -5.69063,0.47956 1.53141,-1.78287 3.1438,-3.42609 4.65929,-4.62201 z m 15.62627,1.67746 c 0.37119,0.64474 0.74666,1.29665 1.11419,1.95956 -0.36406,-0.009 -0.72918,-0.0193 -1.0958,-0.0248 -0.008,-0.63934 -0.0146,-1.28106 -0.0184,-1.93477 z m 0.0368,3.36524 c 0.61418,-5.3e-4 1.2275,-0.003 1.84168,0 2.876188,5.28717 5.611641,10.78944 8.020543,14.22135 -3.091646,0.0137 -6.183881,0.0293 -9.272883,0.0496 -0.29187,-4.38123 -0.50486,-9.09161 -0.58934,-14.27109 z m -2.12715,0.008 c 0.28866,-0.002 0.57693,0.002 0.86559,0 0.17611,4.61778 0.22808,9.1231 0.25783,13.60964 l -11.38157,-13.33659 c 3.41904,-0.15888 6.83926,-0.24553 10.258,-0.27284 z m -12.21048,0.37206 c 0.98278,4.41272 1.75231,8.82438 2.4126,13.23737 l -10.19374,-11.84831 c 0.23331,-0.29908 0.46843,-0.59581 0.70902,-0.89297 2.35781,-0.20554 4.71409,-0.36705 7.07203,-0.49609 z m 61.358601,0.75142 c 2.156431,-0.002 3.508599,0.45762 4.309505,1.02526 0.501375,0.35531 0.801994,0.75811 0.966861,1.14101 -0.296612,3.17897 -0.640371,6.27618 -0.976085,9.37631 l -4.299191,-11.54377 z m -59.717301,0.19017 11.01325,12.96458 c -2.93944,0.0208 -5.87511,0.0399 -8.81236,0.0661 -0.73562,-4.10237 -1.46551,-8.44286 -2.20083,-13.03073 z m 58.179139,0.31419 c -0.310373,4.01241 -0.706022,7.92877 -1.068168,11.75755 l -7.256175,-4.7789 c 0.665152,-0.6395 1.330303,-1.26767 1.979808,-1.86862 1.735824,-1.6061 3.386019,-3.02736 4.751506,-4.0431 0.595021,-0.44267 1.131462,-0.80224 1.593029,-1.06659 z m -68.115329,0.9816 10.14836,11.75015 c -2.82181,0.0264 -5.64231,0.06 -8.46257,0.0909 -0.62313,-3.82429 -1.18751,-7.73589 -1.68514,-11.8401 z m 69.311677,0.1819 4.475402,11.41836 c -0.0015,0.0137 0.0014,0.0277 0,0.0413 -1.784709,-0.0129 -3.566944,-0.0235 -5.349973,-0.0331 0.175235,-3.56182 0.444829,-7.45516 0.874807,-11.42682 z m -70.469717,1.21709 c 0.55606,3.20728 1.10585,6.45953 1.64831,9.69856 l -4.75151,-4.82864 c 0.13447,-0.25263 0.28237,-0.51938 0.45119,-0.81029 0.66669,-1.14866 1.58796,-2.56778 2.65201,-4.05976 z m 59.935371,5.58006 6.777341,4.6138 c -2.542416,-0.0112 -5.084184,-0.0194 -7.624508,-0.0248 0.04229,-1.24208 0.09624,-2.52965 0.174958,-3.92747 0.224714,-0.22125 0.446775,-0.44143 0.672195,-0.66146 z m -62.652201,0.94258 3.8952,3.93568 c -1.04946,0.0119 -2.09997,0.0206 -3.1494,0.0331 -0.20095,-1.46071 -0.45099,-2.80961 -0.74586,-3.96875 z m 60.185839,1.50482 c -0.01953,0.71805 -0.04504,1.42274 -0.06446,2.14148 -0.684482,-10e-4 -1.369083,7.9e-4 -2.053476,0 0.680681,-0.69403 1.390829,-1.41182 2.117919,-2.14148 z m -28.703514,3.40518 c 1.656559,-0.003 3.306753,-10e-4 4.963371,0 0.139133,3.6793 0.301415,7.35648 0.07367,11.14558 l -8.840016,-11.13737 c 1.26713,-0.004 2.53591,-0.006 3.802977,-0.008 z m -5.957885,0.0165 c 0.0198,3.56314 0.0366,7.1292 0.0921,10.72383 l -8.76639,-10.66589 c 2.89023,-0.0239 5.78405,-0.0451 8.67446,-0.0579 z m -10.66406,0.0847 c 0.51817,3.61711 0.98334,7.23106 1.4457,10.84791 l -9.46621,-10.76536 c 2.67316,-0.0336 5.34733,-0.0583 8.02057,-0.0827 z m 41.860469,0.008 c 1.120442,0.0122 2.240589,0.0189 3.360973,0.0331 -0.09805,3.51473 -0.219207,6.9469 -0.414361,9.93828 l -6.114342,-7.25117 c 0.735195,-0.41129 1.419707,-0.92271 2.025837,-1.54617 0.351567,-0.36161 0.758796,-0.781 1.141834,-1.17409 z m 5.902475,0.0744 c 2.693227,0.038 5.391816,0.0814 8.085073,0.13229 -0.297968,3.29115 -0.555448,6.50028 -0.681417,9.59114 l -7.403509,-9.72343 z m -57.928694,0.0331 c 0.5721,3.46313 1.09578,6.78153 1.51936,9.73984 l -5.09184,-9.69963 c 1.1914,-0.0178 2.38144,-0.0253 3.57283,-0.0413 z m 68.519027,0.14816 c 1.425156,0.0291 2.847572,0.0578 4.272671,0.091 -0.295139,2.86226 -0.56411,5.77056 -0.764307,8.80559 l -3.509485,-8.89529 z m -32.395692,2.21589 c 1.460606,0.70998 3.128185,1.22092 4.852871,1.46346 0.966155,0.13588 1.951904,0.18439 2.928254,0.1323 0.04397,2.62022 -0.01259,4.80933 -0.138125,6.7138 l -7.640716,-8.31057 z"
       fill="url(#linearGradient4390)"
       style="display:inline;fill:#2e7aa3;fill-opacity:1;stroke-width:0.27922" />
    <path
       id="path3069"
       fill="url(#linearGradient4406)"
       d="m -132.6566,135.60428 c 0,0 13.50518,-18.80738 22.78784,-19.56038 7.70085,-0.62468 15.10968,21.31853 17.048588,23.43441 6.840401,7.46495 11.471093,7.08713 15.575215,3.96875 2.816074,-2.13956 8.741296,-8.66643 14.271902,-12.95797 6.613211,-4.40902 8.000798,-5.02021 13.721464,-0.83807 l 0.23491,-1.71236 c 0,0 -1.393951,-2.89904 -4.654854,-3.10673 -2.628341,-0.1675 -6.630007,1.32291 -10.102953,4.0632 -1.343858,1.0604 -13.150399,12.51268 -14.628154,13.41808 -6.630008,4.06321 -11.681484,-2.64583 -13.470407,-4.81912 -1.251039,-1.51979 -9.435241,-19.71701 -14.522981,-22.30067 -8.20093,-4.16454 -24.82637,14.76481 -26.29057,18.94946 z"
       style="display:inline;fill:#275168;fill-opacity:1;stroke-width:0.27922" />
    <g
       id="g4317"
       transform="matrix(-0.32646,-0.05128761,-0.05525073,0.28625573,-51.165643,86.180186)"
       style="display:inline">
      <path
         id="path4026-5"
         d="m 132.76443,120.2923 c 0,0 -0.0444,0.22855 0.003,0.37044 0.16101,0.48512 0.3253,0.30411 0.32225,0.45204 -0.003,0.14789 -0.0418,0.45244 0.0131,0.49796 0.0552,0.0455 0.25601,0.0249 0.25601,0.0249 0,0 0.32391,0.44157 0.44065,0.36348 0.11674,-0.0776 0.63917,-0.54564 0.63917,-0.54564 l 0.34983,0.47472 -0.0302,0.31564 -0.37241,0.1795 0.0296,0.13918 -0.2227,0.22012 c 0,0 0.13929,0.1031 0.0791,0.15285 -0.0592,0.0512 -1.59977,0.37466 -1.9493,0.0268 -0.34954,-0.34775 -0.66735,-1.08514 -0.77746,-1.17607 -0.11005,-0.0908 -0.38576,-0.44508 -0.49556,-0.409 -0.10954,0.0368 -0.0428,0.0716 0.0296,0.13919 0.0724,0.0676 0.27385,0.30116 0.27385,0.30116 0,0 -0.45905,-0.18471 -0.55351,-0.1795 -0.0946,0.005 -0.10253,0.12114 -0.003,0.14789 0.0996,0.0269 0.48487,0.21793 0.48487,0.21793 0,0 -0.16757,-0.0254 -0.29637,-0.0644 -0.32887,0.0132 -0.15181,0.1727 0.11019,0.15448 0,0 0.33611,0.14058 0.4073,0.40919 0.0343,0.12534 0.22754,0.33025 0.33735,0.29415 0.48896,0.7743 1.35822,0.62766 2.19972,0.548 0,0 -0.84814,0.40382 -1.28188,0.40328 -0.47183,-5.7e-4 -1.20846,-0.27345 -1.29949,-0.44269 -0.13267,-0.24529 -0.76295,-0.82739 -0.91929,-0.82568 -0.1562,0.002 -0.21113,0.0827 -0.0875,0.0903 0.1236,0.007 0.392,0.21275 0.31835,0.21903 -0.0741,0.005 -0.48172,-0.0659 -0.55283,0.0744 -0.0559,0.1107 0.1702,0.0182 0.33734,0.009 0.11851,-0.007 0.2038,0.0537 0.2038,0.0537 l -0.40328,0.11466 c -0.10831,0.10324 -0.0169,0.0995 0.0341,0.11741 0,0 0.37416,-0.12679 0.46707,-0.0581 0.19161,0.14168 0.0932,0.19566 0.0932,0.19566 -0.002,0.10476 -0.22099,0.0174 -0.38935,0.0931 -0.0657,0.03 0.0124,0.0664 0.13625,0.11457 0.14887,0.0594 0.40468,0.15377 0.60526,0.006 0,0 1.08448,0.60595 1.56006,0.58062 0.22938,-0.0124 1.86742,-0.61568 1.86742,-0.61568 l 0.27122,0.24108 0.18345,-0.16947 0.39667,1.34481 -0.0595,0.30343 0.18915,0.11659 c 0,0 -1.84696,1.06936 -1.89505,1.10884 -0.0487,0.0383 -0.36676,0.33871 -0.34575,0.46702 0.0211,0.1282 0.23541,3.44069 0.11577,3.66658 -0.11976,0.22592 -0.0864,0.4711 -0.0864,0.4711 l 1.4895,-0.99664 c 0,0 -0.30491,-0.54401 -0.4112,-0.91035 -0.10731,-0.36579 -0.54075,-1.93474 -0.54075,-1.93474 0,0 1.37949,-0.55628 2.16358,-0.83989 0.78421,-0.28336 1.60427,-0.5966 1.63268,-0.965 0.0282,-0.36857 -0.17867,-0.76128 -0.17867,-0.76128 0.1407,-0.12426 0.15866,-0.28736 0.21714,-0.37905 l -0.5287,-0.52715 c 0,0 -0.78857,-1.60988 -1.42249,-2.20692 -0.12657,-0.11955 -0.4575,-0.25871 -0.4575,-0.25871 0,0 -0.60201,-0.37614 -0.67962,-0.49342 -0.0585,-0.0898 0.36174,-0.77433 0.26233,-0.8525 l -0.21445,0.10425 c -0.002,-0.23858 0.1868,-0.32332 0.32692,-0.41522 -0.0841,-0.009 -0.14863,-0.0348 -0.33992,0.0443 l 0.11622,-0.20492 -0.19924,0.073 c -0.002,-0.11134 0.0666,-0.24267 0.2857,-0.41757 -0.2423,-0.0406 -0.48834,-0.0286 -0.74172,0.0849 -0.0913,-0.13162 0.10924,-0.16704 0.18489,-0.24358 -0.0989,0.0175 -0.0956,-0.099 -0.48915,0.13091 l 0.004,-0.22191 c -0.25153,0.0172 -0.42485,0.2434 -0.63276,0.37668 l -0.0788,-0.0991 -0.2106,0.2102 -0.0508,-0.0669 c 0,0 -0.21464,0.39743 -0.25436,0.60968 -0.0267,0.14227 0.0146,0.42402 0.0146,0.42402 z"
         style="display:inline;stroke-width:0.555127" />
      <path
         id="path4032"
         d="m 125.62452,129.61736 c 0,0 -0.16622,0.13585 -0.18513,0.27825 -0.16088,-0.0681 -0.37952,-0.37393 -0.21771,-0.54815 0.26048,-0.28113 0.98244,-0.92289 1.19582,-1.15271 0.21363,-0.22963 0.58774,-0.84983 0.58774,-0.84983 -0.30461,0.25434 -0.63589,0.57068 -0.83122,0.57025 0,0 0.22923,-0.65341 0.5019,-0.94705 0.0949,-0.10204 0.93162,-0.75969 0.93162,-0.75969 -0.59415,0.31891 -1.15578,0.39798 -1.79775,1.06959 0,0 0.0628,-0.17581 0.24391,-0.47958 -0.80196,0.45748 -2.17372,0.71552 -2.92552,1.49865 -0.26461,0.27581 -0.51376,0.9598 -0.51376,0.9598 l -0.10627,-0.6442 c 0,0 -0.16988,1.05 -0.0346,1.12095 0.13522,0.0709 0.37597,0.16396 0.37597,0.16396 0.0784,0.32635 0.30088,0.36699 0.45914,0.53498 l 0.12175,0.41099 c 0.0471,0.15758 0.29135,0.0382 0.29135,0.0382 0,0 0.55056,0.40678 0.73167,0.24139 0.23869,-0.21811 0.3456,-0.43255 0.44973,-0.64692 l 0.20863,0.47962 0.31565,1.28564 c 0,0 -0.83496,0.92666 -1.40021,1.18312 -0.50879,0.23067 -1.17792,0.0437 -1.68436,0.27005 -0.21688,0.0971 -0.45044,0.48521 -0.45044,0.48521 l 0.42614,-0.16098 0.33416,0.12762 0.52574,-0.27857 1.22766,-0.093 0.80405,-0.43263 0.40599,0.21287 0.74335,-0.69229 1.12887,1.11395 c 0,0 -2.31542,0.76019 -2.42138,1.0369 -0.10586,0.27669 -0.18109,1.22448 -0.18109,1.22448 l 0.78051,0.0532 0.32069,1.95747 0.88437,-0.24818 -0.532,-1.70279 0.70726,0.1052 2.96062,-2.91828 -2.97335,-2.43248 c -0.39372,-0.38586 -0.63196,-0.79423 -1.22049,-1.1519 z"
         style="display:inline;stroke-width:0.613353" />
      <path
         id="path4268"
         d="m 116.5252,137.13528 c -0.47901,-0.0437 -0.95542,0.16944 -1.09833,0.79321 -0.002,0.123 0.0813,0.37033 0.0813,0.37033 0,0 -0.007,0.18743 0.0621,0.31048 0.23674,0.42021 0.37421,0.33065 0.39572,0.45853 0.0213,0.12801 0.12434,0.47776 0.16989,0.43693 0.0916,-0.0818 0.17198,-0.0409 0.17198,-0.0409 0,0 -0.0858,0.059 -0.0299,0.14214 0.0359,0.0521 0.0604,0.0794 0.19329,0.0912 -0.0141,0.174 0.42132,0.36615 0.47816,0.33598 0.46117,-0.2443 0.46725,-0.52047 0.46725,-0.52047 l 0.19251,0.062 c 0.0194,0.29986 -0.0161,0.32399 0.0813,0.37033 l -0.19668,0.32912 c -0.23044,0.67944 -0.67278,1.0651 -1.09366,1.46061 0,0 -0.23552,7.1e-4 -0.14808,0.23217 0.005,0.013 -0.002,0.0273 0.002,0.0436 -0.36389,0.0922 -0.72635,0.13989 -0.79404,0.0541 -0.16803,-0.21304 -0.87629,-0.72282 -1.02724,-0.72231 -0.15086,4.8e-4 -0.18775,0.0733 -0.0666,0.0806 0.12091,0.007 0.42281,0.18833 0.3523,0.19345 -0.0701,0.006 -0.48846,-0.0564 -0.53415,0.0646 -0.036,0.0952 0.16857,0.01 0.32878,0.003 0.11366,-0.005 0.20939,0.0492 0.20939,0.0492 l -0.36016,0.0958 c -0.0877,0.0886 -0.0131,0.0887 0.037,0.10562 0,0 0.34721,-0.10367 0.44831,-0.0439 0.2086,0.12381 0.12632,0.15702 0.12632,0.15702 0.008,0.0451 -0.0456,0.0608 -0.1185,0.0621 -0.006,-9e-5 -0.0124,-0.001 -0.0186,-0.002 -0.21095,-0.0362 -0.39587,-0.0654 -0.45175,-0.058 -0.13816,0.0185 -0.59388,-0.0174 -0.6205,0.0707 -0.0266,0.0881 0.0431,0.0646 0.14013,0.0569 0.0979,-0.007 0.41513,-0.003 0.41513,-0.003 0,0 -0.41337,0.18444 -0.459,0.24583 -0.0458,0.0614 0.047,0.13188 0.1239,0.0845 0.0767,-0.0465 0.46138,-0.17308 0.46138,-0.17308 0,0 -0.11764,0.0798 -0.22017,0.13867 -0.16294,0.21152 0.0676,0.19149 0.19098,0.0183 0,0 0.2979,-0.12056 0.57026,-0.0177 0.12812,0.0487 0.42118,0.0297 0.44785,-0.0585 0.32663,0.0427 0.65746,0.0127 0.96621,-0.0809 0.0575,0.0161 0.10452,0.0316 0.1055,0.0536 0.01,0.1881 0.45175,0.058 0.45175,0.058 l 0.23343,-0.26741 1.11235,-0.89332 0.60772,1.11688 0.0733,0.15241 0.0384,0.1198 c 0,0 -1.45187,0.89534 -1.49175,0.92935 -0.0406,0.033 -0.28733,0.30029 -0.24593,0.41127 0.0411,0.11103 0.7887,2.97632 0.71016,3.17106 -0.0786,0.19461 -0.004,0.40555 -0.004,0.40555 l 1.69855,-0.43093 c 0,0 -0.80995,-0.89311 -0.9741,-1.21012 -0.16524,-0.31664 -0.6274,-1.71323 -0.6274,-1.71323 0,0 1.03019,-0.43281 1.74214,-0.67377 0.71226,-0.24048 1.45908,-0.51544 1.42572,-0.83421 -0.0334,-0.31868 -0.29845,-0.65214 -0.29845,-0.65214 0.11553,-0.10676 0.10337,-0.25492 0.14466,-0.33411 l -0.60306,-0.4495 c 0,0 -1.03041,-1.40134 -1.74151,-1.92191 -0.14228,-0.10414 -0.47436,-0.21962 -0.47436,-0.21962 0,0 -0.64649,-0.33188 -0.74092,-0.43376 0.60496,-0.7224 -0.22243,-1.50448 -1.0208,-1.57712 z"
         style="display:inline;stroke-width:0.507612" />
      <path
         id="path4260"
         fill="#333333"
         d="m 132.29124,139.0543 c 0.74788,0.78397 1.96199,0.75159 2.71177,-0.0724 0.74977,-0.82394 0.75131,-2.12742 0.003,-2.91141 -0.74788,-0.78396 -1.96199,-0.75159 -2.71177,0.0724 -0.74977,0.82394 -0.75131,2.12742 -0.003,2.91141 z"
         style="stroke-width:0.163618" />
      <path
         id="path4262"
         fill="#333333"
         d="m 129.01124,142.7383 c 0.74788,0.78397 1.96199,0.75159 2.71177,-0.0724 0.74977,-0.82394 0.75131,-2.12742 0.003,-2.91141 -0.74788,-0.78396 -1.96199,-0.75159 -2.71177,0.0724 -0.74977,0.82394 -0.75131,2.12742 -0.003,2.91141 z"
         style="stroke-width:0.163618" />
      <path
         id="path4264"
         transform="matrix(-0.1118,0.12286,0.11152,0.1169,118.13,38.73)"
         fill="#333333"
         d="m 475.36,483.43 c 0,6.7063 -5.4365,12.143 -12.143,12.143 -6.7063,0 -12.143,-5.4365 -12.143,-12.143 0,-6.7063 5.4365,-12.143 12.143,-12.143 6.7063,0 12.143,5.4365 12.143,12.143 z" />
      <path
         id="path4266"
         transform="matrix(-0.1118,0.12286,0.11152,0.1169,114.98,42.025)"
         fill="#333333"
         d="m 475.36,483.43 c 0,6.7063 -5.4365,12.143 -12.143,12.143 -6.7063,0 -12.143,-5.4365 -12.143,-12.143 0,-6.7063 5.4365,-12.143 12.143,-12.143 6.7063,0 12.143,5.4365 12.143,12.143 z" />
      <path
         id="path4270"
         fill="#501616"
         d="m 119.88,133.27 c 0,0 -0.56447,0.43889 -0.84846,2.1418 -0.13723,0.82284 0.92562,4.1228 1.7986,5.0985 0.7576,0.8468 2.2828,0.99866 2.2828,0.99866 0,0 -3.3301,2.3291 -3.8947,2.9496 -0.56469,0.62053 -0.96906,1.3041 -0.84833,2.0207 0.15542,0.92263 1.8587,1.9485 1.8587,1.9485 l 6.2114,-6.7048 z" />
      <path
         id="path4272"
         fill="#501616"
         d="m 128.03505,124.32203 c 0,0 -0.56448,0.4389 -0.84847,2.1418 -0.13723,0.82285 0.92562,4.1228 1.7986,5.0985 0.75761,0.84679 2.2828,0.99866 2.2828,0.99866 0,0 -3.3301,2.3291 -3.8948,2.9496 -0.56469,0.62053 -0.96905,1.304 -0.84832,2.0207 0.15542,0.92263 1.8587,1.9485 1.8587,1.9485 l 6.2114,-6.7048 z" />
      <path
         id="path4260-0"
         fill="#333333"
         d="m 141.88603,128.32393 c 0.74788,0.78396 1.96198,0.75158 2.71177,-0.0724 0.74976,-0.82393 0.75131,-2.12741 0.003,-2.9114 -0.74789,-0.78397 -1.96199,-0.75159 -2.71177,0.0724 -0.74977,0.82394 -0.75131,2.12742 -0.003,2.91141 z"
         style="display:inline;stroke-width:0.163618" />
      <path
         id="path4262-1"
         fill="#333333"
         d="m 138.60603,132.00793 c 0.74788,0.78396 1.96198,0.75158 2.71177,-0.0724 0.74976,-0.82393 0.75131,-2.12741 0.003,-2.9114 -0.74789,-0.78397 -1.96199,-0.75159 -2.71177,0.0724 -0.74977,0.82394 -0.75131,2.12742 -0.003,2.91141 z"
         style="display:inline;stroke-width:0.163618" />
      <path
         id="path4272-6"
         fill="#501616"
         d="m 136.18916,115.61723 c 0,0 -0.56448,0.4389 -0.84847,2.1418 -0.13723,0.82285 0.92562,4.1228 1.7986,5.0985 0.75761,0.84679 2.2828,0.99866 2.2828,0.99866 0,0 -3.3301,2.3291 -3.8948,2.9496 -0.56469,0.62053 -0.96905,1.304 -0.84832,2.0207 0.15542,0.92263 1.8587,1.9485 1.8587,1.9485 l 6.2114,-6.7048 z"
         style="display:inline" />
      <path
         id="path4274"
         fill="#a02c2c"
         d="m 127.12036,124.53184 c 0,0 2.92625,3.2812 2.44495,5.6059 -0.48129,2.3248 -4.57576,6.97344 -5.73676,5.60144 l -2.87195,-3.68388 c -0.50575,-0.64873 -2.1149,1.2124 -1.8363,1.6759 0.42496,0.70703 1.79516,3.79168 1.29426,5.59588 -1.1614,4.1839 -5.10234,6.67955 -6.21744,5.42495 -0.5127,-0.57687 -0.0734,-0.99753 -0.83072,-1.36263 -0.75723,-0.36512 -2.8296,-1.423 -3.3094,-0.29702 -0.47987,1.126 -0.68764,8.1957 0.54549,10.774 0.52543,1.0987 3.7445,3.3252 5.022,2.1779 1.2774,-1.1472 27.51632,-30.59224 27.91532,-31.03124 4.67998,-4.92582 -5.41785,-10.16599 -6.35096,-10.13662 -0.65871,0.0207 -0.26351,-0.25807 -1.89309,1.17418 0.26039,0.78294 2.3551,4.00898 1.85919,7.17252 -0.45058,2.87435 -4.34033,4.8281 -5.21278,3.82945 -1.25971,-1.44195 -2.75018,-3.97596 -3.0914,-3.70715 z"
         sodipodi:nodetypes="cccsscscccscscsscc" />
      <circle
         id="path1"
         style="fill:#efdd20;stroke:#000000;stroke-width:0.191004"
         cx="-20.280806"
         cy="188.29428"
         r="0"
         transform="matrix(-0.66479281,0.74702779,0.68833067,0.72539705,0,0)" />
      <path
         id="path4274-1"
         fill="#a02c2c"
         d="m 118.84302,149.07741 c -1.33935,0.42167 -8.64947,1.94009 -8.59392,3.68028 0.20051,1.56204 1.12813,2.53196 3.38682,3.42588 1.48477,0.58763 31.40316,-33.01773 31.11219,-34.32717 -0.07,-1.72338 -1.85915,-3.39242 -1.83965,-3.32907 1.44372,4.68969 -14.89909,21.40531 -24.06544,30.55008 z"
         sodipodi:nodetypes="ccscsc"
         style="display:inline;fill:#f2de2a;fill-opacity:1" />
    </g>
  </g>
</svg>
