<?xml version="1.0" encoding="UTF-8" standalone="no"?>
<!-- Created with Inkscape (http://www.inkscape.org/) -->

<svg
   width="228.29739mm"
   height="115.06265mm"
   viewBox="0 0 228.2974 115.06265"
   version="1.1"
   id="svg1"
   inkscape:version="1.3 (0e150ed6c4, 2023-07-21)"
   sodipodi:docname="parqueDiversionSinAtraccion.svg"
   xmlns:inkscape="http://www.inkscape.org/namespaces/inkscape"
   xmlns:sodipodi="http://sodipodi.sourceforge.net/DTD/sodipodi-0.dtd"
   xmlns:xlink="http://www.w3.org/1999/xlink"
   xmlns="http://www.w3.org/2000/svg"
   xmlns:svg="http://www.w3.org/2000/svg">
  <sodipodi:namedview
     id="namedview1"
     pagecolor="#ffffff"
     bordercolor="#000000"
     borderopacity="0.25"
     inkscape:showpageshadow="2"
     inkscape:pageopacity="0.0"
     inkscape:pagecheckerboard="0"
     inkscape:deskcolor="#d1d1d1"
     inkscape:document-units="mm"
     inkscape:zoom="2"
     inkscape:cx="543"
     inkscape:cy="316.75"
     inkscape:window-width="1920"
     inkscape:window-height="991"
     inkscape:window-x="-9"
     inkscape:window-y="-9"
     inkscape:window-maximized="1"
     inkscape:current-layer="layer1" />
  <defs
     id="defs1">
    <linearGradient
       x1="-1163.6676"
       y1="732.01868"
       x2="-1084.0492"
       y2="728.61084"
       id="linearGradient4681-0"
       xlink:href="#linearGradient4264-2-2"
       gradientUnits="userSpaceOnUse"
       gradientTransform="translate(-4.006592e-6)" />
    <linearGradient
       id="linearGradient4264-2-2">
      <stop
         id="stop4266-3-2"
         style="stop-color:#cfc3e7;stop-opacity:1"
         offset="0" />
      <stop
         id="stop4268-8-4"
         style="stop-color:#9a80cc;stop-opacity:1"
         offset="1" />
    </linearGradient>
    <linearGradient
       x1="-662.56854"
       y1="577.15698"
       x2="-656.86676"
       y2="859.80878"
       id="linearGradient3299"
       xlink:href="#linearGradient4717-5"
       gradientUnits="userSpaceOnUse"
       gradientTransform="matrix(0.23187882,0,0,0.45946827,136.13034,-109.93547)" />
    <linearGradient
       id="linearGradient4717-5">
      <stop
         id="stop4719-1"
         style="stop-color:#f4ebbb;stop-opacity:1"
         offset="0" />
      <stop
         id="stop22308-4"
         style="stop-color:#fcfae9;stop-opacity:1"
         offset="0.77777779" />
      <stop
         id="stop4721-7"
         style="stop-color:#ffffed;stop-opacity:0"
         offset="1" />
    </linearGradient>
  </defs>
  <g
     inkscape:label="Layer 1"
     inkscape:groupmode="layer"
     id="layer1"
     transform="translate(110.03917,-110.86042)">
    <rect
       width="228.29739"
       height="101.40902"
       ry="0"
       x="-110.03917"
       y="110.86042"
       id="rect3288"
       style="fill:#42d4ed;fill-opacity:1;stroke:none;stroke-width:0.258717" />
    <rect
       width="228.28415"
       height="19.477821"
       ry="0"
       x="-110.0295"
       y="206.44525"
       id="rect3288-4"
       style="fill:#4bb305;fill-opacity:1;stroke:none;stroke-width:0.113382" />
    <g
       transform="matrix(-0.17183596,0,0,0.17183596,-291.11978,62.50056)"
       id="g4662"
       style="display:inline;fill:url(#linearGradient4681-0);fill-opacity:1;stroke:none">
      <path
         d="m -1186.1592,719.87865 18.5714,-24.28571 58.5714,-3.21429 24.2857,25.71429 z"
         id="path4200-0"
         style="fill:#b24700;fill-opacity:1;stroke:none" />
      <path
         d="m -1166.5163,695.59294 32.1428,-109.28572 25,106.07143 z"
         id="path4202-9"
         style="fill:#ff6500;fill-opacity:1;stroke:none" />
      <path
         d="m -1171.5163,719.16437 10,142.5 57.1428,1.07143 3.9285,-148.92858 z"
         id="path4206-9"
         style="fill:#ffe580;fill-opacity:1;stroke:none" />
    </g>
    <path
       d="m -104.84403,211.73819 2.40089,0.0585 c 0,0 0.17568,-3.51349 0.0585,-4.56754 1.99098,-0.17567 4.099081,-1.58107 4.099081,-2.75224 0,-1.17116 -0.995497,-3.27926 -1.932421,-4.09907 -0.93693,-0.81982 0.292787,-1.52252 0.702697,-2.34233 0.409917,-0.81982 0.409917,-1.46396 -0.40991,-2.40089 -0.819807,-0.93693 -1.698187,-2.57657 -3.747717,-2.22522 -2.04953,0.35136 -2.57657,0.93694 -3.16215,2.22522 -0.58559,1.28828 -1.52252,0.29279 -1.87386,1.99098 -0.35134,1.69819 -0.29279,2.69368 0.76126,3.63061 1.05405,0.93693 -0.23422,0.35135 -0.58559,1.52251 -0.35134,1.17117 0.46846,1.69819 0.70271,1.81531 0.23422,0.11712 -2.75224,-0.35135 -1.69819,1.17117 1.05405,1.52251 3.10358,1.8153 4.39185,1.75674 0.11713,1.17117 0.2928,4.2162 0.2928,4.2162 z"
       id="path4530"
       style="fill:#52e149;fill-opacity:1;stroke:none;stroke-width:0.264583" />
    <path
       d="m 109.28812,162.72146 -20.017094,0.0756 c 0,0 12.927694,-0.30254 11.676614,-0.9076 -1.251057,-0.60507 -18.766019,0.4538 -24.604367,0.30253 -5.838323,-0.15127 -18.34904,-0.37817 -17.723504,0.2269 0.625534,0.60507 11.676663,0.52944 11.676663,0.52944 0,0 -14.178814,-0.37817 -18.140534,0.0756 -3.961728,0.4538 -3.544715,1.05886 -2.085131,1.8152 1.459585,0.75633 7.297917,0.2269 7.297917,0.2269 0,0 -1.668084,0.4538 0,1.1345 1.668103,0.6807 6.046854,0.9076 6.046854,0.9076 0,0 -4.795769,4.00856 9.383032,3.70603 14.178809,-0.30254 9.174533,-4.15984 9.174533,-4.15984 0,0 6.672395,0.68071 9.800045,-0.0756 3.127652,-0.75633 1.459591,-1.51266 1.459591,-1.51266 0,0 4.378726,0.9076 7.923411,0.60506 3.54471,-0.30253 3.75323,-1.21013 3.75323,-1.21013 0,0 10.84259,0.15127 10.42558,-0.75633 -0.41701,-0.9076 -6.04684,-0.98324 -6.04684,-0.98324 z"
       id="path4361"
       style="fill:#ffffff;stroke:none;stroke-width:0.264583" />
    <path
       d="m 110.33333,153.71362 -31.800472,-0.25793 c 0,0 10.600188,0.70044 8.612664,2.76382 -1.98755,2.06338 -21.862883,0.44 -31.138037,0.95584 -9.275154,0.51585 -27.162947,-0.36666 -26.16918,-2.43004 0.993764,-2.06339 18.550305,-1.80546 18.550305,-1.80546 0,0 -22.525373,1.28961 -28.819224,-0.25793 -6.293855,-1.54753 -5.631344,-3.61091 -3.312556,-6.19014 2.318787,-2.57923 15.569006,-1.43628 15.569006,-1.43628 0,0 -2.650043,-1.54753 0,-3.86884 2.650046,-2.3213 9.60641,-3.09507 9.60641,-3.09507 0,0 0.329038,-10.26128 14.243983,-9.98816 13.597165,0.26688 11.262686,7.56063 11.262686,7.56063 0,0 10.600195,-0.33377 15.569017,2.24546 4.968822,2.57922 1.98755,5.15845 1.98755,5.15845 0,0 5.889115,-5.89205 12.918893,0.58666 4.209885,3.87985 4.968835,2.47049 4.968835,2.47049 0,0 13.58146,-4.82217 13.2502,5.22927 -0.10427,3.16346 -5.30008,2.35923 -5.30008,2.35923 z"
       id="path4359"
       style="fill:#ffffff;stroke:none;stroke-width:0.264583" />
    <path
       d="m -89.140433,143.55749 31.800545,-0.25792 c 0,0 -20.537841,1.03169 -18.550315,3.09507 1.987526,2.06338 29.813011,-1.54753 39.088163,-1.03169 9.275153,0.51585 29.1504785,1.28961 28.1567141,-0.77377 -0.9937644,-2.06338 -18.5503051,-1.80546 -18.5503051,-1.80546 0,0 22.5253707,1.28961 28.8192233,-0.25792 6.2938554,-1.54754 5.631344,-3.61092 3.3125569,-6.19014 -2.3187898,-2.57923 -11.593941,-0.77377 -11.593941,-0.77377 0,0 2.6500428,-1.54754 0,-3.86884 -2.6500455,-2.3213 -9.6064092,-3.09507 -9.6064092,-3.09507 0,0 7.6188751,-13.6699 -14.906498,-12.63821 -22.525376,1.03169 -14.57524,14.18574 -14.57524,14.18574 0,0 -10.600187,-2.3213 -15.569025,0.25793 -4.968824,2.57922 -2.318797,5.15845 -2.318797,5.15845 0,0 -6.956364,-3.09507 -12.587706,-2.06339 -5.631338,1.0317 -5.962599,4.12677 -5.962599,4.12677 0,0 -17.225283,-0.51585 -16.562758,2.57923 0.662501,3.09507 9.606391,3.35299 9.606391,3.35299 z"
       id="path4357"
       style="fill:#ffffff;stroke:none;stroke-width:0.264583" />
    <path
       d="m -19.238016,216.15405 c -0.280426,0.7763 6.342906,-1.54921 13.9464236,-1.97389 5.46272682,-0.30511 11.1205416,0.51645 13.3655894,0.75131 l 2.190699,-2.57247 c -4.5647347,-0.72388 -11.20491151,-0.486 -18.2501102,0.2721 -6.3383088,0.68203 -13.3654988,1.89655 -13.3178988,1.30128 z"
       id="path3304-6"
       style="display:inline;fill:#d7d5af;fill-opacity:1;stroke:none;stroke-width:0.314443"
       sodipodi:nodetypes="csccscc" />
    <path
       d="m 94.452079,799.09101 c 0,0 -1.8249,-62.08609 10.949281,-61.90294 12.77421,0.18315 14.33839,61.17035 14.33839,61.17035 z"
       id="path4230-2"
       style="display:inline;fill:#a88600;fill-opacity:1;stroke:none;stroke-width:1.22364"
       transform="matrix(0.23187882,0,0,0.23187882,-119.6862,16.253844)" />
    <path
       d="m 93.409279,799.45729 c 0,0 -1.824883,-60.80406 9.124421,-61.53664 10.94932,-0.73257 9.90652,61.17036 9.90652,61.17036 z"
       id="path4228-4"
       style="display:inline;fill:#806600;fill-opacity:1;stroke:none;stroke-width:1.22364"
       transform="matrix(0.23187882,0,0,0.23187882,-119.6862,16.253844)" />
    <path
       d="m 29.500339,211.79353 c 0,0 13.631556,5.20193 16.577799,14.11869 H 63.937513 C 56.818814,211.70756 38.777292,211.79353 38.777292,211.79353 Z"
       id="path3304"
       style="display:inline;fill:#d7d5af;fill-opacity:1;stroke:none;stroke-width:0.314443" />
    <path
       d="m 0.06440807,215.92808 c 0,0 2.89848653,-5.9626 5.13446173,-6.04541 2.2359726,-0.0828 2.6500429,1.65628 2.6500429,1.65628 0,0 1.1593935,-2.73286 3.0641103,-2.73286 1.904722,0 5.714159,2.73286 5.714159,2.73286 0,0 0.993764,-2.48442 2.401601,-1.57347 0.248441,-3.06411 2.732858,-6.62511 3.726625,-6.62511 0.993767,0 3.809436,5.63134 4.05788,7.70169 2.070346,-0.99376 1.987531,-0.91095 2.898484,-0.49688 0.910952,0.41407 2.484416,3.06411 2.484416,4.96883 -2.401602,1.32502 -10.600174,1.40784 -14.82368,1.57346 -4.22351,0.16563 -17.30809993,-1.15939 -17.30809993,-1.15939 z"
       id="path4351"
       style="fill:#589b2c;fill-opacity:1;stroke:none;stroke-width:0.264583" />
    <path
       d="m 39.781536,212.80241 c 0,0 1.987534,-4.87579 3.395368,-4.87579 1.407838,0 2.401602,-0.27088 3.643813,1.71555 0.08281,-5.41754 0.91095,-19.9546 3.560995,-19.59342 2.650043,0.36116 2.567228,7.85542 2.567228,11.37682 0.745324,-2.07672 2.153161,-1.80584 2.650046,-0.72234 0.496882,1.08352 0.662509,2.88936 0.662509,5.869 1.24221,-1.62526 3.312556,-1.44467 4.05788,-0.63204 0.745326,0.81263 2.567231,7.31368 2.567231,7.31368 0,0 -5.051645,1.98642 -9.60641,2.07672 -4.554762,0.0903 -13.49866,-2.52818 -13.49866,-2.52818 z"
       id="path4353"
       style="fill:#589b2c;fill-opacity:1;stroke:none;stroke-width:0.276271" />
    <path
       d="m -80.342584,212.62178 c 0,0 -1.987505,-3.56871 -3.395356,-3.56871 -1.407829,0 -2.401594,-0.19826 -3.643815,1.25566 -0.0828,-3.96524 -0.910934,-14.6053 -3.560985,-14.34095 -2.65005,0.26435 -2.567223,5.7496 -2.567223,8.327 -0.745328,-1.52001 -2.153158,-1.32175 -2.65005,-0.5287 -0.496893,0.79305 -0.662501,2.1148 -0.662501,4.29568 -1.242222,-1.18958 -3.312566,-1.0574 -4.057876,-0.46261 -0.74533,0.59478 -2.56725,5.35307 -2.56725,5.35307 0,0 5.051641,1.45392 9.606414,1.52001 4.554773,0.0661 13.498642,-1.85045 13.498642,-1.85045 z"
       id="path4355"
       style="fill:#589b2c;fill-opacity:1;stroke:none;stroke-width:0.264583" />
    <path
       d="m -16.446976,206.4892 h 1.573461 l -0.08281,-4.30632 c 0.745326,-0.24844 2.153161,-2.48442 1.90472,-10.10329 -0.248441,-7.61888 -0.828138,-10.51736 -2.153161,-10.51736 -1.325022,0 -3.560995,6.04541 -3.312554,10.7658 0.248441,4.72039 0.828138,9.52359 1.821905,9.85485 z"
       id="path4689"
       style="fill:#009e00;fill-opacity:1;stroke:none;stroke-width:0.264583" />
    <path
       d="m -47.906658,206.3913 h -1.573462 l 0.08281,-4.30633 c -0.745326,-0.24844 -2.15316,-2.48441 -1.904719,-10.10329 0.248441,-7.61887 0.828138,-10.51736 2.15316,-10.51736 1.325023,0 3.560998,6.04541 3.312555,10.7658 -0.248442,4.7204 -0.828138,9.5236 -1.821905,9.85485 z"
       id="path4691"
       style="fill:#009e00;fill-opacity:1;stroke:none;stroke-width:0.264583" />
    <path
       d="m -84.876136,206.46429 h 1.573458 l -0.08282,-4.30632 c 0.745326,-0.24845 2.153179,-2.48442 1.904722,-10.1033 -0.248435,-7.61887 -0.828132,-10.51736 -2.153158,-10.51736 -1.325025,0 -3.560987,6.04541 -3.312551,10.76581 0.248436,4.72039 0.828133,9.52359 1.821894,9.85485 z"
       id="path4693"
       style="fill:#009e00;fill-opacity:1;stroke:none;stroke-width:0.264583" />
    <path
       d="m 110.76292,215.88612 h -1.57345 l 0.0828,-4.30632 c -0.74534,-0.24844 -2.15321,-2.48442 -1.90474,-10.10329 0.24844,-7.61888 0.82812,-10.51736 2.15315,-10.51736 1.32504,0 3.561,6.04541 3.31256,10.7658 -0.24844,4.72039 -0.82812,9.52359 -1.82189,9.85485 z"
       id="path4697"
       style="fill:#009e00;fill-opacity:1;stroke:none;stroke-width:0.264583" />
    <g
       inkscape:label="Capa 1"
       inkscape:groupmode="layer"
       id="layer1-8"
       transform="matrix(0.13072078,0.18440769,-0.18553408,0.1207597,-42.092297,125.80202)"
       style="display:inline" />
  </g>
</svg>
