<?xml version="1.0" encoding="UTF-8" standalone="no"?>
<!-- Created with Inkscape (http://www.inkscape.org/) -->

<svg
   width="56.304161mm"
   height="60.72221mm"
   viewBox="0 0 56.304161 60.72221"
   version="1.1"
   id="svg1"
   inkscape:version="1.3 (0e150ed6c4, 2023-07-21)"
   sodipodi:docname="ruedaFortuna.svg"
   xmlns:inkscape="http://www.inkscape.org/namespaces/inkscape"
   xmlns:sodipodi="http://sodipodi.sourceforge.net/DTD/sodipodi-0.dtd"
   xmlns="http://www.w3.org/2000/svg"
   xmlns:svg="http://www.w3.org/2000/svg">
  <sodipodi:namedview
     id="namedview1"
     pagecolor="#ffffff"
     bordercolor="#000000"
     borderopacity="0.25"
     inkscape:showpageshadow="2"
     inkscape:pageopacity="0.0"
     inkscape:pagecheckerboard="0"
     inkscape:deskcolor="#d1d1d1"
     inkscape:document-units="mm"
     inkscape:zoom="2.768771"
     inkscape:cx="76.929439"
     inkscape:cy="119.72821"
     inkscape:window-width="1920"
     inkscape:window-height="991"
     inkscape:window-x="-9"
     inkscape:window-y="-9"
     inkscape:window-maximized="1"
     inkscape:current-layer="g4492" />
  <defs
     id="defs1" />
  <g
     inkscape:label="Layer 1"
     inkscape:groupmode="layer"
     id="layer1"
     transform="translate(-92.131257,-74.877086)">
    <g
       transform="matrix(0.23187882,0,0,0.23187882,-77.860175,-66.376384)"
       id="g4492"
       style="display:inline">
      <path
         d="m 809.13219,864.72635 12.29088,-16.92006 64.59617,0.25254 14.4037,17.1611 z"
         id="path4490"
         style="fill:#a572d5;fill-opacity:1;stroke:none" />
      <path
         d="m 853.70619,828.37245 c -6.81853,0 -11,6.1875 -11,6.1875 l 0.90625,21.0625 20.3125,-0.5 0.375,-20.5625 c 0,0 -3.77522,-6.1875 -10.59375,-6.1875 z m -6.0625,9.21875 h 12.625 l -0.75,7.0625 h -11 z"
         id="path4375"
         style="fill:#912c90;fill-opacity:1;stroke:none" />
      <path
         d="m 905.22397,815.24047 c -6.81853,0 -11,6.1875 -11,6.1875 l 0.90625,21.0625 20.3125,-0.5 0.375,-20.5625 c 0,0 -3.77522,-6.1875 -10.59375,-6.1875 z m -6.0625,9.21875 h 12.625 l -0.75,7.0625 h -11 z"
         id="path4458"
         style="fill:#ff6600;fill-opacity:1;stroke:none" />
      <path
         d="m 930.98286,798.06788 c -6.81853,0 -11,6.1875 -11,6.1875 l 0.90625,21.0625 20.3125,-0.5 0.375,-20.5625 c 0,0 -3.77522,-6.1875 -10.59375,-6.1875 z m -6.0625,9.21875 h 12.625 l -0.75,7.0625 h -11 z"
         id="path4460"
         style="fill:#00cc00;fill-opacity:1;stroke:none" />
      <path
         d="m 957.7519,758.67193 c -6.81853,0 -11,6.1875 -11,6.1875 l 0.90625,21.0625 20.3125,-0.5 0.375,-20.5625 c 0,0 -3.77522,-6.1875 -10.59375,-6.1875 z m -6.0625,9.21875 h 12.625 l -0.75,7.0625 h -11 z"
         id="path4462"
         style="fill:#0043a8;fill-opacity:1;stroke:none" />
      <path
         d="m 965.32804,720.28613 c -6.81853,0 -11,6.1875 -11,6.1875 l 0.90625,21.0625 20.3125,-0.5 0.375,-20.5625 c 0,0 -3.77522,-6.1875 -10.59375,-6.1875 z m -6.0625,9.21875 h 12.625 l -0.75,7.0625 h -11 z"
         id="path4464"
         style="fill:#ffcc00;fill-opacity:1;stroke:none" />
      <path
         d="m 956.74174,677.35465 c -6.81853,0 -11,6.1875 -11,6.1875 l 0.90625,21.0625 20.3125,-0.5 0.375,-20.5625 c 0,0 -3.77522,-6.1875 -10.59375,-6.1875 z m -6.0625,9.21875 h 12.625 l -0.75,7.0625 h -11 z"
         id="path4466"
         style="fill:#912c90;fill-opacity:1;stroke:none" />
      <path
         d="m 938.55899,645.02977 c -6.81853,0 -11,6.1875 -11,6.1875 l 0.90625,21.0625 20.3125,-0.5 0.375,-20.5625 c 0,0 -3.77522,-6.1875 -10.59375,-6.1875 z m -6.0625,9.21875 h 12.625 l -0.75,7.0625 h -11 z"
         id="path4468"
         style="fill:#ff6600;fill-opacity:1;stroke:none" />
      <path
         d="m 897.64781,619.27088 c -6.81853,0 -11,6.1875 -11,6.1875 l 0.90625,21.0625 20.3125,-0.5 0.375,-20.5625 c 0,0 -3.77522,-6.1875 -10.59375,-6.1875 z m -6.0625,9.21875 h 12.625 l -0.75,7.0625 h -11 z"
         id="path4470"
         style="fill:#00cc00;fill-opacity:1;stroke:none" />
      <path
         d="m 855.2214,609.16935 c -6.81853,0 -11,6.1875 -11,6.1875 l 0.90625,21.0625 20.3125,-0.5 0.375,-20.5625 c 0,0 -3.77522,-6.1875 -10.59375,-6.1875 z m -6.0625,9.21875 h 12.625 l -0.75,7.0625 h -11 z"
         id="path4472"
         style="fill:#c91b8e;fill-opacity:1;stroke:none" />
      <path
         d="m 810.26961,617.75565 c -6.81853,0 -11,6.1875 -11,6.1875 l 0.90625,21.0625 20.3125,-0.5 0.375,-20.5625 c 0,0 -3.77522,-6.1875 -10.59375,-6.1875 z m -6.0625,9.21875 h 12.625 l -0.75,7.0625 h -11 z"
         id="path4474-0"
         style="fill:#0043a8;fill-opacity:1;stroke:none" />
      <path
         d="m 777.43965,639.97901 c -6.81853,0 -11,6.1875 -11,6.1875 l 0.90625,21.0625 20.3125,-0.5 0.375,-20.5625 c 0,0 -3.77522,-6.1875 -10.59375,-6.1875 z m -6.0625,9.21875 h 12.625 l -0.75,7.0625 h -11 z"
         id="path4476"
         style="fill:#ffcc00;fill-opacity:1;stroke:none" />
      <path
         d="m 754.20614,673.81912 c -6.81853,0 -11,6.1875 -11,6.1875 l 0.90625,21.0625 20.3125,-0.5 0.375,-20.5625 c 0,0 -3.77522,-6.1875 -10.59375,-6.1875 z m -6.0625,9.21875 h 12.625 l -0.75,7.0625 h -11 z"
         id="path4478"
         style="fill:#912c90;fill-opacity:1;stroke:none" />
      <path
         d="m 744.10461,717.76076 c -6.81853,0 -11,6.1875 -11,6.1875 l 0.90625,21.0625 20.3125,-0.5 0.375,-20.5625 c 0,0 -3.77522,-6.1875 -10.59375,-6.1875 z m -6.0625,9.21875 h 12.625 l -0.75,7.0625 h -11 z"
         id="path4480"
         style="fill:#ff6600;fill-opacity:1;stroke:none" />
      <path
         d="m 751.68075,763.7227 c -6.81853,0 -11,6.1875 -11,6.1875 l 0.90625,21.0625 20.3125,-0.5 0.375,-20.5625 c 0,0 -3.77522,-6.1875 -10.59375,-6.1875 z m -6.0625,9.21875 h 12.625 l -0.75,7.0625 h -11 z"
         id="path4482"
         style="fill:#00cc00;fill-opacity:1;stroke:none" />
      <path
         d="m 770.36857,792.00697 c -6.81853,0 -11,6.1875 -11,6.1875 l 0.90625,21.0625 20.3125,-0.5 0.375,-20.5625 c 0,0 -3.77522,-6.1875 -10.59375,-6.1875 z m -6.0625,9.21875 h 12.625 l -0.75,7.0625 h -11 z"
         id="path4484"
         style="fill:#0043a8;fill-opacity:1;stroke:none" />
      <path
         d="m 802.18838,816.25063 c -6.81853,0 -11,6.1875 -11,6.1875 l 0.90625,21.0625 20.3125,-0.5 0.375,-20.5625 c 0,0 -3.77522,-6.1875 -10.59375,-6.1875 z m -6.0625,9.21875 h 12.625 l -0.75,7.0625 h -11 z"
         id="path4486"
         style="fill:#ffcc00;fill-opacity:1;stroke:none" />
      <g
         id="g4432"
         style="display:inline;stroke:#8abfe2;stroke-width:4;stroke-linejoin:round;stroke-miterlimit:4;stroke-dasharray:none;stroke-opacity:1">
        <path
           d="M 775.29208,337.00301 930.35049,495.59696"
           transform="translate(0,308.2677)"
           id="path4384"
           style="display:inline;fill:none;stroke:#8d5386;stroke-width:4;stroke-linecap:butt;stroke-linejoin:round;stroke-miterlimit:4;stroke-dasharray:none;stroke-opacity:1" />
        <path
           d="m 872.77181,416.29999 a 18.687825,18.687825 0 1 1 -37.37565,0 18.687825,18.687825 0 1 1 37.37565,0 z"
           transform="matrix(3.2374338,0,0,3.2374338,-1910.9564,-623.17598)"
           id="path4371"
           style="display:inline;fill:none;stroke:#671a5a;stroke-width:1.23555;stroke-linejoin:round;stroke-miterlimit:4;stroke-dasharray:none;stroke-opacity:1" />
        <path
           d="m 872.77181,416.29999 a 18.687825,18.687825 0 1 1 -37.37565,0 18.687825,18.687825 0 1 1 37.37565,0 z"
           transform="matrix(5.9223544,0,0,5.9223544,-4204.1041,-1740.9084)"
           id="path4373"
           style="display:inline;fill:none;stroke:#671a5e;stroke-width:0.675407;stroke-linejoin:round;stroke-miterlimit:4;stroke-dasharray:none;stroke-opacity:1" />
        <path
           d="m 743.97735,725.57783 220.71833,-1.51522"
           id="path4380"
           style="fill:none;stroke:#8c5285;stroke-width:4;stroke-linecap:butt;stroke-linejoin:round;stroke-miterlimit:4;stroke-dasharray:none;stroke-opacity:1" />
        <path
           d="m 853.5789,833.66416 0.50508,-220.71834"
           id="path4382"
           style="display:inline;fill:none;stroke:#8c5285;stroke-width:4;stroke-linecap:butt;stroke-linejoin:round;stroke-miterlimit:4;stroke-dasharray:none;stroke-opacity:1" />
        <path
           d="M 769.23116,798.81389 937.92664,649.81639"
           id="path4386"
           style="display:inline;fill:none;stroke:#8c5285;stroke-width:4;stroke-linecap:butt;stroke-linejoin:round;stroke-miterlimit:4;stroke-dasharray:none;stroke-opacity:1" />
        <path
           d="m 898.53069,623.04735 -19.69798,45.96194"
           id="path4388"
           style="display:inline;fill:none;stroke:#8c5285;stroke-width:4;stroke-linecap:butt;stroke-linejoin:round;stroke-miterlimit:4;stroke-dasharray:none;stroke-opacity:1" />
        <path
           d="m 808.62711,623.04735 20.20305,45.45686"
           id="path4390"
           style="display:inline;fill:none;stroke:#8c5285;stroke-width:4;stroke-linecap:butt;stroke-linejoin:round;stroke-miterlimit:4;stroke-dasharray:none;stroke-opacity:1" />
        <path
           d="m 753.5738,679.11082 43.43656,22.72843"
           id="path4392"
           style="display:inline;fill:none;stroke:#8c5285;stroke-width:4;stroke-linecap:butt;stroke-linejoin:round;stroke-miterlimit:4;stroke-dasharray:none;stroke-opacity:1" />
        <path
           d="m 753.06872,768.00424 42.93149,-23.73858"
           id="path4394"
           style="display:inline;fill:none;stroke:#8c5285;stroke-width:4;stroke-linecap:butt;stroke-linejoin:round;stroke-miterlimit:4;stroke-dasharray:none;stroke-opacity:1" />
        <path
           d="m 804.5865,822.55248 25.25382,-42.42641"
           id="path4396"
           style="display:inline;fill:none;stroke:#8c5285;stroke-width:4;stroke-linecap:butt;stroke-linejoin:round;stroke-miterlimit:4;stroke-dasharray:none;stroke-opacity:1" />
        <path
           d="M 901.56115,823.05755 879.33779,779.621"
           id="path4398"
           style="display:inline;fill:none;stroke:#8c5285;stroke-width:4;stroke-linecap:butt;stroke-linejoin:round;stroke-miterlimit:4;stroke-dasharray:none;stroke-opacity:1" />
        <path
           d="M 957.11954,762.4484 910.65252,748.30627"
           id="path4400"
           style="display:inline;fill:none;stroke:#8c5285;stroke-width:4;stroke-linecap:butt;stroke-linejoin:round;stroke-miterlimit:4;stroke-dasharray:none;stroke-opacity:1" />
        <path
           d="m 955.60431,680.62605 -44.95179,19.69797"
           id="path4402"
           style="display:inline;fill:none;stroke:#8c5285;stroke-width:4;stroke-linecap:butt;stroke-linejoin:round;stroke-miterlimit:4;stroke-dasharray:none;stroke-opacity:1" />
      </g>
      <path
         d="m 751.04842,562.7721 92.93403,-140.4112 12.12183,4.54568 -63.63961,134.85537 z"
         transform="translate(0,308.2677)"
         id="path4367"
         style="display:inline;fill:#be3583;fill-opacity:1;stroke:none" />
      <path
         d="m 958.12969,871.0398 -92.93403,-140.4112 -12.12183,4.54568 63.63961,134.85537 z"
         id="path4369"
         style="fill:#be3583;fill-opacity:1;stroke:none" />
      <path
         d="m 872.77181,416.29999 a 18.687825,18.687825 0 1 1 -37.37565,0 18.687825,18.687825 0 1 1 37.37565,0 z"
         transform="translate(0,308.2677)"
         id="path4365"
         style="fill:#952987;fill-opacity:1;stroke:none" />
      <rect
         width="74.285713"
         height="13.571428"
         x="818.57141"
         y="485.52304"
         transform="translate(0,308.2677)"
         id="rect4488"
         style="fill:#be3583;fill-opacity:1;stroke:none" />
    </g>
  </g>
</svg>
