<?xml version="1.0" encoding="UTF-8" standalone="no"?>
<!-- Created with Inkscape (http://www.inkscape.org/) -->

<svg
   width="35.099937mm"
   height="53.545506mm"
   viewBox="0 0 35.099937 53.545506"
   version="1.1"
   id="svg1"
   inkscape:version="1.3 (0e150ed6c4, 2023-07-21)"
   sodipodi:docname="niñaVerde.svg"
   xmlns:inkscape="http://www.inkscape.org/namespaces/inkscape"
   xmlns:sodipodi="http://sodipodi.sourceforge.net/DTD/sodipodi-0.dtd"
   xmlns="http://www.w3.org/2000/svg"
   xmlns:svg="http://www.w3.org/2000/svg">
  <sodipodi:namedview
     id="namedview1"
     pagecolor="#ffffff"
     bordercolor="#000000"
     borderopacity="0.25"
     inkscape:showpageshadow="2"
     inkscape:pageopacity="0.0"
     inkscape:pagecheckerboard="0"
     inkscape:deskcolor="#d1d1d1"
     inkscape:document-units="mm"
     inkscape:zoom="22.6633"
     inkscape:cx="73.996286"
     inkscape:cy="136.40997"
     inkscape:window-width="1920"
     inkscape:window-height="991"
     inkscape:window-x="-9"
     inkscape:window-y="-9"
     inkscape:window-maximized="1"
     inkscape:current-layer="layer1" />
  <defs
     id="defs1" />
  <g
     inkscape:label="Layer 1"
     inkscape:groupmode="layer"
     id="layer1"
     transform="translate(-117.27925,-92.339583)">
    <g
       id="g4684"
       transform="matrix(0.26458333,0,0,0.26458333,42.217165,-203.57128)">
      <path
         id="path2775"
         style="fill:#00126b;fill-opacity:1"
         transform="matrix(0.46943,0,0,0.57729,454.99,1001.3)"
         d="m -88.305,337.59 c 0,74.416 -59.303,134.74 -132.46,134.74 -73.154,0 -132.46,-60.326 -132.46,-134.74 0,-74.416 59.303,-134.74 132.46,-134.74 73.154,0 132.46,60.326 132.46,134.74 z" />
      <path
         id="rect3394-1-7"
         style="display:inline;fill:#0ca800;fill-opacity:1"
         d="m 322.00854,1227.0193 c 4.0858,4.2622 3.2448,11.653 -1.8857,16.571 l -17.199,16.487 c -5.1305,4.9181 -12.55,5.4461 -16.636,1.1839 -4.0858,-4.2622 -3.2448,-11.653 1.8857,-16.571 l 17.199,-16.487 c 5.1305,-4.9181 12.55,-5.4461 16.636,-1.1839 z" />
      <path
         id="rect2779"
         style="fill:#0ba800;fill-opacity:1"
         transform="matrix(-0.69201,0.72189,0.72189,0.69201,0,0)"
         d="m 624.24,1122.1 c 5.9043,0 10.658,5.7215 10.658,12.828 v 23.824 c 0,7.107 -4.7532,12.828 -10.658,12.828 -5.9043,0 -10.658,-5.7215 -10.658,-12.828 v -23.824 c 0,-7.107 4.7533,-12.828 10.658,-12.828 z" />
      <path
         id="rect2781"
         style="fill:#0ba800;fill-opacity:1"
         d="m 312.15,1214.5 h 77.648 v 73.08 H 312.15 Z" />
      <path
         id="rect2783"
         style="fill:#0ba800;fill-opacity:1"
         d="m 322.81,1271.3 c 5.9043,0 10.658,5.7215 10.658,12.828 v 23.824 c 0,7.107 -4.7532,12.828 -10.658,12.828 -5.9043,0 -10.658,-5.7215 -10.658,-12.828 v -23.824 c 0,-7.107 4.7532,-12.828 10.658,-12.828 z" />
      <path
         id="path2785"
         style="fill:#d38b5a;fill-opacity:1"
         transform="matrix(0.37748,0,0,0.37108,435.07,1067.4)"
         d="m -88.305,337.59 c 0,74.416 -59.303,134.74 -132.46,134.74 -73.154,0 -132.46,-60.326 -132.46,-134.74 0,-74.416 59.303,-134.74 132.46,-134.74 73.154,0 132.46,60.326 132.46,134.74 z" />
      <path
         id="rect2787"
         style="fill:#0ba800;fill-opacity:1"
         d="m 379.14,1271.3 c 5.9043,0 10.658,5.7215 10.658,12.828 v 23.824 c 0,7.107 -4.7532,12.828 -10.658,12.828 -5.9043,0 -10.658,-5.7215 -10.658,-12.828 v -23.824 c 0,-7.107 4.7532,-12.828 10.658,-12.828 z" />
      <path
         id="path4287"
         style="fill:#000000"
         transform="matrix(0.41051,0,0,0.44783,261.59,1038.4)"
         d="m 175.09,369.56 c 0,4.6247 -4.0899,8.3738 -9.135,8.3738 -5.0451,0 -9.135,-3.7491 -9.135,-8.3738 0,-4.6247 4.0899,-8.3738 9.135,-8.3738 5.0451,0 9.135,3.7491 9.135,8.3738 z" />
      <path
         id="path4289"
         style="fill:#000000"
         transform="matrix(0.41051,0,0,0.44783,304.11,1038.4)"
         d="m 175.09,369.56 c 0,4.6247 -4.0899,8.3738 -9.135,8.3738 -5.0451,0 -9.135,-3.7491 -9.135,-8.3738 0,-4.6247 4.0899,-8.3738 9.135,-8.3738 5.0451,0 9.135,3.7491 9.135,8.3738 z" />
      <path
         id="path4291"
         style="fill:#000000"
         transform="matrix(0.51313,0,0,0.5,289.64,1001.1)"
         d="m 169,430.46 c 0,24.805 -21.813,44.914 -48.72,44.914 -26.907,0 -48.72,-20.109 -48.72,-44.914 v -10e-6 l 48.72,10e-6 z" />
      <path
         id="path2821"
         style="fill:#00126b;fill-opacity:1"
         d="m 350.6,1138.7 c -5.6808,0 -10.738,1.5341 -13.937,3.9063 -3.5083,-1.5254 -7.4226,-2.375 -11.562,-2.375 -14.917,0 -27.031,11.078 -27.031,24.734 0,13.657 12.114,24.75 27.031,24.75 7.5628,0 14.406,-2.8489 19.312,-7.4375 4.4608,4.294 10.333,7.9304 17.187,10.281 18.483,6.3391 37.085,0.9964 41.516,-11.922 4.4306,-12.918 -6.9701,-28.552 -25.453,-34.891 -4.1782,-1.433 -8.3657,-2.2601 -12.391,-2.5469 -3.1255,-2.7069 -8.5304,-4.5 -14.672,-4.5 z" />
    </g>
    <path
       style="fill:#ff0000;fill-opacity:1;fill-rule:evenodd;stroke:#000000;stroke-width:0.418813;stroke-linejoin:round"
       inkscape:connector-curvature="0"
       d="m 132.56173,132.67373 1.56116,1.63883 c 2.00726,-1.82343 4.56026,-3.41139 4.69971,-6.95431 -3.26231,0.26527 -4.7091,3.0342 -6.26087,5.31548 z"
       id="path3297" />
    <path
       style="fill:#803300;fill-opacity:1;fill-rule:evenodd;stroke:none;stroke-width:0.209406;stroke-linejoin:round"
       inkscape:connector-curvature="0"
       d="m 137.82846,129.1818 a 0.48112279,0.52216214 4.0366189 1 1 -0.68773,-0.72185 0.48112279,0.52216214 4.0366189 1 1 0.68773,0.72185 z"
       id="path3301" />
    <path
       style="fill:#803300;fill-opacity:1;fill-rule:evenodd;stroke:none;stroke-width:0.209406;stroke-linejoin:round"
       inkscape:connector-curvature="0"
       d="m 136.87846,130.24577 a 0.48112279,0.52216214 4.0366189 1 1 -0.68773,-0.72185 0.48112279,0.52216214 4.0366189 1 1 0.68773,0.72185 z"
       id="path3303" />
    <path
       style="fill:#803300;fill-opacity:1;fill-rule:evenodd;stroke:none;stroke-width:0.209406;stroke-linejoin:round"
       inkscape:connector-curvature="0"
       d="m 135.91573,131.32354 a 0.48112279,0.52216213 4.0366124 1 1 -0.68773,-0.72185 0.48112279,0.52216213 4.0366124 1 1 0.68773,0.72185 z"
       id="path3305" />
    <path
       style="fill:#be0000;fill-opacity:1;fill-rule:evenodd;stroke:#000000;stroke-width:0.418813;stroke-linejoin:round"
       inkscape:connector-curvature="0"
       d="m 132.56173,132.67373 -1.32564,0.49855 c 0.28667,-0.92152 0.74035,-2.11267 1.35266,-2.51966 0.40245,-0.26744 1.36251,-0.0683 1.36251,-0.0683 z"
       id="path3307" />
    <path
       style="fill:#be0000;fill-opacity:1;fill-rule:evenodd;stroke:#000000;stroke-width:0.418813;stroke-linejoin:round"
       inkscape:connector-curvature="0"
       d="m 134.17049,134.2595 -0.41701,1.45206 c 0.84072,-0.34012 1.92413,-0.86993 2.28013,-1.54653 0.23331,-0.44478 0.0188,-1.47822 0.0188,-1.47822 z"
       id="path3309" />
  </g>
</svg>
