<?xml version="1.0" encoding="UTF-8" standalone="no"?>
<!-- Created with Inkscape (http://www.inkscape.org/) -->

<svg
   width="34.587543mm"
   height="62.384846mm"
   viewBox="0 0 34.587543 62.384846"
   version="1.1"
   id="svg1"
   inkscape:version="1.3 (0e150ed6c4, 2023-07-21)"
   sodipodi:docname="niñaNaranja.svg"
   xmlns:inkscape="http://www.inkscape.org/namespaces/inkscape"
   xmlns:sodipodi="http://sodipodi.sourceforge.net/DTD/sodipodi-0.dtd"
   xmlns="http://www.w3.org/2000/svg"
   xmlns:svg="http://www.w3.org/2000/svg">
  <sodipodi:namedview
     id="namedview1"
     pagecolor="#ffffff"
     bordercolor="#000000"
     borderopacity="0.25"
     inkscape:showpageshadow="2"
     inkscape:pageopacity="0.0"
     inkscape:pagecheckerboard="0"
     inkscape:deskcolor="#d1d1d1"
     inkscape:document-units="mm"
     inkscape:zoom="11.33165"
     inkscape:cx="72.804931"
     inkscape:cy="193.13163"
     inkscape:window-width="1920"
     inkscape:window-height="991"
     inkscape:window-x="-9"
     inkscape:window-y="-9"
     inkscape:window-maximized="1"
     inkscape:current-layer="g4778" />
  <defs
     id="defs1" />
  <g
     inkscape:label="Layer 1"
     inkscape:groupmode="layer"
     id="layer1"
     transform="translate(-34.131249,-34.131249)">
    <g
       id="g4778"
       style="display:inline"
       transform="matrix(0.26458333,0,0,0.26458333,22.422203,-167.8688)">
      <path
         id="rect3394"
         style="display:inline;fill:#d45500"
         d="m 82.564,905.62 c 4.0858,4.2622 3.2448,11.653 -1.8857,16.571 l -17.199,16.487 c -5.1305,4.9181 -12.55,5.4461 -16.636,1.1839 -4.0858,-4.2622 -3.2448,-11.653 1.8857,-16.571 l 17.199,-16.487 c 5.1305,-4.9181 12.55,-5.4461 16.636,-1.1839 z" />
      <path
         id="rect3396"
         style="display:inline;fill:#d45500"
         d="m 136.67,905.62 c -4.0858,4.2622 -3.2448,11.653 1.8856,16.571 l 17.199,16.487 c 5.1305,4.9181 12.55,5.4461 16.636,1.1839 4.0858,-4.2622 3.2448,-11.653 -1.8857,-16.571 l -17.199,-16.487 c -5.1305,-4.9181 -12.55,-5.4461 -16.636,-1.1839 z" />
      <path
         id="rect3398"
         style="display:inline;fill:#d45500"
         d="m 70.794,893.05 h 77.648 v 73.08 H 70.794 Z" />
      <path
         id="rect3400"
         style="display:inline;fill:#d45500"
         d="m 81.452,949.77 c 5.9043,0 10.658,5.7215 10.658,12.828 v 23.824 c 0,7.107 -4.7533,12.828 -10.658,12.828 -5.9043,0 -10.658,-5.7215 -10.658,-12.828 v -23.824 c 0,-7.107 4.7533,-12.828 10.658,-12.828 z" />
      <path
         id="path3404"
         style="display:inline;fill:#ebb7b7;fill-opacity:1"
         d="m 160,869.98256 c 0,27.614 -22.386,50 -50,50 -27.614,0 -50,-22.386 -50,-50 0,-27.614 22.386,-50 50,-50 27.614,0 50,22.386 50,50 z" />
      <path
         id="rect3408"
         style="display:inline;fill:#d45500"
         d="m 137.78,949.77 c 5.9043,0 10.658,5.7215 10.658,12.828 v 23.824 c 0,7.107 -4.7533,12.828 -10.658,12.828 -5.9043,0 -10.658,-5.7215 -10.658,-12.828 v -23.824 c 0,-7.107 4.7533,-12.828 10.658,-12.828 z" />
      <path
         id="path3410"
         style="display:inline;fill:#000000"
         d="m 92.109,882.38 c 0,2.0711 -1.6789,3.75 -3.75,3.75 -2.0711,0 -3.75,-1.6789 -3.75,-3.75 0,-2.0711 1.6789,-3.75 3.75,-3.75 2.0711,0 3.75,1.6789 3.75,3.75 z" />
      <path
         id="path3412"
         style="display:inline;fill:#000000"
         d="m 134.63,882.38 c 0,2.0711 -1.6789,3.75 -3.75,3.75 -2.0711,0 -3.75,-1.6789 -3.75,-3.75 0,-2.0711 1.6789,-3.75 3.75,-3.75 2.0711,0 3.75,1.6789 3.75,3.75 z" />
      <path
         id="path3414"
         style="display:inline;fill:#000000"
         d="m 135,894.89 c 0,12.403 -11.193,22.457 -25,22.457 -13.807,0 -25,-10.054 -25,-22.457 v -10e-6 l 25,10e-6 z" />
      <path
         id="path6557"
         style="display:inline;fill:#aa0000"
         d="m 89.683,763.48 c -1.5786,0.0637 -3.1189,0.30327 -4.625,0.78125 -3.6982,1.1738 -3.7799,1.5094 -0.7812,3.1875 4.1155,2.3031 7.2129,10.059 5.6406,14.156 -0.84215,2.1947 -2.7382,2.7961 -6.4844,2.0469 -6.3056,-1.2611 -17.904,1.6198 -20.891,5.2188 -1.7176,2.0695 -1.1915,2.4497 2.4688,1.75 5.427,-1.0374 16.562,4.2446 16.563,7.8594 0,1.3961 -1.951,3.4786 -4.3282,4.625 l -4.3125,2.0938 4.375,0.125 c 5.9586,0.17671 17.791,5.2798 22.516,9.7188 0.9043,0.84952 2.0228,1.548 3.4063,2.125 -0.40725,0.002 -0.81755,0.009 -1.2031,0.0156 -8.2754,0.15076 -12.35,1.3028 -19.219,4.9219 -16.971,8.9423 -28.332,25.065 -34.563,48.984 -3.0211,11.599 -3.9452,23.42 -1.0937,14.047 1.6153,-5.3104 4.1068,-10.557 7.3437,-15.531 -0.2237,0.79533 -0.4444,1.5929 -0.6562,2.4063 -3.0212,11.599 -3.9451,23.42 -1.0938,14.047 1.7332,-5.6976 4.4725,-11.321 8.0625,-16.609 -0.3395,1.164 -0.6709,2.3434 -0.98435,3.5469 -3.0212,11.599 -3.9451,23.42 -1.0938,14.047 2.8137,-9.2498 8.267,-18.299 15.734,-26.047 2.3435,-2.4315 4.9492,-5.5327 7.125,-8.4375 4.2905,8.2276 13.634,16.554 25.938,22.172 9.776,4.4642 42.339,6.8349 48.859,8.0469 -0.65595,-0.3901 -1.8476,-0.31381 -2.3906,-0.84375 -1.9516,-2.1191 -5.1021,-5.2377 -6.3125,-7.7969 -0.7193,-1.555 -1.5573,-3.0723 -2.2812,-4.625 0.18115,0.0464 0.36385,0.13655 0.54685,0.18751 -1.7874,-2.7896 -3.6932,-7.2615 -5.1094,-12.266 1.0675,1.4219 2.4125,3.2735 3.2031,4.0938 7.4674,7.7477 13.64,15.547 16.453,24.797 2.8514,9.3735 1.9431,-2.4477 -1.0781,-14.047 -0.6977,-2.6787 -1.4678,-5.252 -2.2969,-7.7344 4.5312,5.5112 8.1309,11.25 10.094,17.703 2.8513,9.3735 1.943,-2.4477 -1.0782,-14.047 -3.0458,-11.694 -7.3402,-21.506 -12.906,-29.531 -0.017,-0.0222 -0.0455,-0.0404 -0.0625,-0.0625 -7.3391,-9.4665 -17.754,-16.08 -30.25,-19.266 4.4413,-0.35215 6.5529,-1.939 11.906,-6.6875 6.9519,-6.1664 9.4337,-7.1779 17.281,-7.2031 11.382,-0.0365 7.8272,-3.147 -5.7031,-4.9844 -13.429,-1.8236 -12.103,-5.5898 2.875,-8.1719 l 8.1718,-1.375 -8.5313,-5.1094 c -8.882,-5.3154 -8.4806,-6.5221 2.7656,-7.6719 l 5.7656,-0.60937 -6.125,-3.2969 c -9.4346,-5.1186 -22.12,-4.4195 -29.359,1.6719 l -6,5.0469 -6.5938,-7.6875 c -5.6006,-6.5431 -12.847,-10.057 -19.688,-9.7813 z" />
    </g>
  </g>
</svg>
