<?xml version="1.0" encoding="UTF-8" standalone="no"?>
<!-- Created with Inkscape (http://www.inkscape.org/) -->

<svg
   width="35.075092mm"
   height="55.29306mm"
   viewBox="0 0 35.075092 55.29306"
   version="1.1"
   id="svg1"
   inkscape:version="1.3 (0e150ed6c4, 2023-07-21)"
   sodipodi:docname="niñoRosa.svg"
   xmlns:inkscape="http://www.inkscape.org/namespaces/inkscape"
   xmlns:sodipodi="http://sodipodi.sourceforge.net/DTD/sodipodi-0.dtd"
   xmlns="http://www.w3.org/2000/svg"
   xmlns:svg="http://www.w3.org/2000/svg">
  <sodipodi:namedview
     id="namedview1"
     pagecolor="#ffffff"
     bordercolor="#000000"
     borderopacity="0.25"
     inkscape:showpageshadow="2"
     inkscape:pageopacity="0.0"
     inkscape:pagecheckerboard="0"
     inkscape:deskcolor="#d1d1d1"
     inkscape:document-units="mm"
     inkscape:zoom="22.663299"
     inkscape:cx="79.026446"
     inkscape:cy="153.26542"
     inkscape:window-width="1920"
     inkscape:window-height="991"
     inkscape:window-x="-9"
     inkscape:window-y="-9"
     inkscape:window-maximized="1"
     inkscape:current-layer="g3806" />
  <defs
     id="defs1" />
  <g
     inkscape:label="Layer 1"
     inkscape:groupmode="layer"
     id="layer1"
     transform="translate(-69.85,-49.74167)">
    <g
       id="g3806"
       transform="matrix(0.26458333,0,0,0.26458333,-26.963383,-155.69177)"
       style="display:inline">
      <path
         id="rect3394-1-9"
         style="display:inline;fill:#d1007d;fill-opacity:1"
         d="m 404.21819,890.70084 c 4.0858,4.2622 3.2448,11.653 -1.8857,16.571 l -17.199,16.487 c -5.1305,4.9181 -12.55,5.4461 -16.636,1.1839 -4.0858,-4.2622 -3.2448,-11.653 1.8857,-16.571 l 17.199,-16.487 c 5.1305,-4.9181 12.55,-5.4461 16.636,-1.1839 z" />
      <path
         id="rect4352"
         style="fill:#d2007d;fill-opacity:1"
         transform="matrix(-0.69201,0.72189,0.72189,0.69201,0,0)"
         d="m 325.34,949.32 c 5.9045,0 10.658,5.7217 10.658,12.829 v 23.825 c 0,7.1072 -4.7534,12.829 -10.658,12.829 -5.9045,0 -10.658,-5.7217 -10.658,-12.829 v -23.825 c 0,-7.1072 4.7534,-12.829 10.658,-12.829 z" />
      <path
         id="rect4354"
         style="fill:#d2007d;fill-opacity:1"
         d="m 394.29,879.23 h 77.65 v 73.083 h -77.65 z" />
      <path
         id="rect4356"
         style="fill:#d2007d;fill-opacity:1"
         d="m 404.95,935.94 c 5.9045,0 10.658,5.7217 10.658,12.829 v 23.825 c 0,7.1072 -4.7534,12.829 -10.658,12.829 -5.9045,0 -10.658,-5.7217 -10.658,-12.829 v -23.825 c 0,-7.1072 4.7534,-12.829 10.658,-12.829 z" />
      <path
         id="rect4364"
         style="fill:#d2007d;fill-opacity:1"
         d="m 461.28,935.94 c 5.9045,0 10.658,5.7217 10.658,12.829 v 23.825 c 0,7.1072 -4.7534,12.829 -10.658,12.829 -5.9045,0 -10.658,-5.7217 -10.658,-12.829 v -23.825 c 0,-7.1072 4.7534,-12.829 10.658,-12.829 z" />
      <path
         id="path4372"
         style="fill:#784421"
         transform="matrix(0.46382,-0.050595,0.049737,0.45596,519.79,673.15)"
         d="m -88.305,337.59 c 0,74.416 -59.303,134.74 -132.46,134.74 -73.154,0 -132.46,-60.326 -132.46,-134.74 0,-74.416 59.303,-134.74 132.46,-134.74 73.154,0 132.46,60.326 132.46,134.74 z" />
      <path
         id="path4360"
         style="fill:#f7e0c0;fill-opacity:1"
         transform="matrix(0.37749,0,0,0.37109,516.83,732.12)"
         d="m -88.305,337.59 c 0,74.416 -59.303,134.74 -132.46,134.74 -73.154,0 -132.46,-60.326 -132.46,-134.74 0,-74.416 59.303,-134.74 132.46,-134.74 73.154,0 132.46,60.326 132.46,134.74 z" />
      <path
         id="path4366"
         style="fill:#000000;stroke-width:0.40364"
         d="m 418.34799,867.93503 c 0,1.48534 -2.07472,2.68946 -4.63399,2.68946 -2.55926,0 -4.63398,-1.20412 -4.63398,-2.68946 0,-1.48534 2.07472,-2.68946 4.63398,-2.68946 2.55927,0 4.63399,1.20412 4.63399,2.68946 z" />
      <path
         id="path4366-3"
         style="fill:#000000;stroke-width:0.40364"
         d="m 457.81628,867.65708 c 0,1.48534 -2.07472,2.68946 -4.63399,2.68946 -2.55926,0 -4.63398,-1.20412 -4.63398,-2.68946 0,-1.48534 2.07472,-2.68946 4.63398,-2.68946 2.55927,0 4.63399,1.20412 4.63399,2.68946 z" />
      <path
         id="path4465"
         style="fill:#000000"
         transform="matrix(0.51315,0,0,0.50002,371.77,665.82)"
         d="m 169,430.46 c 0,24.805 -21.813,44.914 -48.72,44.914 -26.907,0 -48.72,-20.109 -48.72,-44.914 v -10e-6 l 48.72,10e-6 z" />
      <path
         id="path6581"
         sodipodi:nodetypes="csssscccccccccscsscssc"
         style="display:inline;fill:#7c4622;stroke:none;stroke-width:0.92575;fill-opacity:1"
         d="m 429.3,797.98978 c -0.64427,-8.6e-4 -1.2496,0.004 -1.8438,0.0134 -8.3185,0.12989 -12.409,1.12732 -19.313,4.24505 -17.06,7.70369 -22.029,12.82435 -28.291,33.43038 -3.0369,9.99278 -3.9599,20.18096 -1.0938,12.10532 1.8859,-5.31314 5.6932,3.21483 14.557,1.668 -1.2415,2.19267 -4.354,4.84744 -6.297,6.65548 -0.54587,0.45653 -1.7626,0.38707 -2.4219,0.72313 3.4772,-0.55387 14.336,-1.38956 25.22,-2.62469 -1.2656,1.28475 -2.6698,2.53119 -3.7345,3.5219 -0.54591,0.45653 -1.747,0.38708 -2.4063,0.72312 3.4789,-0.55414 14.33,-1.4019 25.22,-2.63805 -1.0947,1.06269 -2.2318,2.07465 -3.1251,2.90587 -0.54592,0.45654 -1.747,0.38708 -2.4063,0.72313 6.5547,-1.0441 39.284,-3.0909 49.111,-6.93667 8.9501,-3.50261 12.629,-6.5894 14.752,-8.30728 1.4155,2.19815 -0.10481,4.53317 0.82417,7.15092 2.8662,8.07512 5.8066,-0.77406 2.7697,-10.76666 -3.0618,-10.0742 -6.3132,-17.14627 -11.908,-24.0598 -0.017,-0.019 -0.0295,-0.0345 -0.047,-0.0536 -10.525,-11.63396 -27.342,-18.28353 -47.548,-18.46693 -0.69037,-0.006 -1.3714,-0.0127 -2.0157,-0.0134 z" />
    </g>
  </g>
</svg>
