<?xml version="1.0" encoding="UTF-8" standalone="no"?>
<!-- Created with Inkscape (http://www.inkscape.org/) -->

<svg
   width="34.587543mm"
   height="62.384846mm"
   viewBox="0 0 34.587543 62.384846"
   version="1.1"
   id="svg1"
   inkscape:version="1.3 (0e150ed6c4, 2023-07-21)"
   sodipodi:docname="niñaNaranja.svg"
   xmlns:inkscape="http://www.inkscape.org/namespaces/inkscape"
   xmlns:sodipodi="http://sodipodi.sourceforge.net/DTD/sodipodi-0.dtd"
   xmlns="http://www.w3.org/2000/svg"
   xmlns:svg="http://www.w3.org/2000/svg">
  <sodipodi:namedview
     id="namedview1"
     pagecolor="#ffffff"
     bordercolor="#000000"
     borderopacity="0.25"
     inkscape:showpageshadow="2"
     inkscape:pageopacity="0.0"
     inkscape:pagecheckerboard="0"
     inkscape:deskcolor="#d1d1d1"
     inkscape:document-units="mm"
     inkscape:zoom="11.33165"
     inkscape:cx="72.804933"
     inkscape:cy="193.13163"
     inkscape:window-width="1920"
     inkscape:window-height="991"
     inkscape:window-x="-9"
     inkscape:window-y="-9"
     inkscape:window-maximized="1"
     inkscape:current-layer="layer2" />
  <defs
     id="defs1" />
  <g
     inkscape:label="Layer 1"
     inkscape:groupmode="layer"
     id="layer1"
     transform="translate(-34.131249,-34.131249)">
    <g
       id="g4778"
       style="display:inline"
       transform="matrix(0.26458333,0,0,0.26458333,22.422203,-167.8688)">
      <path
         id="rect3394"
         style="display:inline;fill:#d45500"
         d="m 82.564,905.62 c 4.0858,4.2622 3.2448,11.653 -1.8857,16.571 l -17.199,16.487 c -5.1305,4.9181 -12.55,5.4461 -16.636,1.1839 -4.0858,-4.2622 -3.2448,-11.653 1.8857,-16.571 l 17.199,-16.487 c 5.1305,-4.9181 12.55,-5.4461 16.636,-1.1839 z" />
      <path
         id="rect3396"
         style="display:inline;fill:#d45500"
         d="m 136.67,905.62 c -4.0858,4.2622 -3.2448,11.653 1.8856,16.571 l 17.199,16.487 c 5.1305,4.9181 12.55,5.4461 16.636,1.1839 4.0858,-4.2622 3.2448,-11.653 -1.8857,-16.571 l -17.199,-16.487 c -5.1305,-4.9181 -12.55,-5.4461 -16.636,-1.1839 z" />
      <path
         id="rect3398"
         style="display:inline;fill:#d45500"
         d="m 70.794,893.05 h 77.648 v 73.08 H 70.794 Z" />
      <path
         id="rect3400"
         style="display:inline;fill:#d45500"
         d="m 81.452,949.77 c 5.9043,0 10.658,5.7215 10.658,12.828 v 23.824 c 0,7.107 -4.7533,12.828 -10.658,12.828 -5.9043,0 -10.658,-5.7215 -10.658,-12.828 v -23.824 c 0,-7.107 4.7533,-12.828 10.658,-12.828 z" />
      <path
         id="path3404"
         style="display:inline;fill:#ebb7b7;fill-opacity:1"
         d="m 160,869.98256 c 0,27.614 -22.386,50 -50,50 -27.614,0 -50,-22.386 -50,-50 0,-27.614 22.386,-50 50,-50 27.614,0 50,22.386 50,50 z" />
      <path
         id="rect3408"
         style="display:inline;fill:#d45500"
         d="m 137.78,949.77 c 5.9043,0 10.658,5.7215 10.658,12.828 v 23.824 c 0,7.107 -4.7533,12.828 -10.658,12.828 -5.9043,0 -10.658,-5.7215 -10.658,-12.828 v -23.824 c 0,-7.107 4.7533,-12.828 10.658,-12.828 z" />
      <path
         id="path3410"
         style="display:inline;fill:#000000"
         d="m 92.109,882.38 c 0,2.0711 -1.6789,3.75 -3.75,3.75 -2.0711,0 -3.75,-1.6789 -3.75,-3.75 0,-2.0711 1.6789,-3.75 3.75,-3.75 2.0711,0 3.75,1.6789 3.75,3.75 z" />
      <path
         id="path3412"
         style="display:inline;fill:#000000"
         d="m 134.63,882.38 c 0,2.0711 -1.6789,3.75 -3.75,3.75 -2.0711,0 -3.75,-1.6789 -3.75,-3.75 0,-2.0711 1.6789,-3.75 3.75,-3.75 2.0711,0 3.75,1.6789 3.75,3.75 z" />
      <path
         id="path3414"
         style="display:inline;fill:#000000"
         d="m 135,894.89 c 0,12.403 -11.193,22.457 -25,22.457 -13.807,0 -25,-10.054 -25,-22.457 v -10e-6 l 25,10e-6 z" />
      <path
         id="path6557"
         style="display:inline;fill:#aa0000"
         d="m 89.683,763.48 c -1.5786,0.0637 -3.1189,0.30327 -4.625,0.78125 -3.6982,1.1738 -3.7799,1.5094 -0.7812,3.1875 4.1155,2.3031 7.2129,10.059 5.6406,14.156 -0.84215,2.1947 -2.7382,2.7961 -6.4844,2.0469 -6.3056,-1.2611 -17.904,1.6198 -20.891,5.2188 -1.7176,2.0695 -1.1915,2.4497 2.4688,1.75 5.427,-1.0374 16.562,4.2446 16.563,7.8594 0,1.3961 -1.951,3.4786 -4.3282,4.625 l -4.3125,2.0938 4.375,0.125 c 5.9586,0.17671 17.791,5.2798 22.516,9.7188 0.9043,0.84952 2.0228,1.548 3.4063,2.125 -0.40725,0.002 -0.81755,0.009 -1.2031,0.0156 -8.2754,0.15076 -12.35,1.3028 -19.219,4.9219 -16.971,8.9423 -28.332,25.065 -34.563,48.984 -3.0211,11.599 -3.9452,23.42 -1.0937,14.047 1.6153,-5.3104 4.1068,-10.557 7.3437,-15.531 -0.2237,0.79533 -0.4444,1.5929 -0.6562,2.4063 -3.0212,11.599 -3.9451,23.42 -1.0938,14.047 1.7332,-5.6976 4.4725,-11.321 8.0625,-16.609 -0.3395,1.164 -0.6709,2.3434 -0.98435,3.5469 -3.0212,11.599 -3.9451,23.42 -1.0938,14.047 2.8137,-9.2498 8.267,-18.299 15.734,-26.047 2.3435,-2.4315 4.9492,-5.5327 7.125,-8.4375 4.2905,8.2276 13.634,16.554 25.938,22.172 9.776,4.4642 42.339,6.8349 48.859,8.0469 -0.65595,-0.3901 -1.8476,-0.31381 -2.3906,-0.84375 -1.9516,-2.1191 -5.1021,-5.2377 -6.3125,-7.7969 -0.7193,-1.555 -1.5573,-3.0723 -2.2812,-4.625 0.18115,0.0464 0.36385,0.13655 0.54685,0.18751 -1.7874,-2.7896 -3.6932,-7.2615 -5.1094,-12.266 1.0675,1.4219 2.4125,3.2735 3.2031,4.0938 7.4674,7.7477 13.64,15.547 16.453,24.797 2.8514,9.3735 1.9431,-2.4477 -1.0781,-14.047 -0.6977,-2.6787 -1.4678,-5.252 -2.2969,-7.7344 4.5312,5.5112 8.1309,11.25 10.094,17.703 2.8513,9.3735 1.943,-2.4477 -1.0782,-14.047 -3.0458,-11.694 -7.3402,-21.506 -12.906,-29.531 -0.017,-0.0222 -0.0455,-0.0404 -0.0625,-0.0625 -7.3391,-9.4665 -17.754,-16.08 -30.25,-19.266 4.4413,-0.35215 6.5529,-1.939 11.906,-6.6875 6.9519,-6.1664 9.4337,-7.1779 17.281,-7.2031 11.382,-0.0365 7.8272,-3.147 -5.7031,-4.9844 -13.429,-1.8236 -12.103,-5.5898 2.875,-8.1719 l 8.1718,-1.375 -8.5313,-5.1094 c -8.882,-5.3154 -8.4806,-6.5221 2.7656,-7.6719 l 5.7656,-0.60937 -6.125,-3.2969 c -9.4346,-5.1186 -22.12,-4.4195 -29.359,1.6719 l -6,5.0469 -6.5938,-7.6875 c -5.6006,-6.5431 -12.847,-10.057 -19.688,-9.7813 z" />
      <g
         id="layer2"
         inkscape:label="Layer"
         inkscape:groupmode="layer"
         transform="matrix(0.04959898,0,0,0.04869208,89.991326,917.94356)"
         style="display:inline">
        <path
           id="path3014"
           style="display:inline;fill:#ffffff;stroke:#000000;stroke-width:6.3243;stroke-linecap:round;stroke-linejoin:round"
           d="m 417.13,931.72 c 109.94,-8.7909 206.67,-72.749 254.89,-168.53 35.291,-70.096 43.775,-149.68 25.67,-240.79 -6.7634,-34.032 -15.227,-61.715 -33.825,-110.64 -12.362,-32.516 -17.021,-46.64 -19.015,-57.647 -5.6186,-31.004 1.0037,-55.102 22.978,-83.615 8.5182,-11.053 8.9131,-11.653 8.1642,-12.402 -1.0356,-1.0356 -25.083,7.1786 -31.042,10.604 -34.899,20.057 -54.001,50.446 -65.403,104.05 -8.1634,38.375 -9.8935,59.189 -9.9221,119.37 -0.0236,49.607 0.47894,60.96 5.2317,118.2 7.6174,91.747 8.1302,103.52 5.229,120.09 -3.917,22.366 -15.111,46.997 -31.26,68.785 -6.7271,9.0761 -30.934,35.406 -31.689,34.651 -0.24876,-0.2488 10.581,-13.152 12.856,-16.931 8.0727,-13.406 12.434,-32.989 9.9791,-44.813 l -1.316,-6.3392 -35.204,-19.689 c -41.85,-23.39 -57.97,-33.74 -69.64,-44.67 l -8.6606,-8.1127 0.0348,-23.141 c 0.054,-35.845 3.0411,-55.229 20.795,-134.94 15.899,-71.385 18.496,-88.633 18.587,-123.45 0.0708,-27.198 -1.4494,-38.812 -7.4255,-56.728 -5.6319,-16.884 -12.683,-29.667 -24.087,-43.669 -2.8436,-3.4911 -4.9072,-7.0325 -4.586,-7.8698 0.37608,-0.98008 -0.11532,-1.3394 -1.3796,-1.0087 -1.1324,0.2961 -3.3148,-0.89669 -5.1551,-2.8175 l -3.1913,-3.331 7.5162,-5.5188 c 7.1109,-5.2212 21.601,-19.842 21.601,-21.796 0,-0.49813 -4.5855,1.4097 -10.19,4.2397 -11.127,5.6182 -18.588,7.4985 -26.304,6.6288 l -5.0015,-0.56373 9.4325,-4.934 c 10.022,-5.2425 33.666,-20.382 32.95,-21.098 -0.23436,-0.23436 -4.3293,0.94901 -9.0999,2.6297 -11.437,4.0293 -29.603,5.0279 -40.714,2.2381 -20.565,-5.1635 -40.734,-20.124 -54.337,-40.304 -1.9428,-2.8823 -6.3301,-10.481 -9.7495,-16.886 -8.0077,-15 -12.78,-21.42 -23.372,-31.444 -7.1832,-6.7976 -32.015,-25.038 -34.085,-25.038 -0.93562,0 -2.665,6.8532 -7.2,28.532 -4.2234,20.19 -7.4001,32.036 -8.5842,32.013 -0.36342,-0.006 -4.5808,-7.7371 -9.372,-17.178 -7.3642,-14.51 -9.9241,-18.38 -16.555,-25.025 -4.3142,-4.3235 -8.5802,-7.8609 -9.48,-7.8609 -1.2271,0 -1.9782,3.2755 -3.0044,13.102 -2.1066,20.171 -4.7535,37.779 -6.3891,42.504 -1.2011,3.4694 -3.0071,5.1709 -9.5324,8.9807 -10.047,5.8661 -25.58,21.24 -30.052,29.745 -6.7158,12.771 -7.3436,13.129 -45.964,26.18 -48.075,16.247 -54.569,18.801 -66.25,26.062 -2.721,1.6914 -4.9483,3.4458 -4.9495,3.8986 -0.004,1.5431 15.697,13.385 23.29,17.564 12.109,6.6662 23.766,10.018 39.223,11.278 16.925,1.3795 19.934,0.75683 49.285,-10.199 27.581,-10.296 36.264,-12.482 49.495,-12.464 9.3389,0.0127 11.306,0.41203 18.051,3.6612 9.0185,4.3446 13.478,8.3758 16.412,14.837 2.7604,6.0784 2.7624,9.7025 0.008,17.535 -4.4243,12.588 -16.541,27.168 -34.798,41.874 -4.6629,3.7558 -8.2736,7.0332 -8.0237,7.283 0.24989,0.24988 8.1706,-1.1752 17.602,-3.1668 9.431,-1.9916 17.358,-3.4099 17.616,-3.1518 0.60749,0.60749 -5.8596,9.6716 -10.472,14.678 -4.1346,4.4872 -13.177,9.2861 -32.118,17.045 -7.366,3.0173 -13.917,6.0379 -14.557,6.7125 -0.79583,0.83812 -0.61146,1.0353 0.58228,0.6227 7.0391,-2.433 45.765,-13.756 46.055,-13.466 0.20049,0.20048 -7.0666,8.076 -16.149,17.501 -17.335,17.99 -28.213,26.576 -44.216,34.902 -5.1476,2.6781 -8.8737,5.0312 -8.2801,5.2291 0.5936,0.19795 11.254,-3.042 23.691,-7.1997 12.436,-4.1577 22.797,-7.3735 23.025,-7.1463 0.6377,0.6377 -16.988,16.809 -22.307,20.467 -7.2845,5.0091 -20.87,11.635 -32.564,15.883 -5.8279,2.1169 -9.9199,3.875 -9.0934,3.907 0.82647,0.032 10.98,-2.3219 22.564,-5.2308 11.584,-2.9089 21.227,-5.1231 21.43,-4.9204 0.2028,0.2028 -5.2344,6.163 -12.083,13.245 -10.861,11.231 -13.79,13.551 -22.933,18.159 -5.7647,2.9052 -13.054,6.2409 -16.199,7.4126 -11.27,4.1993 -3.1658,2.7388 19.637,-3.5388 12.76,-3.5129 23.358,-6.2299 23.55,-6.0378 0.19205,0.19205 -3.7054,4.5296 -8.6612,9.6388 -7.5439,7.7774 -10.811,10.164 -20.074,14.662 -6.0849,2.9551 -15.78,7.0049 -21.545,8.9996 -5.7647,1.9946 -11.211,3.888 -12.104,4.2074 -0.89232,0.3194 -1.3919,0.81121 -1.1102,1.0929 0.28171,0.28169 15.423,-2.3483 33.648,-5.8445 18.225,-3.4962 33.529,-6.3593 34.01,-6.3625 1.4773,-0.008 0.96636,10.33 -0.70645,14.298 -2.7479,6.5178 -10.962,15.73 -22.637,25.388 -6.2167,5.1426 -11.458,9.7863 -11.648,10.319 -0.18952,0.53295 3.2169,0.1853 7.5698,-0.77271 4.3529,-0.95795 13.244,-1.8161 19.759,-1.907 10.362,-0.14462 12.257,0.14061 15.14,2.279 6.6246,4.9141 4.072,14.52 -8.1689,30.741 -3.6228,4.8008 -6.587,9.1131 -6.587,9.583 0,0.9438 16.54,-8.8883 28.819,-17.131 l 7.8656,-5.2803 1.5099,17.772 c 0.83045,9.7745 1.1934,19.509 0.8065,21.632 -1.2639,6.9364 -12.071,26.292 -22.27,39.886 -11.47,15.289 -20.907,25.946 -44.765,50.551 -9.334,9.6264 -17.85,18.798 -18.924,20.382 -3.7274,5.4938 -1.6022,19.517 4.9036,32.357 16.948,33.448 72.87,79.089 135.12,110.28 26.718,13.386 45.046,19.694 66.481,22.878 29.776,4.4238 48.63,5.2893 72.914,3.3475 h 1.2e-4 z"
           inkscape:export-ydpi="150"
           sodipodi:nodetypes="cssssssssssssssscsscsssssccscsssscssssssssscssssssssscssscsscscscssscssscsssscscsssscsssccscssccssssscssssssssccc"
           inkscape:export-filename="C:\Users\iie\Pictures\DOGE_v2.png"
           inkscape:connector-curvature="0"
           inkscape:export-xdpi="150" />
        <path
           id="path3812"
           style="fill:#e77325;fill-opacity:1;stroke-width:0.997081;stroke-dasharray:none"
           d="m 277.06,144.88 c -6.4167,22.282 -7.7048,43.364 -15.152,63.441 -15.181,-31.548 -20.505,-43.506 -36.629,-53.362 -1.8337,7.9081 -3.2654,46.97 -9.5524,61.201 -16.982,7.2816 -31.913,19.596 -42.426,41.504 -6,12.504 -74.222,22.318 -112.59,47.894 23.634,22.05 47.45,29.301 67.064,28.262 23.195,6.9678 74.608,-34.752 110.48,-20.225 52.806,22.865 -13.202,75.541 -25.759,83.139 l 39.066,-7.9713 c -18.435,19.939 -0.0744,16.773 -61.794,40.647 l 52.044,-15.613 c -22.024,19.884 -27.912,38.364 -73.521,60.213 l 52.044,-17.326 c -16.524,14.817 -25.795,30.216 -69.37,42.953 l 49.541,-12.385 c -20.352,14.584 -13.95,26.928 -61.069,43.743 l 53.625,-14.823 c -20.375,13.283 -4.0474,20.151 -69.304,41.24 l 69.304,-13.176 c -0.6271,11.048 8.3315,17.09 -36.299,51.188 72.8,-16.513 44.521,19.384 27.801,39.725 15.751,-8.965 27.8,-16.591 37.287,-23.848 1.0671,12.176 2.1748,24.916 3.1622,38.605 -12.96,48.78 -88.07,108.48 -88.33,115.7 -9.17,64.11 161.14,161.51 206.59,161.99 182.66,33.19 400.34,-115.15 358.05,-382.75 -25.97,-164.31 -103.82,-193.95 -25.23,-286.11 -152.02,25.99 -98.78,331.34 -93.48,443.49 2.3108,48.894 -24.236,95.897 -66.142,133.34 5.8566,-7.0852 10.606,-14.142 14.279,-21.044 9.5153,-17.875 11.817,-34.704 7.4605,-48.26 -59.54,-34.194 -93.91,-48.997 -112.72,-72.335 -15.622,-120.83 94.787,-292.09 1.2517,-388.82 0.63321,-0.86728 1.2038,-1.7222 1.7787,-2.6352 -0.8374,0.68366 -1.6422,1.2587 -2.5034,1.8446 -2.6837,-2.7324 -5.5434,-5.3622 -8.5642,-7.9713 16.136,-9.9994 22.838,-18.652 30.107,-27.471 -14.088,7.8488 -26.249,15.76 -44.534,10.079 8.9147,0 42.029,-23.152 45.456,-25.759 -0.13007,0.0822 -0.24488,0.0725 -0.52703,0.26351 -49.837,22.928 -94.387,-11.087 -113.05,-51.056 -14.183,-32.091 -42.134,-47.01 -57.841,-57.512 z"
           inkscape:export-ydpi="150"
           sodipodi:nodetypes="ccccscccccccccccccccccccccscscscccccccccccc"
           inkscape:export-filename="C:\Users\iie\Pictures\DOGE_v2.png"
           inkscape:connector-curvature="0"
           inkscape:export-xdpi="150" />
        <path
           id="path3810"
           style="display:inline;fill:#ffffff"
           d="m 194.52,261.49 c 34.29,8.5174 38.702,-3.8269 45.063,-18.639 -9.1792,-0.31759 -24.397,1.3168 -45.063,18.639 z"
           inkscape:export-ydpi="150"
           sodipodi:nodetypes="ccc"
           inkscape:export-filename="C:\Users\iie\Pictures\DOGE_v2.png"
           inkscape:connector-curvature="0"
           inkscape:export-xdpi="150" />
        <path
           id="path3820"
           style="fill:#483e37"
           d="m 60.399,305.51 c 9.669,-6.7156 18.533,-11.906 30.361,-15.383 -0.10645,2.1643 3.0205,9.0212 -1.6193,16.8 -2.0496,-3.5067 -4.7231,-2.0216 -7.2867,-1.4168 -2.514,2.7168 -0.0871,4.4474 2.6313,6.6794 l -5.1614,7.3879 c -2.9031,-0.0888 -13.131,-9.0756 -18.925,-14.067 z"
           inkscape:export-ydpi="150"
           sodipodi:nodetypes="ccccccc"
           inkscape:export-filename="C:\Users\iie\Pictures\DOGE_v2.png"
           inkscape:connector-curvature="0"
           inkscape:export-xdpi="150" />
        <path
           id="path3822-9"
           style="fill:#6c5d53"
           d="m 267.48,209.26 c 10.419,6.9536 14.19,-6.1524 25.19,2.0037 3.643,7.0685 14.766,2.9726 18.32,1.145 -6.1153,-22.225 -16.824,-46.178 -33.491,-60.112 -4.817,19.973 -9.6686,39.968 -10.019,56.963 z"
           inkscape:export-ydpi="150"
           sodipodi:nodetypes="ccccc"
           inkscape:export-filename="C:\Users\iie\Pictures\DOGE_v2.png"
           inkscape:connector-curvature="0"
           inkscape:export-xdpi="150" />
        <path
           id="path3844"
           style="fill:#241f1c"
           d="m 127.75,333.83 c 37.139,-12.961 70.923,-32.925 107.38,-31.546 -36.163,2.0863 -66.95,18.664 -103.11,32.276 -1.5919,-0.12016 -3.0452,-0.34109 -4.2667,-0.73075 z"
           inkscape:export-ydpi="150"
           sodipodi:nodetypes="cccc"
           inkscape:export-filename="C:\Users\iie\Pictures\DOGE_v2.png"
           inkscape:connector-curvature="0"
           inkscape:export-xdpi="150" />
        <path
           id="path3009"
           style="fill:#241f1c"
           d="m 570.97,437.36 c 8.8676,-80.623 19.445,-157.99 104.46,-179.01 -31.058,39.042 -33.518,58.3 -33.15,78.176 0.54752,29.552 13.936,60.084 39.707,127.14 -7.559,-5.5436 -8.561,-14.834 -23.103,-16.387 -4.9721,1.2972 -10.402,4.9752 -18.097,20.432 -3.5226,-12.593 -5.7661,-24.067 -13.427,-40.281 -9.8551,5.9433 -17.057,12.948 -18.681,22.184 -4.5261,-5.7041 -8.8497,-11.519 -19.265,-14.011 -7.2016,5.8378 -7.3438,11.676 -8.1729,17.513 -0.62076,-6.4504 -0.0169,-13.056 -10.266,-15.762 z"
           inkscape:export-ydpi="150"
           sodipodi:nodetypes="ccscccccccc"
           inkscape:export-filename="C:\Users\iie\Pictures\DOGE_v2.png"
           inkscape:connector-curvature="0"
           inkscape:export-xdpi="150" />
      </g>
    </g>
  </g>
</svg>
