<?xml version="1.0" encoding="UTF-8" standalone="no"?>
<!-- Created with Inkscape (http://www.inkscape.org/) -->

<svg
   version="1.1"
   id="svg7140"
   width="308.94131"
   height="141.72533"
   viewBox="0 0 308.94131 141.72533"
   sodipodi:docname="bus.svg"
   inkscape:version="1.3 (0e150ed6c4, 2023-07-21)"
   xmlns:inkscape="http://www.inkscape.org/namespaces/inkscape"
   xmlns:sodipodi="http://sodipodi.sourceforge.net/DTD/sodipodi-0.dtd"
   xmlns="http://www.w3.org/2000/svg"
   xmlns:svg="http://www.w3.org/2000/svg">
  <defs
     id="defs7144">
    <clipPath
       clipPathUnits="userSpaceOnUse"
       id="clipPath7156">
      <path
         d="M 0,660 H 660 V 0 H 0 Z"
         id="path7154" />
    </clipPath>
  </defs>
  <sodipodi:namedview
     id="namedview7142"
     pagecolor="#ffffff"
     bordercolor="#000000"
     borderopacity="0.25"
     inkscape:showpageshadow="2"
     inkscape:pageopacity="0.0"
     inkscape:pagecheckerboard="0"
     inkscape:deskcolor="#d1d1d1"
     showgrid="false"
     inkscape:zoom="0.95113636"
     inkscape:cx="29.438471"
     inkscape:cy="-19.450418"
     inkscape:window-width="1920"
     inkscape:window-height="991"
     inkscape:window-x="-9"
     inkscape:window-y="-9"
     inkscape:window-maximized="1"
     inkscape:current-layer="g7148">
    <inkscape:page
       x="0"
       y="0"
       id="page7146"
       width="308.94131"
       height="141.72533"
       margin="0"
       bleed="0" />
  </sodipodi:namedview>
  <g
     id="g7148"
     inkscape:groupmode="layer"
     inkscape:label="Page 1"
     transform="matrix(1.3333333,0,0,-1.3333333,-411.12726,420.50546)">
    <g
       id="g7150"
       transform="matrix(-1,0,0,1,848.3969,0)">
      <g
         id="g7152"
         clip-path="url(#clipPath7156)"
         style="display:inline"
         transform="translate(-32.32975,5.5197134)">
        <g
           id="g7192"
           transform="translate(503.5352,218.8594)">
          <path
             d="m 0,0 c 0,-4.828 -2.237,-9.137 -5.734,-11.938 v -3.356 h -9.56 c -8.446,0 -15.294,6.848 -15.294,15.294 z"
             style="fill:#1a1a1a;fill-opacity:1;fill-rule:evenodd;stroke:none"
             id="path7194" />
        </g>
        <g
           id="g7196"
           transform="translate(515.0684,218.8594)">
          <path
             d="m 0,0 h -34.536 c 0,9.535 7.73,17.269 17.268,17.269 C -7.73,17.269 0,9.535 0,0"
             style="fill:#1a1a1a;fill-opacity:1;fill-rule:evenodd;stroke:none"
             id="path7198" />
        </g>
        <g
           id="g7200"
           transform="translate(497.8008,203.5654)">
          <path
             d="m 0,0 c 8.423,0 15.294,6.869 15.294,15.294 0,8.423 -6.871,15.294 -15.294,15.294 -8.424,0 -15.295,-6.871 -15.295,-15.294 C -15.295,6.869 -8.424,0 0,0"
             style="fill:#4d4d4d;fill-opacity:1;fill-rule:evenodd;stroke:none"
             id="path7202" />
        </g>
        <g
           id="g7204"
           transform="translate(497.8008,210.4033)">
          <path
             d="M 0,0 C 4.656,0 8.454,3.8 8.454,8.456 8.454,13.112 4.656,16.91 0,16.91 -4.656,16.91 -8.455,13.112 -8.455,8.456 -8.455,3.8 -4.656,0 0,0"
             style="fill:#1a1a1a;fill-opacity:1;fill-rule:evenodd;stroke:none"
             id="path7206" />
        </g>
        <g
           id="g7208"
           transform="translate(389.918,218.8594)">
          <path
             d="m 0,0 c 0,-4.828 -2.238,-9.137 -5.735,-11.938 v -3.356 h -9.559 c -8.447,0 -15.295,6.848 -15.295,15.294 z"
             style="fill:#1a1a1a;fill-opacity:1;fill-rule:evenodd;stroke:none"
             id="path7210" />
        </g>
        <g
           id="g7212"
           transform="translate(401.4512,218.8594)">
          <path
             d="m 0,0 h -34.537 c 0,9.535 7.731,17.269 17.268,17.269 C -7.732,17.269 0,9.535 0,0"
             style="fill:#1a1a1a;fill-opacity:1;fill-rule:evenodd;stroke:none"
             id="path7214" />
        </g>
        <g
           id="g7216"
           transform="translate(384.1826,203.5654)">
          <path
             d="m 0,0 c 8.423,0 15.294,6.869 15.294,15.294 0,8.423 -6.871,15.294 -15.294,15.294 -8.423,0 -15.294,-6.871 -15.294,-15.294 C -15.294,6.869 -8.423,0 0,0"
             style="fill:#4d4d4d;fill-opacity:1;fill-rule:evenodd;stroke:none"
             id="path7218" />
        </g>
        <g
           id="g7220"
           transform="translate(384.1826,210.4033)">
          <path
             d="M 0,0 C 4.656,0 8.454,3.8 8.454,8.456 8.454,13.112 4.656,16.91 0,16.91 -4.656,16.91 -8.454,13.112 -8.454,8.456 -8.454,3.8 -4.656,0 0,0"
             style="fill:#1a1a1a;fill-opacity:1;fill-rule:evenodd;stroke:none"
             id="path7222" />
        </g>
        <g
           id="g7224"
           transform="translate(383.1172,309.8594)">
          <path
             d="m 0,0 h 164.413 c 13.667,0 24.851,-11.185 24.851,-24.854 V -91 H -24.853 v 66.146 C -24.853,-11.185 -13.67,0 0,0"
             style="fill:#ffbb00;fill-opacity:1;fill-rule:evenodd;stroke:none"
             id="path7226" />
        </g>
        <g
           id="g7228"
           transform="translate(379.6748,309.8594)">
          <path
             d="m 0,0 h 24.472 c 13.67,0 24.853,-11.185 24.853,-24.854 V -91 h -74.176 v 66.146 C -24.851,-11.185 -13.668,0 0,0"
             style="fill:#ffdd30;fill-opacity:1;fill-rule:evenodd;stroke:none"
             id="path7230" />
        </g>
        <g
           id="g7232"
           transform="translate(354.9824,264.8711)">
          <path
             d="m 0,0 h 50.629 c 6.912,0 12.566,-5.655 12.566,-12.565 v -33.447 h -75.762 v 33.447 C -12.567,-5.655 -6.91,0 0,0"
             style="fill:#ffbb00;fill-opacity:1;fill-rule:evenodd;stroke:none"
             id="path7234" />
        </g>
        <g
           id="g7236"
           transform="translate(353.2422,264.8711)">
          <path
             d="m 0,0 h 12.372 c 6.912,0 12.567,-5.655 12.567,-12.565 v -33.447 h -37.506 v 33.447 C -12.567,-5.655 -6.912,0 0,0"
             style="fill:#ffdd30;fill-opacity:1;fill-rule:evenodd;stroke:none"
             id="path7238" />
        </g>
        <g
           id="g7240"
           transform="translate(362.9307,299.0918)">
          <path
             d="m 0,0 h 57.961 c 3.22,-3.817 5.166,-8.735 5.166,-14.086 V -31.928 H -5.167 v 17.842 C -5.167,-8.735 -3.22,-3.817 0,0"
             style="fill:#606b4b;fill-opacity:1;fill-rule:evenodd;stroke:none"
             id="path7242" />
        </g>
        <g
           id="g7244"
           transform="translate(426.0576,284.5088)">
          <path
             d="M 0,0 V -17.345 H -7.059 Z M -20.446,14.583 -33.44,-17.345 h 14.719 l 12.995,31.928 z m -31.545,0 h 23.306 l -12.993,-31.928 h -23.306 z"
             style="fill:#717d5b;fill-opacity:1;fill-rule:evenodd;stroke:none"
             id="path7246" />
        </g>
        <g
           id="g7248"
           transform="translate(535.1758,299.0918)">
          <path
             d="m 0,0 h 23.707 c 2.628,0 4.78,-2.15 4.78,-4.779 v -22.368 c 0,-2.629 -2.152,-4.781 -4.78,-4.781 H 0 Z m -32.785,0 h 28.58 v -31.928 h -28.58 z m -32.788,0 h 28.581 v -31.928 h -28.581 z m -27.912,0 h 23.707 v -31.928 h -23.707 c -2.627,0 -4.778,2.152 -4.778,4.781 v 22.368 c 0,2.629 2.151,4.779 4.778,4.779"
             style="fill:#606b4b;fill-opacity:1;fill-rule:evenodd;stroke:none"
             id="path7250" />
        </g>
        <g
           id="g7252"
           transform="translate(498.1836,297.3203)">
          <path
             d="m 0,0 v 1.772 h -11.131 l -12.995,-31.928 h 11.854 z M -2.905,-30.156 0,-23.018 v -7.138 z M 20.986,1.772 H 10.089 L 4.207,-12.685 v -17.471 h 3.786 z m 29.639,-31.928 12.677,31.15 c 1.307,-0.855 2.177,-2.332 2.177,-4.002 v -22.368 c 0,-2.629 -2.152,-4.78 -4.78,-4.78 z m -36.516,0 12.995,31.928 h 5.683 V -30.156 Z M 48.898,1.772 36.992,-27.481 V 1.772 Z m -84.118,0 h 2.434 v -2.477 l -11.986,-29.451 h -3.441 z m -21.273,0 h 3.684 l -8.462,-20.797 v 16.017 c 0,2.629 2.151,4.78 4.778,4.78"
             style="fill:#717d5b;fill-opacity:1;fill-rule:evenodd;stroke:none"
             id="path7254" />
        </g>
        <g
           id="g7256"
           transform="translate(549.0859,218.8594)">
          <path
             d="m 0,0 c 0,-4.828 -2.24,-9.137 -5.735,-11.938 v -3.356 h -9.559 c -8.447,0 -15.295,6.848 -15.295,15.294 z"
             style="fill:#1a1a1a;fill-opacity:1;fill-rule:evenodd;stroke:none"
             id="path7258" />
        </g>
        <g
           id="g7260"
           transform="translate(560.6191,218.8594)">
          <path
             d="m 0,0 h -34.537 c 0,9.535 7.731,17.269 17.269,17.269 C -7.731,17.269 0,9.535 0,0"
             style="fill:#1a1a1a;fill-opacity:1;fill-rule:evenodd;stroke:none"
             id="path7262" />
        </g>
        <g
           id="g7264"
           transform="translate(543.3506,203.5654)">
          <path
             d="m 0,0 c 8.425,0 15.294,6.869 15.294,15.294 0,8.423 -6.869,15.294 -15.294,15.294 -8.423,0 -15.294,-6.871 -15.294,-15.294 C -15.294,6.869 -8.423,0 0,0"
             style="fill:#4d4d4d;fill-opacity:1;fill-rule:evenodd;stroke:none"
             id="path7266" />
        </g>
        <g
           id="g7268"
           transform="translate(543.3506,210.4033)">
          <path
             d="M 0,0 C 4.656,0 8.454,3.8 8.454,8.456 8.454,13.112 4.656,16.91 0,16.91 -4.656,16.91 -8.454,13.112 -8.454,8.456 -8.454,3.8 -4.656,0 0,0"
             style="fill:#cccccc;fill-opacity:1;fill-rule:evenodd;stroke:none"
             id="path7270" />
        </g>
        <g
           id="g7272"
           transform="translate(418.1777,247.376)">
          <path
             d="m 0,0 h -17.307 c -7.842,0 -14.258,-6.416 -14.258,-14.259 V -28.517 H 0 Z"
             style="fill:#ffdd30;fill-opacity:1;fill-rule:evenodd;stroke:none"
             id="path7274" />
        </g>
        <g
           id="g7276"
           transform="translate(429,247.376)">
          <path
             d="M 0,0 H -17.308 C -25.15,0 -31.566,-6.416 -31.566,-14.259 V -28.517 H 0 Z"
             style="fill:#ffbb00;fill-opacity:1;fill-rule:evenodd;stroke:none"
             id="path7278" />
        </g>
        <g
           id="g7280"
           transform="translate(432.0352,218.8594)">
          <path
             d="m 0,0 c 0,-4.828 -2.237,-9.137 -5.734,-11.938 v -3.356 h -9.56 c -8.446,0 -15.294,6.848 -15.294,15.294 z"
             style="fill:#1a1a1a;fill-opacity:1;fill-rule:evenodd;stroke:none"
             id="path7282" />
        </g>
        <g
           id="g7284"
           transform="translate(443.5684,218.8594)">
          <path
             d="m 0,0 h -34.536 c 0,9.535 7.73,17.269 17.268,17.269 C -7.73,17.269 0,9.535 0,0"
             style="fill:#1a1a1a;fill-opacity:1;fill-rule:evenodd;stroke:none"
             id="path7286" />
        </g>
        <g
           id="g7288"
           transform="translate(426.3008,203.5654)">
          <path
             d="m 0,0 c 8.423,0 15.294,6.869 15.294,15.294 0,8.423 -6.871,15.294 -15.294,15.294 -8.424,0 -15.295,-6.871 -15.295,-15.294 C -15.295,6.869 -8.424,0 0,0"
             style="fill:#4d4d4d;fill-opacity:1;fill-rule:evenodd;stroke:none"
             id="path7290" />
        </g>
        <g
           id="g7292"
           transform="translate(426.3008,210.4033)">
          <path
             d="M 0,0 C 4.656,0 8.454,3.8 8.454,8.456 8.454,13.112 4.656,16.91 0,16.91 -4.656,16.91 -8.455,13.112 -8.455,8.456 -8.455,3.8 -4.656,0 0,0"
             style="fill:#cccccc;fill-opacity:1;fill-rule:evenodd;stroke:none"
             id="path7294" />
        </g>
        <path
           d="M 572.381,245.177 H 429 v -4.014 H 572.381 Z M 429,261.044 H 572.381 V 249 H 429 Z"
           style="fill:#333333;fill-opacity:1;fill-rule:evenodd;stroke:none"
           id="path7296" />
        <g
           id="g7298"
           transform="translate(346.332,247.2803)"
           style="display:inline">
          <path
             d="m 0,0 h 26.192 c 0.683,0 1.244,-0.56 1.244,-1.241 0,-0.685 -0.561,-1.243 -1.244,-1.243 H 0 c -0.682,0 -1.243,0.558 -1.243,1.243 C -1.243,-0.56 -0.682,0 0,0 m 0,-4.396 h 26.192 c 0.683,0 1.244,-0.56 1.244,-1.244 0,-0.684 -0.561,-1.243 -1.244,-1.243 H 0 c -0.682,0 -1.243,0.559 -1.243,1.243 0,0.684 0.561,1.244 1.243,1.244 m 0,-4.399 h 26.192 c 0.683,0 1.244,-0.559 1.244,-1.243 0,-0.683 -0.561,-1.241 -1.244,-1.241 H 0 c -0.682,0 -1.243,0.558 -1.243,1.241 0,0.684 0.561,1.243 1.243,1.243 m 0,-4.396 h 26.192 c 0.683,0 1.244,-0.559 1.244,-1.244 0,-0.681 -0.561,-1.241 -1.244,-1.241 H 0 c -0.682,0 -1.243,0.56 -1.243,1.241 0,0.685 0.561,1.244 1.243,1.244 m 0,-4.396 h 26.192 c 0.683,0 1.244,-0.559 1.244,-1.244 0,-0.684 -0.561,-1.243 -1.244,-1.243 H 0 c -0.682,0 -1.243,0.559 -1.243,1.243 0,0.685 0.561,1.244 1.243,1.244 m 0,-4.398 h 26.192 c 0.683,0 1.244,-0.56 1.244,-1.244 0,-0.684 -0.561,-1.241 -1.244,-1.241 H 0 c -0.682,0 -1.243,0.557 -1.243,1.241 0,0.684 0.561,1.244 1.243,1.244 M 0,8.794 h 26.192 c 0.683,0 1.244,-0.559 1.244,-1.243 0,-0.684 -0.561,-1.243 -1.244,-1.243 H 0 c -0.682,0 -1.243,0.559 -1.243,1.243 0,0.684 0.561,1.243 1.243,1.243 M 0,4.396 h 26.192 c 0.683,0 1.244,-0.559 1.244,-1.242 0,-0.683 -0.561,-1.243 -1.244,-1.243 L 0,1.911 c -0.682,0 -1.243,0.56 -1.243,1.243 0,0.683 0.561,1.242 1.243,1.242"
             style="fill:#333333;fill-opacity:1;fill-rule:evenodd;stroke:none"
             id="path7300" />
        </g>
        <g
           id="g7302"
           transform="translate(390.3613,240.876)"
           style="display:inline">
          <path
             d="m 0,0 c 3.536,0 8.746,-2.867 8.746,-6.405 0,-3.536 -5.21,-6.405 -8.746,-6.405 -3.538,0 -6.405,2.869 -6.405,6.405 C -6.405,-2.867 -3.538,0 0,0"
             style="fill:#ffffff;fill-opacity:1;fill-rule:evenodd;stroke:none"
             id="path7304" />
        </g>
        <g
           id="g7306"
           transform="translate(389.8105,229.3096)"
           style="display:inline">
          <path
             d="m 0,0 c 2.844,0 5.162,2.318 5.162,5.161 0,2.844 -2.318,5.164 -5.162,5.164 -2.843,0 -5.161,-2.32 -5.161,-5.164 C -5.161,2.318 -2.843,0 0,0"
             style="fill:#fff07f;fill-opacity:1;fill-rule:evenodd;stroke:none"
             id="path7308" />
        </g>
        <g
           id="g7310"
           transform="translate(377.3857,301.9092)"
           style="display:inline">
          <path
             d="M 0,0 C 1.343,0 2.438,1.096 2.438,2.438 2.438,3.779 1.343,4.875 0,4.875 -1.343,4.875 -2.438,3.779 -2.438,2.438 -2.438,1.096 -1.343,0 0,0"
             style="fill:#f73e00;fill-opacity:1;fill-rule:evenodd;stroke:none"
             id="path7312" />
        </g>
        <g
           id="g7314"
           transform="translate(386.6885,306.7842)"
           style="display:inline">
          <path
             d="m 0,0 c 1.347,0 2.438,-1.092 2.438,-2.438 0,-1.345 -1.091,-2.437 -2.438,-2.437 -1.345,0 -2.436,1.092 -2.436,2.437 C -2.436,-1.092 -1.345,0 0,0"
             style="fill:#f73e00;fill-opacity:1;fill-rule:evenodd;stroke:none"
             id="path7316" />
        </g>
        <g
           id="g7318"
           transform="translate(395.9932,306.7842)"
           style="display:inline">
          <path
             d="m 0,0 c 1.347,0 2.438,-1.092 2.438,-2.438 0,-1.345 -1.091,-2.437 -2.438,-2.437 -1.345,0 -2.438,1.092 -2.438,2.437 C -2.438,-1.092 -1.345,0 0,0"
             style="fill:#f73e00;fill-opacity:1;fill-rule:evenodd;stroke:none"
             id="path7320" />
        </g>
        <g
           id="g7322"
           transform="translate(405.2979,301.9092)"
           style="display:inline">
          <path
             d="M 0,0 C 1.341,0 2.438,1.096 2.438,2.438 2.438,3.779 1.341,4.875 0,4.875 -1.343,4.875 -2.438,3.779 -2.438,2.438 -2.438,1.096 -1.343,0 0,0"
             style="fill:#f73e00;fill-opacity:1;fill-rule:evenodd;stroke:none"
             id="path7324" />
        </g>
      </g>
    </g>
  </g>
</svg>
