<?xml version="1.0" encoding="UTF-8" standalone="no"?>
<!-- Generator: imaengine 6.0   -->

<svg
   viewBox="0 0 2800 2000"
   version="1.1"
   id="svg2"
   inkscape:version="1.3 (0e150ed6c4, 2023-07-21)"
   sodipodi:docname="carouselsimple.svg"
   width="2800"
   height="2000"
   xmlns:inkscape="http://www.inkscape.org/namespaces/inkscape"
   xmlns:sodipodi="http://sodipodi.sourceforge.net/DTD/sodipodi-0.dtd"
   xmlns="http://www.w3.org/2000/svg"
   xmlns:svg="http://www.w3.org/2000/svg"
   xmlns:rdf="http://www.w3.org/1999/02/22-rdf-syntax-ns#"
   xmlns:cc="http://creativecommons.org/ns#"
   xmlns:dc="http://purl.org/dc/elements/1.1/">
  <metadata
     id="metadata13240">
    <rdf:RDF>
      <cc:Work
         rdf:about="">
        <dc:format>image/svg+xml</dc:format>
        <dc:type
           rdf:resource="http://purl.org/dc/dcmitype/StillImage" />
        <dc:title />
        <dc:creator>
          <cc:Agent>
            <dc:title>j4p4n</dc:title>
          </cc:Agent>
        </dc:creator>
        <cc:license
           rdf:resource="http://creativecommons.org/publicdomain/zero/1.0/" />
      </cc:Work>
      <cc:License
         rdf:about="http://creativecommons.org/publicdomain/zero/1.0/">
        <cc:permits
           rdf:resource="http://creativecommons.org/ns#Reproduction" />
        <cc:permits
           rdf:resource="http://creativecommons.org/ns#Distribution" />
        <cc:permits
           rdf:resource="http://creativecommons.org/ns#DerivativeWorks" />
      </cc:License>
    </rdf:RDF>
  </metadata>
  <sodipodi:namedview
     pagecolor="#ffffff"
     bordercolor="#666666"
     borderopacity="1"
     objecttolerance="10"
     gridtolerance="10"
     guidetolerance="10"
     inkscape:pageopacity="0"
     inkscape:pageshadow="2"
     inkscape:window-width="1920"
     inkscape:window-height="991"
     id="namedview13238"
     showgrid="false"
     inkscape:zoom="0.27524474"
     inkscape:cx="454.14129"
     inkscape:cy="786.57272"
     inkscape:window-x="-9"
     inkscape:window-y="-9"
     inkscape:window-maximized="1"
     inkscape:current-layer="g17414"
     fit-margin-top="0"
     fit-margin-left="0"
     fit-margin-right="0"
     fit-margin-bottom="0"
     inkscape:showpageshadow="2"
     inkscape:pagecheckerboard="0"
     inkscape:deskcolor="#d1d1d1" />
  <defs
     id="defs4" />
  <rect
     style="opacity:0;fill:#ff6600;fill-opacity:1;fill-rule:evenodd;stroke:none;stroke-width:3;stroke-linecap:round;stroke-linejoin:round;stroke-miterlimit:4;stroke-dasharray:none;stroke-opacity:1"
     id="rect17368"
     width="1775.1451"
     height="1860.0435"
     x="-565.77094"
     y="-911.26068" />
  <g
     id="g17401"
     transform="translate(977.83356,-797.85976)">
    <g
       id="g17414"
       transform="matrix(2,0,0,2,-257.91237,-2192.2432)"
       style="display:inline">
      <path
         id="path17409"
         transform="translate(-1322.3545,-54.026157)"
         d="m 1656.3672,1437.2969 c -0.2735,-0.01 -0.4878,0.074 -0.6016,0.2578 -0.3033,0.4907 0.7781,6.8859 2.4043,14.2109 4.6437,20.9163 10.2712,51.769 20.5801,112.8184 20.2987,120.2098 32.0503,174.3394 47.9609,220.9258 1.3948,4.0839 2.5352,8.0214 2.5352,8.75 0,1.0882 -13.4918,1.3242 -75.5,1.3242 -41.525,0 -75.5,-0.3536 -75.5,-0.7852 0,-0.4315 0.8636,-3.244 1.918,-6.25 14.274,-40.6959 27.8656,-99.4846 42.9961,-185.9648 2.7424,-15.675 7.7384,-44.2236 11.1015,-63.4414 5.7535,-32.8769 13.8096,-74.487 17.416,-89.9551 0.8845,-3.7933 1.4222,-7.0837 1.1953,-7.3105 -0.6344,-0.6345 -18.2081,26.3273 -28.8144,44.207 -10.8408,18.275 -24.7031,43.7429 -43.8164,80.5 -34.545,66.4339 -50.6448,95.0568 -71.3164,126.7832 -22.2267,34.1132 -52.5754,71.5669 -76.5547,94.4766 l -8.1016,7.7402 h -62.5117 c -34.381,0 -62.5117,-0.1802 -62.5117,-0.4004 0,-0.2202 5.5125,-3.8834 12.25,-8.1406 49.0445,-30.9896 95.412,-69.7046 137.5703,-114.8672 28.2136,-30.2241 39.9179,-44.0642 88.877,-105.0918 50.2144,-62.5925 69.6727,-84.9165 98.9257,-113.5 l 15.8614,-15.5 -8.4922,5.9219 c -40.6799,28.3621 -73.8996,56.7707 -148.502,127.0019 -84.5487,79.5947 -123.8393,112.2689 -180.4902,150.0938 -36.8619,24.612 -63.3319,39.8077 -106.5,61.1386 l -27,13.3418 h -48.3984 -48.3985 l 0.5938,8.4043 c 1.2054,17.0806 10.2396,36.7345 21.4004,46.5586 2.5411,2.2368 7.5753,5.5235 11.1894,7.3027 6.0821,2.9942 7.3184,3.2344 16.5938,3.2344 9.2412,0 10.557,-0.2541 16.916,-3.2656 9.8406,-4.6603 19.2078,-14.4087 24.4199,-25.4141 2.1672,-4.5762 4.2414,-9.1988 4.6094,-10.2734 0.521,-1.5216 1.3888,-0.2995 3.9219,5.5273 6.2219,14.3127 15.2912,24.6524 26.4355,30.1387 8.2276,4.0505 19.9708,5.0003 28.3496,2.291 12.613,-4.0785 23.2248,-14.163 30.3789,-28.8691 2.4687,-5.0748 4.5045,-9.8821 4.5234,-10.6817 0.019,-0.7997 1.2849,1.6969 2.8126,5.5469 1.5277,3.85 4.0555,9.0123 5.6171,11.4707 3.6442,5.737 11.9134,14.4821 16.1993,17.1308 l 3.3359,2.0625 9.1788,-0.812 8.1843,2.9525 3.6369,2.9533 4.8769,-0.6465 c 14.4661,-1.919 30.8612,-17.2123 37.2579,-34.7558 1.9004,-5.2121 3.8652,-6.9477 3.8652,-3.4122 0,0.7289 1.791,4.901 3.9785,9.2715 5.6888,11.366 14.1334,20.2433 23.7969,25.0157 7.2992,3.6048 8.074,3.7695 17.7031,3.7695 9.4266,0 10.5087,-0.2158 16.9551,-3.3906 9.9768,-4.9134 18.1155,-13.4346 23.9355,-25.0606 2.5473,-5.0883 4.6309,-9.8814 4.6309,-10.6504 0,-2.9999 1.617,-1.1538 3.373,3.8516 4.702,13.4023 15.603,26.149 27.2774,31.8984 6.3469,3.1258 7.4759,3.3516 16.8262,3.3516 9.2441,0 10.5605,-0.2539 16.9199,-3.2656 9.7143,-4.6005 18.779,-14.023 24.2773,-25.2344 2.2928,-4.675 4.4508,-9.3785 4.7949,-10.4531 0.4787,-1.4948 1.3904,-0.1971 3.879,5.5273 6.2219,14.3127 15.2912,24.6524 26.4355,30.1387 11.36,5.5925 26.3207,4.9674 37.2168,-1.5547 5.6567,-3.386 13.0336,-10.7193 17.1601,-17.0625 l 3.8399,-5.9063 3.8101,4.4927 2.644,-0.5228 3.7842,-7.5031 9.8457,13.127 -0.9481,-1.2756 c 0.2547,-7.5603 3.0685,-3.9218 3.6668,-3.0584 6.3222,9.123 14.1366,16.1492 22.1973,19.9551 4.8325,2.2817 6.7742,2.5957 16,2.5957 9.513,0 11.0445,-0.2677 16.293,-2.8438 11.2964,-5.5437 22.9183,-18.851 27.7539,-31.7812 l 2.1953,-5.8692 4.873,9.9336 c 7.5933,15.478 17.933,25.4194 30.752,29.5645 8.4486,2.7318 20.1178,1.7633 28.5039,-2.3652 11.1797,-5.5037 21.2693,-17.3264 27.1601,-31.8204 1.8845,-4.6366 2.4864,-5.3902 3.0254,-3.8007 0.37,1.0908 2.5198,5.7991 4.7774,10.4629 10.6169,21.9333 32.1321,33.3874 51.914,27.6367 14.5014,-4.2157 26.0912,-16.4234 34.2911,-36.1172 l 1.666,-4 1.3496,3.7617 c 5.3443,14.9008 16.2084,28.0337 27.9941,33.8379 6.4654,3.1842 7.5432,3.4004 16.9746,3.4004 9.6291,0 10.404,-0.1647 17.7032,-3.7695 5.756,-2.8427 9.1319,-5.4059 13.7265,-10.42 5.5397,-6.0457 12.4892,-17.7618 14.4219,-24.3144 l 0.7363,-2.4961 1.0645,2.5 c 3.9984,9.3821 8.2981,17.1812 11.7773,21.3594 l 4.0469,4.8593 8.4861,9.3869 7.6725,1.0022 4.8492,1.8922 9.7461,-0.025 c 8.6212,-0.023 10.4161,-0.3517 15.541,-2.8438 11.2588,-5.4749 22.9093,-18.8067 27.752,-31.7558 l 2.1953,-5.8692 4.873,9.9336 c 7.5933,15.478 17.933,25.4194 30.752,29.5645 7.2509,2.3445 19.7101,1.7068 26.582,-1.3594 18.5479,-8.2759 32.0613,-30.2176 34.2012,-55.5332 l 0.6387,-7.5586 -50.8946,-0.2754 -50.8945,-0.2773 -24,-12.0684 c -58.7343,-29.5357 -103.9688,-58.0128 -154,-96.9492 -38.4556,-29.9277 -66.8927,-55.4303 -135.6445,-121.6406 -62.2892,-59.9865 -89.4787,-83.9839 -126.3555,-111.5274 -9.9,-7.3944 -18.7714,-14.0722 -19.7149,-14.8398 -0.5896,-0.4797 -1.2082,-0.7477 -1.664,-0.7617 z m 9.3301,3.2871 c -1.4555,0 0.062,1.8326 3.3066,3.9922 2.0587,1.3701 3.9672,2.7403 4.2422,3.0468 0.275,0.3064 2.075,1.6553 4,2.9961 1.925,1.3407 4.4,3.1903 5.5,4.1114 1.1,0.9212 6.725,5.4102 12.5,9.9746 5.775,4.5644 11.0099,8.7676 11.6328,9.3398 0.6229,0.5721 3.0969,2.6141 5.4961,4.5391 2.3992,1.925 6.1643,5.1186 8.3672,7.0957 2.2029,1.9771 5.0776,4.4521 6.3887,5.5 12.4471,9.9488 31.4066,27.5368 73.7382,68.4082 17.498,16.8944 40.4269,38.7885 47.1192,44.9922 1.7825,1.6524 3.695,3.0039 4.25,3.0039 0.555,0 0.8953,0.3915 0.7578,0.8691 -0.1375,0.4775 2.675,3.4517 6.25,6.6094 3.575,3.1576 6.95,6.2692 7.5,6.916 1.9552,2.2994 19.4786,18.0385 28.5078,25.6055 2.9533,2.475 6.6618,5.7482 8.2402,7.2734 1.5784,1.5252 3.3043,2.5044 3.836,2.1758 0.5317,-0.3286 0.8425,-0.1539 0.6914,0.3887 -0.4167,1.4962 16.2606,15.2512 17.5781,14.498 0.6309,-0.3606 0.8376,-0.3115 0.459,0.1094 -0.7835,0.8711 3.3026,4.9202 7.4219,7.3535 1.521,0.8985 2.7656,1.9667 2.7656,2.375 0,0.4082 2.025,1.9284 4.5,3.3789 2.475,1.4504 4.5,2.9431 4.5,3.3164 0,0.3733 2.7307,2.6923 6.0664,5.1543 3.3356,2.4619 8.8481,6.6056 12.25,9.2071 3.4018,2.6016 6.7099,4.739 7.3516,4.75 0.6416,0.011 1.3166,0.4008 1.5,0.8652 0.3472,0.8797 10.5164,8.1854 16.2207,11.6543 1.8088,1.1 5.228,3.4625 7.5996,5.25 2.3717,1.7875 4.7692,3.25 5.3281,3.25 0.5588,0 1.7285,0.6826 2.5996,1.5156 2.3417,2.2391 13.6771,9.4844 14.8379,9.4844 0.5509,0 1.5586,0.6713 2.2383,1.4902 0.6796,0.8189 1.5876,1.2717 2.0176,1.0059 0.4301,-0.2657 1.0401,0.1879 1.3554,1.0097 0.3154,0.8219 1.1922,1.4942 1.9492,1.4942 0.757,0 2.134,0.8375 3.0606,1.8613 0.9265,1.0238 3.585,2.6992 5.9062,3.7227 2.3212,1.0235 4.4438,2.1129 4.7188,2.4199 1.193,1.3319 13.2683,7.9961 14.4883,7.9961 0.7398,0 1.4963,0.4336 1.6797,0.9629 0.4101,1.1841 10.5129,6.5595 40.2265,21.4023 l 22.8946,11.4375 47.0293,0.072 c 26.3057,0.041 46.6222,-0.3059 46.1054,-0.7871 -0.5081,-0.4731 -5.1988,-2.5496 -10.4238,-4.6133 -11.9483,-4.7192 -40.1071,-16.6139 -49.4316,-20.8809 -3.8869,-1.7788 -9.9934,-4.5528 -13.5684,-6.164 -11.6931,-5.27 -53.1974,-26.1024 -67.0254,-33.6426 -40.9466,-22.3276 -89.969,-53.7068 -132.7031,-84.9395 -7.0235,-5.1332 -13.4465,-9.8711 -14.2715,-10.5293 -0.825,-0.6583 -5.5748,-4.2619 -10.5566,-8.0078 -12.4317,-9.3472 -24.5665,-18.8915 -68.8418,-54.1504 -20.955,-16.6876 -40.1688,-31.9876 -42.6973,-34 -2.5285,-2.0123 -6.104,-4.7851 -7.9453,-6.1601 -1.8414,-1.375 -4.7242,-3.6624 -6.4043,-5.084 -5.0519,-4.2745 -38.4415,-29.1016 -47.5547,-35.3594 -4.675,-3.2102 -10.075,-7.0644 -12,-8.5644 -5.7853,-4.5079 -24.8688,-17.2651 -35,-23.3985 -5.225,-3.1631 -13.6836,-8.4154 -18.7988,-11.6718 -5.1153,-3.2563 -9.5028,-5.9219 -9.75,-5.9219 z m -4.0879,2.8945 c 1.3519,0.088 20.3625,19.0994 34.5488,34.7227 17.7016,19.4947 33.4738,38.4208 57.168,68.5937 38.8827,49.5147 55.7199,70.6674 67.8828,85.2891 53.86,64.7482 105.1388,111.8873 163.9238,150.6855 9.0127,5.9484 16.7752,10.8145 17.25,10.8145 0.4747,0 0.8633,0.45 0.8633,1 0,0.6555 -20.6202,1 -59.8633,1 h -59.8652 l -14.3848,-14.7598 c -37.2365,-38.2062 -68.6321,-82.2924 -102.3613,-143.7402 -4.8304,-8.8 -19.5778,-37.15 -32.7715,-63 -34.5353,-67.6639 -46.9002,-90.3554 -62.666,-115 -4.2222,-6.6 -8.5194,-13.35 -9.5508,-15 -0.263,-0.4207 -0.3137,-0.6145 -0.1738,-0.6055 z m -7.0528,0.3574 c -0.1406,0.064 -0.3262,0.7951 -0.6796,2.2481 -0.4014,1.65 -1.1587,4.575 -1.6836,6.5 -0.525,1.925 -1.1378,4.625 -1.3633,6 -0.3408,2.0771 -2.3544,11.8795 -4.211,20.5 -0.2369,1.1 -1.091,5.6 -1.8964,10 -0.8055,4.4 -1.921,10.25 -2.4805,13 -3.7629,18.4962 -5.9961,30.8113 -5.9961,33.0781 0,1.4488 -0.6374,5.173 -1.418,8.2774 -0.7805,3.1044 -1.646,7.4445 -1.9219,9.6445 -0.2758,2.2 -1.2308,7.825 -2.123,12.5 -0.8922,4.675 -2.0175,11.425 -2.502,15 -0.4844,3.575 -1.5971,9.875 -2.4726,14 -0.8755,4.125 -2.0157,10.65 -2.5332,14.5 -0.5175,3.85 -1.8741,11.725 -3.0137,17.5 -1.1396,5.775 -2.4619,12.975 -2.9394,16 -0.4775,3.025 -2.5002,13.375 -4.4942,23 -1.9939,9.625 -4.4819,21.775 -5.5293,27 -1.0473,5.225 -2.6367,12.2 -3.5332,15.5 -0.8965,3.3 -2.0113,8.025 -2.4765,10.5 -1.098,5.8414 -7.1514,28.9999 -10.586,40.5 -1.4783,4.95 -3.0475,10.35 -3.4883,12 -0.4407,1.65 -1.2476,4.4297 -1.7929,6.1758 -0.5454,1.7461 -0.7324,3.4336 -0.416,3.75 0.3164,0.3164 0.07,0.5742 -0.5469,0.5742 -0.6168,0 -1.4265,1.6875 -1.7988,3.75 -0.3724,2.0625 -1.1141,4.5945 -1.6485,5.6269 -0.6972,1.3471 -0.5882,2.1185 0.3828,2.7305 1.7938,1.1305 71.7242,0.9099 72.4278,-0.2285 0.3116,-0.504 1.3134,-0.4729 2.332,0.072 1.577,0.844 72.0918,1.2623 72.0918,0.4277 0,-0.1709 -0.6148,-1.7876 -1.3672,-3.5938 -2.1446,-5.1481 -13.4452,-43.4343 -15.1582,-51.3554 -0.2463,-1.1389 -1.6256,-6.5389 -3.0645,-12 -1.4387,-5.4612 -2.9639,-11.7297 -3.3906,-13.9297 -0.4267,-2.2 -2.2233,-10.525 -3.9922,-18.5 -1.7688,-7.975 -3.5685,-16.525 -3.998,-19 -0.9887,-5.6967 -7.6712,-41.8494 -8.9649,-48.5 -0.5349,-2.75 -1.4412,-7.7 -2.0156,-11 -0.5743,-3.3 -1.763,-9.825 -2.6406,-14.5 -0.8776,-4.675 -1.7667,-9.85 -1.9746,-11.5 -0.4313,-3.4224 -2.051,-13.4054 -3.4883,-21.5 -0.5371,-3.025 -2.5717,-14.95 -4.5234,-26.5 -6.7483,-39.9349 -7.2909,-43.0342 -8.9082,-51 -0.8934,-4.4 -2.0394,-10.25 -2.5469,-13 -2.6276,-14.2374 -5.1888,-26.2194 -5.9863,-28 -0.4927,-1.1 -1.0592,-3.125 -1.2578,-4.5 -0.175,-1.2108 -0.2715,-1.8125 -0.4122,-1.7481 z m -7.8789,2.7989 c -0.5656,-0.1 -2.5487,1.4879 -5.3242,4.4492 -2.3197,2.475 -4.6424,4.5 -5.1621,4.5 -0.5197,0 -0.9453,0.6592 -0.9453,1.4648 0,0.8057 -0.7875,1.8926 -1.75,2.416 -3.0782,1.6737 -23.4595,22.7988 -25.5859,26.5196 -1.1275,1.9727 -2.8633,3.8466 -3.8575,4.1621 -0.9942,0.3155 -3.0445,2.2219 -4.5566,4.2363 -4.8009,6.3955 -5.6789,7.4451 -9,10.7754 -1.7875,1.7925 -3.25,3.4858 -3.25,3.7617 0,0.276 -1.6875,2.302 -3.75,4.5039 -2.0625,2.2019 -4.65,5.1815 -5.75,6.6211 -1.1,1.4395 -2.8713,3.4997 -3.9375,4.5781 -1.0662,1.0785 -1.6669,1.961 -1.334,1.961 0.3329,0 -0.9314,1.5826 -2.8105,3.5176 -1.8792,1.935 -3.418,3.8699 -3.418,4.2988 0,0.429 -1.5593,2.3339 -3.4668,4.2324 -1.9075,1.8986 -3.4825,3.8176 -3.5,4.2656 -0.017,0.448 -1.3832,1.9515 -3.0332,3.3399 -1.65,1.3883 -3,2.9534 -3,3.4785 0,0.525 -1.676,2.7664 -3.7246,4.9805 -2.0486,2.2141 -5.0861,5.9079 -6.75,8.2089 -3.2524,4.498 -5.1875,6.8902 -10.2754,12.7051 -1.7875,2.0429 -3.25,4.2497 -3.25,4.9024 0,0.6527 -1.9125,3.1289 -4.25,5.5039 -2.3375,2.375 -7.85,8.9303 -12.25,14.5664 -4.4,5.636 -8.9172,11.2034 -10.0391,12.373 -1.1218,1.1696 -4.2118,4.827 -6.8672,8.127 -5.8906,7.3207 -11.2605,13.7612 -14.5937,17.5039 -1.375,1.5439 -5.6425,6.3376 -9.4844,10.6523 -3.8419,4.3147 -9.5794,10.583 -12.75,13.9297 -3.1706,3.3467 -5.7656,6.6835 -5.7656,7.416 0,0.7325 -0.2425,1.0896 -0.5391,0.793 -0.2966,-0.2966 -3.3341,2.3811 -6.75,5.9512 -10.9076,11.4 -29.3327,29.5456 -36.8125,36.2539 -3.9861,3.575 -8.8559,8.0748 -10.8222,10 -1.9664,1.9252 -5.1512,4.6844 -7.0762,6.1308 -1.925,1.4463 -4.6471,3.6966 -6.0508,5 -1.4037,1.3034 -4.1037,3.5611 -6,5.0176 -1.8963,1.4564 -4.3492,3.4939 -5.4492,4.5274 -1.1,1.0336 -3.575,2.9692 -5.5,4.3027 -1.925,1.3336 -3.725,2.6827 -4,2.9961 -1.2746,1.4525 -14.2995,11.1495 -21.5,16.0078 -4.4,2.9687 -8.45,5.8927 -9,6.4961 -0.55,0.6034 -3.1831,2.3623 -5.8516,3.9102 -2.6685,1.548 -5.6276,3.5905 -6.5761,4.539 -0.9486,0.9485 -2.5304,2.034 -3.5157,2.4121 -2.7946,1.0724 -13.5119,8.0797 -13.5351,8.8496 -0.011,0.3792 27.091,0.6042 60.2285,0.5 47.5862,-0.1496 60.1974,-0.4521 60,-1.4394 -0.1375,-0.6875 0.2853,-1.25 0.9394,-1.25 0.6542,0 6.9369,-5.85 13.961,-13 7.024,-7.15 12.5636,-13 12.3105,-13 -0.253,0 2.0449,-2.5242 5.1055,-5.6094 3.3997,-3.427 5.3499,-6.1696 5.0117,-7.0508 -0.3485,-0.9083 -0.1319,-1.1819 0.586,-0.7383 0.6271,0.3876 1.6342,0.034 2.2382,-0.7851 2.1054,-2.855 7.1325,-9.1904 12.0977,-15.2442 6.1938,-7.5518 9.5,-12.2126 9.5,-13.3945 0,-0.4973 1.0494,-1.9785 2.3301,-3.291 3.3035,-3.3857 10.8755,-13.8867 10.0136,-13.8867 -0.396,0 0.2651,-0.9176 1.4688,-2.0391 1.2037,-1.1214 2.1875,-2.4219 2.1875,-2.8906 0,-0.4687 1.7869,-3.0155 3.9707,-5.6582 2.1838,-2.6427 3.756,-5.0193 3.4922,-5.2832 -0.2639,-0.2639 0.3433,-1.4139 1.3496,-2.5547 1.0063,-1.1408 3.7337,-5.2242 6.0605,-9.0742 2.3269,-3.85 6.0622,-9.925 8.3028,-13.5 2.2406,-3.575 4.9179,-7.9625 5.9492,-9.75 5.5532,-9.6251 7.9908,-14.0369 15.8809,-28.75 2.3595,-4.4 4.8252,-8.675 5.4785,-9.5 0.6532,-0.825 1.7887,-3.075 2.5254,-5 0.7366,-1.925 2.0907,-4.625 3.0078,-6 0.917,-1.375 2.3397,-3.85 3.1621,-5.5 0.8224,-1.65 4.2062,-8.175 7.5195,-14.5 9.0943,-17.3607 12.3513,-23.9461 12.0625,-24.3887 -0.1438,-0.2205 0.4834,-1.2356 1.3926,-2.2558 0.9091,-1.0203 4.9548,-8.3805 8.9902,-16.3555 4.0354,-7.975 7.5977,-14.725 7.918,-15 0.3203,-0.275 2.8504,-4.775 5.6211,-10 2.7707,-5.225 6.6757,-12.4612 8.6777,-16.082 2.002,-3.6208 3.3394,-6.8833 2.9727,-7.25 -0.3668,-0.3667 -0.1194,-0.668 0.5488,-0.668 0.6682,0 1.757,-1.2375 2.4199,-2.75 1.4226,-3.2456 4.7909,-8.4927 6.0098,-9.3613 0.4722,-0.3365 0.8772,-1.0115 0.8984,-1.5 0.021,-0.4885 1.3323,-2.7693 2.9141,-5.0684 1.5818,-2.2991 2.875,-4.5703 2.875,-5.0469 0,-0.4765 0.6767,-1.7459 1.5039,-2.8203 3.5939,-4.6678 7.4617,-11.0639 7.4785,-12.3691 0.01,-0.7789 0.3163,-1.1193 0.6797,-0.7559 0.3634,0.3634 1.1509,-0.1831 1.75,-1.2129 0.5991,-1.0297 1.6662,-2.8252 2.373,-3.9922 0.8141,-1.3439 0.9859,-2.0123 0.6465,-2.0722 z m 22.6719,6.3847 c -0.067,0.026 -0.1035,0.084 -0.1035,0.1797 0,0.7614 0.45,1.3848 1,1.3848 0.55,0 1,0.5912 1,1.3125 0,0.7213 0.9,2.2763 2,3.457 1.1,1.1807 2,2.3683 2,2.6387 0,1.5937 6.8222,11.4501 7.5,10.8359 0.4514,-0.4091 0.4796,-0.1537 0.062,0.5684 -0.4458,0.7719 0,2.1551 1.0898,3.3555 1.0164,1.1231 1.659,2.1075 1.4278,2.1875 -0.2312,0.08 0.7154,1.9445 2.1035,4.1445 1.388,2.2 3.4834,5.8814 4.6562,8.1816 1.1728,2.3001 2.5887,4.4658 3.1465,4.8106 0.5579,0.3447 1.0137,1.3515 1.0137,2.2383 0,0.8867 0.6551,2.3347 1.4551,3.2187 0.8,0.884 5.2555,9.0895 9.9004,18.2344 4.6448,9.1448 9.6148,18.3505 11.0449,20.4551 1.4301,2.1046 2.5996,4.6214 2.5996,5.5937 0,0.9724 0.45,1.7676 1,1.7676 0.55,0 1,0.629 1,1.3965 0,1.163 10.0234,21.6376 13.0234,26.6035 0.4984,0.825 1.7528,3.3 2.7871,5.5 4.3452,9.2422 9.2906,18.4434 10.2227,19.0195 0.5501,0.34 0.7742,0.9849 0.498,1.4317 -0.2761,0.4467 0.6026,2.4394 1.9532,4.4296 1.3506,1.9902 2.2529,3.6192 2.0039,3.6192 -0.2491,0 0.3613,1.4625 1.3574,3.25 0.996,1.7875 3.5157,6.506 5.5996,10.4863 2.0839,3.9802 4.1808,6.9955 4.6602,6.6992 0.4794,-0.2963 0.6586,0.048 0.3964,0.7637 -0.2621,0.716 0.6025,3.1008 1.9219,5.3008 1.3194,2.2 3.4289,6.025 4.6875,8.5 1.2586,2.475 5.3474,9.6224 9.0879,15.8828 3.7405,6.2603 6.8008,11.7398 6.8008,12.1777 0,0.4378 0.569,1.3924 1.2637,2.1192 1.3885,1.4528 4.5953,6.1915 6.3066,9.3203 0.6016,1.1 1.6525,1.8758 2.3359,1.7246 0.6835,-0.1511 0.9772,0.156 0.6524,0.6816 -0.3249,0.5257 -0.1332,1.2386 0.4258,1.584 0.5589,0.3455 1.0156,1.4471 1.0156,2.4473 0,1.0002 0.7232,2.4161 1.6055,3.1484 0.8823,0.7322 2.0066,2.2505 2.498,3.3731 1.4051,3.2099 3.2836,5.9697 4.668,6.8535 0.6991,0.4463 1.0089,1.2357 0.6875,1.7558 -0.3215,0.5201 0.1186,1.217 0.9785,1.5469 0.8599,0.33 1.5625,0.9696 1.5625,1.4219 0,1.3952 7.627,12.3238 10.3887,14.8867 1.4367,1.3334 2.6161,2.9084 2.6211,3.5 0,0.5916 2.1423,3.6033 4.75,6.6914 2.6076,3.0881 5.4152,6.6336 6.2402,7.8789 4.4969,6.7881 30.1656,35.5941 37.0801,41.6133 1.3318,1.1593 4.2097,4.1735 6.3965,6.6973 l 3.9765,4.5879 58.2735,-0.012 c 32.0507,-0.01 58.2734,-0.1652 58.2734,-0.3515 0,-0.1864 -2.5326,-1.7681 -5.6289,-3.5156 -3.0964,-1.7475 -6.1339,-3.599 -6.75,-4.1153 -4.0532,-3.3963 -15.8131,-10.8984 -17.084,-10.8984 -0.8454,0 -1.5371,-0.3969 -1.5371,-0.8828 0,-1.3061 -21.1582,-16.673 -22.4199,-16.2832 -0.5934,0.1834 -0.7734,0.027 -0.3985,-0.3477 0.3749,-0.3749 -2.3251,-2.96 -6,-5.7441 -3.6749,-2.784 -7.4009,-5.778 -8.2812,-6.6524 -0.8803,-0.8745 -3.3516,-2.9398 -5.4903,-4.5898 -2.1386,-1.65 -5.9053,-4.8 -8.371,-7 -2.4656,-2.2 -5.0542,-4.45 -5.754,-5 -1.3579,-1.0672 -3.2918,-2.8177 -15.8124,-14.3262 -4.3846,-4.0301 -9.2942,-8.5301 -10.9102,-10 -1.616,-1.4699 -3.3368,-2.5495 -3.8242,-2.3984 -0.4874,0.1511 -0.6286,-0.1422 -0.3145,-0.6504 0.3141,-0.5082 -1.0026,-2.3056 -2.9258,-3.9942 -1.9233,-1.6886 -3.498,-3.2912 -3.498,-3.5625 0,-1.2629 -14.7889,-15.4454 -15.4336,-14.8007 -0.3991,0.4029 -0.5818,0.2285 -0.3984,-0.3887 0.1833,-0.6171 -3.5625,-5.3421 -8.3243,-10.5 -4.7617,-5.1578 -10.1617,-11.1789 -12,-13.3789 -5.1492,-6.1627 -8.052,-9.4527 -11.5937,-13.1465 -1.7875,-1.8643 -3.25,-3.8096 -3.25,-4.3223 0,-0.5127 -0.6244,-1.2906 -1.3887,-1.7304 -0.7642,-0.4398 -4.3753,-4.6258 -8.0234,-9.3008 -9.1494,-11.7249 -16.3962,-20.5574 -20.8457,-25.4043 -2.0677,-2.2523 -4.0115,-4.8832 -4.3184,-5.8457 -0.3069,-0.9625 -0.9479,-1.75 -1.4238,-1.75 -0.4759,0 -1.1206,-0.7875 -1.4336,-1.75 -0.313,-0.9625 -2.2548,-3.5258 -4.3164,-5.6973 -2.0616,-2.1716 -3.75,-4.2675 -3.75,-4.6562 0,-0.3887 -1.1385,-1.986 -2.5313,-3.5508 -2.2832,-2.5654 -15.4471,-19.4384 -20.4687,-26.2363 -2.3541,-3.1868 -18.6513,-23.381 -19.457,-24.1094 -0.3042,-0.275 -1.8181,-2.1948 -3.3633,-4.2676 -1.5615,-2.0946 -3.293,-3.4699 -3.8985,-3.0957 -0.6075,0.3755 -0.8066,0.2131 -0.4492,-0.3652 0.5674,-0.9181 -0.9596,-3.3816 -5.1191,-8.2598 -0.7084,-0.8308 -3.858,-4.6617 -6.9981,-8.5117 -3.1401,-3.85 -6.3948,-7.675 -7.2324,-8.5 -0.8375,-0.825 -2.638,-2.863 -4.0019,-4.5293 -1.364,-1.6663 -2.818,-3.1288 -3.2305,-3.25 -0.4125,-0.1212 -0.7668,-0.4286 -0.7891,-0.6836 -0.075,-0.8614 -7.4177,-8.994 -14.7109,-16.2949 -3.9875,-3.9916 -7.25,-7.5309 -7.25,-7.8653 0,-0.3344 -2.25,-2.7541 -5,-5.3769 -2.4063,-2.295 -4.4282,-3.7472 -4.8965,-3.5645 z m -53.6406,9.795 c -1.1,-0.08 -6.5321,3.1369 -15.9356,9.4394 -4.7847,3.2069 -9.4482,6.2801 -10.3632,6.8301 -0.9151,0.55 -3.6891,2.3963 -6.1641,4.1015 -2.475,1.7052 -9,6.1925 -14.5,9.9727 -11.5027,7.9057 -65.7953,48.6321 -88.1152,66.0977 -55.9683,43.7958 -93.5616,72.5955 -104.0313,79.6953 -1.7307,1.1737 -10.5057,7.333 -19.5,13.6875 -76.0896,53.7574 -157.6107,98.1456 -241.3535,131.4199 -9.35,3.7152 -18.8,7.5885 -21,8.6055 -3.9581,1.8322 -3.5204,1.8482 41.75,1.8222 27.7693,-0.016 45.75,-0.396 45.75,-0.9648 0,-0.5155 0.3375,-0.837 0.75,-0.7149 0.4125,0.122 3.45,-1.063 6.75,-2.6328 10.0361,-4.7741 41.6203,-20.493 48.0059,-23.8926 11.3076,-6.0199 21.994,-12.0542 22.4941,-12.6992 0.275,-0.3547 4.4198,-2.7338 9.2109,-5.2871 4.7911,-2.5533 10.5965,-6.0069 12.9004,-7.6758 2.3039,-1.669 4.7276,-3.0351 5.3848,-3.0351 0.6572,0 2.0084,-0.9 3.0039,-2 0.9955,-1.1 2.1995,-2 2.6738,-2 0.7611,0 11.3939,-6.8485 24.8262,-15.9883 2.475,-1.6841 7.099,-4.7777 10.2754,-6.8769 3.1763,-2.0992 6.7763,-4.6794 8,-5.7325 1.2237,-1.0532 4.2496,-3.2756 6.7246,-4.9394 8.5947,-5.7777 14,-9.8515 14,-10.5508 0,-0.3868 2.3625,-2.1987 5.25,-4.0254 2.8875,-1.8268 5.475,-3.584 5.75,-3.9062 0.275,-0.3221 2.1831,-1.85 4.2402,-3.3946 2.0572,-1.5446 3.4863,-3.2183 3.1758,-3.7207 -0.3105,-0.5025 -0.1936,-0.8505 0.2598,-0.7715 2.2652,0.3935 3.4836,-0.2368 2.9824,-1.5429 -0.3653,-0.9515 -0.074,-1.2633 0.8457,-0.9102 0.7991,0.3066 4.3627,-1.9718 8.2988,-5.3027 3.7947,-3.2111 7.9794,-6.6872 9.2989,-7.7246 2.9094,-2.2878 13.7417,-11.5313 15.9531,-13.6133 0.8763,-0.825 4.2218,-3.75 7.4336,-6.5 3.2118,-2.75 7.6783,-6.7293 9.9258,-8.8438 2.2475,-2.1146 5.544,-4.9771 7.3261,-6.3613 1.7822,-1.3841 2.9504,-2.9867 2.5957,-3.5605 -0.3546,-0.5737 -0.1782,-0.7559 0.3907,-0.4043 0.9142,0.565 7.1439,-4.7579 20.8691,-17.8301 2.3099,-2.2 9.7394,-9.175 16.5098,-15.5 13.4943,-12.6065 28.498,-26.9089 38.8144,-37 3.6549,-3.575 8.0604,-7.6103 9.7891,-8.9668 1.7286,-1.3565 2.9246,-2.819 2.6582,-3.25 -0.2664,-0.431 0.1082,-0.7832 0.832,-0.7832 0.7238,0 2.7319,-1.5436 4.4629,-3.4297 1.731,-1.8861 3.487,-3.1236 3.9023,-2.75 0.4154,0.3736 0.4347,-0.2059 0.043,-1.2891 -0.3917,-1.0832 -0.4036,-1.6614 -0.027,-1.2851 0.3763,0.3763 1.4557,0.1368 2.4004,-0.5313 1.761,-1.2455 14.4187,-12.4596 21.123,-18.7148 2.0632,-1.925 5.6112,-5.0264 7.8848,-6.8926 6.5491,-5.3759 10.0567,-8.4008 13.1875,-11.3672 1.6018,-1.5176 6.2684,-5.2847 10.3691,-8.3711 4.1008,-3.0865 7.4551,-6.2318 7.4551,-6.9902 0,-0.7583 0.3626,-1.2664 0.8047,-1.1289 0.9492,0.2952 14.3894,-9.3898 13.8203,-9.959 -0.035,-0.035 -0.089,-0.055 -0.1621,-0.061 z"
         style="display:inline;fill:#ebce0e;stroke:#ebce0e;stroke-width:5;stroke-miterlimit:4;stroke-dasharray:none;stroke-opacity:1"
         inkscape:connector-curvature="0"
         sodipodi:nodetypes="ccsssssscssccsssscssssscccsssccccsssscccssscssccccccsssssscscssscccssccccccccsscccccssccsccccssccccccccccsccccscccccsssccccccccscsscssscccsssccccscsscscccscscccscscsccccsscsssccscccsccccccssssssscssssccccccsccsccscssssscsscccsscccccscscsccccscsscccccccsssccscsssccscscccsscsssscssssssssccsccccssccscscsssscccsscscsscscssscccssccsssscscscssscsccccssssscccscccsssssssssscsscsscsssscccccscssccsccccccccsccssccccccssssscsccscsscscssscscscccsssccscssscccscscscsscsscsscscssssccssccccccccccscccsssscssscsccsccsscccc" />
      <path
         inkscape:connector-curvature="0"
         id="path17407"
         d="m 235.39236,2324.4718 c -275.25451,-8.1816 -494.75846,-49.4276 -547.35966,-102.8518 -7.80761,-7.9298 -11.30894,-14.686 -11.90131,-22.9652 -0.33725,-4.7135 -0.01,-7.7094 1.14429,-10.4717 0.88917,-2.1281 1.61668,-4.9572 1.61668,-6.287 0,-15.2531 33.57887,-32.9607 88.5,-46.67 53.44515,-13.3408 129.83986,-25.4814 204,-32.4196 l 8,-0.7484 0.26633,-26.75 0.26634,-26.75 -4.26634,-0.1526 c -2.34648,-0.084 -7.86633,-0.2116 -12.26633,-0.2837 -9.03936,-0.1481 -23.95326,-1.7948 -36.37397,-4.0162 -8.03727,-1.4374 -8.47475,-1.4183 -10.88055,0.474 -4.73681,3.726 -9.30783,4.1429 -42.13688,3.8429 -34.54363,-0.3157 -34.75437,-0.2873 -42.67123,5.7512 -5.91728,4.5133 -16.07415,17.997 -17.48392,23.2106 -1.74738,6.4622 -2.32367,6.965 -8.77343,7.655 -3.12401,0.3342 -8.54518,1.06 -12.04704,1.6129 -3.50186,0.5528 -6.57075,0.8015 -6.81976,0.5524 -0.74741,-0.7473 3.17848,-7.7424 8.08143,-14.3993 7.02001,-9.5313 5.73916,-11.0565 -2.19254,-2.6108 -3.68616,3.925 -7.71461,7.6533 -8.95211,8.2852 -1.91347,0.9769 -2.25,1.9559 -2.25,6.5455 0,4.7481 -0.33052,5.631 -2.75,7.3461 -2.78228,1.9722 -16.02685,5.1868 -21.37038,5.1868 h -2.90646 l 1.45778,-3.489 c 0.80177,-1.9189 2.83281,-5.4874 4.51342,-7.9301 1.6806,-2.4427 3.05564,-4.9123 3.05564,-5.488 0,-0.5758 1.07897,-1.7538 2.39771,-2.6178 1.48588,-0.9736 2.65735,-2.9789 3.08043,-5.2731 0.56157,-3.0451 3.01974,-6.0089 13.85229,-16.702 7.24326,-7.15 15.0058,-15.0519 17.25008,-17.5598 4.47088,-4.996 7.7869,-6.3148 23.41949,-9.3136 9.35496,-1.7945 19.60397,-6.4376 24.55142,-11.1223 l 3.17276,-3.0043 0.51778,-15 c 0.34975,-10.1322 1.04901,-16.5197 2.15476,-19.6829 1.72989,-4.9486 1.63376,-9.0909 -0.4577,-19.7215 -1.53806,-7.8178 -0.62788,-29.0146 1.61434,-37.5956 2.09565,-8.0201 3.62493,-16.6551 3.05125,-17.2287 -0.43554,-0.4356 -9.22937,2.7358 -17.9711,6.481 -2.31972,0.9938 -4.81416,3.1577 -6.2354,5.4091 -3.43134,5.4356 -5.35578,6.1836 -11.9595,4.6483 -4.36722,-1.0154 -5.63915,-1.7605 -6.09325,-3.5698 -0.70142,-2.7947 -3.99967,-5.2399 -7.06787,-5.2399 -1.56131,0 -2.27749,-0.5904 -2.27749,-1.8776 0,-1.0326 -0.625,-2.3962 -1.3889,-3.0302 -1.35374,-1.1235 -3.6111,-8.3661 -3.6111,-11.586 0,-0.9186 1.60819,-2.2672 3.75,-3.1449 4.40892,-1.8066 11.42821,-8.259 14.9473,-13.74 2.40957,-3.753 2.43805,-3.9962 0.87831,-7.5 -1.00802,-2.2644 -1.45514,-5.3074 -1.1933,-8.1213 0.2303,-2.475 0.46349,-5.2379 0.51821,-6.1399 0.0554,-0.9124 2.09562,-2.5781 4.59948,-3.7551 2.475,-1.1634 4.5,-2.5876 4.5,-3.1649 0,-0.5773 -1.8,-4.0341 -4,-7.6817 -3.50696,-5.8146 -3.99811,-7.3795 -3.98469,-12.6953 0.008,-3.3347 0.47509,-6.7381 1.03703,-7.5631 0.85143,-1.25 1.47386,-0.9171 3.73469,1.9973 1.49213,1.9235 5.41297,6.2214 8.71297,9.551 3.3,3.3295 6.80851,7.2682 7.79668,8.7527 0.98818,1.4844 2.22568,2.699 2.75,2.699 1.26892,0 1.21227,-4.1887 -0.10345,-7.6493 -1.44407,-3.7982 -1.44287,-15.3067 0.002,-19.6849 l 1.18413,-3.588 2.93919,3.3476 c 1.61655,1.8411 5.37831,8.0111 8.35947,13.7111 2.98115,5.6999 6.0169,10.6734 6.7461,11.0522 0.7292,0.3789 4.49172,1.8438 8.36115,3.2554 6.1478,2.2429 7.99407,2.4856 14.6353,1.9243 6.16087,-0.5208 8.04254,-0.3325 9.93718,0.9946 1.28546,0.9003 3.06733,1.637 3.95971,1.637 0.89238,0 2.43699,0.9 3.43248,2 0.99549,1.1 2.44985,2 3.23191,2 1.93388,0 7.26809,5.4637 7.26809,7.4445 0,0.8791 1.2375,2.0948 2.75,2.7015 6.08264,2.4398 7.00815,3.1782 8.65122,6.9023 1.89701,4.2997 1.15343,7.0493 -2.42414,8.964 -2.87318,1.5376 -2.42159,3.7312 0.91923,4.4649 2.92938,0.6434 4.53428,2.1183 6.9111,6.3512 1.07652,1.9171 1.07653,2.6065 6e-5,3.9036 -0.71904,0.8664 -1.1671,2.4031 -0.99569,3.4149 0.2004,1.1829 -0.60292,2.2565 -2.25005,3.0069 -3.02609,1.3788 -3.30817,3.3764 -0.67575,4.7852 1.03729,0.5551 2.86223,2.6639 4.05542,4.6863 l 2.16943,3.6769 -3.79478,3.8862 -3.79478,3.8862 3.24009,2.5357 c 2.68893,2.1044 3.12903,2.9912 2.58727,5.2127 -0.35905,1.4724 -1.70938,3.949 -3.00072,5.5037 -2.47744,2.9827 -3.04775,6.1227 -1.30739,7.1983 0.57229,0.3537 2.14072,2.3859 3.4854,4.5161 1.34469,2.1301 3.31464,4.3384 4.37767,4.9073 4.78515,2.5609 14.47395,4.1865 27.23909,4.5701 7.50348,0.2255 14.25348,0.5386 15,0.6957 1.13224,0.2384 1.39978,-12.6762 1.61339,-77.8789 l 0.25608,-78.1647 -3.3426,-2.0658 c -4.29115,-2.6521 -12.55998,-11.3948 -16.20614,-17.1349 -1.56163,-2.4584 -4.08925,-7.6199 -5.61695,-11.4699 -1.52769,-3.85 -2.79311,-6.3457 -2.81204,-5.5461 -0.0189,0.7996 -2.05427,5.6059 -4.52297,10.6806 -7.15412,14.7062 -17.76554,24.7901 -30.37854,28.8686 -8.37877,2.7093 -20.12337,1.7608 -28.35095,-2.2897 -11.14431,-5.4863 -20.2138,-15.8263 -26.43577,-30.139 -2.53305,-5.8268 -3.40055,-7.0498 -3.92157,-5.5282 -0.36796,1.0746 -2.44219,5.6979 -4.60941,10.2741 -5.21205,11.0054 -14.57901,20.7538 -24.41961,25.4141 -6.35899,3.0115 -7.67543,3.2656 -16.91663,3.2656 -9.27533,0 -10.51,-0.2407 -16.59207,-3.2349 -3.61407,-1.7792 -8.65016,-5.065 -11.19129,-7.3018 -11.16073,-9.8241 -20.19414,-29.4778 -21.39953,-46.5584 l -0.59308,-8.4049 48.39853,-9e-4 48.39853,-9e-4 27,-13.3417 c 43.16812,-21.3309 69.63809,-36.5266 106.5,-61.1386 56.65093,-37.8249 95.94169,-70.4986 180.49044,-150.0933 74.60239,-70.2312 107.82189,-98.6417 148.50179,-127.0038 l 8.49224,-5.9208 -15.86309,15.5 c -29.25303,28.5835 -48.7103,50.9075 -98.92472,113.5 -48.95901,61.0276 -60.66354,74.8675 -88.87713,105.0916 -42.15833,45.1626 -88.52499,83.8776 -137.56953,114.8672 -6.7375,4.2572 -12.25,7.9206 -12.25,8.1408 0,0.2202 28.12993,0.4004 62.51096,0.4004 h 62.51096 l 8.10263,-7.7412 c 23.97932,-22.9097 54.32787,-60.3629 76.55456,-94.4761 20.67159,-31.7264 36.77209,-60.3488 71.31708,-126.7827 19.11336,-36.7571 32.97558,-62.225 43.81638,-80.5 10.60628,-17.8797 28.17998,-44.8408 28.81443,-44.2063 0.22682,0.2268 -0.31124,3.516 -1.19568,7.3093 -3.60645,15.4681 -11.66258,57.0787 -17.41608,89.9556 -3.36313,19.2178 -8.35862,47.7664 -11.1011,63.4414 -15.13045,86.4802 -28.72312,145.2694 -42.99718,185.9653 -1.05433,3.006 -1.91696,5.8185 -1.91696,6.25 0,0.4316 33.975,0.7847 75.5,0.7847 62.00821,0 75.5,-0.2367 75.5,-1.3249 0,-0.7286 -1.14116,-4.6661 -2.53591,-8.75 -15.91064,-46.5864 -27.66134,-100.7153 -47.96006,-220.9251 -10.30885,-61.0494 -15.93712,-91.902 -20.58083,-112.8183 -1.62627,-7.325 -2.70869,-13.7198 -2.40539,-14.2105 0.30331,-0.4908 1.32338,-0.2643 2.26683,0.5032 0.94345,0.7676 9.81536,7.4455 19.71536,14.8399 36.87676,27.5435 64.06489,51.5414 126.3541,111.5279 68.7518,66.2103 97.1903,91.7124 135.6459,121.6401 50.0312,38.9364 95.2657,67.4132 154,96.9489 l 24,12.0688 50.8945,0.2767 50.8945,0.2768 -0.6389,7.557 c -2.1399,25.3156 -15.6536,47.2584 -34.2015,55.5343 -6.8719,3.0662 -19.3306,3.7028 -26.5815,1.3583 -12.819,-4.1451 -23.1593,-14.0856 -30.7526,-29.5636 l -4.873,-9.9332 -2.1945,5.8681 c -4.8427,12.9491 -16.4944,26.2814 -27.7532,31.7563 -5.1249,2.4921 -6.919,2.8203 -15.5402,2.8433 l -9.7465,0.026 v 75.6781 75.678 l 5.7383,0.717 c 9.0616,1.1321 37.79,-0.179 41.0221,-1.8722 1.5068,-0.7894 5.9283,-3.2202 9.8256,-5.4018 8.837,-4.9467 25.7748,-9.7823 31.551,-9.0075 5.4289,0.7281 9.863,4.9153 9.863,9.3137 0,5.0124 -0.8807,6.3006 -6.1248,8.9579 -2.6814,1.3588 -4.8752,2.8583 -4.8752,3.3323 0,0.474 1.4625,1.4384 3.25,2.1431 3.2162,1.2679 12.75,10.1723 12.75,11.9082 0,0.4949 1.1305,2.2433 2.5122,3.8853 4.3588,5.1802 5.6125,10.5402 6.1206,26.1679 0.568,17.4688 1.6101,22.1852 5.6537,25.5876 5.8338,4.9088 14.553,8.5295 22.5957,9.383 9.385,0.996 10.977,1.6204 11.7245,4.5987 0.3243,1.2918 1.2204,2.8722 1.9914,3.5121 0.7711,0.6399 1.4019,2.1231 1.4019,3.296 0,2.3585 10.9097,21.755 14.3328,25.4825 1.192,1.2979 4.5456,3.8899 7.4525,5.7601 2.9069,1.8702 5.5589,4.1134 5.8934,4.985 0.5202,1.3557 1.8783,1.4841 9.3993,0.8888 l 8.7913,-0.6958 3.0712,6.0841 c 1.8849,3.7339 3.1655,7.9198 3.3153,10.8367 0.2422,4.7145 0.2143,4.7603 -3.4689,5.6844 -3.7151,0.932 -15.8831,-0.5524 -20.2869,-2.4749 -1.1,-0.4802 -4.4382,-1.8088 -7.4183,-2.9525 -7.8254,-3.003 -10.5483,-5.2757 -15.999,-13.3532 -9.3644,-13.8775 -23.8033,-24.2593 -35.3327,-25.405 -6.0131,-0.5976 -6.1616,0.6652 -1.0761,9.1516 5.2382,8.7413 8.5373,12.7495 15.3554,18.6562 l 5.9932,5.192 6.4396,-0.926 c 3.9093,-0.5621 7.0835,-0.5656 8.0784,-0.01 2.3325,1.3053 7.4578,12.6079 7.4587,16.4483 0.001,4.0822 -2.294,4.7901 -12.5243,3.863 -5.5525,-0.5031 -9.4373,-1.6433 -15.8695,-4.6575 -10.6101,-4.972 -13.3317,-7.2515 -19.2032,-16.0835 -7.0505,-10.6055 -14.5759,-18.2512 -20.4523,-20.7791 -3.2484,-1.3975 -9.6359,-2.6881 -17.7727,-3.5912 -25.2252,-2.7996 -42.6116,-10.2288 -44.7855,-19.1369 -0.382,-1.5651 -1.998,-4.7582 -3.5911,-7.0957 l -2.8967,-4.25 -8.2019,-0.01 c -4.5111,0 -11.2459,-0.2946 -14.9662,-0.6459 l -6.7643,-0.6389 0.2643,31.8853 0.2642,31.8854 13,1.7234 c 45.6715,6.0548 102.6252,16.502 134.9801,24.7598 21.7276,5.5455 46.9361,14.0719 59.0505,19.9731 16.658,8.1144 25.2725,15.7741 27.5796,24.5227 0.5863,2.2232 1.7566,6.4474 2.6008,9.3871 7.6046,26.4822 -27.1463,53.2961 -97.8757,75.5212 -104.4708,32.8275 -267.2891,53.6734 -465.8353,59.6416 -37.05005,1.1136 -144.72553,1.0585 -183.5,-0.094 z m 488.5,-248.4137 v -30.5 h -9.9814 c -5.4898,0 -13.0273,-0.4378 -16.75,-0.9729 -29.7292,-4.2733 -30.9152,-4.3474 -33.9457,-2.1195 -4.5646,3.3556 -10.6878,3.8547 -41.0561,3.3466 -31.4629,-0.5265 -33.9256,-0.2402 -41.5866,4.8342 -7.0542,4.6725 -17.4191,18.1135 -19.3914,25.1462 -1.4478,5.1629 -1.9163,5.7873 -4.6985,6.2621 -3.5524,0.6063 -20.4261,2.4828 -22.4353,2.4951 -1.6878,0.01 2.4,-7.2233 8.5071,-15.054 4.2248,-5.4173 5.3052,-7.9378 3.4025,-7.9378 -0.5145,0 -3.552,2.9732 -6.75,6.6072 -3.198,3.6339 -6.8271,6.9978 -8.0646,7.4752 -1.9361,0.747 -2.2521,1.6039 -2.2653,6.1428 -0.017,5.7941 -0.5494,7.0746 -3.3778,8.1213 -1.0412,0.3853 -1.6655,0.9282 -1.3873,1.2064 0.2782,0.2782 13.0551,1.149 28.3931,1.935 31.8754,1.6336 34.8289,1.8183 72.8873,4.5578 27.1437,1.9539 90.4617,7.6121 93.5,8.3553 5.3086,1.2987 5,3.1443 5,-29.901 z m -703.5,22.5151 c 17.63772,-1.5518 73.37797,-5.0129 80.75,-5.0141 3.7125,-5e-4 6.75,-0.4128 6.75,-0.916 0,-1.92 -9.365,-9.0452 -13.82948,-10.522 -2.56879,-0.8497 -9.39552,-2.017 -15.17052,-2.594 -23.77092,-2.3747 -41.75973,-9.6592 -44.97729,-18.2134 -1.8459,-4.9075 -2.92396,-7.0067 -5.01007,-9.7556 -1.82542,-2.4054 -2.39147,-2.5133 -14.95493,-2.8504 l -13.05771,-0.3504 v 25.6004 25.6004 l 4.25,-0.01 c 2.3375,-0.01 9.2,-0.4441 15.25,-0.9764 z m 131.5,-7.9074 c 0,-1.8447 -11.80775,-11.712 -17.10684,-14.2954 -6.62268,-3.2288 -14.24904,-5.2734 -16.47846,-4.4179 -2.04028,0.7829 -1.59455,2.0045 4.32568,11.8556 l 4.65754,7.75 h 12.30104 c 6.76557,0 12.30104,-0.4015 12.30104,-0.8923 z m 56.60504,-1.5672 c 0.60777,-0.2016 1.3542,-1.9019 1.65874,-3.7786 1.14237,-7.0395 13.50392,-22.8701 19.3704,-24.8062 4.25324,-1.4037 4.2982,-3.3441 0.11582,-4.9991 -4.59771,-1.8193 -6.53851,-3.7172 -7.28728,-7.1263 -1.42604,-6.4928 3.78799,-11.8303 11.55653,-11.8303 9.12773,0 25.74079,5.7837 35.74245,12.4435 3.92893,2.6162 5.33441,2.907 18,3.7251 7.55606,0.4881 17.9008,0.5963 22.9883,0.2405 l 9.25,-0.6469 V 1915.7841 1779.248 l -3.84146,5.9051 c -4.12653,6.3432 -11.50187,13.6778 -17.15854,17.0638 -10.89614,6.5221 -25.85806,7.1471 -37.21804,1.5546 -11.14431,-5.4863 -20.2138,-15.8263 -26.43577,-30.139 -2.48852,-5.7244 -3.39952,-7.023 -3.87819,-5.5282 -0.3441,1.0746 -2.50151,5.7788 -4.79425,10.4538 -5.49835,11.2114 -14.56379,20.6339 -24.27815,25.2344 -6.35936,3.0117 -7.6751,3.2656 -16.91921,3.2656 -9.35023,0 -10.48069,-0.2251 -16.8276,-3.3509 -11.6744,-5.7494 -22.57441,-18.4968 -27.27636,-31.8991 -1.75607,-5.0054 -3.37243,-6.8515 -3.37243,-3.8516 0,0.769 -2.08408,5.5615 -4.6313,10.6498 -5.82002,11.626 -13.95842,20.147 -23.93519,25.0604 -6.44642,3.1748 -7.52953,3.3914 -16.95614,3.3914 -9.62911,0 -10.40395,-0.165 -17.70317,-3.7698 -9.66345,-4.7724 -18.10806,-13.6494 -23.7969,-25.0154 -2.18752,-4.3705 -3.9773,-8.5427 -3.9773,-9.2716 0,-3.5355 -1.96621,-1.8009 -3.86664,3.4112 -6.39669,17.5435 -22.7909,32.8374 -37.25697,34.7564 l -4.87639,0.6469 v 76.7368 76.7368 l 7.19694,0.5149 c 3.95832,0.2832 13.42949,0.1507 21.04704,-0.2946 11.56379,-0.6759 14.46136,-1.1731 17.55306,-3.0121 10.39304,-6.1819 16.62048,-8.9042 25.95757,-11.3475 8.36524,-2.1891 10.92464,-2.4985 13.89126,-1.6793 5.50737,1.5206 8.35413,4.699 8.35413,9.3274 0,5.4556 -1.30623,7.3295 -6.48859,9.3087 -2.48127,0.9476 -4.51141,2.1347 -4.51141,2.6381 0,0.5033 1.6875,1.6055 3.75,2.4493 5.97448,2.4441 13.29919,10.874 18.21232,20.9603 2.20891,4.5347 4.63961,25.8791 3.72427,32.7034 -1.51685,11.3091 10.9073,21.4686 28.36247,23.1927 8.28976,0.8188 10.95094,1.8236 10.95094,4.1349 0,0.8564 0.9,2.7012 2,4.0996 1.1,1.3985 2,3.4114 2,4.4733 0,1.9932 8.29724,16.7657 12.69728,22.6064 1.37014,1.8188 4.43704,4.5188 6.81535,6 4.27232,2.6609 4.50805,2.6896 19.65578,2.3967 8.43237,-0.1631 15.82886,-0.4615 16.43663,-0.663 z m 295.39496,0.6758 c 0,-1.1073 6.44981,-11.3177 8.6591,-13.7078 1.0125,-1.0954 2.7409,-4.1098 3.8409,-6.6988 1.4185,-3.3385 4.5584,-7.0625 10.7993,-12.8081 4.8397,-4.4555 11.9984,-11.7313 15.9084,-16.1684 8.1513,-9.2504 10.0441,-10.2468 24.7522,-13.0298 11.4538,-2.1672 20.6958,-6.0649 26.712,-11.2655 l 3.7081,-3.2055 0.2342,-11.797 c 0.2701,-13.6093 1.0814,-20.5625 2.9097,-24.9384 1.2901,-3.0876 1.2479,-4.18 -0.5645,-14.597 -2.1449,-12.3279 -0.9429,-32.1771 2.9672,-48.9989 1.0865,-4.6745 1.66,-8.7989 1.2745,-9.1656 -0.7641,-0.7264 -17.7886,6.009 -21.7514,8.6055 -1.3473,0.8828 -2.4497,2.1913 -2.4497,2.9077 0,0.7165 -1.1199,2.3547 -2.4886,3.6406 -2.2976,2.1585 -2.929,2.2678 -8.2291,1.4243 -4.326,-0.6885 -6.0017,-1.4417 -6.8004,-3.0569 -1.9106,-3.8635 -3.6858,-5.3567 -6.3683,-5.3567 -2.1948,0 -3.0524,-0.8657 -5.0722,-5.1199 -1.4065,-2.9625 -2.454,-7.0265 -2.4861,-9.6449 -0.051,-4.1567 0.193,-4.615 2.9951,-5.6301 4.9362,-1.7883 8.9056,-5.1689 12.93,-11.0121 3.0853,-4.4798 3.6397,-5.9925 3.037,-8.2866 -1.0102,-3.8446 -1.6069,-13.3294 -1.0059,-15.9897 0.2712,-1.2009 1.5046,-2.5032 2.7408,-2.8942 1.2362,-0.3909 3.2568,-1.3704 4.4901,-2.1767 l 2.2424,-1.4658 -4.4924,-8.2415 c -4.7915,-8.7901 -5.7476,-14.6498 -3.1528,-19.3239 1.2643,-2.2775 1.2805,-2.2705 4.6421,2 1.8554,2.357 5.7685,6.4589 8.6959,9.1154 2.9273,2.6565 5.3224,5.3905 5.3224,6.0757 0,1.5746 4.7864,6.1412 5.5922,5.3354 0.3301,-0.3301 -0.1181,-3.7582 -0.996,-7.618 -0.8779,-3.8599 -1.5962,-8.6423 -1.5962,-10.6277 0,-3.6274 1.8802,-12.4954 2.6493,-12.4954 1.482,0 7.2186,8.3939 11.641,17.0334 l 5.2097,10.1775 9,3.4661 c 7.6386,2.9418 9.5294,3.3227 12.5,2.5184 4.2483,-1.1504 9.7913,-0.9178 12.5,0.5245 1.1,0.5857 3.125,1.5865 4.5,2.2239 8.2825,3.8399 14,8.439 14,11.2613 0,1.104 1.104,2.2442 2.75,2.8403 5.3837,1.9496 6.9225,3.1513 8.5042,6.6411 1.8374,4.0537 0.8057,7.8031 -2.3761,8.6351 -3.0396,0.7949 -2.16,3.3741 1.8231,5.346 2.0357,1.0078 4.4531,3.1824 5.3721,4.8324 1.4589,2.6193 1.4884,3.2096 0.2325,4.652 -0.7912,0.9087 -1.2961,2.4796 -1.1221,3.491 0.1959,1.1389 -0.5402,2.2181 -1.9337,2.8351 -2.7483,1.2168 -2.9099,3.6287 -0.3502,5.2272 1.8207,1.1371 5.1002,6.6109 5.1002,8.5129 0,0.501 -1.35,2.0469 -3,3.4353 -3.6505,3.0717 -3.7678,4.6134 -0.5133,6.7458 3.2493,2.129 2.9537,5.8713 -0.857,10.8528 l -2.8703,3.7522 3.8703,5.6521 c 5.8719,8.5752 13.3747,11.0128 35.6214,11.5729 l 10.7511,0.2707 v -80.6411 -80.6411 l -4.0461,-4.8589 c -3.4792,-4.1782 -7.7797,-11.9768 -11.7781,-21.3589 l -1.0654,-2.5 -0.736,2.4955 c -1.9327,6.5526 -8.8824,18.2696 -14.4221,24.3153 -4.5946,5.0141 -7.9705,7.5767 -13.7265,10.4194 -7.2992,3.6048 -8.0741,3.7698 -17.7032,3.7698 -9.4314,0 -10.5075,-0.2155 -16.9729,-3.3997 -11.7857,-5.8042 -22.651,-18.9373 -27.9953,-33.8381 l -1.3493,-3.7622 -1.6655,4 c -8.1999,19.6938 -19.7897,31.9005 -34.2911,36.1162 -19.7819,5.7507 -41.298,-5.7033 -51.9149,-27.6366 -2.2576,-4.6638 -4.4073,-9.3721 -4.7773,-10.4629 -0.539,-1.5895 -1.1396,-0.8344 -3.0241,3.8022 -5.8908,14.494 -15.98209,26.3158 -27.16182,31.8195 -8.38613,4.1285 -20.05468,5.0965 -28.50329,2.3647 -12.81896,-4.1451 -23.15925,-14.0856 -30.75254,-29.5636 l -4.87306,-9.9332 -2.19452,5.8681 c -4.83557,12.9302 -16.45671,26.2385 -27.75313,31.7822 -5.25142,2.5761 -6.78303,2.8434 -16.29604,2.8434 -9.22578,0 -11.16745,-0.3151 -16,-2.5968 -8.06065,-3.8059 -15.87536,-10.8306 -22.19755,-19.9536 -1.60059,-2.3097 -1.70054,5.1982 -1.75,131.4473 l -0.0525,133.8969 14.25,-0.5663 c 10.3598,-0.4117 16.05228,-1.1327 20.85187,-2.6413 5.91585,-1.8594 7.0329,-2.6514 10.75,-7.6218 2.28147,-3.0508 4.14813,-6.0483 4.14813,-6.6612 0,-0.6129 -1.13211,-2.5987 -2.5158,-4.4128 -1.38369,-1.8141 -2.77076,-4.5732 -3.08238,-6.1313 -0.46485,-2.3243 -0.10289,-3.0811 2.01579,-4.215 3.33501,-1.7848 3.25392,-2.756 -0.55858,-6.6895 l -3.14096,-3.2407 1.69318,-3.5681 c 0.93124,-1.9625 2.79468,-4.2898 4.14096,-5.172 3.1013,-2.032 3.08878,-3.1246 -0.0522,-4.5557 -1.74753,-0.7963 -2.5,-1.9336 -2.5,-3.7786 0,-1.4517 -0.44628,-3.0858 -0.99174,-3.6312 -0.65566,-0.6557 -0.58121,-2.0794 0.21968,-4.2012 0.90526,-2.3983 2.29325,-3.6226 5.49175,-4.8441 4.8246,-1.8426 5.18395,-2.6167 2.18866,-4.7146 -1.15041,-0.8058 -2.73697,-2.3864 -3.52568,-3.5125 -1.27019,-1.8134 -1.20435,-2.4759 0.57634,-5.7982 2.06995,-3.8621 5.20647,-6.2401 8.31243,-6.3023 0.97429,-0.019 2.31811,-1.2729 2.98627,-2.7854 1.52274,-3.447 6.14707,-8.25 7.94313,-8.25 0.74507,0 2.12528,-0.9 3.06713,-2 0.94185,-1.1 2.51673,-2 3.49974,-2 0.983,0 2.77094,-0.689 3.9732,-1.5311 1.64458,-1.1519 4.36194,-1.4646 10.97251,-1.2627 7.44524,0.2274 9.85518,-0.1312 15.78658,-2.3492 7.60989,-2.8456 6.71178,-1.7794 15.10382,-17.9311 2.67488,-5.1483 7.63842,-11.9259 8.73378,-11.9259 0.25671,0 0.96076,1.4172 1.56456,3.1492 1.49417,4.2862 1.32204,13.1134 -0.39604,20.3092 -0.78244,3.2772 -1.19483,6.1862 -0.91641,6.4647 0.89244,0.8924 3.86962,-1.5248 5.19024,-4.214 0.70398,-1.4335 3.44141,-4.542 6.08319,-6.9078 2.64178,-2.3657 6.32625,-6.242 8.1877,-8.6139 3.15049,-4.0144 3.47849,-4.1873 4.74463,-2.5 0.90702,1.2087 1.24005,3.8116 0.99963,7.8126 -0.2906,4.8362 -1.10174,7.2003 -4.18178,12.1881 -2.10168,3.4035 -3.62878,6.7656 -3.39355,7.4712 0.23523,0.7057 2.16674,2.1961 4.29225,3.3119 3.68908,1.9367 6.45347,6.8141 4.53432,8.0002 -0.42797,0.2645 -0.55384,1.6542 -0.27972,3.0882 0.27413,1.434 -0.0727,4.3378 -0.77073,6.4528 -1.16995,3.545 -1.06858,4.1879 1.29682,8.2241 2.88238,4.9184 10.91841,12.7635 13.07415,12.7635 0.77633,0 2.39413,0.7957 3.59513,1.7681 2.0486,1.6589 2.1085,2.0762 0.9698,6.75 -0.6675,2.7401 -1.7568,5.6569 -2.4207,6.4819 -0.6639,0.825 -1.4812,2.2741 -1.81628,3.2202 -0.33505,0.9461 -1.86595,2.0207 -3.402,2.3879 -3.51181,0.8396 -5.27845,2.2239 -6.314,4.9476 -1.05646,2.7787 -9.01751,5.1626 -12.82868,3.8415 -1.4884,-0.5159 -3.40711,-2.4307 -4.37693,-4.3678 -0.94973,-1.8971 -2.93199,-4.0807 -4.40502,-4.8525 -2.93945,-1.5401 -19.16936,-8.1769 -19.99621,-8.1769 -0.86481,0 0.78094,11.2223 2.32438,15.85 2.15784,6.4697 3.09522,22.5409 1.99971,34.2845 -1.28302,13.7538 -1.27252,22.4938 0.0329,27.3655 0.58951,2.2 1.37156,6.5676 1.73788,9.7058 l 0.66603,5.7059 6.68357,0.3483 c 14.0308,0.7312 30.18355,0.7078 30.18355,-0.044 z m 177,-349.2163 c 0,-0.55 -0.3885,-1 -0.8632,-1 -0.4748,0 -8.2373,-4.8669 -17.25,-10.8153 -58.785,-38.7982 -110.0652,-85.9365 -163.92518,-150.6847 -12.16291,-14.6217 -28.999,-35.7755 -67.88171,-85.2902 -23.69415,-30.1729 -39.46714,-49.0978 -57.16878,-68.5925 -15.65381,-17.2395 -37.1807,-38.6046 -34.37567,-34.1173 1.03143,1.65 5.32985,8.4 9.55205,15 15.76581,24.6446 28.13096,47.3361 62.66626,115 13.19371,25.85 27.94071,54.2 32.77111,63 33.72926,61.4478 65.12393,105.5339 102.36042,143.7401 l 14.3853,14.7599 h 59.8647 c 39.2431,0 59.8647,-0.3445 59.8647,-1 z"
         style="display:inline;fill:#2a50de" />
      <path
         inkscape:connector-curvature="0"
         id="path17405"
         d="m 235.39236,2324.4718 c -218.76861,-6.5026 -405.11479,-33.9023 -498.98694,-73.3692 -28.9444,-12.1692 -49.28946,-26.6683 -57.00971,-40.6287 -2.6411,-4.7758 -2.99552,-6.3845 -2.99919,-13.6133 -0.005,-9.0495 1.60608,-12.7729 3.43942,-7.9509 3.70825,9.7534 17.13236,19.021 41.55642,28.6891 4.4,1.7417 10.25,3.8578 13,4.7024 2.75,0.8446 7.025,2.1977 9.5,3.0069 10.45942,3.4195 41.78798,11.0518 59,14.3736 3.025,0.5838 7.525,1.4678 10,1.9645 8.61304,1.7283 24.48114,4.5258 33.5,5.906 3.3,0.505 8.925,1.3921 12.5,1.9712 7.44066,1.2055 16.97487,2.5784 28.5,4.1038 4.4,0.5824 11.15,1.4799 15,1.9945 14.99988,2.0046 34.80239,4.2937 51.5,5.953 5.225,0.5193 14.225,1.4169 20,1.9947 115.75002,11.5813 291.66698,17.8634 424,15.1412 104.82244,-2.1562 178.5256,-5.6745 255.5,-12.1963 25.2643,-2.1406 67.261,-6.3161 80,-7.9541 3.85,-0.495 11.05,-1.396 16,-2.0021 17.4506,-2.1369 36.5207,-4.7033 44.5,-5.9887 3.025,-0.4873 8.875,-1.3892 13,-2.0042 4.125,-0.615 9.975,-1.5702 13,-2.1226 7.9202,-1.4464 14.5812,-2.6334 22,-3.9204 7.5921,-1.317 15.07,-2.8054 20,-3.9806 1.925,-0.4589 6.2,-1.3908 9.5,-2.0709 5.6095,-1.1561 28.663,-6.8736 36.5,-9.0523 1.925,-0.5352 4.85,-1.3431 6.5,-1.7953 12.4962,-3.4252 32.2502,-11.0719 42,-16.2584 11.8041,-6.2791 21.7617,-15.0167 23.0745,-20.2475 0.9388,-3.7403 2.193,-3.1364 3.49,1.6805 3.6113,13.4112 -6.3845,29.5444 -26.6023,42.9363 -66.7735,44.2295 -253.5269,78.6779 -481.4622,88.8102 -67.18599,2.9866 -174.74767,3.8523 -239.5,1.9276 z m 85.20046,-83.5466 c -0.38525,-0.3852 -0.70046,-23.4134 -0.70046,-51.1736 v -50.4732 l -14.18712,0.5102 -14.18713,0.5102 -3.34109,3.6458 c -1.83761,2.0051 -3.61784,5.0294 -3.95607,6.7205 -0.64543,3.2272 -6.07728,9.2028 -10.32859,11.3625 -8.85297,4.4975 -30.64966,9.5305 -41.27381,9.5305 -10.94803,0 -20.86212,7.422 -32.05837,24 -6.18116,9.1523 -6.90145,9.7588 -18.16782,15.2983 -7.18125,3.5309 -10.51921,4.567 -16.51774,5.127 -4.72147,0.4408 -8.58022,0.2979 -10.37421,-0.3842 -2.67043,-1.0153 -2.81419,-1.3505 -2.20723,-5.1462 0.8277,-5.1762 5.03366,-13.5219 7.4723,-14.827 1.22957,-0.658 3.88446,-0.677 7.70605,-0.055 6.72765,1.095 6.99128,0.9733 15.53178,-7.1657 5.20994,-4.965 11.85993,-13.6338 11.91129,-15.5274 0.0122,-0.4509 0.90222,-1.9448 1.97776,-3.3198 3.04622,-3.8944 2.60591,-6.0027 -1.25,-5.9854 -11.15694,0.05 -26.15831,10.3043 -35.73131,24.4246 -2.63285,3.8834 -5.85163,7.9716 -7.15285,9.0847 -2.77114,2.3705 -11.20013,6.4761 -13.29592,6.4761 -0.79854,0 -1.69248,0.3893 -1.98655,0.8651 -0.76382,1.2359 -11.96882,3.2936 -18.24185,3.35 -6.74855,0.061 -8.72894,-1.4403 -7.98108,-6.0488 0.81014,-4.9923 6.34534,-15.9381 8.38753,-16.5863 0.96412,-0.306 4.39673,-0.1261 7.62802,0.3998 6.26399,1.0195 7.90466,0.5784 11.1352,-2.9936 1.09384,-1.2095 3.70086,-3.0728 5.79336,-4.1408 4.90454,-2.5031 12.75586,-13.4865 17.76037,-24.8454 1.09043,-2.475 2.64692,-5.774 3.45885,-7.331 0.81192,-1.5571 1.47623,-3.4441 1.47623,-4.1933 0,-2.3478 4.26011,-4.4755 8.97251,-4.4813 11.56551,-0.014 26.42551,-7.6406 29.79548,-15.2914 0.75006,-1.7029 1.23201,-7.4474 1.23201,-14.6847 0,-15.5342 1.84427,-24.1842 6.75591,-31.6867 5.50275,-8.4055 11.01335,-14.1003 14.87827,-15.3759 4.25324,-1.4037 4.2982,-3.3441 0.11582,-4.9991 -4.59771,-1.8193 -6.53851,-3.7172 -7.28728,-7.1263 -1.42604,-6.4928 3.78799,-11.8303 11.55653,-11.8303 9.12773,0 25.74079,5.7837 35.74245,12.4435 3.92893,2.6162 5.33441,2.907 18,3.7251 7.55606,0.4881 17.9008,0.5963 22.9883,0.2405 l 9.25,-0.6469 v -137.1811 c 0,-80.1661 0.37495,-137.5759 0.90215,-138.1311 0.91898,-0.9677 3.55049,-8.13 5.30912,-14.45 0.53565,-1.925 1.26975,-7.0644 1.63132,-11.4208 0.86181,-10.3835 2.71105,-11.0805 3.654,-1.3771 0.99997,10.2902 2.83914,17.1656 7.10879,26.5752 l 2.39462,5.2774 v 134.1195 134.1196 l 14.25,-0.5663 c 10.3598,-0.4117 16.05228,-1.1327 20.85187,-2.6413 5.91585,-1.8594 7.0329,-2.6514 10.75,-7.6218 2.28147,-3.0508 4.14813,-6.0483 4.14813,-6.6612 0,-0.6129 -1.13211,-2.5987 -2.5158,-4.4128 -1.38369,-1.8141 -2.77076,-4.5732 -3.08238,-6.1313 -0.46485,-2.3243 -0.10289,-3.0811 2.01579,-4.215 3.33501,-1.7849 3.25392,-2.7561 -0.55858,-6.6895 l -3.14096,-3.2407 1.69318,-3.5681 c 0.93124,-1.9625 2.79468,-4.2899 4.14096,-5.172 3.1013,-2.032 3.08878,-3.1246 -0.0522,-4.5558 -1.74753,-0.7962 -2.5,-1.9335 -2.5,-3.7785 0,-1.4517 -0.44628,-3.0858 -0.99174,-3.6312 -0.65566,-0.6557 -0.58121,-2.0794 0.21968,-4.2012 0.90526,-2.3983 2.29325,-3.6226 5.49175,-4.8441 4.8246,-1.8426 5.18395,-2.6167 2.18866,-4.7146 -1.15041,-0.8058 -2.73697,-2.3864 -3.52568,-3.5125 -1.27019,-1.8134 -1.20435,-2.4759 0.57634,-5.7982 2.06995,-3.8621 5.20647,-6.2401 8.31243,-6.3023 0.97429,-0.019 2.31811,-1.2729 2.98627,-2.7854 1.52274,-3.447 6.14707,-8.25 7.94313,-8.25 0.74507,0 2.12528,-0.9 3.06713,-2 0.94185,-1.1 2.51673,-2 3.49974,-2 0.983,0 2.77094,-0.689 3.9732,-1.5311 1.64458,-1.1519 4.36194,-1.4646 10.97251,-1.2627 7.44524,0.2274 9.85518,-0.1312 15.78658,-2.3492 7.60989,-2.8456 6.71178,-1.7794 15.10382,-17.9311 2.67488,-5.1483 7.63842,-11.9259 8.73378,-11.9259 0.25671,0 0.96076,1.4172 1.56456,3.1492 1.49417,4.2862 1.32204,13.1134 -0.39604,20.3092 -0.78244,3.2772 -1.19483,6.1862 -0.91641,6.4647 0.89244,0.8924 3.86962,-1.5248 5.19024,-4.214 0.70398,-1.4335 3.44141,-4.542 6.08319,-6.9078 2.64178,-2.3657 6.32625,-6.242 8.1877,-8.6139 3.15049,-4.0144 3.47849,-4.1873 4.74463,-2.5 0.90702,1.2087 1.24005,3.8116 0.99963,7.8126 -0.2906,4.8362 -1.10174,7.2003 -4.18178,12.1881 -2.10168,3.4035 -3.62878,6.7656 -3.39355,7.4712 0.23523,0.7057 2.16674,2.1961 4.29225,3.3119 3.68908,1.9367 6.45347,6.8141 4.53432,8.0002 -0.42797,0.2645 -0.55384,1.6542 -0.27972,3.0882 0.27413,1.434 -0.0727,4.3378 -0.77073,6.4528 -1.16995,3.545 -1.06858,4.1879 1.29682,8.2241 2.88238,4.9184 10.91841,12.7635 13.07415,12.7635 0.77633,0 2.39413,0.7957 3.59513,1.7681 2.0486,1.6589 2.1085,2.0762 0.9698,6.75 -0.6675,2.7401 -1.7568,5.6569 -2.4207,6.4819 -0.6639,0.825 -1.4812,2.2741 -1.81628,3.2202 -0.33505,0.9461 -1.86595,2.0207 -3.402,2.3879 -3.51181,0.8396 -5.27845,2.2239 -6.314,4.9476 -1.05646,2.7787 -9.01751,5.1626 -12.82868,3.8415 -1.4884,-0.5159 -3.40711,-2.4307 -4.37693,-4.3678 -0.94973,-1.8971 -2.93199,-4.0807 -4.40502,-4.8525 -2.93945,-1.5401 -19.16936,-8.1769 -19.99621,-8.1769 -0.86481,0 0.78094,11.2223 2.32438,15.85 2.15784,6.4697 3.09522,22.5409 1.99971,34.2845 -1.3263,14.2178 -1.26648,22.6324 0.19455,27.3655 0.67911,2.2 1.40144,9.4 1.60518,16 0.20373,6.6 0.40053,12.753 0.43731,13.6733 0.092,2.3024 4.2786,7.0854 7.71994,8.8198 1.56582,0.7892 3.97195,2.1547 5.34695,3.0345 2.82442,1.8073 7.73333,3.2893 16.5,4.9812 15.8899,3.0667 17.3995,3.932 28.0069,16.0547 2.1962,2.5099 7.8181,8.1051 12.4931,12.4338 8.3752,7.7547 12.9848,13.5962 12.9949,16.4675 0,0.8057 0.9189,2.3807 2.0357,3.5 2.821,2.8275 9.8102,14.0528 10.5265,16.9066 0.7913,3.1527 -1.3768,3.8919 -7.3494,2.5058 -11.508,-2.6707 -13.193,-3.19 -16.1134,-4.9661 -2.9075,-1.7681 -3.0943,-2.2448 -3.0943,-7.8964 0,-4.3864 -0.3659,-6.0147 -1.3517,-6.0147 -1.4178,0 -4.5916,-2.854 -10.9587,-9.8541 -4.1074,-4.5159 -7.1229,-4.7777 -3.6812,-0.3197 5.4549,7.0659 10.9916,15.8294 10.9916,17.3978 0,1.5395 -0.737,1.6732 -6.25,1.1336 -3.4375,-0.3365 -9.1656,-1.1211 -12.7291,-1.7436 -5.93844,-1.0374 -6.55296,-1.3814 -7.3651,-4.123 -3.80093,-12.8305 -15.38883,-26.2468 -26.98339,-31.241 -2.12987,-0.9174 -11.81914,-1.25 -36.41549,-1.25 h -33.51347 l -5.21903,-2.986 c -2.87047,-1.6423 -5.4652,-2.7399 -5.76608,-2.439 -1.3653,1.3653 -24.27353,4.1361 -43.25834,5.2322 l -12,0.6928 -0.5,50.5 -0.5,50.5 -9.54954,0.2838 c -5.25225,0.1561 -9.86475,-0.031 -10.25,-0.4167 z m 403.84834,-79.2881 c -0.3131,-0.5066 -0.5677,-26.8316 -0.5657,-58.5 v -57.579 h -9.9747 c -5.4861,0 -13.0205,-0.4378 -16.7432,-0.9729 -29.7292,-4.2733 -30.9152,-4.3474 -33.9457,-2.1195 -4.5646,3.3556 -10.6878,3.8547 -41.0561,3.3466 -31.4629,-0.5265 -33.9256,-0.2402 -41.5866,4.8342 -7.0542,4.6725 -17.4191,18.1135 -19.3914,25.1462 -1.4478,5.1629 -1.9163,5.7873 -4.6985,6.2621 -3.5524,0.6063 -20.4261,2.4828 -22.4353,2.4951 -1.6878,0.01 2.4,-7.2233 8.5071,-15.054 4.2248,-5.4173 5.3052,-7.9378 3.4025,-7.9378 -0.5145,0 -3.552,2.9732 -6.75,6.6072 -3.198,3.6339 -6.8271,6.9978 -8.0646,7.4752 -1.9361,0.747 -2.2521,1.6039 -2.2653,6.1428 -0.01,2.9012 -0.3459,5.7248 -0.75,6.2748 -2.3486,3.1967 -13.2815,6.585 -22.21147,6.8837 -3.84755,0.1287 -5.24513,-2.2275 -2.84625,-4.7985 0.72766,-0.7798 2.67302,-3.7638 4.32302,-6.6311 1.65,-2.8672 3.9,-6.1635 5,-7.3252 1.1,-1.1616 2.9,-4.2302 4,-6.8192 1.4185,-3.3385 4.5584,-7.0625 10.7993,-12.8081 4.8397,-4.4555 11.9984,-11.7313 15.9084,-16.1684 8.1513,-9.2504 10.0441,-10.2468 24.7522,-13.0298 11.4538,-2.1672 20.6958,-6.0649 26.712,-11.2655 l 3.7081,-3.2055 0.2342,-11.797 c 0.2701,-13.6094 1.0814,-20.5625 2.9097,-24.9384 1.2901,-3.0876 1.2479,-4.1801 -0.5645,-14.597 -2.1449,-12.3279 -0.9429,-32.1771 2.9672,-48.9989 1.0865,-4.6745 1.66,-8.799 1.2745,-9.1656 -0.7641,-0.7264 -17.7886,6.0089 -21.7514,8.6055 -1.3473,0.8828 -2.4497,2.1913 -2.4497,2.9077 0,0.7165 -1.1199,2.3547 -2.4886,3.6406 -2.2976,2.1585 -2.929,2.2678 -8.2291,1.4243 -4.326,-0.6885 -6.0017,-1.4417 -6.8004,-3.0569 -1.9106,-3.8635 -3.6858,-5.3567 -6.3683,-5.3567 -2.1948,0 -3.0524,-0.8657 -5.0722,-5.1199 -1.4065,-2.9625 -2.454,-7.0265 -2.4861,-9.6449 -0.051,-4.1567 0.193,-4.615 2.9951,-5.6301 4.9362,-1.7883 8.9056,-5.1689 12.93,-11.0121 3.0853,-4.4798 3.6397,-5.9925 3.037,-8.2866 -1.0102,-3.8446 -1.6069,-13.3294 -1.0059,-15.9897 0.2712,-1.2009 1.5046,-2.5033 2.7408,-2.8942 1.2362,-0.3909 3.2568,-1.3704 4.4901,-2.1767 l 2.2424,-1.4659 -4.4924,-8.2414 c -4.7915,-8.7901 -5.7476,-14.6498 -3.1528,-19.3239 1.2643,-2.2775 1.2805,-2.2705 4.6421,2 1.8554,2.3569 5.7685,6.4589 8.6959,9.1154 2.9273,2.6565 5.3224,5.3905 5.3224,6.0757 0,1.5746 4.7864,6.1412 5.5922,5.3354 0.3301,-0.3301 -0.1181,-3.7582 -0.996,-7.618 -0.8779,-3.8599 -1.5962,-8.6423 -1.5962,-10.6277 0,-3.6274 1.8802,-12.4954 2.6493,-12.4954 1.482,0 7.2186,8.3939 11.641,17.0334 l 5.2097,10.1775 9,3.4661 c 7.6386,2.9418 9.5294,3.3227 12.5,2.5184 4.2483,-1.1504 9.7913,-0.9178 12.5,0.5245 1.1,0.5857 3.125,1.5865 4.5,2.2239 8.2825,3.8399 14,8.439 14,11.2613 0,1.104 1.104,2.2442 2.75,2.8403 5.3837,1.9496 6.9225,3.1513 8.5042,6.6411 1.8374,4.0537 0.8057,7.8031 -2.3761,8.6351 -3.0396,0.7949 -2.16,3.3741 1.8231,5.346 2.0357,1.0078 4.4531,3.1824 5.3721,4.8324 1.4589,2.6193 1.4884,3.2096 0.2325,4.652 -0.7912,0.9087 -1.2961,2.4796 -1.1221,3.491 0.1959,1.1389 -0.5402,2.2181 -1.9337,2.8351 -2.7483,1.2168 -2.9099,3.6287 -0.3502,5.2272 1.8207,1.1371 5.1002,6.6109 5.1002,8.5129 0,0.501 -1.35,2.0469 -3,3.4353 -3.6505,3.0717 -3.7678,4.6134 -0.5133,6.7458 3.2493,2.129 2.9537,5.8713 -0.857,10.8528 l -2.8703,3.7522 3.8703,5.6521 c 5.8719,8.5752 13.3747,11.0128 35.6214,11.5729 l 10.7511,0.2707 v -80.25 c -10e-4,-71.3108 0.3386,-83.7725 2.1656,-79.4639 0.8334,1.9655 11.8372,8.5116 16.0833,9.5679 l 2.75,0.6841 v 75.909 75.909 l 5.7383,0.7169 c 9.0616,1.1322 37.79,-0.1789 41.0221,-1.8721 1.5068,-0.7894 5.9283,-3.2203 9.8256,-5.4019 8.837,-4.9466 25.7748,-9.7822 31.551,-9.0075 5.4289,0.7282 9.863,4.9154 9.863,9.3138 0,5.0124 -0.8807,6.3006 -6.1248,8.9579 -2.6814,1.3588 -4.8752,2.8583 -4.8752,3.3323 0,0.474 1.4625,1.4384 3.25,2.1431 3.2162,1.2679 12.75,10.1723 12.75,11.9082 0,0.4949 1.1305,2.2433 2.5122,3.8853 4.3588,5.1801 5.6125,10.5402 6.1206,26.1679 0.568,17.4688 1.6101,22.1852 5.6537,25.5876 5.8338,4.9088 14.553,8.5295 22.5957,9.383 9.385,0.996 10.977,1.6204 11.7245,4.5987 0.3243,1.2918 1.2204,2.8722 1.9914,3.5121 0.7711,0.6399 1.4019,2.1231 1.4019,3.296 0,2.3585 10.9097,21.755 14.3328,25.4825 1.192,1.2979 4.5456,3.8899 7.4525,5.7601 2.9069,1.8702 5.5589,4.1134 5.8934,4.985 0.5202,1.3557 1.8783,1.4841 9.3993,0.8888 l 8.7913,-0.6958 3.0712,6.0841 c 1.8849,3.7339 3.1655,7.9198 3.3153,10.8367 0.2422,4.7145 0.2143,4.7603 -3.4689,5.6843 -3.7151,0.9321 -15.8831,-0.5523 -20.2869,-2.4748 -1.1,-0.4802 -4.4382,-1.8088 -7.4183,-2.9525 -7.8254,-3.003 -10.5483,-5.2757 -15.999,-13.3533 -9.3644,-13.8774 -23.8033,-24.2593 -35.3327,-25.4049 -6.0131,-0.5976 -6.1616,0.6652 -1.0761,9.1516 5.2382,8.7413 8.5373,12.7495 15.3554,18.6562 l 5.9932,5.1919 6.4396,-0.9259 c 3.9093,-0.5621 7.0835,-0.5656 8.0784,-0.01 2.3325,1.3053 7.4578,12.6079 7.4587,16.4483 10e-4,4.0822 -2.294,4.7901 -12.5243,3.863 -5.5525,-0.5031 -9.4373,-1.6433 -15.8695,-4.6575 -10.6101,-4.972 -13.3317,-7.2515 -19.2032,-16.0835 -7.0505,-10.6055 -14.5759,-18.2512 -20.4523,-20.7791 -3.2484,-1.3975 -9.6359,-2.6881 -17.7727,-3.5912 -25.2252,-2.7996 -42.6116,-10.2289 -44.7855,-19.1369 -0.382,-1.5652 -1.998,-4.7582 -3.5911,-7.0957 l -2.8967,-4.25 -8.2019,-0.01 c -4.5111,0 -11.2357,-0.2937 -14.9436,-0.6438 l -6.7415,-0.6367 0.01,57.7118 c 0,31.7416 -0.2507,58.1313 -0.5675,58.6439 -0.7474,1.2093 -19.1622,1.2194 -19.9091,0.011 z m -744.59305,-38.329 c -0.0243,-11.1375 -0.005,-32.5125 0.0424,-47.5 l 0.0866,-27.25 -4.29235,-0.1526 c -2.3608,-0.084 -7.89236,-0.2116 -12.29236,-0.2837 -9.03936,-0.1481 -23.95326,-1.7948 -36.37397,-4.0162 -8.03727,-1.4374 -8.47475,-1.4183 -10.88055,0.474 -4.73681,3.726 -9.30783,4.1429 -42.13688,3.8429 -34.54363,-0.3157 -34.75437,-0.2873 -42.67123,5.7512 -5.91728,4.5133 -16.07415,17.997 -17.48392,23.2106 -1.74738,6.4622 -2.32367,6.965 -8.77343,7.655 -3.12401,0.3342 -8.54518,1.06 -12.04704,1.6129 -3.50186,0.5528 -6.57075,0.8015 -6.81976,0.5525 -0.74741,-0.7474 3.17848,-7.7425 8.08143,-14.3994 7.02001,-9.5313 5.73916,-11.0565 -2.19254,-2.6108 -3.68616,3.925 -7.71461,7.6533 -8.95211,8.2852 -1.91347,0.9769 -2.25,1.9559 -2.25,6.5455 0,4.7481 -0.33052,5.631 -2.75,7.3461 -2.78232,1.9722 -16.02689,5.1868 -21.37042,5.1868 h -2.90646 l 1.45778,-3.489 c 0.80177,-1.9189 2.83281,-5.4874 4.51342,-7.9301 1.6806,-2.4427 3.05564,-4.9123 3.05564,-5.488 0,-0.5758 1.07897,-1.7538 2.39771,-2.6178 1.48588,-0.9736 2.65735,-2.9789 3.08043,-5.2731 0.56157,-3.0451 3.01974,-6.0089 13.85229,-16.702 7.24326,-7.15 15.0058,-15.0519 17.25008,-17.5598 4.47088,-4.996 7.7869,-6.3148 23.41949,-9.3136 9.35496,-1.7945 19.60397,-6.4376 24.55142,-11.1223 l 3.17276,-3.0043 0.51778,-15 c 0.34975,-10.1322 1.04901,-16.5197 2.15476,-19.6829 1.72989,-4.9486 1.63376,-9.0909 -0.4577,-19.7215 -1.53806,-7.8178 -0.62788,-29.0146 1.61434,-37.5956 2.09565,-8.0201 3.62493,-16.6551 3.05125,-17.2287 -0.43554,-0.4356 -9.22937,2.7358 -17.9711,6.481 -2.31972,0.9938 -4.81416,3.1577 -6.2354,5.4091 -3.43134,5.4356 -5.35578,6.1836 -11.9595,4.6483 -4.36722,-1.0154 -5.63915,-1.7605 -6.09325,-3.5698 -0.70142,-2.7947 -3.99967,-5.2399 -7.06787,-5.2399 -1.56131,0 -2.27749,-0.5904 -2.27749,-1.8776 0,-1.0326 -0.625,-2.3962 -1.3889,-3.0302 -1.35374,-1.1235 -3.6111,-8.3661 -3.6111,-11.586 0,-0.9186 1.60819,-2.2672 3.75,-3.1449 4.40892,-1.8066 11.42821,-8.259 14.9473,-13.74 2.40957,-3.753 2.43805,-3.9962 0.87831,-7.5 -1.00802,-2.2644 -1.45514,-5.3074 -1.1933,-8.1213 0.2303,-2.475 0.46349,-5.2379 0.51821,-6.1399 0.0554,-0.9124 2.09562,-2.5781 4.59948,-3.7551 2.475,-1.1634 4.5,-2.5876 4.5,-3.1649 0,-0.5773 -1.8,-4.0341 -4,-7.6817 -3.50696,-5.8146 -3.99811,-7.3795 -3.98469,-12.6953 0.008,-3.3347 0.47509,-6.7381 1.03703,-7.5631 0.85143,-1.25 1.47386,-0.9171 3.73469,1.9973 1.49213,1.9235 5.41297,6.2214 8.71297,9.551 3.3,3.3295 6.80851,7.2682 7.79668,8.7527 0.98818,1.4844 2.22568,2.699 2.75,2.699 1.26892,0 1.21227,-4.1887 -0.10345,-7.6493 -1.44407,-3.7982 -1.44287,-15.3067 0.002,-19.6849 l 1.18413,-3.588 2.93919,3.3476 c 1.61655,1.8411 5.37831,8.0111 8.35947,13.7111 2.98115,5.6999 6.0169,10.6734 6.7461,11.0522 0.7292,0.3789 4.49172,1.8438 8.36115,3.2554 6.1478,2.2429 7.99407,2.4856 14.6353,1.9243 6.16087,-0.5208 8.04254,-0.3325 9.93718,0.9946 1.28546,0.9003 3.06733,1.637 3.95971,1.637 0.89238,0 2.43699,0.9 3.43248,2 0.99549,1.1 2.44985,2 3.23191,2 1.93388,0 7.26809,5.4637 7.26809,7.4445 0,0.8791 1.2375,2.0948 2.75,2.7015 6.08264,2.4398 7.00815,3.1782 8.65122,6.9023 1.89701,4.2997 1.15343,7.0493 -2.42414,8.964 -2.87318,1.5376 -2.42159,3.7312 0.91923,4.4649 2.92938,0.6434 4.53428,2.1183 6.9111,6.3512 1.07652,1.9171 1.07653,2.6065 6e-5,3.9036 -0.71904,0.8664 -1.1671,2.4031 -0.99569,3.4149 0.2004,1.1829 -0.60292,2.2565 -2.25005,3.0069 -3.02609,1.3788 -3.30817,3.3764 -0.67575,4.7852 1.03729,0.5551 2.86223,2.6639 4.05542,4.6863 l 2.16943,3.6769 -3.79478,3.8862 -3.79478,3.8862 3.24009,2.5357 c 2.68893,2.1044 3.12903,2.9912 2.58727,5.2127 -0.35905,1.4724 -1.70938,3.949 -3.00072,5.5037 -2.47744,2.9827 -3.04775,6.1227 -1.30739,7.1983 0.57229,0.3537 2.14072,2.3859 3.4854,4.5161 1.34469,2.1301 3.31464,4.3384 4.37767,4.9073 4.78515,2.5609 14.47395,4.1865 27.23909,4.5701 7.50348,0.2255 14.25348,0.5386 15,0.6957 1.13218,0.2384 1.39981,-12.6108 1.61345,-77.4642 0.21023,-63.8167 0.49398,-77.75 1.58334,-77.75 0.72996,0 1.6356,0.3084 2.01253,0.6853 1.51852,1.5186 8.42528,3.2855 12.898,3.2996 l 4.75006,0.015 v 76.8656 76.8657 l 7.19694,0.5149 c 3.95832,0.2832 13.42949,0.1507 21.04704,-0.2946 11.56379,-0.6759 14.46136,-1.1731 17.55306,-3.0121 10.39304,-6.1819 16.62048,-8.9042 25.95757,-11.3475 8.36524,-2.1891 10.92464,-2.4985 13.89126,-1.6793 5.50737,1.5206 8.35413,4.699 8.35413,9.3274 0,5.4556 -1.30623,7.3295 -6.48859,9.3087 -2.48127,0.9476 -4.51141,2.1347 -4.51141,2.6381 0,0.5033 1.6875,1.6055 3.75,2.4493 5.97448,2.4441 13.29919,10.874 18.21232,20.9603 2.20891,4.5347 4.63961,25.8791 3.72427,32.7034 -1.51685,11.3091 10.9073,21.4686 28.36247,23.1927 8.28976,0.8188 10.95094,1.8236 10.95094,4.1349 0,0.8564 0.9,2.7012 2,4.0996 1.1,1.3985 2,3.4069 2,4.4633 0,2.146 9.7238,19.1395 13.56148,23.7003 1.36058,1.617 4.60335,4.1661 7.20615,5.6647 2.60281,1.4987 5.68187,3.8738 6.84237,5.278 2.06656,2.5007 2.22109,2.5266 7.50693,1.2585 8.17865,-1.962 9.87809,-1.3809 12.89034,4.4081 1.43094,2.75 3.21579,7.2004 3.96632,9.8898 1.26813,4.5441 1.22893,4.989 -0.5545,6.2934 -3.08692,2.2578 -6.50042,2.7099 -11.12439,1.4731 -2.37787,-0.6359 -5.46368,-1.1563 -6.85736,-1.1563 -1.39367,0 -4.39674,-0.9 -6.67348,-2 -2.27673,-1.1 -4.71631,-2 -5.42127,-2 -1.56759,0 -8.15606,-3.5982 -10.71418,-5.8515 -1.02937,-0.9067 -3.70247,-4.3485 -5.94021,-7.6485 -8.7884,-12.9603 -17.9976,-20.5617 -29.67756,-24.4964 -7.24077,-2.4393 -10.57957,-2.3405 -10.3618,0.3066 0.22551,2.7412 9.56333,17.6898 11.05012,17.6898 0.71557,0 1.30104,0.6201 1.30104,1.3779 0,0.7578 2.96723,3.9829 6.59385,7.1669 6.38474,5.6055 6.69618,5.7521 9.82099,4.6222 1.77494,-0.6419 4.87706,-1.167 6.89361,-1.167 3.1616,0 3.98288,0.5164 5.96443,3.75 4.97255,8.1146 6.21084,14.7737 3.2103,17.264 -2.5492,2.1156 -15.89169,0.4154 -22.98318,-2.9286 -3.3,-1.5562 -7.575,-3.5777 -9.5,-4.4923 -5.19207,-2.4668 -7.01063,-4.2912 -13.03015,-13.0726 -3.00842,-4.3887 -8.16985,-10.7299 -11.46985,-14.0915 -7.16861,-7.3025 -11.32779,-8.9442 -26.5,-10.46 -23.77092,-2.3747 -41.75973,-9.6593 -44.97729,-18.2134 -1.8459,-4.9075 -2.92396,-7.0067 -5.01007,-9.7556 -1.82542,-2.4054 -2.39147,-2.5133 -14.95493,-2.8504 l -13.05771,-0.3504 v 25.6004 c 0,16.9803 0.34856,25.6004 1.03518,25.6004 0.71358,0 0.71358,0.6009 0,1.9343 -0.61492,1.1489 -1.03518,10.0805 -1.03518,22 v 20.0657 h -10.5 -10.5 l -0.0442,-20.25 z m -46.14325,-16.4331 c 0.72187,-0.2889 1.58438,-0.2534 1.91667,0.079 0.33229,0.3323 -0.25834,0.5686 -1.3125,0.5252 -1.16495,-0.048 -1.4019,-0.2849 -0.60417,-0.6041 z m 17.45653,-2.0099 c 0.97297,-0.2535 2.32297,-0.2369 3,0.037 0.67703,0.2739 -0.11903,0.4814 -1.76903,0.461 -1.65,-0.02 -2.20394,-0.2445 -1.23097,-0.498 z m 754.99997,0 c 0.973,-0.2535 2.323,-0.2369 3,0.037 0.6771,0.2739 -0.119,0.4814 -1.769,0.461 -1.65,-0.02 -2.2039,-0.2445 -1.231,-0.498 z m -735.519,-1.9693 c 0.6875,-0.2774 1.8125,-0.2774 2.5,0 0.6875,0.2774 0.125,0.5044 -1.25,0.5044 -1.375,0 -1.9375,-0.227 -1.25,-0.5044 z m 693.519,-2.0307 c 0.973,-0.2535 2.323,-0.2369 3,0.037 0.6771,0.2739 -0.119,0.4814 -1.769,0.461 -1.65,-0.02 -2.2039,-0.2445 -1.231,-0.498 z m -802.23037,-360.057 c 0.0212,-0.4125 9.78404,-5.475 21.6951,-11.25 86.26422,-41.8246 157.52981,-91.1547 239.43992,-165.7404 9.51898,-8.6678 32.16154,-29.7435 50.31679,-46.835 74.60239,-70.2312 107.82189,-98.6417 148.50179,-127.0038 l 8.49224,-5.9208 -15.86309,15.5 c -29.25303,28.5835 -48.7103,50.9075 -98.92472,113.5 -48.95901,61.0276 -60.66354,74.8675 -88.87713,105.0916 -42.0853,45.0843 -86.55876,82.2771 -136.63297,114.2649 l -14.31345,9.1435 h -56.93655 c -31.31511,0 -56.91918,-0.3375 -56.89793,-0.75 z m 241.76512,0.2204 c -0.29127,-0.2912 2.83042,-3.7787 6.93708,-7.75 24.16727,-23.3702 54.02349,-60.3032 75.93828,-93.9377 20.67159,-31.7264 36.77209,-60.3488 71.31708,-126.7827 19.11336,-36.7571 32.97558,-62.225 43.81638,-80.5 10.60628,-17.8797 28.17998,-44.8408 28.81443,-44.2063 0.22682,0.2268 -0.31124,3.516 -1.19568,7.3093 -3.60645,15.4681 -11.66258,57.0787 -17.41608,89.9556 -3.36313,19.2178 -8.35862,47.7664 -11.1011,63.4414 -14.61374,83.527 -25.73152,132.6241 -40.08068,177 -2.22307,6.875 -4.46086,13.2875 -4.97288,14.25 -0.87399,1.6429 -5.53789,1.75 -76.2291,1.75 -41.41398,0 -75.53646,-0.2383 -75.82773,-0.5296 z m 303.87224,-0.2204 c -0.72502,-1.2301 -8.27665,-24.9558 -11.53801,-36.25 -12.66585,-43.8625 -21.98065,-89.4565 -39.63395,-194 -10.30885,-61.0494 -15.93712,-91.902 -20.58083,-112.8183 -1.62627,-7.325 -2.70869,-13.7198 -2.40539,-14.2105 0.30331,-0.4908 1.32338,-0.2643 2.26683,0.5032 0.94345,0.7676 9.81536,7.4455 19.71536,14.8399 36.87676,27.5435 64.06489,51.5414 126.3541,111.5279 37.1502,35.7768 59.6338,56.9517 76.709,72.2437 70.8219,63.4259 137.0661,108.8387 214.6791,147.17 11.4082,5.6343 20.7457,10.5816 20.75,10.9941 0,0.4125 -24.9593,0.75 -55.4746,0.75 h -55.4824 l -6.6724,-4.084 c -41.3197,-25.2904 -87.1198,-62.42 -125.8874,-102.0551 -32.2153,-32.9363 -48.78876,-52.7379 -119.39549,-142.6511 -23.69415,-30.1729 -39.46714,-49.0978 -57.16878,-68.5925 -15.65381,-17.2395 -37.1807,-38.6046 -34.37567,-34.1173 1.03143,1.65 5.32985,8.4 9.55205,15 15.76581,24.6446 28.13096,47.3361 62.66626,115 13.19371,25.85 27.94071,54.2 32.77111,63 33.50196,61.0337 65.06074,105.4286 101.72512,143.1003 7.5625,7.7702 13.75,14.4139 13.75,14.7637 0,0.906 -151.78983,0.7923 -152.32401,-0.114 z"
         style="display:inline;fill:#bd292d" />
      <path
         inkscape:connector-curvature="0"
         id="path17403"
         d="m 154.89236,2211.5581 c 0,-1.65 0.45,-3 1,-3 0.55,0 1,-1.1313 1,-2.514 0,-1.3827 1.0125,-4.0772 2.25,-5.9876 1.89469,-2.9251 2.83287,-3.4756 5.94098,-3.486 2.03004,-0.01 3.9691,0.4376 4.30902,0.9876 1.11843,1.8097 6.34331,1.0632 8.74982,-1.25 1.28739,-1.2375 4.00361,-3.5339 6.03604,-5.1032 3.87108,-2.9889 8.92148,-9.3803 12.75908,-16.1468 5.79646,-10.2204 6.14873,-11.7908 3.02053,-13.465 -1.30574,-0.6988 -2.78954,-0.7102 -4.56509,-0.035 -1.44682,0.5501 -3.72628,1.0002 -5.06548,1.0002 -1.33919,0 -2.4349,0.45 -2.4349,1 0,0.55 -1.0125,1.01 -2.25,1.0222 -1.2375,0.012 -3.375,0.9023 -4.75,1.9778 -1.375,1.0755 -3.07316,1.9655 -3.77368,1.9778 -2.04379,0.036 -13.45902,11.9456 -18.23216,19.0222 -2.41131,3.575 -4.91565,7.0389 -5.5652,7.6974 -2.03696,2.0654 -8.40387,5.3026 -10.42896,5.3026 -1.06654,0 -3.43448,0.8399 -5.26208,1.8664 -5.41143,3.0394 -21.44355,5.2279 -22.75483,3.1062 -1.11066,-1.797 0.0506,-9.0797 1.90982,-11.9769 0.8839,-1.3773 2.111,-3.4024 2.72688,-4.5 1.18565,-2.1131 3.58169,-2.2768 13.62317,-0.9311 4.04311,0.5419 4.84442,0.3627 5.43059,-1.2145 0.71668,-1.9282 4.12338,-5.3501 5.32645,-5.3501 0.71701,0 3.53433,-2.2579 8.17048,-6.5482 1.46877,-1.3592 3.26612,-3.8169 3.99411,-5.4615 0.728,-1.6447 1.66378,-2.9903 2.07952,-2.9903 0.41574,0 0.75589,-0.675 0.75589,-1.5 0,-0.825 0.3375,-1.5016 0.75,-1.5036 0.4125,0 1.875,-2.4753 3.25,-5.4964 1.375,-3.0211 2.8375,-5.4945 3.25,-5.4964 0.4125,0 0.75,-1.3536 0.75,-3.0036 0,-1.65 0.35134,-3 0.78076,-3 0.42942,0 1.29033,-1.35 1.91314,-3 0.6228,-1.65 1.84646,-3 2.71924,-3 0.87277,0 1.58686,-0.45 1.58686,-1 0,-0.5778 3.16667,-1 7.5,-1 4.33333,0 7.5,-0.4222 7.5,-1 0,-0.55 1.125,-1 2.5,-1 1.375,0 2.5,-0.45 2.5,-1 0,-0.55 0.45692,-1 1.01538,-1 1.82948,0 11.98462,-7.2518 11.98462,-8.5582 0,-0.7013 0.47454,-1.4333 1.05454,-1.6267 0.63108,-0.2103 1.18754,-4.9622 1.38572,-11.8333 0.79092,-27.421 2.40873,-33.2985 11.83098,-42.9818 1.33793,-1.375 2.72105,-3.316 3.07362,-4.3134 0.35256,-0.9973 1.09419,-1.5333 1.64808,-1.191 0.55388,0.3423 1.00706,0.1459 1.00706,-0.4366 0,-0.5824 0.7875,-1.0733 1.75,-1.0908 2.66961,-0.048 5.25,-2.4371 5.25,-4.8598 0,-1.1942 -0.7875,-2.4229 -1.75,-2.7305 -3.79394,-1.2125 -6.45015,-2.8834 -7.39734,-4.6532 -1.44303,-2.6963 -1.88032,-5.7247 -0.82663,-5.7247 0.50116,0 0.67772,-0.6084 0.39236,-1.3521 -0.69988,-1.8238 3.54094,-4.4579 8.438,-5.2409 3.51567,-0.5622 10.25593,0.7628 17.14361,3.3702 0.825,0.3123 2.51811,0.6886 3.76247,0.8363 1.24437,0.1477 2.96333,0.9695 3.81993,1.826 0.8566,0.8566 2.76349,1.8502 4.23753,2.208 1.47404,0.3578 4.48007,1.9121 6.68007,3.4541 2.55403,1.7901 6.3497,3.2015 10.5,3.9043 8.36946,1.4173 37.55149,0.7041 49.98545,-1.2217 5.217,-0.808 15.95631,-1.5708 23.86515,-1.6952 7.90883,-0.1243 15.48218,-0.6452 16.82965,-1.1575 1.34747,-0.5123 3.50313,-0.9315 4.79035,-0.9315 5.99385,0 13.34731,-6.4855 17.1772,-15.1496 1.05109,-2.3778 0.87278,-2.9355 -1.73829,-5.4371 -3.53377,-3.3856 -3.97009,-8.2699 -0.90951,-10.1812 2.85433,-1.7826 2.47173,-4.9643 -0.94242,-7.8371 l -2.94241,-2.4759 1.95815,-3.3188 c 1.07698,-1.8253 2.85106,-4.1269 3.94241,-5.1145 2.41035,-2.1814 2.53636,-4.0775 0.35223,-5.2998 -1.52834,-0.8553 -4.31939,-7.2012 -4.3529,-9.897 -0.0241,-1.9396 4.15937,-5.289 6.60611,-5.289 3.28407,0 4.1058,-3.5973 1.46407,-6.4093 -1.15694,-1.2315 -1.76192,-2.6153 -1.34439,-3.0752 0.41753,-0.4599 0.22774,-0.5317 -0.42175,-0.1595 -1.62016,0.9283 -2.80902,-1.2661 -1.43197,-2.6431 0.61208,-0.6121 1.11287,-1.9463 1.11287,-2.9649 0,-1.5973 4.51174,-4.2324 6.50531,-3.7995 0.86711,0.1883 3.49469,-2.6761 3.49469,-3.8097 0,-0.5522 0.93391,-1.3004 2.07536,-1.6627 1.14145,-0.3623 1.83228,-0.9018 1.53518,-1.1989 -1.06556,-1.0655 1.49955,-4.2772 3.41617,-4.2772 1.07599,0 2.5184,-0.9 3.20536,-2 0.68696,-1.1 1.94065,-2 2.78597,-2 0.84532,0 2.5794,-0.7302 3.85352,-1.6226 3.2527,-2.2783 8.77956,-2.8127 13.38161,-1.2938 3.04622,1.0053 4.33775,1.0285 5.81758,0.1043 1.04616,-0.6533 2.58932,-1.1879 3.42925,-1.1879 0.83993,0 2.30853,-0.3975 3.26357,-0.8833 0.95504,-0.4859 3.08643,-1.438 4.73643,-2.1159 6.07982,-2.4979 5.41158,-1.746 10.22026,-11.5008 5.26313,-10.6767 8.88914,-15.8594 10.4297,-14.9073 0.48546,0.3 0.62377,0.9644 0.30733,1.4764 -0.31643,0.512 -0.0338,0.9309 0.62803,0.9309 1.62523,0 0.63325,12.939 -1.45413,18.9671 -1.1903,3.4374 -1.26844,4.6488 -0.33901,5.2557 2.48783,1.6245 5.1523,0.1658 7.71346,-4.2228 1.44439,-2.475 3.04652,-4.5136 3.56027,-4.5302 1.29056,-0.042 8.65686,-7.3426 10.95785,-10.8606 l 1.89076,-2.8908 0.75079,2.8073 c 1.35244,5.057 -0.23999,11.1509 -4.74309,18.1507 -2.36988,3.6839 -4.07395,7.0781 -3.78683,7.5427 0.28713,0.4645 2.50847,1.7784 4.93632,2.9196 2.42785,1.1412 4.16587,2.4769 3.86226,2.9681 -0.3036,0.4913 -0.12382,0.8932 0.39952,0.8932 0.52334,0 0.98954,2.7 1.03599,6 0.062,4.4074 -0.27329,6 -1.2634,6 -2.1277,0 -0.13816,8.4358 2.94192,12.474 3.07687,4.034 9.84732,9.6113 13.702,11.2874 3.4513,1.5006 3.6161,4.8034 0.5577,11.1729 -2.41124,5.0214 -4.386,6.9855 -7.0724,7.0339 -0.97058,0.017 -2.6541,1.4943 -3.74114,3.2818 -1.08704,1.7875 -2.13627,3.025 -2.33161,2.75 -0.19534,-0.275 -1.09359,0.1128 -1.99612,0.8619 -0.90253,0.749 -2.34506,1.0917 -3.20563,0.7614 -0.89997,-0.3453 -1.30513,-0.1804 -0.95372,0.3881 0.76929,1.2448 0.50127,1.2361 -3.35786,-0.1092 -1.73207,-0.6038 -3.14922,-1.6822 -3.14922,-2.3964 0,-0.7143 -1.6875,-2.7109 -3.75,-4.437 -5.16184,-4.3199 -5.48253,-4.5231 -7.75,-4.9104 -1.1,-0.1879 -2.14157,-0.7251 -2.31461,-1.1938 -0.17303,-0.4688 -0.84803,-0.6672 -1.5,-0.4411 -0.65196,0.2261 -3.43539,-0.6454 -6.18539,-1.9368 -3.54485,-1.6646 -5.22407,-2.0188 -5.76994,-1.2173 -1.21437,1.7832 -0.48547,10.557 1.33638,16.0862 1.3107,3.9779 3.14225,17.9871 3.14352,24.0444 10e-4,5.1935 -1.18886,20.6568 -1.64661,21.3975 -1.67291,2.7068 -1.47022,9.9279 0.42351,15.0884 1.66495,4.537 2.01314,7.9384 2.01314,19.6656 v 14.1798 l 3.90496,3.7004 c 4.22442,4.003 11.4468,8.4683 13.69711,8.4683 0.76886,0 1.39793,0.4008 1.39793,0.8906 0,0.8946 3.64153,1.7299 12,2.7527 2.475,0.3028 4.9275,0.957 5.45,1.4536 0.5225,0.4967 2.70039,0.9031 4.83975,0.9031 3.5092,0 4.54133,0.681 10.54995,6.9605 11.0794,11.5788 12.3305,12.8348 21.5447,21.6268 4.8864,4.6625 8.6148,8.7469 8.2853,9.0763 -0.3295,0.3295 0.06,1.5401 0.8656,2.6903 0.8056,1.1501 1.4647,2.891 1.4647,3.8686 0,1.1108 0.7501,1.7775 2,1.7775 1.3333,0 2,0.6667 2,2 0,1.1 0.45,2 1,2 0.55,0 1,0.5901 1,1.3114 0,0.7213 0.7875,2.2067 1.75,3.301 1.916,2.1782 4.25,6.0062 4.25,6.9705 0,1.1471 -13.6206,-0.9495 -19.6575,-3.0258 -2.5585,-0.8799 -3.3968,-3.4475 -2.6428,-8.0939 0.4588,-2.8276 0.099,-3.772 -2.1628,-5.6775 -3.8788,-3.2677 -7.5708,-6.9585 -11.1331,-11.1295 -3.8601,-4.5197 -7.7699,-5.3027 -8.1975,-1.6417 -0.1615,1.383 0.5135,3.4084 1.5,4.5008 4.3813,4.8517 10.2937,13.5893 10.2937,15.2125 0,0.2746 -1.4625,0.1779 -3.25,-0.2148 -1.7875,-0.3928 -6.7375,-0.9281 -11,-1.1897 -6.72606,-0.4128 -7.75,-0.722 -7.75,-2.3404 0,-1.0257 -0.45,-2.143 -1,-2.4829 -0.55,-0.3399 -1.01001,-1.604 -1.02224,-2.809 -0.0122,-1.2051 -0.90222,-3.316 -1.97776,-4.691 -1.07554,-1.375 -1.96553,-2.8414 -1.97776,-3.2587 -0.0122,-0.4172 -1.25974,-2.1594 -2.77224,-3.8714 -11.19889,-12.6763 -17.03565,-16.8699 -23.48018,-16.8699 -2.4034,0 -4.86219,-0.4924 -5.46398,-1.0942 -0.70759,-0.7075 -3.33967,-0.8646 -7.45,-0.4445 -3.49571,0.3572 -15.9889,0.875 -27.76263,1.1505 -16.10662,0.3769 -22.17265,0.1833 -24.5,-0.782 -1.70127,-0.7056 -3.69518,-1.372 -4.43092,-1.4808 -0.73574,-0.1088 -2.17342,-0.9541 -3.19485,-1.8785 -1.44613,-1.3087 -2.9206,-1.5394 -6.66229,-1.0426 -2.64283,0.351 -7.28015,0.8879 -10.30515,1.1931 -3.025,0.3052 -5.9275,0.9654 -6.45,1.467 -0.5225,0.5016 -3.70995,0.912 -7.08322,0.912 -3.37327,0 -8.59736,0.4949 -11.6091,1.0997 -3.93052,0.7894 -6.57555,0.7961 -9.37248,0.024 -2.81572,-0.7775 -4.08544,-0.7703 -4.57737,0.026 -0.47282,0.765 -9.07623,1.054 -28.16405,0.9458 l -27.48327,-0.1557 -3.17164,3.6123 c -1.7444,1.9868 -3.42521,4.8802 -3.73513,6.4298 -0.84144,4.2072 -5.54361,9.3077 -11.00516,11.9374 -7.99433,3.8493 -14.82481,6.0813 -18.61056,6.0813 -1.44099,0 -2.8981,0.45 -3.23802,1 -0.33992,0.55 -3.60189,1 -7.24882,1 -8.57402,0 -17.60167,1.7019 -23.20737,4.375 -4.72731,2.2543 -17.04381,14.0211 -17.04381,16.2831 0,0.738 -0.3375,1.3442 -0.75,1.3471 -0.4125,0 -2.3008,2.4298 -4.19621,5.3933 -2.13467,3.3375 -3.95797,5.1918 -4.7909,4.8721 -0.73957,-0.2838 -1.27299,-0.1233 -1.18536,0.3567 0.38938,2.1329 -0.19051,3.3727 -1.57753,3.3727 -0.825,0 -1.5,0.45 -1.5,1 0,0.55 -0.4549,1 -1.0109,1 -1.52056,0 -10.43983,4.2879 -10.82243,5.2029 -0.18334,0.4384 -1.16928,0.7971 -2.19099,0.7971 -1.0217,0 -2.13576,0.45 -2.47568,1 -0.33992,0.55 -4.41648,1 -9.05902,1 h -8.44098 v -3 z m -6.48067,-88.8142 c -2.73937,-0.1728 -5.21437,-0.6289 -5.5,-1.0135 -0.45623,-0.6143 -4.96993,-2.8918 -12.97946,-6.549 -3.55778,-1.6245 -9.03987,-6.8555 -9.03987,-8.6258 0,-0.834 -0.9,-2.0785 -2,-2.7654 -1.1,-0.687 -2,-1.8929 -2,-2.6798 0,-0.7869 -3.15633,-4.7745 -7.01406,-8.8613 -8.94553,-9.4766 -15.74084,-12.8468 -27.98594,-13.8798 -11.66973,-0.9844 -17.14296,-1.7692 -19.5,-2.796 -1.1,-0.4792 -3.575,-1.1286 -5.5,-1.4432 -4.19621,-0.6856 -16,-6.1221 -16,-7.369 0,-0.4851 -1.10227,-1.3842 -2.44949,-1.998 -1.60206,-0.73 -2.81037,-2.4563 -3.49264,-4.9901 -1.45996,-5.4219 -5.94001,-10.8982 -9.55787,-11.6833 -1.65,-0.358 -18.525,-0.8482 -37.5,-1.0892 -18.975,-0.2411 -36.07203,-0.8892 -37.9934,-1.4403 -1.92137,-0.5512 -5.82454,-1.0021 -8.67371,-1.0021 -5.26515,0 -13.13421,-1.2976 -19.16712,-3.1607 -2.83943,-0.8769 -3.65563,-0.7286 -5.5,0.9989 -4.37017,4.0933 -6.8439,4.3523 -40.66577,4.2579 -26.95425,-0.075 -33.18255,0.1709 -36.5,1.4425 -2.2,0.8432 -4.78244,1.7932 -5.73875,2.111 -0.95632,0.3178 -1.49226,0.9766 -1.19099,1.4641 0.30128,0.4875 -0.0584,0.8863 -0.79938,0.8863 -1.31215,0 -12.34009,11.5047 -14.20392,14.8179 -0.51317,0.9123 -1.75067,2.5363 -2.75,3.609 -0.99933,1.0726 -1.84859,3.1029 -1.88725,4.5117 -0.12173,4.4366 -1.41374,6.2414 -5.48168,7.6572 -4.93189,1.7165 -18.44803,1.8972 -18.44803,0.2466 0,-1.0368 6.66919,-10.4012 9.68449,-13.5983 3.68406,-3.9062 2.14425,-8.7524 -1.88314,-5.9268 -4.27647,3.0005 -5.80135,4.3996 -5.80135,5.3229 0,1.1367 -6.50363,7.3598 -7.69163,7.3598 -0.47514,0 -1.64268,0.9096 -2.59455,2.0213 -1.30516,1.5243 -1.57445,2.9981 -1.0953,5.9945 0.42009,2.6271 0.1958,4.503 -0.66197,5.5366 -2.07389,2.4988 -7.80439,4.4476 -13.07867,4.4476 -2.68284,0 -4.87788,0.45 -4.87788,1 0,0.55 -0.9,1 -2,1 -1.33333,0 -2,-0.6667 -2,-2 0,-1.1 0.525,-2 1.16667,-2 0.64166,0 0.86882,-0.2979 0.50478,-0.6619 -0.36403,-0.364 0.46097,-2.134 1.83333,-3.9333 1.37237,-1.7992 2.49522,-3.7038 2.49522,-4.2323 0,-0.5286 1.35,-2.4062 3,-4.1725 1.65,-1.7663 3,-3.8685 3,-4.6715 0,-2.7822 2.30717,-5.8641 9.97779,-13.3285 4.23896,-4.125 8.56558,-8.2086 9.61471,-9.0746 1.04912,-0.866 4.1575,-4.1841 6.9075,-7.3736 2.75,-3.1894 5.60945,-6.4331 6.35433,-7.2083 2.25424,-2.3458 8.89047,-5.3428 11.85583,-5.3543 1.53441,-0.01 4.89071,-0.6484 7.45843,-1.4277 2.56773,-0.7793 5.60523,-1.1719 6.75,-0.8725 1.19084,0.3114 2.08141,0.066 2.08141,-0.5724 0,-0.6141 0.60586,-1.1166 1.34636,-1.1166 2.54585,0 14.62972,-6.9362 18.2457,-10.4731 2.58421,-2.5277 3.13247,-5.8082 3.17992,-19.0269 0.0432,-12.0252 0.35212,-14.6985 2.19033,-18.9523 1.8207,-4.2133 1.99051,-5.6311 1.13783,-9.5 -2.58533,-11.7307 -3.34706,-19.216 -2.66564,-26.1947 1.3934,-14.2703 2.40555,-21.4347 4.10393,-29.0495 0.94413,-4.2331 1.44835,-8.3956 1.12047,-9.25 -0.65836,-1.7157 -6.6589,-2.2144 -6.6589,-0.5535 0,0.55 -0.72918,1 -1.62039,1 -0.89122,0 -5.12428,1.6875 -9.4068,3.75 -6.23402,3.0024 -8.03473,4.3805 -9.03194,6.9126 -1.67164,4.2444 -5.07663,6.0522 -8.47938,4.5018 -1.40558,-0.6404 -3.43442,-1.1644 -4.50854,-1.1644 -1.26177,0 -1.95295,-0.6821 -1.95295,-1.9274 0,-2.4552 -4.54803,-6.0726 -7.63486,-6.0726 -1.30083,0 -2.36514,-0.5692 -2.36514,-1.2648 0,-0.6956 -0.85824,-2.8661 -1.90719,-4.8232 -3.3727,-6.2927 -2.79565,-11.9081 1.22458,-11.9166 4.45833,-0.01 15.58812,-12.872 16.40448,-18.9585 0.38049,-2.8367 0.17279,-4.0369 -0.69861,-4.0369 -0.83413,0 -1.02779,-0.8458 -0.59159,-2.5838 0.35667,-1.4211 0.26188,-2.3448 -0.21064,-2.0528 -0.47253,0.292 -0.69117,-0.9078 -0.48587,-2.6662 0.72882,-6.2427 1.30405,-7.6972 3.04411,-7.6972 0.95764,0 2.96229,-1.1323 4.45477,-2.5162 l 2.7136,-2.5162 -2.0909,-3.7338 c -1.15,-2.0536 -2.91843,-4.9005 -3.92985,-6.3264 -1.07418,-1.5144 -2.1226,-5.3613 -2.52101,-9.25 -0.59198,-5.778 -0.4657,-6.6574 0.95603,-6.6574 0.90095,0 1.63809,0.4163 1.63809,0.9252 0,0.5088 3.08534,3.9963 6.8563,7.75 3.77097,3.7536 7.68466,8.2732 8.69709,10.0434 2.10251,3.6763 4.41178,4.94 5.60135,3.0653 1.15367,-1.8182 1.04156,-8.5445 -0.15474,-9.2839 -1.09446,-0.6764 -1.35138,-13.5855 -0.34519,-17.3438 0.61536,-2.2984 0.69249,-2.2707 3.98635,1.4317 1.84736,2.0765 3.35884,4.5037 3.35884,5.3938 0,0.89 0.54421,2.1625 1.20936,2.8277 0.66515,0.6651 2.58086,4.0069 4.25712,7.4262 2.92655,5.9697 3.30593,6.3173 9.54063,8.7423 3.57109,1.3889 6.97018,2.836 7.55355,3.2157 0.58336,0.3797 5.4757,0.6813 10.87187,0.6703 5.70903,-0.012 10.26199,0.4306 10.88934,1.058 0.59297,0.5929 2.01379,1.0781 3.15737,1.0781 1.14358,0 2.72792,0.9 3.52076,2 0.79284,1.1 2.01326,2 2.71206,2 1.55533,0 7.02303,5.59 7.77015,7.9439 0.29867,0.9411 2.78735,2.7253 5.53041,3.965 3.46689,1.5668 4.98738,2.8389 4.98738,4.1726 0,1.0552 0.45,1.9185 1,1.9185 0.55,0 1,0.6053 1,1.345 0,1.7946 -3.46249,4.8592 -4.41448,3.9072 -0.4137,-0.4137 -0.64325,-0.3022 -0.51009,0.2478 0.13315,0.55 -0.11217,1.8127 -0.54514,2.806 -0.93682,2.1491 2.34246,5.694 5.26738,5.694 3.0087,0 4.51389,4.4726 2.98019,8.8554 -0.70144,2.0046 -2.06341,4.2326 -3.0266,4.9513 -2.5941,1.9356 -2.13267,4.5352 1.24874,7.0352 3.25133,2.4038 4.17331,7.3658 1.64598,8.8584 -0.7447,0.4398 -1.86809,1.7796 -2.4964,2.9772 -0.9624,1.8345 -0.74907,2.645 1.35401,5.1444 2.9491,3.5048 3.19748,6.5602 0.68056,8.3714 -4.45638,3.2068 -4.31513,7.2278 0.48878,13.9145 5.29519,7.3705 12.16355,9.8267 29.62793,10.5953 26.24613,1.155 29.39792,1.3729 39.62756,2.7401 10.13398,1.3544 33.47737,1.3426 42.24363,-0.021 2.01964,-0.3142 5.61964,-1.8028 8,-3.3079 8.23808,-5.209 15.04382,-7.9702 27.32795,-11.0877 9.36949,-2.3777 15.41256,-0.4951 16.85473,5.251 1.17584,4.6849 -0.17683,7.3168 -5.04817,9.8222 -2.4943,1.2829 -4.75902,2.9161 -5.0327,3.6293 -0.72004,1.8764 1.34107,3.9442 4.5763,4.5913 1.76257,0.3525 4.57074,2.6275 7.5549,6.1205 2.61227,3.0577 4.46698,5.5595 4.12158,5.5595 -0.34541,0 0.74271,1.4625 2.41805,3.25 1.67533,1.7875 3.04814,4.2359 3.05068,5.4409 0.003,1.2051 0.45463,2.4691 1.00463,2.8091 0.55,0.3399 1,2.4735 1,4.7412 0,2.2678 0.51181,8.1142 1.13735,12.9919 0.78741,6.1399 0.82103,9.5628 0.10927,11.1249 -0.75093,1.6481 -0.64903,3.1579 0.378,5.6005 0.77334,1.8393 1.17764,3.5725 0.89844,3.8517 -0.27921,0.2792 1.40139,2.231 3.73465,4.3374 6.41882,5.7945 14.90531,9.5118 24.75097,10.8414 9.56806,1.2921 8.42567,0.1843 14.19029,13.761 1.69308,3.9875 3.41715,7.25 3.83127,7.25 0.79317,0 2.43198,4.9143 2.10902,6.3243 -0.10385,0.4534 0.24627,0.5554 0.77803,0.2268 0.53177,-0.3287 1.71789,0.9851 2.63583,2.9196 1.50287,3.167 3.45057,5.2023 10.31557,10.7793 1.1848,0.9625 2.49147,1.75 2.90372,1.75 0.41225,0 1.86466,1.35 3.22759,3 2.21004,2.6755 3.07407,2.9983 7.98902,2.9846 3.03104,-0.01 6.16173,-0.427 6.9571,-0.9302 0.8549,-0.5408 2.12814,-0.5499 3.11434,-0.022 2.4932,1.3343 6.93954,11.1485 6.93954,15.3173 v 3.6504 h -6.05718 c -6.21074,0 -14.09308,-1.407 -17.17925,-3.0664 -0.95504,-0.5135 -2.42364,-0.9337 -3.26357,-0.9337 -1.72809,0 -4.18452,-1.3041 -9.74954,-5.176 -4.04493,-2.8142 -6.39956,-5.5383 -8.6761,-10.0372 -0.75511,-1.4923 -4.56825,-5.8018 -8.47364,-9.5768 -6.60763,-6.3869 -10.59068,-9.0704 -18.10072,-12.1951 -1.65,-0.6865 -3.78139,-1.6457 -4.73643,-2.1316 -0.95504,-0.4858 -3.76754,-0.8833 -6.25,-0.8833 -3.79628,0 -4.51357,0.3075 -4.51357,1.9349 0,2.2518 1.79069,7.2878 2.86057,8.0448 0.4045,0.2861 2.03442,2.7703 3.62205,5.5203 1.58763,2.75 3.36602,5.5184 3.95199,6.152 0.58596,0.6337 3.93011,4.1361 7.43143,7.7833 l 6.36604,6.6312 6.88396,-0.1737 c 3.87415,-0.098 6.88396,-0.6173 6.88396,-1.1883 0,-1.8695 4.07567,2.6491 5.63074,6.2427 0.84557,1.9541 1.94956,4.3342 2.45333,5.2892 1.10533,2.0955 1.20703,5.711 0.16593,5.8991 -1.74239,0.3149 -9.10922,0.3418 -13.73067,0.05 z m 747.48067,-2.1551 c -3.5032,-0.3743 -7.0358,-1.5757 -9.7301,-3.3092 -2.3266,-1.4968 -4.6708,-2.7215 -5.2093,-2.7215 -2.8257,0 -10.4618,-5.9774 -13.1136,-10.265 -1.6208,-2.6208 -2.947,-5.2083 -2.947,-5.75 0,-0.5418 -0.4596,-0.985 -1.0214,-0.985 -0.5618,0 -1.5407,-1.1396 -2.1753,-2.5324 -1.2573,-2.7594 -10.5594,-12.4676 -11.9462,-12.4676 -0.4714,0 -0.8571,-0.45 -0.8571,-1 0,-0.55 -0.6429,-1 -1.4286,-1 -0.7857,0 -2.0339,-0.5625 -2.7738,-1.25 -1.6956,-1.5756 -1.1268,-1.4659 -19.2682,-3.7151 -20.7845,-2.577 -35.3502,-7.6649 -40.327,-14.0866 -1.9716,-2.544 -3.6798,-7.5317 -3.3215,-9.6983 0.1137,-0.6875 -0.2016,-1.25 -0.7007,-1.25 -0.4991,0 -2.1449,-1.2375 -3.6572,-2.75 l -2.7498,-2.75 -34.6417,-0.1354 c -21.8733,-0.086 -36.1143,-0.5441 -38.6366,-1.2444 -2.1972,-0.61 -7.2308,-1.1116 -11.1859,-1.1146 -3.955,0 -7.4235,-0.3819 -7.7078,-0.8419 -0.2843,-0.4599 -2.6,-0.915 -5.146,-1.0113 -2.546,-0.096 -5.4604,-0.62 -6.4764,-1.1638 -2.6685,-1.4281 -3.2782,-1.2866 -7.5893,1.7614 l -3.8895,2.75 -36,0.5049 c -24.1722,0.339 -36.8214,0.8856 -38.5,1.6637 -8.4689,3.9254 -23.8702,21.2544 -24.4392,27.4981 -0.034,0.3666 -0.3983,1.0041 -0.8108,1.4166 -0.4125,0.4125 -0.75,1.7428 -0.75,2.9561 0,1.9142 -0.6947,2.29 -5.25,2.8398 -12.2431,1.4776 -17.75,1.8524 -17.75,1.208 0,-1.7626 3.2301,-6.64 5.0384,-7.6077 1.1097,-0.5939 1.7884,-1.4507 1.5083,-1.9039 -0.2801,-0.4532 0.4948,-1.9101 1.722,-3.2375 3.66,-3.9589 4.8949,-7.4575 3.1448,-8.9099 -1.2247,-1.0164 -2.4902,-0.1402 -7.4728,5.1741 -3.2991,3.5187 -6.4354,6.2852 -6.9695,6.1477 -0.5342,-0.1375 -0.8587,0.3125 -0.7212,1 0.1375,0.6875 -0.425,1.25 -1.25,1.25 -2.8524,0 -3.9276,2.2416 -3.8583,8.0435 0.077,6.4755 -0.7125,7.3793 -7.6417,8.7447 -7.1893,1.4165 -14.54579,2.3327 -15.00928,1.8692 -0.64877,-0.6488 4.65739,-10.1574 5.66821,-10.1574 0.46259,0 0.84107,-0.7096 0.84107,-1.5769 0,-0.8673 1.35,-2.9269 3,-4.5769 1.65,-1.65 3,-3.589 3,-4.3088 0,-3.6074 5.9549,-10.4884 19.081,-22.0484 1.8805,-1.6561 5.219,-5.2514 7.419,-7.9897 7.6229,-9.4879 9.1865,-10.4833 19.5,-12.4153 3.575,-0.6697 8.4014,-1.693 10.7254,-2.2739 2.3239,-0.5809 5.1371,-0.8178 6.2514,-0.5264 1.1143,0.2914 1.7962,0.158 1.5154,-0.2963 -0.2808,-0.4544 2.0189,-2.0999 5.1105,-3.6568 6.5093,-3.2779 12.3973,-8.4481 12.3973,-10.8859 0,-1.4653 0.2323,-1.5074 1.75,-0.3171 1.5928,1.2491 1.6244,1.2124 0.3515,-0.4089 -2.8733,-3.6601 -0.057,-35.5665 3.3498,-37.9534 0.6546,-0.4586 0.6729,-0.7407 0.049,-0.7508 -0.55,-0.01 -1.1169,-2.1533 -1.2598,-4.7653 -0.1429,-2.6121 -0.7697,-6.9678 -1.393,-9.6794 -1.0734,-4.6704 -0.6748,-26.4537 0.596,-32.5698 1.4706,-7.0778 2.8748,-12.7403 3.6694,-14.7971 0.4881,-1.2633 0.8874,-3.6258 0.8874,-5.25 0,-2.5583 -0.3674,-2.9509 -2.75,-2.9378 -2.8382,0.015 -9.6878,2.0894 -10.898,3.2996 -0.3769,0.3769 -1.7353,0.6853 -3.0187,0.6853 -1.2833,0 -2.3333,0.3401 -2.3333,0.7559 0,0.4157 -1.3763,1.3651 -3.0584,2.1096 -1.6821,0.7446 -4.2074,3.0901 -5.6117,5.2122 -2.9547,4.4649 -4.8392,5.2926 -9.892,4.3447 -2.9069,-0.5454 -3.9351,-1.3681 -5.0528,-4.0432 -1.1687,-2.797 -2.0705,-3.4652 -5.3942,-3.9966 -2.47,-0.395 -3.9909,-1.1766 -3.9909,-2.0509 0,-0.777 -0.9008,-2.632 -2.0018,-4.1222 -1.1011,-1.4902 -2.1136,-4.507 -2.25,-6.7039 -0.2271,-3.6556 0.045,-4.1414 3.2119,-5.7269 5.0948,-2.551 12.5125,-9.8247 15.0084,-14.717 1.7576,-3.4452 1.9823,-4.7954 1.1514,-6.921 -1.1203,-2.8663 -1.5065,-6.5951 -1.2707,-12.2694 0.1286,-3.095 0.6288,-3.8235 3.4008,-4.9534 2.948,-1.2016 5.6365,-3.5415 5.7182,-4.9767 0.017,-0.3074 -1.5725,-3.2231 -3.5334,-6.4795 -4.1826,-6.9458 -6.0163,-13.0089 -5.0721,-16.7708 0.7701,-3.068 2.3926,-3.5244 3.3456,-0.9409 0.355,0.9625 3.6587,4.675 7.3415,8.25 3.6829,3.575 6.9541,7.2613 7.2694,8.1917 0.3153,0.9305 1.7609,2.4699 3.2124,3.421 2.2469,1.4722 2.7796,1.518 3.5846,0.3082 0.9478,-1.4244 0.7646,-3.9643 -0.8238,-11.4209 -1.0426,-4.8944 -0.464,-15.5 0.8456,-15.5 1.9848,0 6.0435,5.0848 5.3991,6.764 -0.3536,0.9213 -0.3258,1.3581 0.062,0.9707 0.3874,-0.3875 1.2314,0.3013 1.8755,1.5304 0.6441,1.2292 1.6631,3.1349 2.2644,4.2349 0.6013,1.1 1.7978,3.6255 2.6589,5.6122 2.0804,4.8001 2.8557,5.3426 12.6798,8.872 7.5138,2.6995 9.2017,2.9569 15.642,2.3858 5.7797,-0.5126 7.7168,-0.3143 9.7148,0.9949 1.3725,0.8993 3.3031,1.6351 4.2902,1.6351 0.987,0 2.3676,0.9175 3.0679,2.0388 0.7002,1.1213 1.643,1.8103 2.095,1.5309 1.1978,-0.7403 6.7293,4.5416 7.5616,7.2205 0.437,1.4065 2.2288,2.8972 4.6442,3.8637 7.1087,2.8443 10.3216,10.2888 5.407,12.528 -4.0769,1.8576 -3.3457,5.4959 1.4935,7.4322 2.2626,0.9053 3.7134,2.0511 3.3472,2.6436 -0.3554,0.5751 0.1858,1.6541 1.2028,2.3978 1.4349,1.0492 1.5811,1.6199 0.6528,2.5482 -0.658,0.658 -1.1963,1.9858 -1.1963,2.9509 0,0.9649 -1.1352,2.8897 -2.5227,4.2772 -2.1859,2.1859 -2.354,2.7927 -1.2594,4.5454 0.6947,1.1126 1.7174,2.0374 2.2726,2.0554 0.5552,0.018 1.7378,1.5881 2.6278,3.4894 1.5949,3.4067 1.5767,3.5005 -1.25,6.4584 -3.534,3.698 -3.5971,5.3011 -0.3105,7.8864 2.769,2.1781 2.8837,4.5871 0.3521,7.4001 -3.5784,3.9764 -4.3467,6.5436 -2.8289,9.4527 0.7805,1.4958 2.094,3.4779 2.919,4.4047 0.825,0.9269 2.3085,2.853 3.2967,4.2804 0.9882,1.4274 2.6491,2.5953 3.691,2.5953 1.0418,0 2.1724,0.45 2.5123,1 0.3399,0.55 1.9149,1 3.5,1 1.5851,0 3.1601,0.45 3.5,1 0.35,0.5663 5.2547,0.9979 11.309,0.9951 13.081,-0.01 36.059,1.8414 38.4274,3.0897 2.6365,1.3896 41.2453,1.1457 46.1476,-0.2915 2.2638,-0.6636 6.4209,-2.6656 9.2379,-4.4488 2.8171,-1.7831 6.3046,-3.5389 7.75,-3.9017 1.4455,-0.3628 2.6281,-1.0608 2.6281,-1.5512 0,-0.4904 0.7875,-0.8981 1.75,-0.9062 0.9625,-0.01 3.775,-0.7287 6.25,-1.6016 2.475,-0.8728 6.975,-1.9472 10,-2.3873 7.0456,-1.0252 13.6008,1.6979 14.1632,5.8836 0.7311,5.4403 -0.1538,7.0814 -5.1953,9.6362 -4.2907,2.1742 -4.8623,2.8319 -4.6779,5.3829 0.1155,1.5982 0.5563,2.6928 0.9796,2.4323 1.6348,-1.0063 7.4845,1.8334 8.5375,4.1445 0.606,1.33 2.2473,3.1688 3.6474,4.0861 1.4,0.9174 2.5455,2.5162 2.5455,3.5529 0,1.0368 0.4133,1.885 0.9184,1.885 1.4731,0 5.0816,6.5103 5.0816,9.168 0,1.3376 0.4312,2.8632 0.9582,3.3902 0.527,0.527 1.1886,7.7045 1.4703,15.95 0.2817,8.2455 0.8275,16.1168 1.2128,17.4918 1.5573,5.5572 5.7467,9.2369 17.3201,15.2127 2.1225,1.0959 5.643,1.7873 9.1008,1.7873 8.1189,0 11.3112,1.3782 12.8131,5.5318 0.6898,1.9075 1.675,3.4682 2.1894,3.4682 0.5144,0 0.9353,1.1182 0.9353,2.485 0,1.3667 1.35,4.679 3,7.3606 1.65,2.6816 3,5.3883 3,6.015 0,0.6267 0.45,1.1394 1,1.1394 0.55,0 1,0.675 1,1.5 0,0.825 0.3469,1.5 0.7709,1.5 0.424,0 1.8574,1.989 3.1855,4.4201 1.4738,2.6981 3.9279,5.2707 6.2991,6.6033 2.1364,1.2008 5.5063,3.8051 7.4885,5.7873 3.8454,3.8454 5.1909,4.0775 15.3817,2.6539 l 4.6257,-0.6462 3.1669,5.8408 c 2.3522,4.3381 3.0917,6.8668 2.8743,9.8289 -0.2736,3.7289 -0.5257,4.0256 -3.8795,4.566 -6.2509,1.0073 -23.54,-3.2307 -22.1769,-5.4362 0.344,-0.5567 -0.1447,-0.6751 -1.1668,-0.2829 -3.5491,1.3619 -10.2098,-2.8378 -15.0715,-9.503 -9.0306,-12.3804 -12.663,-16.368 -19.0101,-20.8692 -6.6183,-4.6935 -14.8015,-7.9663 -19.8712,-7.9475 -6.6451,0.025 -7.1937,0.9123 -4.2069,6.8066 4.65,9.1762 8.4004,14.3336 15.6255,21.4875 7.4776,7.4038 9.1827,8.0555 16.1963,6.1908 1.5024,-0.3995 3.7524,-0.4619 5,-0.1387 2.6151,0.6774 7.2697,7.0185 6.3016,8.5849 -0.3581,0.5795 -0.195,1.0536 0.3626,1.0536 1.1605,0 2.6668,6.7708 1.7175,7.7201 -0.8644,0.8644 -8.0085,1.0163 -14.6132,0.3106 z"
         style="display:inline;fill:#010101" />
      <path
         inkscape:connector-curvature="0"
         id="path17403-9"
         d="m -710.02058,2887.8805 c 0,-3.3 0.91065,-6 2.02367,-6 1.11302,0 2.02367,-2.2626 2.02367,-5.028 0,-2.7654 2.04897,-8.1544 4.55326,-11.9752 3.83423,-5.8502 5.7328,-6.9512 12.02259,-6.972 4.10813,-0.02 8.03215,0.8752 8.72004,1.9752 2.26333,3.6194 12.83677,2.1264 17.70676,-2.5 2.60525,-2.475 8.10199,-7.0678 12.21496,-10.2064 7.83379,-5.9778 18.05414,-18.7606 25.82018,-32.2936 11.73012,-20.4408 12.443,-23.5816 6.11256,-26.93 -2.64239,-1.3976 -5.64512,-1.4204 -9.23824,-0.07 -2.92789,1.1002 -7.54077,2.0004 -10.25087,2.0004 -2.71008,0 -4.92744,0.9 -4.92744,2 0,1.1 -2.04896,2.02 -4.55326,2.0444 -2.50429,0.024 -6.82989,1.8046 -9.61243,3.9556 -2.78255,2.151 -6.21907,3.931 -7.63669,3.9556 -4.13596,0.072 -27.23663,23.8912 -36.89589,38.0444 -4.8797,7.15 -9.94766,14.0778 -11.26214,15.3948 -4.12213,4.1308 -17.00666,10.6052 -21.10478,10.6052 -2.15833,0 -6.95026,1.6798 -10.64872,3.7328 -10.95095,6.0788 -43.39469,10.4558 -46.04829,6.2124 -2.24761,-3.594 0.1024,-18.1594 3.86485,-23.9538 1.78872,-2.7546 4.27197,-6.8048 5.51831,-9 2.39936,-4.2262 7.24816,-4.5536 27.56881,-1.8622 8.18192,1.0838 9.80351,0.7254 10.98973,-2.429 1.45032,-3.8564 8.34436,-10.7002 10.77898,-10.7002 1.45099,0 7.15232,-4.5158 16.53436,-13.0964 2.97231,-2.7184 6.60956,-7.6338 8.08277,-10.923 1.47323,-3.2894 3.36694,-5.9806 4.20826,-5.9806 0.84132,0 1.52968,-1.35 1.52968,-3 0,-1.65 0.68298,-3.0032 1.51775,-3.0072 0.83476,0 3.79438,-4.9506 6.57693,-10.9928 2.78255,-6.0422 5.74217,-10.989 6.57693,-10.9928 0.83476,0 1.51775,-2.7072 1.51775,-6.0072 0,-3.3 0.711,-6 1.58,-6 0.86901,0 2.61121,-2.7 3.87157,-6 1.26034,-3.3 3.73663,-6 5.50285,-6 1.7662,0 3.21128,-0.9 3.21128,-2 0,-1.1556 6.4083,-2 15.17753,-2 8.76924,0 15.17753,-0.8444 15.17753,-2 0,-1.1 2.27663,-2 5.05918,-2 2.78255,0 5.05918,-0.9 5.05918,-2 0,-1.1 0.92466,-2 2.05479,-2 3.70227,0 24.25293,-14.5036 24.25293,-17.1164 0,-1.4026 0.96032,-2.8666 2.13404,-3.2534 1.2771,-0.4206 2.40319,-9.9244 2.80425,-23.6666 1.60056,-54.842 4.87447,-66.597 23.94201,-85.9636 2.70753,-2.75 5.50651,-6.632 6.21999,-8.6268 0.71347,-1.9946 2.21428,-3.0666 3.33517,-2.382 1.12088,0.6846 2.03796,0.2918 2.03796,-0.8732 0,-1.1648 1.59364,-2.1466 3.54143,-2.1816 5.40241,-0.096 10.62427,-4.8742 10.62427,-9.7196 0,-2.3884 -1.59364,-4.8458 -3.54142,-5.461 -7.67769,-2.425 -13.05299,-5.7668 -14.96979,-9.3064 -2.92022,-5.3926 -3.80515,-11.4494 -1.67282,-11.4494 1.01418,0 1.37148,-1.2168 0.794,-2.7042 -1.41632,-3.6476 7.1657,-8.9158 17.07574,-10.4818 7.11456,-1.1244 20.75463,1.5256 34.69303,6.7404 1.66952,0.6246 5.09582,1.3772 7.614,1.6726 2.51819,0.2954 5.9968,1.939 7.73028,3.652 1.73347,1.7132 5.59239,3.7004 8.57536,4.416 2.98298,0.7156 9.06619,3.8242 13.51827,6.9082 5.16851,3.5802 12.8497,6.403 21.24854,7.8086 16.93704,2.8346 75.99186,1.4082 101.15411,-2.4434 10.55749,-1.616 32.29032,-3.1416 48.29521,-3.3904 16.00487,-0.2486 31.33084,-1.2904 34.05767,-2.315 2.72684,-1.0246 7.08919,-1.863 9.6941,-1.863 12.12958,0 27.01056,-12.971 34.761,-30.2992 2.12706,-4.7556 1.76622,-5.871 -3.51773,-10.8742 -7.15119,-6.7712 -8.03415,-16.5398 -1.84055,-20.3624 5.77623,-3.5652 5.00197,-9.9286 -1.90715,-15.6742 l -5.95447,-4.9518 3.96266,-6.6376 c 2.17945,-3.6506 5.7696,-8.2538 7.97814,-10.229 4.87775,-4.3628 5.13275,-8.155 0.71279,-10.5996 -3.09285,-1.7106 -8.74102,-14.4024 -8.80883,-19.794 -0.0488,-3.8792 8.41719,-10.578 13.36859,-10.578 6.64588,0 8.30879,-7.1946 2.9628,-12.8186 -2.34127,-2.463 -3.56555,-5.2306 -2.72061,-6.1504 0.84495,-0.9198 0.46087,-1.0634 -0.85348,-0.319 -3.27867,1.8566 -5.68453,-2.5322 -2.89784,-5.2862 1.23865,-1.2242 2.25209,-3.8926 2.25209,-5.9298 0,-3.1946 9.13027,-8.4648 13.1646,-7.599 1.75475,0.3766 7.07211,-5.3522 7.07211,-7.6194 0,-1.1044 1.88992,-2.6008 4.19984,-3.3254 2.30992,-0.7246 3.70793,-1.8036 3.1067,-2.3978 -2.15634,-2.131 3.0346,-8.5544 6.91321,-8.5544 2.17745,0 5.09641,-1.8 6.48659,-4 1.39018,-2.2 3.92724,-4 5.63789,-4 1.71065,0 5.21985,-1.4604 7.79825,-3.2452 6.5824,-4.5566 17.76694,-5.6254 27.07998,-2.5876 6.16455,2.0106 8.77818,2.057 11.77287,0.2086 2.11708,-1.3066 5.23993,-2.3758 6.93967,-2.3758 1.69974,0 4.67171,-0.795 6.60439,-1.7666 1.93269,-0.9718 6.24592,-2.876 9.58498,-4.2318 12.303554,-4.9958 10.95126,-3.492 20.682442,-23.0016 10.650843,-21.3534 17.988695,-31.7188 21.106281,-29.8146 0.982411,0.6 1.262305,1.9288 0.621935,2.9528 -0.64035,1.024 -0.0684,1.8618 1.270926,1.8618 3.288931,0 1.28149,25.878 -2.942681,37.9342 -2.408775,6.8748 -2.566905,9.2976 -0.686044,10.5114 5.034549,3.249 10.42656,0.3316 15.609505,-8.4456 2.92297,-4.95 6.165154,-9.0272 7.204815,-9.0604 2.611669,-0.084 17.518636,-14.6852 22.175083,-21.7212 l 3.826276,-5.7816 1.519352,5.6146 c 2.736894,10.114 -0.485661,22.3018 -9.598453,36.3014 -4.795858,7.3678 -8.244335,14.1562 -7.663298,15.0854 0.581056,0.929 5.076318,3.5568 9.989487,5.8392 4.91317,2.2824 8.430351,4.9538 7.815944,5.9362 -0.614387,0.9826 -0.250571,1.7864 0.808497,1.7864 1.059068,0 2.002503,5.4 2.096503,12 0.125467,8.8148 -0.553049,12 -2.556706,12 -4.305765,0 -0.279591,16.8716 5.953478,24.948 6.2265726,8.068 19.9277356,19.2226 27.72834,22.5748 6.984295,3.0012 7.317796,9.6068 1.128601,22.3458 -4.8795565,10.0428 -8.875821,13.971 -14.31221072,14.0678 -1.96413428,0.034 -5.37102488,2.9886 -7.57083618,6.5636 -2.1998111,3.575 -4.3231081,6.05 -4.7184111,5.5 -0.395304,-0.55 -2.213067,0.2256 -4.039491,1.7238 -1.826423,1.498 -4.74563,2.1834 -6.48714,1.5228 -1.821243,-0.6906 -2.641154,-0.3608 -1.930016,0.7762 1.55679,2.4896 1.014406,2.4722 -6.795204,-0.2184 -3.505139,-1.2076 -6.372985,-3.3644 -6.372985,-4.7928 0,-1.4286 -3.414945,-5.4218 -7.588766,-8.874 -10.445866,-8.6398 -11.094837,-9.0462 -15.68345,-9.8208 -2.226038,-0.3758 -4.333833,-1.4502 -4.684009,-2.3876 -0.350156,-0.9376 -1.716134,-1.3344 -3.035507,-0.8822 -1.319352,0.4522 -6.952099,-1.2908 -12.517194,-3.8736 -7.17361,-3.3292 -10.571799,-4.0376 -11.67646,-2.4346 -2.457486,3.5664 -0.982432,21.114 2.704393,32.1724 2.652426,7.9558 6.35888,35.9742 6.36145,48.0888 0.002,10.387 -2.405861,41.3136 -3.332196,42.795 -3.38542,5.4136 -2.975242,19.8558 0.857044,30.1768 3.369311,9.074 4.073933,15.8768 4.073933,39.3312 v 28.3596 l 7.902355,7.4008 c 8.548836,8.006 23.164557,16.9366 27.718444,16.9366 1.55592,0 2.82895,0.8016 2.82895,1.7812 0,1.7892 7.369259,3.4598 24.284052,5.5054 5.008586,0.6056 9.9716392,1.914 11.0290073,2.9072 1.0573681,0.9934 5.4647009,1.8062 9.79406136,1.8062 7.10146624,0 9.19015734,1.362 21.34962734,13.921 22.421061,23.1576 24.952876,25.6696 43.599385,43.2536 9.888466,9.325 17.433521,17.4938 16.766721,18.1526 -0.6668,0.659 0.12142,3.0802 1.75169,5.3806 1.630269,2.3002 2.96407,5.782 2.96407,7.7372 0,2.2216 1.517956,3.555 4.047342,3.555 2.698161,0 4.047342,1.3334 4.047342,4 0,2.2 0.910652,4 2.023671,4 1.113019,0 2.023671,1.1802 2.023671,2.6228 0,1.4426 1.593644,4.4134 3.541424,6.602 3.87735,4.3564 8.6006,12.0124 8.6006,13.941 0,2.2942 -27.563611,-1.899 -39.78031,-6.0516 -5.177562,-1.7598 -6.874006,-6.895 -5.348158,-16.1878 0.92846,-5.6552 0.200344,-7.544 -4.376795,-11.355 -7.849415,-6.5354 -15.320809,-13.917 -22.529732,-22.259 -7.811572,-9.0394 -15.723721,-10.6054 -16.589043,-3.2834 -0.326823,2.766 1.039155,6.8168 3.035507,9.0016 8.866309,9.7034 20.831062,27.1786 20.831062,30.425 0,0.5492 -2.959619,0.3558 -6.576931,-0.4296 -3.617312,-0.7856 -13.634483,-1.8562 -22.260381,-2.3794 -13.6113323,-0.8256 -15.68345,-1.444 -15.68345,-4.6808 0,-2.0514 -0.910652,-4.286 -2.02367101,-4.9658 -1.11301874,-0.6798 -2.04392759,-3.208 -2.06867709,-5.618 -0.024689,-2.4102 -1.8257965,-6.632 -4.0023356,-9.382 -2.1765391,-2.75 -3.977586,-5.6828 -4.0023355,-6.5174 -0.024689,-0.8344 -2.5492988,-4.3188 -5.6101018,-7.7428 -22.662869,-25.3526 -34.474551,-33.7398 -47.516159,-33.7398 -4.863691,0 -9.839473,-0.9848 -11.057298,-2.1884 -1.431929,-1.415 -6.758393,-1.7292 -15.076349,-0.889 -7.074167,0.7144 -32.356272,1.75 -56.182432,2.301 -32.5945,0.7538 -44.87015,0.3666 -49.57994,-1.564 -3.44281,-1.4112 -7.47782,-2.744 -8.96672,-2.9616 -1.4889,-0.2176 -4.39829,-1.9082 -6.46533,-3.757 -2.92649,-2.6174 -5.91033,-3.0788 -13.48228,-2.0852 -5.34822,0.702 -14.73263,1.7758 -20.85423,2.3862 -6.12161,0.6104 -11.99531,1.9308 -13.05268,2.934 -1.05737,1.0032 -7.50772,1.824 -14.33411,1.824 -6.82638,0 -17.39822,0.9898 -23.493,2.1994 -7.95407,1.5788 -13.30674,1.5922 -18.96681,0.048 -5.69809,-1.555 -8.26759,-1.5406 -9.26309,0.052 -0.95683,1.53 -18.36731,2.108 -56.99477,1.8916 l -55.6171,-0.3114 -6.41835,7.2246 c -3.5301,3.9736 -6.9315,9.7604 -7.55868,12.8596 -1.7028,8.4144 -11.21844,18.6154 -22.27082,23.8748 -16.1779,7.6986 -30.00054,12.1626 -37.66165,12.1626 -2.91609,0 -5.8648,0.9 -6.55269,2 -0.68789,1.1 -7.28904,2 -14.66923,2 -17.35099,0 -35.61999,3.4038 -46.96408,8.75 -9.56652,4.5086 -34.49106,28.0422 -34.49106,32.5662 0,1.476 -0.68299,2.6884 -1.51775,2.6942 -0.83477,0 -4.65607,4.8596 -8.49175,10.7866 -4.31987,6.675 -8.00963,10.3836 -9.69521,9.7442 -1.49664,-0.5676 -2.57611,-0.2466 -2.39878,0.7134 0.78798,4.2658 -0.38553,6.7454 -3.1924,6.7454 -1.66953,0 -3.03551,0.9 -3.03551,2 0,1.1 -0.92056,2 -2.04572,2 -3.07712,0 -21.12679,8.5758 -21.90104,10.4058 -0.37102,0.8768 -2.36624,1.5942 -4.43384,1.5942 -2.06759,0 -4.32208,0.9 -5.00997,2 -0.68788,1.1 -8.9375,2 -18.33247,2 h -17.08177 v -6 z"
         style="display:inline;fill:#010101;stroke-width:2.0118"
         sodipodi:nodetypes="sssscsssssssscssscsssssssssssscscssssssssssscssssscsssssssssssssssssssscscssssscsssssssssscssssssssssscscssssssssssccsssccssssssssssssscssssssssssssssssssssssssssssssscssssssssssssccscsssssssscssssssssssccs" />
    </g>
  </g>
</svg>
