<?xml version="1.0"?>
<svg xmlns:rdf="http://www.w3.org/1999/02/22-rdf-syntax-ns#" xmlns="http://www.w3.org/2000/svg" xmlns:cc="http://creativecommons.org/ns#" xmlns:xlink="http://www.w3.org/1999/xlink" xmlns:dc="http://purl.org/dc/elements/1.1/" xmlns:svg="http://www.w3.org/2000/svg" id="svg2" viewBox="0 0 329.97 197.45" version="1.1">
  <title id="title4430">roller coaster</title>
  <defs id="defs4">
    <linearGradient id="linearGradient4408">
      <stop id="stop4410" stop-color="#39312d" offset="0"/>
      <stop id="stop4412" stop-color="#ae9a93" offset="1"/>
    </linearGradient>
    <linearGradient id="linearGradient4394">
      <stop id="stop4396" stop-color="#a48b75" offset="0"/>
      <stop id="stop4398" stop-color="#3f382b" offset="1"/>
    </linearGradient>
    <linearGradient id="linearGradient4390" x1="187.96" xlink:href="#linearGradient4394" gradientUnits="userSpaceOnUse" x2="324.26" y1="214" y2="216.61"/>
    <linearGradient id="linearGradient4392" x1="323.65" xlink:href="#linearGradient4394" gradientUnits="userSpaceOnUse" x2="167.42" y1="210.43" y2="209.56"/>
    <linearGradient id="linearGradient4406" x1="361.43" xlink:href="#linearGradient4408" gradientUnits="userSpaceOnUse" x2="118.57" y1="200.22" y2="196.65"/>
    <linearGradient id="linearGradient4414" x1="151.43" xlink:href="#linearGradient4408" gradientUnits="userSpaceOnUse" x2="346.43" y1="169.15" y2="171.29"/>
    <linearGradient id="linearGradient4428" x1="283.63" gradientUnits="userSpaceOnUse" y1="81.43" gradientTransform="translate(3.0221 -.22554)" x2="301.92" y2="197.57">
      <stop id="stop4424" stop-color="#aef" offset="0"/>
      <stop id="stop4426" stop-color="#87cdde" offset="1"/>
    </linearGradient>
  </defs>
  <g id="layer2" transform="translate(-85.905 -74.917)">
    <rect id="rect4200" ry="11.833" rx="11.833" transform="rotate(4.2682)" height="155.5" width="316.97" stroke="#d5f6ff" y="68.518" x="104.02" stroke-width="4" fill="url(#linearGradient4428)"/>
    <path id="path4202" transform="matrix(1 0 0 .81453 7.8571 48.188)" fill="#666" d="m395 264.33c0 6.016-67.877 10.893-151.61 10.893-83.73 0-151.61-4.8769-151.61-10.893 0-6.016 67.877-10.893 151.61-10.893 83.73 0 151.61 4.8769 151.61 10.893z"/>
    <path id="path4382" d="m178.44 115.22c-2.4946 0.0877-4.9672 0.64908-7.3125 1.5-6.021 2.1845-11.451 6.2911-16.25 10.25a0.80233 0.80233 0 0 0 -1.2188 -0.3125c-1.53 1.2595-3.0486 2.5991-4.5625 3.9688-0.66011 0.59717-1.3307 1.215-1.9688 1.8125a0.80233 0.80233 0 0 0 -0.21875 0.78125c0.0243 0.10071 0.038 0.20902 0.0625 0.3125-6.6116 5.5383-13.426 13.478-19.688 21.875-0.36944 0.0409-0.73343 0.0859-1.0938 0.125a0.80233 0.80233 0 0 0 -0.53125 0.3125c-1.7681 2.1642-3.4951 4.2867-5.125 6.375 0.1105-0.14105 0.082-0.12195-0.0625 0.0625a0.80233 0.80233 0 0 0 -0.0625 0.0625c-0.23177 0.3582-0.60387 0.98614-0.96875 1.5625a0.80233 0.80233 0 0 0 -0.0937 0.5625c0.0912 0.60197 0.18993 1.2048 0.28125 1.8125-0.38964 0.58855-0.81028 1.1715-1.1875 1.75-4.0083 6.1469-7.3778 11.985-9.9375 16.844-0.002 0.004-0.0291-0.004-0.0312 0a0.80233 0.80233 0 0 0 -0.25 0l-3.0312 0.5a0.80233 0.80233 0 0 0 -0.65625 1c0.39285 1.4352 0.77142 2.856 1.125 4.2812-0.21559 0.46564-0.47067 0.95487-0.65625 1.4062-0.68582 1.6681-1.154 2.9935-1.3125 4.3438-0.002 0.0205-0.029 0.042-0.0312 0.0625h0.0312c-0.009 0.0585-0.029 0.13374-0.0312 0.15625-0.003 0.0269-0.0288 0.13448-0.0312 0.1875-0.00067 0.0103 0.00062 0.021 0 0.0312-0.15895 2.6523 1.5549 5.3066 4.4375 6.6875 0.0959 0.046 0.20667 0.10672 0.3125 0.15625 0.43888 2.5597 0.84883 5.0998 1.1875 7.625-0.65533 0.007-1.3099 0.0223-1.9688 0.0312a0.80233 0.80233 0 0 0 -0.78125 0.96875l1 4.5625a0.80233 0.80233 0 0 0 0.78125 0.65625c0.54732-0.01 1.1024-0.0248 1.6562-0.0312 1.5947 15.562 1.399 30.627 0.5625 45.312a0.80233 0.80233 0 0 0 0.6875 0.8125l4.2812 0.59375a0.80233 0.80233 0 0 0 0.9375 -0.71875c0.20861-2.315 0.37879-4.7724 0.5-7.2812l6.3125-13 10.312 21.469c0.0678 0.58211 0.15639 1.2292 0.21875 1.7812a0.80233 0.80233 0 0 0 0.71875 0.6875l5.5312 0.75a0.80233 0.80233 0 0 0 0.875 -0.9375c-0.40071-2.0907-0.77171-4.1693-1.1562-6.25h4.6875a0.80233 0.80233 0 0 0 0.78125 -0.9375c-0.26386-1.4926-0.51678-2.9993-0.78125-4.5l7.375-9.8438 15.344 18.25c0.14586 1.2614 0.29105 2.521 0.4375 3.7812a0.80233 0.80233 0 0 0 0.8125 0.71875h7.5938a0.80233 0.80233 0 0 0 0.78125 -0.96875c-0.38879-2.0235-0.76908-4.1273-1.1562-6.2188 0.73885 0.0397 1.5032 0.0772 2.1562 0.0625 0.48268-0.0108 0.92978-0.0219 1.3125-0.0937 0.38272-0.0719 0.74859-0.0982 1.0938-0.625 0.19818-0.30222 0.14986-0.34377 0.15625-0.40625 0.006-0.0625-0.00038-0.10789 0-0.15625 0.00076-0.0967 0.007-0.18443 0-0.3125-0.0133-0.25614-0.0569-0.59839-0.0937-1.0312-0.0678-0.79724-0.15129-1.9709-0.28125-3.2812l6.125-9.0312 11.969 15.719c0.0302 1.8446 0.0558 3.7025 0.0937 5.5625a0.80233 0.80233 0 0 0 0.8125 0.78125h9.5938a0.80233 0.80233 0 0 0 0.8125 -0.90625c-0.23099-2.1553-0.43672-4.3619-0.65625-6.5625h2.125a0.80233 0.80233 0 0 0 0.8125 -0.875l-0.25-4.3438 9.1875-11.406 14.062 18.844c-0.11181 1.4454-0.23211 2.8882-0.375 4.3438a0.80233 0.80233 0 0 0 0.8125 0.90625h7.5625a0.80233 0.80233 0 0 0 0.8125 -0.90625c-0.24963-2.1652-0.45697-4.3545-0.65625-6.5625h2.375a0.80233 0.80233 0 0 0 0.8125 -0.8125c-0.004-1.2538-0.0252-2.5335-0.0312-3.7812l10.625-17.219c3.3101 4.218 6.6069 8.5103 9.8438 12.781-0.11051 2.7293-0.23225 5.458-0.34375 8.1875a0.80233 0.80233 0 0 0 0.8125 0.84375h6.3125a0.80233 0.80233 0 0 0 0.0937 0c0.58285 0.75514 1.1678 1.5039 1.75 2.25-0.12155 1.4825-0.23562 2.92-0.375 4.3125a0.80233 0.80233 0 0 0 0.8125 0.90625h6.8125a0.80233 0.80233 0 0 0 0.8125 -0.8125c-0.1153-9.3645-0.23969-15.9-0.34375-21.219l10.562-12.188 11.375 16.062c-0.16367 3.1942-0.34714 6.3285-0.5 9.5938a0.80233 0.80233 0 0 0 0.78125 0.84375l6.8125 0.25a0.80233 0.80233 0 0 0 0.44 -0.08l0.8125 1.1562c-0.14864 1.9034-0.29602 3.7485-0.46875 5.5a0.80233 0.80233 0 0 0 0.8125 0.90625h7.8125a0.80233 0.80233 0 0 0 0.8125 -0.8125c0.0882-8.2738 0.0695-15.999 0.0625-23.812l8.2812-9.375 9.3438 13.625c-0.29087 4.0489-0.57278 8.1592-0.875 12.031a0.80233 0.80233 0 0 0 0.71875 0.875l7.5938 0.75a0.80233 0.80233 0 0 0 0.90625 -0.8125c-0.004-0.23895 0.003-0.48028 0-0.71875l0.4375 0.65625c-0.0438 2.2711-0.0575 4.5534-0.0625 6.7812a0.80233 0.80233 0 0 0 0.875 0.8125l6.5938-0.5a0.80233 0.80233 0 0 0 0.75 -0.78125c0.21912-5.6447 0.33418-15.998 0.625-28.969l3.3125-5.3438 3.4375 9.2812c-0.31082 6.7546-0.61628 13.488-0.9375 20.25a0.80233 0.80233 0 0 0 0.8125 0.84375h5.0625a0.80233 0.80233 0 0 0 0.8125 -0.78125c0.0646-1.4156 0.10626-2.8128 0.15625-4.2188l1 2.6562c-0.0889 1.9737-0.17763 3.9601-0.25 5.9688a0.80233 0.80233 0 0 0 0.9375 0.8125l5.0625-0.75a0.80233 0.80233 0 0 0 0.6875 -0.78125c0.16198-15.554 0.83548-31.187 1.9688-47.594 0.14539 0.004 0.29267-0.004 0.4375 0a0.80233 0.80233 0 0 0 0.86 -0.79l0.25-6.3125a0.80233 0.80233 0 0 0 -0.8125 -0.84375c-0.0434-0.00038-0.082 0.00014-0.125 0 0.84626-10.971 1.8929-22.345 3.1562-34.312 0.87102-0.96187 1.6558-2.1953 1.625-3.75-0.006-0.23566-0.0338-0.30852-0.0312-0.25-0.051-1.159-0.35275-2.3913-0.78125-3.625 0.002-0.0208-0.002-0.0417 0-0.0625 0.16906-1.5349 0.32508-3.0164 0.5-4.5625a0.80233 0.80233 0 0 0 -0.875 -0.90625l-2.9688 0.1875c-0.46286-0.48392-0.94739-0.97667-1.5312-1.4375-3.6243-2.8606-9.1216-4.7424-16.75-4.875 0.0606-0.477 0.13183-0.94813 0.1875-1.4375a0.80233 0.80233 0 0 0 -0.96875 -0.875c-1.6684 0.35042-3.399 1.0056-5.2188 1.875a0.80233 0.80233 0 0 0 -0.46875 0.65625c-0.0247 0.39068-0.0403 0.77401-0.0625 1.1562-0.42511 0.2218-0.8307 0.45042-1.2812 0.71875-2.0407 1.2153-4.2524 2.8574-6.6875 4.875-2.5968 2.1516-5.4928 4.8323-8.4688 7.6875-3.262-3.1305-7.1028-7.0562-10.812-11.188-0.64533-0.71866-1.2753-1.4399-1.9062-2.1562 1.548 0.19008 3.0954 0.36567 4.625 0.59375a0.80233 0.80233 0 0 0 0.875 -1.0625l-1.7812-4.8125a0.80233 0.80233 0 0 0 -0.68 -0.55c-2.8988-0.27895-5.7541-0.49877-8.625-0.71875-2.1632-2.5869-4.1199-5.0154-5.5938-6.9375 0.17822-3.3089 0.34697-6.5884 0.5625-9.9062a0.80233 0.80233 0 0 0 -0.22 -0.6l-4.2812-4.7812a0.80233 0.80233 0 0 0 -1.4062 0.53125c-0.0404 2.5231-0.10411 4.9544-0.15625 7.4062-6.2498-7.9741-12.793-12.761-19.625-14.031-2.0056-0.37284-4.0315-0.46384-6-0.25-2.1887 0.23776-4.3164 0.91134-6.4062 1.8125 0.14881-1.5688 0.29685-3.1175 0.46875-4.6875a0.80233 0.80233 0 0 0 -0.96875 -0.875l-5.0312 1a0.80233 0.80233 0 0 0 -0.65625 0.75c-0.10254 2.5634-0.21092 5.1269-0.3125 7.6875-1.2279 0.95366-2.4182 1.9807-3.5938 3.1562l-0.0625 0.0625c-3.1483 3.1537-8.9649 9.7831-15.625 17.125-2.4939-0.0688-5.0043-0.1344-7.5-0.21875a0.80233 0.80233 0 0 0 -1.2188 -0.0625 0.80233 0.80233 0 0 0 -0.625 0.375l-0.71875 1.1562-2.4688 2.8125a0.80233 0.80233 0 0 0 -0.21875 0.5625c0.12611 2.8784 0.25129 5.7688 0.34375 8.6562-4.2208 4.3835-8.4076 8.5548-12.156 11.906-1.4733 1.3171-2.8552 2.4339-4.1875 3.4688-3.0591-6.3379-6.2081-12.931-9.4375-19.562 0.78162 0.006 1.5642 0.0232 2.3438 0.0312a0.80233 0.80233 0 0 0 0.71875 -1.1562c-0.7917-1.6842-1.5784-3.3794-2.4062-5.0625a0.80233 0.80233 0 0 0 -0.6875 -0.46875c-1.1028-0.0581-2.188-0.0805-3.2812-0.125-2.6584-5.3487-5.3421-10.61-8.0625-15.625 0.002-1.5456 0.0218-3.1448 0.0312-4.7188a0.80233 0.80233 0 0 0 -0.15625 -0.4375c-1.9552-2.8576-3.9504-5.4544-5.9688-7.7188a0.80233 0.80233 0 0 0 -1.4062 0.59375c0.009 0.13626 0.0214 0.27005 0.0312 0.40625-2.9167-3.5272-6.052-5.9905-9.375-7.3125-2.4945-0.99242-5.0063-1.3689-7.5-1.2812zm0.15625 5.5938c1.7927-0.0647 3.5618 0.20975 5.3125 0.90625 3.4947 1.3903 7.1744 4.5952 10.812 10.969 0.42391 0.74266 0.85076 1.5043 1.2812 2.2812 0.25604 4.5469 0.46765 9.0508 0.65625 13.531l-38.35-17.09c4.7065-3.849 9.8146-7.6469 14.75-9.4375 1.9095-0.6928 3.7386-1.0916 5.5312-1.1562zm107.59 7.6562c1.0891-0.036 2.1644 0.0423 3.2812 0.25 2.7558 0.51229 5.7078 1.9987 8.7188 4.2812l-21.781 13.625c0.30286-5.0401 0.64986-10.111 1.0938-15.219 2.9044-1.8141 5.7812-2.8416 8.6875-2.9375zm-14.875 8c-0.17144 4.3226-0.32838 8.6471-0.5 12.969-3.7083-0.0819-7.416-0.16112-11.125-0.25 4.9504-5.4856 9.2399-10.284 11.625-12.719zm-115.09 0.0937 32.688 14.5c-10.191 0.19186-20.455 0.71839-30.438 1.4688-0.74266-5.2528-1.5074-10.562-2.25-15.969zm146.66 0.65625c1.934 2.0738 3.912 4.487 5.875 7.4062 0.33974 0.50525 0.76736 1.1014 1.2188 1.7188-0.0419 1.4953-0.10622 2.96-0.15625 4.4375-9.2236-0.5164-18.347-0.7988-27.469-1.0312l20.52-12.53zm-154.39 2.53c1.0544 4.4505 2.0638 8.891 3 13.344-5.6544 0.47714-11.145 0.99213-16.469 1.5312 4.471-5.6755 9.074-10.863 13.469-14.875zm54.344 8.1562c0.53886 1.0489 1.0597 2.0955 1.5938 3.1562-0.51676-0.0144-1.0428-0.0198-1.5625-0.0312-0.0108-1.0334-0.0222-2.0845-0.0312-3.125zm42.281 6.6562c0.67837 0.0245 1.3538 0.0409 2.0312 0.0625-0.65932 0.71256-1.3326 1.4105-2 2.125-0.0129-0.7256-0.0174-1.463-0.0312-2.1875zm9.4688 0.25c4.4236 0.10465 8.8812 0.18272 13.312 0.25l-22.09 43.18c-0.13545-11.175-0.29842-22.338-0.5-33.469 0.57976-0.60543 1.1678-1.1955 1.75-1.8125 2.5619-2.7151 5.0874-5.4819 7.5312-8.1562zm21.312 0.40625c10.688 0.1641 21.31 0.39559 31.875 1.0625l-32.84 43.59c0.0791-14.768 0.26339-29.588 0.96875-44.656zm39.125 1.5938c1.197 0.0969 2.3756 0.19954 3.5625 0.3125 1.9074 2.2377 3.9206 4.4968 6 6.8125 3.7668 4.1948 7.4812 8.1676 10.875 11.438-1.3008 1.301-2.6039 2.6258-3.9375 4-2.5251 2.6021-5.1351 5.3809-7.7188 8.1562 0.077-1.1329 0.14419-2.2382 0.21875-3.375a0.80233 0.80233 0 0 0 -1.375 -0.625c-2.1998 2.2454-4.4041 4.4722-6.5312 6.7188a0.80233 0.80233 0 0 0 -0.21875 0.53125c-0.0484 1.8606-0.10756 3.6868-0.15625 5.5625-0.62833 0.69666-1.2323 1.3793-1.8438 2.0625 0.23011-13.82 0.53593-27.665 1.125-41.594zm-112.06 1.2188c1.6363-0.003 3.274-0.006 4.9062 0 3.7487 7.684 7.4255 15.453 11 22.875-0.70364 0.39307-1.4507 0.80439-1.875 0.9375-2.6469 0.83044-5.9764 0.81573-9.5312 0.3125l-0.34375-5.875a0.80233 0.80233 0 0 0 -0.81 -0.78h-2.9688c-0.17007-5.6893-0.28237-11.461-0.375-17.469zm-8.0625 0.0312c0.70946-0.007 1.4339-0.001 2.1562 0 0.24567 7.3122 0.40629 14.527 0.53125 21.719-6.6631-2.1633-12.979-5.0302-17.625-6.2188-3.288-0.84113-6.0262-1.3964-8.5312-1.7812l-1.9688-2.5938c-0.0979-0.48898-0.19694-0.9419-0.28125-1.2812-0.0483-0.19424-0.10393-0.35037-0.15625-0.5-0.0262-0.0748-0.05-0.16466-0.0937-0.25-0.0437-0.0853-0.0608-0.17594-0.3125-0.34375a0.80233 0.80233 0 0 0 -0.34375 -0.15625l-0.84375-0.0937-5.75-7.5c11.07-0.54963 22.147-0.90148 33.219-1zm-42.094 1.4688c0.94375 4.747 1.8522 9.4719 2.6875 14.219-2.0412 1.0161-4.0876 2.2445-6.375 3.8125-2.1622 1.4822-4.3537 3.2399-6.5625 5.0625l-14.5-18.719c0.60756-0.86349 1.2218-1.735 1.8438-2.5938 7.6262-0.73547 15.278-1.3092 22.906-1.7812zm117.47 2.71c-0.57168 14.322-1.1458 28.646-1.7188 42.969-6.6775 0.0312-13.393 0.0809-20.156 0.15625l21.875-43.125zm92.531 0.125c6.4752 0.17379 10.607 1.7366 13 3.625 1.5288 1.2067 2.4158 2.5416 2.9375 3.8125-0.0883 1.0563-0.16002 2.1078-0.25 3.1562-0.50975 0.38834-1.1676 0.82102-2.0938 1.2812-0.2962 0.14719-0.68986 0.29191-1.0312 0.4375 0.29066-2.1106 0.60343-4.209 0.9375-6.3438a0.80233 0.80233 0 0 0 -1.1875 -0.8125l-4.0625 2.2812a0.80233 0.80233 0 0 0 -0.375 0.5625c-0.34114 2.0996-0.63564 4.1784-0.9375 6.25-0.64799 0.17833-1.3244 0.33828-2 0.5l-4.9375-14.75zm-53.469 2.125c-0.53916 14.259-1.2171 27.734-1.9375 40.812-9.0812-0.0926-18.523-0.13691-28.219-0.125l30.16-40.69zm46.188 0.625c-0.32136 4.5071-0.67228 8.9902-1.0312 13.438-0.76944-0.0203-1.5037-0.0629-2.2188-0.125 0.2593-2.2193 0.50394-4.4425 0.78125-6.5938a0.80233 0.80233 0 0 0 -0.75 -0.90625l-3.7188-0.1875c0.96721-0.85777 2.076-1.9478 2.9688-2.6875 1.4845-1.23 2.7358-2.0771 3.9688-2.9375zm-195.28 0.0312 2.5938 3.375c0.13864 0.93148 0.27144 1.873 0.40625 2.8125-0.31326 0.0343-0.63368 0.081-0.9375 0.125-0.38147 0.0552-0.72806 0.14212-1.0938 0.21875-0.32092-2.1777-0.64866-4.3535-0.96875-6.5312zm-33.781 4.7812 12.312 15.875c-0.835 0.7182-1.6755 1.4115-2.5 2.125-0.0337-1.0144-0.0624-2.0302-0.0937-3.0625a0.80233 0.80233 0 0 0 -1.2188 -0.65625l-5.8125 3.5312a0.80233 0.80233 0 0 0 -0.375 0.8125c0.2877 1.6594 0.55202 3.3336 0.8125 5-0.0844 0.0655-0.16624 0.12306-0.25 0.1875-1.0233-7.769-1.9712-15.716-2.875-23.812zm234.53 1.63 2.28 6.44c-0.95458 0.13696-1.9145 0.25752-2.875 0.34375 0.1855-2.2425 0.3823-4.5175 0.59375-6.7812zm-14.719 1.3125c-0.1718 1.2518-0.33481 2.5487-0.5 3.9062-0.50623-0.31874-1.2944-0.95585-2.0625-1.5938 0.91158-0.8699 1.6874-1.5052 2.5625-2.3125zm-106.12 1.1562c0.17003 10.349 0.1403 20.699-0.0625 31.062-0.92285-1.0521-1.8394-2.1053-2.7812-3.25-0.3417-0.4153-0.76701-1.0665-1.1875-1.8125a0.80233 0.80233 0 0 0 -1.2812 -0.125c-1.9938-3.6616-4.0236-7.4945-6.1562-11.781l11.469-14.094zm-119.22 0.72c1.1557 7.4397 2.2995 14.931 3.4375 22.438-1.9438 1.1734-3.6674 1.9257-4.6875 2.0312-0.11476 0.0119-0.2283 0.0222-0.34375 0.0312l-7.5312-8.5625c0.39412-0.81333 0.80139-1.6417 1.2812-2.5625 1.9668-3.7742 4.8045-8.5261 7.8438-13.375zm55.688 3.7812c0.65657 0.15908 1.2518 0.28534 1.9688 0.46875 3.7569 0.96105 10.595 3.9708 17.875 6.2812 0.13635 0.0433 0.2711 0.084 0.40625 0.125l-9.0312 7.7812-11.219-14.656zm163 0.5625c0.59521 0.49771 1.1649 0.93051 1.7188 1.3438l-11.35 9.66-0.56-0.4c2.0436-2.1809 4.0673-4.3502 6.0625-6.4062 1.4022-1.445 2.7706-2.8373 4.125-4.1875zm-168.59 0.15625 13.062 17.156-9.7188 8.375c-1.223-9.8306-2.3708-18.706-3.3438-25.531zm-14.562 0.3125c0.17249 1.0018 0.36623 2.0025 0.53125 3l-7.6 8.94-3.41-4.38c2.183-1.8342 4.3223-3.6045 6.3125-4.9688 1.5992-1.0962 2.8767-1.8632 4.1562-2.5938zm221.44 0.0937c-0.66297 7.2656-1.3603 14.448-2.0625 21.625l-2.5625-7.5625c0.36855-4.2158 0.76858-8.4682 1.2812-12.75 1.1936-0.40486 2.2876-0.843 3.3438-1.3125zm-213.25 2.4062c1.0665 8.4026 1.9857 16.926 2.7812 25.375-0.25981 0.0149-0.52484 0.048-0.78125 0.0625-1.2117-7.6046-2.4169-15.466-3.625-23.5l1.625-1.9375zm200.38 1.3438-5.5 6.9375c0.14491-2.0696 0.27872-4.1476 0.4375-6.25 1.69-0.15983 3.3887-0.39666 5.0625-0.6875zm-13.375 0.75c0.7784 0.0759 1.571 0.13242 2.375 0.15625-0.40679 4.9001-0.80322 9.7356-1.2188 14.562l-2.75 3.4688c0.46807-6.2353 0.97029-12.34 1.5938-18.188zm-130.31 1.8125c0.15071 0.3116 0.28662 0.62711 0.4375 0.9375l-13.15 15.6-0.85-14.66c3.7234 0.43593 7.4505 0.39672 10.906-0.6875 0.85585-0.26852 1.7399-0.71565 2.625-1.1875zm123.38 0.34375c-0.42244 4.2883-0.8302 8.8829-1.2188 13.688l-8.4375-6.2188 9.6562-7.4688zm22.375 2.5625 0.78125 2.1562c-0.60359 5.4185-1.1323 10.764-1.5625 16.062-2.4139-0.15796-5.0197-0.33486-7.7188-0.46875 0.1204-2.5533 0.25843-5.1273 0.40625-7.75l8.0938-10zm-209 0.9375c0.82538 5.3364 1.6092 10.663 2.3438 16l-7.62-9.8 5.25-6.1875zm-15.875 0.4375 3.9688 5.0625l-8.71 10.2c-0.31686-3.401-0.62621-6.8583-0.84375-10.406 1.8542-1.5712 3.7084-3.2313 5.5625-4.8438zm55.562 1.5625c0.0547 4.842 0.0935 9.6813 0.125 14.5l-6.5625-8.5625 6.4375-5.9375zm27.031 1.0938c2.3086 4.5874 4.5604 8.8911 6.75 12.75-5.8166 0.10496-11.631 0.21414-17.375 0.34375l10.625-13.094zm104.69 5.1562 10.375 7.875c-5.3893-0.15748-11.038-0.27121-16.969-0.375 0.0266-0.80737 0.0625-1.6178 0.0937-2.4375l6.5-5.0625zm-179.84 1.75 6.3125 8.1875c-4.8378 0.23852-9.5123 0.48728-13.906 0.75l7.5938-8.9375zm-19.15 0.2c0.43909 3.1474 0.83429 6.2814 1.1875 9.4062-0.0716 0.005-0.14709-0.005-0.21875 0-0.44362-3.0394-0.92089-6.0599-1.3438-9.125 0.12462-0.0906 0.25046-0.1889 0.375-0.28125zm57.156 1.0938 4.1562 5.5c-3.5476 0.10873-7.0435 0.22191-10.5 0.34375l6.3438-5.8438zm-62.406 2.0938c0.16917 1.115 0.33051 2.2299 0.5 3.3438l-2.28-2.58c0.59834-0.21595 1.1861-0.46259 1.7812-0.75zm247.22 1.0312 1.2188 3.4375c-0.47636-0.0388-0.94967-0.0866-1.4375-0.125 0.0669-1.1003 0.14649-2.2104 0.21875-3.3125zm-258.06 0.71875c1.1362 0.0669 2.3218 0.10321 3.6562 0.0312l4.5938 5.1562c-2.6132 0.22395-5.1285 0.45018-7.4062 0.6875-0.26065-2.023-0.53811-3.9839-0.84375-5.875zm152.88 6.8125-7.625 12.281c-5.1534-1.8245-9.8267-4.5013-13.406-7.5938 1.0626-0.00095 2.127-0.003 3.1875 0a0.80233 0.80233 0 0 0 0.52 -1.43c-1.0692-0.91247-2.1988-1.9584-3.3125-3.0312 6.8783-0.0967 13.755-0.19634 20.625-0.21875zm7.5625 0c6.9308 0.0111 13.861 0.0838 20.781 0.1875-1.1778 1.1985-2.3623 2.4424-3.375 3.375a0.80233 0.80233 0 0 0 0.53125 1.4062c1.6164 0.0187 3.2299 0.0167 4.8438 0.0312-0.16368 0.18484-0.31911 0.39108-0.46875 0.5625-1.6519 1.8922-3.5295 3.4336-5.5312 4.7188l-2.41-3.14a0.80233 0.80233 0 0 0 -1.0938 -0.15625c-0.95621 0.71295-1.9436 1.4047-2.9062 2a0.80233 0.80233 0 0 0 -0.21875 1.1562l1.7812 2.5312c-1.3361 0.52128-2.7152 0.95252-4.125 1.2812 0.001-0.75372 0.004-1.5186 0-2.25a0.80233 0.80233 0 0 0 -1.1562 -0.71875c-1.5473 0.69428-3.1329 1.2233-4.75 1.5938a0.80233 0.80233 0 0 0 -0.625 0.8125c0.0146 0.48054 0.0182 0.97693 0.0312 1.4688-0.45642 0.0166-0.91256-0.002-1.375 0 0.0251-4.9498 0.0479-9.8987 0.0625-14.844zm-55.88 4.7c5.3282-0.0101 10.641-0.004 15.969 0l-14.438 18.094-10.906-15.344-0.15625-2.7188c3.1776-0.0101 6.3566-0.0252 9.5312-0.0312zm-21.5 0.06-12.31 19.53-8.41-11.41c-0.31269-2.6242-0.64153-5.2339-0.96875-7.9375 7.2297-0.0637 14.463-0.14814 21.688-0.1875zm-35.594 0.3125c0.14633 1.1825 0.2899 2.3698 0.4375 3.5625l-10.875 15.031-12.48-15.78c-0.10919-0.8405-0.20715-1.6883-0.3125-2.5312 7.7379-0.10178 15.48-0.20236 23.219-0.28125zm151.75 0.125c0.52153 0.004 1.043 0.026 1.5625 0.0312-0.23016 9.0424-0.51449 17.925-0.875 26.219l-1.125 1.4062c0.15559-9.2271 0.30947-18.439 0.4375-27.656zm12.562 0.21875c2.9972 0.0502 5.9986 0.10105 9 0.15625l-4.8125 5.9688-4.1875-6.125zm-198.81 0.0937c0.26389 1.8124 0.5189 3.5667 0.78125 5.375l-4.4062 8.6875-6.5625-13.938c3.3929-0.0504 6.7877-0.0769 10.188-0.125zm221.66 0.3125c0.73156 0.0117 1.4606 0.0506 2.1875 0.0625-0.6071 7.5265-1.1601 14.918-1.5938 22.188l-1.3438 2.375c0.10344-8.4229 0.34116-16.68 0.75-24.625zm12.719 0.28125c0.15628 0.003 0.31265-0.003 0.46875 0l-0.28125 0.53125-0.1875-0.53125zm9.9375 0.25c0.84468 0.0186 1.6893 0.0119 2.5312 0.0312-0.8579 9.3168-1.5894 18.84-2.2188 28.625l-1.29-3.59c0.28212-8.3362 0.57871-16.68 0.96875-25.062zm-65.04 0.79c-0.40089 7.1009-0.79932 14.237-1.1875 21.438l-8.125-10.719 9.3125-10.719zm-38.75 2.1875c-0.0709 1.6872-0.14983 3.3738-0.21875 5.0625-0.85816-0.13916-1.7098-0.36917-2.5625-0.5625l2.7812-4.5zm73.906 0.5c-0.39309 5.5446-0.79882 11.128-1.1875 16.688l-5.9375-8.6562 7.125-8.0312zm-19.375 0.6875 4.0312 5.875-4.125 5.125c0.015-3.567 0.0354-7.2306 0.0937-11zm35.406 2.2812 0.21875 0.59375-0.25 0.40625c0.009-0.32706 0.0219-0.67128 0.0312-1zm7.2188 1.25c-0.0215 0.4157-0.0416 0.83488-0.0625 1.25l-0.28125-0.71875 0.34375-0.53125zm-119.03 0.0625c2.4395 2.762 4.8592 5.5823 7.2188 8.5l-7.0938 11.438c-0.0334-6.6125-0.0764-13.259-0.125-19.938zm-10.7 0.27c0.29285 9.6401 0.40196 19.332-0.0312 29.188l-11.04-15.47 11.07-13.72zm18.094 1.3438c1.0743 0.48581 2.1019 1.0199 3.2188 1.4375l-0.875 1.4062-2.3438-2.8438zm-55.406 1.4688c0.0451 8.2376 0.0831 16.487 0.1875 24.781l-8.875-12.031 8.6875-12.75zm-81.06 0.73l3.7188 7.75-3.3125 6.625c-0.0116-4.7513-0.15021-9.5628-0.40625-14.375zm171.59 0.0625-5.7188 7.1875c-0.0452-1.9406-0.0931-3.8743-0.125-5.4375 2.0034-0.40067 3.9384-1.0188 5.8438-1.75zm-78.375 0.0937 6.8125 9.125-5.875 7.3438-0.9375-16.469zm-46.688 0.3125c0.97477 8.0388 1.8866 16.083 2.8125 24.125l-10.72-13.55 7.91-10.57zm98.47 0.5c1.6529 0.42917 3.3289 0.79587 5.0312 1.0625 0.16182 0.0254 0.31219 0.0422 0.46875 0.0625-0.16141 4.0419-0.30752 8.0842-0.46875 12.125l-7.56-9.12 2.53-4.13zm-132.59 0.46875c0.85087 5.9668 1.6453 11.619 2.375 17.125l-5.28-11.16 2.9062-5.9688zm11.375 0.875 7.0938 8.4375-4.625 6.4062c-0.85248-4.8887-1.6893-9.8427-2.4688-14.844zm134.03 0.29c0.48727-0.001 0.97897 0.0171 1.4688 0 0.0609 4.6829 0.0504 9.0254-0.0312 13.031l-1.6562 2.0625c0.0922-5.0391 0.18068-10.079 0.21875-15.094zm-96.781 2.9688 4.2188 5.5312-3.0312 4.7812c-0.34712-3.1064-0.75175-6.5944-1.1875-10.312zm97.875 19.219c-0.003 0.0731 0.003 0.14587 0 0.21875l-0.0937-0.125 0.0937-0.0937z"/>
    <path id="path3983" d="m277.78 120-5.0312 1c-0.10705 2.6762-0.20565 5.355-0.3125 8.0312-1.309 0.99821-2.5986 2.0986-3.8438 3.3438l-0.0625 0.0625c-3.1548 3.1602-9.0646 9.8743-15.875 17.375-2.8034-0.0777-5.6272-0.15166-8.4375-0.25-0.002-0.0932 0.002-0.1881 0-0.28125l-0.21875 0.25c-0.10399-0.004-0.20849 0.004-0.3125 0l-0.71875 1.1562-2.5625 2.9062c0.13168 3.0054 0.24902 6.0143 0.34375 9.0312-4.3075 4.4815-8.5972 8.723-12.438 12.156-4.6792 4.1833-8.9048 7.1355-11.062 7.8125-3.0012 0.94159-6.6768 0.89952-10.562 0.28125l-0.375-6.5625h-3.7812l0.125 5.7188c-1.5773-0.3842-3.1725-0.81182-4.75-1.3125-6.9392-2.2024-13.481-5.187-18.125-6.375-4.1945-1.073-7.6033-1.7659-10.562-2.0938-0.46787-2.8672-0.83935-4.6533-1.0312-4.7812l-4.7812-0.5c0.25868 1.6822 0.50459 3.3875 0.75 5.0938-0.5852 0.0378-1.1554 0.10597-1.7188 0.1875-4.5064 0.65225-8.1361 2.7417-12.844 5.9688-4.593 3.1484-9.4372 7.4478-14.062 11.438-0.0695-1.5642-0.10777-3.1521-0.15625-4.75l-5.8125 3.5312c0.3167 1.8267 0.58865 3.6506 0.875 5.4688-4.3421 3.4082-8.2858 5.8798-10.656 6.125-4.9578 0.51287-8.0561-0.046-9.6562-0.8125-1.6001-0.76655-1.7303-1.4389-1.6875-2.0938a2.0039 2.0039 0 1 0 -4 -0.25c-0.14925 2.2832 1.3244 4.6707 3.9688 5.9375 2.6443 1.2668 6.4131 1.746 11.812 1.1875 3.5832-0.37067 7.186-2.5737 10.938-5.4688 0.56096 3.8913 1.0403 7.7714 1.4688 11.625-9.7026 0.68457-17.909 1.4246-24.031 2.25l0.75 3.5625c7.8663-0.35233 15.747-0.71213 23.625-1.0625l-19.844 39.438 1.0312 6.3125 19.5-40.125c1.0986 13.33 1.4429 26.434 1.1875 39.375h9.875c-0.28481-1.6111-0.55813-3.234-0.84375-4.8438l25.562-34.125c1.1394 14.145 1.9755 27.597 2.5312 38.969 0 0 7.2902 0.84494 7.8438 0 0.0621-0.0947-0.11506-2.0136-0.40625-4.9375l24.188-35.594 0.96875 40.531h6.5625l-0.28125-4.6562 29.75-36.906c-0.46485 13.995-1.2067 27.905-2.1875 41.562h7.0625c-0.004-1.3085-0.0264-2.6557-0.0312-3.9688l23.42-37.95c-0.56047 13.972-1.1168 27.936-1.6875 41.906h6.3125c0.0407-1.337 0.0592-2.666 0.0937-4l34.03-39.35c-0.80027 14.146-1.6183 28.264-2.3125 43.094l6.8125 0.25c0.0471-2.0541 0.0841-4.1041 0.125-6.1562l30.562-34.5c-0.97231 13.624-1.8973 27.729-2.9062 40.656l7.5938 0.75c-0.0487-2.7173-0.0801-5.4174-0.0937-8.0938l18.656-29.875c-0.78053 13.255-1.2814 26.316-1.9062 39.469h5.0625c0.72906-15.974 1.0293-31.735 1.8438-47.75 2.2427 0.17259 4.5094 0.34373 6.75 0.53125l0.25-6.0625c-1.9951-0.21458-4.2717-0.4042-6.6562-0.59375 0.54842-9.1536 1.292-18.422 2.4375-27.875 1.7097-0.5668 3.3093-1.1589 4.6875-1.8438 1.5102-0.75046 2.7744-1.5759 3.7812-2.5312 1.0069-0.95531 1.8743-2.1774 1.8438-3.7188a2.0005 2.0005 0 1 0 -4 0.0937c-0.001-0.0691-0.036 0.22077-0.59375 0.75-0.5578 0.52923-1.5324 1.1764-2.8125 1.8125-0.69551 0.34561-1.4949 0.67009-2.3438 1 0.34319-2.5703 0.71775-5.1476 1.125-7.75l-4.0625 2.2812c-0.36909 2.2716-0.70588 4.5389-1.0312 6.7812-1.2739 0.36248-2.5914 0.71379-3.9688 1-5.0913 1.058-10.698 1.4057-15.094 0.90625 0.28985-2.5097 0.59297-5.0072 0.90625-7.4375l-5-0.24c-0.29275 1.9923-0.56894 4.1964-0.84375 6.5-0.38486-0.16597-0.7497-0.3343-1.0625-0.53125-3.2255-2.0309-10.495-9.2655-17.188-16.719-1.1252-1.253-2.2206-2.4958-3.3125-3.75 2.2505 0.26999 4.5122 0.54132 6.75 0.875l-1.7812-4.8125c-3.0049-0.28916-5.9842-0.52174-8.9688-0.75-2.3536-2.808-4.4697-5.4215-6.0312-7.4688 0.18301-3.4046 0.37176-6.8014 0.59375-10.219l-4.2812-4.7812c-0.0522 3.26-0.11795 6.4461-0.1875 9.5938-6.5981-9.0207-13.489-14.122-20.562-15.438-1.9284-0.35849-3.858-0.42428-5.75-0.21875-2.5314 0.275-5.0248 1.054-7.4375 2.25 0.19514-2.0073 0.37255-4.0109 0.59375-6.0312zm8.375 7.6562c1.1542-0.0381 2.3034 0.0646 3.4688 0.28125 3.2245 0.59942 6.6125 2.2507 10.062 5.0938l-24.219 15.125c0.32842-5.7097 0.74086-11.481 1.25-17.281 3.1143-2.0147 6.2512-3.1136 9.4375-3.2188zm-13.938 6.8125c-0.21016 5.2694-0.41527 10.543-0.625 15.812-4.5629-0.10093-9.1207-0.19986-13.688-0.3125 5.892-6.5164 10.929-12.179 13.5-14.75 0.26588-0.26588 0.54623-0.49798 0.8125-0.75zm30.844 1.7188c2.1025 2.1978 4.2212 4.8434 6.3438 8 0.37752 0.56144 0.85373 1.2303 1.375 1.9375-0.0492 1.8692-0.13284 3.6662-0.1875 5.5-10.379-0.5956-20.674-0.90679-30.938-1.1562l23.41-14.28zm11.406 14.656c0.29363 0.36446 0.53546 0.68479 0.84375 1.0625-0.29118-0.0191-0.58398-0.0438-0.875-0.0625 0.0156-0.33356 0.0153-0.66634 0.0312-1zm-70.188 2.875c1.5531 0.0607 3.1007 0.10785 4.6562 0.15625-1.5009 1.6328-3.0199 3.2637-4.5625 4.9062-0.0326-1.6848-0.0594-3.3815-0.0937-5.0625zm10 0.28125c4.97 0.11893 9.9582 0.20876 14.938 0.28125l-24.156 47.25c-0.13971-12.375-0.33888-24.738-0.5625-37.062 0.65715-0.68729 1.3138-1.3683 1.9688-2.0625 2.6513-2.8098 5.2934-5.6454 7.8125-8.4062zm20.844 0.375c11.457 0.17353 22.879 0.39309 34.219 1.1562l-35.25 46.781c0.0725-15.845 0.25351-31.74 1.0312-47.938zm39.125 1.5625c1.5872 0.12997 3.1678 0.25143 4.75 0.40625 1.9638 2.3094 4.0357 4.6662 6.1875 7.0625 6.4888 7.2261 13.041 14.041 17.438 17.031l-29.656 25.219c0.24476-16.506 0.56397-33.057 1.2812-49.719zm-43 2.625c-0.6294 15.822-1.2737 31.646-1.9062 47.469-7.3679 0.0346-14.782 0.0665-22.25 0.15625l24.17-47.62zm39.031 3.3125c-0.56223 15.6-1.3115 30.078-2.0938 44.25-9.8218-0.10348-20.051-0.14427-30.594-0.125l32.688-44.125zm-69.312 9.875c0.22414 11.491 0.17552 23.024-0.0625 34.531-9.5711 0.13403-19.06 0.34313-28.438 0.5625l28.5-35.094zm-77.406 4.375-26.719 31.406c-0.40205-4.1543-0.76993-8.4017-1.0312-12.781 5.4183-4.5681 11.065-9.8459 16.031-13.25 4.5822-3.141 7.5387-4.7889 11.156-5.3125 0.18088-0.0262 0.37661-0.042 0.5625-0.0625zm6.2812 0.21875c2.457 0.34427 5.3476 0.95664 8.9375 1.875 3.9157 1.0017 10.713 4.0196 17.938 6.3125 0.59157 0.18775 1.1827 0.35336 1.7812 0.53125l-24.719 21.281c-1.4409-11.627-2.8628-22.717-3.9375-30zm59.75 2.5625-21.625 25.688l-1.02-17.59c3.9842 0.5663 7.9202 0.53918 11.531-0.59375 3.2402-1.0166 6.8971-3.8072 11.125-7.5zm-64.33 1.22c1.2055 9.2802 2.222 18.75 3.0938 28.094-10.076 0.42166-19.62 0.91061-28.125 1.4375l25.03-29.53zm201.72 2.13-17.97 22.69c0.53423-7.477 1.1558-14.689 1.9062-21.625 4.9748 0.61756 10.722 0.0255 16.062-1.0625zm-21.281 2.2812c-0.69288 6.7379-1.3204 14.268-1.9375 22.312-8.0148-0.26817-16.835-0.45184-26.125-0.59375l28.062-21.719zm23.719 0.21875c-0.99882 7.8699-1.7372 15.58-2.3438 23.188-4.7011-0.31688-10.021-0.57444-15.781-0.8125l18.125-22.375zm-166.72 1.4375c0.032 0.007 0.0617 0.0238 0.0937 0.0312l0.5 20.844c-8.2651 0.22018-16.28 0.46641-24.062 0.75l23.469-21.625zm66.094 24.75-23.375 37.656c-0.0563-12.361-0.12725-24.848-0.25-37.438 7.8824-0.11461 15.751-0.20158 23.625-0.21875zm5.2812 0c10.097 0.009 20.175 0.10596 30.25 0.3125l-30.56 38.44c0.25594-12.995 0.2747-25.864 0.3125-38.75zm-33.906 0.28125-29.688 37.219-2.0938-36.469c10.596-0.31303 21.192-0.57128 31.781-0.75zm0.59375 0c0.0104-0.00017 0.0208 0.00017 0.0312 0-0.00027 0.0104 0.00027 0.0208 0 0.0312l-0.0312-0.0312zm72.156 0.25c9.0909 0.24307 18.184 0.56039 27.25 1l-27.781 34.438c0.20399-11.825 0.36906-23.625 0.53125-35.438zm-109.5 0.65625 0.0312 1.25-1.3438-1.2188c0.43708-0.0138 0.87543-0.0176 1.3125-0.0312zm-2.2188 0.0625-22.5 35.719c-0.97915-9.0056-2.4702-21.668-4.0625-34.75 8.8563-0.34403 17.704-0.68636 26.562-0.96875zm141.69 0.40625c0.13514 0.007 0.27111 0.0243 0.40625 0.0312-0.0105 0.14264-0.0208 0.29466-0.0312 0.4375l-0.375-0.46875zm5.5938 0.3125c5.6544 0.31521 11.295 0.65942 16.938 1.0625l-18 31.406c0.0708-11.239 0.45615-22.08 1.0625-32.469zm-180.09 0.5-25.594 35.438c-1.9372-11.042-3.8013-22.202-5.1875-34.125 10.253-0.45288 20.517-0.90087 30.781-1.3125z" fill="url(#linearGradient4392)"/>
    <path id="path4366" d="m182.94 106.56c-7.7304-0.15015-16.342 3.6277-25.031 9.4688-8.6891 5.841-17.467 13.777-25.469 22.188-8.0021 8.4101-15.213 17.287-20.719 24.969-5.506 7.6822-9.3109 14.084-10.531 17.969a1.0715 1.0715 0 0 0 -0.0312 0.34375l0.0937 5.5312a1.0715 1.0715 0 0 0 0.375 0.75 1.0715 1.0715 0 0 0 0.0312 0.0625c1.0438 2.7919 4.239 4.5063 7.625 5.875 3.3754 1.3644 7.0399 2.2762 9.375 2.7812 0.0329 0.0102 0.0609 0.0213 0.0937 0.0312 0.7558 0.22895 1.5065 0.34839 2.2188 0.40625v0.0312c0.00019 0.00003 0.055-0.004 0.0937 0 0.01 0.00067 0.0216-0.00063 0.0312 0 0.01 0.00098 0.0281-0.00013 0.0312 0a1.0715 1.0715 0 0 0 0.0625 0c0.88965 0.0447 1.7533-0.0791 2.5-0.4375 4.8201-2.3136 11.515-8.6126 18.719-14.5 7.1927-5.878 14.837-11.248 20.5-11.812 0.0103-0.00074 0.0209 0.00073 0.0312 0 10.858-0.77021 21.831 3.8851 32.094 7.2812 5.1364 1.6997 10.103 3.0771 14.844 3.2188 4.7408 0.14163 9.3023-1.0213 13.312-4.3438 0.3203-0.26537 0.8291-0.77524 1.25-1.1875 2.672 6.3174 5.143 12.293 7.125 16.906 2.1544 5.0151 3.7436 8.5711 5.125 10.25 11.688 14.206 21.557 21.104 30.5 22.875 8.9435 1.7708 16.744-1.7427 23.844-7.75 4.8318-4.0884 12.068-12.068 20.469-21.094 8.2118-8.8225 17.519-18.565 26.531-26.531 0.61158 0.50441 1.2308 1.0418 1.8438 1.3438 9.7473 4.802 15.416 6.901 24.562 5.4375 0.87224-0.13956 1.7002-0.44708 2.5312-0.71875a1.0715 1.0715 0 0 0 0.8125 -0.0312s3.772-1.8908 7.8438-3.9688c2.0359-1.039 4.1524-2.1307 5.9062-3.0625 1.7539-0.93178 3.1087-1.6803 3.8125-2.1562 0.40241-0.27211 0.7646-0.6389 0.9375-1.125 0.0662-0.18617-0.0101-0.37096 0-0.5625a1.0715 1.0715 0 0 0 0.125 -0.375l0.8125-6.4688a1.0715 1.0715 0 0 0 -0.0937 -0.5625s-4.9713-11.541-16.719-12.375c-8.8546-0.62846-21.367 4.534-32.75 13.812-4.5247-5.8694-11.379-17.219-19.875-27.406-8.7983-10.55-19.336-19.802-31.031-19.625-10.011 0.15157-20.74 9.0969-31.375 19.844-10.235 10.343-20.292 22.402-28.875 30.5-5.1317-10.603-10.999-22.146-16.875-31.906-6.1183-10.163-12.095-18.355-17.656-21.5-2.7737-1.5687-5.8309-2.3128-9.0312-2.375zm-2.0625 7.5312c7.0752 0.0719 14.544 7.0987 21.531 17.469 6.8381 10.149 13.184 23.314 18.562 35.562-2.8567 2.1818-5.4906 3.7482-7.625 4.2188-7.177 1.5823-16.724-0.91802-25.594-3.7812-4.4349-1.4316-8.7213-2.9317-12.5-4.0312s-7.0337-1.8226-9.6562-1.5312c-10 1.1112-18.968 7.1635-26.312 13.25-3.6721 3.0433-6.936 6.1077-9.6875 8.5938-2.7515 2.486-5.0723 4.3862-6.5 5.0625-1.8966 0.89837-4.2354 0.14814-6.6875-1.4688-2.252-1.485-4.3881-3.5971-6-5.375 2.6639-6.6517 9.1522-16.908 10.688-19.281 0.017-0.0217 0.0455-0.0408 0.0625-0.0625 8.0816-10.354 18.119-22.137 28.469-31.5 10.372-9.383 21.073-16.276 30.125-17.094 0.34296-0.031 0.72193-0.0354 1.125-0.0312zm104.5 5.4062c8.572-0.18382 17.654 7.3486 25.969 16.906 8.0782 9.2857 15.324 20.205 21.062 27.406-5.0106 5.077-15.159 15.813-24.969 26.062-5.034 5.2599-9.9199 10.294-13.812 14.219-1.9463 1.9623-3.621 3.6587-4.9688 4.9375s-2.3893 2.1799-2.8125 2.4688c-5.4592 3.7262-10.502 4.9228-15.125 4.5938-4.6231-0.32908-8.8686-2.2276-12.688-4.875-7.6378-5.2947-13.375-13.544-16.438-17.688-0.561-0.759-2.1936-3.9455-4.2812-8.3438-2.0043-4.2226-4.5832-9.7911-7.4375-15.812 6.8001-7.5999 17.304-19.82 27.875-30.344 5.3858-5.3617 10.772-10.273 15.594-13.812 4.8214-3.5398 9.1285-5.6565 12.031-5.7188zm79.062 35.406c2.9452-0.081 5.8502 0.76001 9.3438 2.6875 0.83461 0.80158 2.3607 2.4117 3.625 3.8438-7.2346 6.7434-18.151 9.5338-32.5 3.125 8.5982-6.1876 14.295-9.5122 19.531-9.6562z"/>
    <g id="g4328" transform="matrix(-.95146 -.30778 -.30778 .95146 386.25 53.881)">
      <path id="path4018" transform="matrix(-.13460 .097356 .085209 .13726 185.41 .39896)" fill="#333" d="m475.36 483.43c0 6.7063-5.4365 12.143-12.143 12.143-6.7063 0-12.143-5.4365-12.143-12.143 0-6.7063 5.4365-12.143 12.143-12.143 6.7063 0 12.143 5.4365 12.143 12.143z"/>
      <path id="path4020" transform="matrix(-.13460 .097356 .085209 .13726 181.01 3.2446)" fill="#333" d="m475.36 483.43c0 6.7063-5.4365 12.143-12.143 12.143-6.7063 0-12.143-5.4365-12.143-12.143 0-6.7063 5.4365-12.143 12.143-12.143 6.7063 0 12.143 5.4365 12.143 12.143z"/>
      <path id="path4022" transform="matrix(-.13460 .097356 .085209 .13726 166.1 14.24)" fill="#333" d="m475.36 483.43c0 6.7063-5.4365 12.143-12.143 12.143-6.7063 0-12.143-5.4365-12.143-12.143 0-6.7063 5.4365-12.143 12.143-12.143 6.7063 0 12.143 5.4365 12.143 12.143z"/>
      <path id="path4024" transform="matrix(-.13460 .097356 .085209 .13726 162.87 17.087)" fill="#333" d="m475.36 483.43c0 6.7063-5.4365 12.143-12.143 12.143-6.7063 0-12.143-5.4365-12.143-12.143 0-6.7063 5.4365-12.143 12.143-12.143 6.7063 0 12.143 5.4365 12.143 12.143z"/>
      <path id="path4026" d="m150.76 98.647s-0.075 0.42072 0.01 0.68406c0.28932 0.90135 0.57588 0.57253 0.57247 0.84558-0.004 0.27306-0.0675 0.83417 0.0299 0.91995 0.0974 0.0858 0.4502 0.055 0.4502 0.055s0.57529 0.82629 0.77917 0.68619c0.20387-0.1401 1.1162-0.98573 1.1162-0.98573l0.62115 0.88849-0.0487 0.58184-0.65182 0.31953 0.0538 0.25803-0.38851 0.39886s0.24632 0.19515 0.14155 0.2845c-0.10477 0.0894-2.8066 0.63765-3.4255-0.0164-0.61891-0.65402-1.1874-2.0264-1.3822-2.198-0.19479-0.17155-0.68401-0.83487-0.87656-0.77196-0.19254 0.0629-0.0742 0.13081 0.0538 0.25804 0.12797 0.12723 0.48526 0.56539 0.48526 0.56539s-0.80919-0.35667-0.97512-0.35023c-0.16594 0.006-0.17896 0.22016-0.004 0.27305 0.17556 0.0529 0.85508 0.41886 0.85508 0.41886s-0.29476-0.0526-0.52183-0.12902c-0.57793 0.013-0.26444 0.31389 0.19591 0.28879 0 0 0.59261 0.27124 0.72111 0.76945 0.0602 0.2336 0.4043 0.61758 0.59684 0.55467 0.8697 1.4463 2.3954 1.205 3.8733 1.0864 0 0-1.4852 0.71716-2.2476 0.70125-0.82934-0.0172-2.1275-0.54591-2.2897-0.86152-0.23526-0.45782-1.3519-1.5537-1.6266-1.5558-0.27465-0.002-0.36979 0.14654-0.15234 0.1637 0.21745 0.0171 0.69197 0.40599 0.5623 0.41527-0.12968 0.009-0.84757-0.1381-0.97063 0.11866-0.0969 0.20228 0.29941 0.0398 0.59303 0.0278 0.20817-0.009 0.35889 0.10582 0.35889 0.10582l-0.70731 0.19802c-0.18873 0.18674-0.0282 0.18324 0.0595 0.21943 0 0 0.65592-0.22138 0.82015-0.0913 0.33853 0.26819 0.1663 0.36433 0.1663 0.36433-0.003 0.19308-0.38848 0.0258-0.68303 0.15881-0.11578 0.0524 0.0248 0.12184 0.24117 0.21632 0.26279 0.11476 0.71326 0.29764 1.0638 0.0325 0 0 1.914 1.1557 2.7495 1.125 0.40306-0.0148 3.2738-1.0737 3.2738-1.0737l0.47968 0.45451 0.31998-0.30665 0.71504 2.4968-0.10027 0.55826 0.3341 0.22158s-3.2319 1.9121-3.3158 1.9836c-0.0838 0.0716-0.63995 0.6133-0.60146 0.85061 0.0385 0.23731 0.45937 6.3617 0.25209 6.7748-0.20728 0.41316-0.14559 0.86705-0.14559 0.86705l2.6046-1.79s-0.54312-1.0149-0.73675-1.694c-0.19362-0.67904-0.97603-3.5911-0.97603-3.5911s2.417-0.98073 3.7914-1.4776c1.3744-0.49681 2.8117-1.0472 2.8565-1.727 0.0448-0.67977-0.32439-1.4117-0.32439-1.4117 0.24562-0.22477 0.27514-0.52512 0.37663-0.69265l-0.936-0.9914s-1.4086-2.9989-2.5293-4.1236c-0.22423-0.22504-0.80749-0.4932-0.80749-0.4932s-1.063-0.71504-1.201-0.93421c-0.1054-0.16739 0.6255-1.4177 0.44974-1.5654l-0.37546 0.18514c-0.005-0.44067 0.32413-0.59052 0.56917-0.75555-0.14832-0.01981-0.26168-0.06948-0.59687 0.0701l0.20162-0.37456-0.34884 0.12866c-0.004-0.20601 0.11364-0.44598 0.49668-0.76126-0.4264-0.08304-0.85871-0.06969-1.3025 0.13154-0.16022-0.24696 0.18999-0.30453 0.32168-0.44318-0.17351 0.02929-0.1691-0.18586-0.85793 0.22517l0.005-0.40958c-0.44158 0.0232-0.74252 0.43709-1.1071 0.67407l-0.1376-0.18656-0.36754 0.38099-0.0918-0.12437s-0.37201 0.72648-0.43895 1.1172c-0.0449 0.26184 0.0317 0.78341 0.0317 0.78341z"/>
      <path id="path4258" d="m144.84 109.23s-0.54082-0.85273-0.0155-1.2403c0.52504-0.38755 0.21592 0.0592 0.58727-0.32459 0.71003-0.73361 1.8128-1.3868 1.7603-2.3304-0.18867 0.63292-1.054 0.37088-1.4908 0.86129 0.71697-1.2212 0.16518-0.50372 1.1987-1.143-0.91674 0.0203-0.16219-0.8204-1.9842-0.10335 0 0 0.84561-0.076 1.0938-0.81664-1.4251 0.51536-2.3803-0.19557-3.8815 0.8776-0.52864 0.37784-1.224 1.44-1.224 1.44s0.5246-0.28808 0.0661-0.89442c0.13655 0.44563-1.1064 0.75494-0.50108 1.6448 0.13172 0.19366 0.49154 0.38832 0.49154 0.38832-0.0338 0.5673 0.28332 0.70324 0.44399 1.0315l-0.008 0.72147c-0.003 0.27697 0.42239 0.15297 0.42239 0.15297s0.642 0.84615 0.99289 0.62632c0.46247-0.28973 0.50119-0.30427 0.75862-0.6292l0.31412 0.55275-0.12295 2.2369s-1.6936 1.2866-2.6675 1.5398c-0.87632 0.22776-1.8-0.28901-2.6707-0.0675-0.37294 0.0949-0.90691 0.66942-0.90691 0.66942l0.7189-0.13718 0.27818 0.50727 1.0913-0.49436 1.8981 0.22208 2.5243-1.1862 0.45841 0.5967 0.39405-0.32916 1.1857 2.201s-3.5593 0.96734-3.7516 1.4468c-0.17338 0.4322-0.19996 0.11669 0.13484 0.6026-0.10064 0.39586-0.11917 2.149-0.64689 2.3832l0.002 2.2182 1.4519-0.14168 0.31-1.8225c-0.20777-0.1745-0.34386-0.43336-0.0625-1.4139l0.76278 0.63062 5.8346-3.9491-3.3572-4.9619s-0.22357-0.98155-0.58771-1.2759c-0.34423-0.27826-1.2958-0.29043-1.2958-0.29043z"/>
      <path id="path4028" fill="#501616" d="m148.44 107.13s-0.6424 0.31397-1.2692 1.9226c-0.30285 0.77728 0.0616 4.225 0.71617 5.3588 0.5681 0.98401 2.0299 1.4451 2.0299 1.4451s-3.7365 1.5976-4.4163 2.0894c-0.67981 0.49172-1.2156 1.0779-1.2442 1.8041-0.0368 0.9349 1.4202 2.2878 1.4202 2.2878l7.453-5.2904z"/>
      <path id="path4030" fill="#501616" d="m159.21 99.344s-0.64241 0.31397-1.2692 1.9226c-0.30285 0.77729 0.0616 4.225 0.71617 5.3588 0.56811 0.98401 2.0299 1.445 2.0299 1.445s-3.7365 1.5977-4.4163 2.0894c-0.67982 0.49172-1.2156 1.0779-1.2442 1.8041-0.0369 0.93491 1.4202 2.2879 1.4202 2.2879l7.453-5.2904z"/>
      <path id="path4016" fill="#a02c2c" d="m161.09 97.961-2.8216 1.4016s1.441 5.3509 0.49374 7.5278c-0.94725 2.1769-4.3767 7.8515-5.2321 6.2707l-3.7846-6.9943c-0.39001-0.72079-2.3184 0.75349-2.1407 1.2642 0.27113 0.77908 1.8964 6.9634 1.0367 8.6268-1.9937 3.8573-4.3941 6.1618-5.2286 4.7054-0.38367-0.66965-2.7517-4.5449-3.4181-5.0574-0.66639-0.51248-2.4782-1.9724-3.1785-0.96857-0.70031 1.0038-2.3517 7.8811-1.6729 10.658 0.28924 1.1831 2.9841 4.0216 4.4694 3.1604 1.4853-0.86126 25.586-18.365 26.067-18.713 0.43264-0.31293 0.80145-1.1641 0.60592-1.7169-1.1406-3.2246-4.2789-10.62-5.1955-10.165z"/>
    </g>
    <path id="path3071" fill="url(#linearGradient4414)" d="m106.79 179.51s10 13.571 16.786 10.357c6.7857-3.2143 22.857-24.643 42.143-26.786 9.2562-1.0285 32.677 12.632 47.857 9.2857 17.228-3.7983 49.521-58.927 73.214-59.286 25.364-0.38404 46.751 46.849 53.929 50.714 18.571 10 32.507 5.1745 40.357-4.6429l-0.71429 5s-7.1428 10-16.071 11.429c-8.9286 1.4286-14.214-0.57142-23.929-5.3571-9.7438-4.8003-32.511-52.268-55-51.786-16.126 0.34582-56.065 51.515-62.857 57.143-15.208 12.599-37.206-8.0416-59.643-6.4286-12.416 1.2053-30.714 22.143-39.643 26.429-4.61 2.2128-17.143-7.0536-18.571-12.143z"/>
    <g id="g4317" transform="matrix(-.95798 -.28684 -.28684 .95798 384.89 48.971)">
      <path id="path4032" d="m125.98 124.56s-0.27582 0.23168-0.32495 0.47673c-0.23833-0.11994-0.53175-0.64998-0.2575-0.94768 0.44215-0.47998 1.6461-1.5753 2.0078-1.9681 0.36169-0.3928 1.0272-1.4554 1.0272-1.4554-0.50588 0.43365-1.0616 0.97378-1.3627 0.97009 0 0 0.4466-1.1223 0.90874-1.6242 0.16075-0.17457 1.5445-1.2949 1.5445-1.2949-0.96142 0.54058-1.8385 0.66838-2.9239 1.8159 0 0 0.12177-0.30218 0.44446-0.82258-1.3015 0.77619-3.453 1.2002-4.7236 2.5382-0.44743 0.47119-0.92883 1.646-0.92883 1.646l-0.0719-1.1115s-0.41156 1.8065-0.21305 1.9308c0.19852 0.12429 0.55626 0.28807 0.55626 0.28807 0.0743 0.56343 0.41151 0.63677 0.63149 0.92863l0.12899 0.70989c0.0502 0.27239 0.44372 0.0701 0.44372 0.0701s0.7908 0.70909 1.0936 0.42673c0.39916-0.37215 0.5943-0.74008 0.78545-1.1079l0.25329 0.82949 0.30334 2.2197s-1.419 1.5844-2.3272 2.0175c-0.81725 0.38977-1.8221 0.0575-2.6351 0.44004-0.34817 0.16389-0.76355 0.82921-0.76355 0.82921l0.67986-0.27098 0.49687 0.22511 0.85019-0.47207 1.9058-0.14174 1.3012-0.73337 0.59553 0.37288 1.2446-1.1817 1.5814 1.9362s-3.6778 1.2751-3.8806 1.7502c-0.20276 0.4751-0.45355 2.107-0.45355 2.107l1.1956 0.10355 0.21539 3.3773 1.3987-0.41436-0.57742-2.9417 1.0754 0.19167 4.9801-4.9836-4.237-4.2354c-0.55196-0.67071-0.86104-1.3778-1.7173-2.0029z"/>
      <path id="path4260" transform="matrix(-.11180 .12286 .11152 .11690 133.75 21.231)" fill="#333" d="m475.36 483.43c0 6.7063-5.4365 12.143-12.143 12.143-6.7063 0-12.143-5.4365-12.143-12.143 0-6.7063 5.4365-12.143 12.143-12.143 6.7063 0 12.143 5.4365 12.143 12.143z"/>
      <path id="path4262" transform="matrix(-.11180 .12286 .11152 .11690 130.47 24.915)" fill="#333" d="m475.36 483.43c0 6.7063-5.4365 12.143-12.143 12.143-6.7063 0-12.143-5.4365-12.143-12.143 0-6.7063 5.4365-12.143 12.143-12.143 6.7063 0 12.143 5.4365 12.143 12.143z"/>
      <path id="path4264" transform="matrix(-.11180 .12286 .11152 .11690 118.13 38.73)" fill="#333" d="m475.36 483.43c0 6.7063-5.4365 12.143-12.143 12.143-6.7063 0-12.143-5.4365-12.143-12.143 0-6.7063 5.4365-12.143 12.143-12.143 6.7063 0 12.143 5.4365 12.143 12.143z"/>
      <path id="path4266" transform="matrix(-.11180 .12286 .11152 .11690 114.98 42.025)" fill="#333" d="m475.36 483.43c0 6.7063-5.4365 12.143-12.143 12.143-6.7063 0-12.143-5.4365-12.143-12.143 0-6.7063 5.4365-12.143 12.143-12.143 6.7063 0 12.143 5.4365 12.143 12.143z"/>
      <path id="path4268" d="m114.94 130.72c-0.86273 0.005-1.7358 0.56353-2.0312 1.9375-0.0115 0.26541 0.125 0.78124 0.125 0.78125 0 0-0.0233 0.40566 0.0937 0.65625 0.40059 0.8577 0.65648 0.63495 0.6875 0.90625 0.031 0.27132 0.19602 1.004 0.28125 0.90625 0.17057-0.1955 0.3125-0.125 0.3125-0.125s-0.15836 0.14466-0.0625 0.3125c0.0603 0.10562 0.10446 0.15879 0.34375 0.15625-0.0359 0.37806 0.73909 0.70186 0.84375 0.625 0.84751-0.6224 0.875-1.2188 0.875-1.2188l0.3438 0.0937c0.017 0.64239-0.0485 0.70168 0.125 0.78125l-0.375 0.75c-0.45672 1.5122-1.2787 2.4352-2.0625 3.375 0 0-0.42533 0.0506-0.28125 0.53125 0.007 0.0247-0.004 0.0585 0 0.0937-0.66289 0.27399-1.3204 0.45197-1.4375 0.28125-0.29107-0.42453-1.5398-1.3762-1.8125-1.3438-0.27273 0.0325-0.34288 0.19788-0.125 0.1875 0.21788-0.0104 0.75247 0.3182 0.625 0.34375-0.12744 0.0258-0.87903-0.0202-0.96875 0.25-0.0707 0.21289 0.30397-0.0137 0.59375-0.0625 0.20542-0.0348 0.375 0.0625 0.375 0.0625l-0.65625 0.2813c-0.1637 0.20903-0.029 0.19389 0.0625 0.21875 0 0 0.6332-0.29585 0.8125-0.1875 0.36963 0.2234 0.21875 0.3125 0.21875 0.3125 0.011 0.0959-0.0861 0.14047-0.21875 0.15625-0.0112-0.001-0.0202 0.001-0.0312 0-0.37886-0.0345-0.7112-0.0588-0.8125-0.0312-0.25043 0.0683-1.0716 0.0859-1.125 0.28125-0.0535 0.19536 0.0734 0.13058 0.25 0.0937 0.17666-0.0368 0.75-0.0937 0.75-0.0937s-0.75782 0.48292-0.84375 0.625c-0.0862 0.14194 0.078 0.27367 0.21875 0.15625 0.14077-0.11751 0.84375-0.46875 0.84375-0.46875s-0.21745 0.19623-0.40625 0.34375c-0.30722 0.48967 0.11135 0.39818 0.34375 0 0 0 0.54457-0.3231 1.0312-0.15625 0.22819 0.0783 0.75907-0.0233 0.8125-0.21875 0.58749 0.0243 1.1869-0.10884 1.75-0.375 0.10305 0.0226 0.18676 0.0463 0.1875 0.0937 0.006 0.4033 0.8125 0.0312 0.8125 0.0312l0.4375-0.625 2.0625-2.1562 1.0312 2.2812 0.125 0.3125 0.0625 0.25s-2.6759 2.231-2.75 2.3125-0.53683 0.70693-0.46875 0.9375c0.0681 0.23057 1.2473 6.2515 1.0938 6.6875-0.15357 0.43598-0.0312 0.875-0.0312 0.875l3.0938-1.2812s-1.4098-1.757-1.6875-2.4062c-0.27765-0.64924-1.0312-3.5625-1.0312-3.5625s1.8866-1.1465 3.1875-1.8125c1.3009-0.66604 2.6662-1.4138 2.625-2.0938-0.0412-0.67999-0.5-1.3438-0.5-1.3438 0.21534-0.25392 0.20167-0.57102 0.28125-0.75l-1.0625-0.84375s-1.7777-2.8067-3.0312-3.7812c-0.2508-0.19499-0.84375-0.375-0.84375-0.375s-1.148-0.58122-1.3125-0.78125c1.1358-1.6825-0.31212-3.1966-1.75-3.1875z"/>
      <path id="path4270" fill="#501616" d="m119.88 133.27s-0.56447 0.43889-0.84846 2.1418c-0.13723 0.82284 0.92562 4.1228 1.7986 5.0985 0.7576 0.8468 2.2828 0.99866 2.2828 0.99866s-3.3301 2.3291-3.8947 2.9496c-0.56469 0.62053-0.96906 1.3041-0.84833 2.0207 0.15542 0.92263 1.8587 1.9485 1.8587 1.9485l6.2114-6.7048z"/>
      <path id="path4272" fill="#501616" d="m128.82 123.44s-0.56448 0.4389-0.84847 2.1418c-0.13723 0.82285 0.92562 4.1228 1.7986 5.0985 0.75761 0.84679 2.2828 0.99866 2.2828 0.99866s-3.3301 2.3291-3.8948 2.9496c-0.56469 0.62053-0.96905 1.304-0.84832 2.0207 0.15542 0.92263 1.8587 1.9485 1.8587 1.9485l6.2114-6.7048z"/>
      <path id="path4274" fill="#a02c2c" d="m130.38 121.7-2.4747 1.9498s2.5064 4.9423 2.0251 7.267c-0.48129 2.3248-2.6758 8.5814-3.8368 7.2094l-5.137-6.0709c-0.52938-0.62562-2.1149 1.2124-1.8363 1.6759 0.42496 0.70703 3.2825 6.4274 2.7816 8.2316-1.1614 4.1839-3.0389 6.9312-4.154 5.6766-0.5127-0.57687-3.6242-3.8849-4.3815-4.25-0.75723-0.36512-2.8296-1.423-3.3094-0.29702-0.47987 1.126-0.68764 8.1957 0.54549 10.774 0.52543 1.0987 3.7445 3.3252 5.022 2.1779 1.2774-1.1472 21.282-23.216 21.681-23.655 0.35937-0.3949 0.54603-1.3036 0.24141-1.8046-1.7769-2.9226-6.3634-9.5186-7.1674-8.8852z"/>
    </g>
    <path id="path3841" d="m373.75 156.09s6.348 5.9426 6.3125 7.2188c-0.092 3.3035-12.75 11.594-12.75 11.594s15.088-7.5053 17.438-9.0938c1.4227-0.96204 0.12548-2.6334-3.0312-4.9062-1.9684-1.4173-7.9688-4.8125-7.9688-4.8125zm-252.81 4.9375s-12.915 16.348-14.344 18.312c-1.4286 1.9643-4.7327 5.9368-3.9688 8.0625 2.0536 5.7143 18.719 8.5312 18.719 8.5312s-13.697-4.7536-13.125-10.375c0.62111-6.1052 12.719-24.531 12.719-24.531z" fill="#483737"/>
    <path id="path3900" d="m178.47 116.03c-2.396 0.0842-4.7834 0.61061-7.0625 1.4375-6.2746 2.2765-12.086 6.75-17.094 10.938-0.0513-0.37938-0.10478-0.75175-0.15625-1.125-1.5163 1.2482-3.0228 2.5729-4.5312 3.9375-0.64689 0.58521-1.2935 1.2093-1.9375 1.8125 0.0628 0.26019 0.12268 0.5217 0.1875 0.78125-6.7321 5.5494-13.76 13.722-20.188 22.375-0.47709 0.0507-0.9377 0.10547-1.4062 0.15625-1.7674 2.1634-3.502 4.2956-5.125 6.375-0.017 0.0217-0.0455 0.0408-0.0625 0.0625-0.21034 0.32508-0.59522 0.97248-0.96875 1.5625 0.10816 0.71396 0.20335 1.4246 0.3125 2.125-0.44187 0.66426-0.8826 1.3407-1.3125 2-4.162 6.3826-7.7054 12.495-10.281 17.438-0.0695 0.13335-0.11936 0.24336-0.1875 0.375-0.10416-0.20616-0.20661-0.43283-0.3125-0.625l-3.0312 0.5c0.41746 1.5251 0.81422 3.0484 1.1875 4.5625-0.25254 0.55656-0.5433 1.1535-0.75 1.6562-0.74742 1.8179-1.225 3.1616-1.3125 4.5l3.5312 0.21875c1.0619 5.0676 1.8631 10.079 2.5 15.031-0.95784 0.0129-1.9172 0.0182-2.875 0.0312l1 4.5625c0.80239-0.0142 1.6039-0.0174 2.4062-0.0312 1.6832 15.881 1.4759 31.219 0.625 46.156l4.2812 0.59375c0.99-11.06 0.97-24.73 0.09-37.68l18.656 38.781c0.0684 0.59116 0.15333 1.2646 0.21875 1.8438l5.5312 0.75c-3.0052-15.68-5.6445-30.975-8.0312-46.469l35.844 42.688c0.15515 1.3442 0.31255 2.6871 0.46875 4.0312h7.5938c-2.7516-14.321-5.4943-29.897-8.25-46.594l31.125 40.812c0.0325 1.9317 0.0541 3.8424 0.0937 5.7812h9.5938c-1.5628-14.581-2.9642-29.812-4.0938-46.25l31.031 41.594c-0.11723 1.5439-0.25354 3.1006-0.40625 4.6562h7.5625c-1.72-14.918-2.212-30.666-2.1875-48.562 12.675 13.056 24.004 29.309 35.438 43.938-0.12979 1.5847-0.25678 3.1317-0.40625 4.625h6.8125c-0.26159-21.245-0.5203-29.512-0.65625-36.531 2.9473-0.53326 5.8151-1.431 8.5312-2.6875l23.688 33.406c-0.15589 2.0095-0.31755 3.9624-0.5 5.8125h7.8125c0.17458-16.381-0.10425-30.613 0.21875-47.688l27.875 40.688c-0.0479 2.3465-0.0573 4.691-0.0625 7l6.5938-0.5c0.31015-7.9898 0.33031-25.137 1.0938-46.562l14.82 40.22c-0.0909 2.0123-0.17623 4.0462-0.25 6.0938l5.0625-0.75c0.16477-15.823 0.83146-31.725 2-48.438 0.41692 0.0111 0.83308 0.02 1.25 0.0312l0.25-6.3125c-0.34408-0.003-0.68719 0.003-1.0312 0 0.94175-12.341 2.1554-25.191 3.625-38.812l1.25-0.0312c-0.0251-1.265-0.29036-2.637-0.8125-4 0.17135-1.5522 0.32199-3.0516 0.5-4.625l-3.3125 0.21875c-0.52711-0.56709-1.092-1.1369-1.75-1.6562-3.5994-2.841-9.1476-4.7688-17.156-4.75 0.0868-0.76151 0.19468-1.5202 0.28125-2.2812-1.5801 0.33186-3.2486 0.96083-5.0312 1.8125-0.0335 0.53095-0.0594 1.0642-0.0937 1.5938-0.53832 0.27004-1.0817 0.56405-1.6562 0.90625-1.9856 1.1825-4.1776 2.8106-6.5938 4.8125-4.8322 4.0037-10.491 9.4664-16.438 15.594-3.0318 3.1242-6.1491 6.4258-9.25 9.7812 0.10573-1.809 0.25175-3.746 0.375-5.625-2.199 2.2446-4.3785 4.4781-6.5 6.7188-0.0506 1.9457-0.10581 3.8491-0.15625 5.8125-4.4501 4.9264-8.7023 9.7134-12.656 14.219-1.9891-0.002-3.9788-0.0233-5.9688-0.0312-1.8858 1.941-3.5834 3.674-5.125 5.0938 2.2077 0.0255 4.4153 0.0377 6.625 0.0625-0.52527 0.60133-1.1513 1.2966-1.6562 1.875-1.867 2.1387-3.9847 3.8921-6.2812 5.2812l-2.875-3.75c-0.96552 0.71989-1.9444 1.4171-2.9375 2.0312l2.4375 3.4375c-1.9998 0.86331-4.0892 1.5074-6.25 1.9375-0.0124-1.0239 0.006-2.2694 0-3.3438-1.5928 0.71467-3.2351 1.2734-4.9062 1.6562 0.0227 0.74789 0.0451 1.55 0.0625 2.2812-3.0487 0.18745-6.1638 0.0459-9.25-0.4375-9.2608-1.4505-18.094-5.8263-23.625-11.312 1.7701 0.003 3.5413-0.004 5.3125 0-1.6465-1.4051-3.3388-2.9819-5.0625-4.7188-1.2083 0.009-2.4169 0.0258-3.625 0.0312 0.0108-1.233 0.0173-2.5302 0.0312-3.7812-1.3504-1.4967-2.7238-3.1096-4.125-4.8125-0.39225-0.47674-0.81605-1.1364-1.25-1.9062 0.0119 0.79268 0.0143 1.582 0.0312 2.375-6.7737-12.098-14.478-28.907-22.594-45.531 1.2088 0.0116 2.417 0.0188 3.625 0.0312-0.79279-1.6865-1.5838-3.3902-2.4062-5.0625-1.2475-0.0657-2.4912-0.10083-3.75-0.15625-2.7593-5.5608-5.5524-11.023-8.375-16.219 0.001-1.609 0.0214-3.2731 0.0312-4.9062-1.9388-2.8336-3.9148-5.3908-5.9062-7.625 0.0693 0.99857 0.15305 2.0051 0.21875 3-3.3103-4.6311-6.8752-7.5895-10.656-9.0938-2.386-0.94926-4.7914-1.303-7.1875-1.2188zm0.09 3.97c1.896-0.0684 3.771 0.23116 5.625 0.96875 3.708 1.4752 7.5221 4.8364 11.219 11.312 0.47118 0.82547 0.93604 1.6865 1.4062 2.5312 0.2838 5.0255 0.51547 9.9923 0.71875 14.938l-40.75-18.156c4.9948-4.1405 10.529-8.3899 16-10.375 1.968-0.71403 3.8852-1.1504 5.7812-1.2188zm-23.312 15.281 37.188 16.5c-11.57 0.11353-23.302 0.76074-34.656 1.625-0.84066-5.9436-1.691-11.982-2.5312-18.125zm-6.2812 2.875c1.2539 5.2199 2.4101 10.436 3.5 15.656-6.6533 0.55355-13.116 1.1763-19.312 1.8125 5.1971-6.7384 10.669-12.949 15.812-17.469zm53.03 6.34c1.2597 2.4368 2.5339 4.9007 3.7812 7.4062-1.2355-0.0352-2.4746-0.0728-3.7188-0.0937-0.0256-2.4164-0.0496-4.8418-0.0625-7.3125zm0.125 12.719c2.0843-0.002 4.1657-0.0109 6.25 0 9.7608 19.983 19.044 40.779 27.219 53.75-10.492 0.0518-20.986 0.11082-31.469 0.1875-0.9905-16.559-1.7133-34.362-2-53.938zm-7.2188 0.0312c0.97961-0.009 1.9579 0.006 2.9375 0 0.59765 17.453 0.77401 34.481 0.875 51.438l-38.625-50.406c11.603-0.60052 23.21-0.92801 34.812-1.0312zm-41.438 1.4062c3.3352 16.678 5.9467 33.352 8.1875 50.031l-34.594-44.781c0.79178-1.1304 1.5897-2.2519 2.4062-3.375 8.0016-0.77685 15.998-1.3873 24-1.875zm208.23 2.84c7.3182-0.009 11.907 1.7296 14.625 3.875 1.7015 1.3429 2.7217 2.8653 3.2812 4.3125-1.0066 12.015-2.1732 23.721-3.3125 35.438l-14.59-43.63zm-202.66 0.71875 37.375 49c-9.9754 0.0786-19.938 0.1508-29.906 0.25-2.4964-15.505-4.9734-31.91-7.4688-49.25zm197.44 1.1875c-1.0533 15.165-2.396 29.967-3.625 44.438l-24.625-18.062c2.2573-2.417 4.5146-4.7912 6.7188-7.0625 5.8908-6.0703 11.491-11.442 16.125-15.281 2.0193-1.6731 3.8398-3.0321 5.4062-4.0312zm-231.16 3.71 34.44 44.41c-9.5762 0.0996-19.148 0.22673-28.719 0.34375-2.1147-14.454-4.03-29.238-5.7188-44.75zm235.22 0.6875 15.188 43.156c-0.005 0.0517 0.005 0.10453 0 0.15625-6.0567-0.0486-12.105-0.089-18.156-0.125 0.59469-13.462 1.5096-28.177 2.9688-43.188zm-239.15 4.6c1.8871 12.122 3.7529 24.414 5.5938 36.656l-16.125-18.25c0.45634-0.95483 0.95828-1.963 1.5312-3.0625 2.2625-4.3414 5.389-9.705 9-15.344zm203.4 21.09l23 17.438c-8.6281-0.0424-17.254-0.0733-25.875-0.0937 0.1435-4.6945 0.32661-9.5609 0.59375-14.844 0.7626-0.83621 1.5162-1.6684 2.2812-2.5zm-212.62 3.5625 13.219 14.875c-3.5615 0.0448-7.1266 0.078-10.688 0.125-0.68194-5.5208-1.5305-10.619-2.5312-15zm204.25 5.6875c-0.0663 2.7139-0.15283 5.3773-0.21875 8.0938-2.3229-0.004-4.6462 0.003-6.9688 0 2.31-2.6231 4.72-5.336 7.1875-8.0938zm-97.41 12.87c5.6218-0.0107 11.222-0.004 16.844 0 0.47217 13.906 1.0229 27.804 0.25 42.125l-30-42.094c4.3002-0.0165 8.606-0.0231 12.906-0.0312zm-20.219 0.0625c0.0673 13.467 0.1243 26.945 0.3125 40.531l-29.75-40.312c9.8084-0.0904 19.629-0.17042 29.438-0.21875zm-36.19 0.32c1.7585 13.671 3.3371 27.33 4.9062 41l-32.125-40.688c9.0718-0.12691 18.147-0.22019 27.219-0.3125zm142.06 0.0312c3.8024 0.0461 7.6038 0.0713 11.406 0.125-0.33275 13.284-0.74391 26.256-1.4062 37.562l-20.75-27.406c2.495-1.5545 4.818-3.4874 6.875-5.8438 1.1931-1.3667 2.5751-2.9518 3.875-4.4375zm20.031 0.28125c9.1399 0.14353 18.298 0.30779 27.438 0.5-1.0112 12.439-1.885 24.568-2.3125 36.25l-25.125-36.75zm-196.59 0.125c1.9415 13.089 3.7187 25.631 5.1562 36.812l-17.28-36.66c4.0432-0.0673 8.0818-0.0956 12.125-0.15625zm232.53 0.56c4.8365 0.11017 9.6637 0.21863 14.5 0.34375-1.0016 10.818-1.9144 21.81-2.5938 33.281l-11.91-33.62zm-109.94 8.375c4.9568 2.6834 10.616 4.6145 16.469 5.5312 3.2788 0.51355 6.6241 0.69688 9.9375 0.5 0.1492 9.9032-0.0427 18.177-0.46875 25.375l-25.93-31.41z" fill="url(#linearGradient4390)"/>
    <path id="path3069" fill="url(#linearGradient4406)" d="m102.31 187.01s45.832-71.083 77.334-73.929c26.134-2.361 51.277 80.574 57.857 88.571 23.214 28.214 38.929 26.786 52.857 15 9.5568-8.0865 29.665-32.755 48.434-48.975 22.443-16.664 27.152-18.974 46.566-3.1675l0.79721-6.4719s-4.7306-10.957-15.797-11.742c-8.9197-0.63307-22.5 5-34.286 15.357-4.5606 4.0078-44.628 47.292-49.643 50.714-22.5 15.357-39.643-10-45.714-18.214-4.2456-5.7441-32.02-74.521-49.286-84.286-27.831-15.74-84.252 55.804-89.221 71.62z"/>
  </g>
  <metadata>
    <rdf:RDF>
      <cc:Work>
        <dc:format>image/svg+xml</dc:format>
        <dc:type rdf:resource="http://purl.org/dc/dcmitype/StillImage"/>
        <cc:license rdf:resource="http://creativecommons.org/licenses/publicdomain/"/>
        <dc:publisher>
          <cc:Agent rdf:about="http://openclipart.org/">
            <dc:title>Openclipart</dc:title>
          </cc:Agent>
        </dc:publisher>
        <dc:title>roller coaster</dc:title>
        <dc:date>2011-08-05T14:56:36</dc:date>
        <dc:description>amusement, amusement park, clip art, clipart, fun, rollercoaster, theme park, </dc:description>
        <dc:source>http://openclipart.org/detail/153769/roller-coaster-by-tzunghaor</dc:source>
        <dc:creator>
          <cc:Agent>
            <dc:title>tzunghaor</dc:title>
          </cc:Agent>
        </dc:creator>
        <dc:subject>
          <rdf:Bag>
            <rdf:li>amusement</rdf:li>
            <rdf:li>amusement park</rdf:li>
            <rdf:li>clip art</rdf:li>
            <rdf:li>clipart</rdf:li>
            <rdf:li>fun</rdf:li>
            <rdf:li>rollercoaster</rdf:li>
            <rdf:li>theme park</rdf:li>
          </rdf:Bag>
        </dc:subject>
      </cc:Work>
      <cc:License rdf:about="http://creativecommons.org/licenses/publicdomain/">
        <cc:permits rdf:resource="http://creativecommons.org/ns#Reproduction"/>
        <cc:permits rdf:resource="http://creativecommons.org/ns#Distribution"/>
        <cc:permits rdf:resource="http://creativecommons.org/ns#DerivativeWorks"/>
      </cc:License>
    </rdf:RDF>
  </metadata>
</svg>
