<?xml version="1.0" encoding="UTF-8" standalone="no"?>
<!-- Created with Inkscape (http://www.inkscape.org/) -->

<svg
   width="36.507751mm"
   height="30.342144mm"
   viewBox="0 0 36.507751 30.342144"
   version="1.1"
   id="svg1"
   sodipodi:docname="fusiliBase.svg"
   inkscape:version="1.3 (0e150ed6c4, 2023-07-21)"
   xmlns:inkscape="http://www.inkscape.org/namespaces/inkscape"
   xmlns:sodipodi="http://sodipodi.sourceforge.net/DTD/sodipodi-0.dtd"
   xmlns:xlink="http://www.w3.org/1999/xlink"
   xmlns="http://www.w3.org/2000/svg"
   xmlns:svg="http://www.w3.org/2000/svg">
  <sodipodi:namedview
     id="namedview1"
     pagecolor="#ffffff"
     bordercolor="#000000"
     borderopacity="0.25"
     inkscape:showpageshadow="2"
     inkscape:pageopacity="0.0"
     inkscape:pagecheckerboard="0"
     inkscape:deskcolor="#d1d1d1"
     inkscape:document-units="mm"
     showguides="false"
     inkscape:zoom="5.5375421"
     inkscape:cx="70.428359"
     inkscape:cy="68.17104"
     inkscape:window-width="1920"
     inkscape:window-height="991"
     inkscape:window-x="-9"
     inkscape:window-y="-9"
     inkscape:window-maximized="1"
     inkscape:current-layer="layer1-8" />
  <defs
     id="defs1">
    <linearGradient
       id="linearGradient3201">
      <stop
         id="stop3203"
         style="stop-color:#d2a536"
         offset="0" />
      <stop
         id="stop3205"
         style="stop-color:#d2a536;stop-opacity:0"
         offset="1" />
    </linearGradient>
    <filter
       id="filter3187"
       y="-0.21639666"
       width="3.6865423"
       x="-1.3434435"
       height="1.4327933">
      <feGaussianBlur
         id="feGaussianBlur3189"
         stdDeviation="1.9060346"
         inkscape:collect="always" />
    </filter>
    <filter
       id="filter2"
       y="-0.21639666"
       width="3.6865423"
       x="-1.3434435"
       height="1.4327933">
      <feGaussianBlur
         id="feGaussianBlur2"
         stdDeviation="1.9060346"
         inkscape:collect="always" />
    </filter>
    <filter
       id="filter4"
       y="-0.21639666"
       width="3.6865423"
       x="-1.3434435"
       height="1.4327933">
      <feGaussianBlur
         id="feGaussianBlur4"
         stdDeviation="1.9060346"
         inkscape:collect="always" />
    </filter>
    <filter
       id="filter6"
       y="-0.21639666"
       width="3.6865423"
       x="-1.3434435"
       height="1.4327933">
      <feGaussianBlur
         id="feGaussianBlur6"
         stdDeviation="1.9060346"
         inkscape:collect="always" />
    </filter>
    <filter
       id="filter8"
       y="-0.21639666"
       width="3.6865423"
       x="-1.3434435"
       height="1.4327933">
      <feGaussianBlur
         id="feGaussianBlur8"
         stdDeviation="1.9060346"
         inkscape:collect="always" />
    </filter>
    <filter
       id="filter10"
       y="-0.21639666"
       width="3.6865423"
       x="-1.3434435"
       height="1.4327933">
      <feGaussianBlur
         id="feGaussianBlur10"
         stdDeviation="1.9060346"
         inkscape:collect="always" />
    </filter>
    <filter
       id="filter12"
       y="-0.21639666"
       width="3.6865423"
       x="-1.3434435"
       height="1.4327933">
      <feGaussianBlur
         id="feGaussianBlur12"
         stdDeviation="1.9060346"
         inkscape:collect="always" />
    </filter>
    <radialGradient
       id="radialGradient3216"
       xlink:href="#linearGradient3201"
       gradientUnits="userSpaceOnUse"
       cy="630.27002"
       cx="369.81"
       gradientTransform="matrix(0.49228,-0.031333,0.15946,2.5054,88.159,-945.09)"
       r="7.5391998" />
    <filter
       id="filter14"
       y="-0.21639666"
       width="3.6865423"
       x="-1.3434435"
       height="1.4327933">
      <feGaussianBlur
         id="feGaussianBlur14"
         stdDeviation="1.9060346"
         inkscape:collect="always" />
    </filter>
  </defs>
  <g
     inkscape:label="Layer 1"
     inkscape:groupmode="layer"
     id="layer1"
     transform="translate(-103.45208,-100.0125)">
    <g
       id="layer1-8"
       transform="matrix(0.24561479,0,0,0.24551513,58.653115,-40.245216)">
      <path
         id="path3330"
         style="display:inline;fill:#d2a536"
         d="m 203.57,662.07 c -3.2,-10.63 -19.75,-8.16 -21.13,-4.22 -0.62,4.56 5.36,8.07 7.93,13.11 3.32,6.51 -0.79,8.29 6.51,21.04" />
      <g
         id="g3209"
         transform="translate(-161.61,35.205)">
        <path
           id="rect3170"
           style="fill:#f1c353;stroke:#f1c353;stroke-width:1.2;stroke-linecap:round;stroke-linejoin:round"
           d="m 360.29,608.62 c 2.49,-2.85 7.63,-1.52 12.14,-1.18 v 40.48 c -1.99,8.27 -8.8,8.2 -13.87,11.14 v -37.58 c 1.79,-3.15 0.39,-10.36 1.73,-12.86 z" />
        <path
           id="path3168"
           style="fill:none;stroke:#ffd775;stroke-width:1.2;stroke-linecap:round;stroke-linejoin:round"
           d="m 370.34,611.11 c -4.57,5.95 4.96,34.94 1.27,40.25 -2.12,3.04 -6.1,5.43 -10.39,6.9" />
        <path
           id="path2396"
           style="fill:none;stroke:#eeb945;stroke-width:1.2;stroke-linecap:round;stroke-linejoin:round"
           d="m 371.29,607.31 c -5.71,-0.9 -9.12,-1.07 -10.72,1.01 -2.27,2.93 -0.92,7.39 -2.03,14.7" />
      </g>
      <g
         id="g3218"
         transform="translate(-146.61,25.205)">
        <path
           id="path3220"
           style="display:inline;fill:#f1c353;stroke:#f1c353;stroke-width:1.2;stroke-linecap:round;stroke-linejoin:round"
           d="m 360.29,608.62 c 2.49,-2.85 7.63,-1.52 12.14,-1.18 v 40.48 c -1.99,8.27 -8.8,8.2 -13.87,11.14 v -37.58 c 1.79,-3.15 0.39,-10.36 1.73,-12.86 z" />
        <path
           id="path3224"
           style="fill:none;stroke:#ffd775;stroke-width:1.2;stroke-linecap:round;stroke-linejoin:round"
           d="m 370.34,611.11 c -4.57,5.95 4.96,34.94 1.27,40.25 -2.12,3.04 -6.1,5.43 -10.39,6.9" />
        <path
           id="path3226"
           style="fill:none;stroke:#eeb945;stroke-width:1.2;stroke-linecap:round;stroke-linejoin:round"
           d="m 371.29,607.31 c -5.71,-0.9 -9.12,-1.07 -10.72,1.01 -2.27,2.93 -0.92,7.39 -2.03,14.7" />
      </g>
      <g
         id="g3244"
         transform="translate(-131.61,15.205)">
        <path
           id="path3246"
           style="fill:#f1c353;stroke:#f1c353;stroke-width:1.2;stroke-linecap:round;stroke-linejoin:round"
           d="m 360.29,608.62 c 2.49,-2.85 7.63,-1.52 12.14,-1.18 v 40.48 c -1.99,8.27 -8.8,8.2 -13.87,11.14 v -37.58 c 1.79,-3.15 0.39,-10.36 1.73,-12.86 z" />
        <path
           id="path3250"
           style="display:inline;fill:none;stroke:#ffd775;stroke-width:1.2;stroke-linecap:round;stroke-linejoin:round"
           d="m 370.34,611.11 c -4.57,5.95 4.96,34.94 1.27,40.25 -2.12,3.04 -6.1,5.43 -10.39,6.9" />
        <path
           id="path3252"
           style="fill:none;stroke:#eeb945;stroke-width:1.2;stroke-linecap:round;stroke-linejoin:round"
           d="m 371.29,607.31 c -5.71,-0.9 -9.12,-1.07 -10.72,1.01 -2.27,2.93 -0.92,7.39 -2.03,14.7" />
      </g>
      <g
         id="g3258"
         transform="translate(-116.61,5.2046)">
        <path
           id="path3260"
           style="fill:#f1c353;stroke:#f1c353;stroke-width:1.2;stroke-linecap:round;stroke-linejoin:round"
           d="m 360.29,608.62 c 2.49,-2.85 7.63,-1.52 12.14,-1.18 v 40.48 c -1.99,8.27 -8.8,8.2 -13.87,11.14 v -37.58 c 1.79,-3.15 0.39,-10.36 1.73,-12.86 z" />
        <path
           id="path3264"
           style="display:inline;fill:none;stroke:#ffd775;stroke-width:1.2;stroke-linecap:round;stroke-linejoin:round"
           d="m 370.34,611.11 c -4.57,5.95 4.96,34.94 1.27,40.25 -2.12,3.04 -6.1,5.43 -10.39,6.9" />
        <path
           id="path3266"
           style="display:inline;fill:none;stroke:#eeb945;stroke-width:1.2;stroke-linecap:round;stroke-linejoin:round"
           d="m 371.29,607.31 c -5.71,-0.9 -9.12,-1.07 -10.72,1.01 -2.27,2.93 -0.92,7.39 -2.03,14.7" />
      </g>
      <g
         id="g3272"
         transform="translate(-101.61,-4.7954)">
        <path
           id="path3274"
           style="fill:#f1c353;stroke:#f1c353;stroke-width:1.2;stroke-linecap:round;stroke-linejoin:round"
           d="m 360.29,608.62 c 2.49,-2.85 7.63,-1.52 12.14,-1.18 v 40.48 c -1.99,8.27 -8.8,8.2 -13.87,11.14 v -37.58 c 1.79,-3.15 0.39,-10.36 1.73,-12.86 z" />
        <path
           id="path3278"
           style="fill:none;stroke:#ffd775;stroke-width:1.2;stroke-linecap:round;stroke-linejoin:round"
           d="m 370.34,611.11 c -4.57,5.95 4.96,34.94 1.27,40.25 -2.12,3.04 -6.1,5.43 -10.39,6.9" />
        <path
           id="path3280"
           style="fill:none;stroke:#eeb945;stroke-width:1.2;stroke-linecap:round;stroke-linejoin:round"
           d="m 371.29,607.31 c -5.71,-0.9 -9.12,-1.07 -10.72,1.01 -2.27,2.93 -0.92,7.39 -2.03,14.7" />
      </g>
      <g
         id="g3286"
         transform="translate(-86.608,-14.795)">
        <path
           id="path3288"
           style="fill:#f1c353;stroke:#f1c353;stroke-width:1.2;stroke-linecap:round;stroke-linejoin:round"
           d="m 360.29,608.62 c 2.49,-2.85 7.63,-1.52 12.14,-1.18 v 40.48 c -1.99,8.27 -8.8,8.2 -13.87,11.14 v -37.58 c 1.79,-3.15 0.39,-10.36 1.73,-12.86 z" />
        <path
           id="path3292"
           style="display:inline;fill:none;stroke:#ffd775;stroke-width:1.2;stroke-linecap:round;stroke-linejoin:round"
           d="m 370.34,611.11 c -4.57,5.95 4.96,34.94 1.27,40.25 -2.12,3.04 -6.1,5.43 -10.39,6.9" />
        <path
           id="path3294"
           style="display:inline;fill:none;stroke:#eeb945;stroke-width:1.2;stroke-linecap:round;stroke-linejoin:round"
           d="m 371.29,607.31 c -5.71,-0.9 -9.12,-1.07 -10.72,1.01 -2.27,2.93 -0.92,7.39 -2.03,14.7" />
      </g>
      <g
         id="g3300"
         transform="translate(-71.608,-24.795)">
        <path
           id="path3302"
           style="display:inline;fill:#f1c353;stroke:#f1c353;stroke-width:1.2;stroke-linecap:round;stroke-linejoin:round"
           d="m 360.29,608.62 c 2.49,-2.85 7.63,-1.52 12.14,-1.18 v 40.48 c -1.99,8.27 -8.8,8.2 -13.87,11.14 v -37.58 c 1.79,-3.15 0.39,-10.36 1.73,-12.86 z" />
        <path
           id="path3306"
           style="display:inline;fill:none;stroke:#ffd775;stroke-width:1.2;stroke-linecap:round;stroke-linejoin:round"
           d="m 370.34,611.11 c -4.57,5.95 4.96,34.94 1.27,40.25 -2.12,3.04 -6.1,5.43 -10.39,6.9" />
        <path
           id="path3308"
           style="display:inline;fill:none;stroke:#eeb945;stroke-width:1.2;stroke-linecap:round;stroke-linejoin:round"
           d="m 371.29,607.31 c -5.71,-0.9 -9.12,-1.07 -10.72,1.01 -2.27,2.93 -0.92,7.39 -2.03,14.7" />
      </g>
      <path
         id="path3328"
         style="display:inline;fill:#d2a536"
         d="m 309.86,603.77 c 3.2,10.63 19.75,8.17 21.13,4.23 0.61,-4.56 -5.36,-8.07 -7.94,-13.12 -3.32,-6.5 0.79,-8.29 -6.5,-21.04" />
      <g
         id="g3314"
         transform="translate(-56.608,-34.795)"
         style="display:inline">
        <path
           id="path3316"
           style="display:inline;fill:#f1c353;stroke:#f1c353;stroke-width:1.2;stroke-linecap:round;stroke-linejoin:round"
           d="m 360.29,608.62 c 2.49,-2.85 7.63,-1.52 12.14,-1.18 v 40.48 c -1.99,8.27 -8.8,8.2 -13.87,11.14 v -37.58 c 1.79,-3.15 0.39,-10.36 1.73,-12.86 z" />
        <path
           id="path3320"
           style="display:inline;fill:none;stroke:#ffd775;stroke-width:1.2;stroke-linecap:round;stroke-linejoin:round"
           d="m 370.34,611.11 c -4.57,5.95 4.96,34.94 1.27,40.25 -2.12,3.04 -6.1,5.43 -10.39,6.9" />
        <path
           id="path3322"
           style="display:inline;fill:none;stroke:#eeb945;stroke-width:1.2;stroke-linecap:round;stroke-linejoin:round"
           d="m 371.29,607.31 c -5.71,-0.9 -9.12,-1.07 -10.72,1.01 -2.27,2.93 -0.92,7.39 -2.03,14.7" />
      </g>
    </g>
  </g>
</svg>
