<?xml version="1.0" encoding="UTF-8" standalone="no"?>
<svg
   id="svg2"
   height="360.89pt"
   sodipodi:version="0.32"
   width="465.28pt"
   version="1.0"
   sodipodi:docname="plate.svg"
   inkscape:version="1.3 (0e150ed6c4, 2023-07-21)"
   xmlns:inkscape="http://www.inkscape.org/namespaces/inkscape"
   xmlns:sodipodi="http://sodipodi.sourceforge.net/DTD/sodipodi-0.dtd"
   xmlns="http://www.w3.org/2000/svg"
   xmlns:svg="http://www.w3.org/2000/svg"
   xmlns:rdf="http://www.w3.org/1999/02/22-rdf-syntax-ns#"
   xmlns:cc="http://creativecommons.org/ns#"
   xmlns:dc="http://purl.org/dc/elements/1.1/">
  <defs
     id="defs1" />
  <sodipodi:namedview
     id="base"
     bordercolor="#666666"
     borderopacity="1.0"
     pagecolor="#ffffff"
     inkscape:showpageshadow="2"
     inkscape:pageopacity="0.0"
     inkscape:pagecheckerboard="0"
     inkscape:deskcolor="#d1d1d1"
     inkscape:document-units="pt"
     inkscape:zoom="1.6147579"
     inkscape:cx="310.26323"
     inkscape:cy="240.59334"
     inkscape:window-width="1920"
     inkscape:window-height="991"
     inkscape:window-x="-9"
     inkscape:window-y="-9"
     inkscape:window-maximized="1"
     inkscape:current-layer="layer1" />
  <g
     id="layer1">
    <path
       id="path3150"
       d="m23.419 154.38c0 29.01 25.46 137.75 31.846 162.98 4.719 18.64 11.91 37.82 20.267 54.32 11.025 21.78 37.158 29.19 57.898 34.31 29.99 7.4 64.72 8.58 95.55 8.58 29.01 0 61.03-9.27 88.87-16.15 6.82-1.68 24.62-3.81 31.38-5.71 26.26-7.42 39.71-14.06 67.93-21.03 19.19-4.74 39.26-16.93 55.01-28.59 19.52-14.46 34.83-32.52 49.22-51.47 2.89-3.81 5.79-7.62 8.68-11.43 11.11-14.63 17.37-39.13 17.37-57.19 0-21.96 2.94-38.5-5.79-60.04-8.59-21.21-27.49-35.73-43.42-51.46-18.95-18.71-33.49-37.893-55.89-48.951-22.84-11.278-55.88-11.727-81.06-20.015-31.74-10.446-70.09-13.953-103.35-13.953h-75.28c-25.82 0-23.13 4.035-47.86 8.92-17.46 3.449-111.37 83.169-111.37 116.88z"
       sodipodi:nodetypes="csssssssssssssssssss"
       fill="#fff290"
       fill-rule="evenodd"
       inkscape:label="path3150"
       style="fill:#703400;fill-opacity:1" />
    <path
       id="path1307"
       sodipodi:rx="171.42857"
       sodipodi:ry="142.85715"
       sodipodi:type="arc"
       sodipodi:start="0.71065329"
       sodipodi:open="true"
       stroke-linecap="round"
       transform="matrix(1.0078,0,0,1.2093,-132.13,-219.5)"
       stroke="#000000"
       sodipodi:cy="360.93362"
       sodipodi:cx="422.85715"
       stroke-miterlimit="0"
       fill="none"
       stroke-width="11.3"
       sodipodi:end="5.2610102"
       d="M 552.78901,454.12349 A 171.42857,142.85715 0 0 1 318.20667,474.08309 171.42857,142.85715 0 0 1 281.62629,279.96038 171.42857,142.85715 0 0 1 512.25908,239.04157"
       sodipodi:arc-type="arc"
       style="display:inline;fill:#723500;fill-opacity:1;stroke:#ffffff;stroke-opacity:1" />
    <path
       id="path2182"
       sodipodi:rx="171.42857"
       sodipodi:ry="142.85715"
       sodipodi:type="arc"
       sodipodi:start="3.8342633"
       sodipodi:open="true"
       stroke-linecap="round"
       transform="matrix(.75036 0 0 .89940 -22.568 -111.21)"
       stroke="#000"
       sodipodi:cy="360.93362"
       sodipodi:cx="422.85715"
       stroke-miterlimit="0"
       fill="none"
       stroke-width="11.3"
       sodipodi:end="7.8537776"
       d="m290.94 269.71a171.43 142.86 0 1 1 131.95 234.08"
       style="stroke:#ffffff;stroke-opacity:1" />
    <path
       id="path4031"
       d="m 427.24191,139.40998 0.72412,-43.827491 c 0,0 -1.07909,-8.765101 9.05861,-8.765101 9.78273,0 7.96533,8.765101 7.96533,8.765101 l -0.35496,43.827491 c 0,0 -1.09328,4.37957 7.24121,4.63836 8.33449,0.25879 6.88625,-4.89715 6.88625,-4.89715 l -0.35496,-43.053107 c 0,0 -0.73832,-9.280695 7.96533,-9.280695 8.68945,0 6.88625,9.538492 6.88625,9.538492 v 44.07932 c 0,0 2.7119,3.80226 8.68945,3.61314 5.97755,-0.19907 6.97144,-3.67286 7.15602,-3.58328 l 0.80931,-43.851383 c 0,0 0,-9.280695 7.61037,-9.538492 7.61037,-0.257797 7.61037,9.538492 7.61037,9.538492 l -0.36916,46.399493 c 0,0 4.06076,37.48509 -20.70134,40.01329 -21.92241,2.2296 8.64686,133.31793 0.46855,137.21972 -7.72396,3.69277 -9.66915,4.33975 -16.91036,4.59854 -7.24121,0.2588 -14.32624,-1.59257 -18.95493,-5.32515 -8.53327,-6.87791 18.57157,-135.59729 2.17236,-137.25953 -21.35447,-2.16987 -23.95279,-43.10885 -23.59782,-42.85006 z"
       sodipodi:nodetypes="cczccsccscczccsccsszssc"
       stroke="#000"
       stroke-width="6.99372"
       fill="none"
       style="stroke:#ffffff;stroke-opacity:1;stroke-width:3.66;stroke-dasharray:none" />
    <path
       id="path8399"
       d="m 54.336639,111.37623 c 7.647598,-13.189266 23.225875,-15.349525 30.023124,-15.349525 6.798358,0 25.110857,1.471133 30.306207,16.388205 5.26195,15.10084 2.8863,84.1732 -16.475255,86.69999 -17.140212,2.23716 6.762835,133.78025 0.371889,137.69529 -6.045699,3.69531 -7.558789,4.34448 -13.223718,4.60415 -5.664929,0.25968 -10.646025,-0.57926 -14.265008,-4.3345 C 64.406513,330.1786 85.036934,201.53183 72.220629,199.86395 55.521134,197.68671 46.68904,124.56949 54.336639,111.37623 Z"
       sodipodi:nodetypes="csssszsss"
       stroke="#000"
       stroke-width="6.19452"
       fill="none"
       style="stroke:#ffffff;stroke-opacity:1;stroke-width:3.66133333;stroke-dasharray:none" />
    <path
       id="path8401"
       sodipodi:rx="16.920055"
       sodipodi:ry="33.367611"
       sodipodi:type="arc"
       sodipodi:start="4.6031352"
       sodipodi:open="true"
       stroke-linecap="round"
       stroke="#000000"
       sodipodi:cy="146.1217"
       sodipodi:cx="89.1633"
       fill="none"
       stroke-width="6.56818"
       sodipodi:end="1.6264896"
       d="m 87.318395,112.95304 a 16.920055,33.367611 0 0 1 16.017615,14.9419 16.920055,33.367611 0 0 1 0.47447,34.93111 16.920055,33.367611 0 0 1 -15.589027,16.61153"
       sodipodi:arc-type="arc"
       style="display:inline;stroke:#ffffff;stroke-opacity:1" />
  </g>
  <metadata
     id="metadata1">
    <rdf:RDF>
      <cc:Work>
        <dc:format>image/svg+xml</dc:format>
        <dc:type
           rdf:resource="http://purl.org/dc/dcmitype/StillImage" />
        <cc:license
           rdf:resource="http://creativecommons.org/licenses/publicdomain/" />
        <dc:publisher>
          <cc:Agent
             rdf:about="http://openclipart.org/">
            <dc:title>Openclipart</dc:title>
          </cc:Agent>
        </dc:publisher>
        <dc:title>Dinner Plate with Spoon and Fork</dc:title>
        <dc:date>2007-03-22T20:26:09</dc:date>
        <dc:description>A basic plate with a spoon and fork. It was drawn very quickly and is meant to be simplistic yet elegant.</dc:description>
        <dc:source>http://openclipart.org/detail/3641/dinner-plate-with-spoon-and-fork-by-iammisc</dc:source>
        <dc:creator>
          <cc:Agent>
            <dc:title>iammisc</dc:title>
          </cc:Agent>
        </dc:creator>
        <dc:subject>
          <rdf:Bag>
            <rdf:li>clip art</rdf:li>
            <rdf:li>clipart</rdf:li>
            <rdf:li>dinner</rdf:li>
            <rdf:li>food</rdf:li>
            <rdf:li>fork</rdf:li>
            <rdf:li>image</rdf:li>
            <rdf:li>line art</rdf:li>
            <rdf:li>media</rdf:li>
            <rdf:li>plate</rdf:li>
            <rdf:li>spoon</rdf:li>
          </rdf:Bag>
        </dc:subject>
      </cc:Work>
      <cc:License
         rdf:about="http://creativecommons.org/licenses/publicdomain/">
        <cc:permits
           rdf:resource="http://creativecommons.org/ns#Reproduction" />
        <cc:permits
           rdf:resource="http://creativecommons.org/ns#Distribution" />
        <cc:permits
           rdf:resource="http://creativecommons.org/ns#DerivativeWorks" />
      </cc:License>
    </rdf:RDF>
  </metadata>
</svg>
