<?xml version="1.0" encoding="UTF-8" standalone="no"?>
<!-- Created with Inkscape (http://www.inkscape.org/) -->

<svg
   id="svg2"
   xml:space="preserve"
   viewBox="0 0 53.59 23.216"
   version="1.1"
   inkscape:version="1.3 (0e150ed6c4, 2023-07-21)"
   sodipodi:docname="salmon.svg"
   xmlns:inkscape="http://www.inkscape.org/namespaces/inkscape"
   xmlns:sodipodi="http://sodipodi.sourceforge.net/DTD/sodipodi-0.dtd"
   xmlns="http://www.w3.org/2000/svg"
   xmlns:svg="http://www.w3.org/2000/svg"
   xmlns:rdf="http://www.w3.org/1999/02/22-rdf-syntax-ns#"
   xmlns:cc="http://creativecommons.org/ns#"
   xmlns:dc="http://purl.org/dc/elements/1.1/"><sodipodi:namedview
   id="namedview1"
   pagecolor="#ffffff"
   bordercolor="#000000"
   borderopacity="0.25"
   inkscape:showpageshadow="2"
   inkscape:pageopacity="0.0"
   inkscape:pagecheckerboard="0"
   inkscape:deskcolor="#d1d1d1"
   inkscape:zoom="25.265908"
   inkscape:cx="26.834579"
   inkscape:cy="12.210129"
   inkscape:window-width="1920"
   inkscape:window-height="991"
   inkscape:window-x="-9"
   inkscape:window-y="-9"
   inkscape:window-maximized="1"
   inkscape:current-layer="g12" />&#10;  <defs
   id="defs6">&#10;    <clipPath
   id="clipPath20">&#10;      <path
   id="path22"
   d="m32 6.5728h11v7h-11v-7z"
   inkscape:connector-curvature="0" />&#10;    </clipPath>&#10;    <mask
   id="mask24">&#10;      <g
   id="g26">&#10;        <g
   id="g28"
   clip-path="url(#clipPath20)">&#10;          <path
   id="path30"
   style="fill:#000000;fill-opacity:.26170"
   d="m32 6.5728h11v7h-11v-7z"
   inkscape:connector-curvature="0" />&#10;        </g>&#10;      </g>&#10;    </mask>&#10;    <clipPath
   id="clipPath36">&#10;      <path
   id="path38"
   d="m32 6.5728h11v7h-11v-7z"
   inkscape:connector-curvature="0" />&#10;    </clipPath>&#10;    <clipPath
   id="clipPath40">&#10;      <path
   id="path42"
   d="m32 7h11v7h-11v-7z"
   inkscape:connector-curvature="0" />&#10;    </clipPath>&#10;    <clipPath
   id="clipPath66">&#10;      <path
   id="path68"
   d="m9 6.5728h25v5h-25v-5z"
   inkscape:connector-curvature="0" />&#10;    </clipPath>&#10;    <mask
   id="mask70">&#10;      <g
   id="g72">&#10;        <g
   id="g74"
   clip-path="url(#clipPath66)">&#10;          <path
   id="path76"
   style="fill:#000000;fill-opacity:.26170"
   d="m9 6.5728h25v5h-25v-5z"
   inkscape:connector-curvature="0" />&#10;        </g>&#10;      </g>&#10;    </mask>&#10;    <clipPath
   id="clipPath82">&#10;      <path
   id="path84"
   d="m9 6.5728h25v5h-25v-5z"
   inkscape:connector-curvature="0" />&#10;    </clipPath>&#10;    <clipPath
   id="clipPath86">&#10;      <path
   id="path88"
   d="m9 7h25v5h-25v-5z"
   inkscape:connector-curvature="0" />&#10;    </clipPath>&#10;    <clipPath
   id="clipPath130">&#10;      <path
   id="path132"
   d="m9 8.5728h34v8h-34v-8z"
   inkscape:connector-curvature="0" />&#10;    </clipPath>&#10;    <mask
   id="mask134">&#10;      <g
   id="g136">&#10;        <g
   id="g138"
   clip-path="url(#clipPath130)">&#10;          <path
   id="path140"
   style="fill:#000000;fill-opacity:.25"
   d="m9 8.5728h34v8h-34v-8z"
   inkscape:connector-curvature="0" />&#10;        </g>&#10;      </g>&#10;    </mask>&#10;    <clipPath
   id="clipPath146">&#10;      <path
   id="path148"
   d="m9 8.5728h34v8h-34v-8z"
   inkscape:connector-curvature="0" />&#10;    </clipPath>&#10;    <clipPath
   id="clipPath150">&#10;      <path
   id="path152"
   d="m9 9h34v8h-34v-8z"
   inkscape:connector-curvature="0" />&#10;    </clipPath>&#10;    <radialGradient
   id="radialGradient158"
   gradientUnits="userSpaceOnUse"
   cy="-4714.6"
   cx="-2851.6"
   gradientTransform="matrix(.60221 -.31586 -.31586 -.60221 248.76 -3718.1)"
   r="31.434">&#10;      <stop
   id="stop160"
   style="stop-color:#ffffff"
   offset="0" />&#10;      <stop
   id="stop162"
   style="stop-color:#fdfdfd"
   offset=".3725" />&#10;      <stop
   id="stop164"
   style="stop-color:#f6f6f6"
   offset=".50590" />&#10;      <stop
   id="stop166"
   style="stop-color:#ebebeb"
   offset=".60390" />&#10;      <stop
   id="stop168"
   style="stop-color:#dadada"
   offset=".67840" />&#10;      <stop
   id="stop170"
   style="stop-color:#c4c4c4"
   offset=".74510" />&#10;      <stop
   id="stop172"
   style="stop-color:#a8a8a8"
   offset=".8039" />&#10;      <stop
   id="stop174"
   style="stop-color:#888888"
   offset=".85880" />&#10;      <stop
   id="stop176"
   style="stop-color:#626262"
   offset=".9059" />&#10;      <stop
   id="stop178"
   style="stop-color:#373737"
   offset=".95290" />&#10;      <stop
   id="stop180"
   style="stop-color:#090909"
   offset=".99220" />&#10;      <stop
   id="stop182"
   style="stop-color:#000000"
   offset="1" />&#10;    </radialGradient>&#10;    <clipPath
   id="clipPath212">&#10;      <path
   id="path214"
   d="m22-0.42723h12v8h-12v-8z"
   inkscape:connector-curvature="0" />&#10;    </clipPath>&#10;    <mask
   id="mask216">&#10;      <g
   id="g218">&#10;        <g
   id="g220"
   clip-path="url(#clipPath212)">&#10;          <path
   id="path222"
   style="fill:#000000;fill-opacity:.26170"
   d="m22-0.42723h12v8h-12v-8z"
   inkscape:connector-curvature="0" />&#10;        </g>&#10;      </g>&#10;    </mask>&#10;    <clipPath
   id="clipPath228">&#10;      <path
   id="path230"
   d="m22-0.42723h12v8h-12v-8z"
   inkscape:connector-curvature="0" />&#10;    </clipPath>&#10;    <clipPath
   id="clipPath232">&#10;      <path
   id="path234"
   d="m22 0h12v8h-12v-8z"
   inkscape:connector-curvature="0" />&#10;    </clipPath>&#10;    <clipPath
   id="clipPath258">&#10;      <path
   id="path260"
   d="m0-0.42723h24v8h-24v-8z"
   inkscape:connector-curvature="0" />&#10;    </clipPath>&#10;    <mask
   id="mask262">&#10;      <g
   id="g264">&#10;        <g
   id="g266"
   clip-path="url(#clipPath258)">&#10;          <path
   id="path268"
   style="fill:#000000;fill-opacity:.26170"
   d="m0-0.42723h24v8h-24v-8z"
   inkscape:connector-curvature="0" />&#10;        </g>&#10;      </g>&#10;    </mask>&#10;    <clipPath
   id="clipPath274">&#10;      <path
   id="path276"
   d="m0-0.42723h24v8h-24v-8z"
   inkscape:connector-curvature="0" />&#10;    </clipPath>&#10;    <clipPath
   id="clipPath278">&#10;      <path
   id="path280"
   d="m0 0h24v8h-24v-8z"
   inkscape:connector-curvature="0" />&#10;    </clipPath>&#10;    <clipPath
   id="clipPath322">&#10;      <path
   id="path324"
   d="m0 2.5728h34v11h-34v-11z"
   inkscape:connector-curvature="0" />&#10;    </clipPath>&#10;    <mask
   id="mask326">&#10;      <g
   id="g328">&#10;        <g
   id="g330"
   clip-path="url(#clipPath322)">&#10;          <path
   id="path332"
   style="fill:#000000;fill-opacity:.30080"
   d="m0 2.5728h34v11h-34v-11z"
   inkscape:connector-curvature="0" />&#10;        </g>&#10;      </g>&#10;    </mask>&#10;    <clipPath
   id="clipPath338">&#10;      <path
   id="path340"
   d="m0 2.5728h34v11h-34v-11z"
   inkscape:connector-curvature="0" />&#10;    </clipPath>&#10;    <clipPath
   id="clipPath342">&#10;      <path
   id="path344"
   d="m0 3h34v11h-34v-11z"
   inkscape:connector-curvature="0" />&#10;    </clipPath>&#10;    <radialGradient
   id="radialGradient350"
   gradientUnits="userSpaceOnUse"
   cy="-14322"
   cx="-1600.4"
   gradientTransform="matrix(.14899 -.66348 -.66348 -.14899 -9244.9 -3176.5)"
   r="24.136">&#10;      <stop
   id="stop352"
   style="stop-color:#ffffff"
   offset="0" />&#10;      <stop
   id="stop354"
   style="stop-color:#fdfdfd"
   offset=".3725" />&#10;      <stop
   id="stop356"
   style="stop-color:#f6f6f6"
   offset=".50590" />&#10;      <stop
   id="stop358"
   style="stop-color:#ebebeb"
   offset=".60390" />&#10;      <stop
   id="stop360"
   style="stop-color:#dadada"
   offset=".67840" />&#10;      <stop
   id="stop362"
   style="stop-color:#c4c4c4"
   offset=".74510" />&#10;      <stop
   id="stop364"
   style="stop-color:#a8a8a8"
   offset=".8039" />&#10;      <stop
   id="stop366"
   style="stop-color:#888888"
   offset=".85880" />&#10;      <stop
   id="stop368"
   style="stop-color:#626262"
   offset=".9059" />&#10;      <stop
   id="stop370"
   style="stop-color:#373737"
   offset=".95290" />&#10;      <stop
   id="stop372"
   style="stop-color:#090909"
   offset=".99220" />&#10;      <stop
   id="stop374"
   style="stop-color:#000000"
   offset="1" />&#10;    </radialGradient>&#10;    <clipPath
   id="clipPath402">&#10;      <path
   id="path404"
   d="m11 3.5728h24v11h-24v-11z"
   inkscape:connector-curvature="0" />&#10;    </clipPath>&#10;    <mask
   id="mask406">&#10;      <g
   id="g408">&#10;        <g
   id="g410"
   clip-path="url(#clipPath402)">&#10;          <path
   id="path412"
   style="fill:#000000;fill-opacity:.80080"
   d="m11 3.5728h24v11h-24v-11z"
   inkscape:connector-curvature="0" />&#10;        </g>&#10;      </g>&#10;    </mask>&#10;    <clipPath
   id="clipPath418">&#10;      <path
   id="path420"
   d="m11 3.5728h24v11h-24v-11z"
   inkscape:connector-curvature="0" />&#10;    </clipPath>&#10;    <clipPath
   id="clipPath422">&#10;      <path
   id="path424"
   d="m11 4h24v11h-24v-11z"
   inkscape:connector-curvature="0" />&#10;    </clipPath>&#10;    <clipPath
   id="clipPath454">&#10;      <path
   id="path456"
   d="m11 10.573h18v7h-18v-7z"
   inkscape:connector-curvature="0" />&#10;    </clipPath>&#10;    <mask
   id="mask458">&#10;      <g
   id="g460">&#10;        <g
   id="g462"
   clip-path="url(#clipPath454)">&#10;          <path
   id="path464"
   style="fill:#000000;fill-opacity:.62110"
   d="m11 10.573h18v7h-18v-7z"
   inkscape:connector-curvature="0" />&#10;        </g>&#10;      </g>&#10;    </mask>&#10;    <clipPath
   id="clipPath470">&#10;      <path
   id="path472"
   d="m11 10.573h18v7h-18v-7z"
   inkscape:connector-curvature="0" />&#10;    </clipPath>&#10;    <clipPath
   id="clipPath474">&#10;      <path
   id="path476"
   d="m11 11h18v7h-18v-7z"
   inkscape:connector-curvature="0" />&#10;    </clipPath>&#10;    <clipPath
   id="clipPath542">&#10;      <path
   id="path544"
   d="m21 17.573h5v1h-5v-1z"
   inkscape:connector-curvature="0" />&#10;    </clipPath>&#10;    <mask
   id="mask546">&#10;      <g
   id="g548">&#10;        <g
   id="g550"
   clip-path="url(#clipPath542)">&#10;          <path
   id="path552"
   style="fill:#000000;fill-opacity:.42190"
   d="m21 17.573h5v1h-5v-1z"
   inkscape:connector-curvature="0" />&#10;        </g>&#10;      </g>&#10;    </mask>&#10;    <clipPath
   id="clipPath558">&#10;      <path
   id="path560"
   d="m21 17.573h5v1h-5v-1z"
   inkscape:connector-curvature="0" />&#10;    </clipPath>&#10;    <clipPath
   id="clipPath562">&#10;      <path
   id="path564"
   d="m21 18h5v1h-5v-1z"
   inkscape:connector-curvature="0" />&#10;    </clipPath>&#10;    <clipPath
   id="clipPath586">&#10;      <path
   id="path588"
   d="m23 16.573h3v1h-3v-1z"
   inkscape:connector-curvature="0" />&#10;    </clipPath>&#10;    <mask
   id="mask590">&#10;      <g
   id="g592">&#10;        <g
   id="g594"
   clip-path="url(#clipPath586)">&#10;          <path
   id="path596"
   style="fill:#000000;fill-opacity:.42190"
   d="m23 16.573h3v1h-3v-1z"
   inkscape:connector-curvature="0" />&#10;        </g>&#10;      </g>&#10;    </mask>&#10;    <clipPath
   id="clipPath602">&#10;      <path
   id="path604"
   d="m23 16.573h3v1h-3v-1z"
   inkscape:connector-curvature="0" />&#10;    </clipPath>&#10;    <clipPath
   id="clipPath606">&#10;      <path
   id="path608"
   d="m23 17h3v1h-3v-1z"
   inkscape:connector-curvature="0" />&#10;    </clipPath>&#10;    <clipPath
   id="clipPath630">&#10;      <path
   id="path632"
   d="m25 15.573h3v2h-3v-2z"
   inkscape:connector-curvature="0" />&#10;    </clipPath>&#10;    <mask
   id="mask634">&#10;      <g
   id="g636">&#10;        <g
   id="g638"
   clip-path="url(#clipPath630)">&#10;          <path
   id="path640"
   style="fill:#000000;fill-opacity:.42190"
   d="m25 15.573h3v2h-3v-2z"
   inkscape:connector-curvature="0" />&#10;        </g>&#10;      </g>&#10;    </mask>&#10;    <clipPath
   id="clipPath646">&#10;      <path
   id="path648"
   d="m25 15.573h3v2h-3v-2z"
   inkscape:connector-curvature="0" />&#10;    </clipPath>&#10;    <clipPath
   id="clipPath650">&#10;      <path
   id="path652"
   d="m25 16h3v2h-3v-2z"
   inkscape:connector-curvature="0" />&#10;    </clipPath>&#10;    <clipPath
   id="clipPath674">&#10;      <path
   id="path676"
   d="m26 15.573h3v2h-3v-2z"
   inkscape:connector-curvature="0" />&#10;    </clipPath>&#10;    <mask
   id="mask678">&#10;      <g
   id="g680">&#10;        <g
   id="g682"
   clip-path="url(#clipPath674)">&#10;          <path
   id="path684"
   style="fill:#000000;fill-opacity:.42190"
   d="m26 15.573h3v2h-3v-2z"
   inkscape:connector-curvature="0" />&#10;        </g>&#10;      </g>&#10;    </mask>&#10;    <clipPath
   id="clipPath690">&#10;      <path
   id="path692"
   d="m26 15.573h3v2h-3v-2z"
   inkscape:connector-curvature="0" />&#10;    </clipPath>&#10;    <clipPath
   id="clipPath694">&#10;      <path
   id="path696"
   d="m26 16h3v2h-3v-2z"
   inkscape:connector-curvature="0" />&#10;    </clipPath>&#10;    <clipPath
   id="clipPath718">&#10;      <path
   id="path720"
   d="m26 15.573h4v2h-4v-2z"
   inkscape:connector-curvature="0" />&#10;    </clipPath>&#10;    <mask
   id="mask722">&#10;      <g
   id="g724">&#10;        <g
   id="g726"
   clip-path="url(#clipPath718)">&#10;          <path
   id="path728"
   style="fill:#000000;fill-opacity:.42190"
   d="m26 15.573h4v2h-4v-2z"
   inkscape:connector-curvature="0" />&#10;        </g>&#10;      </g>&#10;    </mask>&#10;    <clipPath
   id="clipPath734">&#10;      <path
   id="path736"
   d="m26 15.573h4v2h-4v-2z"
   inkscape:connector-curvature="0" />&#10;    </clipPath>&#10;    <clipPath
   id="clipPath738">&#10;      <path
   id="path740"
   d="m26 16h4v2h-4v-2z"
   inkscape:connector-curvature="0" />&#10;    </clipPath>&#10;    <clipPath
   id="clipPath762">&#10;      <path
   id="path764"
   d="m26 16.573h3v2h-3v-2z"
   inkscape:connector-curvature="0" />&#10;    </clipPath>&#10;    <mask
   id="mask766">&#10;      <g
   id="g768">&#10;        <g
   id="g770"
   clip-path="url(#clipPath762)">&#10;          <path
   id="path772"
   style="fill:#000000;fill-opacity:.42190"
   d="m26 16.573h3v2h-3v-2z"
   inkscape:connector-curvature="0" />&#10;        </g>&#10;      </g>&#10;    </mask>&#10;    <clipPath
   id="clipPath778">&#10;      <path
   id="path780"
   d="m26 16.573h3v2h-3v-2z"
   inkscape:connector-curvature="0" />&#10;    </clipPath>&#10;    <clipPath
   id="clipPath782">&#10;      <path
   id="path784"
   d="m26 17h3v2h-3v-2z"
   inkscape:connector-curvature="0" />&#10;    </clipPath>&#10;    <clipPath
   id="clipPath806">&#10;      <path
   id="path808"
   d="m24 17.573h3v1h-3v-1z"
   inkscape:connector-curvature="0" />&#10;    </clipPath>&#10;    <mask
   id="mask810">&#10;      <g
   id="g812">&#10;        <g
   id="g814"
   clip-path="url(#clipPath806)">&#10;          <path
   id="path816"
   style="fill:#000000;fill-opacity:.42190"
   d="m24 17.573h3v1h-3v-1z"
   inkscape:connector-curvature="0" />&#10;        </g>&#10;      </g>&#10;    </mask>&#10;    <clipPath
   id="clipPath822">&#10;      <path
   id="path824"
   d="m24 17.573h3v1h-3v-1z"
   inkscape:connector-curvature="0" />&#10;    </clipPath>&#10;    <clipPath
   id="clipPath826">&#10;      <path
   id="path828"
   d="m24 18h3v1h-3v-1z"
   inkscape:connector-curvature="0" />&#10;    </clipPath>&#10;    <clipPath
   id="clipPath850">&#10;      <path
   id="path852"
   d="m22 17.573h4v1h-4v-1z"
   inkscape:connector-curvature="0" />&#10;    </clipPath>&#10;    <mask
   id="mask854">&#10;      <g
   id="g856">&#10;        <g
   id="g858"
   clip-path="url(#clipPath850)">&#10;          <path
   id="path860"
   style="fill:#000000;fill-opacity:.42190"
   d="m22 17.573h4v1h-4v-1z"
   inkscape:connector-curvature="0" />&#10;        </g>&#10;      </g>&#10;    </mask>&#10;    <clipPath
   id="clipPath866">&#10;      <path
   id="path868"
   d="m22 17.573h4v1h-4v-1z"
   inkscape:connector-curvature="0" />&#10;    </clipPath>&#10;    <clipPath
   id="clipPath870">&#10;      <path
   id="path872"
   d="m22 18h4v1h-4v-1z"
   inkscape:connector-curvature="0" />&#10;    </clipPath>&#10;    <clipPath
   id="clipPath906">&#10;      <path
   id="path908"
   d="m13 13.573h6v2h-6v-2z"
   inkscape:connector-curvature="0" />&#10;    </clipPath>&#10;    <mask
   id="mask910">&#10;      <g
   id="g912">&#10;        <g
   id="g914"
   clip-path="url(#clipPath906)">&#10;          <path
   id="path916"
   style="fill:#000000;fill-opacity:.42190"
   d="m13 13.573h6v2h-6v-2z"
   inkscape:connector-curvature="0" />&#10;        </g>&#10;      </g>&#10;    </mask>&#10;    <clipPath
   id="clipPath922">&#10;      <path
   id="path924"
   d="m13 13.573h6v2h-6v-2z"
   inkscape:connector-curvature="0" />&#10;    </clipPath>&#10;    <clipPath
   id="clipPath926">&#10;      <path
   id="path928"
   d="m13 14h6v2h-6v-2z"
   inkscape:connector-curvature="0" />&#10;    </clipPath>&#10;    <clipPath
   id="clipPath950">&#10;      <path
   id="path952"
   d="m15 13.573h4v2h-4v-2z"
   inkscape:connector-curvature="0" />&#10;    </clipPath>&#10;    <mask
   id="mask954">&#10;      <g
   id="g956">&#10;        <g
   id="g958"
   clip-path="url(#clipPath950)">&#10;          <path
   id="path960"
   style="fill:#000000;fill-opacity:.42190"
   d="m15 13.573h4v2h-4v-2z"
   inkscape:connector-curvature="0" />&#10;        </g>&#10;      </g>&#10;    </mask>&#10;    <clipPath
   id="clipPath966">&#10;      <path
   id="path968"
   d="m15 13.573h4v2h-4v-2z"
   inkscape:connector-curvature="0" />&#10;    </clipPath>&#10;    <clipPath
   id="clipPath970">&#10;      <path
   id="path972"
   d="m15 14h4v2h-4v-2z"
   inkscape:connector-curvature="0" />&#10;    </clipPath>&#10;    <clipPath
   id="clipPath994">&#10;      <path
   id="path996"
   d="m18 12.573h3v3h-3v-3z"
   inkscape:connector-curvature="0" />&#10;    </clipPath>&#10;    <mask
   id="mask998">&#10;      <g
   id="g1000">&#10;        <g
   id="g1002"
   clip-path="url(#clipPath994)">&#10;          <path
   id="path1004"
   style="fill:#000000;fill-opacity:.42190"
   d="m18 12.573h3v3h-3v-3z"
   inkscape:connector-curvature="0" />&#10;        </g>&#10;      </g>&#10;    </mask>&#10;    <clipPath
   id="clipPath1010">&#10;      <path
   id="path1012"
   d="m18 12.573h3v3h-3v-3z"
   inkscape:connector-curvature="0" />&#10;    </clipPath>&#10;    <clipPath
   id="clipPath1014">&#10;      <path
   id="path1016"
   d="m18 13h3v3h-3v-3z"
   inkscape:connector-curvature="0" />&#10;    </clipPath>&#10;    <clipPath
   id="clipPath1038">&#10;      <path
   id="path1040"
   d="m18 12.573h5v3h-5v-3z"
   inkscape:connector-curvature="0" />&#10;    </clipPath>&#10;    <mask
   id="mask1042">&#10;      <g
   id="g1044">&#10;        <g
   id="g1046"
   clip-path="url(#clipPath1038)">&#10;          <path
   id="path1048"
   style="fill:#000000;fill-opacity:.42190"
   d="m18 12.573h5v3h-5v-3z"
   inkscape:connector-curvature="0" />&#10;        </g>&#10;      </g>&#10;    </mask>&#10;    <clipPath
   id="clipPath1054">&#10;      <path
   id="path1056"
   d="m18 12.573h5v3h-5v-3z"
   inkscape:connector-curvature="0" />&#10;    </clipPath>&#10;    <clipPath
   id="clipPath1058">&#10;      <path
   id="path1060"
   d="m18 13h5v3h-5v-3z"
   inkscape:connector-curvature="0" />&#10;    </clipPath>&#10;    <clipPath
   id="clipPath1082">&#10;      <path
   id="path1084"
   d="m19 13.573h4v2h-4v-2z"
   inkscape:connector-curvature="0" />&#10;    </clipPath>&#10;    <mask
   id="mask1086">&#10;      <g
   id="g1088">&#10;        <g
   id="g1090"
   clip-path="url(#clipPath1082)">&#10;          <path
   id="path1092"
   style="fill:#000000;fill-opacity:.42190"
   d="m19 13.573h4v2h-4v-2z"
   inkscape:connector-curvature="0" />&#10;        </g>&#10;      </g>&#10;    </mask>&#10;    <clipPath
   id="clipPath1098">&#10;      <path
   id="path1100"
   d="m19 13.573h4v2h-4v-2z"
   inkscape:connector-curvature="0" />&#10;    </clipPath>&#10;    <clipPath
   id="clipPath1102">&#10;      <path
   id="path1104"
   d="m19 14h4v2h-4v-2z"
   inkscape:connector-curvature="0" />&#10;    </clipPath>&#10;    <clipPath
   id="clipPath1126">&#10;      <path
   id="path1128"
   d="m18 14.573h3v2h-3v-2z"
   inkscape:connector-curvature="0" />&#10;    </clipPath>&#10;    <mask
   id="mask1130">&#10;      <g
   id="g1132">&#10;        <g
   id="g1134"
   clip-path="url(#clipPath1126)">&#10;          <path
   id="path1136"
   style="fill:#000000;fill-opacity:.42190"
   d="m18 14.573h3v2h-3v-2z"
   inkscape:connector-curvature="0" />&#10;        </g>&#10;      </g>&#10;    </mask>&#10;    <clipPath
   id="clipPath1142">&#10;      <path
   id="path1144"
   d="m18 14.573h3v2h-3v-2z"
   inkscape:connector-curvature="0" />&#10;    </clipPath>&#10;    <clipPath
   id="clipPath1146">&#10;      <path
   id="path1148"
   d="m18 15h3v2h-3v-2z"
   inkscape:connector-curvature="0" />&#10;    </clipPath>&#10;    <clipPath
   id="clipPath1170">&#10;      <path
   id="path1172"
   d="m16 14.573h3v2h-3v-2z"
   inkscape:connector-curvature="0" />&#10;    </clipPath>&#10;    <mask
   id="mask1174">&#10;      <g
   id="g1176">&#10;        <g
   id="g1178"
   clip-path="url(#clipPath1170)">&#10;          <path
   id="path1180"
   style="fill:#000000;fill-opacity:.42190"
   d="m16 14.573h3v2h-3v-2z"
   inkscape:connector-curvature="0" />&#10;        </g>&#10;      </g>&#10;    </mask>&#10;    <clipPath
   id="clipPath1186">&#10;      <path
   id="path1188"
   d="m16 14.573h3v2h-3v-2z"
   inkscape:connector-curvature="0" />&#10;    </clipPath>&#10;    <clipPath
   id="clipPath1190">&#10;      <path
   id="path1192"
   d="m16 15h3v2h-3v-2z"
   inkscape:connector-curvature="0" />&#10;    </clipPath>&#10;    <clipPath
   id="clipPath1214">&#10;      <path
   id="path1216"
   d="m14 14.573h5v2h-5v-2z"
   inkscape:connector-curvature="0" />&#10;    </clipPath>&#10;    <mask
   id="mask1218">&#10;      <g
   id="g1220">&#10;        <g
   id="g1222"
   clip-path="url(#clipPath1214)">&#10;          <path
   id="path1224"
   style="fill:#000000;fill-opacity:.42190"
   d="m14 14.573h5v2h-5v-2z"
   inkscape:connector-curvature="0" />&#10;        </g>&#10;      </g>&#10;    </mask>&#10;    <clipPath
   id="clipPath1230">&#10;      <path
   id="path1232"
   d="m14 14.573h5v2h-5v-2z"
   inkscape:connector-curvature="0" />&#10;    </clipPath>&#10;    <clipPath
   id="clipPath1234">&#10;      <path
   id="path1236"
   d="m14 15h5v2h-5v-2z"
   inkscape:connector-curvature="0" />&#10;    </clipPath>&#10;  </defs>&#10;  <g
   id="g10"
   transform="matrix(1.25 0 0 -1.25 0 23.216)">&#10;    <g
   id="g12"
   style="display:inline">&#10;      <path
   id="path14"
   style="display:inline;fill:#6b4607;fill-rule:evenodd"
   d="m 34.582,12.456 8.191,1.359 0.071,-1.496 C 40.305,10.643 38.297,9.338 36.824,8.409 L 33.801,6.573 31.148,8.819 Z"
   inkscape:connector-curvature="0" />&#10;      &#10;      <path
   id="path60"
   style="display:inline;fill:#613f09;fill-rule:evenodd"
   d="m 33.461,9.975 0.34,-3.398 C 27.949,7.549 23.328,8.432 19.926,9.229 16.867,9.928 13.512,10.53 9.863,11.03 c -0.16,0.137 -0.226,0.418 -0.203,0.847 0,0.25 0.043,0.454 0.137,0.614 0.043,0.09 0.09,0.148 0.133,0.172 l 6.496,1.597 z"
   inkscape:connector-curvature="0" />&#10;      &#10;      <path
   id="path106"
   style="display:inline;fill:#9e6a10;fill-rule:evenodd"
   d="m 42.773,13.815 -9.109,-4.93 c -5.918,0.887 -11.141,1.699 -15.676,2.449 l -8.054,1.329 c 1.039,0.519 2.617,1.269 4.722,2.242 1.203,0.566 2.438,1.109 3.707,1.633 4.785,-0.524 9.235,-1.032 13.364,-1.532 3.308,-0.386 6.992,-0.781 11.046,-1.191 z"
   inkscape:connector-curvature="0" />&#10;      <path
   id="path108"
   style="display:inline;fill:#bd7c13;fill-rule:evenodd"
   d="m 30.332,13.307 c 1.086,-0.316 2.449,-0.715 4.078,-1.191 1.34,-0.317 2.766,-0.485 4.285,-0.508 l -0.578,-0.34 c -1.453,0.09 -3.058,0.316 -4.828,0.68 -0.996,0.203 -2.039,0.519 -3.129,0.949 -0.769,0.344 -1.765,0.535 -2.992,0.578 -6.777,0.25 -10.891,0.442 -12.34,0.578 l -1.531,0.239 1.055,0.476 c 1.156,-0.156 3.285,-0.328 6.39,-0.508 1.293,-0.07 2.957,-0.125 5,-0.172 1.653,-0.113 3.184,-0.375 4.59,-0.781 z"
   inkscape:connector-curvature="0" />&#10;      <path
   id="path110"
   style="display:inline;fill:#bd7c13;fill-rule:evenodd"
   d="m 30.398,11.167 c 0.77,-0.071 1.973,-0.102 3.606,-0.102 1.473,0 2.605,-0.059 3.398,-0.172 l -1.359,-0.75 c -1.043,0.274 -1.961,0.399 -2.754,0.375 -1.519,-0.066 -2.664,-0.066 -3.434,0 -1.222,0.113 -2.335,0.399 -3.332,0.852 -1.335,0.589 -2.128,0.929 -2.378,1.019 -0.59,0.18 -1.407,0.293 -2.45,0.34 -2.109,0.066 -3.84,0.125 -5.203,0.168 -2.558,0.09 -4.258,0.25 -5.097,0.477 l 0.851,0.41 c 0.859,-0.184 2.66,-0.309 5.402,-0.375 2.903,-0.09 4.637,-0.18 5.204,-0.274 0.5,-0.066 1.574,-0.394 3.23,-0.984 1.496,-0.52 2.934,-0.852 4.316,-0.984 z"
   inkscape:connector-curvature="0" />&#10;      <path
   id="path112"
   style="display:inline;fill:#bd7c13;fill-rule:evenodd"
   d="m 25.301,10.827 c 0.316,-0.16 0.793,-0.453 1.426,-0.887 l -2.176,0.34 c -0.5,0.5 -0.883,0.828 -1.156,0.988 -0.497,0.316 -1.145,0.508 -1.938,0.578 -0.793,0.067 -2.004,0.102 -3.637,0.102 -1.859,-0.024 -3.07,-0.024 -3.636,0 l -4.254,0.715 0.578,0.269 c 3.242,-0.473 5.93,-0.668 8.058,-0.578 1.657,0.07 2.848,0.023 3.571,-0.137 0.703,-0.156 1.758,-0.621 3.164,-1.39 z"
   inkscape:connector-curvature="0" />&#10;      <path
   id="path114"
   style="display:inline;fill:#bd7c13;fill-rule:evenodd"
   d="M 35.023,9.6 34.004,9.057 c -0.41,0.047 -0.816,0.035 -1.223,-0.035 l -2.859,0.441 c 0.773,0.047 1.715,0.137 2.824,0.274 0.859,0.047 1.621,0 2.277,-0.137 z"
   inkscape:connector-curvature="0" />&#10;      <path
   id="path116"
   style="display:inline;fill:#bd7c13;fill-rule:evenodd"
   d="m 41.992,13.409 -0.578,-0.305 c -1.109,0.113 -2.594,0.328 -4.453,0.645 -1.18,0.203 -2.211,0.429 -3.094,0.679 -0.113,0.024 -0.715,0.203 -1.801,0.543 l 2.754,-0.304 c 2.742,-0.657 5.133,-1.075 7.172,-1.258 z"
   inkscape:connector-curvature="0" />&#10;      <path
   id="path118"
   style="display:inline;fill:#bd7c13;fill-rule:evenodd"
   d="m 29.855,14.393 c 4.395,-1.086 7.911,-1.711 10.54,-1.867 l -0.477,-0.274 c -1.293,0.047 -2.199,0.102 -2.719,0.168 -1.156,0.118 -2.754,0.422 -4.793,0.922 -2.109,0.496 -3.468,0.782 -4.082,0.848 -0.543,0.066 -2.719,0.203 -6.527,0.41 -3.512,0.18 -5.633,0.348 -6.359,0.508 l -0.27,0.066 0.984,0.41 c 0.184,-0.023 1.645,-0.078 4.387,-0.171 2.359,-0.067 3.785,-0.121 4.285,-0.168 1.563,-0.137 3.238,-0.418 5.031,-0.852 z"
   inkscape:connector-curvature="0" />&#10;      &#10;      <path
   id="path122"
   style="display:inline;fill:#bd7c13;fill-rule:evenodd"
   d="m 28.973,12.831 c 1.472,-0.43 1.937,-0.727 1.394,-0.883 -0.41,-0.114 -0.965,-0.102 -1.668,0.035 -0.656,0.113 -1.211,0.293 -1.668,0.543 -0.429,0.203 -0.472,0.363 -0.133,0.476 0.36,0.11 1.055,0.055 2.075,-0.171 z"
   inkscape:connector-curvature="0" />&#10;      <path
   id="path124"
   style="fill:#bd7c13;fill-rule:evenodd"
   d="m 21.898,11.471 c 1.18,-0.316 1.133,-0.465 -0.136,-0.441 -1.289,0.043 -2.2,0.156 -2.719,0.34 -0.43,0.136 -0.18,0.214 0.75,0.238 0.906,0.023 1.609,-0.024 2.105,-0.137 z"
   inkscape:connector-curvature="0" />&#10;      &#10;      <path
   id="path206"
   style="fill:#6b4607;fill-rule:evenodd"
   d="M 33.355,6.608 C 30.707,4.659 28.621,3.151 27.102,2.088 l -3.164,-2.074 -2.516,2.789 3.64,4.317 8.293,1.289 z"
   inkscape:connector-curvature="0" />&#10;      &#10;      <path
   id="path252"
   style="fill:#80520b;fill-rule:evenodd"
   d="M 6.941,10.077 23.805,4.127 23.938,0.014 C 18.137,1.44 13.547,2.709 10.172,3.819 7.156,4.795 3.836,5.67 0.207,6.44 0.051,6.62 -0.02,6.959 0.004,7.459 0.027,7.776 0.094,8.038 0.207,8.241 l 0.137,0.172 z"
   inkscape:connector-curvature="0" />&#10;      &#10;      <path
   id="path298"
   style="display:inline;fill:#9e6a10;fill-rule:evenodd"
   d="m 0.344,8.413 4.863,2.55 c 1.246,0.633 2.527,1.235 3.84,1.801 4.762,-0.84 9.191,-1.644 13.293,-2.414 3.312,-0.613 6.984,-1.258 11.019,-1.937 L 23.941,2.803 C 18.047,4.139 12.844,5.35 8.336,6.44 Z"
   inkscape:connector-curvature="0" />&#10;      <path
   id="path300"
   style="display:inline;fill:#bd7c13;fill-rule:evenodd"
   d="M 29.141,5.897 28.562,5.522 c -1.425,0.156 -3.035,0.496 -4.828,1.02 -0.996,0.269 -2.015,0.714 -3.058,1.324 -0.77,0.429 -1.77,0.703 -2.992,0.816 C 10.477,9.338 6.352,9.749 5.309,9.905 4.695,10.018 4.195,10.131 3.812,10.245 l 1.086,0.547 C 5.895,10.565 8.027,10.268 11.293,9.909 12.582,9.772 14.25,9.624 16.289,9.463 17.945,9.284 19.461,8.909 20.844,8.342 21.91,7.913 23.25,7.37 24.855,6.709 26.195,6.256 27.621,5.987 29.141,5.897 Z"
   inkscape:connector-curvature="0" />&#10;      <path
   id="path302"
   style="display:inline;fill:#bd7c13;fill-rule:evenodd"
   d="M 20.777,5.69 C 21.527,5.577 22.727,5.487 24.383,5.417 25.855,5.35 27,5.237 27.816,5.077 L 26.422,4.229 c -1.043,0.383 -1.961,0.578 -2.754,0.578 -1.543,0 -2.684,0.055 -3.434,0.168 C 19.012,5.159 17.91,5.534 16.938,6.1 15.598,6.893 14.816,7.346 14.59,7.459 14,7.709 13.184,7.889 12.141,8.002 10.035,8.163 8.301,8.295 6.941,8.409 4.402,8.635 2.715,8.909 1.875,9.229 L 2.723,9.67 C 3.586,9.42 5.387,9.182 8.129,8.956 11.008,8.729 12.742,8.545 13.332,8.409 13.875,8.295 14.93,7.854 16.492,7.084 17.988,6.381 19.418,5.917 20.777,5.69 Z"
   inkscape:connector-curvature="0" />&#10;      <path
   id="path304"
   style="display:inline;fill:#bd7c13;fill-rule:evenodd"
   d="m 15.645,5.522 c 0.543,-0.363 1.007,-0.738 1.39,-1.121 L 14.863,4.874 C 14.406,5.51 14.047,5.94 13.773,6.167 13.297,6.553 12.664,6.811 11.871,6.948 11.074,7.084 9.863,7.167 8.23,7.186 6.352,7.256 5.125,7.311 4.559,7.358 L 0.344,8.413 0.922,8.752 C 3.824,8.026 6.508,7.663 8.98,7.663 c 1.7,0 2.891,-0.102 3.571,-0.305 0.722,-0.227 1.754,-0.84 3.094,-1.836 z"
   inkscape:connector-curvature="0" />&#10;      <path
   id="path306"
   style="fill:#bd7c13;fill-rule:evenodd"
   d="m 25.367,3.616 -1.086,-0.61 c -0.5,0.043 -0.91,0.043 -1.226,0 l -2.856,0.645 c 0.77,0.047 1.723,0.113 2.856,0.203 0.883,0.047 1.656,-0.035 2.312,-0.238 z"
   inkscape:connector-curvature="0" />&#10;      <path
   id="path308"
   style="display:inline;fill:#bd7c13;fill-rule:evenodd"
   d="m 32.539,7.936 -0.574,-0.34 c -1.27,0.227 -2.746,0.555 -4.422,0.985 -1.699,0.429 -3.32,0.996 -4.859,1.699 l 2.75,-0.508 C 28.02,8.909 30.387,8.299 32.539,7.936 Z"
   inkscape:connector-curvature="0" />&#10;      <path
   id="path310"
   style="fill:#bd7c13;fill-rule:evenodd"
   d="M 30.91,6.948 30.398,6.643 c -1.293,0.09 -2.199,0.191 -2.718,0.305 -1.114,0.203 -2.696,0.648 -4.758,1.328 -2.043,0.699 -3.391,1.109 -4.047,1.223 -0.523,0.089 -2.699,0.339 -6.527,0.746 -3.493,0.363 -5.602,0.66 -6.325,0.886 l -0.273,0.102 1.02,0.476 c 0.023,0 1.484,-0.136 4.386,-0.41 2.313,-0.179 3.739,-0.304 4.285,-0.375 1.539,-0.222 3.207,-0.644 4.997,-1.257 4.328,-1.493 7.82,-2.399 10.472,-2.719 z"
   inkscape:connector-curvature="0" />&#10;      <path
   id="path312"
   style="fill:#bd7c13;fill-rule:evenodd"
   d="m 11.531,12.319 3.567,-0.645 c -2.493,0.25 -4.203,0.375 -5.133,0.375 -0.727,0 -1.449,0.047 -2.176,0.137 l 0.68,0.34 c 0.566,-0.113 1.586,-0.184 3.062,-0.207 z"
   inkscape:connector-curvature="0" />&#10;      <path
   id="path314"
   style="display:inline;fill:#bd7c13;fill-rule:evenodd"
   d="m 19.453,7.834 c 1.449,-0.613 1.891,-1 1.324,-1.156 -0.406,-0.113 -0.949,-0.082 -1.632,0.102 -0.68,0.156 -1.235,0.394 -1.665,0.715 -0.41,0.293 -0.445,0.496 -0.101,0.609 0.383,0.113 1.074,0.023 2.074,-0.27 z"
   inkscape:connector-curvature="0" />&#10;      <path
   id="path316"
   style="display:inline;fill:#bd7c13;fill-rule:evenodd"
   d="M 12.277,6.44 C 13.457,5.987 13.41,5.815 12.141,5.928 10.828,6.018 9.91,6.19 9.387,6.44 8.98,6.643 9.242,6.745 10.172,6.745 11.098,6.721 11.801,6.62 12.277,6.44 Z"
   inkscape:connector-curvature="0" />&#10;      &#10;      &#10;      <path
   id="path442"
   style="display:inline;fill:#8f7f59;fill-rule:evenodd"
   d="m 33.719,13.667 c 0.316,0 0.371,-0.063 0.16,-0.184 -0.211,-0.09 -0.379,-0.176 -0.5,-0.266 -0.336,-0.281 -0.742,-0.511 -1.215,-0.683 -1.215,-0.336 -2.246,-0.633 -3.09,-0.899 C 27.984,11.284 26.789,10.573 25.488,9.499 24.52,8.67 23.438,7.975 22.242,7.413 21.906,7.256 21.5,6.971 21.027,6.569 L 20.418,6.042 20.023,6.807 v 1.66 c -0.562,0.301 -1.066,0.617 -1.503,0.95 -0.879,0.671 -1.004,1.085 -0.372,1.242 1.004,0.246 6.196,1.25 15.571,3.008 z"
   inkscape:connector-curvature="0" />&#10;      <path
   id="path444"
   style="display:inline;fill:#94845d;fill-rule:evenodd"
   d="m 13.559,8.073 c 4.433,-0.688 6.668,-1.11 6.703,-1.266 L 20.445,6.014 18.414,6.065 C 17.727,6.1 16.434,6.284 14.535,6.62 14.059,6.69 13.363,6.858 12.449,7.12 11.605,7.35 11.078,7.518 10.867,7.624 l -0.5,0.289 c 1.125,0.105 2.188,0.16 3.192,0.16 z"
   inkscape:connector-curvature="0" />&#10;      <path
   id="path446"
   style="display:inline;fill:#695322;fill-rule:evenodd"
   d="m 28.441,13.034 c 3.028,0.437 4.645,0.66 4.856,0.66 0.336,0 0.547,-0.02 0.633,-0.055 0.09,-0.035 0.019,-0.07 -0.211,-0.105 -0.176,-0.035 -0.297,-0.086 -0.367,-0.157 -0.106,-0.089 -0.18,-0.14 -0.215,-0.16 -0.684,-0.386 -1.492,-0.668 -2.426,-0.843 -1.109,-0.247 -2.305,-0.676 -3.59,-1.293 C 26.648,10.85 26.004,10.413 25.195,9.76 24.332,9.057 23.656,8.573 23.164,8.311 22.516,7.959 21.852,7.51 21.184,6.963 L 20.367,6.28 C 19.734,6.155 18.863,6.163 17.754,6.303 16.664,6.444 15.871,6.549 15.379,6.62 14.516,6.764 13.848,6.905 13.371,7.045 L 10.258,7.94 c 0.738,0.527 1.304,0.953 1.691,1.266 1.602,0.496 3.262,0.996 4.985,1.507 3.449,1.02 5.472,1.555 6.07,1.61 0.492,0.031 2.308,0.269 5.437,0.711 z"
   inkscape:connector-curvature="0" />&#10;      <path
   id="path448"
   style="display:inline;fill:#f27922;fill-rule:evenodd"
   d="m 28.152,16.913 c 1.286,-0.352 2.383,-0.766 3.297,-1.243 1.039,-0.543 1.699,-1.035 1.981,-1.476 C 33.289,13.752 32.848,13.393 32.109,13.112 31.812,12.991 31.168,12.795 30.184,12.53 29.199,12.268 28.363,12.002 27.68,11.741 26.957,11.459 26.121,10.956 25.172,10.237 24.117,9.428 23.5,8.979 23.324,8.889 22.918,8.678 22.25,8.229 21.316,7.542 20.859,7.194 20.438,6.866 20.051,6.565 l -3.668,0.266 c -0.406,0.035 -1.504,0.253 -3.297,0.66 l -2.59,0.605 C 10.094,8.307 9.855,8.573 9.785,8.889 9.73,9.065 9.777,9.436 9.918,9.999 l 0.105,0.238 0.633,0.551 c 0.547,0.406 1.364,1.089 2.453,2.058 0.844,0.723 1.953,1.488 3.325,2.297 1.41,0.809 2.535,1.336 3.378,1.582 1.126,0.336 2.551,0.59 4.278,0.766 1.195,0.019 2.547,-0.176 4.062,-0.578 z"
   inkscape:connector-curvature="0" />&#10;      &#10;      <path
   id="path494"
   style="display:inline;fill:#ff9b4a;fill-rule:evenodd"
   d="m 24.535,17.096 0.633,-0.554 c 0.457,-0.438 0.793,-0.836 1.004,-1.188 0.492,-0.844 0.652,-1.82 0.476,-2.93 -0.105,-0.683 -0.238,-0.711 -0.394,-0.078 0.105,0.016 0.191,0.098 0.262,0.238 0.14,0.262 0.113,0.668 -0.078,1.215 -0.282,0.809 -0.883,1.582 -1.797,2.321 l -1.266,0.843 c -0.441,0.036 -0.887,0.055 -1.348,0.055 -0.527,0 -0.972,-0.027 -1.343,-0.078 0.703,0.156 1.355,0.281 1.953,0.367 0.828,0.02 1.461,-0.051 1.898,-0.211 z"
   inkscape:connector-curvature="0" />&#10;      <path
   id="path496"
   style="display:inline;fill:#ff9b4a;fill-rule:evenodd"
   d="m 31.766,13.85 c 0.386,0.336 0.546,0.633 0.476,0.899 -0.051,0.21 -0.301,0.511 -0.738,0.898 l 1,-0.609 c 0.055,-0.403 -0.043,-0.774 -0.289,-1.106 -0.297,-0.301 -0.485,-0.484 -0.555,-0.555 -0.191,-0.14 -0.305,-0.175 -0.34,-0.105 -0.035,0.07 0.114,0.262 0.446,0.578 z"
   inkscape:connector-curvature="0" />&#10;      <path
   id="path498"
   style="display:inline;fill:#ff9b4a;fill-rule:evenodd"
   d="m 22.055,16.569 0.687,-0.527 c 0.528,-0.407 0.914,-0.766 1.16,-1.083 0.703,-0.898 1.16,-1.882 1.371,-2.957 0.141,-0.648 0.063,-0.73 -0.238,-0.238 0.02,0.195 -0.035,0.457 -0.156,0.793 -0.227,0.633 -0.668,1.266 -1.32,1.899 -0.528,0.511 -1.282,0.941 -2.27,1.293 l -1.32,0.398 -0.473,-0.055 c -0.582,-0.07 -1.215,-0.183 -1.902,-0.343 l 0.847,0.421 c 1.321,0.215 2.524,0.344 3.614,0.399 z"
   inkscape:connector-curvature="0" />&#10;      <path
   id="path500"
   style="display:inline;fill:#ff9b4a;fill-rule:evenodd"
   d="M 20.762,8.256 20.551,7.913 c -0.016,0.285 -0.219,0.699 -0.606,1.242 -0.441,0.633 -1.336,1.265 -2.691,1.898 l -1.899,0.793 c -1.355,-0.019 -2.5,-0.211 -3.433,-0.582 -0.317,-0.125 -0.703,-0.316 -1.16,-0.582 0.14,0.16 0.422,0.422 0.843,0.793 1.375,0.578 2.86,0.942 4.461,1.082 l 1.004,-0.476 c 0.774,-0.403 1.414,-0.801 1.926,-1.188 0.789,-0.633 1.379,-1.512 1.766,-2.637 z"
   inkscape:connector-curvature="0" />&#10;      <path
   id="path502"
   style="display:inline;fill:#ff9b4a;fill-rule:evenodd"
   d="m 19.969,12.374 c 0.496,-0.336 0.988,-0.809 1.48,-1.426 0.598,-0.739 1.063,-1.52 1.399,-2.348 L 22.004,8.045 c -0.02,0.055 0.023,0.219 0.129,0.5 0.105,0.266 0.14,0.442 0.105,0.528 -0.508,1.355 -1.652,2.5 -3.429,3.433 l -2.508,0.977 c -0.668,-0.07 -1.379,-0.195 -2.137,-0.371 -0.402,-0.086 -0.781,-0.203 -1.133,-0.344 l 0.078,0.082 0.899,0.684 c 1.125,0.3 2.234,0.476 3.324,0.527 z"
   inkscape:connector-curvature="0" />&#10;      <path
   id="path504"
   style="display:inline;fill:#ff9b4a;fill-rule:evenodd"
   d="m 20.234,13.983 -2.242,0.816 c -0.898,-0.086 -1.804,-0.218 -2.719,-0.394 l 0.977,0.605 c 1.004,0.16 1.996,0.239 2.98,0.239 l 1.165,-0.579 c 0.843,-0.476 1.476,-0.906 1.898,-1.296 1.074,-0.985 1.769,-2.102 2.086,-3.348 L 24.457,9.682 24.141,9.444 c -0.051,0.07 -0.121,0.324 -0.211,0.765 -0.09,0.473 -0.231,0.879 -0.422,1.215 -0.563,0.95 -1.653,1.801 -3.274,2.559 z"
   inkscape:connector-curvature="0" />&#10;      <path
   id="path506"
   style="display:inline;fill:#ff9b4a;fill-rule:evenodd"
   d="m 30.527,14.905 c -0.089,0.441 -0.632,1.031 -1.636,1.769 l 1.082,-0.343 c 0.476,-0.457 0.75,-0.934 0.816,-1.426 0.07,-0.387 0.02,-0.719 -0.156,-1 -0.125,-0.231 -0.195,-0.321 -0.211,-0.266 l 0.027,0.16 c 0.207,0 0.239,0.368 0.078,1.106 z"
   inkscape:connector-curvature="0" />&#10;      <path
   id="path508"
   style="display:inline;fill:#ff9b4a;fill-rule:evenodd"
   d="m 26.805,17.229 c 1.074,-0.738 1.707,-1.277 1.902,-1.609 0.156,-0.317 0.246,-0.739 0.262,-1.266 0,-0.457 -0.035,-0.766 -0.106,-0.926 -0.027,-0.054 -0.062,-0.105 -0.105,-0.156 -0.024,-0.176 -0.074,-0.281 -0.156,-0.316 l -0.29,0.05 c 0.192,0.075 0.344,0.161 0.446,0.266 0.015,0.164 0.008,0.383 -0.024,0.66 -0.125,0.914 -0.582,1.731 -1.375,2.453 l -1.132,0.817 c -0.352,0.035 -0.75,0.097 -1.188,0.183 l -0.289,0.11 c 0.789,-0.075 1.477,-0.161 2.055,-0.266 z"
   inkscape:connector-curvature="0" />&#10;      <path
   id="path510"
   style="display:inline;fill:#c25b10;fill-rule:evenodd"
   d="m 29.285,14.116 c 0.496,0.07 1.242,0.129 2.246,0.183 0.543,0.051 1.176,0.008 1.899,-0.132 C 33.254,13.729 32.812,13.374 32.109,13.112 31.812,12.987 31.168,12.795 30.184,12.53 29.199,12.268 28.363,12.002 27.68,11.741 26.957,11.459 26.121,10.956 25.172,10.237 24.117,9.424 23.5,8.975 23.324,8.889 22.918,8.678 22.25,8.229 21.316,7.542 20.859,7.19 20.438,6.866 20.051,6.565 l -0.817,0.055 0.262,1.371 c 0.176,0.07 0.809,0.625 1.902,1.664 0.543,0.508 1.282,1.219 2.215,2.137 0.828,0.703 1.699,1.23 2.614,1.582 0.914,0.355 1.933,0.601 3.058,0.742 z"
   inkscape:connector-curvature="0" />&#10;      <path
   id="path512"
   style="display:inline;fill:#d16211;fill-rule:evenodd"
   d="M 19.891,6.569 16.25,6.807 c -0.387,0.031 -1.469,0.254 -3.246,0.656 l -2.535,0.582 c -0.211,0.196 -0.36,0.442 -0.446,0.739 -0.07,0.246 -0.062,0.562 0.024,0.953 l 0.105,0.183 c 0.758,0.422 1.692,0.661 2.801,0.711 1.371,0.055 2.742,-0.289 4.113,-1.027 0.778,-0.406 1.649,-0.898 2.614,-1.48 l 0.132,-0.551 c 0.071,-0.426 0.106,-0.75 0.106,-0.977 z"
   inkscape:connector-curvature="0" />&#10;      <path
   id="path514"
   style="display:inline;fill:#ffc17a;fill-rule:evenodd"
   d="m 27.094,17.096 c 0.722,-0.07 1.199,-0.168 1.426,-0.289 l -0.766,0.051 c -0.246,0.035 -0.438,0.055 -0.578,0.055 -0.281,0.035 -0.539,0.035 -0.766,0 -0.195,-0.036 -0.394,-0.055 -0.609,-0.055 -0.422,0 -0.766,-0.008 -1.028,-0.024 -0.722,-0.035 -1.23,-0.089 -1.531,-0.16 -0.191,-0.035 -0.422,-0.113 -0.683,-0.238 -0.301,-0.121 -0.567,-0.211 -0.793,-0.262 -0.301,-0.054 -0.598,-0.16 -0.899,-0.32 -0.367,-0.227 -0.683,-0.402 -0.949,-0.527 -0.195,-0.106 -0.395,-0.254 -0.606,-0.45 -0.124,-0.085 -0.32,-0.156 -0.582,-0.21 -0.316,-0.051 -0.546,-0.149 -0.687,-0.29 -0.191,-0.23 -0.395,-0.457 -0.605,-0.683 -0.106,-0.11 -0.493,-0.539 -1.161,-1.297 -0.089,-0.121 -0.152,-0.199 -0.187,-0.234 -0.035,-0.036 -0.129,-0.098 -0.289,-0.188 L 15.09,11.502 c -0.211,-0.16 -0.504,-0.328 -0.871,-0.503 -0.196,0.019 -0.293,0.054 -0.293,0.105 l 0.027,0.082 0.238,0.289 1.664,1.582 c 0.086,0.09 0.29,0.266 0.606,0.527 0.211,0.18 0.351,0.321 0.422,0.426 0.23,0.297 0.597,0.563 1.109,0.789 0.227,0.09 0.438,0.211 0.633,0.371 0.125,0.071 0.273,0.176 0.449,0.317 0.156,0.121 0.52,0.308 1.082,0.555 0.582,0.261 0.985,0.414 1.215,0.449 0.106,0.015 0.5,0.121 1.188,0.316 0.632,0.192 1.089,0.297 1.371,0.317 1.25,0.085 2.304,0.078 3.164,-0.028 z"
   inkscape:connector-curvature="0" />&#10;      <path
   id="path516"
   style="display:inline;fill:#f27922;fill-rule:evenodd"
   d="m 17.727,9.393 c -1.106,0.668 -1.891,1.055 -2.348,1.16 -0.774,0.192 -1.477,0.262 -2.109,0.211 -1.165,-0.035 -2.036,-0.168 -2.614,-0.394 -0.371,-0.161 -0.441,-0.118 -0.211,0.129 0.457,0.246 1.063,0.441 1.821,0.582 0.964,0.191 1.836,0.183 2.613,-0.028 0.754,-0.211 1.625,-0.562 2.613,-1.054 C 18.23,9.631 18.793,9.315 19.18,9.049 19.727,8.643 20.031,8.108 20.102,7.44 20.156,6.948 20.137,6.655 20.051,6.569 l -3.246,0.183 -0.793,0.133 0.926,-0.054 c 0.703,-0.016 1.25,-0.016 1.632,0 0.532,0.035 0.848,0.097 0.953,0.183 0.157,0.145 0.106,0.422 -0.16,0.848 -0.332,0.527 -0.554,0.844 -0.66,0.949 -0.156,0.141 -0.48,0.332 -0.976,0.582 z"
   inkscape:connector-curvature="0" />&#10;      <path
   id="path518"
   style="display:inline;fill:#f27922;fill-rule:evenodd"
   d="m 20.551,8.838 c 0,0.106 0.011,0.227 0.027,0.368 0.051,0.281 0.141,0.484 0.266,0.609 0.211,0.176 0.508,0.227 0.894,0.156 L 21.555,9.288 C 21.52,9.112 21.574,8.944 21.715,8.784 21.785,8.698 21.898,8.565 22.059,8.389 22.129,8.249 22.102,8.143 21.977,8.073 21.855,8.002 21.73,7.995 21.609,8.045 21.539,8.081 21.492,8.213 21.477,8.44 21.461,8.76 21.422,8.979 21.371,9.1 21.301,9.26 21.195,9.295 21.055,9.206 20.879,9.049 20.711,8.924 20.551,8.838 Z"
   inkscape:connector-curvature="0" />&#10;      <path
   id="path520"
   style="display:inline;fill:#f27922;fill-rule:evenodd"
   d="m 28.625,14.088 c -0.051,-0.054 -0.113,-0.105 -0.184,-0.16 -0.105,-0.14 -0.168,-0.261 -0.183,-0.367 0,-0.07 0.027,-0.16 0.078,-0.266 0.035,-0.07 0.027,-0.168 -0.024,-0.289 -0.074,-0.16 -0.179,-0.175 -0.316,-0.054 -0.125,0.125 -0.203,0.265 -0.238,0.422 -0.02,0.14 -0.153,0.23 -0.399,0.265 -0.211,0.035 -0.437,0.028 -0.683,-0.027 l 0.422,0.289 c 0.316,0.195 0.535,0.301 0.66,0.316 0.207,0.039 0.5,-0.008 0.867,-0.129 z"
   inkscape:connector-curvature="0" />&#10;      <path
   id="path522"
   style="display:inline;fill:#f27922;fill-rule:evenodd"
   d="m 28.312,12.584 0.184,-0.316 0.184,-0.055 c 0.121,-0.035 0.191,-0.07 0.211,-0.105 0.035,-0.07 0.015,-0.129 -0.055,-0.184 -0.07,-0.07 -0.184,-0.086 -0.34,-0.05 -0.141,0.035 -0.215,0.168 -0.215,0.394 z"
   inkscape:connector-curvature="0" />&#10;      <path
   id="path524"
   style="display:inline;fill:#f27922;fill-rule:evenodd"
   d="m 32.953,14.432 c -0.051,0.106 0,0.121 0.16,0.051 0.157,-0.07 0.266,-0.176 0.317,-0.316 0.035,-0.176 0,-0.325 -0.106,-0.45 -0.14,-0.14 -0.414,-0.297 -0.816,-0.472 -0.371,-0.161 -0.707,-0.282 -1.004,-0.371 l -0.371,-0.051 0.66,0.238 c 0.512,0.156 0.891,0.383 1.137,0.684 0.105,0.14 0.148,0.273 0.132,0.394 -0.003,0.035 -0.039,0.133 -0.109,0.293 z"
   inkscape:connector-curvature="0" />&#10;      <path
   id="path526"
   style="display:inline;fill:#bd7400;fill-rule:evenodd"
   d="m 27.203,15.858 c 0.473,-0.195 0.809,-0.309 1,-0.344 0.317,-0.055 0.688,0.063 1.109,0.344 l 0.079,-0.106 c 0.054,-0.089 0.089,-0.175 0.109,-0.265 0.051,-0.192 -0.141,-0.371 -0.582,-0.528 -0.492,-0.195 -1.066,-0.16 -1.715,0.106 -0.723,0.352 -1.32,0.633 -1.797,0.844 -0.773,0.351 -1.59,0.64 -2.453,0.871 l -1.449,0.371 c -0.055,0.016 -0.035,0.051 0.051,0.105 0.105,0.071 0.195,0.106 0.265,0.106 l 1.742,-0.399 c 1.211,-0.281 2.004,-0.484 2.376,-0.605 z"
   inkscape:connector-curvature="0" />&#10;      <path
   id="path528"
   style="display:inline;fill:#c7be91;fill-rule:evenodd"
   d="m 26.172,18.206 -0.027,0.105 c -0.051,0.086 0.054,0.106 0.316,0.051 0.09,-0.016 0.125,-0.086 0.105,-0.211 0,-0.121 -0.043,-0.254 -0.128,-0.395 -0.071,-0.125 -0.168,-0.211 -0.293,-0.265 L 26.016,17.44 c -0.09,-0.055 -0.176,-0.09 -0.266,-0.106 -0.824,-0.019 -1.449,-0.042 -1.871,-0.082 -0.266,-0.035 -0.406,-0.07 -0.426,-0.105 l 0.055,-0.051 -0.449,0.106 c -0.071,0.015 -0.133,0.062 -0.184,0.132 l -0.027,0.079 h 2.613 c -0.879,0.175 -1.512,0.289 -1.899,0.343 -0.757,0.106 -1.214,0.141 -1.374,0.106 l 0.132,0.133 c 0.086,0.105 0.168,0.148 0.239,0.132 l 1.793,-0.214 1.398,-0.34 -0.684,0.234 c -0.371,0.231 -0.652,0.363 -0.847,0.399 l -0.422,0.132 0.105,0.079 c 0.106,0.05 0.215,0.078 0.317,0.078 0.14,-0.016 0.398,-0.141 0.765,-0.368 0.125,-0.089 0.434,-0.257 0.922,-0.503 l 0.055,0.16 z"
   inkscape:connector-curvature="0"
   inkscape:label="path528" />&#10;      <path
   id="path530"
   style="display:inline;fill:#c7be91;fill-rule:evenodd"
   d="m 28.68,17.124 -1.188,0.132 h -0.816 l 1.636,-0.66 c 0.493,-0.211 0.739,-0.387 0.739,-0.527 -0.02,-0.106 -0.176,-0.231 -0.477,-0.371 0,0.176 -0.113,0.351 -0.344,0.527 -0.226,0.16 -0.64,0.387 -1.238,0.688 l -0.633,0.343 0.739,-0.636 c 0.05,-0.071 0.093,-0.176 0.129,-0.317 0.054,-0.14 0.062,-0.226 0.027,-0.261 -0.035,-0.071 -0.203,-0.063 -0.5,0.027 0.035,0.14 0.008,0.281 -0.082,0.422 l -0.633,0.789 -0.023,0.16 0.238,0.027 c 0.121,-0.035 0.703,-0.035 1.738,0 0.336,-0.019 0.531,-0.054 0.582,-0.105 z"
   inkscape:connector-curvature="0" />&#10;      <path
   id="path532"
   style="display:inline;fill:#c7be91;fill-rule:evenodd"
   d="m 27.254,17.995 c 0.562,-0.141 0.934,-0.254 1.109,-0.344 0.457,-0.266 0.801,-0.598 1.028,-1.004 0.089,-0.121 0.097,-0.219 0.027,-0.289 -0.035,-0.035 -0.133,-0.086 -0.289,-0.156 -0.09,-0.055 -0.133,-0.047 -0.133,0.023 0.016,0.125 0.016,0.246 0,0.371 0,0.141 -0.148,0.317 -0.449,0.528 -0.367,0.246 -0.625,0.421 -0.766,0.527 -0.226,0.176 -0.906,0.379 -2.031,0.609 -0.598,0.141 -1.566,0.043 -2.902,-0.293 -0.387,-0.105 -0.645,-0.246 -0.766,-0.422 l -0.055,-0.238 c -0.121,0.035 -0.218,0.141 -0.289,0.317 -0.05,0.125 -0.035,0.23 0.055,0.316 0.051,0.035 0.184,0.098 0.395,0.187 0.156,0.086 0.457,0.168 0.898,0.239 0.473,0.086 0.906,0.14 1.293,0.156 0.984,0.035 1.625,-0.043 1.926,-0.238 0.086,-0.051 0.402,-0.149 0.949,-0.289 z"
   inkscape:connector-curvature="0" />&#10;      <path
   id="path534"
   style="display:inline;fill:#f7ce00;fill-rule:evenodd"
   d="m 26.805,15.963 c 0.703,-0.25 1.293,-0.336 1.769,-0.265 0.211,0.035 0.422,0.156 0.633,0.371 l 0.316,0.394 c 0.036,-0.281 0.02,-0.511 -0.05,-0.687 -0.141,-0.367 -0.547,-0.551 -1.215,-0.551 -0.371,0.016 -0.817,0.106 -1.348,0.262 -0.472,0.16 -0.887,0.332 -1.238,0.527 -0.774,0.387 -1.77,0.723 -2.984,1.004 -0.333,0.07 -0.618,0.141 -0.844,0.211 l -0.211,0.105 -0.028,0.133 v 0.395 l 0.188,0.105 c -0.16,-0.246 0.227,-0.465 1.16,-0.66 0.262,-0.07 0.942,-0.273 2.031,-0.605 0.547,-0.141 1.153,-0.387 1.821,-0.739 z"
   inkscape:connector-curvature="0" />&#10;      <path
   id="path536"
   style="display:inline;fill:#ffff9c;fill-rule:evenodd"
   d="m 25.434,16.94 c 0.211,0.121 0.351,0.289 0.421,0.5 -0.687,-0.07 -1.152,-0.098 -1.398,-0.078 -1.125,0.07 -1.594,0.051 -1.398,-0.055 0.105,-0.07 0.535,-0.183 1.293,-0.344 0.527,-0.121 0.886,-0.129 1.082,-0.023 z m -0.95,0.555 c 0.387,-0.036 0.809,-0.028 1.266,0.023 l -2.188,0.449 -1.214,0.106 C 22.258,18.057 22.18,18.03 22.109,17.995 21.969,17.94 21.914,17.87 21.949,17.784 22.02,17.678 22.09,17.616 22.16,17.6 c 0.07,-0.035 0.274,-0.062 0.61,-0.082 h 0.871 c 0.332,0.02 0.613,0.012 0.843,-0.023 z m 1.239,0.156 -0.95,0.527 c -0.386,0.16 -0.687,0.231 -0.898,0.211 -0.844,-0.07 -1.187,-0.14 -1.027,-0.211 0.156,-0.07 0.746,-0.168 1.769,-0.289 z m 0.054,-0.844 c -0.07,-0.105 0.078,-0.23 0.45,-0.371 0.527,-0.262 0.816,-0.352 0.871,-0.262 0.086,0.102 -0.036,0.325 -0.371,0.66 l -0.688,0.528 z m 0.661,1.344 c 0.035,0.055 -0.012,0.098 -0.133,0.133 -0.336,0.125 -0.785,0.183 -1.348,0.183 H 24.59 c -0.055,-0.035 0.121,-0.156 0.527,-0.367 l 1.028,-0.555 0.183,0.45 c 0.074,0.07 0.11,0.121 0.11,0.156 z m 2.558,-2.504 c -0.617,-0.23 -1.301,-0.152 -2.058,0.234 -0.739,0.387 -1.758,0.75 -3.059,1.082 -1.215,0.317 -1.93,0.539 -2.141,0.661 -0.351,0.21 -0.086,0.441 0.793,0.687 0.879,0.227 1.742,0.309 2.586,0.238 2.129,-0.195 3.535,-0.777 4.219,-1.742 0.391,-0.527 0.277,-0.914 -0.34,-1.16 z m -1.664,0.738 c 0.16,-0.23 0.238,-0.351 0.238,-0.371 0.16,-0.16 0.352,-0.246 0.582,-0.265 0.282,-0.032 0.465,-0.008 0.555,0.082 0.086,0.086 0.043,0.218 -0.133,0.394 -0.16,0.16 -0.582,0.387 -1.265,0.688 l -0.977,0.421 z m 0.32,1.188 c 0.262,-0.02 0.403,-0.028 0.422,-0.028 0.106,0 0.114,0.036 0.024,0.106 -0.246,0.211 -0.606,0.359 -1.082,0.449 -0.121,0.016 -0.204,0 -0.239,-0.055 -0.05,-0.105 -0.093,-0.164 -0.129,-0.183 -0.074,-0.051 -0.152,-0.133 -0.238,-0.238 l -0.082,-0.157 z m 1.106,-0.371 -0.395,0.183 -1.82,-0.023 1.316,-0.449 c 0.161,-0.071 0.422,-0.196 0.793,-0.371 0.317,-0.141 0.493,-0.176 0.528,-0.106 0.054,0.106 0.035,0.231 -0.051,0.371 -0.07,0.176 -0.195,0.309 -0.371,0.395 z"
   inkscape:connector-curvature="0" />&#10;      &#10;      &#10;      &#10;      &#10;      &#10;      &#10;      &#10;      &#10;      <path
   id="path890"
   style="display:inline;fill:#bd7400;fill-rule:evenodd"
   d="m 22.898,13.377 c 0.106,-0.14 0.188,-0.281 0.239,-0.421 0.105,-0.317 -0.051,-0.672 -0.473,-1.055 -0.211,-0.195 -0.519,-0.336 -0.926,-0.426 -0.386,-0.086 -0.746,-0.094 -1.082,-0.023 -0.261,0.07 -0.625,0.183 -1.082,0.343 -0.543,0.211 -0.969,0.368 -1.265,0.473 -0.985,0.336 -2.043,0.547 -3.168,0.633 -0.914,0.07 -1.504,0.105 -1.766,0.105 -0.07,0 -0.063,0.075 0.023,0.215 0.071,0.141 0.153,0.219 0.239,0.235 l 2.113,-0.051 c 1.512,-0.035 2.496,-0.106 2.953,-0.211 0.25,-0.055 0.801,-0.184 1.664,-0.395 0.617,-0.179 1.039,-0.257 1.266,-0.238 0.387,0.016 0.765,0.344 1.137,0.977 z"
   inkscape:connector-curvature="0" />&#10;      <path
   id="path892"
   style="display:inline;fill:#c7be91;fill-rule:evenodd"
   d="m 18.176,15.592 0.105,0.766 -0.105,0.16 c -0.071,0.121 0.054,0.184 0.371,0.184 0.086,0 0.156,-0.098 0.211,-0.289 0.035,-0.211 0.027,-0.45 -0.028,-0.715 -0.05,-0.367 -0.175,-0.59 -0.371,-0.66 -0.05,-0.106 -0.129,-0.204 -0.234,-0.289 -0.934,-0.282 -1.637,-0.536 -2.113,-0.766 -0.282,-0.141 -0.422,-0.246 -0.422,-0.316 0,-0.051 0.023,-0.075 0.066,-0.083 l -0.539,0.028 c -0.109,0.019 -0.195,0.07 -0.265,0.16 l -0.079,0.133 2.981,0.894 c -1.07,-0.015 -1.836,-0.043 -2.297,-0.078 -0.824,-0.07 -1.363,-0.168 -1.609,-0.289 0.019,0.086 0.054,0.176 0.105,0.262 0.07,0.195 0.152,0.293 0.238,0.293 0.141,0 0.856,0.078 2.137,0.234 l 1.719,-0.078 c -0.442,0.055 -0.742,0.106 -0.899,0.16 -0.597,0.262 -0.96,0.395 -1.082,0.395 l -0.554,0.051 0.105,0.16 c 0.086,0.125 0.192,0.203 0.317,0.238 0.246,0.07 0.582,-0.043 1,-0.344 0.179,-0.105 0.589,-0.281 1.242,-0.527 z"
   inkscape:connector-curvature="0" />&#10;      <path
   id="path894"
   style="display:inline;fill:#c7be91;fill-rule:evenodd"
   d="m 21.977,13.006 c -0.071,0.301 -0.262,0.547 -0.582,0.739 -0.247,0.16 -0.809,0.406 -1.688,0.738 l -0.844,0.344 1.055,-0.789 c 0.105,-0.09 0.203,-0.239 0.289,-0.45 0.105,-0.23 0.152,-0.386 0.133,-0.476 -0.016,-0.106 -0.203,-0.141 -0.555,-0.106 -0.035,0.246 -0.133,0.465 -0.289,0.661 -0.617,0.648 -0.961,1.019 -1.031,1.109 l -0.106,0.262 0.293,0.105 c 0.157,0 0.817,0.195 1.977,0.582 0.141,0.016 0.293,0.051 0.449,0.106 0.106,0.015 0.184,-0.008 0.238,-0.079 0.106,-0.105 0.176,-0.21 0.211,-0.316 -0.597,-0.07 -1.062,-0.141 -1.398,-0.211 l -0.926,-0.266 2.113,-0.554 c 0.633,-0.176 0.985,-0.387 1.055,-0.633 0.035,-0.176 -0.094,-0.43 -0.394,-0.766 z"
   inkscape:connector-curvature="0" />&#10;      <path
   id="path896"
   style="display:inline;fill:#c7be91;fill-rule:evenodd"
   d="m 22.426,14.01 c -0.09,-0.125 -0.153,-0.125 -0.184,0 -0.039,0.227 -0.082,0.438 -0.133,0.633 -0.054,0.231 -0.3,0.477 -0.738,0.738 -0.512,0.266 -0.863,0.469 -1.059,0.61 -0.332,0.211 -1.187,0.316 -2.558,0.316 -0.387,0 -0.899,-0.16 -1.531,-0.476 -0.543,-0.282 -1.09,-0.625 -1.637,-1.028 -0.402,-0.301 -0.641,-0.617 -0.711,-0.953 -0.035,-0.176 -0.027,-0.316 0.027,-0.418 -0.16,0.035 -0.316,0.184 -0.476,0.445 -0.106,0.196 -0.114,0.372 -0.028,0.532 0.02,0.05 0.141,0.211 0.372,0.472 0.156,0.176 0.476,0.407 0.949,0.688 0.492,0.297 0.961,0.527 1.398,0.683 1.09,0.407 1.848,0.504 2.27,0.293 0.105,-0.054 0.511,-0.105 1.215,-0.16 0.687,-0.035 1.152,-0.105 1.398,-0.211 0.527,-0.211 1.047,-0.64 1.559,-1.293 0.121,-0.195 0.168,-0.359 0.132,-0.5 -0.035,-0.074 -0.125,-0.195 -0.265,-0.371 z"
   inkscape:connector-curvature="0" />&#10;      <path
   id="path898"
   style="display:inline;fill:#f7ce00;fill-rule:evenodd"
   d="m 22.953,13.428 c 0,-0.633 -0.387,-1.062 -1.16,-1.293 -0.406,-0.14 -0.953,-0.156 -1.637,-0.051 -0.582,0.106 -1.117,0.254 -1.609,0.45 -0.422,0.156 -1.004,0.297 -1.742,0.422 -0.739,0.121 -1.414,0.191 -2.032,0.211 -0.421,0.015 -0.765,0.042 -1.027,0.078 l -0.293,0.082 -0.105,0.234 c -0.051,0.106 -0.086,0.246 -0.106,0.422 l -0.027,0.238 0.16,0.238 c -0.035,-0.21 0.105,-0.386 0.422,-0.527 0.281,-0.105 0.66,-0.168 1.133,-0.187 0.355,0 1.207,-0.106 2.562,-0.317 0.387,-0.015 0.746,-0.086 1.082,-0.211 0.492,-0.175 0.922,-0.297 1.293,-0.367 0.582,-0.125 1.047,-0.16 1.399,-0.105 0.195,0.035 0.429,0.121 0.714,0.261 0.176,0.09 0.305,0.211 0.395,0.371 0.016,0.036 0.078,0.184 0.184,0.45 l 0.211,0.789 0.105,-0.422 c 0.07,-0.317 0.094,-0.57 0.078,-0.766 z"
   inkscape:connector-curvature="0" />&#10;      <path
   id="path900"
   style="display:inline;fill:#ffff9c;fill-rule:evenodd"
   d="m 16.621,15.276 c 0.438,-0.035 0.895,-0.027 1.371,0.027 l -1.32,0.5 c -0.477,0.141 -0.836,0.168 -1.082,0.078 -0.949,-0.402 -1.32,-0.64 -1.11,-0.711 0.125,-0.035 0.442,-0.027 0.95,0.028 0.617,0.051 1.015,0.078 1.191,0.078 z m 0,-0.66 c 0.473,0.07 0.949,0.211 1.426,0.422 -1.285,0.035 -2.176,0.043 -2.668,0.027 -0.297,-0.02 -0.625,-0.063 -0.977,-0.133 L 13.98,14.799 c -0.085,-0.05 -0.168,-0.113 -0.238,-0.183 -0.156,-0.141 -0.191,-0.274 -0.105,-0.399 0.105,-0.156 0.211,-0.246 0.316,-0.261 0.09,-0.02 0.317,0.015 0.688,0.105 0.23,0.051 0.562,0.148 1.004,0.289 0.402,0.145 0.726,0.231 0.976,0.266 z m 1.293,-0.606 c 0.191,0.262 0.289,0.582 0.289,0.949 -0.758,-0.332 -1.285,-0.535 -1.582,-0.605 -1.195,-0.301 -1.715,-0.484 -1.559,-0.555 0.09,-0.054 0.317,-0.09 0.688,-0.105 h 0.922 c 0.39,-0.02 0.637,-0.02 0.742,0 0.207,0.035 0.375,0.14 0.5,0.316 z m 0.527,0.895 -0.105,-1 c 0,-0.211 0.226,-0.371 0.684,-0.477 0.14,-0.051 0.371,-0.129 0.687,-0.234 0.246,-0.055 0.379,-0.027 0.395,0.078 0.07,0.211 -0.149,0.535 -0.661,0.977 -0.156,0.14 -0.379,0.289 -0.66,0.449 z m -1.636,1.48 c -0.282,-0.07 -0.434,-0.125 -0.45,-0.16 -0.035,-0.051 0.219,-0.191 0.766,-0.422 l 1.399,-0.578 v 0.817 c 0.054,0.16 0.078,0.265 0.078,0.316 0.019,0.105 -0.051,0.168 -0.211,0.184 -0.297,0.035 -0.825,-0.016 -1.582,-0.157 z m 2.136,-0.422 C 18.871,15.854 18.82,15.698 18.785,15.487 18.766,15.381 18.75,15.284 18.73,15.198 l 0.582,0.289 c 0.438,0.191 0.739,0.297 0.895,0.316 0.301,0.071 0.461,0.106 0.477,0.106 0.125,0.035 0.125,0.097 0,0.183 -0.141,0.09 -0.368,0.176 -0.684,0.266 -0.316,0.086 -0.566,0.121 -0.742,0.105 -0.141,-0.019 -0.219,-0.07 -0.235,-0.16 -0.039,-0.191 -0.062,-0.304 -0.082,-0.34 z m 3.485,-0.847 c 0.633,-0.754 0.648,-1.442 0.051,-2.055 -0.618,-0.617 -1.422,-0.73 -2.426,-0.344 -1.004,0.403 -2.305,0.668 -3.906,0.789 -1.551,0.125 -2.454,0.246 -2.719,0.371 -0.477,0.247 -0.254,0.711 0.66,1.399 0.898,0.703 1.848,1.133 2.852,1.293 2.496,0.406 4.328,-0.078 5.488,-1.453 z m -0.949,-2.188 c 0.332,0.051 0.535,0.156 0.605,0.317 0.07,0.175 -0.035,0.386 -0.316,0.632 -0.227,0.211 -0.793,0.457 -1.688,0.739 l -1.293,0.343 1.531,-1.242 c 0.383,-0.578 0.774,-0.843 1.161,-0.789 z m 0.894,1.504 c 0.035,0.192 -0.023,0.402 -0.183,0.633 -0.157,0.246 -0.36,0.414 -0.606,0.5 l -0.504,0.184 -2.058,-0.657 1.691,-0.293 c 0.191,-0.05 0.535,-0.175 1.027,-0.367 0.407,-0.125 0.617,-0.125 0.633,0 z"
   inkscape:connector-curvature="0" />&#10;      &#10;      &#10;      &#10;      &#10;      &#10;      &#10;      &#10;      &#10;    </g>&#10;  </g>&#10;<metadata
   id="metadata1"><rdf:RDF><cc:Work><dc:format>image/svg+xml</dc:format><dc:type
         rdf:resource="http://purl.org/dc/dcmitype/StillImage" /><cc:license
         rdf:resource="http://creativecommons.org/licenses/publicdomain/" /><dc:publisher><cc:Agent
           rdf:about="http://openclipart.org/"><dc:title>Openclipart</dc:title></cc:Agent></dc:publisher></cc:Work><cc:License
       rdf:about="http://creativecommons.org/licenses/publicdomain/"><cc:permits
         rdf:resource="http://creativecommons.org/ns#Reproduction" /><cc:permits
         rdf:resource="http://creativecommons.org/ns#Distribution" /><cc:permits
         rdf:resource="http://creativecommons.org/ns#DerivativeWorks" /></cc:License></rdf:RDF></metadata></svg>
