<?xml version="1.0" encoding="UTF-8" standalone="no"?>
<!-- Created with Inkscape (http://www.inkscape.org/) -->

<svg
   width="6.3896875mm"
   height="10.573545mm"
   viewBox="0 0 6.3896875 10.573545"
   version="1.1"
   id="svg1"
   sodipodi:docname="SalsaParmesano.svg"
   inkscape:version="1.3 (0e150ed6c4, 2023-07-21)"
   xmlns:inkscape="http://www.inkscape.org/namespaces/inkscape"
   xmlns:sodipodi="http://sodipodi.sourceforge.net/DTD/sodipodi-0.dtd"
   xmlns="http://www.w3.org/2000/svg"
   xmlns:svg="http://www.w3.org/2000/svg">
  <sodipodi:namedview
     id="namedview1"
     pagecolor="#ffffff"
     bordercolor="#000000"
     borderopacity="0.25"
     inkscape:showpageshadow="2"
     inkscape:pageopacity="0.0"
     inkscape:pagecheckerboard="0"
     inkscape:deskcolor="#d1d1d1"
     inkscape:document-units="mm"
     inkscape:zoom="15.662534"
     inkscape:cx="-2.0430921"
     inkscape:cy="23.655176"
     inkscape:window-width="1920"
     inkscape:window-height="991"
     inkscape:window-x="-9"
     inkscape:window-y="-9"
     inkscape:window-maximized="1"
     inkscape:current-layer="g12" />
  <defs
     id="defs1" />
  <g
     inkscape:label="Layer 1"
     inkscape:groupmode="layer"
     id="layer1"
     transform="translate(-83.079167,-65.88125)">
    <g
       id="g10"
       transform="matrix(0.33072916,0,0,-0.33072916,83.079167,76.454992)"
       style="display:inline">
      <g
         id="g12"
         style="display:inline">
        <g
           id="g14"
           style="display:inline;fill:#ffe680">
          <g
             id="g16"
             style="display:inline;fill:#ffe680">
            <g
               id="g22"
               style="fill:#ffe680">
              <path
                 id="path30"
                 style="fill:#ffe680;fill-rule:evenodd"
                 d="m 17.84,24.209 c 0.535,-0.586 0.906,-1.145 1.121,-1.68 0.238,-0.637 0.359,-1.519 0.359,-2.637 0,-1.015 -0.093,-3.574 -0.281,-7.683 C 18.879,8.662 18.758,6.369 18.68,5.33 18.598,4.478 18.227,3.65 17.559,2.85 16.68,1.756 15.387,0.971 13.68,0.49 12.293,0.115 10.945,-0.041 9.641,0.01 8.359,-0.041 7.027,0.115 5.641,0.49 3.934,0.971 2.641,1.756 1.762,2.85 1.094,3.65 0.719,4.478 0.641,5.33 0.586,6.025 0.469,8.318 0.281,12.213 0.094,16.236 0,18.799 0,19.892 c 0,1.118 0.121,2 0.359,2.637 0.215,0.535 0.586,1.094 1.121,1.68 1.067,1.148 1.786,2.137 2.161,2.961 l 6,-0.32 6.039,0.32 c 0.375,-0.824 1.093,-1.813 2.16,-2.961 z"
                 inkscape:connector-curvature="0" />
            </g>
          </g>
        </g>
        <g
           id="g32"
           style="display:inline;fill:#d4aa00">
          <g
             id="g34"
             style="fill:#d4aa00">
            <g
               id="g40"
               style="fill:#d4aa00">
              <path
                 id="path48"
                 style="fill:#af9500;fill-rule:evenodd;fill-opacity:1"
                 d="m 17.281,24.049 c 0.508,-0.586 0.852,-1.133 1.039,-1.637 0.242,-0.641 0.36,-1.496 0.36,-2.562 0,-1.067 -0.094,-3.559 -0.282,-7.481 C 18.238,8.584 18.121,6.357 18.039,5.689 17.988,4.865 17.652,4.064 17.039,3.291 16.188,2.225 14.961,1.463 13.359,1.01 12.055,0.635 10.801,0.478 9.602,0.529 8.348,0.478 7.078,0.635 5.801,1.01 4.199,1.463 2.988,2.225 2.16,3.291 1.547,4.037 1.199,4.838 1.121,5.689 c -0.055,0.907 -0.16,3.133 -0.32,6.68 -0.188,4 -0.281,6.496 -0.281,7.481 0,1.066 0.121,1.921 0.359,2.562 0.187,0.504 0.535,1.051 1.043,1.637 0.957,1.066 1.625,2.027 2,2.883 l 5.68,-0.321 5.636,0.321 c 0.403,-0.883 1.082,-1.84 2.043,-2.883 z"
                 inkscape:connector-curvature="0" />
            </g>
          </g>
        </g>
        <g
           id="g50"
           style="display:inline;fill:#aa4400">
          <g
             id="g52"
             style="fill:#aa4400">
            <g
               id="g58"
               style="fill:#aa4400">
              <path
                 id="path66"
                 style="fill:#aa4400;fill-rule:evenodd"
                 d="m 8.359,17.451 c 1.36,-0.586 2.453,-1.359 3.282,-2.32 L 5.84,3.529 C 5.199,4.838 4.48,6.623 3.68,8.892 3.172,10.303 2.652,11.943 2.121,13.81 l -0.68,2.399 c 0.348,0.695 1,1.215 1.957,1.562 0.188,0.637 0.497,1.145 0.922,1.52 0.453,0.398 0.961,0.598 1.52,0.598 0.613,0 1.16,-0.239 1.64,-0.719 0.454,-0.453 0.747,-1.028 0.879,-1.719 z"
                 inkscape:connector-curvature="0" />
            </g>
          </g>
        </g>
        <g
           id="g68"
           style="display:inline;fill:#554400">
          <g
             id="g70"
             style="fill:#554400">
            <g
               id="g76"
               style="fill:#554400">
              <path
                 id="path84"
                 style="fill:#554400;fill-rule:evenodd"
                 d="M 7.559,16.81 C 8.547,16.33 9.348,15.705 9.961,14.932 L 8.441,11.209 C 7.934,10.064 7.027,8.131 5.719,5.412 5.266,6.451 4.746,7.904 4.16,9.771 L 2.48,15.81 c 0.266,0.559 0.747,0.989 1.442,1.282 0.133,0.504 0.359,0.918 0.68,1.238 0.343,0.32 0.718,0.48 1.117,0.48 0.453,0 0.855,-0.199 1.203,-0.601 0.316,-0.344 0.531,-0.813 0.637,-1.399 z"
                 inkscape:connector-curvature="0" />
            </g>
          </g>
        </g>
        <g
           id="g250"
           style="display:inline;fill:#ffe680">
          <g
             id="g252"
             style="display:inline;fill:#ffe680">
            <g
               id="g258"
               style="fill:#ffe680">
              <path
                 id="path266"
                 style="fill:#ffe680;fill-rule:evenodd"
                 d="m 16.641,27.17 c 0,-0.453 -0.68,-0.84 -2.039,-1.16 -1.387,-0.321 -3.043,-0.481 -4.961,-0.481 -1.946,0 -3.602,0.16 -4.961,0.481 -1.36,0.32 -2.039,0.707 -2.039,1.16 0,0.453 0.679,0.84 2.039,1.16 1.386,0.32 3.039,0.48 4.961,0.48 1.918,0 3.574,-0.16 4.961,-0.48 1.359,-0.32 2.039,-0.707 2.039,-1.16 z"
                 inkscape:connector-curvature="0" />
            </g>
          </g>
        </g>
        <g
           id="g268"
           style="display:inline;fill:#d45500">
          <g
             id="g270"
             style="fill:#d45500">
            <g
               id="g276"
               style="fill:#d45500">
              <path
                 id="path286"
                 style="fill:#d45500;fill-rule:evenodd"
                 d="m 16.961,27.529 c 0,-0.453 -0.707,-0.824 -2.121,-1.117 -1.414,-0.32 -3.133,-0.48 -5.16,-0.48 -2,0 -3.707,0.16 -5.121,0.48 -1.438,0.293 -2.161,0.664 -2.161,1.117 0,0.453 0.723,0.84 2.161,1.16 1.414,0.321 3.121,0.481 5.121,0.481 2.027,0 3.746,-0.16 5.16,-0.481 1.414,-0.32 2.121,-0.707 2.121,-1.16 z"
                 inkscape:connector-curvature="0" />
            </g>
          </g>
        </g>
        <g
           id="g288"
           style="display:inline;fill:#ff6600">
          <g
             id="g290"
             style="fill:#ff6600">
            <g
               id="g296"
               style="fill:#ff6600">
              <path
                 id="path306"
                 style="display:inline;fill:#ff6600;fill-rule:evenodd"
                 d="m 16.719,30.65 v -2.84 c -0.051,-0.347 -0.758,-0.668 -2.117,-0.96 -1.414,-0.293 -3.067,-0.438 -4.961,-0.438 -1.868,0 -3.508,0.145 -4.922,0.438 -1.36,0.292 -2.067,0.613 -2.117,0.96 v 2.84 z"
                 inkscape:connector-curvature="0" />
            </g>
          </g>
        </g>
        <path
           id="path356"
           style="display:inline;fill:#ffffff;fill-rule:evenodd"
           d="M 5.762,1.81 C 6.16,1.732 6.266,1.584 6.078,1.369 5.895,1.158 5.734,1.119 5.602,1.252 5.465,1.357 5.398,1.49 5.398,1.65 5.375,1.81 5.492,1.865 5.762,1.81 Z"
           inkscape:connector-curvature="0"
           sodipodi:insensitive="true" />
        <g
           id="g358"
           style="display:inline;fill:#ffd42a">
          <g
             id="g360"
             style="display:inline;fill:#ffd42a">
            <g
               id="g366"
               style="fill:#ffd42a">
              <path
                 id="path374"
                 style="display:inline;fill:#ffd42a;fill-rule:evenodd"
                 d="m 6.281,10.209 4.399,-2.317 -0.239,-3 C 9.375,4.838 8.055,4.943 6.48,5.209 4.934,5.478 3.602,5.877 2.48,6.412 l -0.32,3.52 z"
                 inkscape:connector-curvature="0" />
            </g>
          </g>
        </g>
        <g
           id="g376"
           style="display:inline;fill:#ffcc00">
          <g
             id="g378"
             style="display:inline;fill:#ffcc00">
            <g
               id="g384"
               style="fill:#ffcc00">
              <path
                 id="path392"
                 style="display:inline;fill:#f1c000;fill-rule:evenodd;fill-opacity:1"
                 d="M 6.281,11.412 10.68,7.892 2.16,9.932 Z"
                 inkscape:connector-curvature="0" />
            </g>
          </g>
        </g>
        <path
           id="path356-1"
           style="display:inline;fill:#ffe680;fill-rule:evenodd;stroke-width:0.850623;fill-opacity:1"
           d="M 8.35245,6.962931 C 8.6760719,6.8935217 8.7622626,6.7618225 8.609396,6.5705027 8.460595,6.3827423 8.3296826,6.3480378 8.2223508,6.4663892 8.1109533,6.5598244 8.0564742,6.6781757 8.0564742,6.8205532 8.0377725,6.962931 8.1329075,7.0118731 8.35245,6.962931 Z"
           inkscape:connector-curvature="0" />
        <path
           id="path356-1-5"
           style="display:inline;fill:#ffe680;fill-rule:evenodd;stroke-width:0.850623;fill-opacity:1"
           d="M 9.4955625,5.8830541 C 9.8191844,5.8136448 9.9053751,5.6819456 9.7525085,5.4906258 9.6037075,5.3028654 9.4727951,5.2681609 9.3654633,5.3865123 9.2540658,5.4799475 9.1995867,5.5982988 9.1995867,5.7406763 9.180885,5.8830541 9.27602,5.9319962 9.4955625,5.8830541 Z"
           inkscape:connector-curvature="0" />
        <path
           id="path356-1-9"
           style="display:inline;fill:#ffe680;fill-rule:evenodd;stroke-width:1.39011;fill-opacity:1"
           d="M 6.4331579,10.394366 C 6.8962386,10.26482 7.0195721,10.019015 6.8008298,9.6619326 6.5879057,9.3114945 6.4005793,9.2467216 6.2469948,9.467614 6.0875926,9.6420025 6.0096367,9.8628946 6.0096367,10.128631 c -0.026761,0.265735 0.1093708,0.357081 0.4235212,0.265735 z"
           inkscape:connector-curvature="0" />
        <path
           id="path356-1-98"
           style="display:inline;fill:#ffe680;fill-rule:evenodd;stroke-width:1.23865;fill-opacity:1"
           d="M 4.5295399,6.7552883 C 5.2157553,6.685879 5.3985161,6.5541798 5.0743742,6.36286 4.7588531,6.1750996 4.4812634,6.1403951 4.2536746,6.2587465 4.0174647,6.3521817 3.901946,6.470533 3.901946,6.6129105 3.8622905,6.7552883 4.0640169,6.8042304 4.5295399,6.7552883 Z"
           inkscape:connector-curvature="0" />
        <path
           id="path356-1-57"
           style="display:inline;fill:#ffe680;fill-rule:evenodd;stroke-width:0.850623;fill-opacity:1"
           d="M 5.4809868,7.9763752 C 5.4839206,8.3073438 5.5956039,8.4182508 5.813749,8.3069665 6.0275901,8.1989493 6.0879037,8.0776863 5.9935457,7.9487532 5.9244126,7.8208464 5.8194296,7.7436871 5.6799587,7.7150646 5.5442473,7.668122 5.4771791,7.7514758 5.4809868,7.9763752 Z"
           inkscape:connector-curvature="0" />
        <path
           id="path356-1-57-8"
           style="display:inline;fill:#ffe680;fill-rule:evenodd;stroke-width:0.850623;fill-opacity:1"
           d="m 4.0885382,10.130559 c 0.073778,0.15952 0.2802939,0.10944 0.6153463,-0.1491441 C 5.0325511,9.7284566 5.1063324,9.6125951 4.9245126,9.6376336 4.7843305,9.6395836 4.5958493,9.6999426 4.3608457,9.8163529 4.1281979,9.9202657 4.0354254,10.023859 4.0885382,10.130559 Z"
           inkscape:connector-curvature="0" />
        <path
           id="path356-1-92"
           style="display:inline;fill:#ffe680;fill-rule:evenodd;stroke-width:1.74483;fill-opacity:1"
           d="M 6.7495365,7.1740421 C 7.2776983,6.9950975 7.4183644,6.655563 7.168881,6.1623202 6.9260328,5.6782539 6.7123793,5.588782 6.5372102,5.8939045 6.3554058,6.1347904 6.266494,6.4399126 6.266494,6.806977 6.2359722,7.1740421 6.3912357,7.30022 6.7495365,7.1740421 Z"
           inkscape:connector-curvature="0"
           inkscape:transform-center-x="0.48736527"
           inkscape:transform-center-y="1.0316469" />
        <path
           id="path354-8"
           style="display:inline;fill:#ffe680;fill-rule:evenodd;stroke-width:0.430012;fill-opacity:1"
           d="m 8.4319418,9.0090462 c 0.3355758,-0.091012 0.5376426,-0.1847884 0.60139,-0.2831781 0.063146,-0.090088 0.023455,-0.1359006 -0.1202782,-0.1359006 -0.2255212,0 -0.5376426,0.095009 -0.9393709,0.2834855 -0.1762072,0.090088 -0.1924434,0.1478923 -0.046908,0.1718754 0.1431315,0.033513 0.3121213,0.020292 0.5051671,-0.036282 z"
           inkscape:connector-curvature="0" />
        <path
           id="path354"
           style="display:inline;fill:#fff6d5;fill-rule:evenodd;stroke-width:0.661126;fill-opacity:1"
           d="M 3.9581179,2.6971811 C 4.3035154,2.4881674 4.5114967,2.2727986 4.5771099,2.0468379 4.642104,1.8399427 4.6012505,1.7347297 4.4533115,1.7347297 c -0.232122,0 -0.5533788,0.2181933 -0.9668654,0.6510493 -0.1813646,0.2068952 -0.1980774,0.3396472 -0.048281,0.3947251 0.1473201,0.076968 0.3212568,0.046604 0.5199528,-0.083323 z"
           inkscape:connector-curvature="0" />
        <path
           id="path354-0"
           style="display:inline;fill:#ffe680;fill-rule:evenodd;stroke-width:0.661126;fill-opacity:1"
           d="M 3.5737973,8.8120178 C 3.9191948,8.6030041 4.1271761,8.3876353 4.1927893,8.1616746 4.2577834,7.9547794 4.2169299,7.8495664 4.0689909,7.8495664 c -0.232122,0 -0.5533788,0.2181933 -0.9668654,0.6510493 -0.1813646,0.2068952 -0.1980774,0.3396472 -0.048281,0.3947251 0.1473201,0.076968 0.3212568,0.046604 0.5199528,-0.083323 z"
           inkscape:connector-curvature="0" />
        <path
           id="path354-0-6"
           style="display:inline;fill:#ffe680;fill-opacity:1;fill-rule:evenodd;stroke-width:0.588313"
           d="M 8.3857237,8.0444446 C 8.8153905,8.0981624 9.1753522,8.0071793 9.3549011,7.9110646 9.5238526,7.8255227 9.5413476,7.7449989 9.4043836,7.6708884 9.1894819,7.5546061 8.7773387,7.5182217 8.1669448,7.5581691 7.8647174,7.6428767 7.8094002,7.8804775 7.9824084,7.9432671 8.5659126,8.1151784 8.1334568,8.0190728 8.3857237,8.0444446 Z"
           inkscape:connector-curvature="0"
           sodipodi:nodetypes="ccsccc" />
        <path
           id="path308"
           style="display:inline;fill:#d45500;fill-rule:evenodd"
           d="m 16.719,30.611 c 0,-0.375 -0.692,-0.695 -2.078,-0.961 -1.36,-0.265 -3.028,-0.398 -5,-0.398 -1.946,0 -3.602,0.133 -4.961,0.398 -1.387,0.266 -2.078,0.586 -2.078,0.961 0,0.371 0.691,0.692 2.078,0.961 1.359,0.266 3.015,0.399 4.961,0.399 1.972,0 3.64,-0.133 5,-0.399 1.386,-0.269 2.078,-0.59 2.078,-0.961 z"
           inkscape:connector-curvature="0" />
      </g>
    </g>
  </g>
</svg>
