<?xml version="1.0" encoding="UTF-8" standalone="no"?>
<!-- Created with Inkscape (http://www.inkscape.org/) -->

<svg
   id="svg2"
   xml:space="preserve"
   viewBox="0 0 24.15 39.963"
   version="1.1"
   inkscape:version="1.3 (0e150ed6c4, 2023-07-21)"
   sodipodi:docname="SalsaPomodoro.svg"
   xmlns:inkscape="http://www.inkscape.org/namespaces/inkscape"
   xmlns:sodipodi="http://sodipodi.sourceforge.net/DTD/sodipodi-0.dtd"
   xmlns="http://www.w3.org/2000/svg"
   xmlns:svg="http://www.w3.org/2000/svg"
   xmlns:rdf="http://www.w3.org/1999/02/22-rdf-syntax-ns#"
   xmlns:cc="http://creativecommons.org/ns#"
   xmlns:dc="http://purl.org/dc/elements/1.1/"><sodipodi:namedview
   id="namedview1"
   pagecolor="#ffffff"
   bordercolor="#000000"
   borderopacity="0.25"
   inkscape:showpageshadow="2"
   inkscape:pageopacity="0.0"
   inkscape:pagecheckerboard="0"
   inkscape:deskcolor="#d1d1d1"
   inkscape:zoom="19.442984"
   inkscape:cx="12.086622"
   inkscape:cy="19.981501"
   inkscape:window-width="1920"
   inkscape:window-height="991"
   inkscape:window-x="-9"
   inkscape:window-y="-9"
   inkscape:window-maximized="1"
   inkscape:current-layer="g32" />&#10;  <defs
   id="defs6">&#10;    <linearGradient
   id="linearGradient24"
   y2="22.981"
   gradientUnits="userSpaceOnUse"
   x2="24.137"
   gradientTransform="matrix(.8 0 0 -.8 1.5582e-7 31.971)"
   y1="22.981"
   x1="-0.0376">&#10;      <stop
   id="stop26"
   style="stop-color:#de632c"
   offset="0" />&#10;      <stop
   id="stop28"
   style="stop-color:#4f200b"
   offset="1" />&#10;    </linearGradient>&#10;    <linearGradient
   id="linearGradient42"
   y2="22.824"
   gradientUnits="userSpaceOnUse"
   x2="23.35"
   gradientTransform="matrix(.8 0 0 -.8 1.5582e-7 31.971)"
   y1="22.824"
   x1=".64990">&#10;      <stop
   id="stop44"
   style="stop-color:#b34312"
   offset="0" />&#10;      <stop
   id="stop46"
   style="stop-color:#5e260d"
   offset="1" />&#10;    </linearGradient>&#10;    <clipPath
   id="clipPath54">&#10;      <path
   id="path56"
   d="m6 19.971h2v2h-2v-2z"
   inkscape:connector-curvature="0" />&#10;    </clipPath>&#10;    <mask
   id="mask58">&#10;      <g
   id="g60">&#10;        <g
   id="g62"
   clip-path="url(#clipPath54)">&#10;          <path
   id="path64"
   style="fill:#000000;fill-opacity:.57810"
   d="m6 19.971h2v2h-2v-2z"
   inkscape:connector-curvature="0" />&#10;        </g>&#10;      </g>&#10;    </mask>&#10;    <clipPath
   id="clipPath70">&#10;      <path
   id="path72"
   d="m6 19.971h2v2h-2v-2z"
   inkscape:connector-curvature="0" />&#10;    </clipPath>&#10;    <clipPath
   id="clipPath74">&#10;      <path
   id="path76"
   d="m6 20h2v2h-2v-2z"
   inkscape:connector-curvature="0" />&#10;    </clipPath>&#10;    <clipPath
   id="clipPath98">&#10;      <path
   id="path100"
   d="m10 19.971h2v2h-2v-2z"
   inkscape:connector-curvature="0" />&#10;    </clipPath>&#10;    <mask
   id="mask102">&#10;      <g
   id="g104">&#10;        <g
   id="g106"
   clip-path="url(#clipPath98)">&#10;          <path
   id="path108"
   style="fill:#000000;fill-opacity:.57810"
   d="m10 19.971h2v2h-2v-2z"
   inkscape:connector-curvature="0" />&#10;        </g>&#10;      </g>&#10;    </mask>&#10;    <clipPath
   id="clipPath114">&#10;      <path
   id="path116"
   d="m10 19.971h2v2h-2v-2z"
   inkscape:connector-curvature="0" />&#10;    </clipPath>&#10;    <clipPath
   id="clipPath118">&#10;      <path
   id="path120"
   d="m10 20h2v2h-2v-2z"
   inkscape:connector-curvature="0" />&#10;    </clipPath>&#10;    <clipPath
   id="clipPath142">&#10;      <path
   id="path144"
   d="m14 18.971h3v3h-3v-3z"
   inkscape:connector-curvature="0" />&#10;    </clipPath>&#10;    <mask
   id="mask146">&#10;      <g
   id="g148">&#10;        <g
   id="g150"
   clip-path="url(#clipPath142)">&#10;          <path
   id="path152"
   style="fill:#000000;fill-opacity:.57810"
   d="m14 18.971h3v3h-3v-3z"
   inkscape:connector-curvature="0" />&#10;        </g>&#10;      </g>&#10;    </mask>&#10;    <clipPath
   id="clipPath158">&#10;      <path
   id="path160"
   d="m14 18.971h3v3h-3v-3z"
   inkscape:connector-curvature="0" />&#10;    </clipPath>&#10;    <clipPath
   id="clipPath162">&#10;      <path
   id="path164"
   d="m14 19h3v3h-3v-3z"
   inkscape:connector-curvature="0" />&#10;    </clipPath>&#10;    <clipPath
   id="clipPath186">&#10;      <path
   id="path188"
   d="m14 16.971h3v2h-3v-2z"
   inkscape:connector-curvature="0" />&#10;    </clipPath>&#10;    <mask
   id="mask190">&#10;      <g
   id="g192">&#10;        <g
   id="g194"
   clip-path="url(#clipPath186)">&#10;          <path
   id="path196"
   style="fill:#000000;fill-opacity:.57810"
   d="m14 16.971h3v2h-3v-2z"
   inkscape:connector-curvature="0" />&#10;        </g>&#10;      </g>&#10;    </mask>&#10;    <clipPath
   id="clipPath202">&#10;      <path
   id="path204"
   d="m14 16.971h3v2h-3v-2z"
   inkscape:connector-curvature="0" />&#10;    </clipPath>&#10;    <clipPath
   id="clipPath206">&#10;      <path
   id="path208"
   d="m14 17h3v2h-3v-2z"
   inkscape:connector-curvature="0" />&#10;    </clipPath>&#10;    <clipPath
   id="clipPath230">&#10;      <path
   id="path232"
   d="m17 17.971h2v2h-2v-2z"
   inkscape:connector-curvature="0" />&#10;    </clipPath>&#10;    <mask
   id="mask234">&#10;      <g
   id="g236">&#10;        <g
   id="g238"
   clip-path="url(#clipPath230)">&#10;          <path
   id="path240"
   style="fill:#000000;fill-opacity:.57810"
   d="m17 17.971h2v2h-2v-2z"
   inkscape:connector-curvature="0" />&#10;        </g>&#10;      </g>&#10;    </mask>&#10;    <clipPath
   id="clipPath246">&#10;      <path
   id="path248"
   d="m17 17.971h2v2h-2v-2z"
   inkscape:connector-curvature="0" />&#10;    </clipPath>&#10;    <clipPath
   id="clipPath250">&#10;      <path
   id="path252"
   d="m17 18h2v2h-2v-2z"
   inkscape:connector-curvature="0" />&#10;    </clipPath>&#10;    <clipPath
   id="clipPath274">&#10;      <path
   id="path276"
   d="m11 15.971h3v4h-3v-4z"
   inkscape:connector-curvature="0" />&#10;    </clipPath>&#10;    <mask
   id="mask278">&#10;      <g
   id="g280">&#10;        <g
   id="g282"
   clip-path="url(#clipPath274)">&#10;          <path
   id="path284"
   style="fill:#000000;fill-opacity:.57810"
   d="m11 15.971h3v4h-3v-4z"
   inkscape:connector-curvature="0" />&#10;        </g>&#10;      </g>&#10;    </mask>&#10;    <clipPath
   id="clipPath290">&#10;      <path
   id="path292"
   d="m11 15.971h3v4h-3v-4z"
   inkscape:connector-curvature="0" />&#10;    </clipPath>&#10;    <clipPath
   id="clipPath294">&#10;      <path
   id="path296"
   d="m11 16h3v4h-3v-4z"
   inkscape:connector-curvature="0" />&#10;    </clipPath>&#10;    <clipPath
   id="clipPath318">&#10;      <path
   id="path320"
   d="m13 2.9706h3v4h-3v-4z"
   inkscape:connector-curvature="0" />&#10;    </clipPath>&#10;    <mask
   id="mask322">&#10;      <g
   id="g324">&#10;        <g
   id="g326"
   clip-path="url(#clipPath318)">&#10;          <path
   id="path328"
   style="fill:#000000;fill-opacity:.57810"
   d="m13 2.9706h3v4h-3v-4z"
   inkscape:connector-curvature="0" />&#10;        </g>&#10;      </g>&#10;    </mask>&#10;    <clipPath
   id="clipPath334">&#10;      <path
   id="path336"
   d="m13 2.9706h3v4h-3v-4z"
   inkscape:connector-curvature="0" />&#10;    </clipPath>&#10;    <clipPath
   id="clipPath338">&#10;      <path
   id="path340"
   d="m13 3h3v4h-3v-4z"
   inkscape:connector-curvature="0" />&#10;    </clipPath>&#10;    <clipPath
   id="clipPath362">&#10;      <path
   id="path364"
   d="m16 3.9706h3v2h-3v-2z"
   inkscape:connector-curvature="0" />&#10;    </clipPath>&#10;    <mask
   id="mask366">&#10;      <g
   id="g368">&#10;        <g
   id="g370"
   clip-path="url(#clipPath362)">&#10;          <path
   id="path372"
   style="fill:#000000;fill-opacity:.57810"
   d="m16 3.9706h3v2h-3v-2z"
   inkscape:connector-curvature="0" />&#10;        </g>&#10;      </g>&#10;    </mask>&#10;    <clipPath
   id="clipPath378">&#10;      <path
   id="path380"
   d="m16 3.9706h3v2h-3v-2z"
   inkscape:connector-curvature="0" />&#10;    </clipPath>&#10;    <clipPath
   id="clipPath382">&#10;      <path
   id="path384"
   d="m16 4h3v2h-3v-2z"
   inkscape:connector-curvature="0" />&#10;    </clipPath>&#10;    <clipPath
   id="clipPath406">&#10;      <path
   id="path408"
   d="m7 1.9706h4v2h-4v-2z"
   inkscape:connector-curvature="0" />&#10;    </clipPath>&#10;    <mask
   id="mask410">&#10;      <g
   id="g412">&#10;        <g
   id="g414"
   clip-path="url(#clipPath406)">&#10;          <path
   id="path416"
   style="fill:#000000;fill-opacity:.57810"
   d="m7 1.9706h4v2h-4v-2z"
   inkscape:connector-curvature="0" />&#10;        </g>&#10;      </g>&#10;    </mask>&#10;    <clipPath
   id="clipPath422">&#10;      <path
   id="path424"
   d="m7 1.9706h4v2h-4v-2z"
   inkscape:connector-curvature="0" />&#10;    </clipPath>&#10;    <clipPath
   id="clipPath426">&#10;      <path
   id="path428"
   d="m7 2h4v2h-4v-2z"
   inkscape:connector-curvature="0" />&#10;    </clipPath>&#10;    <clipPath
   id="clipPath450">&#10;      <path
   id="path452"
   d="m10 0.97062h4v3h-4v-3z"
   inkscape:connector-curvature="0" />&#10;    </clipPath>&#10;    <mask
   id="mask454">&#10;      <g
   id="g456">&#10;        <g
   id="g458"
   clip-path="url(#clipPath450)">&#10;          <path
   id="path460"
   style="fill:#000000;fill-opacity:.57810"
   d="m10 0.97062h4v3h-4v-3z"
   inkscape:connector-curvature="0" />&#10;        </g>&#10;      </g>&#10;    </mask>&#10;    <clipPath
   id="clipPath466">&#10;      <path
   id="path468"
   d="m10 0.97062h4v3h-4v-3z"
   inkscape:connector-curvature="0" />&#10;    </clipPath>&#10;    <clipPath
   id="clipPath470">&#10;      <path
   id="path472"
   d="m10 1h4v3h-4v-3z"
   inkscape:connector-curvature="0" />&#10;    </clipPath>&#10;    <clipPath
   id="clipPath494">&#10;      <path
   id="path496"
   d="m3 15.971h2v3h-2v-3z"
   inkscape:connector-curvature="0" />&#10;    </clipPath>&#10;    <mask
   id="mask498">&#10;      <g
   id="g500">&#10;        <g
   id="g502"
   clip-path="url(#clipPath494)">&#10;          <path
   id="path504"
   style="fill:#000000;fill-opacity:.57810"
   d="m3 15.971h2v3h-2v-3z"
   inkscape:connector-curvature="0" />&#10;        </g>&#10;      </g>&#10;    </mask>&#10;    <clipPath
   id="clipPath510">&#10;      <path
   id="path512"
   d="m3 15.971h2v3h-2v-3z"
   inkscape:connector-curvature="0" />&#10;    </clipPath>&#10;    <clipPath
   id="clipPath514">&#10;      <path
   id="path516"
   d="m3 16h2v3h-2v-3z"
   inkscape:connector-curvature="0" />&#10;    </clipPath>&#10;    <clipPath
   id="clipPath538">&#10;      <path
   id="path540"
   d="m3 21.971h3v2h-3v-2z"
   inkscape:connector-curvature="0" />&#10;    </clipPath>&#10;    <mask
   id="mask542">&#10;      <g
   id="g544">&#10;        <g
   id="g546"
   clip-path="url(#clipPath538)">&#10;          <path
   id="path548"
   style="fill:#000000;fill-opacity:.57810"
   d="m3 21.971h3v2h-3v-2z"
   inkscape:connector-curvature="0" />&#10;        </g>&#10;      </g>&#10;    </mask>&#10;    <clipPath
   id="clipPath554">&#10;      <path
   id="path556"
   d="m3 21.971h3v2h-3v-2z"
   inkscape:connector-curvature="0" />&#10;    </clipPath>&#10;    <clipPath
   id="clipPath558">&#10;      <path
   id="path560"
   d="m3 22h3v2h-3v-2z"
   inkscape:connector-curvature="0" />&#10;    </clipPath>&#10;    <clipPath
   id="clipPath582">&#10;      <path
   id="path584"
   d="m7 21.971h3v2h-3v-2z"
   inkscape:connector-curvature="0" />&#10;    </clipPath>&#10;    <mask
   id="mask586">&#10;      <g
   id="g588">&#10;        <g
   id="g590"
   clip-path="url(#clipPath582)">&#10;          <path
   id="path592"
   style="fill:#000000;fill-opacity:.57810"
   d="m7 21.971h3v2h-3v-2z"
   inkscape:connector-curvature="0" />&#10;        </g>&#10;      </g>&#10;    </mask>&#10;    <clipPath
   id="clipPath598">&#10;      <path
   id="path600"
   d="m7 21.971h3v2h-3v-2z"
   inkscape:connector-curvature="0" />&#10;    </clipPath>&#10;    <clipPath
   id="clipPath602">&#10;      <path
   id="path604"
   d="m7 22h3v2h-3v-2z"
   inkscape:connector-curvature="0" />&#10;    </clipPath>&#10;    <clipPath
   id="clipPath626">&#10;      <path
   id="path628"
   d="m2 2.9706h2v3h-2v-3z"
   inkscape:connector-curvature="0" />&#10;    </clipPath>&#10;    <mask
   id="mask630">&#10;      <g
   id="g632">&#10;        <g
   id="g634"
   clip-path="url(#clipPath626)">&#10;          <path
   id="path636"
   style="fill:#000000;fill-opacity:.57810"
   d="m2 2.9706h2v3h-2v-3z"
   inkscape:connector-curvature="0" />&#10;        </g>&#10;      </g>&#10;    </mask>&#10;    <clipPath
   id="clipPath642">&#10;      <path
   id="path644"
   d="m2 2.9706h2v3h-2v-3z"
   inkscape:connector-curvature="0" />&#10;    </clipPath>&#10;    <clipPath
   id="clipPath646">&#10;      <path
   id="path648"
   d="m2 3h2v3h-2v-3z"
   inkscape:connector-curvature="0" />&#10;    </clipPath>&#10;    <linearGradient
   id="linearGradient698"
   y2="26.035"
   gradientUnits="userSpaceOnUse"
   x2="23.262"
   gradientTransform="matrix(.8 0 0 -.8 1.5582e-7 31.971)"
   y1="26.035"
   x1=".73730">&#10;      <stop
   id="stop700"
   style="stop-color:#4bcc2b"
   offset="0" />&#10;      <stop
   id="stop702"
   style="stop-color:#48c329"
   offset=".1804" />&#10;      <stop
   id="stop704"
   style="stop-color:#3faa24"
   offset=".47840" />&#10;      <stop
   id="stop706"
   style="stop-color:#31821c"
   offset="0.851" />&#10;      <stop
   id="stop708"
   style="stop-color:#2b7018"
   offset="1" />&#10;    </linearGradient>&#10;    <linearGradient
   id="linearGradient722"
   y2="25.332"
   gradientUnits="userSpaceOnUse"
   x2="23.225"
   gradientTransform="matrix(.8 0 0 -.8 1.5582e-7 31.971)"
   y1="25.332"
   x1="5.5752">&#10;      <stop
   id="stop724"
   style="stop-color:#cccccc"
   offset="0" />&#10;      <stop
   id="stop726"
   style="stop-color:#c3c3c3"
   offset=".1804" />&#10;      <stop
   id="stop728"
   style="stop-color:#aaaaaa"
   offset=".47840" />&#10;      <stop
   id="stop730"
   style="stop-color:#828282"
   offset="0.851" />&#10;      <stop
   id="stop732"
   style="stop-color:#707070"
   offset="1" />&#10;    </linearGradient>&#10;    <linearGradient
   id="linearGradient746"
   y2="25.85"
   gradientUnits="userSpaceOnUse"
   x2="23.25"
   gradientTransform="matrix(.8 0 0 -.8 1.5582e-7 31.971)"
   y1="25.85"
   x1="16.55">&#10;      <stop
   id="stop748"
   style="stop-color:#bd4715"
   offset="0" />&#10;      <stop
   id="stop750"
   style="stop-color:#ba4816"
   offset="1" />&#10;    </linearGradient>&#10;    <linearGradient
   id="linearGradient764"
   y2="22.977"
   gradientUnits="userSpaceOnUse"
   x2="14.638"
   gradientTransform="matrix(.8 0 0 -.8 1.5582e-7 31.971)"
   y1="22.977"
   x1="7.6626">&#10;      <stop
   id="stop766"
   style="stop-color:#cca92b"
   offset="0" />&#10;      <stop
   id="stop768"
   style="stop-color:#c3a129"
   offset=".1804" />&#10;      <stop
   id="stop770"
   style="stop-color:#aa8d24"
   offset=".47840" />&#10;      <stop
   id="stop772"
   style="stop-color:#826c1c"
   offset="0.851" />&#10;      <stop
   id="stop774"
   style="stop-color:#705d18"
   offset="1" />&#10;    </linearGradient>&#10;    <linearGradient
   id="linearGradient788"
   y2="23.127"
   gradientUnits="userSpaceOnUse"
   x2="13.287"
   gradientTransform="matrix(.8 0 0 -.8 1.5582e-7 31.971)"
   y1="23.127"
   x1="8.1123">&#10;      <stop
   id="stop790"
   style="stop-color:#cc5b2b"
   offset="0" />&#10;      <stop
   id="stop792"
   style="stop-color:#c35829"
   offset=".1804" />&#10;      <stop
   id="stop794"
   style="stop-color:#aa5024"
   offset=".47840" />&#10;      <stop
   id="stop796"
   style="stop-color:#82431c"
   offset="0.851" />&#10;      <stop
   id="stop798"
   style="stop-color:#703d18"
   offset="1" />&#10;    </linearGradient>&#10;    <clipPath
   id="clipPath806">&#10;      <path
   id="path808"
   d="m1 0.97062h5v26h-5v-26z"
   inkscape:connector-curvature="0" />&#10;    </clipPath>&#10;    <mask
   id="mask810">&#10;      <g
   id="g812">&#10;        <g
   id="g814"
   clip-path="url(#clipPath806)">&#10;          <path
   id="path816"
   style="fill:#000000;fill-opacity:.57810"
   d="m1 0.97062h5v26h-5v-26z"
   inkscape:connector-curvature="0" />&#10;        </g>&#10;      </g>&#10;    </mask>&#10;    <clipPath
   id="clipPath822">&#10;      <path
   id="path824"
   d="m1 0.97062h5v26h-5v-26z"
   inkscape:connector-curvature="0" />&#10;    </clipPath>&#10;    <clipPath
   id="clipPath826">&#10;      <path
   id="path828"
   d="m1 1h5v26h-5v-26z"
   inkscape:connector-curvature="0" />&#10;    </clipPath>&#10;    <linearGradient
   id="linearGradient834"
   y2="-15752"
   gradientUnits="userSpaceOnUse"
   x2="-520.78"
   gradientTransform="matrix(.05568 -.79808 .79808 .05568 12605 465.78)"
   y1="-15752"
   x1="-545.94">&#10;      <stop
   id="stop836"
   style="stop-color:#ffffff"
   offset="0" />&#10;      <stop
   id="stop838"
   style="stop-color:#000000"
   offset="1" />&#10;    </linearGradient>&#10;    <clipPath
   id="clipPath866">&#10;      <path
   id="path868"
   d="m13 0.97062h5v26h-5v-26z"
   inkscape:connector-curvature="0" />&#10;    </clipPath>&#10;    <mask
   id="mask870">&#10;      <g
   id="g872">&#10;        <g
   id="g874"
   clip-path="url(#clipPath866)">&#10;          <path
   id="path876"
   style="fill:#000000;fill-opacity:.21090"
   d="m13 0.97062h5v26h-5v-26z"
   inkscape:connector-curvature="0" />&#10;        </g>&#10;      </g>&#10;    </mask>&#10;    <clipPath
   id="clipPath882">&#10;      <path
   id="path884"
   d="m13 0.97062h5v26h-5v-26z"
   inkscape:connector-curvature="0" />&#10;    </clipPath>&#10;    <clipPath
   id="clipPath886">&#10;      <path
   id="path888"
   d="m13 1h5v26h-5v-26z"
   inkscape:connector-curvature="0" />&#10;    </clipPath>&#10;    <linearGradient
   id="linearGradient894"
   y2="-2.3805"
   gradientUnits="userSpaceOnUse"
   x2="2.5161"
   gradientTransform="matrix(.8 0 0 .8 13.48 26.96)"
   y1="-27.48"
   x1="4.2661">&#10;      <stop
   id="stop896"
   style="stop-color:#ffffff"
   offset="0" />&#10;      <stop
   id="stop898"
   style="stop-color:#000000"
   offset="1" />&#10;    </linearGradient>&#10;    <clipPath
   id="clipPath926">&#10;      <path
   id="path928"
   d="m3 23.971h14v4h-14v-4z"
   inkscape:connector-curvature="0" />&#10;    </clipPath>&#10;    <mask
   id="mask930">&#10;      <g
   id="g932">&#10;        <g
   id="g934"
   clip-path="url(#clipPath926)">&#10;          <path
   id="path936"
   style="fill:#000000;fill-opacity:.67190"
   d="m3 23.971h14v4h-14v-4z"
   inkscape:connector-curvature="0" />&#10;        </g>&#10;      </g>&#10;    </mask>&#10;    <clipPath
   id="clipPath942">&#10;      <path
   id="path944"
   d="m3 23.971h14v4h-14v-4z"
   inkscape:connector-curvature="0" />&#10;    </clipPath>&#10;    <clipPath
   id="clipPath946">&#10;      <path
   id="path948"
   d="m3 24h14v4h-14v-4z"
   inkscape:connector-curvature="0" />&#10;    </clipPath>&#10;    <linearGradient
   id="linearGradient976"
   y2="6.0498"
   gradientUnits="userSpaceOnUse"
   x2="20.775"
   gradientTransform="matrix(.8 0 0 -.8 1.5582e-7 31.971)"
   y1="6.0498"
   x1="3.2998">&#10;      <stop
   id="stop978"
   style="stop-color:#c44822"
   offset="0" />&#10;      <stop
   id="stop980"
   style="stop-color:#96301a"
   offset="1" />&#10;    </linearGradient>&#10;    <linearGradient
   id="linearGradient994"
   y2="5.5498"
   gradientUnits="userSpaceOnUse"
   x2="21.2"
   gradientTransform="matrix(.8 0 0 -.8 1.5582e-7 31.971)"
   y1="5.5498"
   x1="3">&#10;      <stop
   id="stop996"
   style="stop-color:#50d92e"
   offset="0" />&#10;      <stop
   id="stop998"
   style="stop-color:#4dd02c"
   offset=".1451" />&#10;      <stop
   id="stop1000"
   style="stop-color:#44b727"
   offset=".3804" />&#10;      <stop
   id="stop1002"
   style="stop-color:#358f1f"
   offset=".67840" />&#10;      <stop
   id="stop1004"
   style="stop-color:#235c14"
   offset="1" />&#10;    </linearGradient>&#10;    <linearGradient
   id="linearGradient1020"
   y2="4.2998"
   gradientUnits="userSpaceOnUse"
   x2="20.887"
   gradientTransform="matrix(.8 0 0 -.8 1.5582e-7 31.971)"
   y1="4.2998"
   x1="3.2124">&#10;      <stop
   id="stop1022"
   style="stop-color:#4bcc2b"
   offset="0" />&#10;      <stop
   id="stop1024"
   style="stop-color:#48c329"
   offset=".1804" />&#10;      <stop
   id="stop1026"
   style="stop-color:#3faa24"
   offset=".47840" />&#10;      <stop
   id="stop1028"
   style="stop-color:#31821c"
   offset="0.851" />&#10;      <stop
   id="stop1030"
   style="stop-color:#2b7018"
   offset="1" />&#10;    </linearGradient>&#10;    <linearGradient
   id="linearGradient1044"
   y2="-2.5806"
   gradientUnits="userSpaceOnUse"
   x2="-3.3813"
   gradientTransform="matrix(-.79784 -.05872 -.05872 .79784 .000032070 31.971)"
   y1="-2.5806"
   x1="-19.399">&#10;      <stop
   id="stop1046"
   style="stop-color:#4bcc2b"
   offset="0" />&#10;      <stop
   id="stop1048"
   style="stop-color:#50cf2d"
   offset="1" />&#10;    </linearGradient>&#10;    <clipPath
   id="clipPath1056">&#10;      <path
   id="path1058"
   d="m3 24.971h9v2h-9v-2z"
   inkscape:connector-curvature="0" />&#10;    </clipPath>&#10;    <mask
   id="mask1060">&#10;      <g
   id="g1062">&#10;        <g
   id="g1064"
   clip-path="url(#clipPath1056)">&#10;          <path
   id="path1066"
   style="fill:#000000;fill-opacity:.48050"
   d="m3 24.971h9v2h-9v-2z"
   inkscape:connector-curvature="0" />&#10;        </g>&#10;      </g>&#10;    </mask>&#10;    <clipPath
   id="clipPath1072">&#10;      <path
   id="path1074"
   d="m3 24.971h9v2h-9v-2z"
   inkscape:connector-curvature="0" />&#10;    </clipPath>&#10;    <clipPath
   id="clipPath1076">&#10;      <path
   id="path1078"
   d="m3 25h9v2h-9v-2z"
   inkscape:connector-curvature="0" />&#10;    </clipPath>&#10;  </defs>&#10;  <g
   id="g10"
   transform="matrix(1.25 0 0 -1.25 0 39.963)">&#10;    <g
   id="g12">&#10;      &#10;      &#10;      &#10;      &#10;      &#10;      &#10;      &#10;      &#10;      &#10;      &#10;      &#10;      &#10;      &#10;      &#10;      &#10;      &#10;      <g
   id="g14"
   style="display:inline;fill:#5e0000;fill-opacity:0.92198581">&#10;        <g
   id="g16"
   style="fill:#5e0000;fill-opacity:0.92198581">&#10;          <g
   id="g22"
   style="fill:#5e0000;fill-opacity:0.92198581">&#10;            <path
   id="path30"
   style="fill:#5e0000;fill-opacity:0.92198581;fill-rule:evenodd"
   d="m 17.84,24.209 c 0.535,-0.586 0.906,-1.145 1.121,-1.68 0.238,-0.637 0.359,-1.519 0.359,-2.637 0,-1.015 -0.093,-3.589 -0.281,-7.722 C 18.879,8.65 18.758,6.369 18.68,5.33 18.598,4.478 18.227,3.65 17.559,2.85 16.68,1.756 15.387,0.971 13.68,0.49 12.293,0.115 10.945,-0.041 9.641,0.01 8.332,-0.041 7,0.115 5.641,0.49 3.934,0.971 2.641,1.756 1.762,2.85 1.094,3.65 0.719,4.478 0.641,5.33 0.586,6.025 0.469,8.307 0.281,12.17 0.094,16.225 0,18.799 0,19.892 c 0,1.118 0.121,2 0.359,2.637 0.215,0.535 0.586,1.094 1.121,1.68 0.985,1.066 1.708,2.055 2.161,2.961 l 6,-0.32 6.039,0.32 c 0.32,-0.774 1.039,-1.758 2.16,-2.961 z"
   inkscape:connector-curvature="0" />&#10;          </g>&#10;        </g>&#10;      </g><g
   id="g32"
   style="display:inline;fill:#983d00;fill-opacity:1">&#10;        <g
   id="g34"
   style="fill:#983d00;fill-opacity:1">&#10;          <g
   id="g40"
   style="fill:#983d00;fill-opacity:1">&#10;            <path
   id="path48"
   style="fill:#983d00;fill-opacity:1;fill-rule:evenodd"
   d="m 17.281,24.049 c 0.508,-0.586 0.852,-1.133 1.039,-1.637 0.242,-0.641 0.36,-1.496 0.36,-2.562 0,-1.067 -0.094,-3.559 -0.282,-7.481 -0.16,-3.785 -0.277,-6.012 -0.359,-6.68 -0.051,-0.824 -0.387,-1.64 -1,-2.441 C 16.188,2.182 14.961,1.424 13.359,0.971 12.266,0.65 11.012,0.49 9.602,0.49 8.16,0.49 6.895,0.65 5.801,0.971 4.199,1.424 2.988,2.182 2.16,3.248 1.547,4.025 1.199,4.838 1.121,5.689 c -0.055,0.907 -0.16,3.133 -0.32,6.68 -0.188,4 -0.281,6.496 -0.281,7.481 0,1.066 0.121,1.921 0.359,2.562 0.187,0.504 0.535,1.051 1.043,1.637 1.012,1.148 1.68,2.109 2,2.883 l 5.68,-0.321 5.636,0.321 c 0.348,-0.829 1.028,-1.79 2.043,-2.883 z"
   inkscape:connector-curvature="0" />&#10;          </g>&#10;        </g>&#10;      </g><path
   id="path666"
   style="fill-rule:evenodd;fill:#d45500;fill-opacity:1"
   d="m4.762 20.971c0.316-0.028 0.492-0.106 0.519-0.239 0.024-0.136-0.082-0.23-0.32-0.281-0.106 0-0.414-0.105-0.922-0.32-0.344-0.16-0.547-0.16-0.598 0-0.054 0.215 0.051 0.414 0.321 0.601 0.265 0.184 0.597 0.266 1 0.239z"
   inkscape:connector-curvature="0" />&#10;      <path
   id="path668"
   style="fill-rule:evenodd;fill:#d45500;fill-opacity:1"
   d="m7.559 23.17c-0.532 0.426-0.438 0.746 0.281 0.961 0.265 0.051 0.32-0.121 0.16-0.52-0.16-0.402-0.305-0.547-0.441-0.441z"
   inkscape:connector-curvature="0" />&#10;      <path
   id="path670"
   style="fill-rule:evenodd;fill:#d45500;fill-opacity:1"
   d="m11.238 21.17c0.188-0.106 0.137-0.172-0.16-0.199-0.398-0.055-0.637-0.121-0.719-0.2-0.105-0.16-0.238-0.254-0.398-0.281-0.133-0.051-0.199-0.012-0.199 0.121 0 0.293 0.117 0.504 0.359 0.641 0.106 0.078 0.293 0.105 0.559 0.078 0.242-0.027 0.425-0.078 0.558-0.16z"
   inkscape:connector-curvature="0" />&#10;      <path
   id="path672"
   style="fill-rule:evenodd;fill:#d45500;fill-opacity:1"
   d="m14.641 21.81c0.293-0.132 0.304-0.265 0.039-0.398-0.481-0.27-0.735-0.402-0.758-0.402-0.242-0.184-0.43-0.172-0.563 0.039-0.078 0.109 0.039 0.297 0.36 0.562 0.32 0.293 0.629 0.36 0.922 0.199z"
   inkscape:connector-curvature="0" />&#10;      <path
   id="path674"
   style="fill-rule:evenodd;fill:#d45500;fill-opacity:1"
   d="m12.922 19.17c-0.215-0.028-0.602-0.238-1.16-0.641-0.457-0.32-0.707-0.414-0.762-0.277-0.16 0.265-0.266 0.453-0.32 0.558-0.055 0.188 0.039 0.321 0.281 0.399 0.398 0.109 1.051 0.094 1.961-0.039z"
   inkscape:connector-curvature="0" />&#10;      <path
   id="path676"
   style="fill-rule:evenodd;fill:#d45500;fill-opacity:1"
   d="m4.762 18.33c0.238-0.16 0.078-0.281-0.481-0.359-0.586-0.079-0.883-0.028-0.883 0.16 0 0.187 0.149 0.304 0.442 0.359 0.32 0.082 0.625 0.027 0.922-0.16z"
   inkscape:connector-curvature="0" />&#10;      <path
   id="path678"
   style="fill-rule:evenodd;fill:#d45500;fill-opacity:1"
   d="m7.922 19.369c0.398-0.105 0.519-0.238 0.359-0.398-0.16-0.188-0.469-0.305-0.922-0.36-0.425-0.054-0.547 0.094-0.359 0.438 0.188 0.32 0.492 0.429 0.922 0.32z"
   inkscape:connector-curvature="0" />&#10;      <path
   id="path680"
   style="fill-rule:evenodd;fill:#d45500;fill-opacity:1"
   d="m5.039 4.529c0.402 0 0.602-0.133 0.602-0.398 0-0.293-0.172-0.469-0.52-0.52-0.32-0.027-0.48 0.121-0.48 0.438 0 0.32 0.132 0.48 0.398 0.48z"
   inkscape:connector-curvature="0" />&#10;      <path
   id="path682"
   style="fill-rule:evenodd;fill:#d45500;fill-opacity:1"
   d="m8.559 4.451c0.64 0.055 0.894-0.105 0.761-0.48l-1.558-0.399c-0.375-0.082-0.457 0.039-0.242 0.36 0.214 0.32 0.558 0.492 1.039 0.519z"
   inkscape:connector-curvature="0" />&#10;      <path
   id="path684"
   style="fill-rule:evenodd;fill:#d45500;fill-opacity:1"
   d="m12.762 3.932c0.371-0.082 0.398-0.188 0.078-0.321-0.293-0.133-0.586-0.187-0.879-0.16-0.293 0.055-0.32 0.16-0.082 0.32 0.215 0.161 0.508 0.211 0.883 0.161z"
   inkscape:connector-curvature="0" />&#10;      <path
   id="path686"
   style="display:inline;fill:#d45500;fill-opacity:1;fill-rule:evenodd"
   d="M 15.039,3.412 C 15.441,3.517 15.625,3.49 15.602,3.33 15.574,3.17 15.414,3.01 15.121,2.85 14.746,2.689 14.719,2.877 15.039,3.412 Z"
   inkscape:connector-curvature="0" />&#10;      <g
   id="g688"
   style="display:inline;fill:#008000">&#10;        <g
   id="g690"
   style="display:inline;fill:#008000">&#10;          <g
   id="g696"
   style="display:inline;fill:#008000">&#10;            <path
   id="path710"
   style="fill:#008000;fill-rule:evenodd"
   d="M 18.602,17.252 18.16,7.291 C 17.121,6.572 16.012,6.037 14.84,5.689 13.027,5.182 10.68,4.971 7.801,5.049 4.812,5.158 2.559,5.904 1.039,7.291 c -0.16,2.266 -0.32,5.508 -0.48,9.719 1.468,-0.961 3.496,-1.493 6.082,-1.598 5.652,-0.215 9.64,0.398 11.961,1.84 z"
   inkscape:connector-curvature="0" />&#10;          </g>&#10;        </g>&#10;      </g>&#10;      <g
   id="g712"
   style="display:inline;fill:#e3dedb">&#10;        <g
   id="g714"
   style="fill:#e3dedb">&#10;          <g
   id="g720"
   style="fill:#e3dedb">&#10;            <path
   id="path734"
   style="fill:#e3dedb;fill-rule:evenodd"
   d="m 10.559,17.65 c 0.746,-0.691 1.296,-1.398 1.64,-2.121 2.856,0.27 4.989,0.84 6.403,1.723 L 18.16,7.291 C 17.121,6.572 16.012,6.037 14.84,5.689 13.027,5.182 10.68,4.971 7.801,5.049 6.625,5.076 5.574,5.225 4.641,5.49 L 4.48,15.611 5.359,15.49 c 0.293,1.149 1,1.988 2.121,2.52 1.145,0.586 2.172,0.468 3.079,-0.36 z"
   inkscape:connector-curvature="0" />&#10;          </g>&#10;        </g>&#10;      </g>&#10;      <g
   id="g736"
   style="display:inline;fill:#aa0000">&#10;        <g
   id="g738"
   style="fill:#aa0000">&#10;          <g
   id="g744"
   style="fill:#aa0000">&#10;            <path
   id="path752"
   style="fill:#aa0000;fill-rule:evenodd"
   d="m 13.238,15.65 c 2.43,0.293 4.215,0.828 5.364,1.602 L 18.16,7.291 C 16.801,6.33 15.16,5.678 13.238,5.33 Z"
   inkscape:connector-curvature="0" />&#10;          </g>&#10;        </g>&#10;      </g>&#10;      &#10;      <g
   id="g778"
   style="display:inline;fill:#803300">&#10;        <g
   id="g780"
   style="fill:#803300">&#10;          <g
   id="g786"
   style="fill:#803300">&#10;            <path
   id="path800"
   style="fill:#803300;fill-rule:evenodd"
   d="m 8.801,16.412 c 0.773,-0.109 1.332,-0.613 1.679,-1.52 0.321,-0.828 0.415,-1.761 0.282,-2.8 -0.11,-0.961 -0.668,-1.481 -1.684,-1.559 -1.066,-0.082 -1.746,0.477 -2.039,1.68 -0.32,1.144 -0.266,2.156 0.16,3.039 0.426,0.824 0.961,1.211 1.602,1.16 z"
   inkscape:connector-curvature="0" />&#10;          </g>&#10;        </g>&#10;      </g>&#10;      &#10;      &#10;      &#10;      <g
   id="g966"
   style="display:inline;fill:#782121">&#10;        <g
   id="g968"
   style="fill:#782121">&#10;          <g
   id="g974"
   style="fill:#782121">&#10;            <path
   id="path982"
   style="fill:#782121;fill-rule:evenodd"
   d="m 16.641,27.131 c 0,-0.453 -0.68,-0.84 -2.039,-1.16 -1.387,-0.321 -3.043,-0.481 -4.961,-0.481 -1.922,0 -3.575,0.16 -4.961,0.481 -1.36,0.32 -2.039,0.707 -2.039,1.16 0,0.453 0.679,0.84 2.039,1.16 1.359,0.32 3.015,0.48 4.961,0.48 1.918,0 3.574,-0.16 4.961,-0.48 1.359,-0.32 2.039,-0.707 2.039,-1.16 z"
   inkscape:connector-curvature="0" />&#10;          </g>&#10;        </g>&#10;      </g>&#10;      <g
   id="g984"
   style="display:inline;fill:#008000">&#10;        <g
   id="g986"
   style="fill:#008000">&#10;          <g
   id="g992"
   style="fill:#008000">&#10;            <path
   id="path1006"
   style="fill:#008000;fill-rule:evenodd"
   d="m 16.961,27.529 c 0,-0.453 -0.707,-0.824 -2.121,-1.117 -1.414,-0.32 -3.133,-0.48 -5.16,-0.48 -2,0 -3.707,0.16 -5.121,0.48 -1.438,0.293 -2.161,0.664 -2.161,1.117 0,0.43 0.723,0.801 2.161,1.121 1.414,0.321 3.121,0.481 5.121,0.481 2.027,0 3.746,-0.16 5.16,-0.481 1.414,-0.293 2.121,-0.668 2.121,-1.121 z"
   inkscape:connector-curvature="0" />&#10;          </g>&#10;        </g>&#10;      </g>&#10;      &#10;      <g
   id="g1010"
   style="display:inline;fill:#00a300;fill-opacity:1">&#10;        <g
   id="g1012"
   style="fill:#00a300;fill-opacity:1">&#10;          <g
   id="g1018"
   style="fill:#00a300;fill-opacity:1">&#10;            <path
   id="path1032"
   style="fill:#00a300;fill-opacity:1;fill-rule:evenodd"
   d="m 16.719,27.81 c -0.051,-0.347 -0.758,-0.668 -2.117,-0.96 -1.414,-0.293 -3.067,-0.438 -4.961,-0.438 -1.868,0 -3.508,0.145 -4.922,0.438 -1.36,0.292 -2.067,0.613 -2.117,0.96 v 2.84 h 14.117 z"
   inkscape:connector-curvature="0" />&#10;          </g>&#10;        </g>&#10;      </g>&#10;      <g
   id="g1034"
   style="fill:#008000">&#10;        <g
   id="g1036"
   style="fill:#008000">&#10;          <g
   id="g1042"
   style="fill:#008000">&#10;            <path
   id="path1050"
   style="fill-rule:evenodd;fill:#008000"
   d="m16.719 30.611c0-0.375-0.692-0.695-2.078-0.961-1.36-0.265-3.028-0.398-5-0.398-1.946 0-3.602 0.133-4.961 0.398-1.387 0.266-2.078 0.586-2.078 0.961 0 0.371 0.691 0.692 2.078 0.961 1.359 0.266 3.015 0.399 4.961 0.399 1.972 0 3.64-0.133 5-0.399 1.386-0.269 2.078-0.59 2.078-0.961z"
   inkscape:connector-curvature="0" />&#10;          </g>&#10;        </g>&#10;      </g>&#10;      &#10;      <path
   id="path1096"
   style="display:inline;fill:#df965d;fill-rule:evenodd;fill-opacity:1"
   d="M 3.641,2.892 C 4.172,2.596 4.508,2.291 4.641,1.971 4.746,1.678 4.68,1.529 4.441,1.529 4.012,1.529 3.492,1.822 2.879,2.412 2.586,2.705 2.559,2.904 2.801,3.01 3.039,3.092 3.32,3.049 3.641,2.892 Z"
   inkscape:connector-curvature="0" />&#10;      <path
   id="path1098"
   style="display:inline;fill:#df965d;fill-rule:evenodd;fill-opacity:1"
   d="M 5.762,1.81 C 6.16,1.732 6.266,1.584 6.078,1.369 5.895,1.158 5.734,1.103 5.602,1.209 5.465,1.346 5.398,1.478 5.398,1.611 5.375,1.799 5.492,1.865 5.762,1.81 Z"
   inkscape:connector-curvature="0" />&#10;    </g>&#10;  </g>&#10;<metadata
   id="metadata1"><rdf:RDF><cc:Work><dc:format>image/svg+xml</dc:format><dc:type
         rdf:resource="http://purl.org/dc/dcmitype/StillImage" /><cc:license
         rdf:resource="http://creativecommons.org/licenses/publicdomain/" /><dc:publisher><cc:Agent
           rdf:about="http://openclipart.org/"><dc:title>Openclipart</dc:title></cc:Agent></dc:publisher></cc:Work><cc:License
       rdf:about="http://creativecommons.org/licenses/publicdomain/"><cc:permits
         rdf:resource="http://creativecommons.org/ns#Reproduction" /><cc:permits
         rdf:resource="http://creativecommons.org/ns#Distribution" /><cc:permits
         rdf:resource="http://creativecommons.org/ns#DerivativeWorks" /></cc:License></rdf:RDF></metadata></svg>
