<?xml version="1.0" encoding="UTF-8" standalone="no"?>
<!-- Created with Inkscape (http://www.inkscape.org/) -->

<svg
   width="76.410614mm"
   height="70.820946mm"
   viewBox="0 0 76.410614 70.820945"
   version="1.1"
   id="svg1963"
   inkscape:version="1.3 (0e150ed6c4, 2023-07-21)"
   sodipodi:docname="Flan.svg"
   xmlns:inkscape="http://www.inkscape.org/namespaces/inkscape"
   xmlns:sodipodi="http://sodipodi.sourceforge.net/DTD/sodipodi-0.dtd"
   xmlns="http://www.w3.org/2000/svg"
   xmlns:svg="http://www.w3.org/2000/svg"
   xmlns:rdf="http://www.w3.org/1999/02/22-rdf-syntax-ns#"
   xmlns:cc="http://creativecommons.org/ns#"
   xmlns:dc="http://purl.org/dc/elements/1.1/">
  <defs
     id="defs1957">
    <filter
       id="filter5225-8"
       style="color-interpolation-filters:sRGB"
       height="1.0986334"
       width="1.0566923"
       y="-0.049316713"
       x="-0.028346128"
       inkscape:collect="always">
      <feGaussianBlur
         id="feGaussianBlur5227-5"
         stdDeviation="0.5092968"
         inkscape:collect="always" />
    </filter>
    <filter
       inkscape:collect="always"
       style="color-interpolation-filters:sRGB"
       id="filter4535"
       x="-0.039338866"
       width="1.0786777"
       y="-0.12637145"
       height="1.2527429">
      <feGaussianBlur
         inkscape:collect="always"
         stdDeviation="0.89873056"
         id="feGaussianBlur4537" />
    </filter>
    <filter
       inkscape:collect="always"
       style="color-interpolation-filters:sRGB"
       id="filter4390"
       x="-0.11100977"
       width="1.2220195"
       y="-0.084565755"
       height="1.1691315">
      <feGaussianBlur
         inkscape:collect="always"
         stdDeviation="0.98777738"
         id="feGaussianBlur4392" />
    </filter>
    <clipPath
       clipPathUnits="userSpaceOnUse"
       id="clipPath4496">
      <path
         sodipodi:nodetypes="cccccccc"
         inkscape:connector-curvature="0"
         id="path4498"
         d="m -53.851562,140.3125 c -0.663898,10.76886 -2.958452,21.68726 -2.748047,32.37891 6.263548,9.0745 16.533926,13.76332 30.896484,14.20312 15.117269,-0.5133 22.9159206,-5.73629 30.0019531,-15.11914 C 3.6092829,161.37087 1.8849193,150.77675 0.72265625,140.2793 -6.2800847,138.23301 -14.718971,140.00652 -22.267578,139.41211 c -10.353363,0.45802 -21.410549,-0.90952 -31.331035,0.67129 z"
         style="opacity:1;fill:#ffd45a;fill-opacity:1;stroke:none;stroke-width:4;stroke-linecap:round;stroke-linejoin:round;stroke-miterlimit:4;stroke-dasharray:none;stroke-dashoffset:0;stroke-opacity:1" />
    </clipPath>
    <filter
       inkscape:collect="always"
       style="color-interpolation-filters:sRGB"
       id="filter4490"
       x="-0.046991604"
       width="1.0939832"
       y="-0.15390816"
       height="1.3078163">
      <feGaussianBlur
         inkscape:collect="always"
         stdDeviation="1.2315085"
         id="feGaussianBlur4492" />
    </filter>
  </defs>
  <sodipodi:namedview
     id="base"
     pagecolor="#ffffff"
     bordercolor="#666666"
     borderopacity="1.0"
     inkscape:pageopacity="0.0"
     inkscape:pageshadow="2"
     inkscape:zoom="2.8"
     inkscape:cx="86.071428"
     inkscape:cy="141.96428"
     inkscape:document-units="mm"
     inkscape:current-layer="g5137"
     showgrid="false"
     fit-margin-left="5"
     fit-margin-top="5"
     fit-margin-right="5"
     fit-margin-bottom="5"
     inkscape:window-width="1920"
     inkscape:window-height="991"
     inkscape:window-x="-9"
     inkscape:window-y="-9"
     inkscape:window-maximized="1"
     inkscape:showpageshadow="2"
     inkscape:pagecheckerboard="0"
     inkscape:deskcolor="#d1d1d1" />
  <metadata
     id="metadata1960">
    <rdf:RDF>
      <cc:Work
         rdf:about="">
        <dc:format>image/svg+xml</dc:format>
        <dc:type
           rdf:resource="http://purl.org/dc/dcmitype/StillImage" />
        <dc:title />
      </cc:Work>
    </rdf:RDF>
  </metadata>
  <g
     inkscape:label="Ebene 1"
     inkscape:groupmode="layer"
     id="layer1"
     transform="translate(-110.74843,-182.02332)">
    <g
       id="g5137"
       transform="matrix(0.25936918,0,0,0.25936918,-79.142282,65.755114)">
      <g
         transform="matrix(0.78475815,0,0,0.75127683,1028.5802,-88.539905)"
         id="g7562">
        <path
           inkscape:connector-curvature="0"
           transform="matrix(7.1666,0,0,7.1708,768.81,-262.95)"
           style="display:inline;fill:#000000;fill-rule:evenodd;filter:url(#filter5225-8)"
           d="m -134.16,154.73 a 21.561,12.195 0 0 0 -21.561,12.195 21.561,12.195 0 0 0 3.0195,6.1953 20.943,11.701 0 0 0 0.006,0.006 21.561,12.195 0 0 0 0.41406,0.40235 20.943,11.701 0 0 0 18.244,5.9863 20.943,11.701 0 0 0 20.039,-8.3144 21.561,12.195 0 0 0 1.3984,-4.2754 21.561,12.195 0 0 0 -21.561,-12.195 z"
           id="path7564" />
        <g
           transform="translate(-392.88,765.27)"
           id="g7566">
          <ellipse
             cx="203.31"
             cy="171.41"
             ry="84.997002"
             rx="152.13"
             style="fill:#cccccc;fill-opacity:1;fill-rule:evenodd"
             id="ellipse7568" />
          <ellipse
             cx="202.41"
             cy="164.95"
             ry="88.584"
             rx="156.62"
             style="fill:#f9f9f9;fill-opacity:1;fill-rule:evenodd"
             id="ellipse7570" />
          <path
             d="M 202.41,78.249 A 153.28,86.699 0 0 0 49.13,164.95 153.28,86.699 0 0 0 202.41,251.65 153.28,86.699 0 0 0 355.7,164.95 153.28,86.699 0 0 0 202.41,78.249 Z m 0,3.0156 a 147.95,83.684 0 0 1 147.96,83.685 147.95,83.684 0 0 1 -147.96,83.68 147.95,83.684 0 0 1 -147.95,-83.68 147.95,83.684 0 0 1 147.95,-83.685 z"
             inkscape:connector-curvature="0"
             style="opacity:0.1;fill:#565656;fill-opacity:1;fill-rule:evenodd"
             id="path7572" />
          <ellipse
             cx="202.41"
             cy="164.95"
             ry="79.259003"
             rx="140.13"
             style="fill:#e8e8e8;fill-opacity:1;fill-rule:evenodd"
             id="ellipse7574" />
          <ellipse
             cx="203.05"
             cy="180.17"
             ry="52.627998"
             rx="87.339996"
             style="fill:#d6d6d6;fill-opacity:1;fill-rule:evenodd"
             id="ellipse7576" />
          <path
             d="m 203.05,127.54 a 87.34,52.628 0 0 0 -87.352,52.621 87.34,52.628 0 0 0 70.824,51.657 87.34,52.628 0 0 1 -66.383,-51.018 87.34,52.628 0 0 1 87.338,-52.636 87.34,52.628 0 0 1 16.528,0.97889 87.34,52.628 0 0 0 -20.955,-1.6032 z"
             inkscape:connector-curvature="0"
             style="fill:#cccccc;fill-rule:evenodd"
             id="path7578" />
          <path
             d="m 247.86,135.08 a 87.34,52.628 0 0 1 37.512,43.187 87.34,52.628 0 0 1 -87.338,52.636 87.34,52.628 0 0 1 -44.804,-7.5194 87.34,52.628 0 0 0 49.826,9.4204 87.34,52.628 0 0 0 87.338,-52.636 87.34,52.628 0 0 0 -42.534,-45.088 z"
             inkscape:connector-curvature="0"
             style="fill:#cccccc;fill-rule:evenodd"
             id="path7580" />
          <path
             d="m 202.42,85.689 a 140.13,79.259 0 0 0 -140.13,79.265 140.13,79.259 0 0 0 140.13,79.251 140.13,79.259 0 0 0 3.7171,-0.0726 140.13,79.259 0 0 1 -137.51,-79.18 140.13,79.259 0 0 1 136.41,-79.194 140.13,79.259 0 0 0 -2.6247,-0.0726 z"
             inkscape:connector-curvature="0"
             style="fill:#ececec;fill-rule:evenodd"
             id="path7582" />
          <path
             d="m 202.42,85.689 a 140.13,79.259 0 0 0 -2.6105,0.0581 140.13,79.259 0 0 1 138.3,79.209 140.13,79.259 0 0 1 -137.52,79.194 140.13,79.259 0 0 0 1.8302,0.0581 140.13,79.259 0 0 0 140.13,-79.25 140.13,79.259 0 0 0 -140.13,-79.268 z"
             inkscape:connector-curvature="0"
             style="fill:#cccccc;fill-rule:evenodd"
             id="path7584" />
        </g>
      </g>
      <g
         transform="matrix(2.2281268,0,0,2.2281268,246.13803,383.90589)"
         id="g6055">
        <g
           id="g4557"
           transform="translate(310.16524,-64.378956)">
          <path
             sodipodi:nodetypes="cccccccc"
             inkscape:connector-curvature="0"
             id="ellipse4394"
             d="m -53.851562,140.3125 c -0.663898,10.76886 -2.958452,21.68726 -2.748047,32.37891 6.263548,9.0745 16.533926,13.76332 30.896484,14.20312 15.117269,-0.5133 22.9159206,-5.73629 30.0019531,-15.11914 C 3.6092829,161.37087 1.8849193,150.77675 0.72265625,140.2793 -6.2800847,138.23301 -14.718971,140.00652 -22.267578,139.41211 c -10.353363,0.45802 -21.410549,-0.90952 -31.331035,0.67129 z"
             style="opacity:1;fill:#f7e47c;fill-opacity:1;stroke:none;stroke-width:4;stroke-linecap:round;stroke-linejoin:round;stroke-miterlimit:4;stroke-dasharray:none;stroke-dashoffset:0;stroke-opacity:1" />
          <path
             inkscape:connector-curvature="0"
             id="path4515"
             d="m -53.869261,146.43722 c 0.82611,9.51824 12.78107,17.06838 27.41407,17.06836 14.63299,1e-5 26.58991372,-7.55012 27.41601472,-17.06836 h -0.660156 c -2.81233402,8.12034 -13.80548872,14.06438 -26.75585872,14.06836 -12.95273,-0.005 -23.94115,-5.95194 -26.75196,-14.06836 z"
             style="opacity:1;fill:#f4ae44;fill-opacity:1;stroke:none;stroke-width:4;stroke-linecap:round;stroke-linejoin:round;stroke-miterlimit:4;stroke-dasharray:none;stroke-dashoffset:0;stroke-opacity:1;filter:url(#filter4535)" />
          <ellipse
             ry="18.121109"
             rx="27.464806"
             cy="142.70706"
             cx="-26.332237"
             id="path4317"
             style="opacity:1;fill:#eca51b;fill-opacity:1;stroke:none;stroke-width:4;stroke-linecap:round;stroke-linejoin:round;stroke-miterlimit:4;stroke-dasharray:none;stroke-dashoffset:0;stroke-opacity:1" />
          <path
             inkscape:connector-curvature="0"
             id="ellipse4329"
             d="m -28.937334,128.00576 c -9.311714,0.77799 -21.062248,5.40779 -21.355469,14.35578 0.824102,8.33392 11.603376,12.88255 20.470703,13.67762 -10.086424,-2.12945 -18.178412,-12.23792 -12.179687,-20.40205 2.965037,-3.77387 8.081754,-6.28378 13.064453,-7.63135 z"
             style="opacity:1;fill:#eca51b;fill-opacity:1;stroke:none;stroke-width:4;stroke-linecap:round;stroke-linejoin:round;stroke-miterlimit:4;stroke-dasharray:none;stroke-dashoffset:0;stroke-opacity:1;filter:url(#filter4390)" />
          <path
             clip-path="url(#clipPath4496)"
             inkscape:connector-curvature="0"
             id="path4405"
             d="m 2.78125,169.17188 c -10.1451167,14.10287 -30.539598,15.26495 -45.884766,10.25585 -5.725427,-1.76289 -10.098771,-5.87307 -14.03125,-9.99414 -3.317133,3.96211 2.711214,8.2937 5.640625,10.94532 16.134849,11.65704 42.2483852,10.70536 54.7050785,-6.00196 1.8230359,-1.09337 2.5348536,-6.50609 -0.4296875,-5.20507 z"
             style="opacity:1;fill:#f3ac42;fill-opacity:1;stroke:none;stroke-width:4;stroke-linecap:round;stroke-linejoin:round;stroke-miterlimit:4;stroke-dasharray:none;stroke-dashoffset:0;stroke-opacity:1;filter:url(#filter4490)" />
        </g>
        <path
           d="m 297.88361,74.108667 -2.97058,1.875697 -12.51073,-4.740941 -2.19695,-5.624417 4.45725,-2.835115 8.87949,7.74597 z"
           inkscape:connector-curvature="0"
           style="fill:#f7e7a8;fill-opacity:1"
           id="path5614" />
        <path
           d="m 285.06419,62.489493 c 0,0 -0.855,1.622046 -0.71945,2.464661 0.29048,1.805598 1.62632,3.516641 3.17408,4.864851 2.44258,2.127702 6.50596,2.485774 9.12738,4.636499 0.33041,0.271085 0.3965,1.087306 0.3965,1.087306 l 2.31858,0.324919 0.6125,-2.5585 c 0,0 -11.54396,-6.525885 -11.87484,-6.585051 -0.33066,-0.05913 -3.03517,-4.23468 -3.03517,-4.23468 z"
           inkscape:connector-curvature="0"
           style="fill:#f5e194;fill-opacity:1"
           sodipodi:nodetypes="caascccsc"
           id="path5616" />
        <path
           d="m 299.4149,75.914833 c 0,0 1.56358,-1.980613 1.3567,-3.06068 -0.26862,-1.402339 -1.8545,-2.487366 -3.18136,-3.438711 -3.10194,-2.224215 -9.29052,-1.9133 -10.77648,-5.021053 -0.47299,-0.989008 1.24185,-2.976605 1.24185,-2.976605 0,0 -4.05517,1.300024 -3.23368,2.79983 1.26397,3.495731 7.33679,6.15164 10.78561,7.33952 4.45617,1.50279 3.80746,4.357792 3.80746,4.357792 z"
           inkscape:connector-curvature="0"
           style="fill:#f8eab3;fill-opacity:1"
           sodipodi:nodetypes="caaacccc"
           id="path5618" />
        <path
           d="m 288.0435,61.53565 c 0,0 -5.31429,2.478932 -5.93914,4.655884 -0.3704,1.290395 0.53468,2.783947 1.6398,3.791601 2.05556,1.87418 8.33703,3.329864 8.33703,3.329864 l -1.55604,1.444504 c 0,0 -7.51393,-1.592231 -9.88563,-3.839271 -1.51167,-1.432127 -2.84341,-3.67599 -1.96265,-5.381905 1.35628,-2.62676 9.36653,-4.000764 9.36653,-4.000764 z"
           inkscape:connector-curvature="0"
           style="fill:#000000;fill-opacity:1"
           sodipodi:nodetypes="caaccaac"
           id="path5620" />
        <path
           d="m 290.0333,73.273396 c -0.21783,-0.09873 -7.15449,-1.572373 -8.65781,-3.947166 -0.99179,-1.566716 -0.41823,-3.747526 0.78343,-5.181025 1.32338,-1.578797 6.23122,-2.757054 6.23122,-2.757054 0,0 -4.62139,0.400054 -6.44963,1.410112 -2.01386,1.112536 -4.31965,4.757951 -4.31965,4.757951 l 1.92254,4.274843 8.71655,2.612428 z"
           inkscape:connector-curvature="0"
           style="fill:#000000;fill-opacity:1"
           sodipodi:nodetypes="caacacccc"
           id="path5622" />
        <path
           d="m 278.59999,74.146852 7.62425,-0.333153 c 0,0 -2.51163,-0.508941 -3.44753,-1.176965 -1.81202,-1.293434 -4.07259,-3.177475 -3.60981,-5.062364 1.51333,-6.162469 9.88224,-6.207097 9.88224,-6.207097 0,0 -5.10763,0.163572 -7.10899,1.247363 -2.50414,1.356072 -4.5193,2.188377 -5.09716,6.016546 -0.28239,1.870861 1.75688,5.515762 1.75688,5.515762 z"
           inkscape:connector-curvature="0"
           style="fill:#860e09;fill-opacity:1"
           sodipodi:nodetypes="ccascasc"
           id="path5628" />
        <g
           id="g6027"
           transform="matrix(0.17423577,-0.01804028,0.01804028,0.17423577,292.81615,5.5687562)">
          <path
             id="path2987"
             d="m -127.41473,375.02559 c -3.4323,-10.007 -4.4012,-21.003 -3.5049,-31.544 0.97111,-11.422 3.5368,-23.265 9.5133,-33.046 3.9399,-6.4483 9.7178,-12.237 16.523,-15.522 6.2281,-3.0065 13.615,-3.1843 20.529,-3.0042 5.9552,0.15513 11.61,2.794 17.524,3.5049 7.817,0.93957 16.151,-1.5631 23.599,0.98814 6.165,2.1116 12.055,6.0917 15.932,11.33 5.9949,8.099 8.9899,18.618 9.5593,28.678 0.57938,10.237 -2.3095,20.68 -6.3728,30.094 -4.2681,9.8888 -10.725,19.007 -18.41,26.554 -6.3759,6.2607 -14.007,11.555 -22.305,14.87 -5.117,2.0443 -10.782,2.578 -16.286,2.8324 -5.9133,0.27327 -12.271,0.93813 -17.702,-1.4162 -7.0632,-3.0617 -12.174,-9.6115 -17.082,-15.542 -4.6813,-5.6562 -9.134,-11.831 -11.516,-18.776 z"
             sodipodi:nodetypes="aaaaaaaaaaaaaaaa"
             style="fill:#701f12;fill-opacity:1"
             inkscape:connector-curvature="0" />
          <path
             id="path5200"
             d="m -86.76473,291.84559 10.499,12.003 -4.35,-7.0973 20.638,3.8594 12.788,-5.1022 c -6.3772,-0.87261 -13.193,0.67872 -19.657,-0.0981 -5.9146,-0.71091 -11.543,-3.3445 -17.498,-3.4996 -0.79941,-0.0208 -1.6107,-0.058 -2.4203,-0.0654 z"
             sodipodi:nodetypes="cccccssc"
             style="opacity:0.19732;fill:#000000"
             inkscape:connector-curvature="0" />
          <path
             id="path5234"
             d="m -145.20473,160.87959 c 2.2405,4.3533 8.1609,8.986 12.753,7.2873 4.2335,-1.5661 5.0791,-8.2695 4.5546,-12.753 -1.0867,-9.2882 -6.9821,-4.2233 -9.3166,-7.4396 -1.0776,-1.4846 -0.13197,-4.8011 -1.9324,-5.1529 -2.2928,-0.4481 -3.7917,3.0226 -4.7504,5.1529 -1.7745,3.9428 -3.2867,9.0606 -1.308,12.905 z"
             sodipodi:nodetypes="aasaaaa"
             style="fill:#a26c3e"
             inkscape:connector-curvature="0" />
          <path
             id="path2991"
             d="m -145.8125,159.47461 0.0977,1.57422 7.29296,8.46679 c 0.86694,-0.69035 1.87786,-1.14587 3.08399,-1.27734 4.9775,-0.54292 7.32179,6.85374 10.62109,10.61914 9.209,10.51 17.88424,21.56025 25.490238,33.28125 5.921899,9.1255 10.994125,18.81174 15.578124,28.67774 3.4172,7.3536 6.789263,14.8162 8.851563,22.6582 1.4856,5.6494 1.893516,11.53761 2.478516,17.34961 0.40259,3.9993 1.300941,8.06141 0.707031,12.03711 -0.58121,3.8906 -4.105469,11.06445 -4.105469,11.06445 h 0.002 l 13.269532,1.25195 -1.501954,-3.75585 c 0,0 -1.924359,-18.33211 -4.005859,-27.28711 -2.4729,-10.638 -5.681244,-21.17336 -10.027344,-31.19336 -4.5745,-10.547 -10.774719,-20.32858 -16.761719,-30.14258 -3.7604,-6.1648 -7.923319,-12.07539 -12.015619,-18.02539 -4.9861,-7.2496 -10.22849,-14.3193 -15.27149,-21.5293 -1.6849,-2.409 -5.00781,-7.25977 -5.00781,-7.25976 l -1,-6.50977 c 0,0 -4.58002,3.33396 -7.26172,3.50586 -3.6869,0.2363 -10.51367,-3.50586 -10.51367,-3.50586 z"
             style="fill:#c1be7b"
             inkscape:connector-curvature="0" />
          <path
             id="path2985"
             d="m -130.14844,163.375 c -1.39045,0.0578 -4.08376,2.46943 -5.95898,1.69336 -2.4021,0.42614 -6.43234,-2.67607 -7.29297,-1.33203 l 3.64453,4.23242 c 1.28643,-1.0134 2.8706,-1.68713 4.89063,-1.85352 8.0981,0.84555 9.45158,10.9589 15.17578,15.33789 2.1889,2.4159 10.08712,12.61618 4.79492,5.39258 -4.61,-7.2297 -10.97824,-13.81131 -14.36524,-21.57031 0.10582,-1.46681 -0.25664,-1.92667 -0.88867,-1.90039 z m 46.603518,72.73242 c -0.02538,-0.0163 -0.04137,8.6e-4 0.0293,0.0977 0.03085,-0.0317 -0.0039,-0.0814 -0.0293,-0.0977 z m 0.101563,0.21289 c 0.148195,0.3562 1.621509,3.42173 1.693359,3.61328 4.0157,8.9554 1.185072,1.94363 -1.298828,-2.85937 -0.346325,-0.68975 -0.44393,-0.87264 -0.394531,-0.75391 z m 4.24414,9.14063 c -0.0309,0.0485 0.11273,0.12333 0,0 z m 0.121094,0.21484 c -0.0248,0.012 0.08378,0.36574 0.402344,1.02734 -0.21936,-0.70949 -0.377544,-1.03931 -0.402344,-1.02734 z m 7.271484,21.69922 0.1875,1.0293 0.0078,0.0488 c 0.74348,10.98201 4.993145,22.80274 -0.740234,33.17774 5.320199,3.2061 8.019731,-0.007 5.582031,-6.22656 -1.0674,-9.3885 -2.41601,-18.8773 -5.03711,-28.0293 z"
             style="fill:#d4d1af"
             inkscape:connector-curvature="0" />
          <path
             id="path5172"
             d="m -91.73473,301.68559 c 9.0272,-0.20483 17.9,5.158 26.824,3.7794 5.8399,-0.9022 10.092,-8.0234 15.989,-7.6555 7.2044,0.44938 14.151,5.7427 18.218,11.706 6.1064,8.9538 7.7348,21.13 6.3764,31.882 -1.1404,9.0273 -4.9224,18.686 -11.842,24.595 -9.643,8.2343 -23.798,11.956 -36.437,10.931 -13.129,-1.065 -25.566,-8.6864 -35.526,-17.307 -6.9407,-6.0078 -13.622,-13.784 -15.486,-22.773 -1.3181,-6.3558 0.56799,-13.413 3.6437,-19.129 3.0112,-5.5963 8.0227,-10.369 13.664,-13.296 4.3876,-2.2761 9.633,-2.6206 14.575,-2.7328 z"
             sodipodi:nodetypes="aaaaaaaaaaaa"
             style="opacity:0.50836;fill:#9c0f0a;fill-opacity:1"
             inkscape:connector-curvature="0" />
          <path
             id="path3776"
             d="m -59.53473,320.61559 c -1.6917,6.1228 4.7418,16.434 11.031,15.54 8.4115,-1.1964 10.647,-19.462 8.3735,-24.074 -1.3306,-2.699 -17.522,1.7235 -19.404,8.5344 z"
             sodipodi:nodetypes="aasa"
             style="opacity:0.69231;fill:#fbc4c2;fill-opacity:1"
             inkscape:connector-curvature="0" />
          <path
             id="path5182"
             d="m -87.22473,353.82559 c -4.9232,0.0359 -9.8859,4.3127 -13.344,7.9804 -4.487,4.7587 -4.4597,12.369 -7.7514,18.021 -2.393,4.1088 -7.2469,7.1008 -10.074,10.859 0.81795,1.0544 1.6421,2.0879 2.4857,3.1071 4.9083,5.9305 10.01,12.474 17.073,15.536 5.4313,2.3543 11.814,1.7124 17.727,1.4391 5.5043,-0.25438 11.171,-0.80111 16.288,-2.8455 8.298,-3.3153 15.93,-8.6208 22.306,-14.881 0.90543,-0.88907 1.7794,-1.7832 2.6492,-2.7146 -0.0602,-0.0496 -0.10257,-0.11501 -0.16353,-0.16353 -4.7144,-3.7549 -12.506,3.7052 -18.021,1.2756 -6.0145,-2.6494 -8.3813,-10.168 -12.265,-15.47 -5.208,-7.11 -6.2903,-19.647 -14.816,-21.881 -0.69664,-0.18249 -1.3899,-0.26678 -2.0932,-0.26165 z"
             style="opacity:0.63552;fill:#860e09;fill-opacity:1"
             inkscape:connector-curvature="0" />
          <path
             id="path5195"
             d="m -47.41473,295.44559 -12.559,8.4056 20.082,-6.0834 c -1.0996,-0.50811 -2.2074,-0.98708 -3.336,-1.3737 -1.3656,-0.46776 -2.7699,-0.76815 -4.1864,-0.94849 z"
             style="opacity:0.25425;fill:#ffffff"
             inkscape:connector-curvature="0" />
          <path
             id="path5236"
             d="m -80.81473,320.30559 c 0,0 -5.2966,32.27 -7.2935,49.583 -1.2525,10.859 -2.6425,28.703 -3.565,41.047 1.6532,0.12097 3.3251,0.15106 5.0041,0.0981 0.94701,-13.406 2.1124,-30.308 2.8455,-41.537 1.1694,-17.915 3.009,-49.19 3.009,-49.19 z"
             style="opacity:0.51191;fill:#6b363a"
             inkscape:connector-curvature="0" />
        </g>
        <ellipse
           id="ellipse5612"
           style="fill:#aa4400;fill-rule:evenodd"
           rx="0.13033672"
           ry="0.030177593"
           cy="80.06929"
           cx="-303.38879"
           transform="scale(-1,1)" />
        <path
           d="m 286.88702,82.477739 c -0.30529,-0.202564 -9.37681,1.324985 -13.42034,-0.27534 -2.91282,-1.152851 -5.83644,-3.49235 -6.17398,-6.071526 -0.1519,-1.160707 2.02001,-3.063217 2.02001,-3.063217 l 5.709,3.981186 11.0523,4.258399 z"
           inkscape:connector-curvature="0"
           style="fill:#f5f0c6;fill-opacity:1"
           sodipodi:nodetypes="caacccc"
           id="path5624" />
        <path
           d="m 276.86866,75.813971 -3.36148,0.654464 -3.06651,-3.522779 1.54315,-2.250082 c 0,0 2.75521,-1.356635 4.26745,-1.79868 0.36725,-0.107356 1.14784,-0.201657 1.14784,-0.201657 z"
           inkscape:connector-curvature="0"
           style="fill:#f5f0c6;fill-opacity:1"
           sodipodi:nodetypes="ccccacc"
           id="path5626" />
        <path
           d="m 300.16996,80.227683 c 0,0 2.72578,-0.783186 2.68579,-1.709467 -0.11639,-2.693922 -5.0475,-3.881295 -8.23251,-4.775373 -5.12738,-1.439409 -16.19331,-0.57885 -16.19331,-0.57885 l 6.06794,3.476615 z"
           inkscape:connector-curvature="0"
           style="fill:#f6f3da;fill-opacity:1"
           sodipodi:nodetypes="caaccc"
           id="path5630" />
        <path
           d="m 278.94294,74.121858 c 0,0 7.57558,-0.830846 11.35209,-0.481188 2.6075,0.241412 5.16285,0.926728 7.58761,1.760342 1.11775,0.384273 2.27252,0.801959 3.15656,1.476235 0.46585,0.355302 0.91964,0.792978 1.05389,1.29458 0.12585,0.470078 0.0907,1.047595 -0.28439,1.413944 -0.53156,0.519133 -2.36362,0.698376 -2.36362,0.698376 z"
           inkscape:connector-curvature="0"
           style="fill:#faf6d6;fill-opacity:1"
           sodipodi:nodetypes="caaaaacc"
           id="path5632" />
        <path
           d="m 299.66226,82.923764 c 0,0 1.10602,-1.869035 0.73315,-2.776127 -0.41433,-1.007892 -1.81535,-1.601443 -2.96088,-2.136288 -5.54924,-2.590956 -15.90224,-2.760639 -18.22712,-4.858589 -1.04502,-0.943232 -1.11643,-3.659917 -1.11643,-3.659917 l -2.31728,2.171491 -1.02992,3.208794 z"
           inkscape:connector-curvature="0"
           style="fill:#f9f4b9;fill-opacity:1"
           sodipodi:nodetypes="caascccc"
           id="path5634" />
        <path
           d="m 278.0897,69.537898 c 0,0 -3.69702,1.561536 -4.02684,4.414246 -0.15484,1.339263 1.18849,2.69228 2.51024,3.542909 6.1683,3.969922 16.89364,5.063002 22.58475,5.540674 1.7066,0.143256 -1.25153,-3.802459 -7.18515,-4.595553 -5.47491,-0.731803 -11.93862,-1.227415 -14.95635,-4.714654 -1.30837,-1.512063 1.07299,-4.187638 1.07299,-4.187638 z"
           inkscape:connector-curvature="0"
           style="fill:#f5f3ce;fill-opacity:1"
           sodipodi:nodetypes="csasssc"
           id="path5636" />
        <path
           d="m 276.41379,68.778231 c 0,0 -4.82247,1.986094 -4.6432,3.76727 0.34584,3.436897 6.49351,4.71568 10.32619,6.31727 2.31949,0.969191 4.91893,1.434281 7.45711,1.904167 1.69563,0.313941 3.76173,-0.241303 5.1578,0.605216 0.51811,0.31418 0.81939,0.90612 0.80148,1.42217 -0.0218,0.628729 -0.3968,1.377517 -1.09394,1.653944 -1.35654,0.537936 -3.08997,-0.153863 -4.53055,-0.577616 -2.18867,-0.643794 -3.91387,-2.068308 -5.99884,-2.911704 -3.3421,-1.351923 -7.49944,-1.48807 -10.37506,-3.419544 -1.87651,-1.260249 -4.40186,-3.061011 -3.94476,-4.964746 0.52789,-2.198558 6.84398,-3.7965 6.84398,-3.7965 z"
           inkscape:connector-curvature="0"
           style="fill:#f5f3ce;fill-opacity:1"
           sodipodi:nodetypes="caaaaaaaaaac"
           id="path5638" />
        <path
           d="m 272.90645,70.840713 c -0.1269,0.05764 -0.252,0.139181 -0.37571,0.257648 0.12273,-0.0953 0.24853,-0.180581 0.37571,-0.257648 z"
           inkscape:connector-curvature="0"
           style="fill:#0e0c0a"
           id="path5640" />
        <path
           d="m 270.16106,71.626323 c -0.55776,0.41894 -0.96307,0.878434 -1.08061,1.367886 -0.4571,1.903736 2.06814,3.704489 3.94465,4.964739 2.87594,1.931481 7.03329,2.067552 10.37506,3.419458 2.08498,0.84342 3.81018,2.268011 5.99884,2.911789 1.44059,0.423761 3.17401,1.11553 4.53055,0.577601 0.27234,-0.108 0.49485,-0.288523 0.66701,-0.505372 -0.0257,0.01426 -0.0517,0.02822 -0.0784,0.04109 -0.0322,0.01604 -0.0649,0.03115 -0.0988,0.04464 -0.0848,0.03361 -0.17104,0.06237 -0.25862,0.08675 -0.054,0.01503 -0.10875,0.02791 -0.16375,0.03963 -0.1147,0.02452 -0.23137,0.04217 -0.34973,0.0535 -0.009,7.71e-4 -0.0175,0.0015 -0.0263,0.0031 -0.13815,0.0121 -0.27862,0.01604 -0.42064,0.01272 -0.14208,-0.0031 -0.28581,-0.0138 -0.43064,-0.03014 -0.0966,-0.01087 -0.19354,-0.02421 -0.29093,-0.03993 -0.19476,-0.03145 -0.39084,-0.07193 -0.58692,-0.118377 -0.19608,-0.04641 -0.39219,-0.09891 -0.58697,-0.154534 -0.0974,-0.02783 -0.1944,-0.05643 -0.29096,-0.08546 -0.3863,-0.116041 -0.76471,-0.23879 -1.12486,-0.344724 -0.0684,-0.02012 -0.13638,-0.04094 -0.2039,-0.0626 -0.13498,-0.04317 -0.26832,-0.08931 -0.40009,-0.137928 -5e-5,-2.3e-5 -1e-4,7e-6 -2e-4,-8e-6 -0.19766,-0.07293 -0.39188,-0.151643 -0.58343,-0.234928 -6e-5,-2.3e-5 -1.1e-4,1.6e-5 -2.1e-4,-7e-6 -0.38322,-0.16663 -0.75543,-0.351717 -1.12237,-0.546309 -0.24461,-0.129726 -0.4868,-0.263753 -0.72818,-0.399268 -0.84487,-0.474303 -1.67986,-0.967549 -2.57383,-1.366007 -0.12771,-0.05689 -0.25652,-0.111917 -0.38684,-0.164634 -0.20887,-0.08449 -0.4209,-0.164286 -0.63563,-0.240015 -0.2148,-0.07578 -0.43223,-0.14745 -0.65186,-0.215909 -0.10973,-0.03423 -0.21993,-0.06753 -0.33067,-0.100191 -6e-5,-2.3e-5 -1.1e-4,8e-6 -2.1e-4,-1.5e-5 -0.3324,-0.09801 -0.66896,-0.189558 -1.00822,-0.276967 -1.35702,-0.349581 -2.75507,-0.633941 -4.08336,-1.012093 -0.33207,-0.09453 -0.6598,-0.195001 -0.98143,-0.303726 -0.2145,-0.07247 -0.42611,-0.148636 -0.63468,-0.229292 -0.20852,-0.08063 -0.41371,-0.165651 -0.61528,-0.255897 -0.10079,-0.0451 -0.2006,-0.09162 -0.29946,-0.139416 -0.19772,-0.09561 -0.39155,-0.196758 -0.5808,-0.304188 -0.18924,-0.107423 -0.37399,-0.221059 -0.55373,-0.34178 -0.4691,-0.315043 -0.97872,-0.663938 -1.4722,-1.039716 -4e-5,-2.3e-5 -2.1e-4,2.4e-5 -2.1e-4,-7e-6 -0.12337,-0.09395 -0.24563,-0.189628 -0.36609,-0.286843 -0.78301,-0.631859 -1.48573,-1.330328 -1.86485,-2.066086 -0.0584,-0.113197 -0.10914,-0.227296 -0.15125,-0.34215 -2e-5,-5.4e-5 2e-5,-8.5e-5 0,-1.69e-4 -0.021,-0.05743 -0.0399,-0.114978 -0.0565,-0.172783 -0.0167,-0.0579 -0.0313,-0.115802 -0.0433,-0.174008 -0.012,-0.05813 -0.0217,-0.11638 -0.029,-0.174856 -0.0145,-0.116951 -0.0191,-0.234434 -0.0129,-0.352503 0.003,-0.05913 0.009,-0.118254 0.0174,-0.177577 0.009,-0.05929 0.02,-0.118671 0.0342,-0.178164 0.009,-0.03893 0.0209,-0.07765 0.0338,-0.116203 0.003,-0.01033 0.008,-0.02058 0.0114,-0.03091 0.01,-0.02675 0.0199,-0.05327 0.0311,-0.07983 0.006,-0.01432 0.0126,-0.02862 0.0191,-0.04289 0.0117,-0.02557 0.0244,-0.05104 0.0376,-0.07642 0.005,-0.01092 0.0113,-0.02189 0.0172,-0.03277 0.018,-0.03288 0.0372,-0.06568 0.0576,-0.09823 0.002,-0.0035 0.004,-0.0072 0.006,-0.01072 0.0494,-0.07792 0.10564,-0.154786 0.16786,-0.230797 7.7e-4,-0.0014 0.002,-0.0029 0.004,-0.0042 0.0297,-0.03606 0.0607,-0.07191 0.093,-0.107523 0.003,-0.003 0.005,-0.006 0.008,-0.009 0.0333,-0.03639 0.0678,-0.07262 0.10371,-0.108533 z"
           inkscape:connector-curvature="0"
           style="fill:#ece7a2;fill-opacity:1"
           id="path5642" />
      </g>
    </g>
  </g>
</svg>
