<?xml version="1.0" encoding="UTF-8" standalone="no"?>
<svg id="svg2" xmlns:rdf="http://www.w3.org/1999/02/22-rdf-syntax-ns#" xmlns="http://www.w3.org/2000/svg" height="1062pt" width="1236pt" version="1.1" xmlns:cc="http://creativecommons.org/ns#" xmlns:dc="http://purl.org/dc/elements/1.1/" viewBox="0 0 1236 1062">
<g id="g4405">
<path id="path4270" d="m0 0v0.97461c0.2375-0.25 0.72461-0.73711 0.97461-0.97461h-0.97461zm772.69 6.8379c-38.59 7.3871-78.19 21.275-106.93 48.9-35.77 35.35-63.05 77.882-90.19 119.86-18.55 36.64-44.91 69.26-57.19 108.96-3.53 5.5-3.73-6.2-8.38-4.55-44.98 15.05-83.45 43.68-116.32 77.43-22.05 13.85-35.65 36.82-54.03 54.71-24.29 24.53-36.57 57.41-55.72 85.55-13.34 24.84-21.51 52-33.92 77.27-14.61 25.3-17.12 55.17-25.13 82.56-63.94-23.83-143.2-21.34-196.9 24.21-23.668 25.01-28.717 71.66 4.17 91.29 23.538 12.62 36.524-15.87 54.612-24.1 44.558 4.33 76.228 41.57 101.49 75.33 42.65 51.96 79.63 108.45 116.25 164.94 32.48 67.1 50.67 139.9 71.16 211.3 1.3 7 10.69 8.3 15.98 5 55.47 35.3 119.99 58.8 183.51 78.1 65.6 30.7 138.69 31 209.51 35.4 26.49 3.1 53.1-4.2 79.46 0.7 70.37 2.2 139.98-11.6 206.78-33.8 41.4-9.7 79.2-32.5 110.2-61 14.8-10.8 18.5-30.4 25-46.3 15.2-35.8 20.1-75.3 41.4-108.6 23.4-40 45.5-80.77 69.4-120.7 23.9-58.3 61.9-108.32 97-160.4 7.8-8.29 18-14.18 28.9-17.28 11.1-4.6 24.5-17.75 35.9-6.65 15.2 10.38 31.5-1.66 46-6.44 17.6-16.27 15.3-45.15 0.5-62.48-28.9-45.75-90.1-50.86-138.9-46.1-5-22.44-4.4-46.55-7.8-69.65-6.9-24.37-19.6-46.47-31.2-68.81-27.5-41.64-53.7-86.61-95.9-115.43-35.3-34.56-71-71.67-116.5-92.22-35-18.75-67.8-41.98-104.9-56.31-9.6-49.33-39.49-92.77-78.49-124.04-12.82-10.71-10.57-29.652-24.69-39.115-40.57-41.537-95.26-73.5-154.13-77.537z" transform="scale(.8)" fill="#cfc5b1"/>
<path id="path4" fill="#434340" d="m0 0h0.78c-0.2 0.19-0.59 0.58-0.78 0.78v-0.78z"/>
<path id="path6" fill="#434340" d="m618.15 5.47c47.1 3.23 90.85 28.8 123.31 62.03 11.29 7.57 9.49 22.72 19.75 31.29 31.2 25.02 55.14 59.77 62.76 99.23 29.71 11.47 55.96 30.05 83.99 45.05 36.37 16.44 64.89 46.13 93.24 73.78 33.7 23.05 54.6 59.03 76.6 92.34 9.3 17.87 19.5 35.55 25 55.05 2.7 18.48 2.3 37.77 6.3 55.72 38.9-3.81 88 0.28 111.1 36.88 11.8 13.86 13.6 36.97-0.5 49.98-11.6 3.83-24.6 13.46-36.7 5.16-9.2-8.88-19.9 1.64-28.8 5.32-8.7 2.48-16.8 7.19-23.1 13.82-28 41.66-58.4 81.68-77.6 128.32-19.1 31.94-36.7 64.56-55.52 96.53-16.98 26.69-20.96 58.25-33.14 86.94-5.19 12.67-8.11 28.34-19.95 36.98-24.82 22.91-55.08 41.11-88.19 48.81-53.39 17.8-109.11 28.8-165.4 27.1-21.09-4-42.38 1.8-63.57-0.6-56.66-3.5-115.13-3.8-167.61-28.3-50.82-15.5-102.43-34.24-146.81-62.51-4.23 2.64-11.74 1.63-12.78-3.98-16.39-57.1-30.95-115.36-56.93-169.05-29.3-45.19-58.88-90.38-93-131.95-20.21-27.01-45.54-56.8-81.19-60.27-14.47 6.59-24.86 29.38-43.69 19.28-26.31-15.7-22.27-53.02-3.34-73.03 42.96-36.44 106.37-38.43 157.52-19.37 6.41-21.91 8.42-45.8 20.11-66.04 9.93-20.22 16.46-41.95 27.13-61.82 15.32-22.51 25.15-48.82 44.58-68.44 14.7-14.31 25.58-32.69 43.22-43.77 26.3-27 57.08-49.9 93.06-61.94 3.72-1.32 3.88 8.04 6.7 3.64 9.83-31.76 30.92-57.86 45.76-87.17 21.71-33.58 43.53-67.61 72.15-95.89 22.99-22.1 54.67-33.21 85.54-39.12m-16.41 14.16c-22.09 8.59-44.87 17.29-62.75 33.36-14.1 15.16-25.01 33.01-39.79 47.22-12.59 28.51-34.4 51.49-47.44 79.76-4.97-0.29-11.9-2.76-14.44 3.13 3.27 4.31-0.05 12.6-1.33 5.98-11.38 12.96-16.36 33.91-24.82 52 0.01-1.47-0.24-3.22-2.12-3.06-17.54 0.51-31.48 11.94-46.14 19.88-27.26 24.31-57.75 45.38-79.16 75.38-2.87 3.73-8.52 8.03-10.31 12.74-3.51 5.45-8.61 9.98-10.98 16.07-21.06 31.01-35.26 66.43-50.77 100.55-9.38 22.57-18.7 48.07-12.36 72.82 20.1 30.83 67.15 43.04 98.95 29.59 26.13-0.98 45.97-19.32 66.26-33.81 0.44-0.33 1.32-1.01 1.76-1.35 0.48-0.16 1.46-0.5 1.95-0.66 3.95-3.99 10.49-4.84 14.46-7.16 26.75-12.57 56.36-6.8 84.09-3.3 10.72 5.41 20.99 12.04 31.85 17.41 16.17 7.41 32.59 14.84 47.66 24.55 29.96 14.32 66.63 13.24 97.83 6.27 16.4-4.86 33.45-13.07 45.71-25.2 34.27-18.72 73.84-30.74 113.15-25.81 9.57 2.44 19.8 7.28 29.77 10.24 20.91 9.18 37.21 25.07 56.53 36.83 11.2 5.35 25.76 11.11 38.6 11.91 17.87 6.47 40.83 12.02 59.25 2.07 12.68-4.28 26.55-6.99 36.95-15.99 2.8-1.43 6.2-2.32 8.2-5 11.2-3.66 19.7-13.17 29.6-19.25 11.5-3.54 22-9.57 33.2-13.96-2.2-25-0.5-50.78-10.7-74.29-8.3-15.89-16-32.57-26.5-47.04-10.2-19.23-24.9-37.54-39.6-53.32-10.6-15.02-29.26-21.72-39.52-36.96-31.05-30.72-67.59-55.45-106.69-74.19 12.72-2.99 5.06-14.44-5.87-13.63-2.98-4.54-12.16 1.94-7.38-4.5-1.23-8.37-10.83 2.42-6.99-4.78-5.37 1.65-7.89-5.76-12.82-7.12-5.02 8.52-10.01-12.6-17.05-3.99-1.57-3.93 1.51-11.55-4.29-8.56 2.69-6.13-1.34-12.87-2.35-19.31-4.03-0.26-2.06-18.26-11.41-3.99-3.62-7.91-7.7-16.1-14.02-22.21-0.85-1.91-0.96-4.55-2.68-5.83-4.1-5.31-8.69-10.27-13.15-15.27-0.72-1.57-1.84-2.89-2.9-4.22-0.09-1.24-0.75-1.67-1.96-1.27-7.89-8.83-18.64-15.27-25.2-25.3-1.89-2.85-3.54-6.2-6.26-8.2-0.24-1.65-2.5-0.47-3.59-0.69-0.37-2.1-3.07-4.44-1.32-6.41 5.95-5.33-4.97-11.35-8.94-13.73-0.8-3.15-4.85-7.24-8.09-7.6-6.6-9.53-18.05-14.43-27.87-20.42-23.94-16.23-56.42-28.99-86.21-20.38m-538 512.19c-28.94 6.21-55.09 39.12-40.3 68.55 3.46 4.25 9.18 4.74 13.65 7.46 20-7.65 26.97-30.14 43.53-42.22 13.32-14.01 30.97-27.1 51.37-23.65 26.71 9.61 50.59 25.48 71.47 44.59 11.28 16.86 30.24 25.6 47.12 35.9 23.56 11.29 50.15 4.89 74.06-1.79 23.65-6.05 43.87-21.15 62.37-36.66 15.91-18.92 38.3-47.45 66.43-35.38 22.27 3.18 43.49 11.77 61.37 25.62 15.34 8.33 23.59 25.51 39.32 33.63 21.51 18.51 51.49 19.84 78.21 15.49 39.41-2.76 59.32-43.68 95.41-54.61 30.18-16.92 66.94-12.31 98.66-7.05 15.14 15.47 34.31 26.12 52.4 37.49 22.14 16.04 46.69 32.02 75.08 32.51 18.96-2.91 39.25-4.27 56.31-12.8 25.5-4.82 46.6-22.32 67.1-37.63 19.1-14.95 44.7-23.17 69.1-20.59 16.2 4.28 24.2 20.44 35.5 31.39 7.3 13.1 26.1 11.08 34.1-0.23 5.8-14.9-5.7-30.41-16-40-13.4-14.04-33.2-16.95-51.1-20.85-15 1.73-32.4-3.95-45.5 4.89-33.4 0.09-55.3 29.54-84.6 40.81-18.7 8.78-38.55 17.51-59.59 17.29-20.62-3-40.98-7.78-60.78-14.4-28.72-9.58-47.95-35.85-76.3-45.7-29.36-12.85-63.65-11.18-93.22 1.11-26.61 5.3-43.53 30.58-69.68 37.18-23.45 11.63-49.82 10.9-75.11 7.65-45.49-1.66-80.48-34.79-122.6-47.21-20.13-11.03-43.82-6.36-65.61-5.01-37.18 12.4-61.87 51.03-103.56 50.58-29.46 8.47-63.03-1.22-87.58-18.96-10.18-5.26-14.39-18.18-25.51-22.51-36.53-14.33-78.04-19.04-115.52-4.89m43 30.26c-10.57 4.66-21.28 14.09-26.48 23.51 26.64 10.82 50.82 28.07 67.42 51.62 39.74 46.96 73.08 98.6 106.84 150.28 23.82 53.16 38.31 109.99 55.38 165.71 2.7-2.13 5.36-4.92 9.33-2.91 26.06 21.03 57.94 32.1 88.07 45.57 39.02 9.94 75.07 28.64 114.33 37.54 44.3 7.2 88.75 10.1 133.69 9.9 50.6-1.6 104.8 2.6 152.41-13.5 36.21-8.2 74.21-17 104.31-39.63 45.96-24.7 46.17-82.31 68.05-124.91 24.91-40.81 46.01-84.15 71.11-125.05 17.3-43.56 47.2-81.29 74.1-118.93 10-5.91 19.6-13.37 31.4-15.33 3.5-2.09 13.3-4.8 9-10.54-7.3-9.35-15.2-21.11-28-22.23-16.4 0.26-34.2 4.01-46.7 14.9-20.8 10.98-37.9 27.56-59.2 37.78-44.08 18.18-97.71 27.75-139.64-0.05-19.02-15.58-42.4-24.15-61.58-39.47-2.42-2.68-6.06-3.07-9.41-3.34-9.51-17.29-32.49-12.84-48.77-12.57-33.47-0.28-60.31 21.66-86.69 39.28-10.72 9.62-21.38 20.57-36.09 23.38-20.02 3.21-40.55 7.26-60.74 2.89-27.53-1.72-50.18-20.11-67.94-39.91-17.23-15.18-36.45-27.11-58.93-32.31-5.94-3.2-14.86-2.53-21.79-3.67-27.17-1.06-38.48 33.2-59.44 45.72-16.86 6.71-28.37 23.06-46.89 26.04-24.47 10.45-52.03 11.67-78.11 8.6-26.86-10.87-50.27-29.6-70.71-49.49-8.7-9.93-19.69-18.66-32.54-22.33-10.6-12.09-34.1-19.11-45.79-6.55z"/>
<path id="path8" fill="#ae3b45" d="m601.74 19.63c29.79-8.61 62.27 4.15 86.21 20.38-26.33-12.01-54.32-27.69-84.25-18.91-28.64 11.17-60.63 22.47-77.25 50.34-30.69 33.69-51.16 74.92-76.31 112.75 0.54-1.41 1.06-2.82 1.62-4.22 13.04-28.27 34.85-51.25 47.44-79.76 14.78-14.21 25.69-32.06 39.79-47.22 17.88-16.07 40.66-24.77 62.75-33.36z"/>
<path id="path10" fill="#ff3542" d="m603.7 21.1c29.93-8.78 57.92 6.9 84.25 18.91 9.82 5.99 21.27 10.89 27.87 20.42 2.54 9.15-1.69 17.98-1.46 26.99 7.56 0.32 8.21-13.32 9.55-19.39 3.97 2.38 14.89 8.4 8.94 13.73-1.75 1.97 0.95 4.31 1.32 6.41 0.14 2.8 1.66 7.06-1.83 8.37-10.56 4.18-22.06 9.96-26.85 20.85-4.28 3.16-10 13-15.32 7.07-4.94 7.01-4.04-1.5-2.53-5.66-5.92 5.53-5.37-6.19-10.57-0.64-8.18 4.58-0.92-6.08 3.94-6.13 1.63-3.8 12.3-12.03 4.69-13.07-4.56-6.68 7.56-12.42 6.88-19.51-4.7-0.3-8.44-2.3-10.59-6.59-5.53-0.1-14.44 1.01-15.25-6.66-1.28-9.81-14.2-15.47-21.62-9.93-4.14 0.41-9.65 3.66-11.91-1.44-12.59-2.38-19.47 11.39-29.69 16.64-3.15 7.16-11.37 14.11-19.29 9.63-2.48 4.61-7.6 7.16-8.53 12.69-5.06 3.91-10.51-4.65-16.26-2.34-8.15 8.81-5.77 22.33-9.54 33.29-2.65 7.11-13.24 2.62-15.25 10.05-2.38 7.65-1.57 16.17-5.91 23.35-5.98-2.37-1.77-12.29-5.59-17.4-6.67 12.78-16.51 24.8-15.47 40.11 1.1 8.36-7.47 8.7-13.5 6.45-6.7 5.45-0.95 19.43-9.9 22.36-10.38 5.35-6.27-14.21-15.71-9.92 0 12.91-11.12 22.62-9.14 35.8 2.07 6.37-2.57 11.55-3.61 17.44-0.84 9.78-11.61 15.23-10.18 25.64 0.9 11.49-7.6 30.96-21.61 21.51-3.44 11.91-0.44 26.13-11.21 34.92 7.62 1.53 15.21-1.31 22.68-2.51 10-14.26 29.98-3.37 41.66-14.55 5.77-2.02 11.79 1.51 17.68 1.85 5.57 0.61 9.23 4.68 11.88 9.34-16.13 8.61-34.17 12.31-50.75 19.83-19.45 5.52-42.49 10.36-60.59-1.31-5.87-6.97-5.01-17.81-3.06-26.27 9.09-24.06 22.49-46.33 31.97-70.21 3.2-24.04 13.44-46.41 25.85-67.03 25.15-37.83 45.62-79.06 76.31-112.75 16.62-27.87 48.61-39.17 77.25-50.34z"/>
<path id="path12" fill="#fe92a9" d="m645.12 56.27c7.42-5.54 20.34 0.12 21.62 9.93 0.81 7.67 9.72 6.56 15.25 6.66 2.15 4.29 5.89 6.29 10.59 6.59 0.68 7.09-11.44 12.83-6.88 19.51 2.02 2.63-0.48 4.66-2.43 6.36-9.25 3.45-16.36 10.54-25.24 14.69-27.34 33.93-63.55 58.91-98.75 83.34-24.81 7.15-41.65 29.38-62.27 41.63-7.61 9.71-15.13 19.42-23.75 28.31-2.51 2.96-7.24 11.46-0.45 11.4 12.21-4.45 25.99-2.21 36.8-10.26 21.28 6.05 40.43-9.86 54.82-24.44 16.65-6.8 26.53-23.18 43.04-30.51 22.89-11.53 38.18-33.11 58.49-47.54 14.1-25.03 34.68-45.42 54.27-66.03 9.94 0.32 18.41-6.47 17.53-17.05 2.72 2 4.37 5.35 6.26 8.2-3.58 1.21-4.78 4.87-6.16 8-2.7 6.69-3.49 15.07 1.25 21.01-15.47 0.07-0.92 30.31-17.9 30.6-1.62 7.72-6.49 14.59-9.26 21.45-9.85 2.37-4.51 13.71-13.48 17.52 0.15 6.28-8.4 8.22-4.61 14.01-12.79 0.68-28.35 4.8-27.98 21.18-9.85 5.12-24.38-2.45-34.04 4.85-7.55 2.96-6.53 14.17-15.83 14.5-8.8 1.38-18.75 3.94-23.43 12.36-8.74 16.08-33.95 4.39-41.53 21.38-10.69 1.62-22.11 2.21-33.05 2.09-6.66-2.6-12.33 4.38-15.65 9.47-5.03 5.82-14.6-6.17-17.11 0.94-10.89 11.89 5.86 21.43 16.82 20.66 4.82 6.15-5.01-1.23-7.22 2.76-5.89-0.34-11.91-3.87-17.68-1.85-11.68 11.18-31.66 0.29-41.66 14.55-7.47 1.2-15.06 4.04-22.68 2.51 10.77-8.79 7.77-23.01 11.21-34.92 14.01 9.45 22.51-10.02 21.61-21.51-1.43-10.41 9.34-15.86 10.18-25.64 11.61-14.3 7.55-33.96 15.26-50.07 3.65 4.92 6.23 14.02 15.32 10.86 9.9-2.59 1.45-15.55 9.16-20.17 5.27-0.34 12.09 0.11 15.41-4.83 1.23-11.91 1.56-25.63 10.18-34.89 3.94 1.41 2.03 10.68 8.12 7.66 8.09-5.9 2.8-19.67 9.68-26.62 20.26 0.83 17.16-28.14 22.6-39.49 8.95 6.45 20.96 1.9 22.85-9.1 9.79 2.72 17.34-0.78 20.5-10.47 8.91-3.81 11.78-14.95 21.26-17.5 6.21 1.01 14.11 3.39 18.96-2.09m-2.12 6.33c-5.53-0.14-5.53 4.71-3.06 8.28-16.06 13.46-33.22 31.09-47.22 42.83 1.08 9.6-10.97 14.49-17.67 19.25-6.98 6.83-3.24 19.29-14.07 23.16-3.11-4.46-8.59-6.7-11.84-1.05 0.07-10.53-5.59 8.34-4.98 11.86-6.15 4.17-10.32 10.99-11.96 17.42-7.18 3.26 2.04-6.21-1.88-5.78-8.78-3.39-3.54 8.3-1.32 10.63 0.4 7.47-4.68 15.96 0.41 22.63 7.45 0.23 6.74-11.09 13.49-12.92 11.17-6.02 18.61-23.53 33.24-17.47 13.09-2.2 15.73-19.24 27.86-23.42 8.99-8.23 16.49-16.87 24.15-27.86 9.76 9.72 16.71-6.21 24.4-10.62 13.28-4.67 23.95-15.97 26.93-29.88 1.26-3.58 7.4-3.41 8.46-6.83-4.58-12.54-21.14-3.35-25.04-17.83-5.72-3.04-13.34-2.94-19.9-2.4m30.16 106.48c-4.25 11.26-24.46 12.66-19.64 27.45-4.03 0.55-12.18 2.19-9.74 8.05-8.97 2.11-23.2 4.22-21.22 16.02 1.1 1.88 4.13 7.92 5.12 3.03 2.65-4.83 1.73 4.62 5.26 3.41 6.81-3.33 15.88-2.19 19.86-10.36 17.6 2.41 16.94-19.78 27.44-28.4 9.33-6.94 2.25-18.44-7.08-19.2z"/>
<path id="path14" fill="#ff5770" d="m603.52 71.47c10.22-5.25 17.1-19.02 29.69-16.64 2.26 5.1 7.77 1.85 11.91 1.44-4.85 5.48-12.75 3.1-18.96 2.09-9.48 2.55-12.35 13.69-21.26 17.5-3.16 9.69-10.71 13.19-20.5 10.47-1.89 11-13.9 15.55-22.85 9.1-5.44 11.35-2.34 40.32-22.6 39.49-6.88 6.95-1.59 20.72-9.68 26.62-6.09 3.02-4.18-6.25-8.12-7.66-8.62 9.26-8.95 22.98-10.18 34.89-3.32 4.94-10.14 4.49-15.41 4.83-7.71 4.62 0.74 17.58-9.16 20.17-9.09 3.16-11.67-5.94-15.32-10.86-7.71 16.11-3.65 35.77-15.26 50.07 1.04-5.89 5.68-11.07 3.61-17.44-1.98-13.18 9.14-22.89 9.14-35.8 9.44-4.29 5.33 15.27 15.71 9.92 8.95-2.93 3.2-16.91 9.9-22.36 6.03 2.25 14.6 1.91 13.5-6.45-1.04-15.31 8.8-27.33 15.47-40.11 3.82 5.11-0.39 15.03 5.59 17.4 4.34-7.18 3.53-15.7 5.91-23.35 2.01-7.43 12.6-2.94 15.25-10.05 3.77-10.96 1.39-24.48 9.54-33.29 5.75-2.31 11.2 6.25 16.26 2.34 0.93-5.53 6.05-8.08 8.53-12.69 7.92 4.48 16.14-2.47 19.29-9.63z"/>
<path id="path16" fill="#fbbdcc" d="m715.82 60.43c3.24 0.36 7.29 4.45 8.09 7.6-1.34 6.07-1.99 19.71-9.55 19.39-0.23-9.01 4-17.84 1.46-26.99z"/>
<path id="path18" fill="#f8b0c1" d="m643 62.6c6.56-0.54 14.18-0.64 19.9 2.4 3.9 14.48 20.46 5.29 25.04 17.83-1.06 3.42-7.2 3.25-8.46 6.83-2.98 13.91-13.65 25.21-26.93 29.88-7.69 4.41-14.64 20.34-24.4 10.62-7.66 10.99-15.16 19.63-24.15 27.86-12.13 4.18-14.77 21.22-27.86 23.42-14.63-6.06-22.07 11.45-33.24 17.47-6.75 1.83-6.04 13.15-13.49 12.92-5.09-6.67-0.01-15.16-0.41-22.63-2.22-2.33-7.46-14.02 1.32-10.63 3.92-0.43-5.3 9.04 1.88 5.78 1.64-6.43 5.81-13.25 11.96-17.42-0.61-3.52 5.05-22.39 4.98-11.86 3.25-5.65 8.73-3.41 11.84 1.05 10.83-3.87 7.09-16.33 14.07-23.16 6.7-4.76 18.75-9.65 17.67-19.25 14-11.74 31.16-29.37 47.22-42.83-2.47-3.57-2.47-8.42 3.06-8.28m-0.5 25.73c-15.94 14.9-26.2 37.1-46.6 47.64-16.74 5.84-16.76 26.41-28.73 37.09 5.56 2.86 16.37-8.54 21.94-13.12 18.16-1.81 24.75-23.7 39.85-31.44 4.01-0.58 7.98 2.89 11.53-0.9 9.48-12.27 31.05-14.42 33.48-32.18-9.69-3.97-21.31-3.94-31.47-7.09z"/>
<path id="path20" fill="#eee0f0" d="m642.5 88.33c10.16 3.15 21.78 3.12 31.47 7.09-2.43 17.76-24 19.91-33.48 32.18-3.55 3.79-7.52 0.32-11.53 0.9-15.1 7.74-21.69 29.63-39.85 31.44-5.57 4.58-16.38 15.98-21.94 13.12 11.97-10.68 11.99-31.25 28.73-37.09 20.4-10.54 30.66-32.74 46.6-47.64z"/>
<path id="path22" fill="#ff4258" d="m734.17 88.17c1.09 0.22 3.35-0.96 3.59 0.69 0.88 10.58-7.59 17.37-17.53 17.05-19.59 20.61-40.17 41-54.27 66.03-20.31 14.43-35.6 36.01-58.49 47.54-16.51 7.33-26.39 23.71-43.04 30.51-7.75 3.84-14.49 9.99-22.34 13.34-5.78-2.36-17.19 4.24-16.07-5.63-7.95-2.31-11.48 11.11-19.91 10.19-3.84 5.54-16.7 15.54-18.54 6.29-6.36-2.86-10.12 8.17-14.3 5.54 16.2-27.6 47.37-42.19 69.06-64.73 10.61 0.21 17.4-6.22 24.93-12.83 42.82-26.8 78.46-63.37 116.01-96.84 1.95-1.7 4.45-3.73 2.43-6.36 7.61 1.04-3.06 9.27-4.69 13.07-4.86 0.05-12.12 10.71-3.94 6.13 5.2-5.55 4.65 6.17 10.57 0.64-1.51 4.16-2.41 12.67 2.53 5.66 5.32 5.93 11.04-3.91 15.32-7.07 4.79-10.89 16.29-16.67 26.85-20.85 3.49-1.31 1.97-5.57 1.83-8.37z"/>
<path id="path24" fill="#ff4659" d="m744.02 97.06c6.56 10.03 17.31 16.47 25.2 25.3-6.51 1.03-12.8-2.03-19.28-2.23 0.37-10.11-10.54 4.37-0.56 1.26-1.19 5.08-12.57 12.56-8.55 20.42 4.05 6.45 12.74 8.12 16.3 15.11-5.37 3.19-7.35 8.28-7.78 14.19-6.54 4.9-14.29 4.71-21.66 3.18 2.18 4.84-4.39 10.12 1.34 13.62 2.93 2.65 13.54 6.96 6.17 10.12-10.57 2.14-0.48 16.88-11.49 19.14-16.25 0.1-32.51 2.47-48.35 6.21-3.2 4.74-0.08 11.57 2.59 16.21-3.22 2.53-8.66 2.25-10.93 6.26 1.92 1.77 6.61 7.02 1 5.83-8.94 2.19-9.28-11.93-17.77-11.38-5.41-2.52-4.79 7.07-8.85 5.06 0.49-6.5-7.67-3.67-10.19-0.96-3.37 5.55 5.51 12.78-2.82 15.76 4.38 7.58-2.85 2.56-5.98 1.38-0.97 5.76-3.19 5.82-3.4-0.15-7.55 1.31-5.3 8.27-2.05 12.58-4.59 8.67-15.01 5.3-22.56 6.3-1.95 8.27-9.44 11.24-16.26 4.9 5.28-7.08-5.01-8.01-9.26-4.32 3.85 3.16 4.39 9.79-2.17 7.54-9.12-2.44 5.52 9.85-5.52 6.58-13.55 0.29-25.87-7.58-39.62-4.35-7.7-4.94-13.67 4.1-10.79 11.19-8.96-0.97-21.76-4.96-21.71 8.09 10.93 1.29 20.11 7.45 27.15 16.13-1.36 0.64-2.72 1.28-4.08 1.91-2.97-17.51-25.43-9.22-29.17-24.82 5.99-9.27 16.44-2.41 24.92-3.32-5.55-7.55 3.53-12.74 10.11-13.79 13.2 2.36 27.39 2.68 40.72 6.1-0.19-4.41-6.01-8.13-2.39-12.64 11.34-6.06 24.73-2.85 36.93-3.18 7-0.51 2.68-8.36 5.04-12.75 4.88-14.48 28.58-1.54 29.44-19.57 9.3-13.26 28.18-5.85 41.37-6.46 6.7-4.18-2.3-14.54 5.66-18.5 16.58-3.21 34.2-3.55 51.05-6.29 0.13-6.79 0.86-13.46 6.07-18.58-16.55-2.72-17.7-32.91 0.98-29.27 7.26 11.33 19.2-0.51 18.65-10.26-5.82-4.69-15.63-10.52-12.85-19.71 0.84-4.19 10.01-8.64 3.86-12.3-6.91-3.06-4.83-11.36-4.67-17.54 1.38-3.13 2.58-6.79 6.16-8z"/>
<path id="path26" fill="#ff5f79" d="m658.03 120.01c8.88-4.15 15.99-11.24 25.24-14.69-37.55 33.47-73.19 70.04-116.01 96.84-7.53 6.61-14.32 13.04-24.93 12.83-21.69 22.54-52.86 37.13-69.06 64.73 4.18 2.63 7.94-8.4 14.3-5.54 1.84 9.25 14.7-0.75 18.54-6.29 8.43 0.92 11.96-12.5 19.91-10.19-1.12 9.87 10.29 3.27 16.07 5.63 7.85-3.35 14.59-9.5 22.34-13.34-14.39 14.58-33.54 30.49-54.82 24.44-10.81 8.05-24.59 5.81-36.8 10.26-6.79 0.06-2.06-8.44 0.45-11.4 8.62-8.89 16.14-18.6 23.75-28.31 20.62-12.25 37.46-34.48 62.27-41.63 35.2-24.43 71.41-49.41 98.75-83.34z"/>
<path id="path28" fill="#ff758c" d="m739.11 126.07c-4.74-5.94-3.95-14.32-1.25-21.01-0.16 6.18-2.24 14.48 4.67 17.54 6.15 3.66-3.02 8.11-3.86 12.3-2.78 9.19 7.03 15.02 12.85 19.71 0.55 9.75-11.39 21.59-18.65 10.26-18.68-3.64-17.53 26.55-0.98 29.27-5.21 5.12-5.94 11.79-6.07 18.58-16.85 2.74-34.47 3.08-51.05 6.29-7.96 3.96 1.04 14.32-5.66 18.5-13.19 0.61-32.07-6.8-41.37 6.46-0.86 18.03-24.56 5.09-29.44 19.57-2.36 4.39 1.96 12.24-5.04 12.75-12.2 0.33-25.59-2.88-36.93 3.18-3.62 4.51 2.2 8.23 2.39 12.64-13.33-3.42-27.52-3.74-40.72-6.1 10.94 0.12 22.36-0.47 33.05-2.09 7.58-16.99 32.79-5.3 41.53-21.38 4.68-8.42 14.63-10.98 23.43-12.36 9.3-0.33 8.28-11.54 15.83-14.5 9.66-7.3 24.19 0.27 34.04-4.85-0.37-16.38 15.19-20.5 27.98-21.18-3.79-5.79 4.76-7.73 4.61-14.01 8.97-3.81 3.63-15.15 13.48-17.52 2.77-6.86 7.64-13.73 9.26-21.45 16.98-0.29 2.43-30.53 17.9-30.6z"/>
<path id="path30" fill="#ff323e" d="m749.38 121.39c-9.98 3.11 0.93-11.37 0.56-1.26 6.48 0.2 12.77 3.26 19.28 2.23 1.21-0.4 1.87 0.03 1.96 1.27-0.44 5.31-6.92 7.54-7.07 12.95 4.86 3.55 7.91 8.28 9.03 14.17 5.63-0.94 11.4-5.71 16.77-1.8 6.32 6.11 10.4 14.3 14.02 22.21 16.75 28.79 7.81 72.52-25.7 84.04-79.1 48.57-175.33 45.46-262.01 70.83-7.04-8.68-16.22-14.84-27.15-16.13-0.05-13.05 12.75-9.06 21.71-8.09-2.88-7.09 3.09-16.13 10.79-11.19 13.75-3.23 26.07 4.64 39.62 4.35 11.04 3.27-3.6-9.02 5.52-6.58 6.56 2.25 6.02-4.38 2.17-7.54 4.25-3.69 14.54-2.76 9.26 4.32 6.82 6.34 14.31 3.37 16.26-4.9 7.55-1 17.97 2.37 22.56-6.3-3.25-4.31-5.5-11.27 2.05-12.58 0.21 5.97 2.43 5.91 3.4 0.15 3.13 1.18 10.36 6.2 5.98-1.38 8.33-2.98-0.55-10.21 2.82-15.76 2.52-2.71 10.68-5.54 10.19 0.96 4.06 2.01 3.44-7.58 8.85-5.06 8.49-0.55 8.83 13.57 17.77 11.38 5.61 1.19 0.92-4.06-1-5.83 2.27-4.01 7.71-3.73 10.93-6.26-2.67-4.64-5.79-11.47-2.59-16.21 15.84-3.74 32.1-6.11 48.35-6.21 11.01-2.26 0.92-17 11.49-19.14 7.37-3.16-3.24-7.47-6.17-10.12-5.73-3.5 0.84-8.78-1.34-13.62 7.37 1.53 15.12 1.72 21.66-3.18 0.43-5.91 2.41-11 7.78-14.19-3.56-6.99-12.25-8.66-16.3-15.11-4.02-7.86 7.36-15.34 8.55-20.42z"/>
<path id="path32" fill="#fe4a62" d="m764.11 136.58c0.15-5.41 6.63-7.64 7.07-12.95 1.06 1.33 2.18 2.65 2.9 4.22-11.05 7.33 3.91 27.01 13.15 15.27 1.72 1.28 1.83 3.92 2.68 5.83-5.37-3.91-11.14 0.86-16.77 1.8-1.12-5.89-4.17-10.62-9.03-14.17z"/>
<path id="path34" fill="#ead0da" d="m774.08 127.85c4.46 5 9.05 9.96 13.15 15.27-9.24 11.74-24.2-7.94-13.15-15.27z"/>
<path id="path36" fill="#48383b" d="m803.93 171.16c9.35-14.27 7.38 3.73 11.41 3.99 1.01 6.44 5.04 13.18 2.35 19.31 5.8-2.99 2.72 4.63 4.29 8.56 7.04-8.61 12.03 12.51 17.05 3.99 4.93 1.36 7.45 8.77 12.82 7.12-3.84 7.2 5.76-3.59 6.99 4.78-4.78 6.44 4.4-0.04 7.38 4.5 10.93-0.81 18.59 10.64 5.87 13.63-15.39-6.76-34.08-24.66-49.34-16.25-4.27 19.43-17.93 36.2-35.81 44.9-2.56 1.4-5.05 2.93-7.55 4.43-8.94 3.21-16.73 8.78-25.43 12.5-8.07 4.37-17.24 5.94-25.37 10.04-7.62 2.18-15.31 4.04-22.59 7.22-19.78 3.68-38.5 12.3-58.84 12.9-27.03 11.51-57.86 6.86-85.32 15.05-33.63 3.21-62.57 21.44-93.98 31.82-25.1 6.05-54.57 15.17-78.71 2.42-6.8-4.08-10.9-11.02-12.83-18.55-1.84-12.52 0.26-25.41 6.49-36.42 8.16-22.55 21.98-42.83 28.36-66.02 8.46-18.09 13.44-39.04 24.82-52 1.28 6.62 4.6-1.67 1.33-5.98 2.54-5.89 9.47-3.42 14.44-3.13-0.56 1.4-1.08 2.81-1.62 4.22-16.58 17.39-22.3 42.7-27.18 65.7-8.74 23.67-22.3 45.12-31.77 68.47-4 12.55-3.2 33.22 13.1 35.55 36.82 8.51 72.87-10.33 105.7-24.98 0.54-0.25 1.61-0.74 2.15-0.99 1.36-0.63 2.72-1.27 4.08-1.91 86.68-25.37 182.91-22.26 262.01-70.83 33.51-11.52 42.45-55.25 25.7-84.04z"/>
<path id="path38" fill="#faa8bb" d="m673.16 169.08c9.33 0.76 16.41 12.26 7.08 19.2-10.5 8.62-9.84 30.81-27.44 28.4-3.98 8.17-13.05 7.03-19.86 10.36-3.53 1.21-2.61-8.24-5.26-3.41-0.99 4.89-4.02-1.15-5.12-3.03-1.98-11.8 12.25-13.91 21.22-16.02-2.44-5.86 5.71-7.5 9.74-8.05-4.82-14.79 15.39-16.19 19.64-27.45z"/>
<path id="path40" fill="#b1434e" d="m422.96 249.89c4.88-23 10.6-48.31 27.18-65.7-12.41 20.62-22.65 42.99-25.85 67.03-9.48 23.88-22.88 46.15-31.97 70.21-1.95 8.46-2.81 19.3 3.06 26.27 18.1 11.67 41.14 6.83 60.59 1.31 16.58-7.52 34.62-11.22 50.75-19.83 1.09-0.07 2.18-0.15 3.27-0.25-32.83 14.65-68.88 33.49-105.7 24.98-16.3-2.33-17.1-23-13.1-35.55 9.47-23.35 23.03-44.8 31.77-68.47z"/>
<path id="path42" fill="#fd9faf" d="m822.75 220.79c15.26-8.41 33.95 9.49 49.34 16.25 39.1 18.74 75.64 43.47 106.69 74.19 10.26 15.24 28.92 21.94 39.52 36.96-6.5 0.35-16.5-3.34-19.11 5.25 1.01 8.87 3.31 18.36 9.81 24.78 2.6 15.76 19.6 27.25 13.8 44.46 5 38.06-25.22 73.15-13 111.41 2-4.1 5.5-8.2 9.2-3.25 1.9-7.15 5.2-1.51 9.8-4.45-2 5.48-7.4 7.01-4.9 14.21 11.8 7.42 20.9-10.95 22.1-20.75 17.2-26.85 15.7-59.67 16.2-90.16 0.9-9.74-10.4-19.06-4.3-28.18 10.5 14.47 18.2 31.15 26.5 47.04 10.2 23.51 8.5 49.29 10.7 74.29-11.2 4.39-21.7 10.42-33.2 13.96-9.9 6.08-18.4 15.59-29.6 19.25 2.7-10.15-9.9 0.51-14.2-5.05-17.2-13.83-14.4-40.41-11.2-59.77-0.3-12.38-15.67-15.61-17.45-27.21-6.5-0.03-8.44-6.67-11.86-10.79-6.63-0.58-7.05 8.55-11.41 11.97-8.13 15.79-20.66 29.56-23.13 47.69-3.63 3.16-0.67 10.05 4.17 7.39 6.61-3.8 14.21 1.33 18.47 5.63-6.61 4.46 0.63 14.33-7.46 18.5-4.66 3.83 6.19 6.29 2.83 9.63-4.76 6.67-6.38-11.59-10.35-1.57 11.54 3.24-11.89 13.34-1.23 17.47 7.58 1.54-0.45 8.88 11.3 9.28 21.73-1.94 43.52-8.41 63.32-18.17-10.4 9-24.27 11.71-36.95 15.99-18.42 9.95-41.38 4.4-59.25-2.07-5.56-22.16 5.2-43.66 10.29-64.8 4.41-4.78 0.49-15.97 8.07-16.2 5.58-16.82 20.38-27.8 24.71-44.75 26.34-34.68 19.35-83.48 0.19-120.41-11.73-25.73-32.74-44.92-57.67-57.39-9.69-1.12-14.46 8.39-14.14 16.76-4.78-11.32-12.43-20.64-16.47-31.98-17.5-15.36-35.78-33.33-60.13-35.41z"/>
<path id="path44" fill="#ff8592" d="m786.94 265.69c17.88-8.7 31.54-25.47 35.81-44.9 24.35 2.08 42.63 20.05 60.13 35.41 4.04 11.34 11.69 20.66 16.47 31.98-0.32-8.37 4.45-17.88 14.14-16.76 24.93 12.47 45.94 31.66 57.67 57.39 19.16 36.93 26.15 85.73-0.19 120.41-4.33 16.95-19.13 27.93-24.71 44.75-7.58 0.23-3.66 11.42-8.07 16.2-5.09 21.14-15.85 42.64-10.29 64.8-12.84-0.8-27.4-6.56-38.6-11.91 5.72-1.5-1.07-9.96-0.77-13.81-3.92-26.08 5.18-52.83 20.71-74.06 3.67-7.5 9.93-15.83 18.52-17.55-3.13-4.74 2.39-9.45 3.93-13.93 21.42-26.52 29.31-65.57 14.75-97.14-11.73-20.61-26.49-37.7-43.2-53.33-0.99 7.8 1.81 16.47 7.65 21.87-8.26 6.19 2.26 15.93-2.96 23.77-4.6 10.69 2.68 23.42-5.13 32.95-9.69 32.75-21.92 67-45.12 92.43-0.47 7.08-7.54 11.2-9.72 17.7-7.94 10.4-6.75 24.31-14.01 34.98-1.39 3.08-6.09 7.1-1.18 9.29-9.97-2.96-20.2-7.8-29.77-10.24 1.75-0.3 5.64 1.37 4.65-1.79-2.74-20.45 0.48-40.97 7.25-60.25 19.15-29.37 45.78-54.85 55.16-89.45 1.36-14.09 6.27-29.71 2.86-43.22-9.39 4.5-2.82-6.66-1.38-11.54-5.86-23.66-20.17-53.54-47.58-54.91 16.16 20.52 23.52 45.9 30.77 70.18-2.59 35.68-27.87 66.61-52.75 90.03-12.29 17.61-30.96 29.06-46.71 43.24-12.53 18.95-32.77 30.5-48.88 46.13-7.07 14.22-20.2 25.02-25.37 40.38 3.14-0.11 5.7-2.55 8.83-2.99-12.26 12.13-29.31 20.34-45.71 25.2 2.1-6.22 13.64-3.94 12.49-11.59-13.2-19.09-3.7-43.33 8.63-61.24 5.15-22.73 25-37.97 43.28-50.61 30.48-30.77 78.81-43.82 96.48-86.45 15.56-19.74 17.88-50.05 0.25-69.4-3.01-10.07-14.43-12.6-18.33-22.02z"/>
<path id="path46" fill="#f5b3c1" d="m362.91 257.9c14.66-7.94 28.6-19.37 46.14-19.88 1.88-0.16 2.13 1.59 2.12 3.06-6.38 23.19-20.2 43.47-28.36 66.02-9.41-4.56-19.17-9.28-30.04-5.75-27.37-1.53-48.6 19.06-69.02 31.93 21.41-30 51.9-51.07 79.16-75.38z"/>
<path id="path48" fill="#fc9faf" d="m823.96 254.83c27.41 1.37 41.72 31.25 47.58 54.91-1.44 4.88-8.01 16.04 1.38 11.54 3.41 13.51-1.5 29.13-2.86 43.22-9.38 34.6-36.01 60.08-55.16 89.45-6.77 19.28-9.99 39.8-7.25 60.25 0.99 3.16-2.9 1.49-4.65 1.79-39.31-4.93-78.88 7.09-113.15 25.81-3.13 0.44-5.69 2.88-8.83 2.99 5.17-15.36 18.3-26.16 25.37-40.38 16.11-15.63 36.35-27.18 48.88-46.13 15.75-14.18 34.42-25.63 46.71-43.24 24.88-23.42 50.16-54.35 52.75-90.03-7.25-24.28-14.61-49.66-30.77-70.18z"/>
<path id="path50" fill="#fca0b0" d="m779.39 270.12c2.5-1.5 4.99-3.03 7.55-4.43 3.9 9.42 15.32 11.95 18.33 22.02 17.63 19.35 15.31 49.66-0.25 69.4-17.67 42.63-66 55.68-96.48 86.45-18.28 12.64-38.13 27.88-43.28 50.61-12.33 17.91-21.83 42.15-8.63 61.24 1.15 7.65-10.39 5.37-12.49 11.59-31.2 6.97-67.87 8.05-97.83-6.27-15.07-9.71-31.49-17.14-47.66-24.55 3.37-31.76 34.74-47.67 59.64-61.9 30.01-11.98 58.98-27.62 91.02-33 14.65-6.86 31.04-10.92 43.68-20.69 8.91 4.29 11.61-16.32 15.39-4.97 0.73-0.12 5.65-12.72 8.14-5.42-0.08 7.31 9.31-4.72 2.94-2.8-4.88 0.88-0.66-5.66-2.91-8.43 6.22-0.51 4.49 8.21 8.37 9.92 17.94-8.54 34.58-18.72 51.45-28.51 12.61-15.7 29.49-33.83 25.13-55.77 2.7-20.37-9.78-38.87-22.11-54.49z"/>
<path id="path52" fill="#ff8692" d="m753.96 282.62c8.7-3.72 16.49-9.29 25.43-12.5 12.33 15.62 24.81 34.12 22.11 54.49 4.36 21.94-12.52 40.07-25.13 55.77-16.87 9.79-33.51 19.97-51.45 28.51-3.88-1.71-2.15-10.43-8.37-9.92 2.25 2.77-1.97 9.31 2.91 8.43 6.37-1.92-3.02 10.11-2.94 2.8-2.49-7.3-7.41 5.3-8.14 5.42-3.78-11.35-6.48 9.26-15.39 4.97-12.64 9.77-29.03 13.83-43.68 20.69-32.04 5.38-61.01 21.02-91.02 33-24.9 14.23-56.27 30.14-59.64 61.9-10.86-5.37-21.13-12-31.85-17.41 9.22-2.31 0.38-15.43 4.66-22.28 7.36-33.78 41.86-46.62 68.57-62.46 53.58-25.44 117.39-19.71 168.46-50.58 22.13-7.62 35.46-27.03 50.31-43.61 8.09-18.58 6.16-40.35-4.84-57.22z"/>
<path id="path54" fill="#faa9b8" d="m728.59 292.66c8.13-4.1 17.3-5.67 25.37-10.04 11 16.87 12.93 38.64 4.84 57.22-14.85 16.58-28.18 35.99-50.31 43.61-51.07 30.87-114.88 25.14-168.46 50.58-26.71 15.84-61.21 28.68-68.57 62.46-4.28 6.85 4.56 19.97-4.66 22.28-27.73-3.5-57.34-9.27-84.09 3.3-3.77-5.4 8.72-12.56 7.34-19.92 12.6-17.12 30.07-30.34 46.2-44 20.23-9.82 39.48-19.96 58.67-31.24 41.41-17.63 88.94-25.22 126.92-47.14 8.46 2.7 15.88-3.03 23.82-5.04 19.5-13.79 48.03-13.05 63.13-32.97 14.67-11.18 24.17-30.9 19.8-49.1z"/>
<path id="path56" fill="#fe848f" d="m502.35 295.48c3.32-5.09 8.99-12.07 15.65-9.47-6.58 1.05-15.66 6.24-10.11 13.79-8.48 0.91-18.93-5.95-24.92 3.32 3.74 15.6 26.2 7.31 29.17 24.82-0.54 0.25-1.61 0.74-2.15 0.99-1.09 0.1-2.18 0.18-3.27 0.25-2.65-4.66-6.31-8.73-11.88-9.34 2.21-3.99 12.04 3.39 7.22-2.76-10.96 0.77-27.71-8.77-16.82-20.66 2.51-7.11 12.08 4.88 17.11-0.94z"/>
<path id="path58" fill="#ff8895" d="m706 299.88c7.28-3.18 14.97-5.04 22.59-7.22 4.37 18.2-5.13 37.92-19.8 49.1-15.1 19.92-43.63 19.18-63.13 32.97-7.94 2.01-15.36 7.74-23.82 5.04-37.98 21.92-85.51 29.51-126.92 47.14-19.19 11.28-38.44 21.42-58.67 31.24-16.13 13.66-33.6 26.88-46.2 44 1.38 7.36-11.11 14.52-7.34 19.92-3.97 2.32-10.51 3.17-14.46 7.16 7.83-7.2-7.66-7.52-7.59-14.98-5.07-25.17 10.91-47.98 25.89-66.71 20.18-23.64 49.3-35.97 73.64-54.46 48.97-21.77 101.21-39.26 155.74-40.95 27.72-9.53 59.49-13.34 81.43-34.78 1.79-6.82 12.01-9.62 8.64-17.47z"/>
<path id="path60" fill="#fd9bab" d="m910.89 315.11c-5.84-5.4-8.64-14.07-7.65-21.87 16.71 15.63 31.47 32.72 43.2 53.33 14.56 31.57 6.67 70.62-14.75 97.14-1.54 4.48-7.06 9.19-3.93 13.93-8.59 1.72-14.85 10.05-18.52 17.55-15.53 21.23-24.63 47.98-20.71 74.06-0.3 3.85 6.49 12.31 0.77 13.81-19.32-11.76-35.62-27.65-56.53-36.83-4.91-2.19-0.21-6.21 1.18-9.29 7.26-10.67 6.07-24.58 14.01-34.98 2.18-6.5 9.25-10.62 9.72-17.7 23.2-25.43 35.43-59.68 45.12-92.43 7.81-9.53 0.53-22.26 5.13-32.95 5.22-7.84-5.3-17.58 2.96-23.77m-2.89 65.99c-1.27 3.75-1.47 8.78-6.17 9.76-2.91 3.34-5 16.41 2.1 11.33 3.89 7.75-8.25-0.43-9.2 5.56-3.45 7.49-7.41 15.63-8.68 23.42-5.3 5.86-13.89 14.01-10.75 22.24-5.77 4.76 2.07 11.66-7.92 8.01-2.4 8.54 2.21 13.2 12.52 10.53 10.06-3.85-4.88 13.86 3.48 10.64 3.7-1.59 5.01 3.63 5.27 6.39-3.99-1.94-8.43-0.12-9.62 4.05 3.99 0.9 8.46 1.33 12.61 1.8 4.96-2.56-7.26-5.82 0.49-5.19 18.48-20.71 35.37-44 50.64-67.88 2.12-8.64 7.93-17.69 1.19-25.5-8.66 5.5-10.42-7.37-7.09-13.22-2.43-3.47-13.1-1.95-10.43 4.03-4.45 0.94-6.75-2.81-9.79-5-0.79 2.68-1.96 6.66-5.65 6.77 1.06-3.33 1.59-7.35-3-7.74z"/>
<path id="path62" fill="#ff919f" d="m352.77 301.35c10.87-3.53 20.63 1.19 30.04 5.75-6.23 11.01-8.33 23.9-6.49 36.42-0.41-1.4-1.22-4.2-1.63-5.6-28.19 4.74-52.18 21.03-75.66 36.06-9.41 8.57-25.58 25.24-36.96 10.82-2.62-10.87 3.44-23.57 10.93-31.86 1.42-1.9 5.05-6.99 0.44-6.92 1.79-4.71 7.44-9.01 10.31-12.74 20.42-12.87 41.65-33.46 69.02-31.93z"/>
<path id="path64" fill="#fba0b0" d="m647.16 312.78c20.34-0.6 39.06-9.22 58.84-12.9 3.37 7.85-6.85 10.65-8.64 17.47-21.94 21.44-53.71 25.25-81.43 34.78-54.53 1.69-106.77 19.18-155.74 40.95-24.34 18.49-53.46 30.82-73.64 54.46-14.98 18.73-30.96 41.54-25.89 66.71-0.07 7.46 15.42 7.78 7.59 14.98-0.49 0.16-1.47 0.5-1.95 0.66-5.66-6.43-8.58-14.52-10.53-22.64 0.36-5.82 4.54-18.41-4.99-15.77-0.03-3.99 3.65-5.19 6.56-2.85-1.36-5.55-5.32-6.29-9.11-2.59-4.59-11.19 1.1-23.46 0.28-32.39 9.85-0.15 8.77-12.88 16.54-15.58 1.32 1.96 1.74 6.2 4.79 5.78 6.17-0.19-6.14-8.11 2.98-7.27 3.76-0.36 9.91-5.97 12.66-1.63-0.14 9.7 4.01-6.56 9.32-0.24 10.59-11.54 28.95-16.74 36.28-30.33-7.69 4.9-11.89-9.8-19.92-5.62-4.87 6.76-14.33 2.81-21.14 5.29-24.58 14.68-49.14 29.64-71.67 47.32-5.02 11.28-15.31 19.59-24.35 27.63 23.39-34.58 59.45-57.4 95.14-77.13 19.16-4.75 44.53-12.05 50.39-33.24 9.38-2.36 20.92-4.31 28.33-8.98 31.41-10.38 60.35-28.61 93.98-31.82 27.46-8.19 58.29-3.54 85.32-15.05z"/>
<path id="path66" fill="#faadbd" d="m299.03 373.98c23.48-15.03 47.47-31.32 75.66-36.06 0.41 1.4 1.22 4.2 1.63 5.6 1.93 7.53 6.03 14.47 12.83 18.55-3.49 5.45-11.16 3.69-16.24 6.86-28.51 8.49-51.96 27.47-76.37 43.6-26.63 21.53-46.75 52.16-55.05 85.21-5.63 18.8-5.2 40.47 4.56 58.2 3.02 6.3 12.63 6.33 15.64-0.27 17.17-22.75 12.09-55.41 32.31-76.67 9.04-8.04 19.33-16.35 24.35-27.63 22.53-17.68 47.09-32.64 71.67-47.32 6.81-2.48 16.27 1.47 21.14-5.29 8.03-4.18 12.23 10.52 19.92 5.62-7.33 13.59-25.69 18.79-36.28 30.33-5.31-6.32-9.46 9.94-9.32 0.24-2.75-4.34-8.9 1.27-12.66 1.63-9.12-0.84 3.19 7.08-2.98 7.27-3.05 0.42-3.47-3.82-4.79-5.78-7.77 2.7-6.69 15.43-16.54 15.58 0.82 8.93-4.87 21.2-0.28 32.39 3.79-3.7 7.75-2.96 9.11 2.59-2.91-2.34-6.59-1.14-6.56 2.85 9.53-2.64 5.35 9.95 4.99 15.77 1.95 8.12 4.87 16.21 10.53 22.64-0.44 0.34-1.32 1.02-1.76 1.35-9.21-13.86-23.27-39-45.28-31.63-1.14-4.04-2.94-0.16-5.41 0.18-0.22-6.16 9.81-5.79 10.37-10.27-6.09-4.31-21.9-19.36-21.69-3.33-7.89 4.57-12.72 20.06 0.84 20.04-1.78-9.9 4.94-8.84 5.39 0.57-7.86 8.62-14.29 13.66-19.59 23.73 3.63-0.26 6.75 1.58 8.76 4.54-7.19 1.86-8.46 11.09-15.99 12.31-1.95 8.69-12.33-2.16-11.92 9.57-6.2 1.83-10.96 9.7-18.6 8.6-11.43-4.07-21.35-11.69-29.53-20.51-11.41-4.1-17.47-16.77-16.47-28.42 11.19-5.64 8.21-21.84 19.32-27.05 6.86-4.23-3.15-15.14 5.91-15.93 6.43 1.18 7.32-11.36 1.02-10.04 8.47-6.37 6.5-18.91 17.45-19.96-0.93-4.19 7.01-15.99-2.61-12.47 0.6-4.92 1.33-9.82 1.57-14.76 4.29 1.06 10.82-0.14 8.97-6.44 0.83-4.22-7.79-1.35-5.3-5.2 7.32-5.33 5.64-15.16 5.64-23.03 1.26-6.66 5.83-12.58 5.07-19.65 2.37-6.09 7.47-10.62 10.98-16.07 4.61-0.07 0.98 5.02-0.44 6.92-7.49 8.29-13.55 20.99-10.93 31.86 11.38 14.42 27.55-2.25 36.96-10.82z"/>
<path id="path68" fill="#ff8592" d="m999.19 353.44c2.61-8.59 12.61-4.9 19.11-5.25 14.7 15.78 29.4 34.09 39.6 53.32-6.1 9.12 5.2 18.44 4.3 28.18-0.5 30.49 1 63.31-16.2 90.16-1.2 9.8-10.3 28.17-22.1 20.75-2.5-7.2 2.9-8.73 4.9-14.21-4.6 2.94-7.9-2.7-9.8 4.45-3.7-4.95-7.2-0.85-9.2 3.25-12.22-38.26 18-73.35 13-111.41 5.8-17.21-11.2-28.7-13.8-44.46-6.5-6.42-8.8-15.91-9.81-24.78z"/>
<path id="path70" fill="#ff8b99" d="m389.15 362.07c24.14 12.75 53.61 3.63 78.71-2.42-7.41 4.67-18.95 6.62-28.33 8.98-5.86 21.19-31.23 28.49-50.39 33.24-35.69 19.73-71.75 42.55-95.14 77.13-20.22 21.26-15.14 53.92-32.31 76.67-3.01 6.6-12.62 6.57-15.64 0.27-9.76-17.73-10.19-39.4-4.56-58.2 8.3-33.05 28.42-63.68 55.05-85.21 24.41-16.13 47.86-35.11 76.37-43.6 5.08-3.17 12.75-1.41 16.24-6.86z"/>
<path id="path72" fill="#f4b9c8" d="m262.46 362.09c0.76 7.07-3.81 12.99-5.07 19.65 0 7.87 1.68 17.7-5.64 23.03-2.49 3.85 6.13 0.98 5.3 5.2 1.85 6.3-4.68 7.5-8.97 6.44-0.24 4.94-0.97 9.84-1.57 14.76 9.62-3.52 1.68 8.28 2.61 12.47-10.95 1.05-8.98 13.59-17.45 19.96 6.3-1.32 5.41 11.22-1.02 10.04-9.06 0.79 0.95 11.7-5.91 15.93-11.11 5.21-8.13 21.41-19.32 27.05-1 11.65 5.06 24.32 16.47 28.42 8.18 8.82 18.1 16.44 29.53 20.51 7.64 1.1 12.4-6.77 18.6-8.6-0.41-11.73 9.97-0.88 11.92-9.57 7.53-1.22 8.8-10.45 15.99-12.31-2.01-2.96-5.13-4.8-8.76-4.54 5.3-10.07 11.73-15.11 19.59-23.73-0.45-9.41-7.17-10.47-5.39-0.57-13.56 0.02-8.73-15.47-0.84-20.04-0.21-16.03 15.6-0.98 21.69 3.33-0.56 4.48-10.59 4.11-10.37 10.27 2.47-0.34 4.27-4.22 5.41-0.18 22.01-7.37 36.07 17.77 45.28 31.63-20.29 14.49-40.13 32.83-66.26 33.81-31.8 13.45-78.85 1.24-98.95-29.59-6.34-24.75 2.98-50.25 12.36-72.82 15.51-34.12 29.71-69.54 50.77-100.55z"/>
<path id="path74" fill="#fbabbb" d="m908 381.1c4.59 0.39 4.06 4.41 3 7.74 3.69-0.11 4.86-4.09 5.65-6.77 3.04 2.19 5.34 5.94 9.79 5-2.67-5.98 8-7.5 10.43-4.03-3.33 5.85-1.57 18.72 7.09 13.22 6.74 7.81 0.93 16.86-1.19 25.5-15.27 23.88-32.16 47.17-50.64 67.88-7.75-0.63 4.47 2.63-0.49 5.19-4.15-0.47-8.62-0.9-12.61-1.8 1.19-4.17 5.63-5.99 9.62-4.05-0.26-2.76-1.57-7.98-5.27-6.39-8.36 3.22 6.58-14.49-3.48-10.64-10.31 2.67-14.92-1.99-12.52-10.53 9.99 3.65 2.15-3.25 7.92-8.01-3.14-8.23 5.45-16.38 10.75-22.24 1.27-7.79 5.23-15.93 8.68-23.42 0.95-5.99 13.09 2.19 9.2-5.56-7.1 5.08-5.01-7.99-2.1-11.33 4.7-0.98 4.9-6.01 6.17-9.76z"/>
<path id="path76" fill="#f9b1c0" d="m966.18 465.2c4.36-3.42 4.78-12.55 11.41-11.97 3.42 4.12 5.36 10.76 11.86 10.79 1.78 11.6 17.15 14.83 17.45 27.21-3.2 19.36-6 45.94 11.2 59.77 4.3 5.56 16.9-5.1 14.2 5.05-2 2.68-5.4 3.57-8.2 5-19.8 9.76-41.59 16.23-63.32 18.17-11.75-0.4-3.72-7.74-11.3-9.28-10.66-4.13 12.77-14.23 1.23-17.47 3.97-10.02 5.59 8.24 10.35 1.57 3.36-3.34-7.49-5.8-2.83-9.63 8.09-4.17 0.85-14.04 7.46-18.5-4.26-4.3-11.86-9.43-18.47-5.63-4.84 2.66-7.8-4.23-4.17-7.39 2.47-18.13 15-31.9 23.13-47.69z"/>
<path id="path78" fill="#b0e796" d="m63.74 531.82c37.48-14.15 78.99-9.44 115.52 4.89 11.12 4.33 15.33 17.25 25.51 22.51 24.55 17.74 58.12 27.43 87.58 18.96 41.69 0.45 66.38-38.18 103.56-50.58 21.79-1.35 45.48-6.02 65.61 5.01 42.12 12.42 77.11 45.55 122.6 47.21 25.29 3.25 51.66 3.98 75.11-7.65 26.15-6.6 43.07-31.88 69.68-37.18 29.57-12.29 63.86-13.96 93.22-1.11 28.35 9.85 47.58 36.12 76.3 45.7 19.8 6.62 40.16 11.4 60.78 14.4 21.04 0.22 40.89-8.51 59.59-17.29 0.5 0.25 1.5 0.75 2 0.99-10.6 4.2-20.4 10.1-31.28 13.63-0.62 2.13 1.74 6.19-1.28 6.65-1.26-9.94-16.73-6.41-18.54 1.75 10.36-6.61 3.92 18.27 0.25 7.23-7.8-2.5 6.75 8.15-0.69 12.15-3.05 9.85 9.13 6.45 14.54 6.52 8.54-2.6 17.5-6.72 26.4-6.71-17.06 8.53-37.35 9.89-56.31 12.8-28.39-0.49-52.94-16.47-75.08-32.51-18.09-11.37-37.26-22.02-52.4-37.49-31.72-5.26-68.48-9.87-98.66 7.05-36.09 10.93-56 51.85-95.41 54.61-26.72 4.35-56.7 3.02-78.21-15.49-15.73-8.12-23.98-25.3-39.32-33.63-17.88-13.85-39.1-22.44-61.37-25.62-28.13-12.07-50.52 16.46-66.43 35.38-18.5 15.51-38.72 30.61-62.37 36.66-23.91 6.68-50.5 13.08-74.06 1.79-16.88-10.3-35.84-19.04-47.12-35.9-20.88-19.11-44.76-34.98-71.47-44.59-20.4-3.45-38.05 9.64-51.37 23.65-16.56 12.08-23.53 34.57-43.53 42.22-4.47-2.72-10.19-3.21-13.65-7.46-14.79-29.43 11.36-62.34 40.3-68.55z"/>
<path id="path80" fill="#b8eaa6" d="m1103.4 535.88c13.1-8.84 30.5-3.16 45.5-4.89 17.9 3.9 37.7 6.81 51.1 20.85-2.1-0.29-6.1-2.04-4.4 1.63 4.3 10.13 6.9 25.4-4 32.4-3.3 2.09-15.2-0.63-9.7 6.2-11.3-10.95-19.3-27.11-35.5-31.39-24.4-2.58-50 5.64-69.1 20.59-20.5 15.31-41.6 32.81-67.1 37.63-8.9-0.01-17.86 4.11-26.4 6.71-5.41-0.07-17.59 3.33-14.54-6.52 7.44-4-7.11-14.65 0.69-12.15 3.67 11.04 10.11-13.84-0.25-7.23 1.81-8.16 17.28-11.69 18.54-1.75 3.02-0.46 0.66-4.52 1.28-6.65 10.88-3.53 20.68-9.43 31.28-13.63-0.5-0.24-1.5-0.74-2-0.99 29.3-11.27 51.2-40.72 84.6-40.81z"/>
<path id="path82" fill="#d7eae6" d="m1195.6 553.47c-1.7-3.67 2.3-1.92 4.4-1.63 10.3 9.59 21.8 25.1 16 40-8 11.31-26.8 13.33-34.1 0.23-5.5-6.83 6.4-4.11 9.7-6.2 10.9-7 8.3-22.27 4-32.4z"/>
<path id="path84" fill="#bdedb2" d="m106.74 562.08c11.69-12.56 35.19-5.54 45.79 6.55 12.85 3.67 23.84 12.4 32.54 22.33 20.44 19.89 43.85 38.62 70.71 49.49 26.08 3.07 53.64 1.85 78.11-8.6 18.52-2.98 30.03-19.33 46.89-26.04 20.96-12.52 32.27-46.78 59.44-45.72-10.64 1.6-22.91 7.59-27.17 17.54 26.16 11.9 43.07 36.64 53.54 62.7 0.49 10.5 3.7 20.53 5.71 30.78-11.01-7.19-2.58-32.43-20.31-33.04-16.5 2.26-1.18 29.3-20.29 28.01-25.71-1.07-57.69 12.4-76.54-12.22-5.29-4.35-9.29-12.96-16.72-13.67-10.39 6.57-4.61 20.96-6.55 31.07-5.31-11.25-13.61-22.01-23.84-28.76-18.69 1.43-37.6 2.64-56.21 0.49-10.43-4.83-19.56-11.71-29.77-16.91-7.52 8.89 8.05 20.81 16.7 26.17 16.19 25.43 44.67 42.24 55.74 71.26 14.97 40.63 41 77.57 45.41 121.57 2.81 13.38 3.83 28.9 11.82 40.02-9.99-3.3-12.71 11.2-4.14 14.36 28.86 19.3 61.39 32.23 95.27 39.65 38.77 15.44 81.11 15.45 121.54 24.51 61.37 4.68 123.31 7.9 184.53-0.83-18.27 7.35-37.53 3.01-55.79 9.62-7.63-3.85-14.8 1.34-22.53 0.48-8.25-4.19-17.43-1.69-26.08-0.67-1.15 5.06 4.97 7.37 9 5.32 5.22 6.75-10.73 2.3-5.97 9.92-4.31-1.21-13.04 6.26-12.13-0.72 3.49 0.67 9.27-3.11 6.48-6.39-3.99-4.36-4 9.12-6.83 2.56-5.2-7.69 13.43-4.9 5.5-11.47-9.42 4.43-22.66-3.9-33.71-0.75-18.5-3.04-37.63-3.55-55.98-6.77-11.01-4.87-21.65 0.39-32.47 0.41-2.94 3.3-3.29 8.4-2.53 12.59 4.13-0.16 1.13-6.65 5.25-6.85 0.4 3.88 0.07 7.87 4.72 9.05 1.85 5.73-2.52 21.28 8.16 17.87 4.97-2.96 1.04 3.31-0.29 5.41-7.89-4.29-5.53 8.9-3.56 13.3-6.82-4.6-15.6 17.4-3.53 12 3.13-8.4 6.76-2.2 2.49 3.2 9.14 4.8 0.48-8.6 9.08-6.4-0.15 3.8 0.96 8.3 5.62 7.9-1.4-6.2-0.33-11.1 6.57-7.7-7.92 3.6-5.49 6 1.15 7.1 2.88-4.2 4.32-1.2 4.59 2.9 5.07-3.7 10.78 4 13.7-1.9 4.82-8.7 11.28-0.8 18.02 5.1 7.37-11.3 19.31 7.8 23.9-2.3 5.17 7.5 8.65-3.7 12.46 3.1 3.19-0.6 6.86-3.5 9.74-0.6 10.48 7.3 23.15-0.4 34.61 1.4 19.83 1.2 41.43-4.8 61.01 1.9 6.57-0.5 4.24-9.1 9.25-10.3 1.62 2.5-1.06 6.3 0.31 8.1 23.04-0.2 45.82-5.4 68.58-9.4-47.61 16.1-101.81 11.9-152.41 13.5-44.94 0.2-89.39-2.7-133.69-9.9-39.26-8.9-75.31-27.6-114.33-37.54-30.13-13.47-62.01-24.54-88.07-45.57-3.97-2.01-6.63 0.78-9.33 2.91-17.07-55.72-31.56-112.55-55.38-165.71-33.76-51.68-67.1-103.32-106.84-150.28-0.03-5.75 11.51 1.11 13.1 4.98 4.34 8.8 8.39-10.93 11.4-0.4 6.58 6.14-9.17 5.22-5.07 9.7 9.58-3.04 4.61 21.38 14.82 14.29 6.26-4.8 2.77 3.69-0.45 5.85 3.95 8.19 19.17 15.83 19.67 27 7.13-3.88 9.11 3.07 10.31 9.64 6.49 4.42 10.47 18.18 19.45 8.93-6.45 12.82 9.01 15.59 11.59 26.07 11.57 4.49 14.47 17.53 16.36 28.79 10.43-2.32 19 11.29 12.25 19.16 3.55 4.19 10.97 14.01 15.03 7 5.59 2.14-7.32 7.61-2.38 11.05 6.71-1.61 3.17 9.64-2.61 6.7 3.73 4.84 8.83 6.46 14.43 4.4 7.15-0.56-2.5 7.23 2.4 9.57 6.64 3.72-1.75 9.08-5.05 12.14 3.36 10.71 22.38 15.53 25.04 2.84 8.17 2.66 4.51 14.04 12.03 15.77 0.52-3.77-0.77-8.41 3.3-10.51 5.56-2.6-4.38-11.29-5.32-4.03-2.92 7.1-2.67-0.11-2.91-2.3-6.63-2.54-1.45-11.99-8.08-14.95-1.08 2.71-1.87 5.53-3.13 8.17-9.38-2.14 5.21-19.81-7.71-13.94 2.64-12.36 13.33 4.98 18.01-4.02-11.84-11.87-3.47-31.13-12.26-45.14-0.66-6-6.04 6.96-7.36-0.53-0.35-5.99-4.71-2.66-8.4-1.63-0.62-4.44-7.71-9.01-3.5-13.06 4.93-5.07 5.35 7.09 11.1 4.63 0.48-6.55-5.45-11.42-9.45-15.58 7.24-7.84-10.55-13.37-4.7-22.64-6.38-12.07-14.15-22.88-20.69-34.95-7.29 5.15-6.81-5.56-11.15-8.97-14.31-16.34-30.48-30.81-44.62-47.15-5.52 5.67-6.94-0.88-4.44-5.67-10.27-2.46-13.05-20-23.14-17.52-3.09-9.19-12.44-13.93-21.16-16.16-12.93-13.89-31.08-21.1-49.18-25-4.95 0.96-5.72-4.84-8.47-7.66z"/>
<path id="path86" fill="#d2e7df" d="m413.05 577.63c4.26-9.95 16.53-15.94 27.17-17.54 6.93 1.14 15.85 0.47 21.79 3.67 7.3 7.64 27.89 8.67 33.91 22.31 23.63 16.17 43.81 38.92 71.86 48.06 3.48 0.79 5.54 3.88 8.34 5.81 12.76-8.15 26.88 6.36 40.27-0.22 9.89 0.51 19.65-1.46 29.1-4.29 5.16-1.7 10.17 4.92 7.45 9.5-3.74 10.83-0.55 26.32-11.87 32.08-35.15 7.33-73.31 9.09-107.26-4.81-22.31-6.77-36.12-25.68-49.9-42.96-8.04-6.69-15 4.07-17.32 11.09-10.47-26.06-27.38-50.8-53.54-62.7z"/>
<path id="path88" fill="#b7eea5" d="m80.26 585.59c5.2-9.42 15.91-18.85 26.48-23.51 2.75 2.82 3.52 8.62 8.47 7.66 18.1 3.9 36.25 11.11 49.18 25 8.72 2.23 18.07 6.97 21.16 16.16 10.09-2.48 12.87 15.06 23.14 17.52-2.5 4.79-1.08 11.34 4.44 5.67 14.14 16.34 30.31 30.81 44.62 47.15 4.34 3.41 3.86 14.12 11.15 8.97 6.54 12.07 14.31 22.88 20.69 34.95-5.85 9.27 11.94 14.8 4.7 22.64 4 4.16 9.93 9.03 9.45 15.58-5.75 2.46-6.17-9.7-11.1-4.63-4.21 4.05 2.88 8.62 3.5 13.06 3.69-1.03 8.05-4.36 8.4 1.63 1.32 7.49 6.7-5.47 7.36 0.53 8.79 14.01 0.42 33.27 12.26 45.14-4.68 9-15.37-8.34-18.01 4.02 12.92-5.87-1.67 11.8 7.71 13.94 1.26-2.64 2.05-5.46 3.13-8.17 6.63 2.96 1.45 12.41 8.08 14.95 0.24 2.19-0.01 9.4 2.91 2.3 0.94-7.26 10.88 1.43 5.32 4.03-4.07 2.1-2.78 6.74-3.3 10.51-7.52-1.73-3.86-13.11-12.03-15.77-2.66 12.69-21.68 7.87-25.04-2.84 3.3-3.06 11.69-8.42 5.05-12.14-4.9-2.34 4.75-10.13-2.4-9.57-5.6 2.06-10.7 0.44-14.43-4.4 5.78 2.94 9.32-8.31 2.61-6.7-4.94-3.44 7.97-8.91 2.38-11.05-4.06 7.01-11.48-2.81-15.03-7 6.75-7.87-1.82-21.48-12.25-19.16-1.89-11.26-4.79-24.3-16.36-28.79-2.58-10.48-18.04-13.25-11.59-26.07-8.98 9.25-12.96-4.51-19.45-8.93-1.2-6.57-3.18-13.52-10.31-9.64-0.5-11.17-15.72-18.81-19.67-27 3.22-2.16 6.71-10.65 0.45-5.85-10.21 7.09-5.24-17.33-14.82-14.29-4.1-4.48 11.65-3.56 5.07-9.7-3.01-10.53-7.06 9.2-11.4 0.4-1.59-3.87-13.13-10.73-13.1-4.98-16.6-23.55-40.78-40.8-67.42-51.62z"/>
<path id="path90" fill="#c3e8b7" d="m495.92 586.07c-6.02-13.64-26.61-14.67-33.91-22.31 22.48 5.2 41.7 17.13 58.93 32.31 17.76 19.8 40.41 38.19 67.94 39.91 20.19 4.37 40.72 0.32 60.74-2.89 16.45 2.58 26.9-17.97 41.81-15.01 1.05-2.35 2.15-5.2 5.31-4.53 9.7 1.29 13.68-10 22.14-12.65 4.21-1.2 3.75-7.14-1.06-5.11 3.35-3.43 7.99-4.52 12.47-5.67-1.74-7.5 5.64-3.53 9.1-3.55 2.9-3.17 4.57-7.56 8.4-9.8 24.2-7.26 51.54-6.79 73.38 6.23 3.35 0.27 6.99 0.66 9.41 3.34 19.18 15.32 42.56 23.89 61.58 39.47 41.93 27.8 95.56 18.23 139.64 0.05-38.51 18.91-85.86 28.55-127.31 12.62-26.36-6.76-43.19-29.72-65.65-43.28-13.32-10.55-32.48-7.19-45.46-18.5-15.64-3.74-34.73-1.91-48.13 7.56 5.46 9.65 5.47 21.88 11.11 31.61 7.73 4.39 8.51-9.88 16.02-10.64 8.88-1.27 12.01-16.29 22.1-10.9 14.5 10.92 14.61 31.39 18.51 47.71-6.23-5.15-5.8-18.56-16.4-17.2-8.67 13.73-11.07 35.49-28.05 42.69-8.93 7.2-1.75-10.87-7.06-14.45 2.96-5.7-0.47-14.01 6.32-17.39-3.09-6.88-12.43 2.53-17.72 4.22 7.56 1.95-1.11 9.5-5.45 7.36-17.87-3.32-30.85 13.39-47.87 13.63-17.31 8.06-35.54 15.62-54.87 16.09l-0.82 0.02c11.32-5.76 8.13-21.25 11.87-32.08 2.72-4.58-2.29-11.2-7.45-9.5-9.45 2.83-19.21 4.8-29.1 4.29-13.39 6.58-27.51-7.93-40.27 0.22-2.8-1.93-4.86-5.02-8.34-5.81-28.05-9.14-48.23-31.89-71.86-48.06z"/>
<path id="path92" fill="#aedf98" d="m772.4 570.43c16.28-0.27 39.26-4.72 48.77 12.57-21.84-13.02-49.18-13.49-73.38-6.23-3.83 2.24-5.5 6.63-8.4 9.8-3.46 0.02-10.84-3.95-9.1 3.55-4.48 1.15-9.12 2.24-12.47 5.67 4.81-2.03 5.27 3.91 1.06 5.11-8.46 2.65-12.44 13.94-22.14 12.65-3.16-0.67-4.26 2.18-5.31 4.53-14.91-2.96-25.36 17.59-41.81 15.01 14.71-2.81 25.37-13.76 36.09-23.38 26.38-17.62 53.22-39.56 86.69-39.28z"/>
<path id="path94" fill="#c2efb7" d="m1091 588.08c12.5-10.89 30.3-14.64 46.7-14.9 12.8 1.12 20.7 12.88 28 22.23 4.3 5.74-5.5 8.45-9 10.54-11.8 1.96-21.4 9.42-31.4 15.33-26.9 37.64-56.8 75.37-74.1 118.93-25.1 40.9-46.2 84.24-71.11 125.05-0.11-2.74 3.91-9.05-0.69-8.97-5.89 7.92-12.2 15.91-15.9 25.15-3.79 2.03-6.29 4.86-3.68 9.05-5.55 2-9.52 7.09-7.68 13.23-5.69 25.27-17.42 49.8-32.18 71.2-3.08 1.91-14.95 13.46-7.92 15.25-30.1 22.63-68.1 31.43-104.31 39.63-22.76 4-45.54 9.2-68.58 9.4-1.37-1.8 1.31-5.6-0.31-8.1-5.01 1.2-2.68 9.8-9.25 10.3-19.58-6.7-41.18-0.7-61.01-1.9-11.46-1.8-24.13 5.9-34.61-1.4-2.88-2.9-6.55 0-9.74 0.6-3.81-6.8-7.29 4.4-12.46-3.1-4.59 10.1-16.53-9-23.9 2.3-6.74-5.9-13.2-13.8-18.02-5.1-2.92 5.9-8.63-1.8-13.7 1.9-0.27-4.1-1.71-7.1-4.59-2.9-6.64-1.1-9.07-3.5-1.15-7.1-6.9-3.4-7.97 1.5-6.57 7.7-4.66 0.4-5.77-4.1-5.62-7.9-8.6-2.2 0.06 11.2-9.08 6.4 4.27-5.4 0.64-11.6-2.49-3.2-12.07 5.4-3.29-16.6 3.53-12-1.97-4.4-4.33-17.59 3.56-13.3 1.33-2.1 5.26-8.37 0.29-5.41-10.68 3.41-6.31-12.14-8.16-17.87-4.65-1.18-4.32-5.17-4.72-9.05-4.12 0.2-1.12 6.69-5.25 6.85-0.76-4.19-0.41-9.29 2.53-12.59 10.82-0.02 21.46-5.28 32.47-0.41 18.35 3.22 37.48 3.73 55.98 6.77 11.05-3.15 24.29 5.18 33.71 0.75 7.93 6.57-10.7 3.78-5.5 11.47 2.83 6.56 2.84-6.92 6.83-2.56 2.79 3.28-2.99 7.06-6.48 6.39-0.91 6.98 7.82-0.49 12.13 0.72-4.76-7.62 11.19-3.17 5.97-9.92-4.03 2.05-10.15-0.26-9-5.32 8.65-1.02 17.83-3.52 26.08 0.67 7.73 0.86 14.9-4.33 22.53-0.48 18.26-6.61 37.52-2.27 55.79-9.62 33.36-7.37 68.37-5.69 100.82-17.07 22.5-5.37 44.28-13.53 66.33-20.64-0.89-4.07 7.59-10.29 1.04-12.36-7.3-4.72-12.09 5.62-19.16 6.31-10.64 1.26-20.14 6.83-30.74 8.22 11.3-6.43 24.79-7.19 36.56-12.36 13.88-17.62 12.32-42.35 24.3-60.92 0.81-1.9 1.26-3.91 1.85-5.88 19.15-27.81 41.46-54.97 49.1-88.73 0.18-0.57 0.55-1.72 0.74-2.3 22.02-27.9 33.12-63.45 56.42-90.94 17.6-31.58 42.9-58.45 74.4-76.44 3.2-1.89 7.2-4.65 7.2-8.65-9.6-3.24-18.3 3.66-26.8 7.05z"/>
<path id="path96" fill="#d7e9e6" d="m745.25 584.26c13.4-9.47 32.49-11.3 48.13-7.56 12.98 11.31 32.14 7.95 45.46 18.5 22.46 13.56 39.29 36.52 65.65 43.28 41.45 15.93 88.8 6.29 127.31-12.62 21.3-10.22 38.4-26.8 59.2-37.78 8.5-3.39 17.2-10.29 26.8-7.05 0 4-4 6.76-7.2 8.65-31.5 17.99-56.8 44.86-74.4 76.44-23.3 27.49-34.4 63.04-56.42 90.94 1.47-23.19 2.51-53.84-16.66-70.38-8.83-6.29-14.16 5.18-14.1 12.57-3.75-7.59-19.9 3.31-15.31-7.22-6.25 5.48-15.38 1.82-23.23 4.68 0.59-3.01 0.19-6.02-3.16-7 6.51 7-6.45 4.42-8.46 10.08-6.86 0.98 0.67-9.81-4.46-6.91 2.21 12.19-14.14 7.6-15.76-0.58-12.1-0.97-8.05 11.99-13.49 18.89-4.01 15.37-3.45 33.31-17.1 42.85 17.39-26.96 20.1-62.24 6.04-91.15-2.58-7.77-7.81-20.75-17.65-17.56-4.87 13.38-5.94 29.86-21.2 36.06-3.2-12.92-1.34-26.24-2.25-39.35-3.9-16.32-4.01-36.79-18.51-47.71-10.09-5.39-13.22 9.63-22.1 10.9-7.51 0.76-8.29 15.03-16.02 10.64-5.64-9.73-5.65-21.96-11.11-31.61z"/>
<path id="path98" fill="#cfc5b1" d="m796.59 624.84c10.6-1.36 10.17 12.05 16.4 17.2 0.91 13.11-0.95 26.43 2.25 39.35-0.42 6.84-7.84 19.62-1.33 21.07-3.23 15.24-9.05 30.05-7.74 45.93-4.08-1.89-4.98-9.89-0.87-11.17-3.39-5.57-4.21 7.98-10.19 5.62 0.94-7.18 3.1-13.99 5.77-20.68-5.94-6.31 1.32-14.68 3.94-19.67-9.76 1.53-6.45-5.43-3.09-10.72-1.05 1.23-16.65 4.09-8.98-2.87-2.88-5.58-10.59-7.45-16.48-7.84-1.38 4.97 9.83 2.5 7.28 8.49-0.92 5.99-5.58-3.79-7.75 1.31-9.95 10.36-2.14-17.69-13.72-5.85 4.75-14.57-6.31-4.37-11.05 0.9-4.4-5.58-14.76-11.74-16.59-0.28-9.55-9.13-2.46 9.13-12.43 3.76-4.61 7.41-11.19 12.12-13.25 19.41-4.95 5.09 2.23-7.91-4.48-5.4 0.62 7.69-9.48 9.96-12.67 12.59-2.79-18.49-16.9 13.99-3.04 13.55 2.21-0.43 8.83-7.48 6.66-1.7 12.59-5.77-6.63 23.47-2.1 7.41-2.38 3.45-4.93 4.83-8.86 3.55 0.13 4.53 4.51 11.04-0.7 14.44-5.66-6.94 5.15-17.97-3.58-22.27-13.01 9.35-7.81 20.55-6.13 33.7 7.66-4.77 4.8 5.97 2.8 10.06-5.43 1.04-1.42-10.74-9.87-6.74 1.24 6.31-7.87 19.47-6.22 7.55-13.24 3.25-4.09 17.57-10.14 26.25 3.3 1.89 7.16 5.3 10.27 6.58 2.22 9.01-8.39 13.21-7.87 21.75-3.62-5.13-2.21-11.41 0.9-16.38-9.67 0.19-4.38 12.52-13.72 13.4-0.77 4.35-6.43 14.53 2.43 12.44 9.08-1.15 4.52 10.46 4.56 13.36 8.47-8.14 20.79 4.33 29.08-4.65-0.56 6.49 4.46 19.3 11.79 12.92 5.16 5.33 11.64-3.28 14.23 4.6 4.97-8.58 15.65-5.35 23.51-8.95-1.89 3.46-3.72 11.06 2.12 6.14 7.23 0.32 15.46 2.37 21.01-2.28 1.69-4.33 8.45-16.21 11.31-7.9 2.67-7.22 11.32-4.53 16.18-9.51 0.43 3.16-3.41 13.16 3.02 11.17-1.65 7.68-3.22 15.41-3.33 23.3-20.38 17.92-44.93 34.21-73.06 34.67-4.98 2.36-10.12 3.92-15.77 3.43 0.36-8.3-8.6-5.48-14.13-6.87 3.69-3.62 12.48-0.39 10.5-8-5.16 0.3-14.41-4.06-14.48 4.08-5.34-7.5-16.48-11.91-10.62-22.6-8.47 5.11-12.79-4.58-15.57-12.37-3.67-4.56-7.47 5.02-10.51 1.77 0.79-3.36 2.43-6.88 1.1-10.32-4.54-2.4-0.88 7.52-6.14 4.81 0.22-2.9 0.08-5.79-0.2-8.67 2.3-4.03-4.66-13.12 3.16-12.18 6.75 0.05 2.09-8.65-0.23-11.08-0.66-8.52-6.41-15.58 2.82-22.49-2.19-8.98-4.45-21-4.63-31.91 4.94-0.17 2.31-8.1 7.36-6.64 2.96-7.85-7.92-7.86-3.93-13.87 5.04-3.55 5.66-14.83 14.06-12.8-3.62-3.93 0.23-7.05-0.58-10.85-7.09 7.44-4.42-5.33-7.53-9.44-3.41-5.24 2.14-9.35 4.26-13.58-4.25-5.61-6.42-13.77-0.2-18.96-3.86-5.15-1.11-11.42 0.29-16.92 19.33-0.47 37.56-8.03 54.87-16.09 17.02-0.24 30-16.95 47.87-13.63 4.34 2.14 13.01-5.41 5.45-7.36 5.29-1.69 14.63-11.1 17.72-4.22-6.79 3.38-3.36 11.69-6.32 17.39 5.31 3.58-1.87 21.65 7.06 14.45 16.98-7.2 19.38-28.96 28.05-42.69z"/>
<path id="path100" fill="#d6ece4" d="m222.07 626.08c10.21 5.2 19.34 12.08 29.77 16.91 18.61 2.15 37.52 0.94 56.21-0.49 10.23 6.75 18.53 17.51 23.84 28.76 4.18 10.89 6.98 22.21 9.1 33.63 9.64 14.19 17.42 30.48 33.02 39.2 9.8 17.73 13.92 37.87 22.7 56.04 7.95 4.14 3.2 14.82 9.93 20.28 1.04 6.6 1.25 16.27 8.06 21.13-2.54 7.91 2.59 18.11 8.91 22.19 0.81 7.9-4.85 18.39 5.41 22.27 4.11 9.14 1.18 20.49 5.17 30.57-2.48 8.58-10.26 3.61-16.31 3.53-23.84-6.61-47.54-18.45-66.14-35-7.99-11.12-9.01-26.64-11.82-40.02-4.41-44-30.44-80.94-45.41-121.57-11.07-29.02-39.55-45.83-55.74-71.26-8.65-5.36-24.22-17.28-16.7-26.17m95.21 59.2c-0.98 2.02-1.83 4.23-1.79 6.51 7.92 18.25 13.88 38.35 20.24 56.44 5.74 3.19-2.71 8.49 1.93 12.07 4.67 3.68-2.29 15.36 7.66 12.08 3.32 5.28-6.82 15.21-0.51 20.5-6.03 2.71 1.26 17.9-9.01 14.52-1.18 5.76 11.15 5.8 6.17 10.02 2.56 22.57 1.29 46.93 13.71 66.88 15.56 15.65 35.84 22.74 55.4 31.91 5.52 0.54 11.85 4.67 16.9 1.64-11.16-58.3-32.64-113.9-54.21-169.3-16.91-14.44-33.43-31.58-38-54.11-4.57-5.88-11.55-8.58-18.49-9.16z"/>
<path id="path102" fill="#ddbdc1" d="m466.59 640.33c2.32-7.02 9.28-17.78 17.32-11.09 13.78 17.28 27.59 36.19 49.9 42.96 33.95 13.9 72.11 12.14 107.26 4.81l0.82-0.02c-1.4 5.5-4.15 11.77-0.29 16.92-6.22 5.19-4.05 13.35 0.2 18.96-2.12 4.23-7.67 8.34-4.26 13.58 3.11 4.11 0.44 16.88 7.53 9.44 0.81 3.8-3.04 6.92 0.58 10.85-8.4-2.03-9.02 9.25-14.06 12.8-3.99 6.01 6.89 6.02 3.93 13.87-5.05-1.46-2.42 6.47-7.36 6.64-7.23-15.72 11.66-35.18 3.14-49.51-1.34-6.85-16.75-15.19-7.09-21.44 2.17-10.05-10.41-30.48-19.18-15.41-5.09-9.15-14.4-2.26-21.92-1.1-12.22-7.23-28.1 1.32-38.93-8.61-7.65-0.32-19.22-1.26-21.76-10.19-16.62-7.11-27.96-20.96-38.36-34.91-6.4-5.03-11.99-3.6-12.99 5.38-1.45-1.37-2.95-2.67-4.48-3.93z"/>
<path id="path104" fill="#eeaab6" d="m471.07 644.26c1-8.98 6.59-10.41 12.99-5.38 10.4 13.95 21.74 27.8 38.36 34.91 2.54 8.93 14.11 9.87 21.76 10.19 10.83 9.93 26.71 1.38 38.93 8.61 7.52-1.16 16.83-8.05 21.92 1.1 8.77-15.07 21.35 5.36 19.18 15.41-9.66 6.25 5.75 14.59 7.09 21.44 8.52 14.33-10.37 33.79-3.14 49.51 0.18 10.91 2.44 22.93 4.63 31.91-9.23 6.91-3.48 13.97-2.82 22.49 2.32 2.43 6.98 11.13 0.23 11.08-7.82-0.94-0.86 8.15-3.16 12.18-6.44 0.39-2.13 28.24-8 14.09-2.06 3.49-2.35 9.21-8.31 7.71-12.09-0.56-24.51-0.15-35.36 5.87-5.46 4.23-13.24-1.62-18.1 3.71-0.19-0.33-0.58-0.99-0.77-1.33-0.82-3.6-1.75-7.17-2.29-10.82-2.56-8.57 4.06-18.44-3.79-25.06 3.38-19.18-8.69-37.03-2.16-56.55 12.76 0.94 26.39-2.46 37.29-8.69 8.92 1.06 17.36-10.62 24.33-1.41-0.29-7.89 8.27-8.33 10.72-12.92-8.84-15.7-21.47 0.91-34.17-1.06-9.2-1.76-16.65 4.29-25.34 5.57-3.52 5.29-12 9.07-17.24 4.1-1.9-18.85-8.82-36.73-15.1-54.63-9.7-8.79-9.33-22.26-19.23-31.37-10.65-18.32-27.5-32.19-38.63-49.95l0.18-0.71z"/>
<path id="path106" fill="#cfc4af" d="m431.7 666.08c19.11 1.29 3.79-25.75 20.29-28.01 17.73 0.61 9.3 25.85 20.31 33.04-2.01-10.25-5.22-20.28-5.71-30.78 1.53 1.26 3.03 2.56 4.48 3.93l-0.18 0.71c0.21 9.21 6.17 18.25 6.89 28.01 8.98 2.22 4.78 12.3-2.36 12.99-9.21-13.2-16.79-26.73-19.32-42.05-6.12-10.8-15.01 18.09-4.98 8.13 9.22 1.5 3.06 18.2-2.3 7.91-9.07 7.26-14.85 21.32-7.49 32.24-2.72 7.3 2.17 19.96 11.33 15.31 4.05 3.96 3.9 9.54-2.66 9.22-2.81 11.77 13.54 14.91 15.38 26.76 3.4 2.41 8.58 3.23 8.36 8.04 8.83-7.28 0.68 9.5 8.2 10.54 4.91 4.4 4.45-2.8 5.96-6.16 5.01 2.88 3.15 10.53 3.06 15.6 5.8-1.23 3.53 4.81 4.39 8.58 4.4 1.69 12.05 2.37 8.21-4.43 8.47 2.2 5.75 13.52 7.68 18.06-8.01-4.48-2.84 2.32-1.14 6.87 10.52-9.32-0.29 22.43 10.37 10.87 3.09 3.92-12.81 7.26-6.94 12.09 9.37-0.12 5.1 10.1 1.45 13.43 8.1 0.26 3.04 30.29 8.85 16.13 12.49-2.59 3.05 26.94 19.71 21.59-1.64-7.91 3.56-1.67 6.2 0.5-3.95 1.72-5.14 6.65-0.02 7.57-6.74 4.99 3.42 14.11 6.78 4.99 0.19 0.34 0.58 1 0.77 1.33-1.72 1.78-2.76 4.02-4.18 6.01-22.4-2.94-37.1-21.71-49.42-38.78-11.12-22.62-13.66-47.66-16.54-72.39-3.98-8.03-13.52-11.17-18.64-18.44-12-9.96-17.01-24.79-23.96-38.04-7.29-0.06-7.25 14.96-15.97 12.03-14.07 15.97-37.39 13.14-54.55 4.61-15.6-8.72-23.38-25.01-33.02-39.2-2.12-11.42-4.92-22.74-9.1-33.63 1.94-10.11-3.84-24.5 6.55-31.07 7.43 0.71 11.43 9.32 16.72 13.67 18.85 24.62 50.83 11.15 76.54 12.22z"/>
<path id="path108" fill="#d0b5a7" d="m451.12 652.05c-10.03 9.96-1.14-18.93 4.98-8.13 2.53 15.32 10.11 28.85 19.32 42.05 7.14-0.69 11.34-10.77 2.36-12.99-0.72-9.76-6.68-18.8-6.89-28.01 11.13 17.76 27.98 31.63 38.63 49.95 9.9 9.11 9.53 22.58 19.23 31.37 6.28 17.9 13.2 35.78 15.1 54.63-7.11 7.18 0.01 9.26 4.41 14.41-6.53 19.52 5.54 37.37 2.16 56.55 7.85 6.62 1.23 16.49 3.79 25.06-1.82 3.51-3.94 0.93-4.47-1.74-2.64-2.17-7.84-8.41-6.2-0.5-16.66 5.35-7.22-24.18-19.71-21.59-5.81 14.16-0.75-15.87-8.85-16.13 3.65-3.33 7.92-13.55-1.45-13.43-5.87-4.83 10.03-8.17 6.94-12.09-10.66 11.56 0.15-20.19-10.37-10.87-1.7-4.55-6.87-11.35 1.14-6.87-1.93-4.54 0.79-15.86-7.68-18.06 3.84 6.8-3.81 6.12-8.21 4.43-0.86-3.77 1.41-9.81-4.39-8.58 0.09-5.07 1.95-12.72-3.06-15.6-1.51 3.36-1.05 10.56-5.96 6.16-7.52-1.04 0.63-17.82-8.2-10.54 0.22-4.81-4.96-5.63-8.36-8.04-1.84-11.85-18.19-14.99-15.38-26.76 6.56 0.32 6.71-5.26 2.66-9.22-9.16 4.65-14.05-8.01-11.33-15.31-7.36-10.92-1.58-24.98 7.49-32.24 5.36 10.29 11.52-6.41 2.3-7.91z"/>
<path id="path110" fill="#ecb9c3" d="m836.44 645.33c9.84-3.19 15.07 9.79 17.65 17.56 14.06 28.91 11.35 64.19-6.04 91.15-10.38 10.91-25.1 18.68-30.86 33.31-5.95 31.6-10.81 69.48-39.11 89.61-0.54 0.21-1.62 0.61-2.16 0.82 0.11-7.89 1.68-15.62 3.33-23.3 9.31-35.19 20.51-71 26.92-106.09-1.31-15.88 4.51-30.69 7.74-45.93-6.51-1.45 0.91-14.23 1.33-21.07 15.26-6.2 16.33-22.68 21.2-36.06z"/>
<path id="path112" fill="#cbb29f" d="m751.03 685.91c4.74-5.27 15.8-15.47 11.05-0.9 11.58-11.84 3.77 16.21 13.72 5.85 2.17-5.1 6.83 4.68 7.75-1.31 2.55-5.99-8.66-3.52-7.28-8.49 5.89 0.39 13.6 2.26 16.48 7.84-7.67 6.96 7.93 4.1 8.98 2.87-3.36 5.29-6.67 12.25 3.09 10.72-2.62 4.99-9.88 13.36-3.94 19.67-2.67 6.69-4.83 13.5-5.77 20.68 5.98 2.36 6.8-11.19 10.19-5.62-4.11 1.28-3.21 9.28 0.87 11.17-6.41 35.09-17.61 70.9-26.92 106.09-6.43 1.99-2.59-8.01-3.02-11.17-4.86 4.98-13.51 2.29-16.18 9.51-2.86-8.31-9.62 3.57-11.31 7.9-5.55 4.65-13.78 2.6-21.01 2.28-5.84 4.92-4.01-2.68-2.12-6.14-7.86 3.6-18.54 0.37-23.51 8.95-2.59-7.88-9.07 0.73-14.23-4.6-7.33 6.38-12.35-6.43-11.79-12.92-8.29 8.98-20.61-3.49-29.08 4.65-0.04-2.9 4.52-14.51-4.56-13.36-8.86 2.09-3.2-8.09-2.43-12.44 9.34-0.88 4.05-13.21 13.72-13.4-3.11 4.97-4.52 11.25-0.9 16.38-0.52-8.54 10.09-12.74 7.87-21.75-3.11-1.28-6.97-4.69-10.27-6.58 6.05-8.68-3.1-23 10.14-26.25-1.65 11.92 7.46-1.24 6.22-7.55 8.45-4 4.44 7.78 9.87 6.74 2-4.09 4.86-14.83-2.8-10.06-1.68-13.15-6.88-24.35 6.13-33.7 8.73 4.3-2.08 15.33 3.58 22.27 5.21-3.4 0.83-9.91 0.7-14.44 3.93 1.28 6.48-0.1 8.86-3.55-4.53 16.06 14.69-13.18 2.1-7.41 2.17-5.78-4.45 1.27-6.66 1.7-13.86 0.44 0.25-32.04 3.04-13.55 3.19-2.63 13.29-4.9 12.67-12.59 6.71-2.51-0.47 10.49 4.48 5.4 2.06-7.29 8.64-12 13.25-19.41 9.97 5.37 2.88-12.89 12.43-3.76 1.83-11.46 12.19-5.3 16.59 0.28z"/>
<path id="path114" fill="#ebeefc" d="m317.28 685.28c6.94 0.58 13.92 3.28 18.49 9.16 4.57 22.53 21.09 39.67 38 54.11 21.57 55.4 43.05 111 54.21 169.3-5.05 3.03-11.38-1.1-16.9-1.64-19.56-9.17-39.84-16.26-55.4-31.91-12.42-19.95-11.15-44.31-13.71-66.88 4.98-4.22-7.35-4.26-6.17-10.02 10.27 3.38 2.98-11.81 9.01-14.52-6.31-5.29 3.83-15.22 0.51-20.5-9.95 3.28-2.99-8.4-7.66-12.08-4.64-3.58 3.81-8.88-1.93-12.07-6.36-18.09-12.32-38.19-20.24-56.44-0.04-2.28 0.81-4.49 1.79-6.51z"/>
<path id="path116" fill="#f4c8d9" d="m949.02 699.25c-0.06-7.39 5.27-18.86 14.1-12.57 19.17 16.54 18.13 47.19 16.66 70.38-0.19 0.58-0.56 1.73-0.74 2.3-1.89-15.17 0.83-31.32-7.28-45.27-2.1-9.89-2.81-23.97-14.87-26.78-11.18 5.74-1.28 19.46-7.62 27.91-2.94 8.44-14.47 16.14-12 23.84-8.76 3.81-9.88 19.04-18.32 23.76 6.45 7.58 3.25 2.59-3.01 5.13 0.74 9.31-8.18 16.51-9.94 26.48 8.03-7.63 3.3 15.17 0.7 4.85 1.55-7.95-12.56 1.48-5.19 4.19 5.77 1.78 3.04 9.03-2.49 7.08 1.66 4.94 4.08 16.66-4.77 14.22-3.16 3.11-1.89 10.32-3.13 15-5.53 1.1-2.71-8.04-7.76-5.91 0.04 4.12-1.23 13 4.38 7.38-1.39 4.71 1.84 3.05 4.36 1.15 6.21 1.59 2.52 9.83 6.26 13.28 3.65-0.06 8.69-0.24 9.73-4.64 2.51 1.95-0.03 7.3 3.45 7.67-1.42-10.56 12.98-4.32 18.4-10.61-0.59 1.97-1.04 3.98-1.85 5.88-17.16 8.05-28.43 27.69-48.11 29.75-22.03 13.92-48.04 2.74-71.57 2.67-6.05-2.76-2.77-10.84 0.08-14.93 37.89-54.63 94.14-93.47 130.37-149.55 4.56-6.98 11.23-13.56 10.16-22.66z"/>
<path id="path118" fill="#f4b7c4" d="m956.89 687.31c12.06 2.81 12.77 16.89 14.87 26.78 8.11 13.95 5.39 30.1 7.28 45.27-7.64 33.76-29.95 60.92-49.1 88.73-5.42 6.29-19.82 0.05-18.4 10.61-3.48-0.37-0.94-5.72-3.45-7.67-1.04 4.4-6.08 4.58-9.73 4.64-3.74-3.45-0.05-11.69-6.26-13.28-2.52 1.9-5.75 3.56-4.36-1.15-5.61 5.62-4.34-3.26-4.38-7.38 5.05-2.13 2.23 7.01 7.76 5.91 1.24-4.68-0.03-11.89 3.13-15 8.85 2.44 6.43-9.28 4.77-14.22 5.53 1.95 8.26-5.3 2.49-7.08-7.37-2.71 6.74-12.14 5.19-4.19 2.6 10.32 7.33-12.48-0.7-4.85 1.76-9.97 10.68-17.17 9.94-26.48 6.26-2.54 9.46 2.45 3.01-5.13 8.44-4.72 9.56-19.95 18.32-23.76-2.47-7.7 9.06-15.4 12-23.84 6.34-8.45-3.56-22.17 7.62-27.91z"/>
<path id="path120" fill="#e9ecf8" d="m907.32 689.71c3.35 0.98 3.75 3.99 3.16 7 7.85-2.86 16.98 0.8 23.23-4.68-4.59 10.53 11.56-0.37 15.31 7.22 1.07 9.1-5.6 15.68-10.16 22.66-36.23 56.08-92.48 94.92-130.37 149.55-2.85 4.09-6.13 12.17-0.08 14.93 23.53 0.07 49.54 11.25 71.57-2.67 19.68-2.06 30.95-21.7 48.11-29.75-11.98 18.57-10.42 43.3-24.3 60.92-11.77 5.17-25.26 5.93-36.56 12.36-19.22 7.03-39.38 10.71-59.29 14.9-19.78-1.9-38.49 9.77-57.98 7.88-2.36-4.98 5.7-10.45 10.29-12.89 9.02-19.15 9.94-40.61 17.83-60.18 28.3-20.13 33.16-58.01 39.11-89.61 5.76-14.63 20.48-22.4 30.86-33.31 13.65-9.54 13.09-27.48 17.1-42.85 5.44-6.9 1.39-19.86 13.49-18.89 1.62 8.18 17.97 12.77 15.76 0.58 5.13-2.9-2.4 7.89 4.46 6.91 2.01-5.66 14.97-3.08 8.46-10.08z"/>
<path id="path122" fill="#d0f0cc" d="m428.56 739.48c8.72 2.93 8.68-12.09 15.97-12.03 6.95 13.25 11.96 28.08 23.96 38.04 5.12 7.27 14.66 10.41 18.64 18.44 2.88 24.73 5.42 49.77 16.54 72.39 12.32 17.07 27.02 35.84 49.42 38.78 1.48-0.09 2.95-0.28 4.44-0.42-2.23 7.69 0.42 16.28-4.64 23.24-4.46 5.06 0.65 15.69-7.94 17.25 1.12 4.37-2.73 9.45 0.83 13.13 7.57 2.75 15.9 1.75 23.42 4.77-51.48-5.54-102.66-15.11-151.32-32.97 6.05 0.08 13.83 5.05 16.31-3.53-3.99-10.08-1.06-21.43-5.17-30.57-10.26-3.88-4.6-14.37-5.41-22.27-6.32-4.08-11.45-14.28-8.91-22.19-6.81-4.86-7.02-14.53-8.06-21.13-6.73-5.46-1.98-16.14-9.93-20.28-8.78-18.17-12.9-38.31-22.7-56.04 17.16 8.53 40.48 11.36 54.55-4.61z"/>
<path id="path124" fill="#e7bbc5" d="m586.43 771.25c12.7 1.97 25.33-14.64 34.17 1.06-2.45 4.59-11.01 5.03-10.72 12.92-6.97-9.21-15.41 2.47-24.33 1.41-10.9 6.23-24.53 9.63-37.29 8.69-4.4-5.15-11.52-7.23-4.41-14.41 5.24 4.97 13.72 1.19 17.24-4.1 8.69-1.28 16.14-7.33 25.34-5.57z"/>
<path id="path126" fill="#e1eae7" d="m979.4 856.29c4.6-0.08 0.58 6.23 0.69 8.97-21.88 42.6-22.09 100.21-68.05 124.91-7.03-1.79 4.84-13.34 7.92-15.25 14.76-21.4 26.49-45.93 32.18-71.2-1.84-6.14 2.13-11.23 7.68-13.23-2.61-4.19-0.11-7.02 3.68-9.05 3.7-9.24 10.01-17.23 15.9-25.15z"/>
<path id="path128" fill="#ddcac4" d="m619.04 871.8c5.87 14.15 1.56-13.7 8-14.09 0.28 2.88 0.42 5.77 0.2 8.67 5.26 2.71 1.6-7.21 6.14-4.81 1.33 3.44-0.31 6.96-1.1 10.32 3.04 3.25 6.84-6.33 10.51-1.77 2.78 7.79 7.1 17.48 15.57 12.37-5.86 10.69 5.28 15.1 10.62 22.6 0.07-8.14 9.32-3.78 14.48-4.08 1.98 7.61-6.81 4.38-10.5 8 5.53 1.39 14.49-1.43 14.13 6.87-18.6-0.3-37.43 9.5-55.6 1.7-3.84-2.58-7.12 2.27-11.1 0.46-7.48-6.64-18.75-5.21-27.82-8.4-10.1-7.21-20.79-17.56-35.04-14.96-1.49 0.14-2.96 0.33-4.44 0.42 1.42-1.99 2.46-4.23 4.18-6.01 4.86-5.33 12.64 0.52 18.1-3.71 10.85-6.02 23.27-6.43 35.36-5.87 5.96 1.5 6.25-4.22 8.31-7.71z"/>
<path id="path130" fill="#dcbfb9" d="m549.72 882.77c-5.12-0.92-3.93-5.85 0.02-7.57 0.53 2.67 2.65 5.25 4.47 1.74 0.54 3.65 1.47 7.22 2.29 10.82-3.36 9.12-13.52 0-6.78-4.99z"/>
<path id="path132" fill="#d3eece" d="m775.92 877.78c0.54-0.21 1.62-0.61 2.16-0.82-7.89 19.57-8.81 41.03-17.83 60.18-4.59 2.44-12.65 7.91-10.29 12.89 19.49 1.89 38.2-9.78 57.98-7.88-63.56 14.54-129.36 17.33-194.36 14.28 15.02-4.77 4.99-26.41 6.81-38.39 3.98 1.81 7.26-3.04 11.1-0.46 18.17 7.8 37-2 55.6-1.7 5.65 0.49 10.79-1.07 15.77-3.43 28.13-0.46 52.68-16.75 73.06-34.67z"/>
<path id="path134" fill="#464945" d="m347.6 899.46c-8.57-3.16-5.85-17.66 4.14-14.36 18.6 16.55 42.3 28.39 66.14 35 48.66 17.86 99.84 27.43 151.32 32.97 14.79 1.41 29.52 3.02 44.38 3.36 65 3.05 130.8 0.26 194.36-14.28 19.91-4.19 40.07-7.87 59.29-14.9 10.6-1.39 20.1-6.96 30.74-8.22 7.07-0.69 11.86-11.03 19.16-6.31 6.55 2.07-1.93 8.29-1.04 12.36-22.05 7.11-43.83 15.27-66.33 20.64-32.45 11.38-67.46 9.7-100.82 17.07-61.22 8.73-123.16 5.51-184.53 0.83-40.43-9.06-82.77-9.07-121.54-24.51-33.88-7.42-66.41-20.35-95.27-39.65z"/>
<path id="path136" fill="#e3eaf2" d="m557.53 894.68c14.25-2.6 24.94 7.75 35.04 14.96 9.07 3.19 20.34 1.76 27.82 8.4-1.82 11.98 8.21 33.62-6.81 38.39-14.86-0.34-29.59-1.95-44.38-3.36-7.52-3.02-15.85-2.02-23.42-4.77-3.56-3.68 0.29-8.76-0.83-13.13 8.59-1.56 3.48-12.19 7.94-17.25 5.06-6.96 2.41-15.55 4.64-23.24z"/>
</g>
</svg>
