<?xml version="1.0" encoding="UTF-8" standalone="no"?>
<!-- Created with Inkscape (http://www.inkscape.org/) -->

<svg
   id="svg2"
   xml:space="preserve"
   viewBox="0 0 37.288 18.51"
   version="1.1"
   inkscape:version="1.3 (0e150ed6c4, 2023-07-21)"
   sodipodi:docname="espagueti-par-salmon.svg"
   xmlns:inkscape="http://www.inkscape.org/namespaces/inkscape"
   xmlns:sodipodi="http://sodipodi.sourceforge.net/DTD/sodipodi-0.dtd"
   xmlns="http://www.w3.org/2000/svg"
   xmlns:svg="http://www.w3.org/2000/svg"
   xmlns:rdf="http://www.w3.org/1999/02/22-rdf-syntax-ns#"
   xmlns:cc="http://creativecommons.org/ns#"
   xmlns:dc="http://purl.org/dc/elements/1.1/"><sodipodi:namedview
   id="namedview1"
   pagecolor="#ffffff"
   bordercolor="#000000"
   borderopacity="0.25"
   inkscape:showpageshadow="2"
   inkscape:pageopacity="0.0"
   inkscape:pagecheckerboard="0"
   inkscape:deskcolor="#d1d1d1"
   inkscape:zoom="25.676428"
   inkscape:cx="13.00804"
   inkscape:cy="8.0813422"
   inkscape:window-width="1920"
   inkscape:window-height="991"
   inkscape:window-x="-9"
   inkscape:window-y="-9"
   inkscape:window-maximized="1"
   inkscape:current-layer="g12" />&#10;  <defs
   id="defs6">&#10;    <clipPath
   id="clipPath22">&#10;      <path
   id="path24"
   d="m2-0.19176h16v7h-16v-7z"
   inkscape:connector-curvature="0" />&#10;    </clipPath>&#10;    <mask
   id="mask26">&#10;      <g
   id="g28">&#10;        <g
   id="g30"
   clip-path="url(#clipPath22)">&#10;          <path
   id="path32"
   style="fill:#000000;fill-opacity:.44140"
   d="m2-0.19176h16v7h-16v-7z"
   inkscape:connector-curvature="0" />&#10;        </g>&#10;      </g>&#10;    </mask>&#10;    <clipPath
   id="clipPath38">&#10;      <path
   id="path40"
   d="m2-0.19176h16v7h-16v-7z"
   inkscape:connector-curvature="0" />&#10;    </clipPath>&#10;    <clipPath
   id="clipPath42">&#10;      <path
   id="path44"
   d="m2 0h16v7h-16v-7z"
   inkscape:connector-curvature="0" />&#10;    </clipPath>&#10;    <linearGradient
   id="linearGradient50"
   y2="-31.002"
   gradientUnits="userSpaceOnUse"
   x2="-5.8529"
   gradientTransform="matrix(.6 -.00186 .00186 .6 17.89 22.08)"
   y1="-31.002"
   x1="-21.853">&#10;      <stop
   id="stop52"
   style="stop-color:#ffffff"
   offset="0" />&#10;      <stop
   id="stop54"
   style="stop-color:#000000"
   offset="1" />&#10;    </linearGradient>&#10;    <linearGradient
   id="linearGradient90"
   y2="10.2"
   gradientUnits="userSpaceOnUse"
   x2="46.151"
   gradientTransform="matrix(.6 0 0 -.6 5.5389e-7 14.13)"
   y1="10.2"
   x1="1.1006">&#10;      <stop
   id="stop92"
   style="stop-color:#9cadb5"
   offset="0" />&#10;      <stop
   id="stop94"
   style="stop-color:#e0e0e0"
   offset="1" />&#10;    </linearGradient>&#10;    <radialGradient
   id="radialGradient110"
   gradientUnits="userSpaceOnUse"
   cy="-21.613"
   cx="2.2554"
   gradientTransform="matrix(-.06528 -.5964 .5568 -.07032 24.901 10.986)"
   r="21.012">&#10;      <stop
   id="stop112"
   style="stop-color:#f2db8a"
   offset="0.49861497" />&#10;      <stop
   id="stop114"
   style="stop-color:#877531"
   offset="1" />&#10;    </radialGradient>&#10;    <radialGradient
   id="radialGradient128"
   gradientUnits="userSpaceOnUse"
   cy="-16.343"
   cx="1.939"
   gradientTransform="matrix(-.066 -.5964 .55576 -.07104 18.81 11.725)"
   r="2.9554">&#10;      <stop
   id="stop130"
   style="stop-color:#d4c17d"
   offset="0" />&#10;      <stop
   id="stop132"
   style="stop-color:#b3a051"
   offset="1" />&#10;    </radialGradient>&#10;    <radialGradient
   id="radialGradient146"
   gradientUnits="userSpaceOnUse"
   cy="-16.098"
   cx="7.0215"
   gradientTransform="matrix(-.066 -.59632 .55768 -.07056 18.56 11.781)"
   r="3.295">&#10;      <stop
   id="stop148"
   style="stop-color:#d4c17d"
   offset="0" />&#10;      <stop
   id="stop150"
   style="stop-color:#b3a051"
   offset="1" />&#10;    </radialGradient>&#10;    <radialGradient
   id="radialGradient164"
   gradientUnits="userSpaceOnUse"
   cy="-36.492"
   cx="4.6558"
   gradientTransform="matrix(-.06496 -.59648 .55512 -.07088 41.981 8.7714)"
   r="2.5399">&#10;      <stop
   id="stop166"
   style="stop-color:#d4c17d"
   offset="0" />&#10;      <stop
   id="stop168"
   style="stop-color:#b3a051"
   offset="1" />&#10;    </radialGradient>&#10;    <radialGradient
   id="radialGradient182"
   gradientUnits="userSpaceOnUse"
   cy="-21.334"
   cx="4.3125"
   gradientTransform="matrix(-.06528 -.5964 .55656 -.07 24.574 11.039)"
   r="19.176">&#10;      <stop
   id="stop184"
   style="stop-color:#d4c17d"
   offset="0" />&#10;      <stop
   id="stop186"
   style="stop-color:#b3a051"
   offset="1" />&#10;    </radialGradient>&#10;    <radialGradient
   id="radialGradient200"
   gradientUnits="userSpaceOnUse"
   cy="-22.418"
   cx="-0.499"
   gradientTransform="matrix(-.06544 -.5964 .55688 -.07 25.831 10.883)"
   r="19.718">&#10;      <stop
   id="stop202"
   style="stop-color:#c7b577"
   offset="0" />&#10;      <stop
   id="stop204"
   style="stop-color:#bdaa57"
   offset="1" />&#10;    </radialGradient>&#10;    <radialGradient
   id="radialGradient218"
   gradientUnits="userSpaceOnUse"
   cy="-22.026"
   cx="-.85210"
   gradientTransform="matrix(-.06544 -.5964 .55688 -.07 25.38 10.94)"
   r="19.718">&#10;      <stop
   id="stop220"
   style="stop-color:#e3d49d"
   offset="0" />&#10;      <stop
   id="stop222"
   style="stop-color:#e0ca70"
   offset="1" />&#10;    </radialGradient>&#10;    <radialGradient
   id="radialGradient236"
   gradientUnits="userSpaceOnUse"
   cy="-22.192"
   cx="-.7324"
   gradientTransform="matrix(-.06536 -.5964 .55688 -.07024 25.57 10.904)"
   r="24.445">&#10;      <stop
   id="stop238"
   style="stop-color:#e6d189"
   offset="0" />&#10;      <stop
   id="stop240"
   style="stop-color:#bdaa57"
   offset="1" />&#10;    </radialGradient>&#10;    <radialGradient
   id="radialGradient254"
   gradientUnits="userSpaceOnUse"
   cy="-21.855"
   cx="-1.0425"
   gradientTransform="matrix(-.06536 -.5964 .55688 -.07024 25.182 10.953)"
   r="24.445">&#10;      <stop
   id="stop256"
   style="stop-color:#fff6d4"
   offset="0" />&#10;      <stop
   id="stop258"
   style="stop-color:#e0ca70"
   offset="1" />&#10;    </radialGradient>&#10;    <radialGradient
   id="radialGradient272"
   gradientUnits="userSpaceOnUse"
   cy="-24.477"
   cx="4.4702"
   gradientTransform="matrix(-.06552 -.5964 .5568 -.07008 28.202 10.581)"
   r="17.982">&#10;      <stop
   id="stop274"
   style="stop-color:#d6c894"
   offset="0" />&#10;      <stop
   id="stop276"
   style="stop-color:#a89642"
   offset="1" />&#10;    </radialGradient>&#10;    <radialGradient
   id="radialGradient290"
   gradientUnits="userSpaceOnUse"
   cy="-24.129"
   cx="4.061"
   gradientTransform="matrix(-.06552 -.5964 .5568 -.07008 27.802 10.631)"
   r="17.982">&#10;      <stop
   id="stop292"
   style="stop-color:#fff6d4"
   offset="0" />&#10;      <stop
   id="stop294"
   style="stop-color:#e0ca70"
   offset="1" />&#10;    </radialGradient>&#10;    <radialGradient
   id="radialGradient308"
   gradientUnits="userSpaceOnUse"
   cy="-26.365"
   cx="4.2339"
   gradientTransform="matrix(-.06552 -.5964 .5568 -.07008 30.378 10.308)"
   r="16.486">&#10;      <stop
   id="stop310"
   style="stop-color:#fff6d4"
   offset="0" />&#10;      <stop
   id="stop312"
   style="stop-color:#e0ca70"
   offset="1" />&#10;    </radialGradient>&#10;    <clipPath
   id="clipPath454">&#10;      <path
   id="path456"
   d="m3 7.8082h14v6h-14v-6z"
   inkscape:connector-curvature="0" />&#10;    </clipPath>&#10;    <mask
   id="mask458">&#10;      <g
   id="g460">&#10;        <g
   id="g462"
   clip-path="url(#clipPath454)">&#10;          <path
   id="path464"
   style="fill:#000000;fill-opacity:.62110"
   d="m3 7.8082h14v6h-14v-6z"
   inkscape:connector-curvature="0" />&#10;        </g>&#10;      </g>&#10;    </mask>&#10;    <clipPath
   id="clipPath470">&#10;      <path
   id="path472"
   d="m3 7.8082h14v6h-14v-6z"
   inkscape:connector-curvature="0" />&#10;    </clipPath>&#10;    <clipPath
   id="clipPath474">&#10;      <path
   id="path476"
   d="m3 8h14v6h-14v-6z"
   inkscape:connector-curvature="0" />&#10;    </clipPath>&#10;    <clipPath
   id="clipPath542">&#10;      <path
   id="path544"
   d="m12 13.808h4v1h-4v-1z"
   inkscape:connector-curvature="0" />&#10;    </clipPath>&#10;    <mask
   id="mask546">&#10;      <g
   id="g548">&#10;        <g
   id="g550"
   clip-path="url(#clipPath542)">&#10;          <path
   id="path552"
   style="fill:#000000;fill-opacity:.42190"
   d="m12 13.808h4v1h-4v-1z"
   inkscape:connector-curvature="0" />&#10;        </g>&#10;      </g>&#10;    </mask>&#10;    <clipPath
   id="clipPath558">&#10;      <path
   id="path560"
   d="m12 13.808h4v1h-4v-1z"
   inkscape:connector-curvature="0" />&#10;    </clipPath>&#10;    <clipPath
   id="clipPath562">&#10;      <path
   id="path564"
   d="m12 14h4v1h-4v-1z"
   inkscape:connector-curvature="0" />&#10;    </clipPath>&#10;    <clipPath
   id="clipPath586">&#10;      <path
   id="path588"
   d="m13 12.808h3v1h-3v-1z"
   inkscape:connector-curvature="0" />&#10;    </clipPath>&#10;    <mask
   id="mask590">&#10;      <g
   id="g592">&#10;        <g
   id="g594"
   clip-path="url(#clipPath586)">&#10;          <path
   id="path596"
   style="fill:#000000;fill-opacity:.42190"
   d="m13 12.808h3v1h-3v-1z"
   inkscape:connector-curvature="0" />&#10;        </g>&#10;      </g>&#10;    </mask>&#10;    <clipPath
   id="clipPath602">&#10;      <path
   id="path604"
   d="m13 12.808h3v1h-3v-1z"
   inkscape:connector-curvature="0" />&#10;    </clipPath>&#10;    <clipPath
   id="clipPath606">&#10;      <path
   id="path608"
   d="m13 13h3v1h-3v-1z"
   inkscape:connector-curvature="0" />&#10;    </clipPath>&#10;    <clipPath
   id="clipPath630">&#10;      <path
   id="path632"
   d="m15 12.808h2v1h-2v-1z"
   inkscape:connector-curvature="0" />&#10;    </clipPath>&#10;    <mask
   id="mask634">&#10;      <g
   id="g636">&#10;        <g
   id="g638"
   clip-path="url(#clipPath630)">&#10;          <path
   id="path640"
   style="fill:#000000;fill-opacity:.42190"
   d="m15 12.808h2v1h-2v-1z"
   inkscape:connector-curvature="0" />&#10;        </g>&#10;      </g>&#10;    </mask>&#10;    <clipPath
   id="clipPath646">&#10;      <path
   id="path648"
   d="m15 12.808h2v1h-2v-1z"
   inkscape:connector-curvature="0" />&#10;    </clipPath>&#10;    <clipPath
   id="clipPath650">&#10;      <path
   id="path652"
   d="m15 13h2v1h-2v-1z"
   inkscape:connector-curvature="0" />&#10;    </clipPath>&#10;    <clipPath
   id="clipPath674">&#10;      <path
   id="path676"
   d="m15 11.808h3v2h-3v-2z"
   inkscape:connector-curvature="0" />&#10;    </clipPath>&#10;    <mask
   id="mask678">&#10;      <g
   id="g680">&#10;        <g
   id="g682"
   clip-path="url(#clipPath674)">&#10;          <path
   id="path684"
   style="fill:#000000;fill-opacity:.42190"
   d="m15 11.808h3v2h-3v-2z"
   inkscape:connector-curvature="0" />&#10;        </g>&#10;      </g>&#10;    </mask>&#10;    <clipPath
   id="clipPath690">&#10;      <path
   id="path692"
   d="m15 11.808h3v2h-3v-2z"
   inkscape:connector-curvature="0" />&#10;    </clipPath>&#10;    <clipPath
   id="clipPath694">&#10;      <path
   id="path696"
   d="m15 12h3v2h-3v-2z"
   inkscape:connector-curvature="0" />&#10;    </clipPath>&#10;    <clipPath
   id="clipPath718">&#10;      <path
   id="path720"
   d="m16 12.808h3v1h-3v-1z"
   inkscape:connector-curvature="0" />&#10;    </clipPath>&#10;    <mask
   id="mask722">&#10;      <g
   id="g724">&#10;        <g
   id="g726"
   clip-path="url(#clipPath718)">&#10;          <path
   id="path728"
   style="fill:#000000;fill-opacity:.42190"
   d="m16 12.808h3v1h-3v-1z"
   inkscape:connector-curvature="0" />&#10;        </g>&#10;      </g>&#10;    </mask>&#10;    <clipPath
   id="clipPath734">&#10;      <path
   id="path736"
   d="m16 12.808h3v1h-3v-1z"
   inkscape:connector-curvature="0" />&#10;    </clipPath>&#10;    <clipPath
   id="clipPath738">&#10;      <path
   id="path740"
   d="m16 13h3v1h-3v-1z"
   inkscape:connector-curvature="0" />&#10;    </clipPath>&#10;    <clipPath
   id="clipPath762">&#10;      <path
   id="path764"
   d="m15 13.808h3v1h-3v-1z"
   inkscape:connector-curvature="0" />&#10;    </clipPath>&#10;    <mask
   id="mask766">&#10;      <g
   id="g768">&#10;        <g
   id="g770"
   clip-path="url(#clipPath762)">&#10;          <path
   id="path772"
   style="fill:#000000;fill-opacity:.42190"
   d="m15 13.808h3v1h-3v-1z"
   inkscape:connector-curvature="0" />&#10;        </g>&#10;      </g>&#10;    </mask>&#10;    <clipPath
   id="clipPath778">&#10;      <path
   id="path780"
   d="m15 13.808h3v1h-3v-1z"
   inkscape:connector-curvature="0" />&#10;    </clipPath>&#10;    <clipPath
   id="clipPath782">&#10;      <path
   id="path784"
   d="m15 14h3v1h-3v-1z"
   inkscape:connector-curvature="0" />&#10;    </clipPath>&#10;    <clipPath
   id="clipPath806">&#10;      <path
   id="path808"
   d="m14 13.808h2v1h-2v-1z"
   inkscape:connector-curvature="0" />&#10;    </clipPath>&#10;    <mask
   id="mask810">&#10;      <g
   id="g812">&#10;        <g
   id="g814"
   clip-path="url(#clipPath806)">&#10;          <path
   id="path816"
   style="fill:#000000;fill-opacity:.42190"
   d="m14 13.808h2v1h-2v-1z"
   inkscape:connector-curvature="0" />&#10;        </g>&#10;      </g>&#10;    </mask>&#10;    <clipPath
   id="clipPath822">&#10;      <path
   id="path824"
   d="m14 13.808h2v1h-2v-1z"
   inkscape:connector-curvature="0" />&#10;    </clipPath>&#10;    <clipPath
   id="clipPath826">&#10;      <path
   id="path828"
   d="m14 14h2v1h-2v-1z"
   inkscape:connector-curvature="0" />&#10;    </clipPath>&#10;    <clipPath
   id="clipPath850">&#10;      <path
   id="path852"
   d="m12 13.808h4v1h-4v-1z"
   inkscape:connector-curvature="0" />&#10;    </clipPath>&#10;    <mask
   id="mask854">&#10;      <g
   id="g856">&#10;        <g
   id="g858"
   clip-path="url(#clipPath850)">&#10;          <path
   id="path860"
   style="fill:#000000;fill-opacity:.42190"
   d="m12 13.808h4v1h-4v-1z"
   inkscape:connector-curvature="0" />&#10;        </g>&#10;      </g>&#10;    </mask>&#10;    <clipPath
   id="clipPath866">&#10;      <path
   id="path868"
   d="m12 13.808h4v1h-4v-1z"
   inkscape:connector-curvature="0" />&#10;    </clipPath>&#10;    <clipPath
   id="clipPath870">&#10;      <path
   id="path872"
   d="m12 14h4v1h-4v-1z"
   inkscape:connector-curvature="0" />&#10;    </clipPath>&#10;    <clipPath
   id="clipPath906">&#10;      <path
   id="path908"
   d="m5 10.808h5v2h-5v-2z"
   inkscape:connector-curvature="0" />&#10;    </clipPath>&#10;    <mask
   id="mask910">&#10;      <g
   id="g912">&#10;        <g
   id="g914"
   clip-path="url(#clipPath906)">&#10;          <path
   id="path916"
   style="fill:#000000;fill-opacity:.42190"
   d="m5 10.808h5v2h-5v-2z"
   inkscape:connector-curvature="0" />&#10;        </g>&#10;      </g>&#10;    </mask>&#10;    <clipPath
   id="clipPath922">&#10;      <path
   id="path924"
   d="m5 10.808h5v2h-5v-2z"
   inkscape:connector-curvature="0" />&#10;    </clipPath>&#10;    <clipPath
   id="clipPath926">&#10;      <path
   id="path928"
   d="m5 11h5v2h-5v-2z"
   inkscape:connector-curvature="0" />&#10;    </clipPath>&#10;    <clipPath
   id="clipPath950">&#10;      <path
   id="path952"
   d="m6 10.808h4v2h-4v-2z"
   inkscape:connector-curvature="0" />&#10;    </clipPath>&#10;    <mask
   id="mask954">&#10;      <g
   id="g956">&#10;        <g
   id="g958"
   clip-path="url(#clipPath950)">&#10;          <path
   id="path960"
   style="fill:#000000;fill-opacity:.42190"
   d="m6 10.808h4v2h-4v-2z"
   inkscape:connector-curvature="0" />&#10;        </g>&#10;      </g>&#10;    </mask>&#10;    <clipPath
   id="clipPath966">&#10;      <path
   id="path968"
   d="m6 10.808h4v2h-4v-2z"
   inkscape:connector-curvature="0" />&#10;    </clipPath>&#10;    <clipPath
   id="clipPath970">&#10;      <path
   id="path972"
   d="m6 11h4v2h-4v-2z"
   inkscape:connector-curvature="0" />&#10;    </clipPath>&#10;    <clipPath
   id="clipPath994">&#10;      <path
   id="path996"
   d="m9 9.8082h2v3h-2v-3z"
   inkscape:connector-curvature="0" />&#10;    </clipPath>&#10;    <mask
   id="mask998">&#10;      <g
   id="g1000">&#10;        <g
   id="g1002"
   clip-path="url(#clipPath994)">&#10;          <path
   id="path1004"
   style="fill:#000000;fill-opacity:.42190"
   d="m9 9.8082h2v3h-2v-3z"
   inkscape:connector-curvature="0" />&#10;        </g>&#10;      </g>&#10;    </mask>&#10;    <clipPath
   id="clipPath1010">&#10;      <path
   id="path1012"
   d="m9 9.8082h2v3h-2v-3z"
   inkscape:connector-curvature="0" />&#10;    </clipPath>&#10;    <clipPath
   id="clipPath1014">&#10;      <path
   id="path1016"
   d="m9 10h2v3h-2v-3z"
   inkscape:connector-curvature="0" />&#10;    </clipPath>&#10;    <clipPath
   id="clipPath1038">&#10;      <path
   id="path1040"
   d="m9 9.8082h4v3h-4v-3z"
   inkscape:connector-curvature="0" />&#10;    </clipPath>&#10;    <mask
   id="mask1042">&#10;      <g
   id="g1044">&#10;        <g
   id="g1046"
   clip-path="url(#clipPath1038)">&#10;          <path
   id="path1048"
   style="fill:#000000;fill-opacity:.42190"
   d="m9 9.8082h4v3h-4v-3z"
   inkscape:connector-curvature="0" />&#10;        </g>&#10;      </g>&#10;    </mask>&#10;    <clipPath
   id="clipPath1054">&#10;      <path
   id="path1056"
   d="m9 9.8082h4v3h-4v-3z"
   inkscape:connector-curvature="0" />&#10;    </clipPath>&#10;    <clipPath
   id="clipPath1058">&#10;      <path
   id="path1060"
   d="m9 10h4v3h-4v-3z"
   inkscape:connector-curvature="0" />&#10;    </clipPath>&#10;    <clipPath
   id="clipPath1082">&#10;      <path
   id="path1084"
   d="m10 10.808h3v2h-3v-2z"
   inkscape:connector-curvature="0" />&#10;    </clipPath>&#10;    <mask
   id="mask1086">&#10;      <g
   id="g1088">&#10;        <g
   id="g1090"
   clip-path="url(#clipPath1082)">&#10;          <path
   id="path1092"
   style="fill:#000000;fill-opacity:.42190"
   d="m10 10.808h3v2h-3v-2z"
   inkscape:connector-curvature="0" />&#10;        </g>&#10;      </g>&#10;    </mask>&#10;    <clipPath
   id="clipPath1098">&#10;      <path
   id="path1100"
   d="m10 10.808h3v2h-3v-2z"
   inkscape:connector-curvature="0" />&#10;    </clipPath>&#10;    <clipPath
   id="clipPath1102">&#10;      <path
   id="path1104"
   d="m10 11h3v2h-3v-2z"
   inkscape:connector-curvature="0" />&#10;    </clipPath>&#10;    <clipPath
   id="clipPath1126">&#10;      <path
   id="path1128"
   d="m9 11.808h3v2h-3v-2z"
   inkscape:connector-curvature="0" />&#10;    </clipPath>&#10;    <mask
   id="mask1130">&#10;      <g
   id="g1132">&#10;        <g
   id="g1134"
   clip-path="url(#clipPath1126)">&#10;          <path
   id="path1136"
   style="fill:#000000;fill-opacity:.42190"
   d="m9 11.808h3v2h-3v-2z"
   inkscape:connector-curvature="0" />&#10;        </g>&#10;      </g>&#10;    </mask>&#10;    <clipPath
   id="clipPath1142">&#10;      <path
   id="path1144"
   d="m9 11.808h3v2h-3v-2z"
   inkscape:connector-curvature="0" />&#10;    </clipPath>&#10;    <clipPath
   id="clipPath1146">&#10;      <path
   id="path1148"
   d="m9 12h3v2h-3v-2z"
   inkscape:connector-curvature="0" />&#10;    </clipPath>&#10;    <clipPath
   id="clipPath1170">&#10;      <path
   id="path1172"
   d="m8 11.808h2v2h-2v-2z"
   inkscape:connector-curvature="0" />&#10;    </clipPath>&#10;    <mask
   id="mask1174">&#10;      <g
   id="g1176">&#10;        <g
   id="g1178"
   clip-path="url(#clipPath1170)">&#10;          <path
   id="path1180"
   style="fill:#000000;fill-opacity:.42190"
   d="m8 11.808h2v2h-2v-2z"
   inkscape:connector-curvature="0" />&#10;        </g>&#10;      </g>&#10;    </mask>&#10;    <clipPath
   id="clipPath1186">&#10;      <path
   id="path1188"
   d="m8 11.808h2v2h-2v-2z"
   inkscape:connector-curvature="0" />&#10;    </clipPath>&#10;    <clipPath
   id="clipPath1190">&#10;      <path
   id="path1192"
   d="m8 12h2v2h-2v-2z"
   inkscape:connector-curvature="0" />&#10;    </clipPath>&#10;    <clipPath
   id="clipPath1214">&#10;      <path
   id="path1216"
   d="m6 11.808h4v1h-4v-1z"
   inkscape:connector-curvature="0" />&#10;    </clipPath>&#10;    <mask
   id="mask1218">&#10;      <g
   id="g1220">&#10;        <g
   id="g1222"
   clip-path="url(#clipPath1214)">&#10;          <path
   id="path1224"
   style="fill:#000000;fill-opacity:.42190"
   d="m6 11.808h4v1h-4v-1z"
   inkscape:connector-curvature="0" />&#10;        </g>&#10;      </g>&#10;    </mask>&#10;    <clipPath
   id="clipPath1230">&#10;      <path
   id="path1232"
   d="m6 11.808h4v1h-4v-1z"
   inkscape:connector-curvature="0" />&#10;    </clipPath>&#10;    <clipPath
   id="clipPath1234">&#10;      <path
   id="path1236"
   d="m6 12h4v1h-4v-1z"
   inkscape:connector-curvature="0" />&#10;    </clipPath>&#10;  </defs>&#10;  <g
   id="g10"
   transform="matrix(1.25 0 0 -1.25 0 18.51)">&#10;    <g
   id="g12">&#10;      <path
   id="path14"
   style="display:inline;fill:#d7eaf2;fill-rule:evenodd;fill-opacity:1"
   d="m 27.93,7.351 0.121,0.028 C 27.27,5.242 25.59,3.48 23.008,2.101 20.391,0.699 17.398,0 14.039,0 10.66,0 7.648,0.711 5.008,2.129 2.41,3.531 0.738,5.308 0,7.468 L 0.238,7.441 C 1.02,6.922 2.691,6.488 5.25,6.152 7.852,5.808 10.809,5.64 14.129,5.64 c 3.262,0 6.172,0.16 8.73,0.481 2.52,0.32 4.211,0.73 5.071,1.23 z"
   inkscape:connector-curvature="0" />&#10;      <path
   id="path16"
   style="fill-rule:evenodd;fill:#bdd4de"
   d="m26.82 6.902c-0.179-0.484-0.472-0.984-0.871-1.5-0.758-1.023-1.941-2.051-3.539-3.094-1.262-0.816-2.812-1.476-4.652-1.976-0.86-0.121-1.34-0.184-1.438-0.184 2.418 0.742 4.16 1.82 5.219 3.242 0.461 0.621 0.75 1.199 0.867 1.739 0.063 0.5 0.102 0.832 0.121 0.992 1.864 0.199 3.293 0.461 4.293 0.781z"
   inkscape:connector-curvature="0" />&#10;      &#10;      <path
   id="path78"
   style="display:inline;fill:#bdd4de;fill-rule:evenodd"
   d="M 2.281,4.652 C 3.547,3.152 5.148,2.007 7.078,1.214 5.43,1.824 4.012,2.621 2.82,3.601 1.441,4.742 0.5,6.031 0,7.468 L 0.238,7.441 C 0.379,7.339 0.531,7.261 0.691,7.199 1.031,6.359 1.559,5.511 2.281,4.652 Z"
   inkscape:connector-curvature="0" />&#10;      <g
   id="g80"
   style="display:inline">&#10;        <g
   id="g82">&#10;          <g
   id="g88">&#10;            <path
   id="path96"
   style="display:inline;fill:#bdd4de;fill-rule:evenodd;fill-opacity:1"
   d="m 23.73,11.609 c 2.641,-1 3.961,-2.199 3.961,-3.598 0,-1.402 -1.32,-2.589 -3.961,-3.57 -2.64,-1 -5.82,-1.5 -9.539,-1.5 -3.742,0 -6.929,0.5 -9.57,1.5 C 1.98,5.422 0.66,6.609 0.66,8.011 c 0,1.399 1.32,2.598 3.961,3.598 2.641,0.98 5.828,1.473 9.57,1.473 3.719,0 6.899,-0.493 9.539,-1.473 z"
   inkscape:connector-curvature="0" />&#10;          </g>&#10;        </g>&#10;      </g>&#10;      <path
   id="path98"
   style="display:inline;fill:#ffffff;fill-rule:evenodd"
   d="m 28.02,8.371 h -0.872 c -0.179,1.238 -1.527,2.289 -4.05,3.148 -2.496,0.86 -5.496,1.289 -8.996,1.289 -3.481,0 -6.473,-0.429 -8.973,-1.289 C 2.609,10.66 1.262,9.609 1.078,8.371 H 0.059 c 0.32,1.359 1.812,2.5 4.472,3.418 2.699,0.922 5.867,1.383 9.508,1.383 3.66,0 6.832,-0.461 9.512,-1.383 2.679,-0.918 4.168,-2.059 4.469,-3.418 z"
   inkscape:connector-curvature="0" />&#10;      <g
   id="g100"
   style="display:inline;fill:#e3bd26;fill-opacity:1">&#10;        <g
   id="g102"
   style="fill:#e3bd26;fill-opacity:1">&#10;          <g
   id="g108"
   style="fill:#e3cd22;fill-opacity:1">&#10;            <path
   id="path116"
   style="fill:#e3cd22;fill-rule:evenodd;fill-opacity:1"
   d="M 26.969,6.3 C 26.07,5.781 24.77,5.211 23.07,4.589 20.609,3.691 18.5,3.23 16.742,3.211 14.82,3.191 12.723,3.281 10.441,3.48 8.359,3.679 6.77,3.91 5.672,4.168 4.77,4.39 3.891,4.73 3.031,5.187 2.27,5.589 1.879,5.871 1.859,6.031 1.84,6.109 1.961,6.257 2.219,6.48 2.52,6.738 2.68,6.898 2.699,6.961 3.02,7.859 4.289,8.629 6.512,9.269 7.09,9.429 7.68,9.91 8.281,10.711 c 0.559,0.757 1.028,1.148 1.41,1.168 1.879,0.14 3.418,0.121 4.618,-0.059 0.421,-0.059 1.07,-0.27 1.953,-0.629 0.718,-0.301 1.328,-0.441 1.828,-0.422 0.461,0.02 1.5,0.102 3.121,0.242 1.461,0.078 2.359,-0.039 2.699,-0.359 0.5,-0.48 1.031,-1.09 1.59,-1.832 C 26.16,7.98 26.48,7.41 26.461,7.109 26.441,6.89 26.629,6.742 27.031,6.66 27.289,6.601 27.27,6.48 26.969,6.3 Z"
   inkscape:connector-curvature="0" />&#10;          </g>&#10;        </g>&#10;      </g>&#10;      <g
   id="g118"
   style="display:inline">&#10;        <g
   id="g120">&#10;          <g
   id="g126">&#10;            <path
   id="path134"
   style="fill:#e2cd85;fill-rule:evenodd;fill-opacity:1"
   d="m 9.691,11.879 c 0.579,0.101 0.668,-0.04 0.27,-0.418 -0.5,-0.5 -0.68,-0.809 -0.539,-0.93 0.156,-0.16 0.5,-0.141 1.016,0.058 0.484,0.2 0.742,0.25 0.781,0.153 0.082,-0.223 -0.071,-0.41 -0.449,-0.57 -0.422,-0.18 -0.981,-0.211 -1.68,-0.09 -0.699,0.14 -0.902,0.461 -0.602,0.961 0.301,0.457 0.703,0.738 1.203,0.836 z"
   inkscape:connector-curvature="0" />&#10;          </g>&#10;        </g>&#10;      </g>&#10;      <g
   id="g136">&#10;        <g
   id="g138">&#10;          <g
   id="g144">&#10;            <path
   id="path152"
   style="fill-rule:evenodd;fill:#e2cd85;fill-opacity:1"
   d="m10.352 8.941c0.3 0.039 0.449-0.09 0.449-0.391 0-0.16-0.039-0.429-0.121-0.808-0.039-0.281-0.149-0.524-0.328-0.723-0.2-0.219-0.422-0.316-0.661-0.301-0.218 0.043-0.589 0.043-1.109 0l-0.719-0.058c0.059 0.121 0.168 0.242 0.328 0.359 0.301 0.262 0.68 0.403 1.141 0.422 0.398 0.039 0.59 0.289 0.57 0.75-0.004 0.481 0.149 0.727 0.45 0.75z"
   inkscape:connector-curvature="0" />&#10;          </g>&#10;        </g>&#10;      </g>&#10;      <g
   id="g154">&#10;        <g
   id="g156">&#10;          <g
   id="g162">&#10;            <path
   id="path170"
   style="fill-rule:evenodd;fill:#e2cd85;fill-opacity:1"
   d="m22.289 8.672c0.719-0.184 0.879-0.512 0.481-0.993-0.399-0.461-1.008-0.578-1.829-0.359-0.781 0.199-0.91 0.512-0.39 0.93 0.5 0.441 1.078 0.582 1.738 0.422z"
   inkscape:connector-curvature="0" />&#10;          </g>&#10;        </g>&#10;      </g>&#10;      <g
   id="g172">&#10;        <g
   id="g174">&#10;          <g
   id="g180">&#10;            <path
   id="path188"
   style="fill-rule:evenodd;fill:#e2c974;fill-opacity:1"
   d="m25.23 7.23c-0.382 0.199-0.882 0.488-1.5 0.871-0.699 0.438-1.16 0.719-1.382 0.84-0.657 0.398-1.618 0.551-2.879 0.449-0.641-0.101-1.16-0.172-1.559-0.211-0.719-0.078-1.262-0.039-1.621 0.121-0.16 0.059-0.359 0.239-0.598 0.539-0.16 0.18-0.55 0.262-1.171 0.243-0.54-0.02-1.27-0.16-2.192-0.422-0.918-0.258-1.578-0.399-1.98-0.418-0.778-0.063-1.309-0.133-1.586-0.211-0.485-0.121-0.84-0.359-1.082-0.719-0.379-0.543-0.672-0.91-0.871-1.109-0.34-0.344-0.719-0.543-1.141-0.602-0.5-0.082-0.969-0.211-1.41-0.39-0.5-0.18-0.758-0.34-0.781-0.481-0.055-0.156-0.055-0.308 0-0.465-0.477 0.188-0.789 0.344-0.93 0.465-0.5 0.422-0.418 0.762 0.242 1.02 0.52 0.218 1.191 0.332 2.012 0.332 0.558 0 1.008 0.117 1.347 0.359 0.161 0.117 0.403 0.379 0.723 0.777 0.16 0.204 0.387 0.512 0.688 0.934 0.339 0.316 0.871 0.469 1.589 0.449 0.661-0.039 1.301 0.059 1.922 0.301 0.317 0.141 0.739 0.316 1.258 0.539 0.461 0.121 0.809 0.18 1.051 0.18 0.34 0 0.859-0.078 1.559-0.239 0.281-0.062 0.64-0.261 1.082-0.601 0.238-0.199 0.878-0.262 1.918-0.18 0.902 0.059 1.871 0.149 2.91 0.27 0.683-0.02 1.293-0.258 1.832-0.719 0.379-0.32 1.109-0.742 2.187-1.262 0.801-0.379 1.18-0.668 1.141-0.871-0.039-0.437-0.117-0.847-0.238-1.226-0.161-0.5-0.313-0.653-0.45-0.454-0.062 0.102 0.008 0.411 0.207 0.93 0.184 0.442 0.082 0.762-0.297 0.961zm-6.871 0c-0.738 0.301-1.25 0.488-1.531 0.57-0.48 0.161-0.859 0.161-1.137 0-0.121-0.058-0.55-0.218-1.293-0.48-0.558-0.199-0.929-0.402-1.109-0.602-0.379-0.457-0.68-0.82-0.898-1.078-0.442-0.519-0.789-0.82-1.051-0.902-0.399-0.117-0.891-0.188-1.469-0.207-0.66-0.02-1.082 0.07-1.262 0.269-0.238 0.258-0.41 0.418-0.507 0.481-0.204 0.098-0.524 0.168-0.961 0.207-0.481 0.043-0.961-0.047-1.442-0.27-0.441-0.211-0.605-0.394-0.496-0.554-0.371 0.117-0.707 0.23-1.004 0.332 0.047 0.031 0.098 0.066 0.153 0.105 0.48 0.34 1.078 0.641 1.8 0.899 0.778 0.3 1.348 0.402 1.707 0.3 0.18-0.039 0.461-0.32 0.84-0.839 0.301-0.403 0.692-0.551 1.172-0.454 0.66 0.161 1.109 0.313 1.352 0.454 0.257 0.16 0.5 0.457 0.718 0.898 0.598 1.102 1.352 1.652 2.25 1.652 0.262 0 0.579 0.137 0.961 0.418 0.301 0.219 0.7 0.25 1.2 0.09 0.878-0.281 1.808-0.519 2.789-0.719 0.382-0.101 0.91-0.109 1.589-0.031 0.54 0.063 0.969-0.019 1.29-0.238 0.402-0.301 0.621-0.52 0.66-0.66 0-0.039-0.051-0.289-0.149-0.75-0.062-0.262 0.047-0.672 0.328-1.231 0.2-0.422 0.192-0.64-0.031-0.66-0.219-0.019-0.41-0.082-0.57-0.18-0.039-0.019-0.078 0.02-0.117 0.118-0.039 0.183-0.071 0.492-0.09 0.933-0.039 0.516-0.031 0.918 0.027 1.199 0.16 0.68-0.219 1.02-1.137 1.02-0.121 0-0.519-0.07-1.199-0.211-0.441-0.078-0.902-0.039-1.383 0.121zm-5.757-3.422c-0.661-0.058-1.063-0.109-1.204-0.148-0.238-0.082-0.398-0.129-0.476-0.153-0.121-0.039-0.402-0.058-0.844-0.058-0.234 0-0.605 0.055-1.109 0.164 0.265 0.059 0.758 0.191 1.469 0.406 0.722 0.242 1.273 0.36 1.652 0.36h1.168c0.34 0.062 0.64 0.25 0.902 0.57 0.32 0.383 0.84 0.672 1.559 0.871 0.781 0.199 1.351 0.16 1.711-0.121 0.34-0.258 0.781-0.481 1.32-0.66 0.398-0.117 0.738-0.188 1.02-0.207 0.218-0.02 0.488-0.071 0.808-0.153 0.34-0.078 0.551-0.16 0.629-0.238 0.121-0.082 0.133-0.254 0.031-0.512-0.117-0.242-0.297-0.328-0.539-0.269-0.199 0.058-0.558 0.219-1.078 0.48-0.641 0.34-1.09 0.559-1.351 0.66-0.602 0.258-1.02 0.418-1.262 0.481-0.481 0.117-0.899 0.098-1.258-0.063-0.281-0.117-0.613-0.316-0.992-0.597-0.379-0.262-0.668-0.442-0.867-0.543-0.262-0.098-0.692-0.188-1.289-0.27zm-9.122 1.457c0.208-0.086 0.446-0.176 0.719-0.269-0.301-0.176-0.508-0.149-0.629 0.074-0.043 0.066-0.07 0.129-0.09 0.195zm1.723-0.601c0.293-0.086 0.609-0.184 0.949-0.285 1.188-0.356 2.125-0.614 2.817-0.762-0.031-0.008-0.063-0.012-0.09-0.016-0.418-0.062-1.117 0.059-2.098 0.36-0.902 0.3-1.422 0.527-1.558 0.687l-0.02 0.016z"
   inkscape:connector-curvature="0" />&#10;          </g>&#10;        </g>&#10;      </g>&#10;      <g
   id="g190">&#10;        <g
   id="g192">&#10;          <g
   id="g198">&#10;            <path
   id="path206"
   style="fill-rule:evenodd;fill:#a89656;fill-opacity:1"
   d="m25.352 9.3c-0.321 0.442-0.774 0.711-1.352 0.809-1.301 0.262-2.52 0.422-3.66 0.48-0.539 0.043-1.16 0.301-1.86 0.782-0.757 0.5-1.32 0.781-1.679 0.84-0.742 0.242-1.293 0.39-1.653 0.449-0.64 0.14-1.308-0.008-2.007-0.449-0.981-0.68-1.672-1.149-2.071-1.411-0.64-0.418-1.191-0.648-1.652-0.691-0.141-0.02-0.797 0.043-1.98 0.184-0.821 0.078-1.411-0.012-1.77-0.274-0.719-0.617-1.238-1.058-1.559-1.316-0.539-0.481-0.761-0.551-0.66-0.211 0.5 1.597 1.36 2.398 2.578 2.398h1.141c1.781-0.199 2.973-0.039 3.57 0.481 0.723 0.601 1.461 1.101 2.223 1.5 1.137 0.621 2.059 0.851 2.758 0.691 0.48-0.121 1.179-0.519 2.101-1.199 0.879-0.641 1.688-1.012 2.43-1.113 1.66-0.219 2.539-0.34 2.641-0.36 0.816-0.14 1.457-0.328 1.918-0.57 0.558-0.316 1.011-0.68 1.351-1.078 0.379-0.422 0.547-0.801 0.508-1.141-0.039-0.359-0.391-0.738-1.047-1.14-0.683-0.418-1.433-0.672-2.254-0.75-0.597-0.059-1.25-0.352-1.949-0.872-0.66-0.5-1.129-0.75-1.41-0.75h-0.988c-0.122 0.02-0.18 0.071-0.18 0.153 0 0.137 0.297 0.328 0.898 0.566 0.481 0.184 1.551 0.571 3.211 1.172 1.481 0.559 2.328 1.039 2.551 1.442 0.262 0.457 0.211 0.917-0.148 1.378z"
   inkscape:connector-curvature="0" />&#10;          </g>&#10;        </g>&#10;      </g>&#10;      <g
   id="g208">&#10;        <g
   id="g210">&#10;          <g
   id="g216">&#10;            <path
   id="path224"
   style="fill-rule:evenodd;fill:#e9d275;fill-opacity:1"
   d="m25.141 9.539c-0.34 0.441-0.789 0.711-1.352 0.812-1.301 0.258-2.519 0.418-3.66 0.481-0.539 0.039-1.16 0.3-1.859 0.777-0.758 0.5-1.329 0.781-1.711 0.844-0.739 0.238-1.289 0.386-1.649 0.449-0.621 0.141-1.281-0.012-1.98-0.449-1-0.684-1.692-1.153-2.071-1.41-0.64-0.422-1.199-0.653-1.679-0.692-0.141-0.019-0.789 0.039-1.953 0.18-0.84 0.082-1.43-0.012-1.77-0.27-0.719-0.621-1.238-1.058-1.559-1.32-0.539-0.48-0.757-0.551-0.66-0.211 0.5 1.602 1.364 2.399 2.582 2.399h1.141c1.777-0.2 2.969-0.051 3.57 0.453 0.637 0.578 1.379 1.09 2.219 1.527 1.141 0.621 2.059 0.852 2.758 0.691 0.461-0.121 1.16-0.519 2.101-1.199 0.879-0.64 1.692-1.012 2.43-1.113 1.699-0.219 2.582-0.34 2.641-0.359 0.8-0.141 1.429-0.329 1.89-0.571 0.559-0.316 1.02-0.679 1.379-1.078 0.383-0.422 0.551-0.801 0.512-1.141-0.039-0.359-0.391-0.738-1.051-1.14-0.699-0.418-1.449-0.668-2.25-0.75-0.621-0.059-1.269-0.352-1.953-0.871-0.66-0.5-1.137-0.75-1.437-0.75h-0.961l0.66 0.539c0.558 0.422 1.14 0.75 1.738 0.992 0.484 0.18 1.27 0.43 2.371 0.75 0.922 0.301 1.492 0.648 1.711 1.051 0.262 0.461 0.211 0.922-0.148 1.379z"
   inkscape:connector-curvature="0" />&#10;          </g>&#10;        </g>&#10;      </g>&#10;      <g
   id="g226">&#10;        <g
   id="g228">&#10;          <g
   id="g234">&#10;            <path
   id="path242"
   style="fill-rule:evenodd;fill:#a5954a;fill-opacity:1"
   d="m25.199 9.031c-0.66 0-1.328 0.269-2.008 0.808-0.363 0.321-0.851 0.84-1.472 1.563-0.36 0.437-0.981 0.629-1.86 0.566-0.781-0.039-1.461-0.226-2.039-0.566-0.761-0.441-1.332-0.844-1.711-1.203-0.519-0.52-0.371-0.75 0.45-0.688 0.183 0 0.871 0.161 2.07 0.481 0.582 0.16 1.141 0 1.68-0.481 0.441-0.422 0.933-0.922 1.472-1.5 0.442-0.359 0.989-0.5 1.649-0.422 0.82 0.102 1.511-0.097 2.07-0.597 0.582-0.52 0.453-0.961-0.391-1.32-0.738-0.321-1.199-0.442-1.379-0.36l-0.031 0.176 0.75 0.453c0.383 0.34 0.332 0.598-0.148 0.777-0.321 0.141-0.84 0.231-1.559 0.274-0.562 0.019-0.992 0.16-1.293 0.418-0.5 0.539-0.879 0.941-1.14 1.199-0.457 0.48-0.911 0.742-1.348 0.781-0.359 0.039-0.852-0.011-1.469-0.148-0.742-0.141-1.371-0.211-1.89-0.211-0.301 0-0.891-0.09-1.774-0.27-0.418-0.101-0.719 0.02-0.898 0.36-0.059 0.117-0.301 0.687-0.719 1.711-0.32 0.777-0.59 1.257-0.813 1.437-0.418 0.379-0.898 0.61-1.437 0.692-0.723 0.097-1.16-0.262-1.32-1.082-0.141-0.801 0.109-1.508 0.75-2.129 0.359-0.36 0.918-0.832 1.679-1.411 1.039-1.101 1.391-1.832 1.051-2.191-0.398-0.398-0.648-0.629-0.75-0.687-0.461-0.219-1.07-0.211-1.832 0.027-0.738 0.242-1.559 0.621-2.457 1.141-0.883 0.543-1.449 0.89-1.711 1.05-0.398 0.243-0.969 0.332-1.711 0.27-0.719-0.078-1.129-0.258-1.23-0.539-0.078-0.281 0.082-0.539 0.48-0.781 0.36-0.219 0.852-0.387 1.469-0.508 0.402-0.082 0.851-0.16 1.351-0.242 0.442-0.059 0.911-0.188 1.411-0.391 0.16-0.059 0.73-0.52 1.711-1.379 0.66-0.578 1.308-0.719 1.949-0.418 0.363 0.156 0.972 0.738 1.832 1.738 0.699 0.821 1.508 1.289 2.429 1.41 0.801 0.083 1.551 0.172 2.25 0.27 0.418-0.02 1.059-0.238 1.918-0.66 0.704-0.34 1.332-0.559 1.891-0.66 0.32-0.059 0.52-0.157 0.602-0.297 0.179-0.32 0.808-0.703 1.886-1.141l-1.347-0.39c0.019 0.101-0.032 0.218-0.153 0.359-0.218 0.281-0.636 0.539-1.257 0.781-0.102 0.039-0.711 0.309-1.829 0.809-0.601 0.262-1.152 0.41-1.652 0.453-0.582 0.039-1.211-0.02-1.891-0.184-0.64-0.136-1.168-0.34-1.589-0.597-0.301-0.18-0.68-0.539-1.141-1.082-0.48-0.559-0.75-0.86-0.809-0.899-0.718-0.601-1.55-0.762-2.488-0.48-0.422 0.121-0.902 0.398-1.441 0.84-0.52 0.441-1.051 0.73-1.59 0.871-1.063 0.257-1.844 0.457-2.344 0.597-0.898 0.243-1.539 0.481-1.918 0.719-0.918 0.582-1.359 1.141-1.32 1.684 0.082 0.679 0.699 1.117 1.859 1.316s2.113 0.063 2.852-0.418c0.48-0.32 1.121-0.82 1.922-1.5 0.82-0.558 1.777-0.918 2.879-1.082 1.16-0.16 1.398 0.191 0.718 1.051-0.218 0.281-1.031 1.082-2.429 2.402-0.782 0.738-1.2 1.387-1.262 1.949-0.059 0.622 0.281 1.239 1.023 1.86 0.719 0.582 1.508 0.699 2.368 0.359 0.781-0.32 1.41-0.918 1.89-1.801 0.039-0.058 0.219-0.75 0.539-2.066 0.102-0.422 0.543-0.363 1.321 0.18 1.679 1.136 2.812 1.859 3.39 2.16 1.399 0.719 2.469 0.918 3.211 0.597 0.617-0.277 1.012-0.609 1.172-0.988 0.238-0.519 0.527-0.922 0.867-1.199 1-0.863 2.133-1.121 3.391-0.781 0.379 0.117 0.879-0.063 1.5-0.539 0.621-0.481 0.969-0.711 1.051-0.692 0.359 0.121 0.589 0.141 0.691 0.059 0.039-0.039 0.047-0.09 0.027-0.149 0-0.519-0.148-0.781-0.449-0.781-0.121 0-0.351 0.18-0.691 0.539-0.34 0.403-0.641 0.641-0.899 0.723-0.281 0.058-0.609 0.078-0.988 0.058-0.742-0.039-1.273-0.058-1.594-0.058z"
   inkscape:connector-curvature="0" />&#10;          </g>&#10;        </g>&#10;      </g>&#10;      <g
   id="g244">&#10;        <g
   id="g246">&#10;          <g
   id="g252">&#10;            <path
   id="path260"
   style="fill-rule:evenodd;fill:#f1de91;fill-opacity:1"
   d="m25.02 9.211c-0.661 0-1.329 0.281-2.012 0.839-0.34 0.282-0.828 0.789-1.469 1.532-0.359 0.437-0.98 0.629-1.859 0.57-0.801-0.043-1.481-0.23-2.039-0.57-0.782-0.442-1.352-0.84-1.711-1.203-0.5-0.5-0.352-0.731 0.449-0.688 0.18 0 0.883 0.16 2.101 0.481 0.579 0.16 1.129 0 1.649-0.481 0.441-0.422 0.93-0.922 1.473-1.5 0.457-0.359 1.007-0.5 1.648-0.422 0.82 0.121 1.512-0.078 2.07-0.597 0.582-0.5 0.45-0.93-0.39-1.29-0.739-0.32-1.2-0.453-1.379-0.39l-0.031 0.18 0.75 0.449c0.382 0.34 0.332 0.609-0.149 0.808-0.34 0.141-0.851 0.231-1.531 0.274-0.582 0.015-1.012 0.148-1.289 0.386-0.5 0.543-0.879 0.954-1.141 1.231-0.48 0.48-0.93 0.742-1.351 0.781-0.36 0.02-0.86-0.031-1.5-0.152-0.719-0.16-1.352-0.238-1.887-0.238-0.301 0-0.891-0.09-1.774-0.27-0.418-0.082-0.718 0.039-0.898 0.359-0.039 0.079-0.281 0.649-0.719 1.711-0.32 0.758-0.59 1.239-0.812 1.438-0.418 0.402-0.899 0.633-1.442 0.691-0.718 0.121-1.156-0.238-1.316-1.082-0.141-0.777 0.109-1.48 0.75-2.097 0.359-0.36 0.918-0.832 1.68-1.411 1.019-1.14 1.371-1.871 1.05-2.191-0.359-0.398-0.609-0.641-0.75-0.719-0.461-0.218-1.07-0.211-1.832 0.032-0.738 0.257-1.558 0.64-2.457 1.136-0.882 0.563-1.453 0.922-1.711 1.082-0.402 0.219-0.968 0.301-1.711 0.242-0.718-0.082-1.128-0.261-1.23-0.543-0.078-0.281 0.082-0.539 0.48-0.781 0.36-0.219 0.852-0.386 1.469-0.508 0.403-0.082 0.852-0.16 1.352-0.242 0.441-0.058 0.91-0.187 1.41-0.386 0.18-0.063 0.75-0.512 1.711-1.352 0.66-0.602 1.308-0.75 1.949-0.449 0.359 0.179 0.973 0.758 1.832 1.738 0.699 0.82 1.508 1.289 2.43 1.41 1.48 0.18 2.23 0.27 2.25 0.27 0.398 0 1.039-0.219 1.918-0.66 0.703-0.34 1.332-0.559 1.89-0.661 0.321-0.058 0.52-0.16 0.602-0.296 0.18-0.301 0.809-0.684 1.887-1.141l-1.352-0.359c0.024 0.097-0.027 0.218-0.148 0.359-0.219 0.281-0.641 0.539-1.258 0.777-0.883 0.383-1.492 0.641-1.832 0.781-0.598 0.262-1.149 0.411-1.649 0.454-0.601 0.039-1.23-0.012-1.89-0.153-0.641-0.16-1.172-0.359-1.59-0.601-0.301-0.18-0.68-0.539-1.141-1.078-0.48-0.582-0.75-0.891-0.808-0.93-0.723-0.602-1.551-0.762-2.492-0.481-0.399 0.118-0.879 0.411-1.442 0.872-0.519 0.437-1.051 0.718-1.59 0.839-1.058 0.258-1.84 0.457-2.34 0.598-0.898 0.262-1.539 0.512-1.918 0.75-0.941 0.582-1.378 1.129-1.32 1.652 0.078 0.68 0.699 1.118 1.86 1.321 1.16 0.218 2.109 0.086 2.851-0.391 0.481-0.32 1.121-0.832 1.918-1.531 0.82-0.559 1.781-0.91 2.883-1.051 1.16-0.16 1.398 0.18 0.719 1.02-0.223 0.281-1.032 1.082-2.43 2.402-0.781 0.738-1.199 1.398-1.262 1.98-0.058 0.618 0.281 1.227 1.02 1.828 0.719 0.583 1.511 0.7 2.371 0.36 0.781-0.32 1.41-0.91 1.89-1.77 0.04-0.058 0.219-0.75 0.54-2.07 0.101-0.418 0.539-0.371 1.32 0.152 1.719 1.157 2.851 1.879 3.39 2.157 1.399 0.742 2.469 0.941 3.211 0.601 0.618-0.281 1.008-0.609 1.168-0.988 0.243-0.52 0.532-0.922 0.871-1.199 1.02-0.883 2.149-1.133 3.391-0.754 0.457 0.121 0.899 0.09 1.32-0.09 0.399-0.18 0.668-0.438 0.809-0.777 0.18-0.442 0.559-0.602 1.141-0.481 0-0.5-0.149-0.75-0.45-0.75-0.121 0-0.351 0.18-0.691 0.539-0.34 0.399-0.641 0.629-0.898 0.688-0.282 0.062-0.614 0.082-0.993 0.062-0.738-0.039-1.269-0.058-1.589-0.058z"
   inkscape:connector-curvature="0" />&#10;          </g>&#10;        </g>&#10;      </g>&#10;      <g
   id="g262">&#10;        <g
   id="g264">&#10;          <g
   id="g270">&#10;            <path
   id="path278"
   style="fill-rule:evenodd;fill:#c3b26b;fill-opacity:1"
   d="m25.5 8.308c0.539-0.238 0.91-0.496 1.109-0.777 0.262-0.34 0.313-0.77 0.153-1.289-0.082-0.262-0.184-0.481-0.301-0.66l-0.961-0.512 0.629 1.199c0.281 0.5 0.031 1.02-0.75 1.563-0.18 0.117-0.887 0.5-2.129 1.136-0.559 0.481-0.988 0.774-1.289 0.871-0.481 0.122-1.399-0.179-2.762-0.898-1.277-0.699-2.59-1.051-3.929-1.051h-2.161c-0.297-0.14-0.816-0.082-1.558 0.18-0.86 0.301-1.559 0.441-2.098 0.418-0.703-0.02-1.293-0.27-1.773-0.75-0.078-0.098-0.36-0.5-0.84-1.199-0.141-0.219-0.387-0.52-0.75-0.899-0.258-0.34-0.301-0.722-0.117-1.14 0.179-0.422 0.699-0.782 1.558-1.082 0.418-0.141 0.821-0.239 1.199-0.301-0.281-0.059-1.019 0.062-2.218 0.363-1.582 0.418-2.039 1.117-1.383 2.098 0.164 0.242 0.371 0.461 0.633 0.66 0.218 0.16 0.461 0.48 0.718 0.961 0.442 0.781 1.122 1.359 2.04 1.738 1.121 0.481 2.261 0.442 3.421-0.117 0.36-0.16 0.719-0.262 1.079-0.301 0.203-0.019 0.632-0.031 1.289-0.031 1.543 0 2.621 0.152 3.242 0.453 0.258 0.098 0.871 0.367 1.828 0.809 0.922 0.379 1.613 0.57 2.07 0.57 0.52 0 0.961-0.102 1.321-0.301 0.218-0.101 0.64-0.398 1.261-0.898 0.321-0.262 0.809-0.532 1.469-0.813z"
   inkscape:connector-curvature="0" />&#10;          </g>&#10;        </g>&#10;      </g>&#10;      <g
   id="g280">&#10;        <g
   id="g282">&#10;          <g
   id="g288">&#10;            <path
   id="path296"
   style="fill-rule:evenodd;fill:#e9d892;fill-opacity:1"
   d="m25.352 8.609c0.519-0.238 0.886-0.5 1.109-0.777 0.238-0.344 0.281-0.77 0.117-1.293-0.078-0.258-0.18-0.481-0.297-0.66l-0.961-0.54 0.629 1.2c0.281 0.523 0.031 1.05-0.75 1.59-0.199 0.14-0.91 0.519-2.129 1.14-0.558 0.481-0.992 0.762-1.289 0.84-0.48 0.121-1.402-0.18-2.761-0.898-1.282-0.68-2.59-1.02-3.93-1.02-1.399 0-2.121-0.012-2.16-0.031-0.301-0.141-0.821-0.078-1.559 0.179-0.879 0.301-1.578 0.454-2.101 0.454-0.7-0.02-1.278-0.282-1.739-0.782-0.261-0.261-0.551-0.648-0.871-1.172-0.14-0.218-0.39-0.519-0.75-0.898-0.238-0.359-0.269-0.75-0.09-1.172 0.18-0.418 0.692-0.769 1.532-1.051 0.418-0.156 0.82-0.269 1.199-0.328-0.281-0.058-1.02 0.071-2.219 0.391-1.562 0.418-2.023 1.121-1.383 2.098 0.16 0.222 0.371 0.433 0.629 0.632 0.223 0.18 0.461 0.508 0.723 0.989 0.437 0.781 1.121 1.359 2.039 1.742 1.121 0.457 2.262 0.418 3.422-0.121 0.359-0.18 0.718-0.282 1.078-0.301 0.14-0.02 0.57-0.031 1.289-0.031 1.519 0 2.601 0.14 3.242 0.422 0.258 0.101 0.871 0.371 1.828 0.808 0.922 0.383 1.621 0.57 2.102 0.57 0.519 0 0.949-0.089 1.289-0.269 0.238-0.117 0.672-0.43 1.289-0.93 0.32-0.261 0.812-0.519 1.473-0.781z"
   inkscape:connector-curvature="0" />&#10;          </g>&#10;        </g>&#10;      </g>&#10;      <g
   id="g298">&#10;        <g
   id="g300">&#10;          <g
   id="g306">&#10;            <path
   id="path314"
   style="fill-rule:evenodd;fill:#e7d17b;fill-opacity:1"
   d="m25.949 6.539c-0.418 0.64-1 1.402-1.738 2.281-0.383 0.422-0.672 0.68-0.871 0.781-0.301 0.16-0.649 0.129-1.051-0.09-0.519-0.3-0.969-0.648-1.348-1.05-0.461-0.5-0.664-0.961-0.601-1.379 0.238-1.481 0.359-2.41 0.359-2.793 0-0.957-1.558-1.379-4.679-1.258-0.282 0-0.329 0.512-0.153 1.531 0.203 1.141-0.07 1.899-0.808 2.277-0.762 0.383-1.442 0.372-2.039-0.027-0.883-0.582-1.461-0.89-1.743-0.93-0.738-0.14-1.429-0.41-2.07-0.812-0.578-0.34-0.98-0.688-1.199-1.051-0.262-0.437-0.59-0.609-0.988-0.508 0.078 0.219 0.218 0.469 0.418 0.75 0.398 0.559 0.878 0.981 1.441 1.258 0.238 0.102 0.949 0.383 2.129 0.84 0.82 0.344 1.379 0.633 1.68 0.871 0.359 0.32 0.851 0.5 1.468 0.539 0.621 0.02 1.153-0.109 1.59-0.387 0.844-0.562 1.262-1.441 1.262-2.64 0-0.66 0.012-1.012 0.031-1.051 0.059-0.18 0.359-0.289 0.899-0.332 0.679-0.039 1.261 0.09 1.738 0.391 0.543 0.339 0.722 0.789 0.543 1.351-0.301 0.719-0.5 1.238-0.602 1.559-0.14 0.543-0.051 1.039 0.274 1.5 0.515 0.801 1.199 1.41 2.039 1.832 1.097 0.558 1.949 0.398 2.547-0.481 0.621-0.882 1.043-1.441 1.261-1.679 0.059-0.063 0.219-0.192 0.481-0.391 0.261-0.18 0.39-0.652 0.39-1.41l-0.418-0.375c0.09 0.211 0.012 0.508-0.242 0.883z"
   inkscape:connector-curvature="0" />&#10;          </g>&#10;        </g>&#10;      </g>&#10;      <path
   id="path316"
   style="fill-rule:evenodd;fill:#ffffff"
   d="m9.27 13.679c0.179 0 0.179-0.058 0-0.179-0.418-0.239-0.668-0.391-0.75-0.45-0.399-0.281-0.598-0.902-0.598-1.859 0-0.203-0.063-0.191-0.184 0.027-0.097 0.223-0.14 0.52-0.117 0.903 0.02 0.418 0.219 0.789 0.598 1.109 0.34 0.301 0.691 0.449 1.051 0.449z"
   inkscape:connector-curvature="0" />&#10;      <path
   id="path318"
   style="fill-rule:evenodd;fill:#ffffff"
   d="m2.641 9.121c0.437 0 0.82-0.071 1.14-0.211 0.321-0.141 0.36-0.211 0.117-0.211-0.078 0-0.406-0.082-0.988-0.238-0.558-0.141-0.969-0.2-1.23-0.184-0.36 0.02-0.379 0.16-0.059 0.422 0.32 0.281 0.66 0.422 1.02 0.422z"
   inkscape:connector-curvature="0" />&#10;      <path
   id="path320"
   style="fill-rule:evenodd;fill:#ffffff"
   d="m12.48 11.672c0.18-0.524 0.211-0.782 0.09-0.782-0.14 0-0.25 0.168-0.332 0.512-0.058 0.297-0.058 0.488 0 0.566 0.063 0.063 0.141-0.039 0.242-0.296z"
   inkscape:connector-curvature="0" />&#10;      <path
   id="path322"
   style="fill-rule:evenodd;fill:#ffffff"
   d="m15.211 13.558c0.258-0.019 0.457-0.117 0.598-0.297 0.121-0.183 0.043-0.222-0.239-0.121-0.179 0.059-0.461 0.071-0.84 0.032-0.382-0.043-0.609-0.043-0.691 0-0.16 0.039-0.07 0.117 0.27 0.238 0.343 0.121 0.64 0.172 0.902 0.148z"
   inkscape:connector-curvature="0" />&#10;      <path
   id="path324"
   style="fill-rule:evenodd;fill:#ffffff"
   d="m20.52 12.961c0.261-0.082 0.378-0.18 0.359-0.301-0.02-0.121-0.16-0.129-0.418-0.031-0.184 0.082-0.512 0.043-0.992-0.118-0.438-0.14-0.707-0.179-0.809-0.121-0.16 0.098 0.039 0.239 0.598 0.418 0.543 0.18 0.961 0.231 1.262 0.153z"
   inkscape:connector-curvature="0" />&#10;      <path
   id="path326"
   style="fill-rule:evenodd;fill:#ffffff"
   d="m14.492 9.961c0.356 0.101 0.488 0.027 0.387-0.211-0.098-0.243-0.328-0.36-0.688-0.36-0.343 0-0.421 0.078-0.242 0.239 0.141 0.16 0.321 0.273 0.543 0.332z"
   inkscape:connector-curvature="0" />&#10;      <path
   id="path328"
   style="fill-rule:evenodd;fill:#ffffff"
   d="m26.879 9.871c0.5-0.02 0.613-0.102 0.332-0.242-0.281-0.118-0.551-0.168-0.813-0.149-0.218 0.02-0.25 0.09-0.089 0.211 0.14 0.141 0.332 0.199 0.57 0.18z"
   inkscape:connector-curvature="0" />&#10;      <path
   id="path330"
   style="fill-rule:evenodd;fill:#ffffff"
   d="m10.051 9.3c0.398-0.082 0.488-0.14 0.269-0.179-0.218-0.043-0.48-0.032-0.781 0.027-0.199 0.043-0.539-0.008-1.019-0.148-0.34-0.082-0.469-0.09-0.391-0.032 0.164 0.141 0.453 0.243 0.871 0.301 0.422 0.082 0.77 0.09 1.051 0.031z"
   inkscape:connector-curvature="0" />&#10;      <path
   id="path332"
   style="display:inline;fill:#ffffff;fill-rule:evenodd"
   d="m 4.98,10.769 c 0.282,0.063 0.461,0.07 0.54,0.031 0.082,-0.039 0,-0.101 -0.239,-0.179 C 5.121,10.558 4.91,10.379 4.652,10.078 4.43,9.839 4.281,9.761 4.199,9.839 c -0.097,0.102 -0.027,0.27 0.211,0.512 0.219,0.238 0.41,0.379 0.57,0.418 z"
   inkscape:connector-curvature="0" />&#10;      <path
   id="path334"
   style="display:inline;fill:#ffffff;fill-rule:evenodd"
   d="M 15.422,7.32 C 15.578,7.238 15.762,7.101 15.961,6.902 16.141,6.679 16.25,6.48 16.289,6.3 16.348,6 16.16,6.14 15.719,6.718 15.602,6.902 15.359,7.039 15,7.14 14.621,7.257 14.41,7.339 14.371,7.379 14.27,7.48 14.34,7.531 14.578,7.531 14.84,7.511 15.121,7.441 15.422,7.32 Z"
   inkscape:connector-curvature="0" />&#10;      <path
   id="path336"
   style="fill-rule:evenodd;fill:#ffffff"
   d="m17.672 7.082c0.359-0.02 0.48-0.09 0.359-0.211-0.121-0.102-0.293-0.11-0.511-0.032-0.18 0.083-0.243 0.141-0.18 0.18 0.039 0.063 0.152 0.082 0.332 0.063z"
   inkscape:connector-curvature="0" />&#10;      <path
   id="path338"
   style="fill-rule:evenodd;fill:#ffffff"
   d="m13.41 6.332c0.32 0.199 0.27 0.039-0.152-0.481-0.418-0.5-0.68-0.711-0.778-0.633-0.101 0.082-0.011 0.262 0.27 0.543 0.219 0.239 0.441 0.43 0.66 0.571z"
   inkscape:connector-curvature="0" />&#10;      <path
   id="path340"
   style="fill-rule:evenodd;fill:#ffffff"
   d="m21.629 9.66c0.262 0.121 0.25 0.051-0.027-0.211-0.422-0.379-0.711-0.641-0.872-0.781-0.199-0.2-0.351-0.45-0.453-0.75-0.117-0.379-0.187-0.579-0.207-0.598-0.121-0.242-0.152-0.051-0.09 0.57 0.02 0.278 0.258 0.629 0.719 1.051 0.383 0.379 0.692 0.617 0.93 0.719z"
   inkscape:connector-curvature="0" />&#10;      <path
   id="path342"
   style="fill-rule:evenodd;fill:#ffffff"
   d="m24.66 7.14c0.02-0.078-0.09-0.07-0.332 0.032-0.316 0.136-0.57 0.218-0.75 0.238-0.98 0.058-1.578 0.172-1.801 0.332-0.078 0.058-0.039 0.078 0.121 0.058 0.301-0.058 0.551-0.082 0.75-0.058 0.422 0.019 0.86-0.051 1.321-0.211 0.441-0.141 0.672-0.27 0.691-0.391z"
   inkscape:connector-curvature="0" />&#10;      <path
   id="path344"
   style="fill-rule:evenodd;fill:#ffd529;fill-opacity:1"
   d="m23.91 5.582c-0.219 0-0.281 0.07-0.18 0.207 0.098 0.16 0.258 0.242 0.481 0.242 0.699-0.02 0.898-0.102 0.598-0.242-0.278-0.137-0.579-0.207-0.899-0.207z"
   inkscape:connector-curvature="0" />&#10;      &#10;      <path
   id="path348"
   style="fill-rule:evenodd;fill:#efdfa1"
   d="m4.051 7.8c0.32 0 0.59-0.058 0.808-0.179 0.203-0.121 0.27-0.223 0.211-0.301-0.039-0.082-0.258-0.141-0.66-0.18-0.398-0.043-0.699-0.031-0.898 0.028-0.219 0.043-0.262 0.16-0.121 0.363 0.121 0.18 0.339 0.269 0.66 0.269z"
   inkscape:connector-curvature="0" />&#10;      <path
   id="path350"
   style="fill-rule:evenodd;fill:#efdfa1"
   d="m9.27 8.281c0.382 0.019 0.531-0.063 0.453-0.242-0.102-0.137-0.293-0.239-0.571-0.297-0.3-0.121-0.523-0.203-0.66-0.242-0.222-0.082-0.433-0.09-0.633-0.032-0.218 0.082-0.129 0.231 0.27 0.454 0.402 0.218 0.781 0.339 1.141 0.359z"
   inkscape:connector-curvature="0" />&#10;      <path
   id="path352"
   style="fill-rule:evenodd;fill:#ffffff"
   d="m11.25 7.769c0.301-0.359 0.34-0.508 0.121-0.449-0.242 0.059-0.43 0.191-0.57 0.391-0.121 0.16-0.133 0.269-0.031 0.328 0.121 0.062 0.281-0.028 0.48-0.27z"
   inkscape:connector-curvature="0" />&#10;      <path
   id="path354"
   style="fill-rule:evenodd;fill:#ffffff"
   d="m9.238 6.48c0.641-0.16 0.981-0.281 1.024-0.359 0.039-0.039-0.114-0.071-0.453-0.09-0.278-0.039-0.598 0.019-0.961 0.18-0.36 0.14-0.586 0.289-0.688 0.449-0.058 0.14 0.008 0.172 0.211 0.09 0.539-0.18 0.828-0.27 0.867-0.27z"
   inkscape:connector-curvature="0" />&#10;      &#10;      <path
   id="path358"
   style="fill-rule:evenodd;fill:#ffffff"
   d="m14.309 11.55c0.539-0.082 0.793-0.179 0.75-0.3-0.02-0.118-0.161-0.18-0.418-0.18-0.219 0-0.481 0.031-0.782 0.09-0.339 0.058-0.539 0.129-0.597 0.211-0.102 0.097-0.043 0.168 0.179 0.211 0.239 0.039 0.528 0.027 0.868-0.032z"
   inkscape:connector-curvature="0" />&#10;      <path
   id="path360"
   style="fill-rule:evenodd;fill:#efdfa1"
   d="m17.191 10.558c1.118 0 1.438-0.058 0.957-0.179-0.617-0.161-1.027-0.231-1.226-0.211-0.223 0.019-0.293 0.089-0.215 0.211 0.102 0.121 0.262 0.179 0.484 0.179z"
   inkscape:connector-curvature="0" />&#10;      <path
   id="path362"
   style="fill-rule:evenodd;fill:#ffffff"
   d="m17.789 9.269c0.402 0.16 0.5 0.153 0.301-0.027-0.199-0.16-0.461-0.32-0.781-0.481-0.258-0.121-0.668-0.199-1.231-0.242-0.5-0.039-0.871-0.039-1.109 0-0.18 0.02-0.071 0.09 0.332 0.211 0.398 0.102 0.758 0.149 1.078 0.149 0.281 0 0.531 0.043 0.75 0.121 0.121 0.039 0.34 0.129 0.66 0.269z"
   inkscape:connector-curvature="0" />&#10;      &#10;      <path
   id="path366"
   style="display:inline;fill:#efdfa1;fill-rule:evenodd"
   d="M 15.48,4.8 C 15.82,5 15.789,4.742 15.391,4.019 15.309,3.879 15.129,3.8 14.852,3.781 14.59,3.761 14.391,3.82 14.25,3.961 c -0.098,0.101 0,0.23 0.301,0.39 0.199,0.078 0.508,0.231 0.929,0.449 z"
   inkscape:connector-curvature="0" />&#10;      &#10;      <path
   id="path370"
   style="fill-rule:evenodd;fill:#ffffff"
   d="m8.879 5.519c0.281 0.059 0.273-0.051-0.027-0.328-0.282-0.262-0.532-0.441-0.75-0.543-0.18-0.059-0.153 0.063 0.089 0.359 0.239 0.301 0.469 0.473 0.688 0.512z"
   inkscape:connector-curvature="0" />&#10;      <path
   id="path372"
   style="fill-rule:evenodd;fill:#ffffff"
   d="m22.23 10.41c0.879-0.258 1.399-0.649 1.559-1.168-0.16 0.18-0.551 0.398-1.168 0.66-0.66 0.258-1 0.398-1.019 0.418-0.102 0.059-0.071 0.098 0.089 0.121 0.161 0.039 0.34 0.027 0.539-0.031z"
   inkscape:connector-curvature="0" />&#10;      &#10;      &#10;      <path
   id="path378"
   style="display:inline;fill:#ffffff;fill-rule:evenodd"
   d="m 10.922,11.879 c 0.18,0.062 0.207,0.011 0.086,-0.149 -0.117,-0.141 -0.289,-0.269 -0.508,-0.391 -0.539,-0.32 -0.961,-0.449 -1.262,-0.39 -0.16,0.019 -0.14,0.082 0.063,0.183 0.179,0.079 0.367,0.129 0.57,0.149 0.117,0 0.27,0.082 0.449,0.238 0.2,0.18 0.399,0.301 0.602,0.36 z"
   inkscape:connector-curvature="0" />&#10;      <path
   id="path380"
   style="display:inline;fill:#ffffff;fill-rule:evenodd"
   d="m 27.152,8.371 h 0.868 c 0.042,-0.102 0.058,-0.25 0.058,-0.453 0,-1.457 -1.367,-2.7 -4.109,-3.719 C 21.23,3.179 17.922,2.672 14.039,2.672 10.16,2.672 6.848,3.179 4.109,4.199 1.371,5.218 0,6.461 0,7.918 L 0.059,8.371 H 1.078 V 8.129 C 1.078,6.832 2.352,5.73 4.891,4.832 7.43,3.91 10.5,3.449 14.102,3.449 c 3.621,0 6.699,0.461 9.238,1.383 2.543,0.898 3.812,2 3.812,3.297 z"
   inkscape:connector-curvature="0" />&#10;      <path
   id="path382"
   style="display:inline;fill:#d4aa00;fill-rule:evenodd;fill-opacity:1"
   d="M 7.449,12.039 C 7.246,11.964 7.09,11.839 6.973,11.664 l 0.953,0.113 C 7.742,11.89 7.586,11.98 7.449,12.039 Z m 1.11,-1.2 C 8.578,10.824 9,10.64 9.824,10.289 10.5,10 10.809,9.789 10.742,9.648 10.66,9.5 10.203,9.382 9.379,9.308 8.621,9.277 8.094,9.23 7.797,9.172 7.289,9.062 6.91,8.75 6.656,8.234 6.613,8.14 6.605,7.867 6.625,7.41 6.645,7.062 6.527,6.8 6.273,6.632 5.684,6.25 5.387,6.406 5.387,7.089 5.387,7.226 5.559,7.57 5.895,8.117 6.062,8.379 5.844,8.675 5.23,9.011 4.512,9.254 4.004,9.461 3.707,9.629 3.16,9.945 3.348,10.25 4.277,10.543 4.492,10.601 5.02,10.519 5.863,10.289 6.582,10.093 7.047,10.132 7.258,10.406 7.066,10.91 6.93,11.328 6.844,11.664 c -0.114,0.492 0.086,0.617 0.601,0.375 0.063,0.023 0.125,0.043 0.192,0.058 0.297,0.059 0.593,0.032 0.886,-0.093 -0.211,-0.563 -0.199,-0.95 0.036,-1.165 z"
   inkscape:connector-curvature="0" />&#10;      &#10;      <path
   id="path386"
   style="display:inline;fill:#d4aa00;fill-rule:evenodd;fill-opacity:1"
   d="m 19.332,10.886 c -0.105,0.5 0.191,0.77 0.887,0.797 0.527,0.016 1.035,-0.086 1.523,-0.304 0.41,0.117 0.781,0.234 1.11,0.351 0.21,0.031 0.496,-0.129 0.855,-0.48 0.395,-0.688 0.574,-0.981 0.539,-0.879 0.043,-0.117 0.184,-0.211 0.41,-0.285 0.125,-0.047 0.125,-0.192 0,-0.438 C 24.402,9.132 24.035,9.011 23.547,9.285 23.039,9.726 22.691,10 22.5,10.109 c -0.422,0.242 -0.918,0.441 -1.488,0.594 -0.614,0.152 -1.172,0.211 -1.68,0.183 z"
   inkscape:connector-curvature="0" />&#10;      <path
   id="path388"
   style="display:inline;fill:#d4aa00;fill-opacity:1;fill-rule:evenodd"
   d="m 14.422,7.433 c -0.91,0.063 -1.449,0.137 -1.617,0.231 -0.426,0.258 -0.285,0.508 0.41,0.754 0.594,0.195 1.152,0.289 1.68,0.273 0.253,0 0.742,-0.09 1.457,-0.273 0.464,-0.11 0.878,-0.055 1.238,0.16 0.379,0.457 0.652,0.754 0.824,0.89 0.231,0.196 0.684,0.153 1.359,-0.125 L 19.172,9.605 C 20.059,9.406 20.387,9.14 20.156,8.804 19.754,8.195 19.574,7.812 19.617,7.66 19.66,7.507 20.027,7.273 20.727,6.953 21.297,6.695 21.445,6.375 21.172,5.992 20.957,5.656 20.559,5.605 19.965,5.832 19.289,6.168 18.816,6.359 18.539,6.406 17.715,6.406 17.125,6.422 16.766,6.449 16.133,6.511 15.973,6.8 16.289,7.32 16.184,7.336 15.562,7.371 14.422,7.433 Z"
   inkscape:connector-curvature="0" />&#10;      <path
   id="path390"
   style="fill-rule:evenodd;fill:#d4aa00;fill-opacity:1"
   d="m23.77 8.578c0.296-0.063 0.515-0.184 0.664-0.367l0.019-0.024-0.683 0.391zm0.695-0.426c0.101-0.168 0.121-0.363 0.066-0.582-0.551-0.031-1.109 0.008-1.679 0.113-0.786 0.168-1.122 0.43-1.016 0.778 0.105 0.351 0.516 0.421 1.234 0.207 0.364-0.114 0.828-0.286 1.395-0.516z"
   inkscape:connector-curvature="0" />&#10;      <path
   id="path392"
   style="fill-rule:evenodd;fill:#d4aa00;fill-opacity:1"
   d="m20.902 4.738c0.043-0.066 0.09-0.141 0.141-0.231-0.398-0.335-1.148-0.562-2.25-0.683-1.016-0.11-1.828-0.094-2.438 0.047 0.145 0.074 0.528 0.363 1.141 0.867 0.442 0.367 0.844 0.578 1.203 0.641 0.508 0.089 0.992 0.015 1.457-0.231 0.188-0.101 0.434-0.238 0.746-0.41z"
   inkscape:connector-curvature="0" />&#10;      <path
   id="path394"
   style="display:inline;fill:#d4aa00;fill-opacity:1;fill-rule:evenodd"
   d="m 8.4960939,5.8886869 c 0.613,-0.121 1.121,-0.082 1.5230001,0.113 0.043,0.016 0.359,0.352 0.949,1.008 0.34,0.379 0.782,0.426 1.332,0.137 0.379,-0.231 0.379,-0.488 0,-0.778 -0.23,-0.152 -0.625,-0.406 -1.172,-0.753 0.297,-0.504 0.508,-0.793 0.633,-0.872 0.168,-0.089 0.602,-0.144 1.301,-0.16 1.078,-0.027 1.656,-0.05 1.742,-0.066 0.614,-0.106 0.879,-0.426 0.793,-0.961 -2.597,-0.031 -4.554,-0.031 -5.8630001,0 -0.824,0.031 -1.637,0.176 -2.441,0.434 -1.133,0.367 -1.844,0.593 -2.137,0.687 0.5,-0.137 0.883,-0.019 1.156,0.344 0.422,0.547 0.719,0.851 0.887,0.914 0.23,0.09 0.664,0.074 1.297,-0.047 z"
   inkscape:connector-curvature="0" />&#10;      <path
   id="path396"
   style="fill-rule:evenodd;fill:#e3bd26;fill-opacity:1"
   d="m11.25 5.949h-0.156c0.211 0.457 0.621 0.648 1.234 0.57 0.168-0.531-0.031-0.922-0.601-1.164 0.062-0.031 0.16-0.121 0.285-0.277 0.148-0.137 0.261-0.227 0.347-0.274-0.336-0.242-0.769-0.16-1.297 0.25-0.531 0.414-0.464 0.711 0.188 0.895z"
   inkscape:connector-curvature="0" />&#10;      <path
   id="path398"
   style="fill-rule:evenodd;fill:#ffd529;fill-opacity:1"
   d="m8.082 5.261-0.156-0.113c0.125-0.016 0.386-0.121 0.793-0.32-0.34-0.336-0.625-0.403-0.856-0.207-0.234 0.199-0.16 0.414 0.219 0.64z"
   inkscape:connector-curvature="0" />&#10;      <path
   id="path400"
   style="display:inline;fill:#e3bd26;fill-rule:evenodd;fill-opacity:1"
   d="M 17.59,7.777 H 17.559 C 17.621,7.519 17.961,7.191 18.57,6.793 19.121,6.461 19.617,6.222 20.062,6.086 19.66,5.918 19.176,5.925 18.605,6.109 17.887,6.32 17.391,6.422 17.113,6.406 17.199,5.828 17.062,5.597 16.703,5.718 16.344,5.828 16.07,6.07 15.879,6.449 15.73,6.953 15.613,7.265 15.531,7.386 15.426,7.539 15,7.679 14.262,7.8 14.41,8.152 14.895,8.257 15.723,8.121 16.164,8.027 16.785,7.914 17.59,7.777 Z"
   inkscape:connector-curvature="0" />&#10;      <path
   id="path402"
   style="fill-rule:evenodd;fill:#ffd529;fill-opacity:1"
   d="m19.652 8.347-0.636 0.117c0.972-0.031 1.207-0.23 0.699-0.593-0.149-0.125-0.285-0.157-0.414-0.094-0.168 0.078-0.211 0.266-0.125 0.57 0.105 0.016 0.262 0.016 0.476 0z"
   inkscape:connector-curvature="0" />&#10;      <path
   id="path404"
   style="fill-rule:evenodd;fill:#e3bd26;fill-opacity:1"
   d="m20.664 10.703c-0.316 0.105-0.551 0.242-0.699 0.41 0.359 0.121 0.824 0.144 1.394 0.07 0.219-0.031 0.493-0.066 0.825-0.113 0.011-0.055 0.043-0.148 0.097-0.277 0.063-0.153 0.082-0.274 0.063-0.364 0.633-0.14 1.086-0.445 1.363-0.918 0.25-0.484-0.055-0.562-0.918-0.226-0.234 0.078-0.457 0.242-0.668 0.504-0.254 0.304-0.453 0.5-0.601 0.593-0.149 0.09-0.434 0.2-0.856 0.321z"
   inkscape:connector-curvature="0" />&#10;      <path
   id="path406"
   style="fill-rule:evenodd;fill:#ffd529;fill-opacity:1"
   d="m11.918 10.578c0.144 0.051 0.348 0.07 0.602 0.054l-0.239-0.031c0.043-0.015 0.082-0.031 0.11-0.058 0.129-0.106 0.105-0.297-0.063-0.571-0.57 0.016-0.801 0.137-0.695 0.364 0.031 0.082 0.086 0.148 0.172 0.195l-0.078-0.012c0.066 0.028 0.128 0.047 0.191 0.059z"
   inkscape:connector-curvature="0" />&#10;      <path
   id="path408"
   style="display:inline;fill:#e3bd26;fill-opacity:1;fill-rule:evenodd"
   d="M 9.762,10.382 C 10.141,10.214 10.828,9.957 11.824,9.605 11.379,9.437 10.754,9.285 9.953,9.148 9.086,8.98 8.453,8.836 8.051,8.714 7.48,8.531 7.027,8.058 6.688,7.297 6.352,6.566 6.023,6.164 5.707,6.086 5.641,7.074 5.77,7.824 6.086,8.328 c 0.402,0.609 1.16,1.011 2.281,1.211 -0.551,0.394 -0.855,0.875 -0.918,1.437 0.129,0 0.309,-0.027 0.539,-0.09 0.114,0.297 0.2,0.516 0.254,0.664 0.36,-0.503 0.863,-0.894 1.52,-1.168 z"
   inkscape:connector-curvature="0" />&#10;      <path
   id="path410"
   style="fill-rule:evenodd;fill:#ffd529;fill-opacity:1"
   d="m10.98 12.336-0.046 0.011c0.57-0.043 0.855-0.242 0.855-0.593-0.019-0.336-0.293-0.434-0.824-0.297-0.508 0.136-0.664 0.359-0.473 0.664 0.106 0.164 0.27 0.234 0.488 0.215z"
   inkscape:connector-curvature="0" />&#10;      <path
   id="path412"
   style="fill-rule:evenodd;fill:#e3bd26;fill-opacity:1"
   d="m22.977 7.433-0.317 0.903c0.039-0.082 0.262-0.305 0.668-0.672 0.274-0.246 0.293-0.465 0.063-0.664-0.192-0.2-0.559-0.231-1.11-0.09-0.593 0.195-0.992 0.332-1.207 0.41 0.086 0.441 0.371 0.672 0.856 0.684 0.465 0.015 0.816-0.172 1.047-0.571z"
   inkscape:connector-curvature="0" />&#10;      <path
   id="path414"
   style="fill:#ffd529;fill-rule:evenodd;fill-opacity:1"
   d="m 12.747875,8.8175303 -0.793,0.113 c 0.277,0.246 0.613,0.313 1.016,0.207 0.402,-0.105 0.515,-0.312 0.347,-0.617 -0.105,-0.183 -0.433,-0.351 -0.98,-0.504 -0.383,-0.105 -0.774,-0.175 -1.172,-0.203 -0.086,0.336 0.039,0.602 0.379,0.801 0.336,0.18 0.738,0.25 1.203,0.203 z"
   inkscape:connector-curvature="0" />&#10;      <path
   id="path416"
   style="fill-rule:evenodd;fill:#ffd529;fill-opacity:1"
   d="m17.605 10.863c0.481-0.09 0.833-0.129 1.063-0.117 0-0.332-0.211-0.547-0.633-0.637-0.426-0.094-0.836-0.055-1.238 0.113 0.055 0.387 0.324 0.598 0.808 0.641z"
   inkscape:connector-curvature="0" />&#10;      <path
   id="path418"
   style="fill-rule:evenodd;fill:#ffd529;fill-opacity:1"
   d="m15.371 5.718h-0.238c0.265-0.023 0.523-0.093 0.777-0.203 0.445-0.199 0.625-0.465 0.539-0.801-1.14 0.059-1.984 0.29-2.535 0.684 0.148 0.215 0.348 0.344 0.602 0.391 0.273 0.058 0.558 0.039 0.855-0.071z"
   inkscape:connector-curvature="0" />&#10;      <path
   id="path420"
   style="display:inline;fill:#e3bd26;fill-rule:evenodd;fill-opacity:1"
   d="M 8.398,7.089 8.082,7.207 C 8.949,7.312 9.254,7.144 9,6.703 8.746,6.277 8.281,6.183 7.605,6.429 c -0.082,0.41 0.18,0.633 0.793,0.66 z"
   inkscape:connector-curvature="0" />&#10;      <path
   id="path422"
   style="display:inline;fill:#e3bd26;fill-rule:evenodd;fill-opacity:1"
   d="M 17.035,12.793 C 17.008,12.8 16.98,12.8 16.957,12.804 h 0.207 c -0.043,0 -0.086,-0.004 -0.129,-0.011 0.414,-0.039 1.219,-0.075 2.426,-0.102 0.019,-0.383 -0.445,-0.648 -1.395,-0.801 -1.183,-0.195 -1.921,-0.41 -2.218,-0.64 -0.125,0.414 -0.043,0.777 0.254,1.097 0.226,0.258 0.535,0.407 0.933,0.446 z"
   inkscape:connector-curvature="0" />&#10;      &#10;      &#10;      &#10;      &#10;      &#10;      &#10;      &#10;      &#10;      &#10;      &#10;      &#10;      &#10;      &#10;      &#10;      &#10;      &#10;      &#10;      &#10;      &#10;      &#10;      &#10;      &#10;      &#10;      &#10;      &#10;      &#10;      &#10;      &#10;      &#10;      &#10;      &#10;      &#10;      &#10;      &#10;      &#10;      &#10;      &#10;      &#10;      &#10;      &#10;      &#10;      &#10;      &#10;      &#10;      &#10;      &#10;      &#10;      &#10;      &#10;      &#10;      &#10;      &#10;      &#10;      &#10;      &#10;      &#10;      &#10;      &#10;    <path
   id="path442"
   style="display:inline;fill:#8f7f59;fill-rule:evenodd;stroke-width:0.679814"
   d="m 22.919069,9.3803876 c 0.225621,0 0.26489,-0.04078 0.114238,-0.119099 -0.150651,-0.05826 -0.270601,-0.11392 -0.356995,-0.172175 -0.2399,-0.181884 -0.52978,-0.330758 -0.867497,-0.442089 -0.867497,-0.217484 -1.60362,-0.409725 -2.206227,-0.5819 -0.778249,-0.227194 -1.631466,-0.687406 -2.560366,-1.38258 -0.691142,-0.536591 -1.463679,-0.986447 -2.31761,-1.350215 -0.239901,-0.101623 -0.529781,-0.286096 -0.867498,-0.546301 l -0.43482,-0.341114 -0.282026,0.495166 v 1.074476 c -0.401261,0.19483 -0.761113,0.399369 -1.073126,0.614912 -0.627596,0.434321 -0.716845,0.702293 -0.265603,0.803916 0.716845,0.159229 4.423878,0.809093 11.11753,1.947003 z"
   inkscape:connector-curvature="0" /><path
   id="path444"
   style="display:inline;fill:#94845d;fill-rule:evenodd;stroke-width:0.679814"
   d="m 8.5250404,5.7595306 c 3.1651146,-0.445325 4.7608816,-0.718475 4.7858716,-0.81945 l 0.130661,-0.513289 -1.450113,0.03301 c -0.490511,0.02265 -1.4137,0.141753 -2.7695659,0.359237 -0.339859,0.04531 -0.8367956,0.154052 -1.4893821,0.323638 -0.6026072,0.148873 -0.9788796,0.257615 -1.1295314,0.326227 l -0.3569947,0.187062 c 0.8032381,0.06796 1.562209,0.103564 2.2790545,0.103565 z"
   inkscape:connector-curvature="0" /><path
   id="path446"
   style="display:inline;fill:#695322;fill-rule:evenodd;stroke-width:0.679814"
   d="m 19.150633,8.9706626 c 2.16196,0.282859 3.316481,0.427202 3.467133,0.427202 0.2399,0 0.390551,-0.01295 0.451955,-0.0356 0.06426,-0.02266 0.01356,-0.04531 -0.150652,-0.06797 -0.125662,-0.02266 -0.212055,-0.05567 -0.262034,-0.101627 -0.07568,-0.0576 -0.128518,-0.09061 -0.153508,-0.10356 -0.488368,-0.249848 -1.065272,-0.43238 -1.732139,-0.545653 -0.791814,-0.159871 -1.645745,-0.437552 -2.563221,-0.83692 -0.337718,-0.149521 -0.797527,-0.43238 -1.375144,-0.855051 -0.616174,-0.455034 -1.09883,-0.768315 -1.450113,-0.937901 -0.462666,-0.227841 -0.936754,-0.518468 -1.413699,-0.872527 l -0.58333,-0.442089 c -0.451955,-0.08091 -1.07384,-0.07573 -1.865655,0.01489 -0.778248,0.09127 -1.344442,0.15923 -1.6957247,0.205186 -0.616173,0.09321 -1.093118,0.184474 -1.4336909,0.275092 L 6.168161,5.6734456 c 0.5269243,0.341114 0.9310424,0.616854 1.2073562,0.819451 1.1438112,0.321048 2.3290339,0.644686 3.5592378,0.975443 2.46255,0.660221 3.906951,1.006513 4.333917,1.042114 0.351282,0.02007 1.647887,0.174116 3.881961,0.460212 z"
   inkscape:connector-curvature="0" /><path
   id="path448"
   style="display:inline;fill:#f27922;fill-rule:evenodd;stroke-width:0.679814"
   d="m 18.944289,11.481443 c 0.918191,-0.22784 1.701438,-0.495812 2.354023,-0.804563 0.741836,-0.351471 1.213069,-0.66993 1.414415,-0.9553784 -0.100675,-0.286096 -0.415542,-0.518468 -0.943181,-0.700352 -0.212055,-0.07832 -0.671864,-0.205186 -1.37443,-0.376714 -0.70328,-0.169586 -1.300175,-0.341761 -1.78783,-0.5107 -0.516214,-0.182531 -1.113109,-0.508111 -1.790685,-0.973502 -0.75326,-0.523645 -1.193791,-0.814272 -1.319453,-0.872526 -0.28988,-0.136575 -0.766825,-0.427202 -1.433691,-0.87188 -0.326293,-0.225252 -0.626882,-0.437558 -0.903197,-0.632388 l -2.618914,0.172175 c -0.289879,0.02266 -1.0738394,0.163761 -2.3540227,0.427202 l -1.8492328,0.391601 c -0.2870238,0.136576 -0.4576673,0.308751 -0.5076465,0.51329 -0.03927,0.11392 -0.00571,0.354059 0.094961,0.718475 l 0.074969,0.154051 0.4519553,0.356649 c 0.3905523,0.262794 0.9738817,0.704882 1.7514163,1.332091 0.6026072,0.467981 1.3944216,0.963146 2.3740154,1.4867924 1.006726,0.523646 1.809963,0.86476 2.411856,1.023989 0.803953,0.217484 1.821388,0.381893 3.054448,0.495813 0.853217,0.0123 1.818532,-0.11392 2.900224,-0.374125 z"
   inkscape:connector-curvature="0" /><path
   id="path494"
   style="display:inline;fill:#ff9b4a;fill-rule:evenodd;stroke-width:0.679814"
   d="m 16.361789,11.599894 0.451955,-0.35859 c 0.326294,-0.283507 0.566194,-0.541122 0.716846,-0.768963 0.351283,-0.5463004 0.465522,-1.1780414 0.339859,-1.8965174 -0.07496,-0.442088 -0.169929,-0.460212 -0.281311,-0.05049 0.07496,0.01036 0.136371,0.06344 0.187065,0.154051 0.09996,0.169586 0.08068,0.43238 -0.05569,0.78644 -0.201345,0.523645 -0.630453,1.0239894 -1.28304,1.5023264 l -0.90391,0.545652 c -0.314869,0.0233 -0.63331,0.0356 -0.962458,0.0356 -0.376273,0 -0.693998,-0.01748 -0.958889,-0.05049 0.501936,0.100971 0.967457,0.181884 1.394423,0.23755 0.591182,0.01295 1.043138,-0.03301 1.355151,-0.136575 z"
   inkscape:connector-curvature="0" /><path
   id="path496"
   style="display:inline;fill:#ff9b4a;fill-rule:evenodd;stroke-width:0.679814"
   d="m 21.524648,9.4988386 c 0.2756,0.217484 0.389838,0.409725 0.339859,0.5819004 -0.03642,0.135928 -0.214911,0.330758 -0.526925,0.581254 l 0.71399,-0.394191 c 0.03927,-0.260852 -0.03071,-0.5009914 -0.206343,-0.7158874 -0.212055,-0.194829 -0.346285,-0.31328 -0.396264,-0.359237 -0.136372,-0.09061 -0.217767,-0.113273 -0.242756,-0.06796 -0.02498,0.04531 0.08139,0.169586 0.318439,0.374124 z"
   inkscape:connector-curvature="0" /><path
   id="path498"
   style="display:inline;fill:#ff9b4a;fill-rule:evenodd;stroke-width:0.679814"
   d="m 14.591096,11.258781 0.49051,-0.341114 c 0.376987,-0.263442 0.652587,-0.495814 0.828228,-0.701 0.501934,-0.5812534 0.828228,-1.2181724 0.97888,-1.9139924 0.100675,-0.419434 0.04498,-0.472511 -0.16993,-0.154052 0.01428,0.126219 -0.02499,0.295805 -0.111382,0.513289 -0.162076,0.409726 -0.476945,0.81945 -0.942466,1.229176 -0.376987,0.3307584 -0.915335,0.6090864 -1.620756,0.8369274 l -0.942467,0.257616 -0.337717,-0.0356 c -0.415542,-0.04531 -0.867497,-0.118451 -1.358008,-0.222016 l 0.604749,0.272504 c 0.94318,0.139163 1.80211,0.222662 2.580359,0.258262 z"
   inkscape:connector-curvature="0" /><path
   id="path500"
   style="display:inline;fill:#ff9b4a;fill-rule:evenodd;stroke-width:0.679814"
   d="m 13.667907,5.8779816 -0.150652,-0.222015 c -0.01142,0.184474 -0.156364,0.452445 -0.432677,0.803916 -0.31487,0.409725 -0.953891,0.818803 -1.921347,1.228528 l -1.3558654,0.513289 c -0.9674558,-0.0123 -1.7849738,-0.136575 -2.451126,-0.376714 -0.2263348,-0.08091 -0.5019347,-0.204539 -0.8282279,-0.376714 0.099958,0.103564 0.3013036,0.27315 0.6018931,0.513289 0.9817357,0.374125 2.0420101,0.609733 3.1851072,0.700351 l 0.716845,-0.308102 c 0.552629,-0.260852 1.009582,-0.518468 1.375145,-0.768963 0.563337,-0.409725 0.984591,-0.97868 1.260905,-1.706865 z"
   inkscape:connector-curvature="0" /><path
   id="path502"
   style="display:inline;fill:#ff9b4a;fill-rule:evenodd;stroke-width:0.679814"
   d="m 13.101713,8.5434606 c 0.354139,-0.217485 0.705422,-0.523645 1.056705,-0.923014 0.426965,-0.478336 0.75897,-0.983858 0.998871,-1.519802 l -0.602607,-0.359238 c -0.01428,0.0356 0.01642,0.141754 0.09211,0.323638 0.07496,0.172175 0.09996,0.286096 0.07496,0.341761 -0.362705,0.877058 -1.17951,1.618188 -2.448269,2.222095 l -1.790686,0.632388 C 10.005855,9.2159786 9.4982081,9.1350706 8.9570041,9.0211496 8.6699802,8.9654796 8.3993782,8.8897526 8.148054,8.7984876 l 0.055692,0.05308 0.6418766,0.442736 c 0.8032377,0.194182 1.5950514,0.308102 2.3733004,0.341113 z"
   inkscape:connector-curvature="0" /><path
   id="path504"
   style="display:inline;fill:#ff9b4a;fill-rule:evenodd;stroke-width:0.679814"
   d="M 13.29092,9.5849266 11.690155,10.113104 C 11.048994,10.057434 10.402119,9.9719966 9.7488185,9.8580766 l 0.6975675,0.3916024 c 0.716845,0.103559 1.425123,0.154698 2.127689,0.154698 l 0.831798,-0.374772 c 0.601893,-0.3081034 1.053848,-0.5864324 1.355152,-0.8388694 0.766824,-0.637566 1.263048,-1.360572 1.489382,-2.167077 l 0.05569,-0.222662 -0.225621,-0.154052 c -0.03642,0.04531 -0.0864,0.209717 -0.150652,0.495166 -0.06426,0.306161 -0.164931,0.568955 -0.301303,0.786439 -0.401976,0.614911 -1.180225,1.165742 -2.337601,1.656377 z"
   inkscape:connector-curvature="0" /><path
   id="path506"
   style="display:inline;fill:#ff9b4a;fill-rule:evenodd;stroke-width:0.679814"
   d="m 20.640015,10.181715 c -0.06354,0.285448 -0.451242,0.66734 -1.168087,1.145029 l 0.772536,-0.222015 c 0.339859,-0.295805 0.535492,-0.604555 0.582616,-0.923014 0.04998,-0.2504964 0.01428,-0.4653924 -0.111382,-0.6472764 -0.08925,-0.14952 -0.139229,-0.207775 -0.150652,-0.172175 l 0.01927,0.10356 c 0.147796,0 0.170644,0.238197 0.05569,0.7158874 z"
   inkscape:connector-curvature="0" /><path
   id="path508"
   style="display:inline;fill:#ff9b4a;fill-rule:evenodd;stroke-width:0.679814"
   d="m 17.982546,11.685981 c 0.766824,-0.477688 1.218779,-0.826569 1.358008,-1.041464 0.111382,-0.205187 0.175641,-0.478337 0.187065,-0.8194524 0,-0.295804 -0.025,-0.495812 -0.07568,-0.599376 -0.01927,-0.03496 -0.04427,-0.06796 -0.07496,-0.100971 -0.01713,-0.113922 -0.05283,-0.181885 -0.111382,-0.20454 l -0.207057,0.03237 c 0.137086,0.04855 0.245613,0.104216 0.318439,0.172176 0.01071,0.106153 0.0057,0.247906 -0.01713,0.427201 -0.08925,0.5916104 -0.415542,1.1204334 -0.981735,1.5877664 l -0.808237,0.528823 c -0.251324,0.02266 -0.535492,0.06278 -0.848219,0.118452 l -0.206344,0.0712 c 0.563339,-0.04855 1.054563,-0.104215 1.467249,-0.172176 z"
   inkscape:connector-curvature="0" /><path
   id="path510"
   style="display:inline;fill:#c25b10;fill-rule:evenodd;stroke-width:0.679814"
   d="m 19.75324,9.6710146 c 0.354138,0.04531 0.886775,0.0835 1.60362,0.118451 0.387696,0.03301 0.839652,0.0052 1.355867,-0.08544 -0.125663,-0.28351 -0.441246,-0.513293 -0.943181,-0.682879 -0.212055,-0.08091 -0.671864,-0.205186 -1.37443,-0.376714 -0.70328,-0.169586 -1.300175,-0.341761 -1.78783,-0.5107 -0.516214,-0.182531 -1.113109,-0.508111 -1.790685,-0.973502 -0.75326,-0.526234 -1.193791,-0.816861 -1.319453,-0.872526 -0.28988,-0.136575 -0.766825,-0.427202 -1.433691,-0.87188 -0.326293,-0.227841 -0.626882,-0.437558 -0.903197,-0.632388 l -0.583329,0.0356 0.187065,0.887415 c 0.125662,0.04531 0.577618,0.404546 1.358008,1.077065 0.387697,0.328816 0.915335,0.789029 1.581487,1.383227 0.591184,0.455035 1.213068,0.796149 1.866368,1.023989 0.652587,0.229783 1.380142,0.389013 2.183381,0.480279 z"
   inkscape:connector-curvature="0" /><path
   id="path512"
   style="display:inline;fill:#d16211;fill-rule:evenodd;stroke-width:0.679814"
   d="m 13.046022,4.7860286 -2.599636,0.154052 c -0.276314,0.02007 -1.0488505,0.164408 -2.3176098,0.424612 l -1.8099634,0.376714 c -0.1506518,0.126866 -0.2570362,0.286096 -0.3184393,0.478337 -0.049979,0.159229 -0.044268,0.363768 0.017136,0.616853 l 0.074969,0.118451 c 0.5412039,0.27315 1.2080701,0.427849 1.9998844,0.460213 0.9788797,0.0356 1.9577591,-0.187063 2.9366391,-0.664752 0.555484,-0.262793 1.177368,-0.581253 1.866368,-0.957967 l 0.09425,-0.356648 c 0.0507,-0.27574 0.07568,-0.485457 0.07568,-0.632388 z"
   inkscape:connector-curvature="0" /><path
   id="path514"
   style="display:inline;fill:#ffc17a;fill-rule:evenodd;stroke-width:0.679814"
   d="m 18.188888,11.599894 c 0.515501,-0.04531 0.856074,-0.108742 1.01815,-0.187063 l -0.546916,0.03301 c -0.175642,0.02266 -0.312728,0.0356 -0.412686,0.0356 -0.200632,0.02266 -0.38484,0.02266 -0.546916,0 -0.139229,-0.0233 -0.281312,-0.0356 -0.434819,-0.0356 -0.301305,0 -0.546917,-0.0052 -0.733982,-0.01553 -0.5155,-0.02266 -0.878207,-0.0576 -1.093118,-0.10356 -0.136373,-0.02266 -0.301304,-0.07314 -0.487655,-0.154052 -0.214911,-0.07832 -0.404832,-0.136575 -0.566194,-0.169586 -0.214911,-0.03496 -0.426966,-0.10356 -0.641876,-0.207128 -0.262035,-0.146938 -0.487655,-0.260211 -0.677577,-0.341121 -0.139227,-0.06861 -0.282025,-0.164407 -0.432676,-0.291273 -0.08854,-0.05502 -0.228478,-0.100974 -0.415542,-0.135929 -0.225621,-0.03301 -0.389839,-0.09644 -0.490511,-0.1877094 -0.136373,-0.148873 -0.282026,-0.295805 -0.431964,-0.442088 -0.07568,-0.0712 -0.351997,-0.348882 -0.828942,-0.839517 -0.06355,-0.07832 -0.108527,-0.128807 -0.133516,-0.151462 -0.02499,-0.0233 -0.09211,-0.06343 -0.206343,-0.121688 L 9.6181584,7.9790366 c -0.1506518,-0.103564 -0.3598508,-0.212306 -0.621885,-0.325579 -0.1399419,0.0123 -0.2091989,0.03495 -0.2091989,0.06796 l 0.019278,0.05308 0.1699295,0.187062 1.188078,1.023989 c 0.0614,0.05826 0.207058,0.172175 0.432678,0.341114 0.150652,0.11651 0.250611,0.207775 0.301304,0.275739 0.164217,0.192242 0.426252,0.364416 0.791814,0.5107014 0.162076,0.05826 0.312727,0.136575 0.451956,0.240139 0.08925,0.04596 0.194919,0.11392 0.320581,0.205186 0.111382,0.07831 0.371274,0.19936 0.772537,0.359238 0.415542,0.168938 0.70328,0.267972 0.867497,0.290626 0.07568,0.0097 0.356995,0.07832 0.84822,0.204538 0.451242,0.124278 0.777535,0.192241 0.978879,0.205186 0.892487,0.05503 1.645032,0.05049 2.259062,-0.01812 z"
   inkscape:connector-curvature="0" /><path
   id="path516"
   style="display:inline;fill:#f27922;fill-rule:evenodd;stroke-width:0.679814"
   d="m 11.500949,6.6139336 c -0.789673,0.43238 -1.350155,0.682875 -1.6764477,0.750839 -0.5526279,0.124277 -1.0545625,0.169586 -1.5058039,0.136575 -0.8317977,-0.02265 -1.4536827,-0.108742 -1.8663686,-0.255026 -0.2648901,-0.104211 -0.3148694,-0.07638 -0.1506518,0.0835 0.3262932,0.15923 0.7589709,0.285449 1.300175,0.376715 0.6882858,0.123629 1.3108847,0.118451 1.8656546,-0.01812 0.5383484,-0.136575 1.1602324,-0.363769 1.8656544,-0.682228 0.526925,-0.238197 0.928901,-0.442736 1.205214,-0.614911 0.390553,-0.262794 0.607606,-0.609086 0.658298,-1.041466 0.03856,-0.318459 0.02499,-0.508111 -0.03641,-0.563777 l -2.31761,0.118452 -0.566193,0.08609 0.661154,-0.03495 c 0.501935,-0.01036 0.892487,-0.01036 1.165231,0 0.379842,0.02265 0.605463,0.06279 0.680432,0.118451 0.112096,0.09385 0.07568,0.27315 -0.114238,0.548889 -0.237045,0.341114 -0.395551,0.5463 -0.471234,0.614264 -0.111382,0.09127 -0.342714,0.214895 -0.696853,0.376713 z"
   inkscape:connector-curvature="0" /><path
   id="path518"
   style="display:inline;fill:#f27922;fill-rule:evenodd;stroke-width:0.679814"
   d="m 13.517255,6.2546966 c 0,0.06861 0.0079,0.146931 0.01928,0.238197 0.03642,0.181884 0.100675,0.313281 0.189921,0.39419 0.150652,0.113921 0.362707,0.146932 0.638307,0.100975 l -0.130662,-0.442089 c -0.025,-0.11392 0.01356,-0.222662 0.114238,-0.326226 0.04998,-0.05567 0.13066,-0.141753 0.245612,-0.255674 0.04998,-0.09062 0.03071,-0.15923 -0.05855,-0.204539 -0.0871,-0.04596 -0.176355,-0.05049 -0.262747,-0.01812 -0.04998,0.0233 -0.08354,0.108742 -0.09425,0.255674 -0.01142,0.207128 -0.03927,0.348881 -0.07568,0.427201 -0.04998,0.103565 -0.125661,0.126219 -0.22562,0.06861 -0.12566,-0.101621 -0.24561,-0.182531 -0.359849,-0.238196 z"
   inkscape:connector-curvature="0" /><path
   id="path520"
   style="display:inline;fill:#f27922;fill-rule:evenodd;stroke-width:0.679814"
   d="m 19.282007,9.6528906 c -0.03642,-0.03496 -0.08069,-0.06796 -0.131374,-0.10356 -0.07496,-0.09061 -0.11995,-0.168938 -0.130661,-0.23755 0,-0.04531 0.01927,-0.10356 0.05569,-0.172175 0.02498,-0.04531 0.01927,-0.108742 -0.01713,-0.187063 -0.05284,-0.10356 -0.127804,-0.113273 -0.225621,-0.03496 -0.08925,0.08091 -0.14494,0.171528 -0.169929,0.27315 -0.01428,0.09061 -0.10924,0.148874 -0.284882,0.171528 -0.150652,0.02266 -0.312013,0.01812 -0.487655,-0.01748 l 0.301303,0.187062 c 0.225621,0.126219 0.381985,0.19483 0.471234,0.204539 0.147795,0.02525 0.356994,-0.0052 0.619029,-0.0835 z"
   inkscape:connector-curvature="0" /><path
   id="path522"
   style="display:inline;fill:#f27922;fill-rule:evenodd;stroke-width:0.679814"
   d="m 19.058528,8.6793886 0.131374,-0.204539 0.131373,-0.0356 c 0.0864,-0.02266 0.136373,-0.04531 0.150653,-0.06797 0.02498,-0.04531 0.01071,-0.0835 -0.03927,-0.119099 -0.04998,-0.04531 -0.131374,-0.05567 -0.242757,-0.03236 -0.100675,0.02266 -0.153507,0.108742 -0.153507,0.255027 z"
   inkscape:connector-curvature="0" /><path
   id="path524"
   style="display:inline;fill:#f27922;fill-rule:evenodd;stroke-width:0.679814"
   d="m 22.372153,9.8755526 c -0.03642,0.06861 0,0.07832 0.114238,0.03301 0.112097,-0.04531 0.189921,-0.11392 0.226336,-0.204539 0.02498,-0.113921 0,-0.210365 -0.07568,-0.291274 -0.09996,-0.09061 -0.295592,-0.19224 -0.582616,-0.305514 -0.26489,-0.104215 -0.50479,-0.182531 -0.716845,-0.240138 l -0.26489,-0.03301 0.471232,0.154051 c 0.365563,0.100971 0.636165,0.247907 0.811807,0.442736 0.07496,0.09062 0.10567,0.176706 0.09425,0.255027 -0.0021,0.02266 -0.02784,0.08608 -0.07782,0.189651 z"
   inkscape:connector-curvature="0" /><path
   id="path526"
   style="display:inline;fill:#bd7400;fill-rule:evenodd;stroke-width:0.679814"
   d="m 18.266714,10.798567 c 0.337716,-0.126218 0.577617,-0.200008 0.713989,-0.222662 0.226335,-0.0356 0.491225,0.04078 0.791814,0.222662 l 0.05641,-0.06861 c 0.03856,-0.0576 0.06354,-0.113274 0.07783,-0.171528 0.03642,-0.124278 -0.100675,-0.240139 -0.415542,-0.341762 -0.351283,-0.126219 -0.761113,-0.10356 -1.224492,0.06861 -0.516215,0.22784 -0.942467,0.409724 -1.283039,0.5463 -0.551915,0.227193 -1.135244,0.414255 -1.751417,0.563776 l -1.03457,0.24014 c -0.03927,0.01036 -0.02498,0.03301 0.03642,0.06796 0.07496,0.04596 0.139228,0.06861 0.189207,0.06861 l 1.24377,-0.258263 c 0.864642,-0.181884 1.430835,-0.31328 1.696439,-0.391601 z"
   inkscape:connector-curvature="0" /><path
   id="path528"
   style="display:inline;fill:#c7be91;fill-rule:evenodd;stroke-width:0.679814"
   d="m 17.53059,12.318369 -0.01928,0.06797 c -0.03642,0.05567 0.03856,0.06861 0.225621,0.03301 0.06426,-0.01036 0.08925,-0.05567 0.07496,-0.136576 0,-0.07832 -0.03071,-0.164407 -0.09139,-0.255672 -0.0507,-0.08091 -0.11995,-0.136576 -0.209199,-0.171528 l -0.09211,-0.03301 c -0.06426,-0.0356 -0.125663,-0.05826 -0.189923,-0.06861 -0.588327,-0.0123 -1.034569,-0.02719 -1.335874,-0.05308 -0.189921,-0.02266 -0.289879,-0.04531 -0.30416,-0.06797 l 0.03927,-0.03301 -0.320582,0.06861 c -0.0507,0.0097 -0.09496,0.04013 -0.131374,0.08544 l -0.01928,0.05114 h 1.865655 c -0.627597,0.113274 -1.079553,0.187062 -1.355866,0.222016 -0.54049,0.06861 -0.866784,0.09127 -0.981022,0.06861 l 0.09425,0.08609 c 0.0614,0.06797 0.119951,0.09579 0.170644,0.08544 l 1.280184,-0.138517 0.998156,-0.220073 -0.488368,0.151461 c -0.26489,0.149521 -0.465521,0.234961 -0.604749,0.258263 l -0.301304,0.08544 0.07496,0.05114 c 0.07568,0.03237 0.153507,0.05049 0.226335,0.05049 0.09996,-0.01036 0.284167,-0.09127 0.546201,-0.238197 0.08925,-0.05761 0.309871,-0.16635 0.658299,-0.32558 l 0.03927,0.10356 z"
   inkscape:connector-curvature="0"
   inkscape:label="path528" /><path
   id="path530"
   style="display:inline;fill:#c7be91;fill-rule:evenodd;stroke-width:0.679814"
   d="m 19.321275,11.618017 -0.848218,0.08544 h -0.582616 l 1.168087,-0.427201 c 0.351997,-0.136576 0.527638,-0.250496 0.527638,-0.341114 -0.01428,-0.06861 -0.125662,-0.149521 -0.340573,-0.24014 0,0.113921 -0.08068,0.227194 -0.245612,0.341115 -0.161362,0.10356 -0.456954,0.250495 -0.883919,0.445325 l -0.451955,0.222015 0.527637,-0.411667 c 0.0357,-0.04596 0.06641,-0.113921 0.09211,-0.205187 0.03856,-0.09061 0.04427,-0.146283 0.01928,-0.168938 -0.02499,-0.04596 -0.14494,-0.04078 -0.356995,0.01748 0.025,0.09062 0.0057,0.181884 -0.05855,0.27315 l -0.451956,0.5107 -0.01642,0.10356 0.169929,0.01748 c 0.0864,-0.02266 0.501935,-0.02266 1.240914,0 0.2399,-0.0123 0.379129,-0.03496 0.415542,-0.06796 z"
   inkscape:connector-curvature="0" /><path
   id="path532"
   style="display:inline;fill:#c7be91;fill-rule:evenodd;stroke-width:0.679814"
   d="m 18.303127,12.181795 c 0.401262,-0.09127 0.666866,-0.164408 0.791814,-0.222663 0.326294,-0.172175 0.571906,-0.387071 0.733981,-0.649864 0.06354,-0.07833 0.06926,-0.141753 0.01927,-0.187063 -0.02498,-0.02266 -0.09496,-0.05567 -0.206343,-0.100971 -0.06426,-0.0356 -0.09496,-0.03042 -0.09496,0.01489 0.01142,0.0809 0.01142,0.159229 0,0.240139 0,0.09127 -0.10567,0.205186 -0.320581,0.341761 -0.262035,0.15923 -0.446243,0.272503 -0.546916,0.341115 -0.161362,0.11392 -0.646875,0.245316 -1.450113,0.39419 -0.426966,0.09127 -1.118107,0.02783 -2.071998,-0.189652 -0.276313,-0.06796 -0.460523,-0.15923 -0.546916,-0.27315 l -0.03927,-0.154052 c -0.0864,0.02266 -0.15565,0.09127 -0.206343,0.205186 -0.0357,0.08091 -0.02498,0.148874 0.03927,0.20454 0.03642,0.02266 0.131374,0.06344 0.282026,0.12104 0.111382,0.05567 0.326292,0.108742 0.641163,0.154699 0.337716,0.05567 0.646874,0.09061 0.923187,0.100971 0.702566,0.02266 1.160234,-0.02784 1.375144,-0.154052 0.0614,-0.03301 0.287024,-0.09645 0.677577,-0.187062 z"
   inkscape:connector-curvature="0" /><path
   id="path534"
   style="display:inline;fill:#f7ce00;fill-rule:evenodd;stroke-width:0.679814"
   d="m 17.982546,10.866531 c 0.501934,-0.161819 0.923189,-0.217484 1.263047,-0.171528 0.150652,0.02266 0.301303,0.100971 0.451955,0.24014 l 0.225621,0.255026 c 0.0257,-0.181884 0.01428,-0.330757 -0.0357,-0.444678 -0.100675,-0.23755 -0.390552,-0.356648 -0.867497,-0.356648 -0.26489,0.01036 -0.583329,0.06861 -0.962458,0.169586 -0.337003,0.10356 -0.633308,0.214895 -0.883918,0.341114 -0.552629,0.250495 -1.263762,0.46798 -2.130545,0.649864 -0.237759,0.04531 -0.441246,0.09127 -0.602607,0.136574 l -0.150653,0.06797 -0.01999,0.08609 v 0.255673 l 0.13423,0.06796 c -0.114238,-0.15923 0.162076,-0.300983 0.828228,-0.427202 0.187065,-0.04531 0.672578,-0.176706 1.450112,-0.391601 0.390553,-0.09127 0.823231,-0.250495 1.300176,-0.478337 z"
   inkscape:connector-curvature="0" /><path
   id="path536"
   style="display:inline;fill:#ffff9c;fill-rule:evenodd;stroke-width:0.679814"
   d="m 17.003666,11.498919 c 0.150651,0.07831 0.25061,0.187062 0.300589,0.323638 -0.490511,-0.04531 -0.822516,-0.06344 -0.998157,-0.05049 -0.803238,0.04531 -1.138099,0.03301 -0.998157,-0.0356 0.07497,-0.04531 0.381984,-0.118452 0.923189,-0.222663 0.376272,-0.07831 0.632595,-0.0835 0.772536,-0.01489 z m -0.67829,0.359238 c 0.276314,-0.0233 0.577617,-0.01812 0.90391,0.01489 l -1.562208,0.290626 -0.866784,0.06861 c -0.06426,-0.01036 -0.11995,-0.02784 -0.170643,-0.05049 -0.09996,-0.0356 -0.139228,-0.08091 -0.114239,-0.136576 0.0507,-0.06861 0.100675,-0.108742 0.150652,-0.119098 0.04998,-0.02266 0.195634,-0.04014 0.435534,-0.05308 h 0.621885 c 0.237044,0.01295 0.437676,0.0077 0.601893,-0.01489 z m 0.884633,0.100971 -0.67829,0.341114 c -0.2756,0.10356 -0.49051,0.149521 -0.641163,0.136575 -0.602607,-0.04531 -0.847505,-0.09062 -0.733267,-0.136575 0.111383,-0.04531 0.532636,-0.108742 1.263047,-0.187063 z m 0.03856,-0.546301 c -0.04998,-0.06796 0.05569,-0.148873 0.321294,-0.240139 0.376273,-0.169585 0.582616,-0.22784 0.621885,-0.169585 0.0614,0.06602 -0.0257,0.210364 -0.26489,0.427201 l -0.491224,0.341761 z m 0.471947,0.869938 c 0.02498,0.0356 -0.0085,0.06344 -0.09496,0.08609 -0.2399,0.08091 -0.560482,0.118451 -0.962458,0.118451 h -0.262034 c -0.03927,-0.02266 0.0864,-0.100971 0.376272,-0.237549 l 0.733981,-0.359238 0.13066,0.291274 c 0.05284,0.04531 0.07854,0.07832 0.07854,0.100971 z M 19.5469,10.661989 c -0.440531,-0.148874 -0.9289,-0.09838 -1.46939,0.151461 -0.527638,0.250496 -1.255194,0.485457 -2.184094,0.700352 -0.867497,0.205186 -1.378,0.348881 -1.528652,0.427849 -0.250609,0.135928 -0.0614,0.285448 0.566194,0.444678 0.627597,0.146931 1.243771,0.200008 1.846377,0.154052 1.520084,-0.126219 2.523953,-0.502933 3.012322,-1.127554 0.27917,-0.341114 0.197775,-0.591609 -0.242757,-0.750838 z m -1.188078,0.477688 c 0.114239,-0.148873 0.169929,-0.227194 0.169929,-0.240139 0.114239,-0.10356 0.251325,-0.159229 0.415542,-0.171528 0.201346,-0.02071 0.332005,-0.0052 0.396265,0.05308 0.0614,0.05567 0.03071,0.141106 -0.09496,0.255027 -0.114239,0.10356 -0.415542,0.250495 -0.903197,0.445325 l -0.697568,0.272502 z m 0.228476,0.768964 c 0.187066,-0.01295 0.287739,-0.01812 0.301305,-0.01812 0.07568,0 0.08139,0.0233 0.01713,0.06861 -0.175641,0.136575 -0.432678,0.232372 -0.772536,0.290627 -0.0864,0.01036 -0.145654,0 -0.170644,-0.0356 -0.0357,-0.06796 -0.0664,-0.106153 -0.09211,-0.118451 -0.05284,-0.03301 -0.108527,-0.08609 -0.169929,-0.154052 l -0.05855,-0.101626 z m 0.789673,-0.24014 -0.282026,0.118451 -1.299461,-0.01489 0.939611,-0.290626 c 0.114952,-0.04596 0.301303,-0.126867 0.566193,-0.240139 0.226335,-0.09127 0.351997,-0.113921 0.376986,-0.06861 0.03856,0.06861 0.025,0.149521 -0.03642,0.240139 -0.04998,0.113921 -0.139228,0.200008 -0.26489,0.255674 z"
   inkscape:connector-curvature="0" /><path
   id="path890"
   style="display:inline;fill:#bd7400;fill-rule:evenodd;stroke-width:0.679814"
   d="m 15.192989,9.1926776 c 0.07568,-0.09061 0.13423,-0.181885 0.170643,-0.272503 0.07496,-0.205186 -0.03642,-0.434969 -0.337717,-0.682875 -0.150652,-0.126219 -0.370561,-0.217484 -0.661155,-0.275739 -0.275599,-0.05567 -0.532635,-0.06084 -0.772536,-0.01489 -0.186351,0.04531 -0.446243,0.118451 -0.772537,0.222015 -0.387696,0.136575 -0.691856,0.238198 -0.903196,0.306162 -0.70328,0.217484 -1.458681,0.354059 -2.2619192,0.409724 -0.6525864,0.04531 -1.0738403,0.06796 -1.2609055,0.06796 -0.049979,0 -0.044981,0.04855 0.016422,0.139165 0.050694,0.09127 0.1092403,0.141753 0.1706434,0.152109 l 1.5086593,-0.03301 c 1.079553,-0.02266 1.782118,-0.06861 2.108411,-0.136574 0.178498,-0.0356 0.571906,-0.119099 1.188079,-0.255674 0.440532,-0.115862 0.741835,-0.16635 0.90391,-0.154052 0.276315,0.01036 0.546203,0.222663 0.811807,0.632388 z"
   inkscape:connector-curvature="0" /><path
   id="path892"
   style="display:inline;fill:#c7be91;fill-rule:evenodd;stroke-width:0.679814"
   d="m 11.82153,10.626393 0.07497,0.495812 -0.07497,0.10356 c -0.0507,0.07832 0.03856,0.119098 0.26489,0.119098 0.0614,0 0.111382,-0.06344 0.150652,-0.187062 0.02498,-0.136575 0.01927,-0.291274 -0.01999,-0.462802 -0.0357,-0.237546 -0.124949,-0.381888 -0.264891,-0.427197 -0.0357,-0.06861 -0.09211,-0.132044 -0.167072,-0.187063 -0.666869,-0.1825314 -1.168803,-0.3469394 -1.508662,-0.4958124 -0.201345,-0.09127 -0.3013039,-0.15923 -0.3013039,-0.204539 0,-0.03301 0.016422,-0.04855 0.047124,-0.05372 l -0.3848407,0.01812 c -0.077824,0.0123 -0.1392279,0.04531 -0.1892072,0.10356 l -0.056405,0.08608 2.1284029,0.5786654 c -0.76397,-0.0097 -1.310885,-0.02783 -1.640034,-0.05049 -0.5883273,-0.04531 -0.9731677,-0.1087414 -1.1488091,-0.1870624 0.013566,0.05567 0.038555,0.113919 0.074969,0.1695864 0.049979,0.126219 0.1085263,0.189652 0.1699295,0.189652 0.1006728,0 0.611175,0.05049 1.5257956,0.151462 l 1.227347,-0.05049 c -0.315583,0.0356 -0.529779,0.06861 -0.641876,0.10356 -0.426252,0.169586 -0.68543,0.255673 -0.772537,0.255673 l -0.3955494,0.03301 0.074969,0.10356 c 0.061403,0.08091 0.1370854,0.131397 0.2263344,0.154052 0.175641,0.04531 0.415541,-0.02783 0.71399,-0.222663 0.127803,-0.06796 0.42054,-0.181884 0.886774,-0.341114 z"
   inkscape:connector-curvature="0" /><path
   id="path894"
   style="display:inline;fill:#c7be91;fill-rule:evenodd;stroke-width:0.679814"
   d="m 14.535404,8.9525386 c -0.0507,0.19483 -0.187065,0.35406 -0.415542,0.478336 -0.176355,0.10356 -0.577618,0.262794 -1.205215,0.477689 l -0.602606,0.2226634 0.753258,-0.5107004 c 0.07496,-0.05826 0.14494,-0.154699 0.206343,-0.291274 0.07496,-0.148873 0.108527,-0.249848 0.09496,-0.308103 -0.01142,-0.06861 -0.14494,-0.09127 -0.396264,-0.06861 -0.02498,0.15923 -0.09496,0.300984 -0.206343,0.42785 -0.440531,0.419434 -0.686144,0.6595724 -0.736123,0.7178274 l -0.07568,0.169587 0.209199,0.06797 c 0.112096,0 0.583329,0.126219 1.411558,0.376715 0.100675,0.01036 0.209199,0.03301 0.320581,0.06861 0.07568,0.0097 0.131374,-0.0052 0.169929,-0.05114 0.07568,-0.06796 0.125663,-0.135928 0.150653,-0.204539 -0.426253,-0.04531 -0.758258,-0.09127 -0.998159,-0.136575 l -0.66115,-0.172174 1.50866,-0.3585904 c 0.451956,-0.113921 0.70328,-0.250496 0.75326,-0.409725 0.02498,-0.113921 -0.06711,-0.278329 -0.281313,-0.495813 z"
   inkscape:connector-curvature="0" /><path
   id="path896"
   style="display:inline;fill:#c7be91;fill-rule:evenodd;stroke-width:0.679814"
   d="m 14.855986,9.6024026 c -0.06426,-0.0809 -0.109241,-0.0809 -0.131374,0 -0.02785,0.146932 -0.05855,0.283507 -0.09496,0.4097254 -0.03856,0.149522 -0.214197,0.308751 -0.526925,0.477689 -0.365562,0.172176 -0.616172,0.303572 -0.756114,0.394838 -0.237045,0.136575 -0.847506,0.204539 -1.826386,0.204539 -0.276314,0 -0.641876,-0.10356 -1.093118,-0.308103 C 10.039412,10.598559 9.6488599,10.376545 9.2583076,10.115693 8.9712838,9.9208626 8.8006403,9.7163226 8.7506611,9.4988386 c -0.02499,-0.11392 -0.019278,-0.204539 0.019277,-0.270561 -0.1142383,0.02266 -0.2256208,0.119099 -0.3398591,0.288038 -0.075683,0.126865 -0.081395,0.240785 -0.019992,0.34435 0.014279,0.03237 0.1006729,0.136575 0.2656042,0.3055144 0.1113823,0.113921 0.339859,0.263441 0.677576,0.445325 0.3512828,0.19224 0.6861438,0.341114 0.9981578,0.442089 0.778249,0.263441 1.319453,0.326227 1.620756,0.189651 0.07496,-0.03496 0.364849,-0.06797 0.867498,-0.103559 0.49051,-0.02266 0.822517,-0.06796 0.998157,-0.136575 0.376273,-0.136576 0.747547,-0.414256 1.11311,-0.836927 0.0864,-0.126219 0.11995,-0.2323724 0.09425,-0.3236374 -0.02499,-0.0479 -0.08925,-0.12622 -0.18921,-0.24014 z"
   inkscape:connector-curvature="0" /><path
   id="path898"
   style="display:inline;fill:#f7ce00;fill-rule:evenodd;stroke-width:0.679814"
   d="m 15.232258,9.2256886 c 0,-0.409725 -0.276314,-0.687406 -0.828228,-0.836927 -0.289879,-0.09062 -0.680432,-0.100975 -1.168801,-0.03301 -0.415542,0.06861 -0.797527,0.164408 -1.148809,0.291275 -0.301303,0.10097 -0.716845,0.192241 -1.24377,0.273149 -0.527638,0.07832 -1.0095808,0.12363 -1.4508264,0.136576 -0.3005896,0.0097 -0.546202,0.02719 -0.7332671,0.05049 l -0.209199,0.05308 -0.074969,0.151463 c -0.036413,0.06861 -0.061403,0.15923 -0.075683,0.27315 l -0.019277,0.154051 0.1142383,0.154051 c -0.02499,-0.135928 0.074969,-0.249848 0.3013033,-0.341114 0.2006311,-0.06796 0.4712331,-0.108743 0.8089502,-0.121041 0.2534662,0 0.8617847,-0.06861 1.8292417,-0.205186 0.276313,-0.0097 0.532635,-0.05567 0.772536,-0.136574 0.351283,-0.113274 0.658298,-0.192242 0.923188,-0.23755 0.415542,-0.08091 0.747547,-0.10356 0.998871,-0.06797 0.139229,0.02266 0.306302,0.07832 0.509789,0.168938 0.125663,0.05826 0.217767,0.136575 0.282026,0.24014 0.01142,0.0233 0.05569,0.119098 0.131374,0.291273 l 0.150652,0.5107 0.07496,-0.27315 c 0.04998,-0.205186 0.06711,-0.368947 0.05569,-0.495813 z"
   inkscape:connector-curvature="0" /><path
   id="path900"
   style="display:inline;fill:#ffff9c;fill-rule:evenodd;stroke-width:0.679814"
   d="m 10.711276,10.421853 c 0.312728,-0.02266 0.639021,-0.01748 0.978879,0.01748 l -0.942466,0.323636 c -0.340573,0.09127 -0.596895,0.108742 -0.7725359,0.05049 -0.6775761,-0.260204 -0.9424662,-0.414256 -0.7925284,-0.460212 0.089249,-0.02266 0.3155834,-0.01748 0.6782901,0.01812 0.4405312,0.03301 0.7246992,0.05049 0.8503612,0.05049 z m 0,-0.4272014 c 0.337718,0.04531 0.677576,0.1365754 1.018149,0.2731504 -0.917476,0.02266 -1.553641,0.02783 -1.9049237,0.01748 -0.2120549,-0.01295 -0.4462434,-0.04078 -0.6975678,-0.08609 l -0.3013036,-0.08609 c -0.060689,-0.03237 -0.1199502,-0.07315 -0.1699294,-0.1184524 -0.1113824,-0.09127 -0.1363721,-0.177353 -0.074969,-0.258262 0.074969,-0.100971 0.1506517,-0.15923 0.2256207,-0.168939 0.064259,-0.01294 0.2263346,0.0097 0.4912247,0.06797 0.1642176,0.03301 0.4012621,0.09579 0.7168451,0.187062 0.287024,0.09386 0.518357,0.14952 0.696854,0.172175 z m 0.923189,-0.392249 c 0.136372,0.169586 0.206342,0.376714 0.206342,0.6142644 -0.541203,-0.214896 -0.917476,-0.3462924 -1.129531,-0.3916024 -0.8532172,-0.194829 -1.2244918,-0.31328 -1.1131093,-0.359236 0.064258,-0.03496 0.2263346,-0.05826 0.4912243,-0.06796 h 0.658298 c 0.278456,-0.01294 0.454812,-0.01294 0.529781,0 0.147796,0.02266 0.267746,0.09061 0.356995,0.204538 z m 0.376272,0.5793124 -0.07496,-0.6472764 c 0,-0.136574 0.161362,-0.240139 0.488369,-0.30875 0.09996,-0.03301 0.264891,-0.0835 0.490511,-0.151462 0.175641,-0.0356 0.270602,-0.01748 0.282026,0.05049 0.04998,0.136574 -0.106385,0.346292 -0.471947,0.632387 -0.111383,0.09061 -0.270602,0.187063 -0.471233,0.2906274 z m -1.168087,0.957966 c -0.201345,-0.04531 -0.309871,-0.0809 -0.321295,-0.10356 -0.02499,-0.03301 0.156363,-0.12363 0.546916,-0.273151 l 0.998871,-0.374124 v 0.528824 c 0.03856,0.10356 0.05569,0.171527 0.05569,0.204538 0.01356,0.06797 -0.03642,0.108742 -0.150651,0.119099 -0.212055,0.02266 -0.589041,-0.01036 -1.129531,-0.101626 z m 1.525082,-0.27315 c -0.04998,-0.07056 -0.0864,-0.171528 -0.111383,-0.308102 -0.01356,-0.06861 -0.02498,-0.131397 -0.03927,-0.187062 l 0.415542,0.187062 c 0.312728,0.123629 0.527639,0.192241 0.639021,0.204538 0.214912,0.04596 0.329148,0.06861 0.340573,0.06861 0.08925,0.02266 0.08925,0.06279 0,0.118451 -0.100675,0.05826 -0.262749,0.113921 -0.488368,0.172175 -0.225621,0.05567 -0.404119,0.07832 -0.529781,0.06797 -0.100675,-0.0123 -0.156364,-0.04531 -0.167787,-0.10356 -0.02785,-0.123629 -0.04427,-0.196771 -0.05855,-0.220073 z m 2.488254,-0.548241 c 0.451955,-0.4880464 0.462665,-0.9333714 0.03642,-1.3301514 -0.441245,-0.399369 -1.015293,-0.47251 -1.732139,-0.222662 -0.716845,0.260851 -1.645745,0.43238 -2.788843,0.510699 -1.1073973,0.08091 -1.7521298,0.15923 -1.941337,0.24014 -0.340573,0.159877 -0.1813534,0.460212 0.4712331,0.9055374 0.6411625,0.455035 1.3194529,0.733363 2.0362989,0.836928 1.782117,0.262793 3.090145,-0.05049 3.918374,-0.940491 z M 14.178409,8.9020506 c 0.237045,0.03301 0.381985,0.100971 0.431964,0.205186 0.04998,0.113274 -0.02498,0.249849 -0.225621,0.409079 -0.162075,0.136575 -0.566193,0.295804 -1.205214,0.478336 l -0.923189,0.2220154 1.093119,-0.8039154 c 0.273458,-0.374125 0.552628,-0.545653 0.828941,-0.510701 z m 0.638308,0.973502 c 0.02498,0.124277 -0.01642,0.2602054 -0.130661,0.4097264 -0.112096,0.159229 -0.257036,0.267972 -0.432678,0.323637 l -0.35985,0.119099 -1.469391,-0.42526 1.207357,-0.189651 c 0.136371,-0.03237 0.381984,-0.1132744 0.733266,-0.2375514 0.290594,-0.08091 0.440532,-0.08091 0.451957,0 z"
   inkscape:connector-curvature="0" /></g>&#10;  </g>&#10;<metadata
   id="metadata1"><rdf:RDF><cc:Work><dc:format>image/svg+xml</dc:format><dc:type
         rdf:resource="http://purl.org/dc/dcmitype/StillImage" /><cc:license
         rdf:resource="http://creativecommons.org/licenses/publicdomain/" /><dc:publisher><cc:Agent
           rdf:about="http://openclipart.org/"><dc:title>Openclipart</dc:title></cc:Agent></dc:publisher></cc:Work><cc:License
       rdf:about="http://creativecommons.org/licenses/publicdomain/"><cc:permits
         rdf:resource="http://creativecommons.org/ns#Reproduction" /><cc:permits
         rdf:resource="http://creativecommons.org/ns#Distribution" /><cc:permits
         rdf:resource="http://creativecommons.org/ns#DerivativeWorks" /></cc:License></rdf:RDF></metadata></svg>
