<?xml version="1.0" encoding="UTF-8" standalone="no"?>
<!-- Created with Inkscape (http://www.inkscape.org/) -->

<svg
   id="svg2"
   xml:space="preserve"
   viewBox="0 0 37.288 18.51"
   version="1.1"
   inkscape:version="1.3 (0e150ed6c4, 2023-07-21)"
   sodipodi:docname="espagueti-cham-salmon.svg"
   xmlns:inkscape="http://www.inkscape.org/namespaces/inkscape"
   xmlns:sodipodi="http://sodipodi.sourceforge.net/DTD/sodipodi-0.dtd"
   xmlns="http://www.w3.org/2000/svg"
   xmlns:svg="http://www.w3.org/2000/svg"
   xmlns:rdf="http://www.w3.org/1999/02/22-rdf-syntax-ns#"
   xmlns:cc="http://creativecommons.org/ns#"
   xmlns:dc="http://purl.org/dc/elements/1.1/"><sodipodi:namedview
   id="namedview1"
   pagecolor="#ffffff"
   bordercolor="#000000"
   borderopacity="0.25"
   inkscape:showpageshadow="2"
   inkscape:pageopacity="0.0"
   inkscape:pagecheckerboard="0"
   inkscape:deskcolor="#d1d1d1"
   inkscape:zoom="36.311952"
   inkscape:cx="18.61646"
   inkscape:cy="9.2669213"
   inkscape:window-width="1920"
   inkscape:window-height="991"
   inkscape:window-x="-9"
   inkscape:window-y="-9"
   inkscape:window-maximized="1"
   inkscape:current-layer="g12" />&#10;  <defs
   id="defs6">&#10;    <clipPath
   id="clipPath22">&#10;      <path
   id="path24"
   d="m2-0.19176h16v7h-16v-7z"
   inkscape:connector-curvature="0" />&#10;    </clipPath>&#10;    <mask
   id="mask26">&#10;      <g
   id="g28">&#10;        <g
   id="g30"
   clip-path="url(#clipPath22)">&#10;          <path
   id="path32"
   style="fill:#000000;fill-opacity:.44140"
   d="m2-0.19176h16v7h-16v-7z"
   inkscape:connector-curvature="0" />&#10;        </g>&#10;      </g>&#10;    </mask>&#10;    <clipPath
   id="clipPath38">&#10;      <path
   id="path40"
   d="m2-0.19176h16v7h-16v-7z"
   inkscape:connector-curvature="0" />&#10;    </clipPath>&#10;    <clipPath
   id="clipPath42">&#10;      <path
   id="path44"
   d="m2 0h16v7h-16v-7z"
   inkscape:connector-curvature="0" />&#10;    </clipPath>&#10;    <linearGradient
   id="linearGradient50"
   y2="-31.002"
   gradientUnits="userSpaceOnUse"
   x2="-5.8529"
   gradientTransform="matrix(.6 -.00186 .00186 .6 17.89 22.08)"
   y1="-31.002"
   x1="-21.853">&#10;      <stop
   id="stop52"
   style="stop-color:#ffffff"
   offset="0" />&#10;      <stop
   id="stop54"
   style="stop-color:#000000"
   offset="1" />&#10;    </linearGradient>&#10;    <linearGradient
   id="linearGradient90"
   y2="10.2"
   gradientUnits="userSpaceOnUse"
   x2="46.151"
   gradientTransform="matrix(.6 0 0 -.6 5.5389e-7 14.13)"
   y1="10.2"
   x1="1.1006">&#10;      <stop
   id="stop92"
   style="stop-color:#9cadb5"
   offset="0" />&#10;      <stop
   id="stop94"
   style="stop-color:#e0e0e0"
   offset="1" />&#10;    </linearGradient>&#10;    <radialGradient
   id="radialGradient110"
   gradientUnits="userSpaceOnUse"
   cy="-21.613"
   cx="2.2554"
   gradientTransform="matrix(-.06528 -.5964 .5568 -.07032 24.901 10.986)"
   r="21.012">&#10;      <stop
   id="stop112"
   style="stop-color:#f2db8a"
   offset="0.49861497" />&#10;      <stop
   id="stop114"
   style="stop-color:#877531"
   offset="1" />&#10;    </radialGradient>&#10;    <radialGradient
   id="radialGradient128"
   gradientUnits="userSpaceOnUse"
   cy="-16.343"
   cx="1.939"
   gradientTransform="matrix(-.066 -.5964 .55576 -.07104 18.81 11.725)"
   r="2.9554">&#10;      <stop
   id="stop130"
   style="stop-color:#d4c17d"
   offset="0" />&#10;      <stop
   id="stop132"
   style="stop-color:#b3a051"
   offset="1" />&#10;    </radialGradient>&#10;    <radialGradient
   id="radialGradient146"
   gradientUnits="userSpaceOnUse"
   cy="-16.098"
   cx="7.0215"
   gradientTransform="matrix(-.066 -.59632 .55768 -.07056 18.56 11.781)"
   r="3.295">&#10;      <stop
   id="stop148"
   style="stop-color:#d4c17d"
   offset="0" />&#10;      <stop
   id="stop150"
   style="stop-color:#b3a051"
   offset="1" />&#10;    </radialGradient>&#10;    <radialGradient
   id="radialGradient164"
   gradientUnits="userSpaceOnUse"
   cy="-36.492"
   cx="4.6558"
   gradientTransform="matrix(-.06496 -.59648 .55512 -.07088 41.981 8.7714)"
   r="2.5399">&#10;      <stop
   id="stop166"
   style="stop-color:#d4c17d"
   offset="0" />&#10;      <stop
   id="stop168"
   style="stop-color:#b3a051"
   offset="1" />&#10;    </radialGradient>&#10;    <radialGradient
   id="radialGradient182"
   gradientUnits="userSpaceOnUse"
   cy="-21.334"
   cx="4.3125"
   gradientTransform="matrix(-.06528 -.5964 .55656 -.07 24.574 11.039)"
   r="19.176">&#10;      <stop
   id="stop184"
   style="stop-color:#d4c17d"
   offset="0" />&#10;      <stop
   id="stop186"
   style="stop-color:#b3a051"
   offset="1" />&#10;    </radialGradient>&#10;    <radialGradient
   id="radialGradient200"
   gradientUnits="userSpaceOnUse"
   cy="-22.418"
   cx="-0.499"
   gradientTransform="matrix(-.06544 -.5964 .55688 -.07 25.831 10.883)"
   r="19.718">&#10;      <stop
   id="stop202"
   style="stop-color:#c7b577"
   offset="0" />&#10;      <stop
   id="stop204"
   style="stop-color:#bdaa57"
   offset="1" />&#10;    </radialGradient>&#10;    <radialGradient
   id="radialGradient218"
   gradientUnits="userSpaceOnUse"
   cy="-22.026"
   cx="-.85210"
   gradientTransform="matrix(-.06544 -.5964 .55688 -.07 25.38 10.94)"
   r="19.718">&#10;      <stop
   id="stop220"
   style="stop-color:#e3d49d"
   offset="0" />&#10;      <stop
   id="stop222"
   style="stop-color:#e0ca70"
   offset="1" />&#10;    </radialGradient>&#10;    <radialGradient
   id="radialGradient236"
   gradientUnits="userSpaceOnUse"
   cy="-22.192"
   cx="-.7324"
   gradientTransform="matrix(-.06536 -.5964 .55688 -.07024 25.57 10.904)"
   r="24.445">&#10;      <stop
   id="stop238"
   style="stop-color:#e6d189"
   offset="0" />&#10;      <stop
   id="stop240"
   style="stop-color:#bdaa57"
   offset="1" />&#10;    </radialGradient>&#10;    <radialGradient
   id="radialGradient254"
   gradientUnits="userSpaceOnUse"
   cy="-21.855"
   cx="-1.0425"
   gradientTransform="matrix(-.06536 -.5964 .55688 -.07024 25.182 10.953)"
   r="24.445">&#10;      <stop
   id="stop256"
   style="stop-color:#fff6d4"
   offset="0" />&#10;      <stop
   id="stop258"
   style="stop-color:#e0ca70"
   offset="1" />&#10;    </radialGradient>&#10;    <radialGradient
   id="radialGradient272"
   gradientUnits="userSpaceOnUse"
   cy="-24.477"
   cx="4.4702"
   gradientTransform="matrix(-.06552 -.5964 .5568 -.07008 28.202 10.581)"
   r="17.982">&#10;      <stop
   id="stop274"
   style="stop-color:#d6c894"
   offset="0" />&#10;      <stop
   id="stop276"
   style="stop-color:#a89642"
   offset="1" />&#10;    </radialGradient>&#10;    <radialGradient
   id="radialGradient290"
   gradientUnits="userSpaceOnUse"
   cy="-24.129"
   cx="4.061"
   gradientTransform="matrix(-.06552 -.5964 .5568 -.07008 27.802 10.631)"
   r="17.982">&#10;      <stop
   id="stop292"
   style="stop-color:#fff6d4"
   offset="0" />&#10;      <stop
   id="stop294"
   style="stop-color:#e0ca70"
   offset="1" />&#10;    </radialGradient>&#10;    <radialGradient
   id="radialGradient308"
   gradientUnits="userSpaceOnUse"
   cy="-26.365"
   cx="4.2339"
   gradientTransform="matrix(-.06552 -.5964 .5568 -.07008 30.378 10.308)"
   r="16.486">&#10;      <stop
   id="stop310"
   style="stop-color:#fff6d4"
   offset="0" />&#10;      <stop
   id="stop312"
   style="stop-color:#e0ca70"
   offset="1" />&#10;    </radialGradient>&#10;    <clipPath
   id="clipPath454">&#10;      <path
   id="path456"
   d="m3 7.8082h14v6h-14v-6z"
   inkscape:connector-curvature="0" />&#10;    </clipPath>&#10;    <mask
   id="mask458">&#10;      <g
   id="g460">&#10;        <g
   id="g462"
   clip-path="url(#clipPath454)">&#10;          <path
   id="path464"
   style="fill:#000000;fill-opacity:.62110"
   d="m3 7.8082h14v6h-14v-6z"
   inkscape:connector-curvature="0" />&#10;        </g>&#10;      </g>&#10;    </mask>&#10;    <clipPath
   id="clipPath470">&#10;      <path
   id="path472"
   d="m3 7.8082h14v6h-14v-6z"
   inkscape:connector-curvature="0" />&#10;    </clipPath>&#10;    <clipPath
   id="clipPath474">&#10;      <path
   id="path476"
   d="m3 8h14v6h-14v-6z"
   inkscape:connector-curvature="0" />&#10;    </clipPath>&#10;    <clipPath
   id="clipPath542">&#10;      <path
   id="path544"
   d="m12 13.808h4v1h-4v-1z"
   inkscape:connector-curvature="0" />&#10;    </clipPath>&#10;    <mask
   id="mask546">&#10;      <g
   id="g548">&#10;        <g
   id="g550"
   clip-path="url(#clipPath542)">&#10;          <path
   id="path552"
   style="fill:#000000;fill-opacity:.42190"
   d="m12 13.808h4v1h-4v-1z"
   inkscape:connector-curvature="0" />&#10;        </g>&#10;      </g>&#10;    </mask>&#10;    <clipPath
   id="clipPath558">&#10;      <path
   id="path560"
   d="m12 13.808h4v1h-4v-1z"
   inkscape:connector-curvature="0" />&#10;    </clipPath>&#10;    <clipPath
   id="clipPath562">&#10;      <path
   id="path564"
   d="m12 14h4v1h-4v-1z"
   inkscape:connector-curvature="0" />&#10;    </clipPath>&#10;    <clipPath
   id="clipPath586">&#10;      <path
   id="path588"
   d="m13 12.808h3v1h-3v-1z"
   inkscape:connector-curvature="0" />&#10;    </clipPath>&#10;    <mask
   id="mask590">&#10;      <g
   id="g592">&#10;        <g
   id="g594"
   clip-path="url(#clipPath586)">&#10;          <path
   id="path596"
   style="fill:#000000;fill-opacity:.42190"
   d="m13 12.808h3v1h-3v-1z"
   inkscape:connector-curvature="0" />&#10;        </g>&#10;      </g>&#10;    </mask>&#10;    <clipPath
   id="clipPath602">&#10;      <path
   id="path604"
   d="m13 12.808h3v1h-3v-1z"
   inkscape:connector-curvature="0" />&#10;    </clipPath>&#10;    <clipPath
   id="clipPath606">&#10;      <path
   id="path608"
   d="m13 13h3v1h-3v-1z"
   inkscape:connector-curvature="0" />&#10;    </clipPath>&#10;    <clipPath
   id="clipPath630">&#10;      <path
   id="path632"
   d="m15 12.808h2v1h-2v-1z"
   inkscape:connector-curvature="0" />&#10;    </clipPath>&#10;    <mask
   id="mask634">&#10;      <g
   id="g636">&#10;        <g
   id="g638"
   clip-path="url(#clipPath630)">&#10;          <path
   id="path640"
   style="fill:#000000;fill-opacity:.42190"
   d="m15 12.808h2v1h-2v-1z"
   inkscape:connector-curvature="0" />&#10;        </g>&#10;      </g>&#10;    </mask>&#10;    <clipPath
   id="clipPath646">&#10;      <path
   id="path648"
   d="m15 12.808h2v1h-2v-1z"
   inkscape:connector-curvature="0" />&#10;    </clipPath>&#10;    <clipPath
   id="clipPath650">&#10;      <path
   id="path652"
   d="m15 13h2v1h-2v-1z"
   inkscape:connector-curvature="0" />&#10;    </clipPath>&#10;    <clipPath
   id="clipPath674">&#10;      <path
   id="path676"
   d="m15 11.808h3v2h-3v-2z"
   inkscape:connector-curvature="0" />&#10;    </clipPath>&#10;    <mask
   id="mask678">&#10;      <g
   id="g680">&#10;        <g
   id="g682"
   clip-path="url(#clipPath674)">&#10;          <path
   id="path684"
   style="fill:#000000;fill-opacity:.42190"
   d="m15 11.808h3v2h-3v-2z"
   inkscape:connector-curvature="0" />&#10;        </g>&#10;      </g>&#10;    </mask>&#10;    <clipPath
   id="clipPath690">&#10;      <path
   id="path692"
   d="m15 11.808h3v2h-3v-2z"
   inkscape:connector-curvature="0" />&#10;    </clipPath>&#10;    <clipPath
   id="clipPath694">&#10;      <path
   id="path696"
   d="m15 12h3v2h-3v-2z"
   inkscape:connector-curvature="0" />&#10;    </clipPath>&#10;    <clipPath
   id="clipPath718">&#10;      <path
   id="path720"
   d="m16 12.808h3v1h-3v-1z"
   inkscape:connector-curvature="0" />&#10;    </clipPath>&#10;    <mask
   id="mask722">&#10;      <g
   id="g724">&#10;        <g
   id="g726"
   clip-path="url(#clipPath718)">&#10;          <path
   id="path728"
   style="fill:#000000;fill-opacity:.42190"
   d="m16 12.808h3v1h-3v-1z"
   inkscape:connector-curvature="0" />&#10;        </g>&#10;      </g>&#10;    </mask>&#10;    <clipPath
   id="clipPath734">&#10;      <path
   id="path736"
   d="m16 12.808h3v1h-3v-1z"
   inkscape:connector-curvature="0" />&#10;    </clipPath>&#10;    <clipPath
   id="clipPath738">&#10;      <path
   id="path740"
   d="m16 13h3v1h-3v-1z"
   inkscape:connector-curvature="0" />&#10;    </clipPath>&#10;    <clipPath
   id="clipPath762">&#10;      <path
   id="path764"
   d="m15 13.808h3v1h-3v-1z"
   inkscape:connector-curvature="0" />&#10;    </clipPath>&#10;    <mask
   id="mask766">&#10;      <g
   id="g768">&#10;        <g
   id="g770"
   clip-path="url(#clipPath762)">&#10;          <path
   id="path772"
   style="fill:#000000;fill-opacity:.42190"
   d="m15 13.808h3v1h-3v-1z"
   inkscape:connector-curvature="0" />&#10;        </g>&#10;      </g>&#10;    </mask>&#10;    <clipPath
   id="clipPath778">&#10;      <path
   id="path780"
   d="m15 13.808h3v1h-3v-1z"
   inkscape:connector-curvature="0" />&#10;    </clipPath>&#10;    <clipPath
   id="clipPath782">&#10;      <path
   id="path784"
   d="m15 14h3v1h-3v-1z"
   inkscape:connector-curvature="0" />&#10;    </clipPath>&#10;    <clipPath
   id="clipPath806">&#10;      <path
   id="path808"
   d="m14 13.808h2v1h-2v-1z"
   inkscape:connector-curvature="0" />&#10;    </clipPath>&#10;    <mask
   id="mask810">&#10;      <g
   id="g812">&#10;        <g
   id="g814"
   clip-path="url(#clipPath806)">&#10;          <path
   id="path816"
   style="fill:#000000;fill-opacity:.42190"
   d="m14 13.808h2v1h-2v-1z"
   inkscape:connector-curvature="0" />&#10;        </g>&#10;      </g>&#10;    </mask>&#10;    <clipPath
   id="clipPath822">&#10;      <path
   id="path824"
   d="m14 13.808h2v1h-2v-1z"
   inkscape:connector-curvature="0" />&#10;    </clipPath>&#10;    <clipPath
   id="clipPath826">&#10;      <path
   id="path828"
   d="m14 14h2v1h-2v-1z"
   inkscape:connector-curvature="0" />&#10;    </clipPath>&#10;    <clipPath
   id="clipPath850">&#10;      <path
   id="path852"
   d="m12 13.808h4v1h-4v-1z"
   inkscape:connector-curvature="0" />&#10;    </clipPath>&#10;    <mask
   id="mask854">&#10;      <g
   id="g856">&#10;        <g
   id="g858"
   clip-path="url(#clipPath850)">&#10;          <path
   id="path860"
   style="fill:#000000;fill-opacity:.42190"
   d="m12 13.808h4v1h-4v-1z"
   inkscape:connector-curvature="0" />&#10;        </g>&#10;      </g>&#10;    </mask>&#10;    <clipPath
   id="clipPath866">&#10;      <path
   id="path868"
   d="m12 13.808h4v1h-4v-1z"
   inkscape:connector-curvature="0" />&#10;    </clipPath>&#10;    <clipPath
   id="clipPath870">&#10;      <path
   id="path872"
   d="m12 14h4v1h-4v-1z"
   inkscape:connector-curvature="0" />&#10;    </clipPath>&#10;    <clipPath
   id="clipPath906">&#10;      <path
   id="path908"
   d="m5 10.808h5v2h-5v-2z"
   inkscape:connector-curvature="0" />&#10;    </clipPath>&#10;    <mask
   id="mask910">&#10;      <g
   id="g912">&#10;        <g
   id="g914"
   clip-path="url(#clipPath906)">&#10;          <path
   id="path916"
   style="fill:#000000;fill-opacity:.42190"
   d="m5 10.808h5v2h-5v-2z"
   inkscape:connector-curvature="0" />&#10;        </g>&#10;      </g>&#10;    </mask>&#10;    <clipPath
   id="clipPath922">&#10;      <path
   id="path924"
   d="m5 10.808h5v2h-5v-2z"
   inkscape:connector-curvature="0" />&#10;    </clipPath>&#10;    <clipPath
   id="clipPath926">&#10;      <path
   id="path928"
   d="m5 11h5v2h-5v-2z"
   inkscape:connector-curvature="0" />&#10;    </clipPath>&#10;    <clipPath
   id="clipPath950">&#10;      <path
   id="path952"
   d="m6 10.808h4v2h-4v-2z"
   inkscape:connector-curvature="0" />&#10;    </clipPath>&#10;    <mask
   id="mask954">&#10;      <g
   id="g956">&#10;        <g
   id="g958"
   clip-path="url(#clipPath950)">&#10;          <path
   id="path960"
   style="fill:#000000;fill-opacity:.42190"
   d="m6 10.808h4v2h-4v-2z"
   inkscape:connector-curvature="0" />&#10;        </g>&#10;      </g>&#10;    </mask>&#10;    <clipPath
   id="clipPath966">&#10;      <path
   id="path968"
   d="m6 10.808h4v2h-4v-2z"
   inkscape:connector-curvature="0" />&#10;    </clipPath>&#10;    <clipPath
   id="clipPath970">&#10;      <path
   id="path972"
   d="m6 11h4v2h-4v-2z"
   inkscape:connector-curvature="0" />&#10;    </clipPath>&#10;    <clipPath
   id="clipPath994">&#10;      <path
   id="path996"
   d="m9 9.8082h2v3h-2v-3z"
   inkscape:connector-curvature="0" />&#10;    </clipPath>&#10;    <mask
   id="mask998">&#10;      <g
   id="g1000">&#10;        <g
   id="g1002"
   clip-path="url(#clipPath994)">&#10;          <path
   id="path1004"
   style="fill:#000000;fill-opacity:.42190"
   d="m9 9.8082h2v3h-2v-3z"
   inkscape:connector-curvature="0" />&#10;        </g>&#10;      </g>&#10;    </mask>&#10;    <clipPath
   id="clipPath1010">&#10;      <path
   id="path1012"
   d="m9 9.8082h2v3h-2v-3z"
   inkscape:connector-curvature="0" />&#10;    </clipPath>&#10;    <clipPath
   id="clipPath1014">&#10;      <path
   id="path1016"
   d="m9 10h2v3h-2v-3z"
   inkscape:connector-curvature="0" />&#10;    </clipPath>&#10;    <clipPath
   id="clipPath1038">&#10;      <path
   id="path1040"
   d="m9 9.8082h4v3h-4v-3z"
   inkscape:connector-curvature="0" />&#10;    </clipPath>&#10;    <mask
   id="mask1042">&#10;      <g
   id="g1044">&#10;        <g
   id="g1046"
   clip-path="url(#clipPath1038)">&#10;          <path
   id="path1048"
   style="fill:#000000;fill-opacity:.42190"
   d="m9 9.8082h4v3h-4v-3z"
   inkscape:connector-curvature="0" />&#10;        </g>&#10;      </g>&#10;    </mask>&#10;    <clipPath
   id="clipPath1054">&#10;      <path
   id="path1056"
   d="m9 9.8082h4v3h-4v-3z"
   inkscape:connector-curvature="0" />&#10;    </clipPath>&#10;    <clipPath
   id="clipPath1058">&#10;      <path
   id="path1060"
   d="m9 10h4v3h-4v-3z"
   inkscape:connector-curvature="0" />&#10;    </clipPath>&#10;    <clipPath
   id="clipPath1082">&#10;      <path
   id="path1084"
   d="m10 10.808h3v2h-3v-2z"
   inkscape:connector-curvature="0" />&#10;    </clipPath>&#10;    <mask
   id="mask1086">&#10;      <g
   id="g1088">&#10;        <g
   id="g1090"
   clip-path="url(#clipPath1082)">&#10;          <path
   id="path1092"
   style="fill:#000000;fill-opacity:.42190"
   d="m10 10.808h3v2h-3v-2z"
   inkscape:connector-curvature="0" />&#10;        </g>&#10;      </g>&#10;    </mask>&#10;    <clipPath
   id="clipPath1098">&#10;      <path
   id="path1100"
   d="m10 10.808h3v2h-3v-2z"
   inkscape:connector-curvature="0" />&#10;    </clipPath>&#10;    <clipPath
   id="clipPath1102">&#10;      <path
   id="path1104"
   d="m10 11h3v2h-3v-2z"
   inkscape:connector-curvature="0" />&#10;    </clipPath>&#10;    <clipPath
   id="clipPath1126">&#10;      <path
   id="path1128"
   d="m9 11.808h3v2h-3v-2z"
   inkscape:connector-curvature="0" />&#10;    </clipPath>&#10;    <mask
   id="mask1130">&#10;      <g
   id="g1132">&#10;        <g
   id="g1134"
   clip-path="url(#clipPath1126)">&#10;          <path
   id="path1136"
   style="fill:#000000;fill-opacity:.42190"
   d="m9 11.808h3v2h-3v-2z"
   inkscape:connector-curvature="0" />&#10;        </g>&#10;      </g>&#10;    </mask>&#10;    <clipPath
   id="clipPath1142">&#10;      <path
   id="path1144"
   d="m9 11.808h3v2h-3v-2z"
   inkscape:connector-curvature="0" />&#10;    </clipPath>&#10;    <clipPath
   id="clipPath1146">&#10;      <path
   id="path1148"
   d="m9 12h3v2h-3v-2z"
   inkscape:connector-curvature="0" />&#10;    </clipPath>&#10;    <clipPath
   id="clipPath1170">&#10;      <path
   id="path1172"
   d="m8 11.808h2v2h-2v-2z"
   inkscape:connector-curvature="0" />&#10;    </clipPath>&#10;    <mask
   id="mask1174">&#10;      <g
   id="g1176">&#10;        <g
   id="g1178"
   clip-path="url(#clipPath1170)">&#10;          <path
   id="path1180"
   style="fill:#000000;fill-opacity:.42190"
   d="m8 11.808h2v2h-2v-2z"
   inkscape:connector-curvature="0" />&#10;        </g>&#10;      </g>&#10;    </mask>&#10;    <clipPath
   id="clipPath1186">&#10;      <path
   id="path1188"
   d="m8 11.808h2v2h-2v-2z"
   inkscape:connector-curvature="0" />&#10;    </clipPath>&#10;    <clipPath
   id="clipPath1190">&#10;      <path
   id="path1192"
   d="m8 12h2v2h-2v-2z"
   inkscape:connector-curvature="0" />&#10;    </clipPath>&#10;    <clipPath
   id="clipPath1214">&#10;      <path
   id="path1216"
   d="m6 11.808h4v1h-4v-1z"
   inkscape:connector-curvature="0" />&#10;    </clipPath>&#10;    <mask
   id="mask1218">&#10;      <g
   id="g1220">&#10;        <g
   id="g1222"
   clip-path="url(#clipPath1214)">&#10;          <path
   id="path1224"
   style="fill:#000000;fill-opacity:.42190"
   d="m6 11.808h4v1h-4v-1z"
   inkscape:connector-curvature="0" />&#10;        </g>&#10;      </g>&#10;    </mask>&#10;    <clipPath
   id="clipPath1230">&#10;      <path
   id="path1232"
   d="m6 11.808h4v1h-4v-1z"
   inkscape:connector-curvature="0" />&#10;    </clipPath>&#10;    <clipPath
   id="clipPath1234">&#10;      <path
   id="path1236"
   d="m6 12h4v1h-4v-1z"
   inkscape:connector-curvature="0" />&#10;    </clipPath>&#10;  </defs>&#10;  <g
   id="g10"
   transform="matrix(1.25 0 0 -1.25 0 18.51)">&#10;    <g
   id="g12">&#10;      <path
   id="path14"
   style="display:inline;fill:#d7eaf2;fill-rule:evenodd;fill-opacity:1"
   d="m 27.93,7.351 0.121,0.028 C 27.27,5.242 25.59,3.48 23.008,2.101 20.391,0.699 17.398,0 14.039,0 10.66,0 7.648,0.711 5.008,2.129 2.41,3.531 0.738,5.308 0,7.468 L 0.238,7.441 C 1.02,6.922 2.691,6.488 5.25,6.152 7.852,5.808 10.809,5.64 14.129,5.64 c 3.262,0 6.172,0.16 8.73,0.481 2.52,0.32 4.211,0.73 5.071,1.23 z"
   inkscape:connector-curvature="0" />&#10;      <path
   id="path16"
   style="fill-rule:evenodd;fill:#bdd4de"
   d="m26.82 6.902c-0.179-0.484-0.472-0.984-0.871-1.5-0.758-1.023-1.941-2.051-3.539-3.094-1.262-0.816-2.812-1.476-4.652-1.976-0.86-0.121-1.34-0.184-1.438-0.184 2.418 0.742 4.16 1.82 5.219 3.242 0.461 0.621 0.75 1.199 0.867 1.739 0.063 0.5 0.102 0.832 0.121 0.992 1.864 0.199 3.293 0.461 4.293 0.781z"
   inkscape:connector-curvature="0" />&#10;      &#10;      <path
   id="path78"
   style="display:inline;fill:#bdd4de;fill-rule:evenodd"
   d="M 2.281,4.652 C 3.547,3.152 5.148,2.007 7.078,1.214 5.43,1.824 4.012,2.621 2.82,3.601 1.441,4.742 0.5,6.031 0,7.468 L 0.238,7.441 C 0.379,7.339 0.531,7.261 0.691,7.199 1.031,6.359 1.559,5.511 2.281,4.652 Z"
   inkscape:connector-curvature="0" />&#10;      <g
   id="g80"
   style="display:inline">&#10;        <g
   id="g82">&#10;          <g
   id="g88">&#10;            <path
   id="path96"
   style="display:inline;fill:#bdd4de;fill-rule:evenodd;fill-opacity:1"
   d="m 23.73,11.609 c 2.641,-1 3.961,-2.199 3.961,-3.598 0,-1.402 -1.32,-2.589 -3.961,-3.57 -2.64,-1 -5.82,-1.5 -9.539,-1.5 -3.742,0 -6.929,0.5 -9.57,1.5 C 1.98,5.422 0.66,6.609 0.66,8.011 c 0,1.399 1.32,2.598 3.961,3.598 2.641,0.98 5.828,1.473 9.57,1.473 3.719,0 6.899,-0.493 9.539,-1.473 z"
   inkscape:connector-curvature="0" />&#10;          </g>&#10;        </g>&#10;      </g>&#10;      <path
   id="path98"
   style="display:inline;fill:#ffffff;fill-rule:evenodd"
   d="m 28.02,8.371 h -0.872 c -0.179,1.238 -1.527,2.289 -4.05,3.148 -2.496,0.86 -5.496,1.289 -8.996,1.289 -3.481,0 -6.473,-0.429 -8.973,-1.289 C 2.609,10.66 1.262,9.609 1.078,8.371 H 0.059 c 0.32,1.359 1.812,2.5 4.472,3.418 2.699,0.922 5.867,1.383 9.508,1.383 3.66,0 6.832,-0.461 9.512,-1.383 2.679,-0.918 4.168,-2.059 4.469,-3.418 z"
   inkscape:connector-curvature="0" />&#10;      <g
   id="g100"
   style="display:inline">&#10;        <g
   id="g102">&#10;          <g
   id="g108">&#10;            <path
   id="path116"
   style="fill:#c28f4c;fill-rule:evenodd;fill-opacity:1"
   d="M 26.969,6.3 C 26.07,5.781 24.77,5.211 23.07,4.589 20.609,3.691 18.5,3.23 16.742,3.211 14.82,3.191 12.723,3.281 10.441,3.48 8.359,3.679 6.77,3.91 5.672,4.168 4.77,4.39 3.891,4.73 3.031,5.187 2.27,5.589 1.879,5.871 1.859,6.031 1.84,6.109 1.961,6.257 2.219,6.48 2.52,6.738 2.68,6.898 2.699,6.961 3.02,7.859 4.289,8.629 6.512,9.269 7.09,9.429 7.68,9.91 8.281,10.711 c 0.559,0.757 1.028,1.148 1.41,1.168 1.879,0.14 3.418,0.121 4.618,-0.059 0.421,-0.059 1.07,-0.27 1.953,-0.629 0.718,-0.301 1.328,-0.441 1.828,-0.422 0.461,0.02 1.5,0.102 3.121,0.242 1.461,0.078 2.359,-0.039 2.699,-0.359 0.5,-0.48 1.031,-1.09 1.59,-1.832 C 26.16,7.98 26.48,7.41 26.461,7.109 26.441,6.89 26.629,6.742 27.031,6.66 27.289,6.601 27.27,6.48 26.969,6.3 Z"
   inkscape:connector-curvature="0" />&#10;          </g>&#10;        </g>&#10;      </g>&#10;      <g
   id="g118"
   style="display:inline">&#10;        <g
   id="g120">&#10;          <g
   id="g126">&#10;            <path
   id="path134"
   style="fill:#e2cd85;fill-rule:evenodd;fill-opacity:1"
   d="m 9.691,11.879 c 0.579,0.101 0.668,-0.04 0.27,-0.418 -0.5,-0.5 -0.68,-0.809 -0.539,-0.93 0.156,-0.16 0.5,-0.141 1.016,0.058 0.484,0.2 0.742,0.25 0.781,0.153 0.082,-0.223 -0.071,-0.41 -0.449,-0.57 -0.422,-0.18 -0.981,-0.211 -1.68,-0.09 -0.699,0.14 -0.902,0.461 -0.602,0.961 0.301,0.457 0.703,0.738 1.203,0.836 z"
   inkscape:connector-curvature="0" />&#10;          </g>&#10;        </g>&#10;      </g>&#10;      <g
   id="g136">&#10;        <g
   id="g138">&#10;          <g
   id="g144">&#10;            <path
   id="path152"
   style="fill-rule:evenodd;fill:#e2cd85;fill-opacity:1"
   d="m10.352 8.941c0.3 0.039 0.449-0.09 0.449-0.391 0-0.16-0.039-0.429-0.121-0.808-0.039-0.281-0.149-0.524-0.328-0.723-0.2-0.219-0.422-0.316-0.661-0.301-0.218 0.043-0.589 0.043-1.109 0l-0.719-0.058c0.059 0.121 0.168 0.242 0.328 0.359 0.301 0.262 0.68 0.403 1.141 0.422 0.398 0.039 0.59 0.289 0.57 0.75-0.004 0.481 0.149 0.727 0.45 0.75z"
   inkscape:connector-curvature="0" />&#10;          </g>&#10;        </g>&#10;      </g>&#10;      <g
   id="g154">&#10;        <g
   id="g156">&#10;          <g
   id="g162">&#10;            <path
   id="path170"
   style="fill-rule:evenodd;fill:#e2cd85;fill-opacity:1"
   d="m22.289 8.672c0.719-0.184 0.879-0.512 0.481-0.993-0.399-0.461-1.008-0.578-1.829-0.359-0.781 0.199-0.91 0.512-0.39 0.93 0.5 0.441 1.078 0.582 1.738 0.422z"
   inkscape:connector-curvature="0" />&#10;          </g>&#10;        </g>&#10;      </g>&#10;      <g
   id="g172">&#10;        <g
   id="g174">&#10;          <g
   id="g180">&#10;            <path
   id="path188"
   style="fill-rule:evenodd;fill:#e2c974;fill-opacity:1"
   d="m25.23 7.23c-0.382 0.199-0.882 0.488-1.5 0.871-0.699 0.438-1.16 0.719-1.382 0.84-0.657 0.398-1.618 0.551-2.879 0.449-0.641-0.101-1.16-0.172-1.559-0.211-0.719-0.078-1.262-0.039-1.621 0.121-0.16 0.059-0.359 0.239-0.598 0.539-0.16 0.18-0.55 0.262-1.171 0.243-0.54-0.02-1.27-0.16-2.192-0.422-0.918-0.258-1.578-0.399-1.98-0.418-0.778-0.063-1.309-0.133-1.586-0.211-0.485-0.121-0.84-0.359-1.082-0.719-0.379-0.543-0.672-0.91-0.871-1.109-0.34-0.344-0.719-0.543-1.141-0.602-0.5-0.082-0.969-0.211-1.41-0.39-0.5-0.18-0.758-0.34-0.781-0.481-0.055-0.156-0.055-0.308 0-0.465-0.477 0.188-0.789 0.344-0.93 0.465-0.5 0.422-0.418 0.762 0.242 1.02 0.52 0.218 1.191 0.332 2.012 0.332 0.558 0 1.008 0.117 1.347 0.359 0.161 0.117 0.403 0.379 0.723 0.777 0.16 0.204 0.387 0.512 0.688 0.934 0.339 0.316 0.871 0.469 1.589 0.449 0.661-0.039 1.301 0.059 1.922 0.301 0.317 0.141 0.739 0.316 1.258 0.539 0.461 0.121 0.809 0.18 1.051 0.18 0.34 0 0.859-0.078 1.559-0.239 0.281-0.062 0.64-0.261 1.082-0.601 0.238-0.199 0.878-0.262 1.918-0.18 0.902 0.059 1.871 0.149 2.91 0.27 0.683-0.02 1.293-0.258 1.832-0.719 0.379-0.32 1.109-0.742 2.187-1.262 0.801-0.379 1.18-0.668 1.141-0.871-0.039-0.437-0.117-0.847-0.238-1.226-0.161-0.5-0.313-0.653-0.45-0.454-0.062 0.102 0.008 0.411 0.207 0.93 0.184 0.442 0.082 0.762-0.297 0.961zm-6.871 0c-0.738 0.301-1.25 0.488-1.531 0.57-0.48 0.161-0.859 0.161-1.137 0-0.121-0.058-0.55-0.218-1.293-0.48-0.558-0.199-0.929-0.402-1.109-0.602-0.379-0.457-0.68-0.82-0.898-1.078-0.442-0.519-0.789-0.82-1.051-0.902-0.399-0.117-0.891-0.188-1.469-0.207-0.66-0.02-1.082 0.07-1.262 0.269-0.238 0.258-0.41 0.418-0.507 0.481-0.204 0.098-0.524 0.168-0.961 0.207-0.481 0.043-0.961-0.047-1.442-0.27-0.441-0.211-0.605-0.394-0.496-0.554-0.371 0.117-0.707 0.23-1.004 0.332 0.047 0.031 0.098 0.066 0.153 0.105 0.48 0.34 1.078 0.641 1.8 0.899 0.778 0.3 1.348 0.402 1.707 0.3 0.18-0.039 0.461-0.32 0.84-0.839 0.301-0.403 0.692-0.551 1.172-0.454 0.66 0.161 1.109 0.313 1.352 0.454 0.257 0.16 0.5 0.457 0.718 0.898 0.598 1.102 1.352 1.652 2.25 1.652 0.262 0 0.579 0.137 0.961 0.418 0.301 0.219 0.7 0.25 1.2 0.09 0.878-0.281 1.808-0.519 2.789-0.719 0.382-0.101 0.91-0.109 1.589-0.031 0.54 0.063 0.969-0.019 1.29-0.238 0.402-0.301 0.621-0.52 0.66-0.66 0-0.039-0.051-0.289-0.149-0.75-0.062-0.262 0.047-0.672 0.328-1.231 0.2-0.422 0.192-0.64-0.031-0.66-0.219-0.019-0.41-0.082-0.57-0.18-0.039-0.019-0.078 0.02-0.117 0.118-0.039 0.183-0.071 0.492-0.09 0.933-0.039 0.516-0.031 0.918 0.027 1.199 0.16 0.68-0.219 1.02-1.137 1.02-0.121 0-0.519-0.07-1.199-0.211-0.441-0.078-0.902-0.039-1.383 0.121zm-5.757-3.422c-0.661-0.058-1.063-0.109-1.204-0.148-0.238-0.082-0.398-0.129-0.476-0.153-0.121-0.039-0.402-0.058-0.844-0.058-0.234 0-0.605 0.055-1.109 0.164 0.265 0.059 0.758 0.191 1.469 0.406 0.722 0.242 1.273 0.36 1.652 0.36h1.168c0.34 0.062 0.64 0.25 0.902 0.57 0.32 0.383 0.84 0.672 1.559 0.871 0.781 0.199 1.351 0.16 1.711-0.121 0.34-0.258 0.781-0.481 1.32-0.66 0.398-0.117 0.738-0.188 1.02-0.207 0.218-0.02 0.488-0.071 0.808-0.153 0.34-0.078 0.551-0.16 0.629-0.238 0.121-0.082 0.133-0.254 0.031-0.512-0.117-0.242-0.297-0.328-0.539-0.269-0.199 0.058-0.558 0.219-1.078 0.48-0.641 0.34-1.09 0.559-1.351 0.66-0.602 0.258-1.02 0.418-1.262 0.481-0.481 0.117-0.899 0.098-1.258-0.063-0.281-0.117-0.613-0.316-0.992-0.597-0.379-0.262-0.668-0.442-0.867-0.543-0.262-0.098-0.692-0.188-1.289-0.27zm-9.122 1.457c0.208-0.086 0.446-0.176 0.719-0.269-0.301-0.176-0.508-0.149-0.629 0.074-0.043 0.066-0.07 0.129-0.09 0.195zm1.723-0.601c0.293-0.086 0.609-0.184 0.949-0.285 1.188-0.356 2.125-0.614 2.817-0.762-0.031-0.008-0.063-0.012-0.09-0.016-0.418-0.062-1.117 0.059-2.098 0.36-0.902 0.3-1.422 0.527-1.558 0.687l-0.02 0.016z"
   inkscape:connector-curvature="0" />&#10;          </g>&#10;        </g>&#10;      </g>&#10;      <g
   id="g190">&#10;        <g
   id="g192">&#10;          <g
   id="g198">&#10;            <path
   id="path206"
   style="fill-rule:evenodd;fill:#a89656;fill-opacity:1"
   d="m25.352 9.3c-0.321 0.442-0.774 0.711-1.352 0.809-1.301 0.262-2.52 0.422-3.66 0.48-0.539 0.043-1.16 0.301-1.86 0.782-0.757 0.5-1.32 0.781-1.679 0.84-0.742 0.242-1.293 0.39-1.653 0.449-0.64 0.14-1.308-0.008-2.007-0.449-0.981-0.68-1.672-1.149-2.071-1.411-0.64-0.418-1.191-0.648-1.652-0.691-0.141-0.02-0.797 0.043-1.98 0.184-0.821 0.078-1.411-0.012-1.77-0.274-0.719-0.617-1.238-1.058-1.559-1.316-0.539-0.481-0.761-0.551-0.66-0.211 0.5 1.597 1.36 2.398 2.578 2.398h1.141c1.781-0.199 2.973-0.039 3.57 0.481 0.723 0.601 1.461 1.101 2.223 1.5 1.137 0.621 2.059 0.851 2.758 0.691 0.48-0.121 1.179-0.519 2.101-1.199 0.879-0.641 1.688-1.012 2.43-1.113 1.66-0.219 2.539-0.34 2.641-0.36 0.816-0.14 1.457-0.328 1.918-0.57 0.558-0.316 1.011-0.68 1.351-1.078 0.379-0.422 0.547-0.801 0.508-1.141-0.039-0.359-0.391-0.738-1.047-1.14-0.683-0.418-1.433-0.672-2.254-0.75-0.597-0.059-1.25-0.352-1.949-0.872-0.66-0.5-1.129-0.75-1.41-0.75h-0.988c-0.122 0.02-0.18 0.071-0.18 0.153 0 0.137 0.297 0.328 0.898 0.566 0.481 0.184 1.551 0.571 3.211 1.172 1.481 0.559 2.328 1.039 2.551 1.442 0.262 0.457 0.211 0.917-0.148 1.378z"
   inkscape:connector-curvature="0" />&#10;          </g>&#10;        </g>&#10;      </g>&#10;      <g
   id="g208">&#10;        <g
   id="g210">&#10;          <g
   id="g216">&#10;            <path
   id="path224"
   style="fill-rule:evenodd;fill:#e9d275;fill-opacity:1"
   d="m25.141 9.539c-0.34 0.441-0.789 0.711-1.352 0.812-1.301 0.258-2.519 0.418-3.66 0.481-0.539 0.039-1.16 0.3-1.859 0.777-0.758 0.5-1.329 0.781-1.711 0.844-0.739 0.238-1.289 0.386-1.649 0.449-0.621 0.141-1.281-0.012-1.98-0.449-1-0.684-1.692-1.153-2.071-1.41-0.64-0.422-1.199-0.653-1.679-0.692-0.141-0.019-0.789 0.039-1.953 0.18-0.84 0.082-1.43-0.012-1.77-0.27-0.719-0.621-1.238-1.058-1.559-1.32-0.539-0.48-0.757-0.551-0.66-0.211 0.5 1.602 1.364 2.399 2.582 2.399h1.141c1.777-0.2 2.969-0.051 3.57 0.453 0.637 0.578 1.379 1.09 2.219 1.527 1.141 0.621 2.059 0.852 2.758 0.691 0.461-0.121 1.16-0.519 2.101-1.199 0.879-0.64 1.692-1.012 2.43-1.113 1.699-0.219 2.582-0.34 2.641-0.359 0.8-0.141 1.429-0.329 1.89-0.571 0.559-0.316 1.02-0.679 1.379-1.078 0.383-0.422 0.551-0.801 0.512-1.141-0.039-0.359-0.391-0.738-1.051-1.14-0.699-0.418-1.449-0.668-2.25-0.75-0.621-0.059-1.269-0.352-1.953-0.871-0.66-0.5-1.137-0.75-1.437-0.75h-0.961l0.66 0.539c0.558 0.422 1.14 0.75 1.738 0.992 0.484 0.18 1.27 0.43 2.371 0.75 0.922 0.301 1.492 0.648 1.711 1.051 0.262 0.461 0.211 0.922-0.148 1.379z"
   inkscape:connector-curvature="0" />&#10;          </g>&#10;        </g>&#10;      </g>&#10;      <g
   id="g226">&#10;        <g
   id="g228">&#10;          <g
   id="g234">&#10;            <path
   id="path242"
   style="fill-rule:evenodd;fill:#a5954a;fill-opacity:1"
   d="m25.199 9.031c-0.66 0-1.328 0.269-2.008 0.808-0.363 0.321-0.851 0.84-1.472 1.563-0.36 0.437-0.981 0.629-1.86 0.566-0.781-0.039-1.461-0.226-2.039-0.566-0.761-0.441-1.332-0.844-1.711-1.203-0.519-0.52-0.371-0.75 0.45-0.688 0.183 0 0.871 0.161 2.07 0.481 0.582 0.16 1.141 0 1.68-0.481 0.441-0.422 0.933-0.922 1.472-1.5 0.442-0.359 0.989-0.5 1.649-0.422 0.82 0.102 1.511-0.097 2.07-0.597 0.582-0.52 0.453-0.961-0.391-1.32-0.738-0.321-1.199-0.442-1.379-0.36l-0.031 0.176 0.75 0.453c0.383 0.34 0.332 0.598-0.148 0.777-0.321 0.141-0.84 0.231-1.559 0.274-0.562 0.019-0.992 0.16-1.293 0.418-0.5 0.539-0.879 0.941-1.14 1.199-0.457 0.48-0.911 0.742-1.348 0.781-0.359 0.039-0.852-0.011-1.469-0.148-0.742-0.141-1.371-0.211-1.89-0.211-0.301 0-0.891-0.09-1.774-0.27-0.418-0.101-0.719 0.02-0.898 0.36-0.059 0.117-0.301 0.687-0.719 1.711-0.32 0.777-0.59 1.257-0.813 1.437-0.418 0.379-0.898 0.61-1.437 0.692-0.723 0.097-1.16-0.262-1.32-1.082-0.141-0.801 0.109-1.508 0.75-2.129 0.359-0.36 0.918-0.832 1.679-1.411 1.039-1.101 1.391-1.832 1.051-2.191-0.398-0.398-0.648-0.629-0.75-0.687-0.461-0.219-1.07-0.211-1.832 0.027-0.738 0.242-1.559 0.621-2.457 1.141-0.883 0.543-1.449 0.89-1.711 1.05-0.398 0.243-0.969 0.332-1.711 0.27-0.719-0.078-1.129-0.258-1.23-0.539-0.078-0.281 0.082-0.539 0.48-0.781 0.36-0.219 0.852-0.387 1.469-0.508 0.402-0.082 0.851-0.16 1.351-0.242 0.442-0.059 0.911-0.188 1.411-0.391 0.16-0.059 0.73-0.52 1.711-1.379 0.66-0.578 1.308-0.719 1.949-0.418 0.363 0.156 0.972 0.738 1.832 1.738 0.699 0.821 1.508 1.289 2.429 1.41 0.801 0.083 1.551 0.172 2.25 0.27 0.418-0.02 1.059-0.238 1.918-0.66 0.704-0.34 1.332-0.559 1.891-0.66 0.32-0.059 0.52-0.157 0.602-0.297 0.179-0.32 0.808-0.703 1.886-1.141l-1.347-0.39c0.019 0.101-0.032 0.218-0.153 0.359-0.218 0.281-0.636 0.539-1.257 0.781-0.102 0.039-0.711 0.309-1.829 0.809-0.601 0.262-1.152 0.41-1.652 0.453-0.582 0.039-1.211-0.02-1.891-0.184-0.64-0.136-1.168-0.34-1.589-0.597-0.301-0.18-0.68-0.539-1.141-1.082-0.48-0.559-0.75-0.86-0.809-0.899-0.718-0.601-1.55-0.762-2.488-0.48-0.422 0.121-0.902 0.398-1.441 0.84-0.52 0.441-1.051 0.73-1.59 0.871-1.063 0.257-1.844 0.457-2.344 0.597-0.898 0.243-1.539 0.481-1.918 0.719-0.918 0.582-1.359 1.141-1.32 1.684 0.082 0.679 0.699 1.117 1.859 1.316s2.113 0.063 2.852-0.418c0.48-0.32 1.121-0.82 1.922-1.5 0.82-0.558 1.777-0.918 2.879-1.082 1.16-0.16 1.398 0.191 0.718 1.051-0.218 0.281-1.031 1.082-2.429 2.402-0.782 0.738-1.2 1.387-1.262 1.949-0.059 0.622 0.281 1.239 1.023 1.86 0.719 0.582 1.508 0.699 2.368 0.359 0.781-0.32 1.41-0.918 1.89-1.801 0.039-0.058 0.219-0.75 0.539-2.066 0.102-0.422 0.543-0.363 1.321 0.18 1.679 1.136 2.812 1.859 3.39 2.16 1.399 0.719 2.469 0.918 3.211 0.597 0.617-0.277 1.012-0.609 1.172-0.988 0.238-0.519 0.527-0.922 0.867-1.199 1-0.863 2.133-1.121 3.391-0.781 0.379 0.117 0.879-0.063 1.5-0.539 0.621-0.481 0.969-0.711 1.051-0.692 0.359 0.121 0.589 0.141 0.691 0.059 0.039-0.039 0.047-0.09 0.027-0.149 0-0.519-0.148-0.781-0.449-0.781-0.121 0-0.351 0.18-0.691 0.539-0.34 0.403-0.641 0.641-0.899 0.723-0.281 0.058-0.609 0.078-0.988 0.058-0.742-0.039-1.273-0.058-1.594-0.058z"
   inkscape:connector-curvature="0" />&#10;          </g>&#10;        </g>&#10;      </g>&#10;      <g
   id="g244">&#10;        <g
   id="g246">&#10;          <g
   id="g252">&#10;            <path
   id="path260"
   style="fill-rule:evenodd;fill:#f1de91;fill-opacity:1"
   d="m25.02 9.211c-0.661 0-1.329 0.281-2.012 0.839-0.34 0.282-0.828 0.789-1.469 1.532-0.359 0.437-0.98 0.629-1.859 0.57-0.801-0.043-1.481-0.23-2.039-0.57-0.782-0.442-1.352-0.84-1.711-1.203-0.5-0.5-0.352-0.731 0.449-0.688 0.18 0 0.883 0.16 2.101 0.481 0.579 0.16 1.129 0 1.649-0.481 0.441-0.422 0.93-0.922 1.473-1.5 0.457-0.359 1.007-0.5 1.648-0.422 0.82 0.121 1.512-0.078 2.07-0.597 0.582-0.5 0.45-0.93-0.39-1.29-0.739-0.32-1.2-0.453-1.379-0.39l-0.031 0.18 0.75 0.449c0.382 0.34 0.332 0.609-0.149 0.808-0.34 0.141-0.851 0.231-1.531 0.274-0.582 0.015-1.012 0.148-1.289 0.386-0.5 0.543-0.879 0.954-1.141 1.231-0.48 0.48-0.93 0.742-1.351 0.781-0.36 0.02-0.86-0.031-1.5-0.152-0.719-0.16-1.352-0.238-1.887-0.238-0.301 0-0.891-0.09-1.774-0.27-0.418-0.082-0.718 0.039-0.898 0.359-0.039 0.079-0.281 0.649-0.719 1.711-0.32 0.758-0.59 1.239-0.812 1.438-0.418 0.402-0.899 0.633-1.442 0.691-0.718 0.121-1.156-0.238-1.316-1.082-0.141-0.777 0.109-1.48 0.75-2.097 0.359-0.36 0.918-0.832 1.68-1.411 1.019-1.14 1.371-1.871 1.05-2.191-0.359-0.398-0.609-0.641-0.75-0.719-0.461-0.218-1.07-0.211-1.832 0.032-0.738 0.257-1.558 0.64-2.457 1.136-0.882 0.563-1.453 0.922-1.711 1.082-0.402 0.219-0.968 0.301-1.711 0.242-0.718-0.082-1.128-0.261-1.23-0.543-0.078-0.281 0.082-0.539 0.48-0.781 0.36-0.219 0.852-0.386 1.469-0.508 0.403-0.082 0.852-0.16 1.352-0.242 0.441-0.058 0.91-0.187 1.41-0.386 0.18-0.063 0.75-0.512 1.711-1.352 0.66-0.602 1.308-0.75 1.949-0.449 0.359 0.179 0.973 0.758 1.832 1.738 0.699 0.82 1.508 1.289 2.43 1.41 1.48 0.18 2.23 0.27 2.25 0.27 0.398 0 1.039-0.219 1.918-0.66 0.703-0.34 1.332-0.559 1.89-0.661 0.321-0.058 0.52-0.16 0.602-0.296 0.18-0.301 0.809-0.684 1.887-1.141l-1.352-0.359c0.024 0.097-0.027 0.218-0.148 0.359-0.219 0.281-0.641 0.539-1.258 0.777-0.883 0.383-1.492 0.641-1.832 0.781-0.598 0.262-1.149 0.411-1.649 0.454-0.601 0.039-1.23-0.012-1.89-0.153-0.641-0.16-1.172-0.359-1.59-0.601-0.301-0.18-0.68-0.539-1.141-1.078-0.48-0.582-0.75-0.891-0.808-0.93-0.723-0.602-1.551-0.762-2.492-0.481-0.399 0.118-0.879 0.411-1.442 0.872-0.519 0.437-1.051 0.718-1.59 0.839-1.058 0.258-1.84 0.457-2.34 0.598-0.898 0.262-1.539 0.512-1.918 0.75-0.941 0.582-1.378 1.129-1.32 1.652 0.078 0.68 0.699 1.118 1.86 1.321 1.16 0.218 2.109 0.086 2.851-0.391 0.481-0.32 1.121-0.832 1.918-1.531 0.82-0.559 1.781-0.91 2.883-1.051 1.16-0.16 1.398 0.18 0.719 1.02-0.223 0.281-1.032 1.082-2.43 2.402-0.781 0.738-1.199 1.398-1.262 1.98-0.058 0.618 0.281 1.227 1.02 1.828 0.719 0.583 1.511 0.7 2.371 0.36 0.781-0.32 1.41-0.91 1.89-1.77 0.04-0.058 0.219-0.75 0.54-2.07 0.101-0.418 0.539-0.371 1.32 0.152 1.719 1.157 2.851 1.879 3.39 2.157 1.399 0.742 2.469 0.941 3.211 0.601 0.618-0.281 1.008-0.609 1.168-0.988 0.243-0.52 0.532-0.922 0.871-1.199 1.02-0.883 2.149-1.133 3.391-0.754 0.457 0.121 0.899 0.09 1.32-0.09 0.399-0.18 0.668-0.438 0.809-0.777 0.18-0.442 0.559-0.602 1.141-0.481 0-0.5-0.149-0.75-0.45-0.75-0.121 0-0.351 0.18-0.691 0.539-0.34 0.399-0.641 0.629-0.898 0.688-0.282 0.062-0.614 0.082-0.993 0.062-0.738-0.039-1.269-0.058-1.589-0.058z"
   inkscape:connector-curvature="0" />&#10;          </g>&#10;        </g>&#10;      </g>&#10;      <g
   id="g262">&#10;        <g
   id="g264">&#10;          <g
   id="g270">&#10;            <path
   id="path278"
   style="fill-rule:evenodd;fill:#c3b26b;fill-opacity:1"
   d="m25.5 8.308c0.539-0.238 0.91-0.496 1.109-0.777 0.262-0.34 0.313-0.77 0.153-1.289-0.082-0.262-0.184-0.481-0.301-0.66l-0.961-0.512 0.629 1.199c0.281 0.5 0.031 1.02-0.75 1.563-0.18 0.117-0.887 0.5-2.129 1.136-0.559 0.481-0.988 0.774-1.289 0.871-0.481 0.122-1.399-0.179-2.762-0.898-1.277-0.699-2.59-1.051-3.929-1.051h-2.161c-0.297-0.14-0.816-0.082-1.558 0.18-0.86 0.301-1.559 0.441-2.098 0.418-0.703-0.02-1.293-0.27-1.773-0.75-0.078-0.098-0.36-0.5-0.84-1.199-0.141-0.219-0.387-0.52-0.75-0.899-0.258-0.34-0.301-0.722-0.117-1.14 0.179-0.422 0.699-0.782 1.558-1.082 0.418-0.141 0.821-0.239 1.199-0.301-0.281-0.059-1.019 0.062-2.218 0.363-1.582 0.418-2.039 1.117-1.383 2.098 0.164 0.242 0.371 0.461 0.633 0.66 0.218 0.16 0.461 0.48 0.718 0.961 0.442 0.781 1.122 1.359 2.04 1.738 1.121 0.481 2.261 0.442 3.421-0.117 0.36-0.16 0.719-0.262 1.079-0.301 0.203-0.019 0.632-0.031 1.289-0.031 1.543 0 2.621 0.152 3.242 0.453 0.258 0.098 0.871 0.367 1.828 0.809 0.922 0.379 1.613 0.57 2.07 0.57 0.52 0 0.961-0.102 1.321-0.301 0.218-0.101 0.64-0.398 1.261-0.898 0.321-0.262 0.809-0.532 1.469-0.813z"
   inkscape:connector-curvature="0" />&#10;          </g>&#10;        </g>&#10;      </g>&#10;      <g
   id="g280">&#10;        <g
   id="g282">&#10;          <g
   id="g288">&#10;            <path
   id="path296"
   style="fill-rule:evenodd;fill:#e9d892;fill-opacity:1"
   d="m25.352 8.609c0.519-0.238 0.886-0.5 1.109-0.777 0.238-0.344 0.281-0.77 0.117-1.293-0.078-0.258-0.18-0.481-0.297-0.66l-0.961-0.54 0.629 1.2c0.281 0.523 0.031 1.05-0.75 1.59-0.199 0.14-0.91 0.519-2.129 1.14-0.558 0.481-0.992 0.762-1.289 0.84-0.48 0.121-1.402-0.18-2.761-0.898-1.282-0.68-2.59-1.02-3.93-1.02-1.399 0-2.121-0.012-2.16-0.031-0.301-0.141-0.821-0.078-1.559 0.179-0.879 0.301-1.578 0.454-2.101 0.454-0.7-0.02-1.278-0.282-1.739-0.782-0.261-0.261-0.551-0.648-0.871-1.172-0.14-0.218-0.39-0.519-0.75-0.898-0.238-0.359-0.269-0.75-0.09-1.172 0.18-0.418 0.692-0.769 1.532-1.051 0.418-0.156 0.82-0.269 1.199-0.328-0.281-0.058-1.02 0.071-2.219 0.391-1.562 0.418-2.023 1.121-1.383 2.098 0.16 0.222 0.371 0.433 0.629 0.632 0.223 0.18 0.461 0.508 0.723 0.989 0.437 0.781 1.121 1.359 2.039 1.742 1.121 0.457 2.262 0.418 3.422-0.121 0.359-0.18 0.718-0.282 1.078-0.301 0.14-0.02 0.57-0.031 1.289-0.031 1.519 0 2.601 0.14 3.242 0.422 0.258 0.101 0.871 0.371 1.828 0.808 0.922 0.383 1.621 0.57 2.102 0.57 0.519 0 0.949-0.089 1.289-0.269 0.238-0.117 0.672-0.43 1.289-0.93 0.32-0.261 0.812-0.519 1.473-0.781z"
   inkscape:connector-curvature="0" />&#10;          </g>&#10;        </g>&#10;      </g>&#10;      <g
   id="g298">&#10;        <g
   id="g300">&#10;          <g
   id="g306">&#10;            <path
   id="path314"
   style="fill-rule:evenodd;fill:#e7d17b;fill-opacity:1"
   d="m25.949 6.539c-0.418 0.64-1 1.402-1.738 2.281-0.383 0.422-0.672 0.68-0.871 0.781-0.301 0.16-0.649 0.129-1.051-0.09-0.519-0.3-0.969-0.648-1.348-1.05-0.461-0.5-0.664-0.961-0.601-1.379 0.238-1.481 0.359-2.41 0.359-2.793 0-0.957-1.558-1.379-4.679-1.258-0.282 0-0.329 0.512-0.153 1.531 0.203 1.141-0.07 1.899-0.808 2.277-0.762 0.383-1.442 0.372-2.039-0.027-0.883-0.582-1.461-0.89-1.743-0.93-0.738-0.14-1.429-0.41-2.07-0.812-0.578-0.34-0.98-0.688-1.199-1.051-0.262-0.437-0.59-0.609-0.988-0.508 0.078 0.219 0.218 0.469 0.418 0.75 0.398 0.559 0.878 0.981 1.441 1.258 0.238 0.102 0.949 0.383 2.129 0.84 0.82 0.344 1.379 0.633 1.68 0.871 0.359 0.32 0.851 0.5 1.468 0.539 0.621 0.02 1.153-0.109 1.59-0.387 0.844-0.562 1.262-1.441 1.262-2.64 0-0.66 0.012-1.012 0.031-1.051 0.059-0.18 0.359-0.289 0.899-0.332 0.679-0.039 1.261 0.09 1.738 0.391 0.543 0.339 0.722 0.789 0.543 1.351-0.301 0.719-0.5 1.238-0.602 1.559-0.14 0.543-0.051 1.039 0.274 1.5 0.515 0.801 1.199 1.41 2.039 1.832 1.097 0.558 1.949 0.398 2.547-0.481 0.621-0.882 1.043-1.441 1.261-1.679 0.059-0.063 0.219-0.192 0.481-0.391 0.261-0.18 0.39-0.652 0.39-1.41l-0.418-0.375c0.09 0.211 0.012 0.508-0.242 0.883z"
   inkscape:connector-curvature="0" />&#10;          </g>&#10;        </g>&#10;      </g>&#10;      <path
   id="path316"
   style="fill-rule:evenodd;fill:#ffffff"
   d="m9.27 13.679c0.179 0 0.179-0.058 0-0.179-0.418-0.239-0.668-0.391-0.75-0.45-0.399-0.281-0.598-0.902-0.598-1.859 0-0.203-0.063-0.191-0.184 0.027-0.097 0.223-0.14 0.52-0.117 0.903 0.02 0.418 0.219 0.789 0.598 1.109 0.34 0.301 0.691 0.449 1.051 0.449z"
   inkscape:connector-curvature="0" />&#10;      <path
   id="path318"
   style="fill-rule:evenodd;fill:#ffffff"
   d="m2.641 9.121c0.437 0 0.82-0.071 1.14-0.211 0.321-0.141 0.36-0.211 0.117-0.211-0.078 0-0.406-0.082-0.988-0.238-0.558-0.141-0.969-0.2-1.23-0.184-0.36 0.02-0.379 0.16-0.059 0.422 0.32 0.281 0.66 0.422 1.02 0.422z"
   inkscape:connector-curvature="0" />&#10;      <path
   id="path320"
   style="fill-rule:evenodd;fill:#ffffff"
   d="m12.48 11.672c0.18-0.524 0.211-0.782 0.09-0.782-0.14 0-0.25 0.168-0.332 0.512-0.058 0.297-0.058 0.488 0 0.566 0.063 0.063 0.141-0.039 0.242-0.296z"
   inkscape:connector-curvature="0" />&#10;      <path
   id="path322"
   style="fill-rule:evenodd;fill:#ffffff"
   d="m15.211 13.558c0.258-0.019 0.457-0.117 0.598-0.297 0.121-0.183 0.043-0.222-0.239-0.121-0.179 0.059-0.461 0.071-0.84 0.032-0.382-0.043-0.609-0.043-0.691 0-0.16 0.039-0.07 0.117 0.27 0.238 0.343 0.121 0.64 0.172 0.902 0.148z"
   inkscape:connector-curvature="0" />&#10;      <path
   id="path324"
   style="fill-rule:evenodd;fill:#ffffff"
   d="m20.52 12.961c0.261-0.082 0.378-0.18 0.359-0.301-0.02-0.121-0.16-0.129-0.418-0.031-0.184 0.082-0.512 0.043-0.992-0.118-0.438-0.14-0.707-0.179-0.809-0.121-0.16 0.098 0.039 0.239 0.598 0.418 0.543 0.18 0.961 0.231 1.262 0.153z"
   inkscape:connector-curvature="0" />&#10;      <path
   id="path326"
   style="fill-rule:evenodd;fill:#ffffff"
   d="m14.492 9.961c0.356 0.101 0.488 0.027 0.387-0.211-0.098-0.243-0.328-0.36-0.688-0.36-0.343 0-0.421 0.078-0.242 0.239 0.141 0.16 0.321 0.273 0.543 0.332z"
   inkscape:connector-curvature="0" />&#10;      <path
   id="path328"
   style="fill-rule:evenodd;fill:#ffffff"
   d="m26.879 9.871c0.5-0.02 0.613-0.102 0.332-0.242-0.281-0.118-0.551-0.168-0.813-0.149-0.218 0.02-0.25 0.09-0.089 0.211 0.14 0.141 0.332 0.199 0.57 0.18z"
   inkscape:connector-curvature="0" />&#10;      <path
   id="path330"
   style="fill-rule:evenodd;fill:#ffffff"
   d="m10.051 9.3c0.398-0.082 0.488-0.14 0.269-0.179-0.218-0.043-0.48-0.032-0.781 0.027-0.199 0.043-0.539-0.008-1.019-0.148-0.34-0.082-0.469-0.09-0.391-0.032 0.164 0.141 0.453 0.243 0.871 0.301 0.422 0.082 0.77 0.09 1.051 0.031z"
   inkscape:connector-curvature="0" />&#10;      <path
   id="path332"
   style="fill-rule:evenodd;fill:#ffffff"
   d="m4.98 10.769c0.282 0.063 0.461 0.07 0.54 0.031 0.082-0.039 0-0.101-0.239-0.179-0.16-0.063-0.371-0.242-0.629-0.543-0.222-0.239-0.371-0.317-0.453-0.239-0.097 0.102-0.027 0.27 0.211 0.512 0.219 0.238 0.41 0.379 0.57 0.418z"
   inkscape:connector-curvature="0" />&#10;      <path
   id="path334"
   style="fill-rule:evenodd;fill:#ffffff"
   d="m15.422 7.32c0.156-0.082 0.34-0.219 0.539-0.418 0.18-0.223 0.289-0.422 0.328-0.602 0.059-0.3-0.129-0.16-0.57 0.418-0.117 0.184-0.36 0.321-0.719 0.422-0.379 0.117-0.59 0.199-0.629 0.239-0.101 0.101-0.031 0.152 0.207 0.152 0.262-0.02 0.543-0.09 0.844-0.211z"
   inkscape:connector-curvature="0" />&#10;      <path
   id="path336"
   style="fill-rule:evenodd;fill:#ffffff"
   d="m17.672 7.082c0.359-0.02 0.48-0.09 0.359-0.211-0.121-0.102-0.293-0.11-0.511-0.032-0.18 0.083-0.243 0.141-0.18 0.18 0.039 0.063 0.152 0.082 0.332 0.063z"
   inkscape:connector-curvature="0" />&#10;      <path
   id="path338"
   style="fill-rule:evenodd;fill:#ffffff"
   d="m13.41 6.332c0.32 0.199 0.27 0.039-0.152-0.481-0.418-0.5-0.68-0.711-0.778-0.633-0.101 0.082-0.011 0.262 0.27 0.543 0.219 0.239 0.441 0.43 0.66 0.571z"
   inkscape:connector-curvature="0" />&#10;      <path
   id="path340"
   style="fill-rule:evenodd;fill:#ffffff"
   d="m21.629 9.66c0.262 0.121 0.25 0.051-0.027-0.211-0.422-0.379-0.711-0.641-0.872-0.781-0.199-0.2-0.351-0.45-0.453-0.75-0.117-0.379-0.187-0.579-0.207-0.598-0.121-0.242-0.152-0.051-0.09 0.57 0.02 0.278 0.258 0.629 0.719 1.051 0.383 0.379 0.692 0.617 0.93 0.719z"
   inkscape:connector-curvature="0" />&#10;      <path
   id="path342"
   style="fill-rule:evenodd;fill:#ffffff"
   d="m24.66 7.14c0.02-0.078-0.09-0.07-0.332 0.032-0.316 0.136-0.57 0.218-0.75 0.238-0.98 0.058-1.578 0.172-1.801 0.332-0.078 0.058-0.039 0.078 0.121 0.058 0.301-0.058 0.551-0.082 0.75-0.058 0.422 0.019 0.86-0.051 1.321-0.211 0.441-0.141 0.672-0.27 0.691-0.391z"
   inkscape:connector-curvature="0" />&#10;      <path
   id="path344"
   style="fill-rule:evenodd;fill:#a16b08;fill-opacity:0.99000001"
   d="m23.91 5.582c-0.219 0-0.281 0.07-0.18 0.207 0.098 0.16 0.258 0.242 0.481 0.242 0.699-0.02 0.898-0.102 0.598-0.242-0.278-0.137-0.579-0.207-0.899-0.207z"
   inkscape:connector-curvature="0" />&#10;      <path
   id="path346"
   style="fill-rule:evenodd;fill:#efdfa1"
   d="m6.871 9.152c0.418-0.02 0.449-0.113 0.09-0.273-0.34-0.18-0.582-0.188-0.723-0.028-0.238 0.238-0.027 0.34 0.633 0.301z"
   inkscape:connector-curvature="0" />&#10;      <path
   id="path348"
   style="fill-rule:evenodd;fill:#efdfa1"
   d="m4.051 7.8c0.32 0 0.59-0.058 0.808-0.179 0.203-0.121 0.27-0.223 0.211-0.301-0.039-0.082-0.258-0.141-0.66-0.18-0.398-0.043-0.699-0.031-0.898 0.028-0.219 0.043-0.262 0.16-0.121 0.363 0.121 0.18 0.339 0.269 0.66 0.269z"
   inkscape:connector-curvature="0" />&#10;      <path
   id="path350"
   style="fill-rule:evenodd;fill:#efdfa1"
   d="m9.27 8.281c0.382 0.019 0.531-0.063 0.453-0.242-0.102-0.137-0.293-0.239-0.571-0.297-0.3-0.121-0.523-0.203-0.66-0.242-0.222-0.082-0.433-0.09-0.633-0.032-0.218 0.082-0.129 0.231 0.27 0.454 0.402 0.218 0.781 0.339 1.141 0.359z"
   inkscape:connector-curvature="0" />&#10;      <path
   id="path352"
   style="fill-rule:evenodd;fill:#ffffff"
   d="m11.25 7.769c0.301-0.359 0.34-0.508 0.121-0.449-0.242 0.059-0.43 0.191-0.57 0.391-0.121 0.16-0.133 0.269-0.031 0.328 0.121 0.062 0.281-0.028 0.48-0.27z"
   inkscape:connector-curvature="0" />&#10;      <path
   id="path354"
   style="fill-rule:evenodd;fill:#ffffff"
   d="m9.238 6.48c0.641-0.16 0.981-0.281 1.024-0.359 0.039-0.039-0.114-0.071-0.453-0.09-0.278-0.039-0.598 0.019-0.961 0.18-0.36 0.14-0.586 0.289-0.688 0.449-0.058 0.14 0.008 0.172 0.211 0.09 0.539-0.18 0.828-0.27 0.867-0.27z"
   inkscape:connector-curvature="0" />&#10;      &#10;      <path
   id="path358"
   style="fill-rule:evenodd;fill:#ffffff"
   d="m14.309 11.55c0.539-0.082 0.793-0.179 0.75-0.3-0.02-0.118-0.161-0.18-0.418-0.18-0.219 0-0.481 0.031-0.782 0.09-0.339 0.058-0.539 0.129-0.597 0.211-0.102 0.097-0.043 0.168 0.179 0.211 0.239 0.039 0.528 0.027 0.868-0.032z"
   inkscape:connector-curvature="0" />&#10;      <path
   id="path360"
   style="fill-rule:evenodd;fill:#efdfa1"
   d="m17.191 10.558c1.118 0 1.438-0.058 0.957-0.179-0.617-0.161-1.027-0.231-1.226-0.211-0.223 0.019-0.293 0.089-0.215 0.211 0.102 0.121 0.262 0.179 0.484 0.179z"
   inkscape:connector-curvature="0" />&#10;      <path
   id="path362"
   style="fill-rule:evenodd;fill:#ffffff"
   d="m17.789 9.269c0.402 0.16 0.5 0.153 0.301-0.027-0.199-0.16-0.461-0.32-0.781-0.481-0.258-0.121-0.668-0.199-1.231-0.242-0.5-0.039-0.871-0.039-1.109 0-0.18 0.02-0.071 0.09 0.332 0.211 0.398 0.102 0.758 0.149 1.078 0.149 0.281 0 0.531 0.043 0.75 0.121 0.121 0.039 0.34 0.129 0.66 0.269z"
   inkscape:connector-curvature="0" />&#10;      <path
   id="path364"
   style="fill-rule:evenodd;fill:#efdfa1"
   d="m18.121 4.621c0.098 0 0.199-0.082 0.301-0.242 0.078-0.161 0.027-0.27-0.152-0.329-0.2-0.039-0.411-0.019-0.629 0.059-0.219 0.102-0.364 0.242-0.422 0.422-0.059 0.117-0.02 0.18 0.121 0.18 0.441-0.059 0.699-0.09 0.781-0.09z"
   inkscape:connector-curvature="0" />&#10;      <path
   id="path366"
   style="fill-rule:evenodd;fill:#efdfa1"
   d="m15.48 4.8c0.34 0.2 0.309-0.058-0.089-0.781-0.082-0.14-0.262-0.219-0.539-0.238-0.262-0.02-0.461 0.039-0.602 0.18-0.098 0.101 0 0.23 0.301 0.39 0.199 0.078 0.508 0.231 0.929 0.449z"
   inkscape:connector-curvature="0" />&#10;      &#10;      <path
   id="path370"
   style="fill-rule:evenodd;fill:#ffffff"
   d="m8.879 5.519c0.281 0.059 0.273-0.051-0.027-0.328-0.282-0.262-0.532-0.441-0.75-0.543-0.18-0.059-0.153 0.063 0.089 0.359 0.239 0.301 0.469 0.473 0.688 0.512z"
   inkscape:connector-curvature="0" />&#10;      <path
   id="path372"
   style="fill-rule:evenodd;fill:#ffffff"
   d="m22.23 10.41c0.879-0.258 1.399-0.649 1.559-1.168-0.16 0.18-0.551 0.398-1.168 0.66-0.66 0.258-1 0.398-1.019 0.418-0.102 0.059-0.071 0.098 0.089 0.121 0.161 0.039 0.34 0.027 0.539-0.031z"
   inkscape:connector-curvature="0" />&#10;      &#10;      &#10;      <path
   id="path378"
   style="display:inline;fill:#ffffff;fill-rule:evenodd"
   d="m 10.922,11.879 c 0.18,0.062 0.207,0.011 0.086,-0.149 -0.117,-0.141 -0.289,-0.269 -0.508,-0.391 -0.539,-0.32 -0.961,-0.449 -1.262,-0.39 -0.16,0.019 -0.14,0.082 0.063,0.183 0.179,0.079 0.367,0.129 0.57,0.149 0.117,0 0.27,0.082 0.449,0.238 0.2,0.18 0.399,0.301 0.602,0.36 z"
   inkscape:connector-curvature="0" />&#10;      <path
   id="path380"
   style="display:inline;fill:#ffffff;fill-rule:evenodd"
   d="m 27.152,8.371 h 0.868 c 0.042,-0.102 0.058,-0.25 0.058,-0.453 0,-1.457 -1.367,-2.7 -4.109,-3.719 C 21.23,3.179 17.922,2.672 14.039,2.672 10.16,2.672 6.848,3.179 4.109,4.199 1.371,5.218 0,6.461 0,7.918 L 0.059,8.371 H 1.078 V 8.129 C 1.078,6.832 2.352,5.73 4.891,4.832 7.43,3.91 10.5,3.449 14.102,3.449 c 3.621,0 6.699,0.461 9.238,1.383 2.543,0.898 3.812,2 3.812,3.297 z"
   inkscape:connector-curvature="0" />&#10;      <path
   id="path382"
   style="display:inline;fill:#d1ca90;fill-rule:evenodd;fill-opacity:1"
   d="M 7.449,12.039 C 7.246,11.964 7.09,11.839 6.973,11.664 l 0.953,0.113 C 7.742,11.89 7.586,11.98 7.449,12.039 Z m 1.11,-1.2 C 8.578,10.824 9,10.64 9.824,10.289 10.5,10 10.809,9.789 10.742,9.648 10.66,9.5 10.203,9.382 9.379,9.308 8.621,9.277 8.094,9.23 7.797,9.172 7.289,9.062 6.91,8.75 6.656,8.234 6.613,8.14 6.605,7.867 6.625,7.41 6.645,7.062 6.527,6.8 6.273,6.632 5.684,6.25 5.387,6.406 5.387,7.089 5.387,7.226 5.559,7.57 5.895,8.117 6.062,8.379 5.844,8.675 5.23,9.011 4.512,9.254 4.004,9.461 3.707,9.629 3.16,9.945 3.348,10.25 4.277,10.543 4.492,10.601 5.02,10.519 5.863,10.289 6.582,10.093 7.047,10.132 7.258,10.406 7.066,10.91 6.93,11.328 6.844,11.664 c -0.114,0.492 0.086,0.617 0.601,0.375 0.063,0.023 0.125,0.043 0.192,0.058 0.297,0.059 0.593,0.032 0.886,-0.093 -0.211,-0.563 -0.199,-0.95 0.036,-1.165 z"
   inkscape:connector-curvature="0" />&#10;      &#10;      <path
   id="path386"
   style="display:inline;fill:#d1ca90;fill-rule:evenodd;fill-opacity:1"
   d="m 19.332,10.886 c -0.105,0.5 0.191,0.77 0.887,0.797 0.527,0.016 1.035,-0.086 1.523,-0.304 0.41,0.117 0.781,0.234 1.11,0.351 0.21,0.031 0.496,-0.129 0.855,-0.48 0.395,-0.688 0.574,-0.981 0.539,-0.879 0.043,-0.117 0.184,-0.211 0.41,-0.285 0.125,-0.047 0.125,-0.192 0,-0.438 C 24.402,9.132 24.035,9.011 23.547,9.285 23.039,9.726 22.691,10 22.5,10.109 c -0.422,0.242 -0.918,0.441 -1.488,0.594 -0.614,0.152 -1.172,0.211 -1.68,0.183 z"
   inkscape:connector-curvature="0" />&#10;      <path
   id="path388"
   style="display:inline;fill:#d1ca90;fill-rule:evenodd;fill-opacity:1"
   d="m 14.422,7.433 c -0.91,0.063 -1.449,0.137 -1.617,0.231 -0.426,0.258 -0.285,0.508 0.41,0.754 0.594,0.195 1.152,0.289 1.68,0.273 0.253,0 0.742,-0.09 1.457,-0.273 0.464,-0.11 0.878,-0.055 1.238,0.16 0.379,0.457 0.652,0.754 0.824,0.89 0.231,0.196 0.684,0.153 1.359,-0.125 L 19.172,9.605 C 20.059,9.406 20.387,9.14 20.156,8.804 19.754,8.195 19.574,7.812 19.617,7.66 19.66,7.507 20.027,7.273 20.727,6.953 21.297,6.695 21.445,6.375 21.172,5.992 20.957,5.656 20.559,5.605 19.965,5.832 19.289,6.168 18.816,6.359 18.539,6.406 17.715,6.406 17.125,6.422 16.766,6.449 16.133,6.511 15.973,6.8 16.289,7.32 16.184,7.336 15.562,7.371 14.422,7.433 Z"
   inkscape:connector-curvature="0" />&#10;      <path
   id="path390"
   style="fill-rule:evenodd;fill:#d1ca90;fill-opacity:1"
   d="m23.77 8.578c0.296-0.063 0.515-0.184 0.664-0.367l0.019-0.024-0.683 0.391zm0.695-0.426c0.101-0.168 0.121-0.363 0.066-0.582-0.551-0.031-1.109 0.008-1.679 0.113-0.786 0.168-1.122 0.43-1.016 0.778 0.105 0.351 0.516 0.421 1.234 0.207 0.364-0.114 0.828-0.286 1.395-0.516z"
   inkscape:connector-curvature="0" />&#10;      <path
   id="path392"
   style="fill-rule:evenodd;fill:#d1ca90;fill-opacity:1"
   d="m20.902 4.738c0.043-0.066 0.09-0.141 0.141-0.231-0.398-0.335-1.148-0.562-2.25-0.683-1.016-0.11-1.828-0.094-2.438 0.047 0.145 0.074 0.528 0.363 1.141 0.867 0.442 0.367 0.844 0.578 1.203 0.641 0.508 0.089 0.992 0.015 1.457-0.231 0.188-0.101 0.434-0.238 0.746-0.41z"
   inkscape:connector-curvature="0" />&#10;      <path
   id="path394"
   style="display:inline;fill:#d1ca90;fill-rule:evenodd;fill-opacity:1"
   d="m 8.43,6.109 c 0.613,-0.121 1.121,-0.082 1.523,0.113 0.043,0.016 0.359,0.352 0.949,1.008 0.34,0.379 0.782,0.426 1.332,0.137 0.379,-0.231 0.379,-0.488 0,-0.778 C 12.004,6.437 11.609,6.183 11.062,5.836 11.359,5.332 11.57,5.043 11.695,4.964 11.863,4.875 12.297,4.82 12.996,4.804 14.074,4.777 14.652,4.754 14.738,4.738 15.352,4.632 15.617,4.312 15.531,3.777 12.934,3.746 10.977,3.746 9.668,3.777 8.844,3.808 8.031,3.953 7.227,4.211 6.094,4.578 5.383,4.804 5.09,4.898 5.59,4.761 5.973,4.879 6.246,5.242 6.668,5.789 6.965,6.093 7.133,6.156 7.363,6.246 7.797,6.23 8.43,6.109 Z"
   inkscape:connector-curvature="0" />&#10;      <path
   id="path396"
   style="fill-rule:evenodd;fill:#a16b08;fill-opacity:0.99000001"
   d="m11.25 5.949h-0.156c0.211 0.457 0.621 0.648 1.234 0.57 0.168-0.531-0.031-0.922-0.601-1.164 0.062-0.031 0.16-0.121 0.285-0.277 0.148-0.137 0.261-0.227 0.347-0.274-0.336-0.242-0.769-0.16-1.297 0.25-0.531 0.414-0.464 0.711 0.188 0.895z"
   inkscape:connector-curvature="0" />&#10;      <path
   id="path398"
   style="fill-rule:evenodd;fill:#a16b08;fill-opacity:0.99000001"
   d="m8.082 5.261-0.156-0.113c0.125-0.016 0.386-0.121 0.793-0.32-0.34-0.336-0.625-0.403-0.856-0.207-0.234 0.199-0.16 0.414 0.219 0.64z"
   inkscape:connector-curvature="0" />&#10;      <path
   id="path400"
   style="display:inline;fill:#a16b08;fill-rule:evenodd;fill-opacity:0.99000001"
   d="M 17.59,7.777 H 17.559 C 17.621,7.519 17.961,7.191 18.57,6.793 19.121,6.461 19.617,6.222 20.062,6.086 19.66,5.918 19.176,5.925 18.605,6.109 17.887,6.32 17.391,6.422 17.113,6.406 17.199,5.828 17.062,5.597 16.703,5.718 16.344,5.828 16.07,6.07 15.879,6.449 15.73,6.953 15.613,7.265 15.531,7.386 15.426,7.539 15,7.679 14.262,7.8 14.41,8.152 14.895,8.257 15.723,8.121 16.164,8.027 16.785,7.914 17.59,7.777 Z"
   inkscape:connector-curvature="0" />&#10;      <path
   id="path402"
   style="fill-rule:evenodd;fill:#a16b08;fill-opacity:0.99000001"
   d="m19.652 8.347-0.636 0.117c0.972-0.031 1.207-0.23 0.699-0.593-0.149-0.125-0.285-0.157-0.414-0.094-0.168 0.078-0.211 0.266-0.125 0.57 0.105 0.016 0.262 0.016 0.476 0z"
   inkscape:connector-curvature="0" />&#10;      <path
   id="path404"
   style="fill-rule:evenodd;fill:#a16b08;fill-opacity:0.99000001"
   d="m20.664 10.703c-0.316 0.105-0.551 0.242-0.699 0.41 0.359 0.121 0.824 0.144 1.394 0.07 0.219-0.031 0.493-0.066 0.825-0.113 0.011-0.055 0.043-0.148 0.097-0.277 0.063-0.153 0.082-0.274 0.063-0.364 0.633-0.14 1.086-0.445 1.363-0.918 0.25-0.484-0.055-0.562-0.918-0.226-0.234 0.078-0.457 0.242-0.668 0.504-0.254 0.304-0.453 0.5-0.601 0.593-0.149 0.09-0.434 0.2-0.856 0.321z"
   inkscape:connector-curvature="0" />&#10;      <path
   id="path406"
   style="fill-rule:evenodd;fill:#a16b08;fill-opacity:0.99000001"
   d="m11.918 10.578c0.144 0.051 0.348 0.07 0.602 0.054l-0.239-0.031c0.043-0.015 0.082-0.031 0.11-0.058 0.129-0.106 0.105-0.297-0.063-0.571-0.57 0.016-0.801 0.137-0.695 0.364 0.031 0.082 0.086 0.148 0.172 0.195l-0.078-0.012c0.066 0.028 0.128 0.047 0.191 0.059z"
   inkscape:connector-curvature="0" />&#10;      <path
   id="path408"
   style="display:inline;fill:#a16b08;fill-rule:evenodd;fill-opacity:0.99000001"
   d="M 9.762,10.382 C 10.141,10.214 10.828,9.957 11.824,9.605 11.379,9.437 10.754,9.285 9.953,9.148 9.086,8.98 8.453,8.836 8.051,8.714 7.48,8.531 7.027,8.058 6.688,7.297 6.352,6.566 6.023,6.164 5.707,6.086 5.641,7.074 5.77,7.824 6.086,8.328 c 0.402,0.609 1.16,1.011 2.281,1.211 -0.551,0.394 -0.855,0.875 -0.918,1.437 0.129,0 0.309,-0.027 0.539,-0.09 0.114,0.297 0.2,0.516 0.254,0.664 0.36,-0.503 0.863,-0.894 1.52,-1.168 z"
   inkscape:connector-curvature="0" />&#10;      <path
   id="path410"
   style="fill-rule:evenodd;fill:#a16b08;fill-opacity:0.99000001"
   d="m10.98 12.336-0.046 0.011c0.57-0.043 0.855-0.242 0.855-0.593-0.019-0.336-0.293-0.434-0.824-0.297-0.508 0.136-0.664 0.359-0.473 0.664 0.106 0.164 0.27 0.234 0.488 0.215z"
   inkscape:connector-curvature="0" />&#10;      <path
   id="path412"
   style="fill-rule:evenodd;fill:#a16b08;fill-opacity:0.99000001"
   d="m22.977 7.433-0.317 0.903c0.039-0.082 0.262-0.305 0.668-0.672 0.274-0.246 0.293-0.465 0.063-0.664-0.192-0.2-0.559-0.231-1.11-0.09-0.593 0.195-0.992 0.332-1.207 0.41 0.086 0.441 0.371 0.672 0.856 0.684 0.465 0.015 0.816-0.172 1.047-0.571z"
   inkscape:connector-curvature="0" />&#10;      <path
   id="path414"
   style="fill:#a16b08;fill-rule:evenodd;fill-opacity:0.99000001"
   d="m 12.747875,8.8175303 -0.793,0.113 c 0.277,0.246 0.613,0.313 1.016,0.207 0.402,-0.105 0.515,-0.312 0.347,-0.617 -0.105,-0.183 -0.433,-0.351 -0.98,-0.504 -0.383,-0.105 -0.774,-0.175 -1.172,-0.203 -0.086,0.336 0.039,0.602 0.379,0.801 0.336,0.18 0.738,0.25 1.203,0.203 z"
   inkscape:connector-curvature="0" />&#10;      <path
   id="path416"
   style="fill-rule:evenodd;fill:#a16b08;fill-opacity:0.99000001"
   d="m17.605 10.863c0.481-0.09 0.833-0.129 1.063-0.117 0-0.332-0.211-0.547-0.633-0.637-0.426-0.094-0.836-0.055-1.238 0.113 0.055 0.387 0.324 0.598 0.808 0.641z"
   inkscape:connector-curvature="0" />&#10;      <path
   id="path418"
   style="fill-rule:evenodd;fill:#a16b08;fill-opacity:1"
   d="m15.371 5.718h-0.238c0.265-0.023 0.523-0.093 0.777-0.203 0.445-0.199 0.625-0.465 0.539-0.801-1.14 0.059-1.984 0.29-2.535 0.684 0.148 0.215 0.348 0.344 0.602 0.391 0.273 0.058 0.558 0.039 0.855-0.071z"
   inkscape:connector-curvature="0" />&#10;      <path
   id="path420"
   style="display:inline;fill:#a16b08;fill-rule:evenodd;fill-opacity:0.99000001"
   d="M 8.398,7.089 8.082,7.207 C 8.949,7.312 9.254,7.144 9,6.703 8.746,6.277 8.281,6.183 7.605,6.429 c -0.082,0.41 0.18,0.633 0.793,0.66 z"
   inkscape:connector-curvature="0" />&#10;      <path
   id="path422"
   style="display:inline;fill:#a16b08;fill-rule:evenodd;fill-opacity:0.99000001"
   d="M 17.035,12.793 C 17.008,12.8 16.98,12.8 16.957,12.804 h 0.207 c -0.043,0 -0.086,-0.004 -0.129,-0.011 0.414,-0.039 1.219,-0.075 2.426,-0.102 0.019,-0.383 -0.445,-0.648 -1.395,-0.801 -1.183,-0.195 -1.921,-0.41 -2.218,-0.64 -0.125,0.414 -0.043,0.777 0.254,1.097 0.226,0.258 0.535,0.407 0.933,0.446 z"
   inkscape:connector-curvature="0" />&#10;      &#10;      &#10;      &#10;      &#10;      &#10;      &#10;      &#10;      &#10;      &#10;      &#10;      &#10;      &#10;      &#10;      &#10;      &#10;      &#10;      &#10;      &#10;      &#10;      &#10;      &#10;      &#10;      &#10;      &#10;      &#10;      &#10;      &#10;      &#10;      &#10;      &#10;      &#10;      &#10;      &#10;      &#10;      &#10;      &#10;      &#10;      &#10;      &#10;      &#10;      &#10;      &#10;      &#10;      &#10;      &#10;      &#10;      &#10;      &#10;      &#10;      &#10;      &#10;      &#10;      &#10;      &#10;      &#10;      &#10;      &#10;      &#10;    <path
   id="path442"
   style="display:inline;fill:#8f7f59;fill-rule:evenodd;stroke-width:0.679814"
   d="m 22.751316,9.1755524 c 0.225621,0 0.26489,-0.040779 0.114238,-0.1190992 C 22.714903,8.9981954 22.594953,8.942533 22.508559,8.8842784 22.268659,8.7023943 21.978779,8.5535205 21.641062,8.4421892 20.773565,8.2247048 20.037442,8.0324642 19.434835,7.860289 18.656586,7.6330955 17.803369,7.1728829 16.874469,6.4777094 16.183327,5.9411185 15.41079,5.4912622 14.556859,5.1274936 14.316958,5.0258715 14.027078,4.8413981 13.689361,4.5811935 l -0.43482,-0.341114 -0.282026,0.4951655 v 1.0744765 c -0.401261,0.1948299 -0.761113,0.3993688 -1.073126,0.6149114 -0.627596,0.4343216 -0.716845,0.7022934 -0.265603,0.8039157 0.716845,0.1592296 4.423878,0.8090938 11.11753,1.9470038 z"
   inkscape:connector-curvature="0" /><path
   id="path444"
   style="display:inline;fill:#94845d;fill-rule:evenodd;stroke-width:0.679814"
   d="M 8.3572868,5.5546952 C 11.522402,5.1093699 13.118169,4.8362199 13.143159,4.735245 l 0.130661,-0.5132891 -1.450113,0.033011 c -0.490511,0.022655 -1.4137,0.1417532 -2.7695662,0.3592376 -0.339859,0.045309 -0.836796,0.1540515 -1.489382,0.3236375 -0.602607,0.1488733 -0.97888,0.2576155 -1.129532,0.3262267 l -0.356994,0.1870625 c 0.803238,0.067964 1.562209,0.1035642 2.279054,0.103564 z"
   inkscape:connector-curvature="0" /><path
   id="path446"
   style="display:inline;fill:#695322;fill-rule:evenodd;stroke-width:0.679814"
   d="m 18.98288,8.7658269 c 2.16196,0.2828593 3.316481,0.4272018 3.467133,0.4272018 0.2399,0 0.390551,-0.012945 0.451955,-0.035601 0.06426,-0.022656 0.01356,-0.045313 -0.150652,-0.067969 -0.125662,-0.022656 -0.212055,-0.055669 -0.262034,-0.1016262 -0.07568,-0.057603 -0.128518,-0.090615 -0.153508,-0.10356 C 21.847406,8.634424 21.270502,8.4518922 20.603635,8.3386187 19.811821,8.1787485 18.95789,7.9010673 18.040414,7.5016986 17.702696,7.3521781 17.242887,7.0693189 16.66527,6.6466482 16.049096,6.1916139 15.56644,5.8783327 15.215157,5.7087467 14.752491,5.4809058 14.278403,5.1902793 13.801458,4.8362199 L 13.218128,4.394131 c -0.451955,-0.080909 -1.07384,-0.075731 -1.865655,0.014887 -0.778248,0.091266 -1.344442,0.1592297 -1.6957252,0.2051862 -0.616173,0.093208 -1.093118,0.1844734 -1.433691,0.2750919 l -2.222649,0.5793112 c 0.526924,0.3411139 0.931042,0.6168532 1.207356,0.8194502 1.143811,0.3210485 2.329034,0.6446861 3.5592382,0.9754435 2.46255,0.6602207 3.906951,1.0065131 4.333917,1.0421135 0.351282,0.020067 1.647887,0.174116 3.881961,0.4602121 z"
   inkscape:connector-curvature="0" /><path
   id="path448"
   style="display:inline;fill:#f27922;fill-rule:evenodd;stroke-width:0.679814"
   d="m 18.776536,11.276607 c 0.918191,-0.22784 1.701438,-0.495812 2.354023,-0.804563 0.741836,-0.351471 1.213069,-0.6699299 1.414415,-0.9553777 C 22.444299,9.2305703 22.129432,8.9981986 21.601793,8.8163145 21.389738,8.7379935 20.929929,8.6111283 20.227363,8.4396002 19.524083,8.2700144 18.927188,8.097839 18.439533,7.9289002 17.923319,7.7463686 17.326424,7.4207892 16.648848,6.9553984 15.895588,6.4317529 15.455057,6.1411264 15.329395,6.0828717 15.039515,5.9462966 14.56257,5.6556701 13.895704,5.2109922 13.569411,4.9857404 13.268822,4.7734342 12.992507,4.5786044 L 10.373593,4.7507795 C 10.083714,4.7734342 9.2997528,4.9145402 8.0195698,5.1779811 l -1.849233,0.3916014 c -0.287024,0.1365751 -0.457667,0.3087502 -0.507646,0.5132892 -0.03927,0.1139204 -0.0057,0.3540594 0.09496,0.7184752 l 0.07497,0.1540515 0.451955,0.3566486 c 0.390552,0.2627937 0.973882,0.7048826 1.751416,1.3320916 0.602607,0.4679802 1.394422,0.9631459 2.3740162,1.4867914 1.006726,0.523646 1.809963,0.86476 2.411856,1.023989 0.803953,0.217484 1.821388,0.381893 3.054448,0.495813 0.853217,0.0123 1.818532,-0.11392 2.900224,-0.374125 z"
   inkscape:connector-curvature="0" /><path
   id="path494"
   style="display:inline;fill:#ff9b4a;fill-rule:evenodd;stroke-width:0.679814"
   d="m 16.194036,11.395058 0.451955,-0.35859 c 0.326294,-0.283507 0.566194,-0.541122 0.716846,-0.768963 0.351283,-0.5463003 0.465522,-1.1780405 0.339859,-1.8965164 -0.07496,-0.4420884 -0.169929,-0.4602121 -0.281311,-0.050491 0.07496,0.010356 0.136371,0.063436 0.187065,0.1540508 0.09996,0.1695858 0.08068,0.4323798 -0.05569,0.7864398 -0.201345,0.5236449 -0.630453,1.0239888 -1.28304,1.5023258 l -0.90391,0.545652 c -0.314869,0.0233 -0.63331,0.0356 -0.962458,0.0356 -0.376273,0 -0.693998,-0.01748 -0.958889,-0.05049 0.501936,0.100971 0.967457,0.181884 1.394423,0.23755 0.591182,0.01295 1.043138,-0.03301 1.355151,-0.136575 z"
   inkscape:connector-curvature="0" /><path
   id="path496"
   style="display:inline;fill:#ff9b4a;fill-rule:evenodd;stroke-width:0.679814"
   d="m 21.356895,9.2940029 c 0.2756,0.2174844 0.389838,0.4097255 0.339859,0.5819002 -0.03642,0.1359279 -0.214911,0.3307579 -0.526925,0.5812539 l 0.71399,-0.394191 C 21.923092,9.8021141 21.853113,9.5619749 21.677476,9.3470795 21.465421,9.1522504 21.331191,9.0337989 21.281212,8.9878426 21.14484,8.8972276 21.063445,8.8745691 21.038456,8.919884 c -0.02498,0.045313 0.08139,0.1695858 0.318439,0.3741241 z"
   inkscape:connector-curvature="0" /><path
   id="path498"
   style="display:inline;fill:#ff9b4a;fill-rule:evenodd;stroke-width:0.679814"
   d="m 14.423343,11.053945 0.49051,-0.341114 c 0.376987,-0.263442 0.652587,-0.495814 0.828228,-0.701 0.501934,-0.5812526 0.828228,-1.2181719 0.97888,-1.913992 0.100675,-0.4194343 0.04498,-0.4725108 -0.16993,-0.1540515 0.01428,0.1262186 -0.02499,0.2958046 -0.111382,0.513289 -0.162076,0.4097256 -0.476945,0.8194501 -0.942466,1.2291756 -0.376987,0.3307579 -0.915335,0.6090859 -1.620756,0.8369269 l -0.942467,0.257616 -0.337717,-0.0356 c -0.415542,-0.04531 -0.867497,-0.118451 -1.358008,-0.222016 l 0.604749,0.272504 c 0.94318,0.139163 1.80211,0.222662 2.580359,0.258262 z"
   inkscape:connector-curvature="0" /><path
   id="path500"
   style="display:inline;fill:#ff9b4a;fill-rule:evenodd;stroke-width:0.679814"
   d="M 13.500154,5.6731465 13.349502,5.4511312 c -0.01142,0.1844734 -0.156364,0.4524453 -0.432677,0.8039156 -0.31487,0.4097251 -0.953891,0.818803 -1.921347,1.2285282 L 9.6396118,7.9968641 C 8.6721568,7.9845658 7.8546378,7.860289 7.1884858,7.62015 6.9621518,7.5392406 6.6865518,7.4156111 6.3602578,7.2434358 c 0.09996,0.1035643 0.301304,0.2731502 0.601894,0.5132892 0.981735,0.3741249 2.04201,0.6097334 3.1851072,0.7003515 L 10.864104,8.1489739 C 11.416733,7.8881218 11.873686,7.6305064 12.239249,7.3800109 12.802586,6.9702858 13.22384,6.401331 13.500154,5.6731465 Z"
   inkscape:connector-curvature="0" /><path
   id="path502"
   style="display:inline;fill:#ff9b4a;fill-rule:evenodd;stroke-width:0.679814"
   d="M 12.93396,8.338625 C 13.288099,8.1211406 13.639382,7.8149798 13.990665,7.4156111 14.41763,6.9372747 14.749635,6.4317529 14.989536,5.8958092 L 14.386929,5.5365715 c -0.01428,0.0356 0.01642,0.1417532 0.09211,0.3236375 0.07496,0.1721752 0.09996,0.2860956 0.07496,0.3417613 -0.362705,0.8770577 -1.17951,1.6181876 -2.448269,2.2220949 l -1.790686,0.632388 C 9.8381008,9.0111446 9.3304548,8.9302347 8.7892508,8.8163145 8.5022268,8.7606489 8.2316248,8.6849169 7.9803008,8.5936521 l 0.05569,0.05308 0.641876,0.4427359 c 0.803238,0.194182 1.5950522,0.3081022 2.3733012,0.3411136 z"
   inkscape:connector-curvature="0" /><path
   id="path504"
   style="display:inline;fill:#ff9b4a;fill-rule:evenodd;stroke-width:0.679814"
   d="M 13.123167,9.3800908 11.522402,9.9082681 C 10.881241,9.8526011 10.234366,9.7671611 9.5810648,9.6532408 l 0.6975682,0.3916022 c 0.716845,0.103559 1.425123,0.154698 2.127689,0.154698 L 13.23812,9.8247691 c 0.601893,-0.3081028 1.053848,-0.5864318 1.355152,-0.8388688 0.766824,-0.637566 1.263048,-1.3605721 1.489382,-2.1670769 l 0.05569,-0.2226626 -0.225621,-0.1540515 c -0.03642,0.04531 -0.0864,0.2097171 -0.150652,0.4951654 -0.06426,0.3061611 -0.164931,0.5689549 -0.301303,0.7864393 -0.401976,0.614911 -1.180225,1.1657424 -2.337601,1.6563768 z"
   inkscape:connector-curvature="0" /><path
   id="path506"
   style="display:inline;fill:#ff9b4a;fill-rule:evenodd;stroke-width:0.679814"
   d="m 20.472262,9.9768791 c -0.06354,0.2854479 -0.451242,0.6673399 -1.168087,1.1450289 l 0.772536,-0.222015 C 20.41657,10.604088 20.612203,10.295338 20.659327,9.9768791 20.709307,9.7263827 20.673607,9.5114873 20.547945,9.3296032 20.458695,9.1800827 20.408716,9.121828 20.397293,9.1574284 l 0.01927,0.10356 c 0.147796,0 0.170644,0.2381964 0.05569,0.7158867 z"
   inkscape:connector-curvature="0" /><path
   id="path508"
   style="display:inline;fill:#ff9b4a;fill-rule:evenodd;stroke-width:0.679814"
   d="m 17.814793,11.481145 c 0.766824,-0.477688 1.218779,-0.826569 1.358008,-1.041464 0.111382,-0.205187 0.175641,-0.4783369 0.187065,-0.8194515 0,-0.2958043 -0.025,-0.4958125 -0.07568,-0.5993767 -0.01927,-0.034957 -0.04427,-0.067959 -0.07496,-0.1009709 -0.01713,-0.1139213 -0.05283,-0.1818852 -0.111382,-0.2045395 l -0.207057,0.032368 c 0.137086,0.048546 0.245613,0.1042152 0.318439,0.1721759 0.01071,0.1061532 0.0057,0.2479057 -0.01713,0.4272008 -0.08925,0.59161 -0.415542,1.1204329 -0.981735,1.5877659 l -0.808237,0.528823 c -0.251324,0.02266 -0.535492,0.06278 -0.848219,0.118452 l -0.206344,0.0712 c 0.563339,-0.04855 1.054563,-0.104215 1.467249,-0.172176 z"
   inkscape:connector-curvature="0" /><path
   id="path510"
   style="display:inline;fill:#c25b10;fill-rule:evenodd;stroke-width:0.679814"
   d="m 19.585487,9.4661787 c 0.354138,0.045313 0.886775,0.083503 1.60362,0.1184515 0.387696,0.033012 0.839652,0.00518 1.355867,-0.085437 C 22.419311,9.215683 22.103728,8.9859003 21.601793,8.8163145 21.389738,8.7354045 20.929929,8.6111283 20.227363,8.4396002 19.524083,8.2700144 18.927188,8.097839 18.439533,7.9289002 17.923319,7.7463686 17.326424,7.4207892 16.648848,6.9553984 15.895588,6.4291638 15.455057,6.1385373 15.329395,6.0828717 15.039515,5.9462966 14.56257,5.6556701 13.895704,5.2109922 13.569411,4.9831513 13.268822,4.7734342 12.992507,4.5786044 l -0.583329,0.0356 0.187065,0.8874142 c 0.125662,0.04531 0.577618,0.4045469 1.358008,1.0770656 0.387697,0.3288158 0.915335,0.7890284 1.581487,1.3832269 0.591184,0.4550348 1.213068,0.7961487 1.866368,1.0239891 0.652587,0.2297827 1.380142,0.3890125 2.183381,0.4802785 z"
   inkscape:connector-curvature="0" /><path
   id="path512"
   style="display:inline;fill:#d16211;fill-rule:evenodd;stroke-width:0.679814"
   d="M 12.878269,4.5811935 10.278633,4.735245 C 10.002319,4.7553105 9.2297818,4.8996528 7.9610228,5.1598574 l -1.809963,0.3767141 c -0.150652,0.1268659 -0.257037,0.2860956 -0.31844,0.4783363 -0.04998,0.1592296 -0.04427,0.3637686 0.01714,0.6168531 l 0.07497,0.1184513 c 0.541204,0.2731501 1.20807,0.4278489 1.999885,0.4602126 0.978879,0.0356 1.957759,-0.1870625 2.9366392,-0.6647515 0.555484,-0.2627937 1.177368,-0.581253 1.866368,-0.9579671 l 0.09425,-0.3566486 c 0.0507,-0.2757391 0.07568,-0.4854563 0.07568,-0.6323877 z"
   inkscape:connector-curvature="0" /><path
   id="path514"
   style="display:inline;fill:#ffc17a;fill-rule:evenodd;stroke-width:0.679814"
   d="m 18.021135,11.395058 c 0.515501,-0.04531 0.856074,-0.108742 1.01815,-0.187063 l -0.546916,0.03301 c -0.175642,0.02266 -0.312728,0.0356 -0.412686,0.0356 -0.200632,0.02266 -0.38484,0.02266 -0.546916,0 -0.139229,-0.0233 -0.281312,-0.0356 -0.434819,-0.0356 -0.301305,0 -0.546917,-0.0052 -0.733982,-0.01553 -0.5155,-0.02266 -0.878207,-0.0576 -1.093118,-0.10356 -0.136373,-0.02266 -0.301304,-0.07314 -0.487655,-0.154052 -0.214911,-0.07832 -0.404832,-0.136575 -0.566194,-0.169586 -0.214911,-0.03496 -0.426966,-0.10356 -0.641876,-0.207128 C 13.313088,10.444211 13.087468,10.330938 12.897546,10.250028 12.758319,10.181418 12.615521,10.085621 12.46487,9.9587551 12.37633,9.9037351 12.236392,9.8577811 12.049328,9.8228261 11.823707,9.7898161 11.659489,9.7263827 11.558817,9.6351168 11.422444,9.486244 11.276791,9.3393125 11.126853,9.1930287 11.051173,9.121828 10.774856,8.8441467 10.297911,8.3535123 10.234365,8.2751924 10.189384,8.2247048 10.164395,8.2020506 10.139405,8.1787485 10.07229,8.1386169 9.9580518,8.0803625 L 9.4504048,7.7742015 C 9.2997528,7.6706374 9.0905538,7.5618952 8.8285198,7.4486221 c -0.139942,0.012298 -0.209199,0.034953 -0.209199,0.067964 l 0.01928,0.053077 0.16993,0.1870625 1.188078,1.023989 c 0.0614,0.058258 0.2070582,0.1721749 0.4326782,0.3411139 0.150652,0.1165093 0.250611,0.2077752 0.301304,0.2757391 0.164217,0.1922411 0.426252,0.3644156 0.791814,0.5107006 0.162076,0.05826 0.312727,0.1365748 0.451956,0.2401388 0.08925,0.04596 0.194919,0.11392 0.320581,0.205186 0.111382,0.07831 0.371274,0.19936 0.772537,0.359238 0.415542,0.168938 0.70328,0.267972 0.867497,0.290626 0.07568,0.0097 0.356995,0.07832 0.84822,0.204538 0.451242,0.124278 0.777535,0.192241 0.978879,0.205186 0.892487,0.05503 1.645032,0.05049 2.259062,-0.01812 z"
   inkscape:connector-curvature="0" /><path
   id="path516"
   style="display:inline;fill:#f27922;fill-rule:evenodd;stroke-width:0.679814"
   d="M 11.333196,6.4090983 C 10.543523,6.841478 9.9830408,7.0919735 9.6567478,7.1599373 9.1041198,7.2842142 8.6021848,7.3295235 8.1509438,7.2965125 7.3191458,7.2738578 6.6972608,7.1877702 6.2845758,7.0414861 c -0.264891,-0.1042114 -0.31487,-0.076379 -0.150652,0.083498 0.326293,0.1592297 0.758971,0.2854484 1.300175,0.3767141 0.688285,0.1236296 1.310884,0.1184514 1.865654,-0.018124 C 9.8381008,7.346999 10.459986,7.1198056 11.165408,6.8013461 11.692333,6.563149 12.094309,6.35861 12.370622,6.1864349 12.761175,5.9236412 12.978228,5.5773491 13.02892,5.1449692 13.06748,4.8265099 13.05391,4.6368583 12.99251,4.5811927 L 10.6749,4.699644 10.108707,4.785732 10.769861,4.75078 c 0.501935,-0.010356 0.892487,-0.010356 1.165231,0 0.379842,0.022654 0.605463,0.062786 0.680432,0.1184513 0.112096,0.093855 0.07568,0.2731501 -0.114238,0.5488893 C 12.264241,5.759234 12.105735,5.9644201 12.030052,6.032384 11.91867,6.12365 11.687338,6.2472793 11.333199,6.4090975 Z"
   inkscape:connector-curvature="0" /><path
   id="path518"
   style="display:inline;fill:#f27922;fill-rule:evenodd;stroke-width:0.679814"
   d="m 13.349502,6.0498607 c 0,0.068612 0.0079,0.1469314 0.01928,0.2381971 0.03642,0.1818843 0.100675,0.3132812 0.189921,0.3941905 0.150652,0.1139204 0.362707,0.1469316 0.638307,0.1009752 L 14.066348,6.3411344 c -0.025,-0.1139204 0.01356,-0.2226626 0.114238,-0.3262266 0.04998,-0.055666 0.13066,-0.1417532 0.245612,-0.2556736 0.04998,-0.090618 0.03071,-0.1592298 -0.05855,-0.204539 -0.0871,-0.045956 -0.176355,-0.050488 -0.262747,-0.018124 -0.04998,0.023302 -0.08354,0.1087422 -0.09425,0.2556736 -0.01142,0.207128 -0.03927,0.3488813 -0.07568,0.4272016 -0.04998,0.1035642 -0.125661,0.1262187 -0.22562,0.068611 -0.12566,-0.1016217 -0.24561,-0.1825311 -0.359849,-0.2381967 z"
   inkscape:connector-curvature="0" /><path
   id="path520"
   style="display:inline;fill:#f27922;fill-rule:evenodd;stroke-width:0.679814"
   d="m 19.114254,9.4480547 c -0.03642,-0.034957 -0.08069,-0.067959 -0.131374,-0.10356 -0.07496,-0.090615 -0.11995,-0.168938 -0.130661,-0.2375497 0,-0.045313 0.01927,-0.10356 0.05569,-0.1721748 0.02498,-0.045313 0.01927,-0.1087422 -0.01713,-0.1870632 -0.05284,-0.1035599 -0.127804,-0.1132724 -0.225621,-0.034957 -0.08925,0.080914 -0.14494,0.1715281 -0.169929,0.27315 -0.01428,0.090615 -0.10924,0.1488738 -0.284882,0.1715281 -0.150652,0.022656 -0.312013,0.018123 -0.487655,-0.017478 l 0.301303,0.1870621 c 0.225621,0.1262185 0.381985,0.1948301 0.471234,0.2045394 0.147795,0.025245 0.356994,-0.00518 0.619029,-0.083503 z"
   inkscape:connector-curvature="0" /><path
   id="path522"
   style="display:inline;fill:#f27922;fill-rule:evenodd;stroke-width:0.679814"
   d="m 18.890775,8.4745528 0.131374,-0.2045384 0.131373,-0.035601 c 0.0864,-0.022656 0.136373,-0.045313 0.150653,-0.067969 0.02498,-0.045313 0.01071,-0.083499 -0.03927,-0.1190988 -0.04998,-0.04531 -0.131374,-0.055666 -0.242757,-0.032364 -0.100675,0.022654 -0.153507,0.1087417 -0.153507,0.2550265 z"
   inkscape:connector-curvature="0" /><path
   id="path524"
   style="display:inline;fill:#f27922;fill-rule:evenodd;stroke-width:0.679814"
   d="m 22.2044,9.6707171 c -0.03642,0.068614 0,0.078325 0.114238,0.033012 0.112097,-0.045313 0.189921,-0.1139202 0.226336,-0.2045394 0.02498,-0.1139203 0,-0.2103642 -0.07568,-0.2912731 -0.09996,-0.090615 -0.295592,-0.1922407 -0.582616,-0.3055142 -0.26489,-0.1042151 -0.50479,-0.1825308 -0.716845,-0.2401387 l -0.26489,-0.033012 0.471232,0.1540518 c 0.365563,0.100971 0.636165,0.2479068 0.811807,0.4427359 0.07496,0.090615 0.10567,0.1767061 0.09425,0.255027 -0.0021,0.022656 -0.02784,0.086082 -0.07782,0.1896511 z"
   inkscape:connector-curvature="0" /><path
   id="path526"
   style="display:inline;fill:#bd7400;fill-rule:evenodd;stroke-width:0.679814"
   d="m 18.098961,10.593731 c 0.337716,-0.126218 0.577617,-0.200008 0.713989,-0.222662 0.226335,-0.0356 0.491225,0.04078 0.791814,0.222662 l 0.05641,-0.06861 c 0.03856,-0.0576 0.06354,-0.113274 0.07783,-0.171528 0.03642,-0.124278 -0.100675,-0.240139 -0.415542,-0.341762 -0.351283,-0.1262189 -0.761113,-0.1035599 -1.224492,0.06861 -0.516215,0.22784 -0.942467,0.409724 -1.283039,0.5463 -0.551915,0.227193 -1.135244,0.414255 -1.751417,0.563776 l -1.03457,0.24014 c -0.03927,0.01036 -0.02498,0.03301 0.03642,0.06796 0.07496,0.04596 0.139228,0.06861 0.189207,0.06861 l 1.24377,-0.258263 c 0.864642,-0.181884 1.430835,-0.31328 1.696439,-0.391601 z"
   inkscape:connector-curvature="0" /><path
   id="path528"
   style="display:inline;fill:#c7be91;fill-rule:evenodd;stroke-width:0.679814"
   d="m 17.362837,12.113533 -0.01928,0.06797 c -0.03642,0.05567 0.03856,0.06861 0.225621,0.03301 0.06426,-0.01036 0.08925,-0.05567 0.07496,-0.136576 0,-0.07832 -0.03071,-0.164407 -0.09139,-0.255672 -0.0507,-0.08091 -0.11995,-0.136576 -0.209199,-0.171528 l -0.09211,-0.03301 c -0.06426,-0.0356 -0.125663,-0.05826 -0.189923,-0.06861 -0.588327,-0.0123 -1.034569,-0.02719 -1.335874,-0.05308 -0.189921,-0.02266 -0.289879,-0.04531 -0.30416,-0.06797 l 0.03927,-0.03301 -0.320582,0.06861 c -0.0507,0.0097 -0.09496,0.04013 -0.131374,0.08544 l -0.01928,0.05114 h 1.865655 c -0.627597,0.113274 -1.079553,0.187062 -1.355866,0.222016 -0.54049,0.06861 -0.866784,0.09127 -0.981022,0.06861 l 0.09425,0.08609 c 0.0614,0.06797 0.119951,0.09579 0.170644,0.08544 l 1.280184,-0.138517 0.998156,-0.220073 -0.488368,0.151461 c -0.26489,0.149521 -0.465521,0.234961 -0.604749,0.258263 l -0.301304,0.08544 0.07496,0.05114 c 0.07568,0.03237 0.153507,0.05049 0.226335,0.05049 0.09996,-0.01036 0.284167,-0.09127 0.546201,-0.238197 0.08925,-0.05761 0.309871,-0.16635 0.658299,-0.32558 l 0.03927,0.10356 z"
   inkscape:connector-curvature="0"
   inkscape:label="path528" /><path
   id="path530"
   style="display:inline;fill:#c7be91;fill-rule:evenodd;stroke-width:0.679814"
   d="m 19.153522,11.413181 -0.848218,0.08544 h -0.582616 l 1.168087,-0.427201 c 0.351997,-0.136576 0.527638,-0.250496 0.527638,-0.341114 -0.01428,-0.06861 -0.125662,-0.149521 -0.340573,-0.24014 0,0.113921 -0.08068,0.227194 -0.245612,0.341115 -0.161362,0.10356 -0.456954,0.250495 -0.883919,0.445325 l -0.451955,0.222015 0.527637,-0.411667 c 0.0357,-0.04596 0.06641,-0.113921 0.09211,-0.205187 0.03856,-0.09061 0.04427,-0.146283 0.01928,-0.168938 -0.02499,-0.04596 -0.14494,-0.04078 -0.356995,0.01748 0.025,0.09062 0.0057,0.181884 -0.05855,0.27315 l -0.451956,0.5107 -0.01642,0.10356 0.169929,0.01748 c 0.0864,-0.02266 0.501935,-0.02266 1.240914,0 0.2399,-0.0123 0.379129,-0.03496 0.415542,-0.06796 z"
   inkscape:connector-curvature="0" /><path
   id="path532"
   style="display:inline;fill:#c7be91;fill-rule:evenodd;stroke-width:0.679814"
   d="m 18.135374,11.976959 c 0.401262,-0.09127 0.666866,-0.164408 0.791814,-0.222663 0.326294,-0.172175 0.571906,-0.387071 0.733981,-0.649864 0.06354,-0.07833 0.06926,-0.141753 0.01927,-0.187063 -0.02498,-0.02266 -0.09496,-0.05567 -0.206343,-0.100971 -0.06426,-0.0356 -0.09496,-0.03042 -0.09496,0.01489 0.01142,0.0809 0.01142,0.159229 0,0.240139 0,0.09127 -0.10567,0.205186 -0.320581,0.341761 -0.262035,0.15923 -0.446243,0.272503 -0.546916,0.341115 -0.161362,0.11392 -0.646875,0.245316 -1.450113,0.39419 -0.426966,0.09127 -1.118107,0.02783 -2.071998,-0.189652 -0.276313,-0.06796 -0.460523,-0.15923 -0.546916,-0.27315 l -0.03927,-0.154052 c -0.0864,0.02266 -0.15565,0.09127 -0.206343,0.205186 -0.0357,0.08091 -0.02498,0.148874 0.03927,0.20454 0.03642,0.02266 0.131374,0.06344 0.282026,0.12104 0.111382,0.05567 0.326292,0.108742 0.641163,0.154699 0.337716,0.05567 0.646874,0.09061 0.923187,0.100971 0.702566,0.02266 1.160234,-0.02784 1.375144,-0.154052 0.0614,-0.03301 0.287024,-0.09645 0.677577,-0.187062 z"
   inkscape:connector-curvature="0" /><path
   id="path534"
   style="display:inline;fill:#f7ce00;fill-rule:evenodd;stroke-width:0.679814"
   d="m 17.814793,10.661695 c 0.501934,-0.161819 0.923189,-0.217484 1.263047,-0.171528 0.150652,0.02266 0.301303,0.100971 0.451955,0.24014 l 0.225621,0.255026 c 0.0257,-0.181884 0.01428,-0.330757 -0.0357,-0.444678 -0.100675,-0.23755 -0.390552,-0.356648 -0.867497,-0.356648 -0.26489,0.01036 -0.583329,0.06861 -0.962458,0.169586 -0.337003,0.10356 -0.633308,0.214895 -0.883918,0.341114 -0.552629,0.250495 -1.263762,0.46798 -2.130545,0.649864 -0.237759,0.04531 -0.441246,0.09127 -0.602607,0.136574 l -0.150653,0.06797 -0.01999,0.08609 v 0.255673 l 0.13423,0.06796 c -0.114238,-0.15923 0.162076,-0.300983 0.828228,-0.427202 0.187065,-0.04531 0.672578,-0.176706 1.450112,-0.391601 0.390553,-0.09127 0.823231,-0.250495 1.300176,-0.478337 z"
   inkscape:connector-curvature="0" /><path
   id="path536"
   style="display:inline;fill:#ffff9c;fill-rule:evenodd;stroke-width:0.679814"
   d="m 16.835913,11.294083 c 0.150651,0.07831 0.25061,0.187062 0.300589,0.323638 -0.490511,-0.04531 -0.822516,-0.06344 -0.998157,-0.05049 -0.803238,0.04531 -1.138099,0.03301 -0.998157,-0.0356 0.07497,-0.04531 0.381984,-0.118452 0.923189,-0.222663 0.376272,-0.07831 0.632595,-0.0835 0.772536,-0.01489 z m -0.67829,0.359238 c 0.276314,-0.0233 0.577617,-0.01812 0.90391,0.01489 l -1.562208,0.290626 -0.866784,0.06861 c -0.06426,-0.01036 -0.11995,-0.02784 -0.170643,-0.05049 -0.09996,-0.0356 -0.139228,-0.08091 -0.114239,-0.136576 0.0507,-0.06861 0.100675,-0.108742 0.150652,-0.119098 0.04998,-0.02266 0.195634,-0.04014 0.435534,-0.05308 h 0.621885 c 0.237044,0.01295 0.437676,0.0077 0.601893,-0.01489 z m 0.884633,0.100971 -0.67829,0.341114 c -0.2756,0.10356 -0.49051,0.149521 -0.641163,0.136575 -0.602607,-0.04531 -0.847505,-0.09062 -0.733267,-0.136575 0.111383,-0.04531 0.532636,-0.108742 1.263047,-0.187063 z m 0.03856,-0.546301 c -0.04998,-0.06796 0.05569,-0.148873 0.321294,-0.240139 0.376273,-0.169585 0.582616,-0.22784 0.621885,-0.169585 0.0614,0.06602 -0.0257,0.210364 -0.26489,0.427201 l -0.491224,0.341761 z m 0.471947,0.869938 c 0.02498,0.0356 -0.0085,0.06344 -0.09496,0.08609 -0.2399,0.08091 -0.560482,0.118451 -0.962458,0.118451 h -0.262034 c -0.03927,-0.02266 0.0864,-0.100971 0.376272,-0.237549 l 0.733981,-0.359238 0.13066,0.291274 c 0.05284,0.04531 0.07854,0.07832 0.07854,0.100971 z m 1.826384,-1.620776 c -0.440531,-0.148874 -0.9289,-0.09838 -1.46939,0.151461 -0.527638,0.250496 -1.255194,0.485457 -2.184094,0.700352 -0.867497,0.205186 -1.378,0.348881 -1.528652,0.427849 -0.250609,0.135928 -0.0614,0.285448 0.566194,0.444678 0.627597,0.146931 1.243771,0.200008 1.846377,0.154052 1.520084,-0.126219 2.523953,-0.502933 3.012322,-1.127554 0.27917,-0.341114 0.197775,-0.591609 -0.242757,-0.750838 z m -1.188078,0.477688 c 0.114239,-0.148873 0.169929,-0.227194 0.169929,-0.240139 0.114239,-0.10356 0.251325,-0.159229 0.415542,-0.171528 0.201346,-0.02071 0.332005,-0.0052 0.396265,0.05308 0.0614,0.05567 0.03071,0.141106 -0.09496,0.255027 -0.114239,0.10356 -0.415542,0.250495 -0.903197,0.445325 l -0.697568,0.272502 z m 0.228476,0.768964 c 0.187066,-0.01295 0.287739,-0.01812 0.301305,-0.01812 0.07568,0 0.08139,0.0233 0.01713,0.06861 -0.175641,0.136575 -0.432678,0.232372 -0.772536,0.290627 -0.0864,0.01036 -0.145654,0 -0.170644,-0.0356 -0.0357,-0.06796 -0.0664,-0.106153 -0.09211,-0.118451 -0.05284,-0.03301 -0.108527,-0.08609 -0.169929,-0.154052 l -0.05855,-0.101626 z m 0.789673,-0.24014 -0.282026,0.118451 -1.299461,-0.01489 0.939611,-0.290626 c 0.114952,-0.04596 0.301303,-0.126867 0.566193,-0.240139 0.226335,-0.09127 0.351997,-0.113921 0.376986,-0.06861 0.03856,0.06861 0.025,0.149521 -0.03642,0.240139 -0.04998,0.113921 -0.139228,0.200008 -0.26489,0.255674 z"
   inkscape:connector-curvature="0" /><path
   id="path890"
   style="display:inline;fill:#bd7400;fill-rule:evenodd;stroke-width:0.679814"
   d="m 15.025236,8.9878426 c 0.07568,-0.090615 0.13423,-0.1818852 0.170643,-0.2725033 C 15.270843,8.5101531 15.159462,8.2803704 14.858162,8.0324642 14.70751,7.9062455 14.487601,7.8149798 14.197007,7.756725 13.921408,7.701059 13.664372,7.695881 13.424471,7.741838 c -0.186351,0.04531 -0.446243,0.1184513 -0.772537,0.2220153 -0.387696,0.1365751 -0.691856,0.2381976 -0.903196,0.3061614 -0.70328,0.2174845 -1.458681,0.3540589 -2.2619202,0.4097245 -0.652586,0.045313 -1.07384,0.067959 -1.260905,0.067959 -0.04998,0 -0.04498,0.048546 0.01642,0.1391646 0.05069,0.09127 0.10924,0.1417535 0.170643,0.1521095 l 1.50866,-0.033012 c 1.0795532,-0.022656 1.7821182,-0.068614 2.1084112,-0.1365745 0.178498,-0.035601 0.571906,-0.1190992 1.188079,-0.2556737 0.440532,-0.1158625 0.741835,-0.1663501 0.90391,-0.1540518 0.276315,0.010356 0.546203,0.2226624 0.811807,0.632388 z"
   inkscape:connector-curvature="0" /><path
   id="path892"
   style="display:inline;fill:#c7be91;fill-rule:evenodd;stroke-width:0.679814"
   d="m 11.653777,10.421557 0.07497,0.495812 -0.07497,0.10356 c -0.0507,0.07832 0.03856,0.119098 0.26489,0.119098 0.0614,0 0.111382,-0.06344 0.150652,-0.187062 0.02498,-0.136575 0.01927,-0.291274 -0.01999,-0.462802 -0.0357,-0.237546 -0.124949,-0.381888 -0.264891,-0.427197 -0.0357,-0.06861 -0.09211,-0.1320439 -0.167072,-0.1870629 C 10.950497,9.6933724 10.448563,9.5289646 10.108704,9.3800908 9.9073578,9.2888249 9.8073998,9.220861 9.8073998,9.1755524 c 0,-0.033012 0.01642,-0.048546 0.04712,-0.053724 l -0.384841,0.018123 c -0.07782,0.0123 -0.139228,0.045313 -0.189207,0.10356 l -0.0564,0.086082 2.1284032,0.5786647 c -0.76397,-0.0097 -1.310885,-0.02783 -1.6400342,-0.05049 -0.588328,-0.04531 -0.973168,-0.1087414 -1.148809,-0.1870623 0.01357,0.055669 0.03855,0.1139193 0.07497,0.1695863 0.04998,0.126219 0.108526,0.1896519 0.169929,0.1896519 0.100673,0 0.611175,0.05049 1.5257962,0.151462 l 1.227347,-0.05049 c -0.315583,0.0356 -0.529779,0.06861 -0.641876,0.10356 -0.426252,0.169586 -0.68543,0.255673 -0.772537,0.255673 l -0.3955502,0.03301 0.07497,0.10356 c 0.0614,0.08091 0.137086,0.131397 0.2263352,0.154052 0.175641,0.04531 0.415541,-0.02783 0.71399,-0.222663 0.127803,-0.06796 0.42054,-0.181884 0.886774,-0.341114 z"
   inkscape:connector-curvature="0" /><path
   id="path894"
   style="display:inline;fill:#c7be91;fill-rule:evenodd;stroke-width:0.679814"
   d="m 14.367651,8.7477028 c -0.0507,0.1948302 -0.187065,0.35406 -0.415542,0.4783362 -0.176355,0.10356 -0.577618,0.262794 -1.205215,0.4776894 l -0.602606,0.2226627 0.753258,-0.5107 c 0.07496,-0.058258 0.14494,-0.1546985 0.206343,-0.2912741 0.07496,-0.1488727 0.108527,-0.2498479 0.09496,-0.3081025 -0.01142,-0.068614 -0.14494,-0.09127 -0.396264,-0.068614 -0.02498,0.1592298 -0.09496,0.3009834 -0.206343,0.4278496 -0.440531,0.4194338 -0.686144,0.659572 -0.736123,0.717827 l -0.07568,0.1695869 0.209199,0.06797 c 0.112096,0 0.583329,0.126219 1.411558,0.376715 0.100675,0.01036 0.209199,0.03301 0.320581,0.06861 0.07568,0.0097 0.131374,-0.0052 0.169929,-0.05114 0.07568,-0.06796 0.125663,-0.135928 0.150653,-0.204539 C 13.620106,10.27527 13.288101,10.22931 13.0482,10.184005 L 12.38705,10.011831 13.89571,9.6532408 C 14.347666,9.5393206 14.59899,9.4027451 14.64897,9.2435163 14.67395,9.129595 14.58186,8.9651872 14.367657,8.7477028 Z"
   inkscape:connector-curvature="0" /><path
   id="path896"
   style="display:inline;fill:#c7be91;fill-rule:evenodd;stroke-width:0.679814"
   d="m 14.688233,9.3975671 c -0.06426,-0.080904 -0.109241,-0.080904 -0.131374,0 -0.02785,0.1469315 -0.05855,0.283507 -0.09496,0.409725 -0.03856,0.149522 -0.214197,0.3087509 -0.526925,0.4776889 -0.365562,0.172176 -0.616172,0.303572 -0.756114,0.394838 -0.237045,0.136575 -0.847506,0.204539 -1.826386,0.204539 -0.276314,0 -0.641876,-0.10356 -1.093118,-0.308103 C 9.8716588,10.393723 9.4811068,10.171709 9.0905538,9.9108571 8.8035298,9.7160267 8.6328868,9.5114873 8.5829078,9.2940029 c -0.02499,-0.1139202 -0.01928,-0.2045384 0.01928,-0.2705611 -0.114238,0.022656 -0.225621,0.1190993 -0.339859,0.2880384 -0.07568,0.1268652 -0.0814,0.2407854 -0.01999,0.3443496 0.01428,0.032368 0.100673,0.1365753 0.265604,0.3055143 0.111383,0.1139209 0.339859,0.2634409 0.677576,0.4453249 0.351283,0.19224 0.686144,0.341114 0.9981582,0.442089 0.778249,0.263441 1.319453,0.326227 1.620756,0.189651 0.07496,-0.03496 0.364849,-0.06797 0.867498,-0.103559 0.49051,-0.02266 0.822517,-0.06796 0.998157,-0.136575 0.376273,-0.136576 0.747547,-0.414256 1.11311,-0.8369269 0.0864,-0.126219 0.11995,-0.2323722 0.09425,-0.3236371 -0.02499,-0.047902 -0.08925,-0.1262195 -0.18921,-0.2401397 z"
   inkscape:connector-curvature="0" /><path
   id="path898"
   style="display:inline;fill:#f7ce00;fill-rule:evenodd;stroke-width:0.679814"
   d="m 15.064505,9.0208528 c 0,-0.4097245 -0.276314,-0.6874058 -0.828228,-0.8369263 -0.289879,-0.090618 -0.680432,-0.1009752 -1.168801,-0.033012 -0.415542,0.068614 -0.797527,0.1644078 -1.148809,0.2912741 -0.301303,0.100971 -0.716845,0.1922411 -1.24377,0.27315 -0.527638,0.078325 -1.0095812,0.1236295 -1.4508272,0.1365755 -0.300589,0.00972 -0.546202,0.02719 -0.733267,0.050491 l -0.209199,0.05308 -0.07497,0.1514628 c -0.03641,0.068614 -0.0614,0.1592298 -0.07568,0.27315 l -0.01928,0.154051 0.114238,0.1540508 c -0.02499,-0.1359278 0.07497,-0.249848 0.301304,-0.3411139 0.200631,-0.067959 0.471233,-0.1087422 0.80895,-0.1210405 0.253466,0 0.8617852,-0.068614 1.8292422,-0.2051861 0.276313,-0.00972 0.532635,-0.055669 0.772536,-0.1365745 0.351283,-0.1132735 0.658298,-0.1922411 0.923188,-0.2375497 0.415542,-0.080914 0.747547,-0.10356 0.998871,-0.067969 0.139229,0.022656 0.306302,0.078325 0.509789,0.1689381 0.125663,0.058258 0.217767,0.1365755 0.282026,0.2401397 0.01142,0.023301 0.05569,0.1190982 0.131374,0.291273 l 0.150652,0.5107003 0.07496,-0.2731495 c 0.04998,-0.2051862 0.06711,-0.3689472 0.05569,-0.4958135 z"
   inkscape:connector-curvature="0" /><path
   id="path900"
   style="display:inline;fill:#ffff9c;fill-rule:evenodd;stroke-width:0.679814"
   d="m 10.543523,10.217017 c 0.312728,-0.02266 0.639021,-0.01748 0.978879,0.01748 l -0.942466,0.323636 c -0.340573,0.09127 -0.5968952,0.108742 -0.7725362,0.05049 -0.677576,-0.260204 -0.942466,-0.414256 -0.792529,-0.460212 0.08925,-0.02266 0.315584,-0.01748 0.67829,0.01812 0.4405322,0.03301 0.7247002,0.05049 0.8503622,0.05049 z m 0,-0.4272009 c 0.337718,0.04531 0.677576,0.136575 1.018149,0.2731499 -0.917476,0.02266 -1.553641,0.02783 -1.9049242,0.01748 -0.212055,-0.01295 -0.446243,-0.04078 -0.697568,-0.08609 l -0.301303,-0.086085 c -0.06069,-0.032368 -0.119951,-0.073147 -0.16993,-0.118452 -0.111382,-0.09127 -0.136372,-0.1773534 -0.07497,-0.2582623 0.07497,-0.100971 0.150652,-0.1592298 0.225621,-0.1689391 0.06426,-0.012945 0.226335,0.00972 0.491225,0.067969 0.164217,0.033012 0.401262,0.095793 0.716845,0.187062 0.2870242,0.093859 0.5183572,0.1495204 0.6968542,0.1721754 z m 0.923189,-0.392249 c 0.136372,0.1695858 0.206342,0.376714 0.206342,0.6142639 C 11.131851,9.7969351 10.755578,9.6655391 10.543523,9.6202295 9.6903048,9.4254004 9.3190308,9.3069489 9.4304128,9.2609926 c 0.06426,-0.034957 0.226335,-0.058258 0.491225,-0.067959 h 0.6582982 c 0.278456,-0.012945 0.454812,-0.012945 0.529781,0 0.147796,0.022656 0.267746,0.090615 0.356995,0.2045384 z m 0.376272,0.579312 -0.07496,-0.6472759 c 0,-0.1365745 0.161362,-0.2401387 0.488369,-0.3087504 0.09996,-0.033012 0.264891,-0.083503 0.490511,-0.1514617 0.175641,-0.035601 0.270602,-0.017478 0.282026,0.050491 C 13.07891,9.0564565 12.922545,9.266174 12.556983,9.552269 12.4456,9.642884 12.286381,9.7393321 12.08575,9.8428961 Z m -1.168087,0.9579659 c -0.201345,-0.04531 -0.309871,-0.0809 -0.321295,-0.10356 -0.02499,-0.03301 0.156363,-0.12363 0.546916,-0.273151 l 0.998871,-0.374124 v 0.528824 c 0.03856,0.10356 0.05569,0.171527 0.05569,0.204538 0.01356,0.06797 -0.03642,0.108742 -0.150651,0.119099 -0.212055,0.02266 -0.589041,-0.01036 -1.129531,-0.101626 z m 1.525082,-0.27315 c -0.04998,-0.07056 -0.0864,-0.171528 -0.111383,-0.308102 -0.01356,-0.06861 -0.02498,-0.131397 -0.03927,-0.187062 l 0.415542,0.187062 c 0.312728,0.123629 0.527639,0.192241 0.639021,0.204538 0.214912,0.04596 0.329148,0.06861 0.340573,0.06861 0.08925,0.02266 0.08925,0.06279 0,0.118451 -0.100675,0.05826 -0.262749,0.113921 -0.488368,0.172175 -0.225621,0.05567 -0.404119,0.07832 -0.529781,0.06797 -0.100675,-0.0123 -0.156364,-0.04531 -0.167787,-0.10356 -0.02785,-0.123629 -0.04427,-0.196771 -0.05855,-0.220073 z m 2.488254,-0.548241 C 15.140188,9.6254085 15.150898,9.1800827 14.72465,8.7833031 14.283405,8.3839346 13.709357,8.3107928 12.992511,8.5606407 12.275666,8.8214925 11.346766,8.9930206 10.203668,9.0713404 9.0962698,9.1522544 8.4515378,9.2305703 8.2623308,9.3114802 c -0.340573,0.1598765 -0.181354,0.4602119 0.471233,0.9055368 0.641162,0.455035 1.3194532,0.733363 2.0362992,0.836928 1.782117,0.262793 3.090145,-0.05049 3.918374,-0.940491 z M 14.010656,8.6972152 c 0.237045,0.033012 0.381985,0.100971 0.431964,0.2051862 0.04998,0.1132734 -0.02498,0.249849 -0.225621,0.4090788 -0.162075,0.1365745 -0.566193,0.2958043 -1.205214,0.4783359 l -0.923189,0.2220149 1.093119,-0.803915 c 0.273458,-0.3741252 0.552628,-0.5456533 0.828941,-0.5107008 z m 0.638308,0.9735019 c 0.02498,0.124277 -0.01642,0.260205 -0.130661,0.4097259 -0.112096,0.159229 -0.257036,0.267972 -0.432678,0.323637 l -0.35985,0.119099 -1.469391,-0.42526 1.207357,-0.1896509 c 0.136371,-0.03237 0.381984,-0.113274 0.733266,-0.237551 0.290594,-0.080914 0.440532,-0.080914 0.451957,0 z"
   inkscape:connector-curvature="0" /></g>&#10;  </g>&#10;<metadata
   id="metadata1"><rdf:RDF><cc:Work><dc:format>image/svg+xml</dc:format><dc:type
         rdf:resource="http://purl.org/dc/dcmitype/StillImage" /><cc:license
         rdf:resource="http://creativecommons.org/licenses/publicdomain/" /><dc:publisher><cc:Agent
           rdf:about="http://openclipart.org/"><dc:title>Openclipart</dc:title></cc:Agent></dc:publisher></cc:Work><cc:License
       rdf:about="http://creativecommons.org/licenses/publicdomain/"><cc:permits
         rdf:resource="http://creativecommons.org/ns#Reproduction" /><cc:permits
         rdf:resource="http://creativecommons.org/ns#Distribution" /><cc:permits
         rdf:resource="http://creativecommons.org/ns#DerivativeWorks" /></cc:License></rdf:RDF></metadata></svg>
