<?xml version="1.0" encoding="UTF-8" standalone="no"?>
<!-- Created with Inkscape (http://www.inkscape.org/) -->

<svg
   width="35.970394mm"
   height="56.811798mm"
   viewBox="0 0 35.970394 56.811798"
   version="1.1"
   id="svg1"
   inkscape:version="1.3 (0e150ed6c4, 2023-07-21)"
   sodipodi:docname="niñoAmarillo.svg"
   xmlns:inkscape="http://www.inkscape.org/namespaces/inkscape"
   xmlns:sodipodi="http://sodipodi.sourceforge.net/DTD/sodipodi-0.dtd"
   xmlns="http://www.w3.org/2000/svg"
   xmlns:svg="http://www.w3.org/2000/svg">
  <sodipodi:namedview
     id="namedview1"
     pagecolor="#ffffff"
     bordercolor="#000000"
     borderopacity="0.25"
     inkscape:showpageshadow="2"
     inkscape:pageopacity="0.0"
     inkscape:pagecheckerboard="0"
     inkscape:deskcolor="#d1d1d1"
     inkscape:document-units="mm"
     inkscape:zoom="5.6658249"
     inkscape:cx="92.043084"
     inkscape:cy="85.865696"
     inkscape:window-width="1680"
     inkscape:window-height="987"
     inkscape:window-x="-8"
     inkscape:window-y="-8"
     inkscape:window-maximized="1"
     inkscape:current-layer="g4755" />
  <defs
     id="defs1" />
  <g
     inkscape:label="Layer 1"
     inkscape:groupmode="layer"
     id="layer1"
     transform="translate(-116.98299,-61.231531)">
    <g
       id="g4755"
       transform="matrix(0.26458333,0,0,0.26458333,130.73173,-238.27327)"
       style="display:inline">
      <path
         id="rect2806"
         style="fill:#b59a00;fill-opacity:1"
         transform="matrix(-0.79267,-0.60965,-0.60965,0.79267,0,0)"
         d="m -811.75,923.75 c 5.9041,0 10.657,5.7214 10.657,12.828 v 23.824 c 0,7.1068 -4.7531,12.828 -10.657,12.828 -5.9041,0 -10.657,-5.7214 -10.657,-12.828 v -23.824 c 0,-7.1068 4.7532,-12.828 10.657,-12.828 z" />
      <path
         id="rect3394-1-8"
         style="display:inline;fill:#b29800;fill-opacity:1"
         d="m -11.957564,1256.7719 c 4.0857996,4.2623 3.2447996,11.6531 -1.8857,16.5711 l -17.199,16.4869 c -5.1305,4.9182 -12.55,5.4462 -16.636,1.1839 -4.0858,-4.2621 -3.2448,-11.653 1.8857,-16.5709 l 17.199,-16.4871 c 5.1305,-4.918 12.55,-5.446 16.636,-1.1839 z" />
      <path
         id="rect2808"
         style="fill:#b59a00;fill-opacity:1"
         transform="matrix(0.9941,-0.10844,0.10844,0.9941,0,0)"
         d="m -158.87,1232.3 h 77.646 v 73.078 h -77.646 z" />
      <path
         id="rect2810"
         style="fill:#b59a00;fill-opacity:1"
         transform="matrix(0.9941,-0.10844,0.10844,0.9941,0,0)"
         d="m -148.21,1289 c 5.9041,0 10.657,5.7214 10.657,12.828 v 23.824 c 0,7.1068 -4.7531,12.828 -10.657,12.828 -5.9041,0 -10.657,-5.7214 -10.657,-12.828 v -23.824 c 0,-7.1068 4.7531,-12.828 10.657,-12.828 z" />
      <path
         id="rect2818"
         style="fill:#b59a00;fill-opacity:1"
         transform="matrix(0.81053,-0.58569,0.58569,0.81053,0,0)"
         d="m -723.43,1078 c 5.9041,0 10.657,5.7214 10.657,12.828 v 23.824 c 0,7.1068 -4.7531,12.828 -10.657,12.828 -5.9041,0 -10.657,-5.7214 -10.657,-12.828 v -23.824 c 0,-7.1068 4.7532,-12.828 10.657,-12.828 z" />
      <path
         id="path2812"
         style="fill:#473c29;fill-opacity:1"
         transform="matrix(0.4638,-0.050592,0.049734,0.45594,95.442,1028.7)"
         d="m -88.305,337.59 c 0,74.416 -59.303,134.74 -132.46,134.74 -73.154,0 -132.46,-60.326 -132.46,-134.74 0,-74.416 59.303,-134.74 132.46,-134.74 73.154,0 132.46,60.326 132.46,134.74 z" />
      <path
         id="path2814"
         style="fill:#c77442;fill-opacity:1"
         transform="matrix(0.37524,-0.040932,0.040238,0.36888,81.56,1082.8)"
         d="m -88.305,337.59 c 0,74.416 -59.303,134.74 -132.46,134.74 -73.154,0 -132.46,-60.326 -132.46,-134.74 0,-74.416 59.303,-134.74 132.46,-134.74 73.154,0 132.46,60.326 132.46,134.74 z" />
      <path
         id="path2816"
         style="fill:#473c29;fill-opacity:1"
         transform="matrix(0.37524,-0.040932,0.020941,0.19197,85.035,1114.6)"
         d="m -88.305,337.59 c 0,74.416 -59.303,134.74 -132.46,134.74 -73.154,0 -132.46,-60.326 -132.46,-134.74 0,-74.416 59.303,-134.74 132.46,-134.74 73.154,0 132.46,60.326 132.46,134.74 z" />
      <path
         id="path2820"
         style="fill:#000000"
         transform="matrix(0.40808,-0.044514,0.048561,0.44518,-93.665,1072.6)"
         d="m 175.09,369.56 c 0,4.6247 -4.0899,8.3738 -9.135,8.3738 -5.0451,0 -9.135,-3.7491 -9.135,-8.3738 0,-4.6247 4.0899,-8.3738 9.135,-8.3738 5.0451,0 9.135,3.7491 9.135,8.3738 z" />
      <path
         id="path2822"
         style="fill:#000000"
         transform="matrix(0.40808,-0.044514,0.048561,0.44518,-51.399,1068)"
         d="m 175.09,369.56 c 0,4.6247 -4.0899,8.3738 -9.135,8.3738 -5.0451,0 -9.135,-3.7491 -9.135,-8.3738 0,-4.6247 4.0899,-8.3738 9.135,-8.3738 5.0451,0 9.135,3.7491 9.135,8.3738 z" />
      <path
         id="path2824"
         style="fill:#000000"
         transform="matrix(0.5101,-0.055642,0.054218,0.49704,-69.822,1032.6)"
         d="m 169,430.46 c 0,24.805 -21.813,44.914 -48.72,44.914 -26.907,0 -48.72,-20.109 -48.72,-44.914 v -10e-6 l 48.72,10e-6 z" />
    </g>
    <path
       d="m 133.76353,105.89971 1.75439,-7.679781 3.76282,6.920841 z"
       fill="#4caf50"
       id="path1"
       style="isolation:isolate;stroke-width:0.0207015" />
    <path
       d="m 135.72395,102.44213 0.73562,-0.10121 0.57384,4.1716 -0.73562,0.10121 z"
       fill="rgb(27,94,32)"
       id="path2"
       style="isolation:isolate;fill:#5e531b;fill-opacity:1;stroke-width:0.0207015" />
    <path
       d="m 136.33997,104.90431 1.39241,-1.30813 0.24428,0.32768 -1.39252,1.30732 z m 1.17384,-1.71058 -1.16382,1.07502 -0.24413,-0.32665 1.16382,-1.07501 z m -2.67252,1.00521 1.41086,0.72086 0.14687,-0.38043 -1.41087,-0.72086 z"
       fill="rgb(27,94,32)"
       id="path3"
       style="isolation:isolate;fill:#5e531b;fill-opacity:1;stroke-width:0.0207015" />
  </g>
</svg>
