<?xml version="1.0" encoding="UTF-8" standalone="no"?>
<!-- Created with Inkscape (http://www.inkscape.org/) -->

<svg
   width="44.68412mm"
   height="47.967796mm"
   viewBox="0 0 44.68412 47.967796"
   version="1.1"
   id="svg1"
   inkscape:version="1.3 (0e150ed6c4, 2023-07-21)"
   sodipodi:docname="niñaAzul.svg"
   xmlns:inkscape="http://www.inkscape.org/namespaces/inkscape"
   xmlns:sodipodi="http://sodipodi.sourceforge.net/DTD/sodipodi-0.dtd"
   xmlns="http://www.w3.org/2000/svg"
   xmlns:svg="http://www.w3.org/2000/svg">
  <sodipodi:namedview
     id="namedview1"
     pagecolor="#ffffff"
     bordercolor="#000000"
     borderopacity="0.25"
     inkscape:showpageshadow="2"
     inkscape:pageopacity="0.0"
     inkscape:pagecheckerboard="0"
     inkscape:deskcolor="#d1d1d1"
     inkscape:document-units="mm"
     inkscape:zoom="11.33165"
     inkscape:cx="84.365474"
     inkscape:cy="121.91517"
     inkscape:window-width="1920"
     inkscape:window-height="991"
     inkscape:window-x="-9"
     inkscape:window-y="-9"
     inkscape:window-maximized="1"
     inkscape:current-layer="g3792" />
  <defs
     id="defs1" />
  <g
     inkscape:label="Layer 1"
     inkscape:groupmode="layer"
     id="layer1"
     transform="translate(-10.583332,-79.110424)">
    <g
       id="g3792"
       transform="matrix(0.26458333,0,0,0.26458333,-19.81268,-131.09505)"
       style="display:inline">
      <path
         id="rect3394-1"
         style="fill:#0ec7e7;fill-opacity:1"
         d="m 168.47582,882.00249 c 4.0858,4.2622 3.2448,11.653 -1.8857,16.571 l -17.199,16.487 c -5.1305,4.9181 -12.55,5.4461 -16.636,1.1839 -4.0858,-4.2622 -3.2448,-11.653 1.8857,-16.571 l 17.199,-16.487 c 5.1305,-4.9181 12.55,-5.4461 16.636,-1.1839 z" />
      <path
         id="rect4400"
         style="fill:#0ec8e8;fill-opacity:1"
         transform="matrix(-0.69201,0.72189,0.72189,0.69201,0,0)"
         d="m 480.88,773.11 c 5.9045,0 10.658,5.7217 10.658,12.829 v 23.825 c 0,7.1072 -4.7534,12.829 -10.658,12.829 -5.9045,0 -10.658,-5.7217 -10.658,-12.829 v -23.825 c 0,-7.1072 4.7534,-12.829 10.658,-12.829 z" />
      <path
         id="rect4402"
         style="fill:#0ec8e8;fill-opacity:1"
         d="m 159.44,869.57 h 77.65 v 73.083 h -77.65 z" />
      <path
         id="rect4404"
         style="fill:#0ec8e8;fill-opacity:1"
         d="m 170.1,926.29 c 5.9045,0 10.658,5.7217 10.658,12.829 v 23.825 c 0,7.1072 -4.7534,12.829 -10.658,12.829 -5.9045,0 -10.658,-5.7217 -10.658,-12.829 v -23.825 c 0,-7.1072 4.7534,-12.829 10.658,-12.829 z" />
      <path
         id="rect4406"
         style="fill:#0ec8e8;fill-opacity:1"
         d="m 226.43,926.29 c 5.9045,0 10.658,5.7217 10.658,12.829 v 23.825 c 0,7.1072 -4.7534,12.829 -10.658,12.829 -5.9045,0 -10.658,-5.7217 -10.658,-12.829 v -23.825 c 0,-7.1072 4.7534,-12.829 10.658,-12.829 z" />
      <path
         id="path4410"
         style="fill:#deaa87"
         transform="matrix(0.37749,0,0,0.37109,281.98,722.46)"
         d="m -88.305,337.59 c 0,74.416 -59.303,134.74 -132.46,134.74 -73.154,0 -132.46,-60.326 -132.46,-134.74 0,-74.416 59.303,-134.74 132.46,-134.74 73.154,0 132.46,60.326 132.46,134.74 z" />
      <path
         id="path4412"
         style="fill:#000000"
         transform="matrix(0.41052,0,0,0.44784,108.88,693.4)"
         d="m 175.09,369.56 c 0,4.6247 -4.0899,8.3738 -9.135,8.3738 -5.0451,0 -9.135,-3.7491 -9.135,-8.3738 0,-4.6247 4.0899,-8.3738 9.135,-8.3738 5.0451,0 9.135,3.7491 9.135,8.3738 z" />
      <path
         id="path4414"
         style="fill:#000000"
         transform="matrix(0.41052,0,0,0.44784,151.4,693.4)"
         d="m 175.09,369.56 c 0,4.6247 -4.0899,8.3738 -9.135,8.3738 -5.0451,0 -9.135,-3.7491 -9.135,-8.3738 0,-4.6247 4.0899,-8.3738 9.135,-8.3738 5.0451,0 9.135,3.7491 9.135,8.3738 z" />
      <path
         id="path4416"
         style="fill:#000000"
         transform="matrix(0.51315,0,0,0.50002,136.93,656.17)"
         d="m 169,430.46 c 0,24.805 -21.813,44.914 -48.72,44.914 -26.907,0 -48.72,-20.109 -48.72,-44.914 v -10e-6 l 48.72,10e-6 z" />
      <path
         id="path6607"
         style="fill:#ffcd04;fill-opacity:1"
         d="m 249.93,823.05 c 0.51112,-0.5656 1.1124,-1.1138 1.8054,-1.6709 3.8928,-3.1299 11.611,-5.4882 17.076,-5.229 8.7,0.41273 15.276,7.4735 14.944,16.033 -0.16391,4.2241 -8.7839,16.158 -10.033,18.674 -0.0476,-0.2989 0.37855,-0.71086 0.2056,-0.99369 -0.7602,-1.0531 -1.7995,-2.6991 -3.0749,-3.5649 -0.78,-0.52036 -1.4968,-1.0757 -2.2739,-1.5973 -0.0264,0.072 -0.0279,0.1485 -0.0522,0.22204 -2.3281,-2.0757 -8.2887,-5.3118 -14.404,-6.9819 l -8.588,-2.351 1.2992,-5.6566 c 0.75507,-3.2683 1.5632,-5.1874 3.0966,-6.8842 z" />
      <path
         id="path6609"
         style="fill:#ffcd04;fill-opacity:1"
         d="m 194.05,794.49 c -7.2948,0.13292 -10.878,1.1487 -16.932,4.339 -13.251,6.982 -22.628,18.955 -28.415,36.246 12.942,5.6595 28.786,9.0919 45.929,9.5245 0.8513,-5.2317 2.8029,-16.352 3.6511,-16.774 1.0316,-0.51344 7.4625,11.865 8.2017,13.387 0.18862,0.38834 0.7451,1.5875 1.4287,3.1219 15.385,-1.0597 29.499,-4.569 41.167,-9.8949 -2.541,-8.1069 -5.8158,-15.126 -9.8949,-21.007 -0.0152,-0.0195 -0.0377,-0.0334 -0.0528,-0.0528 -9.2294,-11.905 -23.977,-18.703 -41.696,-18.89 -1.2109,-0.0136 -2.3444,-0.019 -3.3865,0 z m 53.337,48.681 c -0.23119,0.22068 -0.48831,0.46471 -0.79371,0.68788 0.2834,-0.20591 0.57498,-0.43145 0.79371,-0.63496 -0.007,-0.0136 0.007,-0.0395 0,-0.0528 z" />
      <path
         id="path6611"
         style="fill:#ffcd04;fill-opacity:1"
         d="m 148.72,823.05 c -0.51112,-0.56559 -1.1124,-1.1138 -1.8054,-1.6709 -3.8928,-3.1299 -11.611,-5.4883 -17.076,-5.229 -8.7,0.41274 -15.276,7.4735 -14.944,16.033 0.16391,4.2241 8.7839,16.158 10.033,18.674 0.0476,-0.29889 -0.37855,-0.71086 -0.2056,-0.99368 0.7602,-1.0531 1.7995,-2.6991 3.0749,-3.5649 0.78,-0.52037 1.4968,-1.0757 2.2739,-1.5973 0.0264,0.072 0.0279,0.1485 0.0522,0.22203 2.3281,-2.0757 8.2887,-5.3118 14.404,-6.9819 l 8.588,-2.351 -1.2992,-5.6566 c -0.75507,-3.2683 -1.5632,-5.1874 -3.0966,-6.8842 z" />
    </g>
  </g>
</svg>
