<?xml version="1.0" encoding="UTF-8" standalone="no"?>
<svg
   version="1.1"
   x="0"
   y="0"
   width="737"
   height="1109"
   viewBox="0, 0, 737, 1109"
   id="svg116"
   sodipodi:docname="Helado-napolitano.svg"
   inkscape:version="1.3 (0e150ed6c4, 2023-07-21)"
   xmlns:inkscape="http://www.inkscape.org/namespaces/inkscape"
   xmlns:sodipodi="http://sodipodi.sourceforge.net/DTD/sodipodi-0.dtd"
   xmlns="http://www.w3.org/2000/svg"
   xmlns:svg="http://www.w3.org/2000/svg">
  <sodipodi:namedview
     id="namedview116"
     pagecolor="#ffffff"
     bordercolor="#000000"
     borderopacity="0.25"
     inkscape:showpageshadow="2"
     inkscape:pageopacity="0.0"
     inkscape:pagecheckerboard="0"
     inkscape:deskcolor="#d1d1d1"
     inkscape:zoom="0.7006312"
     inkscape:cx="368.23938"
     inkscape:cy="594.46396"
     inkscape:window-width="1920"
     inkscape:window-height="991"
     inkscape:window-x="-9"
     inkscape:window-y="-9"
     inkscape:window-maximized="1"
     inkscape:current-layer="svg116" />
  <defs
     id="defs2">
    <clipPath
       id="Clip_1">
      <path
         d="M0,0.54 L736.649,0.54 L736.649,1108.94 L0,1108.94 z"
         id="path1" />
    </clipPath>
    <clipPath
       id="Clip_2">
      <path
         d="M0,0.54 L736.649,0.54 L736.649,1108.94 L0,1108.94 z"
         id="path2" />
    </clipPath>
  </defs>
  <g
     id="Layer_1"
     transform="matrix(1,0,0,0.93492643,0,0.0351525)">
    <path
       d="m 104.947,324.251 c -21.36,11.048 -32.58,22.744 -36.963,34.326 -0.165,3.676 -0.003,7.252 0.539,10.628 4.418,27.54 20.422,23.539 42.208,15.039 30.325,-11.837 65.227,-23.124 99.038,-19.918 52.99,5.025 1.259,51.737 29.397,71.505 40.615,28.538 82.028,-35.066 113.842,-50.404 49.894,-24.058 82.063,14.119 124.86,31.305 34.102,13.69 72.379,20.053 76.844,-26.385 1.607,-16.796 0.959,-28.209 19.428,-34.152 16.98,-5.469 43.255,-2.627 59.972,2.027 26.08,7.253 43.75,29.198 71.844,30.497 11.094,0.514 20.592,-0.979 26.645,-7.482 5.185,-17.7 -1.502,-37.009 -33.496,-54.778 l -594.158,-2.208"
       fill="#fffffe"
       id="path3" />
    <path
       d="M 448.171,986.211 414.014,952.06 v -25.617 l 7.048,-2.64 c 0.14,-13.916 5.003,-28.659 18.568,-42.559 18.551,-19.014 19.709,-23.957 14.424,-23.064 l -59.553,-25.655 -45.418,49.039 -0.165,0.174 -0.05,0.057 0.025,-0.006 c -2.837,4.33 13.24,34.207 15.123,46.463 -68.474,8.16 -117.718,42.892 -117.718,83.568 0,33.78 34.212,63.03 83.716,76.87 170.913,-4.86 118.157,-102.479 118.157,-102.479"
       fill="#fffffe"
       id="path4" />
    <path
       d="m 542.694,1011.82 c 0,-42.025 -50.713,-76.756 -121.563,-84.017 -0.069,-1.325 -0.085,-2.662 -0.069,-4 l -7.048,2.64 v 25.618 l 34.157,34.15 c 0,0 52.756,97.619 -118.157,102.479 19.508,5.45 41.384,8.52 64.487,8.52 81.719,0 148.193,-38.31 148.193,-85.39"
       fill="#bee2e2"
       id="path5" />
    <path
       d="m 281.798,1041.96 c -0.704,0.28 -1.373,0.58 -1.958,0.92 -1.158,0.66 -2.187,1.29 -3.131,1.9 l 7.077,-1.57 c -0.66,-0.44 -1.324,-0.85 -1.988,-1.25"
       fill="#f2b9b6"
       id="path6" />
    <path
       d="m 421.131,927.803 c -0.808,-15.063 3.632,-31.321 18.499,-46.559 46.35,-47.502 -15.856,-7.252 -15.856,-7.252 0,0 -19.514,35.375 -18.295,63.43 1.219,28.052 42.692,48.789 42.692,48.789 0,0 -20.223,-21.17 -25.751,-48.436 63.595,7.188 110.52,38.184 110.52,74.045 0,41.71 -62.105,75.63 -138.439,75.63 -76.338,0 -138.444,-33.92 -138.444,-75.63 0,-23.435 19.748,-44.726 51.298,-58.717 12.061,-1.343 27.254,-0.279 35.105,11.153 14.224,20.736 -6.507,47.564 -6.507,47.564 0,0 43.715,-17.842 41.318,-48.783 -2.407,-30.945 -7.167,-69.525 -24.243,-80.504 -13.904,-8.936 8.735,31.045 10.988,45.719 -68.474,8.16 -117.718,42.892 -117.718,83.568 0,47.08 66.486,85.39 148.203,85.39 81.719,0 148.193,-38.31 148.193,-85.39 0,-42.025 -50.712,-76.756 -121.563,-84.017"
       fill="#abd4d2"
       id="path7" />
    <path
       d="m 705.956,388.719 c -28.094,-1.299 -45.764,-23.244 -71.844,-30.497 -16.717,-4.654 -42.992,-7.496 -59.972,-2.027 -18.469,5.943 -17.821,17.356 -19.428,34.152 -4.465,46.438 -42.742,40.075 -76.844,26.385 -42.797,-17.186 -74.966,-55.363 -124.86,-31.305 -31.814,15.338 -73.227,78.942 -113.842,50.404 -1.708,-1.199 -3.117,-2.498 -4.275,-3.876 -17.97,-21.401 24.662,-62.909 -25.122,-67.629 -33.811,-3.206 -68.713,8.081 -99.038,19.918 -21.786,8.5 -37.79,12.501 -42.208,-15.039 -0.542,-3.376 -0.704,-6.952 -0.539,-10.628 -11.237,29.702 22.54,58.634 45.743,73.768 40.654,26.515 56.921,80.819 84.565,120.195 27.649,39.375 21.146,141.145 55.298,245.307 34.152,104.149 146.345,94.251 146.37,94.251 0.026,0 112.219,9.898 146.371,-94.251 34.152,-104.162 27.648,-205.932 55.293,-245.307 27.645,-39.376 43.91,-93.68 84.57,-120.195 16.84,-10.988 39.221,-29.248 45.954,-49.785 0.144,-0.444 0.324,-0.878 0.453,-1.323 -6.053,6.503 -15.551,7.996 -26.645,7.482"
       fill="#fffffe"
       id="path8" />
    <path
       d="m 569.56,676.051 c -7.137,9.574 -2.323,21.541 -10.133,31.254 -6.468,8.047 -10.639,6.671 -15.025,5.295 -3.236,-1.016 -6.589,-2.031 -11.067,0.738 -8.449,5.221 -2.098,20.777 -12.656,26.695 -11.256,-28.178 -14.364,0.59 -14.553,18.055 -0.135,12.355 2.457,53.64 -17.891,55.367 -8.551,0.725 -12.694,-17.462 -17.26,-35.648 -5.871,-23.384 -12.441,-46.769 -29.98,-29.951 -8.406,8.054 -1.834,22.474 -8.262,31.048 -3.759,5.026 -22.469,14.399 -29.142,11.428 -10.198,-4.539 -8.176,-30.285 -25.94,-27.805 -18.12,2.533 -2.598,31.766 -19.519,38.418 -8.215,3.229 -10.808,-2.193 -13.232,-7.615 -2.442,-5.462 -4.712,-10.925 -12.384,-7.543 -16.586,7.313 -7.526,36.678 -34.161,16.332 -17.027,-13.006 -22.85,-35.67 -26.056,-55.408 -0.899,-5.53 0.244,-19.543 -5.564,-22.799 -3.33,-1.86 -7.654,0.473 -11.856,2.806 -3.21,1.781 -6.349,3.563 -8.921,3.477 -4.334,-0.146 -7.781,-1.189 -10.587,-2.867 4.455,22.905 10.124,46.642 17.95,70.519 34.151,104.149 146.345,94.251 146.37,94.251 0.024,0 112.218,9.898 146.371,-94.251 7.556,-23.048 13.115,-45.976 17.505,-68.142 3.955,-19.988 6.946,-39.32 9.578,-57.586 -1.289,1.184 -2.501,2.469 -3.585,3.932"
       fill="#563926"
       id="path9" />
    <path
       d="m 593.587,510.971 c -16.721,-12.696 -33.561,-10.134 -48.514,7.602 -12.437,14.753 -14.593,56.591 -42.283,50.902 -7.551,-1.553 -10.639,-11.487 -17.811,-11.866 -10.078,-0.53 -7.861,6.397 -14.234,11.541 -16.555,13.37 -25.961,13.41 -33.287,-5.328 -10.232,-26.166 -23.628,-63.324 -59.778,-59.464 -30.445,3.252 -35.16,57.451 -71.589,51.742 -20.417,-3.196 -9.879,-25.716 -28.918,-32.363 -15.881,10.962 -15.022,19.508 -34.466,4.674 -15.417,-11.756 -19.168,-27.968 -30.945,-42.357 -11.971,-14.634 -35.595,-25.137 -55.283,-21.186 -3.336,0.674 -6.073,1.668 -8.33,2.907 13.075,18.853 23.543,40.524 34.971,60.756 4.724,8.351 9.603,16.452 14.908,24.009 5.289,7.536 9.334,17.37 12.64,29.061 5.883,-10.717 1.628,-35.05 10.983,-23.913 3.871,4.605 16.706,62.341 16.377,68.058 7.327,1.488 12.46,-2.456 16.733,-6.401 7.676,-7.086 12.582,-14.172 22.467,10.237 6.513,16.088 9.72,35.92 32.509,25.517 28.438,-12.976 13.015,-52.71 29.247,-70.281 22.665,-24.543 22.11,38.731 28.828,48.911 5.883,8.904 28.198,31.468 40.808,26.57 11.058,-4.295 9.695,-26.926 14.479,-35.811 16.382,13.426 16.172,8.904 33.832,-4.75 6.134,9.955 12.425,26.701 24.719,30.326 22.599,6.668 24.9,-20.476 29.396,-35.211 1.322,-4.33 0.623,-11.457 4.844,-14.558 8.73,-6.417 7.306,0.381 14.714,1.34 5.618,0.733 3.676,5.418 11.256,2.845 6.414,-2.177 10.184,-13.154 12.602,-19.107 5.463,-13.44 7.502,-34.242 22,-42.403 11.814,-6.645 13.284,-1.644 15.501,3.356 1.453,3.279 3.228,6.559 8.452,6.553 0.275,0 0.535,-0.085 0.799,-0.125 l 0.144,-0.214 c 7.194,-10.244 13.606,-21.517 19.889,-33.029 -8.57,2.687 -14.574,1.394 -27.66,-8.54"
       fill="#f1b4b1"
       id="path10" />
    <path
       d="m 674.452,346.871 c -40.471,-5.554 -141.9,35.999 -141.9,35.999 l -27.854,60.277 c -7.562,0.295 -15.293,-0.225 -23.263,-1.808 -15.719,-3.131 -25.832,-11.252 -38.762,-19.552 -9.776,-6.268 -22.36,-20.313 -33.793,-22.66 -18.364,-3.761 -39.535,16.531 -53.994,25.366 -9.474,5.789 -19.653,9.395 -29.307,13.425 -22.515,9.39 -44.45,13.535 -69.522,9.754 -21.286,-3.211 -37.907,-20.417 -58.434,-28.058 -19.388,-7.212 -45.12,-8.306 -65.716,-8.531 -14.529,-0.159 -23.904,4.925 -30.237,12.936 4.051,3.096 8.057,5.888 11.787,8.326 13.965,9.104 25.033,21.5 34.692,35.43 2.257,-1.239 4.994,-2.233 8.33,-2.907 19.688,-3.951 43.312,6.552 55.283,21.186 11.777,14.389 15.528,30.601 30.945,42.357 19.444,14.834 18.585,6.288 34.466,-4.674 19.039,6.647 8.501,29.167 28.918,32.363 36.429,5.709 41.144,-48.49 71.589,-51.742 36.15,-3.86 49.546,33.298 59.778,59.464 7.326,18.738 16.732,18.698 33.287,5.328 6.373,-5.144 4.156,-12.071 14.234,-11.541 7.172,0.379 10.26,10.313 17.811,11.866 27.69,5.689 29.846,-36.149 42.283,-50.902 14.953,-17.736 31.793,-20.298 48.514,-7.602 13.086,9.934 19.09,11.227 27.66,8.54 0.469,-0.859 0.949,-1.708 1.412,-2.567 17.346,-31.979 33.979,-65.501 63.266,-84.599 5.972,-3.901 12.64,-8.726 19.062,-14.229 0,0 9.934,-65.697 -30.535,-71.245"
       fill="#2a1e15"
       id="path11" />
    <path
       d="m 576.462,542.97 c -14.498,8.161 -16.537,28.963 -22,42.403 -2.418,5.953 -6.188,16.93 -12.602,19.107 -7.58,2.573 -5.638,-2.112 -11.256,-2.845 -7.408,-0.959 -5.984,-7.757 -14.714,-1.34 -4.221,3.101 -3.522,10.228 -4.844,14.558 -4.496,14.735 -6.797,41.879 -29.396,35.211 -12.294,-3.625 -18.585,-20.371 -24.719,-30.326 -17.66,13.654 -17.45,18.176 -33.832,4.75 -4.784,8.885 -3.421,31.516 -14.479,35.811 -12.61,4.898 -34.925,-17.666 -40.808,-26.57 -6.718,-10.18 -6.163,-73.454 -28.828,-48.911 -16.232,17.571 -0.809,57.305 -29.247,70.281 -22.789,10.403 -25.996,-9.429 -32.509,-25.517 -9.885,-24.409 -14.791,-17.323 -22.467,-10.237 -4.273,3.945 -9.406,7.889 -16.733,6.401 0.329,-5.717 -12.506,-63.453 -16.377,-68.058 -9.355,-11.137 -5.1,13.196 -10.983,23.913 3.346,11.802 5.954,25.493 8.351,40.649 4.21,26.541 7.812,57.56 13.684,90.773 0.83,4.721 1.728,9.5 2.668,14.305 2.806,1.678 6.253,2.721 10.587,2.867 2.572,0.086 5.711,-1.695 8.921,-3.477 4.202,-2.333 8.526,-4.666 11.856,-2.806 5.808,3.256 4.665,17.269 5.564,22.799 3.206,19.738 9.029,42.402 26.056,55.408 26.635,20.346 17.575,-9.019 34.161,-16.332 7.672,-3.382 9.942,2.081 12.384,7.543 2.424,5.422 5.017,10.844 13.232,7.615 16.921,-6.652 1.399,-35.885 19.519,-38.418 17.764,-2.48 15.742,23.266 25.94,27.805 6.673,2.971 25.383,-6.402 29.142,-11.428 6.428,-8.574 -0.144,-22.994 8.262,-31.048 17.539,-16.818 24.109,6.567 29.98,29.951 4.566,18.186 8.709,36.373 17.26,35.648 20.348,-1.727 17.756,-43.012 17.891,-55.367 0.189,-17.465 3.297,-46.233 14.553,-18.055 10.558,-5.918 4.207,-21.474 12.656,-26.695 4.478,-2.769 7.831,-1.754 11.067,-0.738 4.386,1.376 8.557,2.752 15.025,-5.295 7.81,-9.713 2.996,-21.68 10.133,-31.254 1.084,-1.463 2.296,-2.748 3.585,-3.932 2.413,-16.746 4.53,-32.598 6.788,-47.131 4.865,-31.305 10.429,-56.621 21.281,-72.234 -0.264,0.04 -0.524,0.125 -0.799,0.125 -5.224,0.006 -6.999,-3.274 -8.452,-6.553 -2.217,-5 -3.687,-10.001 -15.501,-3.356"
       fill="#fadac6"
       id="path12" />
    <path
       d="m 596.954,192.684 c -11.117,-4.809 -37.857,-13.19 -43.48,4.839 -3.846,12.322 12.125,31.031 17.789,40.869 8.545,14.849 17.002,37.304 15.052,54.754 -1.168,10.508 -8.13,27.154 -17.384,40.075 -5.17,2.742 -10.344,5.219 -15.059,7.556 -10.229,5.065 -25.521,9.854 -26.201,23.944 -1.768,36.369 56.107,47.696 81.299,40.209 45.949,-13.654 56.867,-54.094 57.136,-97.56 0.299,-49.37 -23.093,-94.784 -69.152,-114.686"
       fill="#cc7d3c"
       id="path13" />
    <path
       d="m 664.733,195.626 c -9.365,-7.671 -32.779,-23.074 -43.136,-7.277 -7.082,10.793 3.14,33.163 5.882,44.175 4.135,16.626 6.114,40.539 -0.554,56.786 -4.02,9.784 -15.278,23.878 -27.723,33.762 -5.724,1.219 -11.379,2.183 -16.553,3.132 -11.226,2.058 -27.244,2.467 -31.773,15.832 -11.678,34.486 40.863,61.266 67.145,60.982 47.925,-0.515 69.531,-36.399 81.722,-78.123 13.844,-47.386 3.811,-97.48 -35.01,-129.269"
       fill="#de9653"
       id="path14" />
    <path
       d="m 578.37,252.807 c 0,0 34.865,17.055 38.752,44.1 3.879,27.034 -9.43,63.224 -55.189,57.82 0,0 -15.807,20.631 -38.272,16.346 -22.459,-4.285 -32.324,-22.589 -32.324,-22.589 0,0 -37.143,4.579 -42.967,-26.62 -5.822,-31.2 7.963,-41.184 7.963,-41.184 0,0 -2.559,-9.984 11.586,-21.631 14.144,-11.647 23.418,-12.895 23.418,-12.895 0,0 16.777,-12.481 35.576,-12.896 18.799,-0.419 51.457,19.549 51.457,19.549"
       fill="#fde8da"
       id="path15" />
    <path
       d="m 580.233,258.635 c 0,0 20.852,16.491 20.407,45.059 -0.434,28.568 -33.262,46.453 -33.262,46.453 0,0 14.523,-9.565 13.273,-39.101 -1.248,-29.537 -0.418,-52.411 -0.418,-52.411"
       fill="#f8d4c1"
       id="path16" />
    <path
       d="m 578.37,245.32 c -6.713,6.173 -13.131,11.452 -19.254,15.972 -0.135,0.045 -40.465,13.964 -53.34,4.415 -12.894,-9.569 -5.404,-17.056 -5.404,-17.056 0,0 -24.961,3.761 -23.303,10.199 1.399,5.394 29.672,20.866 55.442,18.394 -44.59,20.267 -67.498,-3.636 -67.498,-3.636 0,0 -11.239,33.278 40.763,21.631 26.407,-5.914 44.7,-18.689 56.323,-29.842 0.339,-0.284 0.619,-0.559 0.838,-0.814 10.673,-10.448 15.433,-19.263 15.433,-19.263"
       fill="#f8d4c1"
       id="path17" />
    <path
       d="m 563.372,285.879 c -1.189,1.523 -2.457,3.077 -3.785,4.645 z m -20.986,49.899 c -10.039,-1.853 29.756,-46.778 28.896,-62.17 -1.797,3.761 -4.529,7.911 -7.91,12.261 -0.09,0.1 -45.549,47.841 -66.127,43.896 -20.586,-3.951 -21.42,-11.232 -21.42,-11.232 0,0 -12.48,26 10.403,25.376 8.341,-0.23 17.451,-3.836 25.671,-8.316 -8.3,6.843 -14.029,11.228 -14.029,11.228 0,0 -16.637,4.994 19.973,7.486 36.603,2.498 55.318,-59.897 55.318,-59.897 0,0 -24.232,42.577 -30.775,41.368"
       fill="#f8d4c1"
       id="path18" />
    <path
       d="m 578.37,245.32 c 0,0 -10.822,32.653 -49.301,48.046 -38.476,15.392 -55.117,12.751 -62.398,10.328 -7.277,-2.422 -1.658,-30.086 -1.658,-30.086 0,0 -1.075,27.039 22.873,21.84 72.799,-15.807 90.484,-50.128 90.484,-50.128"
       fill="#fffffe"
       id="path19" />
    <path
       d="m 545.292,271.516 c 0,0 -17.68,13.949 -45.963,8.745 -28.289,-5.195 -33.908,-23.085 -14.119,-28.009 -5.225,6.383 -1.068,28.009 60.082,19.264"
       fill="#fffffe"
       id="path20" />
    <path
       d="m 578.37,256.342 c 0,0 5.033,31.2 -3.262,50.544 -8.291,19.343 -32.933,54.913 -51.033,54.288 -18.09,-0.624 -29.637,-11.027 -29.637,-11.027 0,0 31.745,15.083 61.583,-25.167 29.835,-40.245 22.349,-68.638 22.349,-68.638"
       fill="#fffffe"
       id="path21" />
    <path
       d="m 580.233,258.635 c 0,0 24.961,14.868 26.209,37.642 1.25,22.775 -5.312,50.544 -39.064,56.477 10.992,-10.254 48.115,-48.36 12.855,-94.119"
       fill="#fffffe"
       id="path22" />
    <path
       d="m 595.235,297.222 c 0,0 34.862,17.055 38.746,44.095 3.887,27.035 -9.427,63.229 -55.187,57.825 0,0 -15.803,20.626 -38.266,16.346 -22.464,-4.285 -32.324,-22.589 -32.324,-22.589 0,0 -37.145,4.575 -42.972,-26.625 -5.823,-31.195 7.96,-41.179 7.96,-41.179 0,0 -2.547,-9.989 11.598,-21.636 14.139,-11.646 23.414,-12.895 23.414,-12.895 0,0 16.772,-12.476 35.57,-12.891 18.799,-0.419 51.461,19.549 51.461,19.549"
       fill="#fde8da"
       id="path23" />
    <path
       d="m 597.104,303.045 c 0,0 20.846,16.492 20.407,45.059 -0.44,28.573 -33.268,46.458 -33.268,46.458 0,0 14.524,-9.565 13.275,-39.101 -1.248,-29.537 -0.414,-52.416 -0.414,-52.416"
       fill="#f8d4c1"
       id="path24" />
    <path
       d="m 595.235,289.735 c -6.713,6.173 -13.125,11.447 -19.257,15.972 -0.129,0.04 -40.465,13.964 -53.336,4.415 -12.901,-9.569 -5.409,-17.061 -5.409,-17.061 0,0 -24.961,3.766 -23.293,10.204 1.389,5.394 29.666,20.866 55.438,18.394 -44.59,20.267 -67.504,-3.641 -67.504,-3.641 0,0 -11.228,33.283 40.768,21.636 26.406,-5.914 44.695,-18.689 56.322,-29.842 0.34,-0.29 0.619,-0.559 0.84,-0.814 10.677,-10.453 15.431,-19.263 15.431,-19.263"
       fill="#f8d4c1"
       id="path25" />
    <path
       d="m 580.233,330.289 c -1.183,1.528 -2.447,3.077 -3.787,4.65 l 3.787,-4.65 m -20.986,49.904 c -10.039,-1.858 29.762,-46.782 28.896,-62.175 -1.786,3.766 -4.525,7.911 -7.906,12.266 -0.094,0.1 -45.553,47.841 -66.125,43.895 -20.591,-3.95 -21.422,-11.231 -21.422,-11.231 0,0 -12.48,26 10.399,25.376 8.342,-0.23 17.461,-3.836 25.676,-8.321 -8.299,6.848 -14.028,11.233 -14.028,11.233 0,0 -16.642,4.994 19.967,7.486 36.609,2.498 55.322,-59.897 55.322,-59.897 0,0 -24.238,42.577 -30.779,41.368"
       fill="#f8d4c1"
       id="path26" />
    <path
       d="m 595.235,289.735 c 0,0 -10.816,32.653 -49.304,48.046 -38.477,15.387 -55.118,12.745 -62.395,10.323 -7.277,-2.422 -1.662,-30.086 -1.662,-30.086 0,0 -1.07,27.044 22.879,21.84 72.793,-15.802 90.482,-50.123 90.482,-50.123"
       fill="#fffffe"
       id="path27" />
    <path
       d="m 562.157,315.931 c 0,0 -17.674,13.943 -45.963,8.745 -28.287,-5.199 -33.902,-23.084 -14.113,-28.009 -5.234,6.378 -1.068,28.009 60.076,19.264"
       fill="#fffffe"
       id="path28" />
    <path
       d="m 595.235,300.757 c 0,0 5.035,31.196 -3.256,50.544 -8.29,19.343 -32.943,54.908 -51.033,54.283 -18.099,-0.619 -29.64,-11.022 -29.64,-11.022 0,0 31.744,15.078 61.576,-25.167 29.836,-40.245 22.353,-68.638 22.353,-68.638"
       fill="#fffffe"
       id="path29" />
    <path
       d="m 597.104,303.045 c 0,0 24.957,14.873 26.206,37.647 1.244,22.775 -5.315,50.539 -39.067,56.472 10.992,-10.249 48.111,-48.355 12.861,-94.119"
       fill="#fffffe"
       id="path30" />
    <path
       d="m 214.874,219.339 c 0,0 -34.861,17.056 -38.747,44.096 -3.885,27.034 9.424,63.223 55.183,57.819 0,0 15.808,20.632 38.273,16.352 22.463,-4.285 32.323,-22.595 32.323,-22.595 0,0 37.143,4.58 42.967,-26.619 5.823,-31.201 -7.956,-41.179 -7.956,-41.179 0,0 2.546,-9.989 -11.598,-21.636 -14.144,-11.647 -23.413,-12.895 -23.413,-12.895 0,0 -16.772,-12.476 -35.571,-12.896 -18.798,-0.419 -51.461,19.553 -51.461,19.553"
       fill="#fde8da"
       id="path31" />
    <path
       d="m 213.005,225.163 c 0,0 -20.846,16.491 -20.407,45.059 0.441,28.568 33.268,46.453 33.268,46.453 0,0 -14.524,-9.56 -13.275,-39.096 1.248,-29.537 0.414,-52.416 0.414,-52.416"
       fill="#f8d4c1"
       id="path32" />
    <path
       d="m 214.874,211.848 c 6.712,6.172 13.125,11.452 19.258,15.971 0.13,0.045 40.464,13.965 53.335,4.415 12.896,-9.564 5.408,-17.055 5.408,-17.055 0,0 24.962,3.76 23.294,10.203 -1.393,5.394 -29.666,20.862 -55.437,18.394 44.59,20.268 67.504,-3.64 67.504,-3.64 0,0 11.227,33.282 -40.769,21.63 -26.405,-5.913 -44.695,-18.689 -56.322,-29.836 -0.34,-0.29 -0.619,-0.559 -0.839,-0.814 -10.678,-10.453 -15.432,-19.268 -15.432,-19.268"
       fill="#f8d4c1"
       id="path33" />
    <path
       d="m 233.658,257.052 c -1.334,-1.569 -2.598,-3.117 -3.782,-4.645 z m -13.58,3.885 c 0,0 18.718,62.4 55.328,59.903 36.603,-2.497 19.968,-7.492 19.968,-7.492 0,0 -5.73,-4.385 -14.03,-11.227 8.215,4.485 17.33,8.086 25.676,8.315 22.874,0.625 10.398,-25.371 10.398,-25.371 0,0 -0.829,7.277 -21.425,11.232 -20.568,3.946 -66.027,-43.8 -66.126,-43.895 -3.376,-4.355 -6.114,-8.501 -7.907,-12.266 -0.864,15.392 38.942,60.317 28.903,62.175 -6.542,1.208 -30.785,-41.374 -30.785,-41.374"
       fill="#f8d4c1"
       id="path34" />
    <path
       d="m 214.874,211.848 c 0,0 10.818,32.653 49.299,48.05 38.477,15.388 55.119,12.746 62.395,10.324 7.282,-2.422 1.668,-30.086 1.668,-30.086 0,0 1.069,27.044 -22.884,21.84 -72.793,-15.807 -90.478,-50.128 -90.478,-50.128"
       fill="#fffffe"
       id="path35" />
    <path
       d="m 247.947,238.048 c 0,0 17.679,13.944 45.968,8.745 28.288,-5.199 33.902,-23.089 14.114,-28.013 5.234,6.383 1.068,28.013 -60.082,19.268"
       fill="#fffffe"
       id="path36" />
    <path
       d="m 214.874,222.875 c 0,0 -5.035,31.195 3.256,50.543 8.29,19.344 32.943,54.909 51.033,54.284 18.099,-0.624 29.636,-11.027 29.636,-11.027 0,0 -31.744,15.083 -61.571,-25.162 -29.836,-40.245 -22.354,-68.638 -22.354,-68.638"
       fill="#fffffe"
       id="path37" />
    <path
       d="m 213.005,225.163 c 0,0 -24.957,14.868 -26.205,37.642 -1.249,22.779 5.309,50.543 39.066,56.477 -10.992,-10.249 -48.111,-48.361 -12.861,-94.119"
       fill="#fffffe"
       id="path38" />
    <path
       d="m 385.072,246.074 c 0,0 31.215,15.273 34.691,39.481 3.476,24.202 -8.44,56.606 -49.404,51.766 0,0 -14.154,18.469 -34.262,14.639 -20.112,-3.836 -28.947,-20.228 -28.947,-20.228 0,0 -33.253,4.096 -38.467,-23.833 -5.214,-27.933 7.127,-36.868 7.127,-36.868 0,0 -2.282,-8.94 10.384,-19.368 12.66,-10.429 20.956,-11.547 20.956,-11.547 0,0 15.023,-11.173 31.854,-11.542 16.831,-0.375 46.068,17.5 46.068,17.5"
       fill="#fde8da"
       id="path39" />
    <path
       d="m 386.746,251.293 c 0,0 18.664,14.764 18.274,40.34 -0.399,25.576 -29.787,41.593 -29.787,41.593 0,0 13.006,-8.565 11.887,-35.011 -1.119,-26.445 -0.374,-46.922 -0.374,-46.922"
       fill="#f8d4c1"
       id="path40" />
    <path
       d="m 385.072,239.372 c -6.008,5.523 -11.746,10.253 -17.24,14.298 -0.121,0.04 -36.225,12.501 -47.747,3.956 -11.546,-8.57 -4.844,-15.278 -4.844,-15.278 0,0 -22.345,3.371 -20.857,9.135 1.248,4.829 26.56,18.679 49.634,16.472 -39.925,18.144 -60.436,-3.257 -60.436,-3.257 0,0 -10.054,29.797 36.503,19.363 23.633,-5.294 40.015,-16.731 50.423,-26.715 0.3,-0.254 0.55,-0.499 0.749,-0.729 9.56,-9.354 13.815,-17.245 13.815,-17.245"
       fill="#f8d4c1"
       id="path41" />
    <path
       d="m 371.642,275.681 c -1.059,1.368 -2.192,2.756 -3.381,4.16 z m -18.784,44.674 c -8.989,-1.658 26.641,-41.877 25.871,-55.657 -1.607,3.366 -4.055,7.082 -7.082,10.978 -0.085,0.09 -40.784,42.831 -59.203,39.301 -18.43,-3.541 -19.179,-10.059 -19.179,-10.059 0,0 -11.167,23.279 9.31,22.719 7.471,-0.204 15.633,-3.431 22.989,-7.447 -7.432,6.129 -12.561,10.054 -12.561,10.054 0,0 -14.893,4.47 17.88,6.703 32.774,2.237 49.534,-53.625 49.534,-53.625 0,0 -21.706,38.117 -27.559,37.033"
       fill="#f8d4c1"
       id="path42" />
    <path
       d="m 385.072,239.372 c 0,0 -9.684,29.231 -44.135,43.016 -34.446,13.775 -49.35,11.412 -55.862,9.245 -6.523,-2.168 -1.493,-26.935 -1.493,-26.935 0,0 -0.959,24.208 20.481,19.553 65.177,-14.154 81.009,-44.879 81.009,-44.879"
       fill="#fffffe"
       id="path43" />
    <path
       d="m 355.465,262.825 c 0,0 -15.832,12.486 -41.153,7.831 -25.332,-4.655 -30.356,-20.672 -12.641,-25.081 -4.68,5.718 -0.954,25.081 53.794,17.25"
       fill="#fffffe"
       id="path44" />
    <path
       d="m 385.072,249.24 c 0,0 4.505,27.929 -2.916,45.255 -7.422,17.315 -29.488,49.159 -45.689,48.6 -16.202,-0.559 -26.53,-9.869 -26.53,-9.869 0,0 28.418,13.5 55.128,-22.535 26.71,-36.029 20.007,-61.451 20.007,-61.451"
       fill="#fffffe"
       id="path45" />
    <path
       d="m 386.746,251.293 c 0,0 22.344,13.31 23.462,33.702 1.115,20.392 -4.758,45.249 -34.975,50.558 9.839,-9.174 43.077,-43.296 11.513,-84.26"
       fill="#fffffe"
       id="path46" />
    <path
       d="m 391.116,276.465 c 0,0 -31.21,15.267 -34.692,39.475 -3.475,24.208 8.441,56.607 49.409,51.767 0,0 14.15,18.475 34.268,14.639 20.107,-3.836 28.937,-20.223 28.937,-20.223 0,0 33.252,4.096 38.467,-23.838 5.213,-27.928 -7.123,-36.868 -7.123,-36.868 0,0 2.283,-8.94 -10.383,-19.369 -12.66,-10.428 -20.961,-11.542 -20.961,-11.542 0,0 -15.023,-11.172 -31.85,-11.547 -16.83,-0.374 -46.072,17.506 -46.072,17.506"
       fill="#fde8da"
       id="path47" />
    <path
       d="m 389.448,281.679 c 0,0 -18.664,14.763 -18.27,40.34 0.389,25.581 29.777,41.593 29.777,41.593 0,0 -13.001,-8.566 -11.882,-35.011 1.119,-26.44 0.375,-46.922 0.375,-46.922"
       fill="#f8d4c1"
       id="path48" />
    <path
       d="m 391.116,269.757 c 6.012,5.529 11.757,10.254 17.24,14.299 0.12,0.04 36.229,12.506 47.756,3.956 11.543,-8.571 4.84,-15.273 4.84,-15.273 0,0 22.344,3.371 20.856,9.134 -1.248,4.83 -26.559,18.68 -49.633,16.467 39.92,18.15 60.435,-3.256 60.435,-3.256 0,0 10.055,29.796 -36.498,19.368 -23.642,-5.299 -40.02,-16.731 -50.423,-26.72 -0.31,-0.254 -0.56,-0.499 -0.759,-0.724 -9.555,-9.355 -13.814,-17.251 -13.814,-17.251"
       fill="#f8d4c1"
       id="path49" />
    <path
       d="m 407.936,310.227 c -1.193,-1.404 -2.327,-2.787 -3.386,-4.161 z m -12.156,3.481 c 0,0 16.757,55.867 49.53,53.629 32.777,-2.232 17.875,-6.702 17.875,-6.702 0,0 -5.125,-3.93 -12.557,-10.058 7.357,4.015 15.514,7.241 22.984,7.451 20.487,0.554 9.311,-22.719 9.311,-22.719 0,0 -0.74,6.517 -19.18,10.053 -18.418,3.536 -59.113,-39.211 -59.202,-39.301 -3.027,-3.895 -5.474,-7.606 -7.078,-10.977 -0.774,13.779 34.86,53.999 25.876,55.662 -5.863,1.079 -27.559,-37.038 -27.559,-37.038"
       fill="#f8d4c1"
       id="path50" />
    <path
       d="m 391.116,269.757 c 0,0 9.688,29.238 44.139,43.017 34.447,13.78 49.346,11.412 55.867,9.245 6.514,-2.168 1.488,-26.935 1.488,-26.935 0,0 0.959,24.213 -20.486,19.553 -65.176,-14.149 -81.008,-44.88 -81.008,-44.88"
       fill="#fffffe"
       id="path51" />
    <path
       d="m 420.732,293.211 c 0,0 15.822,12.486 41.148,7.831 25.328,-4.655 30.351,-20.671 12.642,-25.082 4.68,5.719 0.959,25.082 -53.79,17.251"
       fill="#fffffe"
       id="path52" />
    <path
       d="m 391.116,279.631 c 0,0 -4.505,27.929 2.916,45.249 7.422,17.316 29.492,49.16 45.69,48.601 16.201,-0.555 26.535,-9.869 26.535,-9.869 0,0 -28.42,13.5 -55.13,-22.535 -26.71,-36.029 -20.011,-61.446 -20.011,-61.446"
       fill="#fffffe"
       id="path53" />
    <path
       d="m 389.448,281.679 c 0,0 -22.346,13.31 -23.464,33.702 -1.119,20.392 4.755,45.249 34.971,50.563 -9.839,-9.179 -43.073,-43.296 -11.507,-84.265"
       fill="#fffffe"
       id="path54" />
    <path
       d="m 548.079,223.17 c -4.955,-7.662 -16.387,-11.747 -24.883,-13.05 -1.648,-0.25 -3.535,-0.141 -5.543,0.124 5.45,-13.479 7.342,-27.594 6.133,-41.443 -0.539,1.938 -1.148,3.881 -1.937,5.779 -7.942,19.293 -23.524,31.264 -42.762,38.336 -19.238,7.067 -37.328,6.408 -57.411,5.349 -10.004,-0.529 -19.244,-4.794 -29.022,-5.393 4.025,7.051 13.404,10.772 11.596,21.085 -2.417,13.815 -15.382,9.78 -24.822,9.825 1.334,5.913 -1.907,13.909 -9.169,14.054 -7.092,0.144 -17.161,-19.893 -17.021,-25.692 -9.599,2.538 -16.201,12.582 -21.386,1.934 -3.057,8.685 -14.224,12.98 -25.401,13.499 0.619,0.375 1.218,0.734 1.788,1.049 12.655,7.122 26.75,4.081 39.725,-0.819 2.148,9.859 12.861,14.419 22.11,12.95 -1.118,14.704 22.719,15.957 32.589,13.126 12.376,22.215 38.332,18.814 49.963,-2.078 3.846,7.192 15.287,9.844 18.66,0.435 12.336,25.94 52.529,-8.421 38.436,-22.42 12.586,4.37 22.494,12.94 34.302,0.684 7.112,-7.392 9.739,-18.539 4.055,-27.334"
       fill="#2a1e15"
       id="path55" />
    <path
       d="m 331.852,234.078 c -0.949,12.461 13.085,9.454 16.522,2.986 -0.14,5.793 14.793,20.916 21.885,20.772 7.262,-0.145 10.503,-8.141 9.169,-14.054 7.297,6.217 21.241,3.73 24.822,-9.825 4.25,-16.071 -4.439,-18.479 -11.596,-21.085 9.778,0.599 19.018,4.864 29.022,5.393 20.083,1.059 38.173,1.718 57.411,-5.349 19.238,-7.072 34.82,-19.043 42.762,-38.336 0.789,-1.898 1.398,-3.841 1.937,-5.779 -3.207,-36.719 -28.289,-71.574 -67.398,-87.732 -54.091,-22.349 -114.468,-0.464 -134.854,48.87 -2.542,6.164 -4.345,12.461 -5.44,18.805 -12.4,-7.017 -29.866,-6.324 -40.858,5.893 -18.879,20.971 -9.584,44.575 15.402,54.084 -4.885,6.907 -7.561,15.822 4.695,15.767 -8.006,8.456 2.966,18.08 11.118,23.089 11.177,-0.519 22.344,-4.814 25.401,-13.499"
       fill="#594129"
       id="path56" />
    <path
       d="m 431.44,80.72 c -19.563,-7.672 -51.871,8.181 -66.925,18.08 -6.333,4.17 -48.261,41.078 -22,45.668 11.472,2.003 27.879,-19.333 36.249,-25.366 9.844,-7.077 19.688,-10.703 31.01,-14.289 8.106,-2.557 20.682,-2.153 27.61,-6.962 9.853,-6.857 1.863,-12.786 -5.944,-17.131"
       fill="#7d5f49"
       id="path57" />
    <path
       d="m 389.628,142.985 c -0.614,0 -1.196,-0.365 -1.443,-0.968 -1.926,-4.711 -3.042,-10.577 -4.122,-16.249 -0.762,-4.008 -1.551,-8.153 -2.602,-11.692 -0.245,-0.825 0.225,-1.692 1.05,-1.937 0.828,-0.243 1.692,0.226 1.937,1.05 1.096,3.689 1.9,7.913 2.677,11.997 1.05,5.521 2.137,11.23 3.945,15.651 0.326,0.797 -0.056,1.706 -0.853,2.032 -0.193,0.079 -0.393,0.116 -0.589,0.116"
       fill="#f6e5ab"
       id="path58" />
    <path
       d="m 411.862,118.528 c -0.181,0 -0.365,-0.032 -0.545,-0.099 -0.806,-0.301 -1.216,-1.198 -0.915,-2.004 0.979,-2.626 1.948,-5.324 2.919,-8.028 1.578,-4.393 3.21,-8.935 4.874,-13.124 0.317,-0.8 1.221,-1.191 2.023,-0.873 0.8,0.318 1.191,1.224 0.873,2.023 -1.645,4.142 -3.268,8.659 -4.837,13.028 -0.975,2.715 -1.949,5.425 -2.932,8.063 -0.234,0.627 -0.828,1.014 -1.46,1.014"
       fill="#f6e5ab"
       id="path59" />
    <path
       d="m 441.877,126.309 c -0.309,0 -0.621,-0.092 -0.893,-0.282 -0.705,-0.494 -0.876,-1.466 -0.382,-2.17 2.734,-3.905 5.455,-9.567 7.855,-14.564 1.122,-2.335 2.182,-4.54 3.16,-6.396 0.4,-0.761 1.344,-1.053 2.105,-0.651 0.76,0.401 1.052,1.343 0.651,2.105 -0.95,1.804 -1.998,3.984 -3.107,6.292 -2.452,5.104 -5.231,10.888 -8.112,15.001 -0.302,0.433 -0.786,0.665 -1.277,0.665"
       fill="#f6e5ab"
       id="path60" />
    <path
       d="m 468.558,148.543 c -0.859,0 -1.556,-0.695 -1.558,-1.554 -0.01,-4.029 -1.069,-7.865 -2.19,-11.926 -1.008,-3.65 -2.05,-7.425 -2.251,-11.341 -0.045,-0.86 0.616,-1.592 1.475,-1.637 0.872,-0.057 1.592,0.618 1.636,1.476 0.184,3.577 1.137,7.023 2.143,10.673 1.127,4.08 2.291,8.3 2.302,12.747 0.003,0.861 -0.693,1.56 -1.553,1.562 h -0.004"
       fill="#f6e5ab"
       id="path61" />
    <path
       d="m 441.879,145.208 c -0.151,0 -0.305,-0.022 -0.456,-0.068 -2.818,-0.862 -5.418,-2.292 -7.934,-3.676 -3.192,-1.757 -6.207,-3.416 -9.686,-4.064 -0.845,-0.158 -1.404,-0.971 -1.246,-1.818 0.157,-0.846 0.977,-1.405 1.817,-1.246 3.972,0.741 7.351,2.6 10.618,4.397 2.486,1.368 4.833,2.66 7.341,3.426 0.823,0.252 1.286,1.123 1.035,1.946 -0.205,0.671 -0.822,1.103 -1.489,1.103"
       fill="#f6e5ab"
       id="path62" />
    <path
       d="m 477.457,148.543 c -0.299,0 -0.6,-0.085 -0.866,-0.263 -0.715,-0.479 -0.906,-1.447 -0.428,-2.162 4.416,-6.591 7.227,-14.19 7.52,-20.328 0.041,-0.859 0.739,-1.547 1.63,-1.482 0.86,0.041 1.524,0.771 1.483,1.63 -0.319,6.681 -3.326,14.873 -8.043,21.915 -0.301,0.448 -0.794,0.69 -1.296,0.69"
       fill="#f6e5ab"
       id="path63" />
    <path
       d="m 405.189,160.775 c -0.678,0 -1.302,-0.446 -1.498,-1.131 -0.235,-0.828 0.245,-1.69 1.072,-1.926 3.986,-1.135 10.445,-7.485 14.72,-11.687 l 1.3,-1.275 c 0.615,-0.6 1.602,-0.588 2.203,0.028 0.601,0.615 0.589,1.602 -0.028,2.203 l -1.291,1.266 c -4.769,4.688 -11.3,11.109 -16.05,12.462 -0.143,0.041 -0.286,0.06 -0.428,0.06"
       fill="#f6e5ab"
       id="path64" />
    <g
       clip-path="url(#Clip_1)"
       id="g68">
      <path
         d="m 239.57,331.184 c -3.78,0 -7.236,-2.53 -8.248,-6.356 L 169.792,92.334 c -1.207,-4.559 1.51,-9.232 6.069,-10.438 4.56,-1.209 9.232,1.511 10.438,6.069 l 61.531,232.493 c 1.206,4.559 -1.511,9.233 -6.07,10.439 -0.732,0.194 -1.467,0.287 -2.19,0.287"
         fill="#5c4027"
         id="path65" />
      <path
         d="m 178.04,98.69 c -3.78,0 -7.236,-2.529 -8.248,-6.356 L 148.335,11.265 c -1.206,-4.558 1.511,-9.232 6.07,-10.438 4.56,-1.208 9.232,1.511 10.438,6.069 l 21.456,81.069 c 1.207,4.558 -1.51,9.232 -6.069,10.438 -0.732,0.194 -1.467,0.287 -2.19,0.287"
         fill="#d5a972"
         id="path66" />
      <path
         d="m 221.654,318.815 c -2.382,0 -4.752,-0.991 -6.44,-2.928 L 57.2,134.581 c -3.098,-3.556 -2.728,-8.949 0.826,-12.047 3.555,-3.099 8.949,-2.728 12.047,0.827 l 158.014,181.306 c 3.099,3.555 2.728,8.948 -0.826,12.046 -1.618,1.41 -3.617,2.102 -5.607,2.102"
         fill="#5c4027"
         id="path67" />
      <path
         d="m 63.64,137.509 c -2.383,0 -4.752,-0.991 -6.44,-2.928 L 2.102,71.362 c -3.099,-3.555 -2.728,-8.948 0.826,-12.047 3.555,-3.098 8.949,-2.728 12.047,0.827 l 55.098,63.219 c 3.098,3.554 2.728,8.948 -0.827,12.046 -1.618,1.41 -3.617,2.102 -5.606,2.102"
         fill="#d5a972"
         id="path68" />
    </g>
    <path
       d="m 214.874,408.831 -17.67,17.98 c -21.067,-17.681 -66.016,-58.27 -74.607,-89.345 -11.287,-40.869 12.771,-38.282 33.303,-40.479 -27.395,-4.245 -47.767,3.106 -49.56,24.622 -2.821,33.747 65.472,117.058 80.406,115.845 0,0 92.046,55.353 126.327,26.895 34.282,-28.463 -98.199,-55.518 -98.199,-55.518"
       fill="#d5a972"
       id="path69" />
    <path
       d="m 208.84,243.002 c 5.379,-13.26 11.507,-18.439 17.021,-19.797 5.135,0.939 10.589,2.841 16.242,5.608 15.808,7.742 33.093,22.23 48.715,41.259 35.61,43.356 48.231,101.281 48.231,101.281 l -45.534,26.365 -31.165,-10.273 c -0.005,-0.01 -77.373,-85.649 -53.51,-144.443"
       fill="#f2d9a3"
       id="path70" />
    <path
       d="m 242.103,228.813 v 0"
       fill="#f7e0aa"
       id="path71" />
    <path
       d="m 195.255,236.884 c 6.359,-12.121 17.381,-16.096 30.606,-13.679 -5.514,1.358 -11.642,6.537 -17.021,19.797 -23.863,58.794 53.505,144.433 53.51,144.443 l -38.097,-12.561 c -14.234,-4.69 -44.725,-108.009 -28.998,-138"
       fill="#d5a972"
       id="path72" />
    <path
       d="m 268.933,331.393 c 0.559,1.074 2.662,3.436 4.125,2.977 4.375,-1.384 -1.378,-10.129 -3.092,-11.777 -8.295,-7.961 -4.359,9.364 1.724,11.517"
       fill="#14110f"
       id="path73" />
    <path
       d="m 283.457,327.223 c 0.559,1.073 2.657,3.436 4.125,2.976 4.37,-1.378 -1.378,-10.123 -3.097,-11.771 -8.29,-7.967 -4.355,9.364 1.728,11.511"
       fill="#14110f"
       id="path74" />
    <path
       d="m 291.123,389.528 c 0,0 -34.166,-48.441 -83.835,-74.531 -18,-9.455 -35.826,-15.593 -51.388,-18.01 -20.532,2.197 -44.59,-0.39 -33.303,40.479 11.298,40.869 85.534,98.245 85.534,98.245 0,0 84.74,45.713 104.942,28.638 20.197,-17.081 -21.95,-74.821 -21.95,-74.821"
       fill="#f7e0aa"
       id="path75" />
    <path
       d="m 204.625,378.769 c 0.929,0.77 3.791,2.133 4.955,1.134 3.491,-2.971 -5.205,-8.79 -7.427,-9.644 -10.738,-4.105 -0.364,10.329 6.068,9.939"
       fill="#14110f"
       id="path76" />
    <path
       d="m 214.594,373.72 c 0.929,0.779 3.785,2.133 4.954,1.134 3.496,-2.972 -5.204,-8.785 -7.431,-9.634 -10.739,-4.11 -0.37,10.319 6.073,9.934"
       fill="#14110f"
       id="path77" />
    <path
       d="m 290.304,351.331 c 25.586,-54.904 69.716,-65.691 97.585,-55.153 4.285,1.618 8.266,3.716 11.922,6.242 0.084,0.13 30.934,49.974 -3.961,109.143 -32.533,55.168 -69.851,36.324 -79.98,38.152 -33.542,-17.405 -37.008,-73.842 -25.566,-98.384"
       fill="#c2d987"
       id="path78" />
    <path
       d="m 320.735,362.139 c 12.196,-26.156 33.223,-31.3 46.497,-26.276 2.043,0.774 4.206,1.453 5.684,2.971 0.049,0.056 14.733,23.809 -1.888,52.002 -15.502,26.286 -33.282,17.306 -38.108,18.18 -15.981,-8.296 -17.634,-35.181 -12.185,-46.877"
       fill="#f8efc0"
       id="path79" />
    <path
       d="m 395.85,411.563 c 34.895,-59.169 4.045,-109.013 3.961,-109.143 25.411,17.526 35.061,55.748 21.081,99.544 -15.992,50.103 -58.1,63.433 -98.08,50.643 -2.442,-0.784 -4.755,-1.758 -6.942,-2.892 10.129,-1.828 47.447,17.016 79.98,-38.152"
       fill="#a2bd61"
       id="path80" />
    <path
       d="m 374.494,327.298 c 3.805,-2.083 0.689,10.073 -3.936,9.853 -1.068,-3.156 1.19,-8.345 3.936,-9.853"
       fill="#14110f"
       id="path81" />
    <path
       d="m 327.737,345.997 c 0.634,0.869 2.816,2.647 4.035,2.037 3.636,-1.827 -2.627,-8.695 -4.365,-9.899 -8.391,-5.818 -2.507,8.83 3.127,9.859"
       fill="#14110f"
       id="path82" />
    <path
       d="m 317.329,388.369 c -0.61,2.932 -4.975,9.969 -6.813,8.755 -5.394,-3.556 3.466,-6.168 6.813,-8.755"
       fill="#14110f"
       id="path83" />
    <path
       d="m 333.75,404.331 c 3.067,0.384 0.859,8.331 -1.598,10.608 -0.904,-4.03 -1.124,-10.958 1.598,-10.608"
       fill="#14110f"
       id="path84" />
    <path
       d="m 367.362,413.905 c -2.188,2.058 -6.228,-7.097 -5.904,-10.303 3.127,-1.404 8.202,8.136 5.904,10.303"
       fill="#14110f"
       id="path85" />
    <path
       d="m 391.325,377.092 c -0.719,3.691 -10.478,-0.245 -13.435,-2.897 1.439,-1.608 14.224,-1.194 13.435,2.897"
       fill="#14110f"
       id="path86" />
    <path
       d="m 344.502,321.529 c 3.952,2.343 4.441,8.855 4.426,12.446 -0.874,-1.004 -3.221,-3.071 -3.631,-3.861 -1.348,-2.627 -2.477,-5.938 -0.795,-8.585"
       fill="#14110f"
       id="path87" />
    <path
       d="m 307.4,360.79 c 1.238,-3.316 8.87,-0.175 12.556,2.192 -2.967,0.72 -13.865,1.329 -12.556,-2.192"
       fill="#14110f"
       id="path88" />
    <path
       d="m 439.665,319.347 c 41.838,-43.801 87.098,-39.87 110.121,-20.952 3.537,2.907 6.633,6.168 9.291,9.734 0.035,0.155 13.276,57.261 -38.746,102.11 -48.512,41.823 -77.812,12.012 -87.992,10.499 -26.19,-27.24 -11.378,-81.813 7.326,-101.391"
       fill="#c2d987"
       id="path89" />
    <path
       d="m 465.032,339.344 c 19.928,-20.866 41.494,-18.998 52.461,-9.984 1.688,1.388 3.516,2.727 4.426,4.64 0.035,0.065 6.328,27.279 -18.459,48.65 -23.115,19.928 -37.074,5.724 -41.924,5 -12.476,-12.981 -5.424,-38.976 3.496,-48.306"
       fill="#f8efc0"
       id="path90" />
    <path
       d="m 520.331,410.239 c 52.022,-44.849 38.781,-101.955 38.746,-102.11 18.449,24.752 15.332,64.048 -11.953,101.052 -31.209,42.327 -75.369,41.453 -109.137,16.521 -2.062,-1.528 -3.939,-3.191 -5.648,-4.964 10.18,1.513 39.48,31.324 87.992,-10.499"
       fill="#a2bd61"
       id="path91" />
    <path
       d="m 527.122,323.582 c 4.266,-0.754 -2.582,9.759 -6.893,8.066 0,-3.332 3.807,-7.522 6.893,-8.066"
       fill="#14110f"
       id="path92" />
    <path
       d="m 476.829,326.299 c 0.324,1.029 1.818,3.411 3.172,3.221 4.035,-0.559 0.295,-9.075 -0.965,-10.773 -6.072,-8.201 -5.203,7.562 -0.199,10.338"
       fill="#14110f"
       id="path93" />
    <path
       d="m 453.39,363.097 c -1.524,2.583 -7.907,7.846 -9.264,6.109 -3.965,-5.1 5.264,-4.73 9.264,-6.109"
       fill="#14110f"
       id="path94" />
    <path
       d="m 463.823,383.479 c 2.778,1.349 -1.857,8.166 -4.914,9.54 0.434,-4.111 2.447,-10.743 4.914,-9.54"
       fill="#14110f"
       id="path95" />
    <path
       d="m 492.591,403.322 c -2.737,1.254 -3.621,-8.715 -2.287,-11.652 3.412,-0.324 5.154,10.339 2.287,11.652"
       fill="#14110f"
       id="path96" />
    <path
       d="m 527.093,376.138 c -1.869,3.271 -9.844,-3.586 -11.797,-7.053 1.877,-1.058 13.853,3.432 11.797,7.053"
       fill="#14110f"
       id="path97" />
    <path
       d="m 500.562,308.499 c 2.988,3.486 1.369,9.809 0.201,13.205 -0.506,-1.229 -2.069,-3.941 -2.203,-4.82 -0.434,-2.916 -0.446,-6.417 2.002,-8.385"
       fill="#14110f"
       id="path98" />
    <path
       d="m 452.825,333.79 c 2.238,-2.747 8.461,2.677 11.188,6.104 -3.035,-0.275 -13.555,-3.187 -11.188,-6.104"
       fill="#14110f"
       id="path99" />
    <path
       d="m 407.782,892.35 c -0.045,0 -0.093,0 -0.138,0 26.195,-0.023 109.766,-7.129 138.418,-94.503 7.556,-23.048 13.115,-45.976 17.505,-68.142 3.955,-19.988 6.946,-39.32 9.578,-57.586 2.413,-16.746 4.53,-32.598 6.788,-47.131 4.865,-31.305 10.429,-56.621 21.281,-72.234 -0.264,0.04 -0.524,0.125 -0.799,0.125 -0.004,0 -0.009,0 -0.014,0 0.005,0 0.009,0 0.014,0 0.275,0 0.535,-0.085 0.799,-0.125 l 0.144,-0.214 c 7.194,-10.244 13.606,-21.517 19.889,-33.029 0.469,-0.859 0.949,-1.708 1.412,-2.567 17.346,-31.979 33.979,-65.501 63.266,-84.599 5.972,-3.901 12.64,-8.726 19.062,-14.229 0,0 1.768,-11.691 0.774,-25.627 12.806,-0.722 23.941,-4.924 26.387,-9.929 -6.733,20.537 -29.114,38.797 -45.954,49.785 -40.66,26.515 -56.925,80.819 -84.57,120.195 -27.645,39.375 -21.141,141.145 -55.293,245.307 -22.45,68.462 -78.619,87.644 -114.486,92.751 -6.197,0.882 -11.784,1.344 -16.49,1.568 -2.875,0.136 -5.422,0.184 -7.573,0.184 m -15.279,-10e-4 c 4.561,-0.02 7.184,-0.251 7.188,-0.251 0,0 0.046,0.004 0.135,0.01 -0.603,0.047 -3.203,0.23 -7.323,0.241 m 95.241,-78.873 v 0 m -0.008,0 c -6.358,-0.008 -10.232,-10.686 -13.734,-23.779 3.502,13.091 7.377,23.769 13.734,23.779 m 32.91,-73.525 c -0.006,-0.016 -0.012,-0.03 -0.018,-0.045 0.006,0.015 0.012,0.029 0.018,0.045 m -0.057,-0.141 c -0.042,-0.104 -0.083,-0.207 -0.125,-0.31 0.042,0.103 0.083,0.206 0.125,0.31 m -0.133,-0.329 c -3.28,-8.07 -5.859,-11.25 -7.868,-11.276 2.009,0.025 4.587,3.205 7.868,11.276 m -7.899,-11.276 c 0.003,0 0.005,0 0.007,0 -0.002,0 -0.004,0 -0.007,0 m 36.92,-14.554 v 0 c 0.002,0 0.003,0 0.005,0 -0.002,0 -0.003,0 -0.005,0 m -0.007,0 c -1.692,-10e-4 -3.282,-0.491 -4.897,-0.998 1.615,0.507 3.205,0.997 4.897,0.998 m -16.043,-0.369 c 0.016,-0.01 0.033,-0.021 0.049,-0.03 -0.016,0.009 -0.033,0.02 -0.049,0.03 m 10.975,-0.682 c -0.031,-0.01 -0.062,-0.02 -0.094,-0.03 0.032,0.01 0.063,0.02 0.094,0.03 m -0.307,-0.097 c -1.576,-0.491 -3.187,-0.954 -4.948,-0.955 1.761,10e-4 3.372,0.464 4.948,0.955 m -4.976,-0.955 c 0.007,0 0.014,0 0.02,0 -0.006,0 -0.013,0 -0.02,0 m 20.092,-3.977 c 0.072,-0.088 0.143,-0.176 0.216,-0.266 -0.073,0.09 -0.144,0.178 -0.216,0.266 M 538.162,605.245 v 0 c 0.002,0 0.005,0 0.007,0 -0.002,0 -0.005,0 -0.007,0 m -0.005,0 c -2.558,-0.002 -3.036,-1.723 -5.011,-2.819 1.974,1.096 2.454,2.817 5.011,2.819 m 3.615,-0.735 c 0.029,-0.009 0.059,-0.019 0.088,-0.03 6.414,-2.177 10.184,-13.154 12.602,-19.107 5.463,-13.44 7.502,-34.242 22,-42.403 -14.498,8.161 -16.537,28.963 -22,42.403 -2.418,5.953 -6.188,16.93 -12.602,19.107 -0.029,0.011 -0.059,0.021 -0.088,0.03 m -10.963,-2.847 c -10e-4,0 -10e-4,0 -0.002,0 10e-4,0 10e-4,0 0.002,0 m -0.205,-0.028 v 0 c -0.027,-0.004 -0.055,-0.008 -0.082,-0.011 0.027,0.003 0.055,0.007 0.082,0.011 m -0.129,-0.018 c -0.015,-0.002 -0.031,-0.004 -0.047,-0.007 0.016,0.003 0.032,0.005 0.047,0.007 m -4.175,-1.569 v 0 m -10e-4,-10e-4 c -0.053,-0.035 -0.106,-0.07 -0.158,-0.105 0.052,0.035 0.105,0.07 0.158,0.105 m 74.095,-47.168 c -3.906,-0.002 -5.878,-1.844 -7.233,-4.146 1.355,2.302 3.328,4.143 7.233,4.146 m -8.442,-6.577 c -0.003,-0.006 -0.005,-0.012 -0.008,-0.018 0.003,0.006 0.005,0.012 0.008,0.018 m -0.078,-0.177 c -1.41,-3.207 -2.576,-6.349 -6.423,-6.352 3.848,0.002 5.012,3.145 6.423,6.352 m -15.357,-3.186 c 0.025,-0.013 0.051,-0.028 0.075,-0.042 -0.024,0.014 -0.05,0.029 -0.075,0.042 m 0.105,-0.058 c 0.047,-0.026 0.091,-0.051 0.137,-0.077 -0.046,0.026 -0.09,0.051 -0.137,0.077 m 8.8,-3.108 c 0.008,0 0.016,0 0.024,0 -0.008,0 -0.016,0 -0.024,0 m 28.811,-19.042 v 0 c 0.002,0 0.004,0 0.005,0 -0.001,0 -0.003,0 -0.005,0 m -0.011,0 c -5.482,-0.003 -11.071,-2.577 -20.001,-9.281 8.929,6.704 14.52,9.277 20.001,9.281 m -69.623,-1.576 c 0,-10e-4 0,-10e-4 10e-4,-0.002 -10e-4,10e-4 -10e-4,10e-4 -10e-4,0.002 m 0.004,-0.005 c 0.041,-0.053 0.083,-0.105 0.124,-0.157 -0.041,0.052 -0.083,0.104 -0.124,0.157 m 0.139,-0.175 c 0.068,-0.084 0.136,-0.167 0.204,-0.249 -0.068,0.082 -0.136,0.165 -0.204,0.249 m 0.252,-0.307 c 0.026,-0.032 0.053,-0.064 0.079,-0.095 -0.026,0.031 -0.053,0.063 -0.079,0.095 m 0.187,-0.222 c 0.066,-0.079 0.131,-0.156 0.198,-0.234 -0.067,0.078 -0.132,0.155 -0.198,0.234 m 48.905,-7.098 c -0.166,-0.124 -0.331,-0.25 -0.499,-0.377 0.168,0.127 0.333,0.253 0.499,0.377 m -0.499,-0.377 c -6.961,-5.285 -13.945,-7.926 -20.803,-7.929 6.859,0.002 13.841,2.643 20.803,7.929 m -20.822,-7.929 c 0.004,0 0.007,0 0.011,0 -0.004,0 -0.007,0 -0.011,0"
       fill="#edf7f5"
       id="path100" />
    <path
       d="m 407.644,892.35 c -4.866,-0.005 -7.68,-0.252 -7.684,-0.252 0,0 -0.045,0.004 -0.134,0.01 -0.089,-0.006 -0.135,-0.01 -0.135,-0.01 -0.004,0 -2.627,0.231 -7.188,0.251 -0.12,0 -0.241,0 -0.364,0 -3.396,0 -7.774,-0.118 -12.881,-0.517 15.243,-8.045 29.952,-19.024 38.807,-27.238 5.648,-5.25 9.819,-12.092 13.834,-18.889 15.52,-15.021 29.002,-36.266 40.74,-61.262 0.451,1.78 0.904,3.538 1.363,5.254 3.502,13.093 7.376,23.771 13.734,23.779 0.002,0 0.005,0 0.008,0 0.163,0 0.325,-0.007 0.491,-0.021 16.612,-1.41 17.935,-29.186 17.934,-46.06 -10e-4,-3.21 -0.049,-6.025 -0.048,-8.189 0,-0.395 0.001,-0.768 0.005,-1.118 0.132,-12.182 1.685,-29.863 6.431,-29.883 0.003,0 0.005,0 0.007,0 0.008,0 0.017,0 0.024,0 2.009,0.026 4.588,3.206 7.868,11.276 0.003,0.006 0.005,0.013 0.008,0.019 0.042,0.103 0.083,0.206 0.125,0.31 0.013,0.032 0.026,0.063 0.039,0.096 0.006,0.015 0.012,0.029 0.018,0.045 0.011,0.027 0.022,0.055 0.033,0.082 10.558,-5.918 4.207,-21.474 12.656,-26.695 0.031,-0.019 0.061,-0.038 0.092,-0.056 0.016,-0.01 0.033,-0.021 0.049,-0.03 2.092,-1.264 3.938,-1.701 5.643,-1.704 0.007,0 0.014,0 0.02,0 0.003,0 0.005,0 0.008,0 1.761,10e-4 3.372,0.464 4.948,0.955 0.071,0.023 0.142,0.045 0.213,0.067 0.032,0.01 0.063,0.02 0.094,0.03 0.057,0.017 0.114,0.035 0.171,0.053 1.615,0.507 3.205,0.997 4.897,0.998 0.002,0 0.004,0 0.007,0 0.002,0 0.003,0 0.005,0 2.782,-10e-4 5.839,-1.328 9.729,-6.08 0.072,-0.088 0.143,-0.176 0.216,-0.266 7.81,-9.713 2.996,-21.68 10.133,-31.254 1.084,-1.463 2.296,-2.748 3.585,-3.932 -2.632,18.266 -5.623,37.598 -9.578,57.586 -4.39,22.166 -9.949,45.094 -17.505,68.142 -28.652,87.374 -112.223,94.48 -138.418,94.503"
       fill="#948b7f"
       id="path101" />
    <path
       d="m 538.162,605.245 c -0.002,0 -0.004,0 -0.005,0 -2.557,-0.002 -3.037,-1.723 -5.011,-2.819 -0.605,-0.335 -1.349,-0.612 -2.337,-0.763 -10e-4,0 -10e-4,0 -0.002,0 -0.066,-0.01 -0.134,-0.019 -0.203,-0.028 -0.027,-0.004 -0.055,-0.008 -0.082,-0.011 -0.016,-0.003 -0.031,-0.005 -0.047,-0.007 -0.015,-0.002 -0.031,-0.004 -0.047,-0.007 -1.822,-0.263 -3.098,-0.884 -4.128,-1.562 0,0 -10e-4,0 -10e-4,-10e-4 -0.053,-0.035 -0.106,-0.07 -0.158,-0.105 4.514,-23.92 8.274,-46.868 11.421,-67.495 2.123,-5.172 4.339,-9.872 7.037,-13.292 0,-10e-4 0,-10e-4 10e-4,-0.002 10e-4,-10e-4 0.002,-0.002 0.003,-0.003 0.041,-0.053 0.083,-0.105 0.124,-0.157 0.006,-0.006 0.01,-0.012 0.015,-0.018 0.068,-0.084 0.136,-0.167 0.204,-0.249 0.015,-0.019 0.032,-0.039 0.048,-0.058 0.026,-0.032 0.053,-0.064 0.079,-0.095 0.036,-0.042 0.072,-0.085 0.108,-0.127 0.066,-0.079 0.131,-0.156 0.198,-0.234 8.633,-10.102 17.892,-15.165 27.386,-15.17 0.004,0 0.007,0 0.011,0 0.003,0 0.005,0 0.008,0 6.858,0.003 13.842,2.644 20.803,7.929 0.168,0.127 0.333,0.253 0.499,0.377 0.045,0.034 0.09,0.068 0.135,0.102 8.93,6.704 14.519,9.278 20.001,9.281 0.004,0 0.007,0 0.011,0 0.002,0 0.004,0 0.005,0 2.278,-10e-4 4.536,-0.444 7.009,-1.22 -6.283,11.512 -12.695,22.785 -19.889,33.029 l -0.144,0.214 c -0.264,0.04 -0.524,0.125 -0.799,0.125 -0.005,0 -0.009,0 -0.014,0 -0.002,0 -0.005,0 -0.007,0 -3.905,-0.003 -5.878,-1.844 -7.233,-4.146 -0.452,-0.769 -0.835,-1.588 -1.198,-2.407 -0.004,-0.008 -0.008,-0.017 -0.011,-0.024 -0.003,-0.006 -0.005,-0.012 -0.008,-0.018 -0.023,-0.053 -0.047,-0.106 -0.07,-0.159 -1.411,-3.207 -2.575,-6.35 -6.423,-6.352 -10e-4,0 -0.003,0 -0.005,0 -0.008,0 -0.016,0 -0.024,0 -2.015,0.006 -4.764,0.871 -8.663,3.031 -0.046,0.026 -0.09,0.051 -0.137,0.077 -0.01,0.005 -0.02,0.011 -0.03,0.016 -0.024,0.014 -0.05,0.029 -0.075,0.042 -0.019,0.011 -0.036,0.021 -0.055,0.031 -14.498,8.161 -16.537,28.963 -22,42.403 -2.418,5.953 -6.188,16.93 -12.602,19.107 -0.029,0.011 -0.059,0.021 -0.088,0.03 -1.557,0.522 -2.707,0.733 -3.603,0.735 -0.002,0 -0.005,0 -0.007,0"
       fill="#ead2ce"
       id="path102" />
    <path
       d="m 537.562,532.447 c 7.311,-47.912 11.33,-83.402 13.894,-90.064 2.665,-6.929 3.933,-17.108 5.12,-27.819 6.789,-2.074 12.343,-5.929 16.2,-9.265 6.338,1.223 12.711,1.818 18.638,1.819 6.628,0 12.697,-0.744 17.556,-2.188 2.058,-0.612 4.048,-1.278 5.968,-1.995 0.914,0.057 1.803,0.085 2.665,0.085 0.141,0 0.278,-10e-4 0.418,-0.002 21.336,-0.23 37.453,-7.467 49.848,-19.11 4.816,1.661 8.939,3.218 12.067,4.566 6.768,2.913 14.512,4.124 21.943,4.124 1.306,0 2.603,-0.037 3.882,-0.109 0.994,13.936 -0.774,25.627 -0.774,25.627 -6.422,5.503 -13.09,10.328 -19.062,14.229 -29.287,19.098 -45.92,52.62 -63.266,84.599 -0.463,0.859 -0.943,1.708 -1.412,2.567 -2.473,0.776 -4.731,1.219 -7.009,1.22 -0.001,0 -0.003,0 -0.005,0 -0.004,0 -0.007,0 -0.011,0 -5.481,-0.004 -11.072,-2.577 -20.001,-9.281 -0.045,-0.034 -0.09,-0.068 -0.135,-0.102 -0.166,-0.124 -0.331,-0.25 -0.499,-0.377 -6.962,-5.286 -13.944,-7.927 -20.803,-7.929 -0.003,0 -0.005,0 -0.008,0 -0.004,0 -0.007,0 -0.011,0 -9.494,0.005 -18.753,5.068 -27.386,15.17 -0.067,0.078 -0.132,0.155 -0.198,0.234 -0.036,0.042 -0.072,0.085 -0.108,0.127 -0.026,0.031 -0.053,0.063 -0.079,0.095 -0.016,0.019 -0.033,0.039 -0.048,0.058 -0.068,0.082 -0.136,0.165 -0.204,0.249 -0.005,0.006 -0.009,0.012 -0.015,0.018 -0.041,0.052 -0.083,0.104 -0.124,0.157 -10e-4,10e-4 -0.002,0.002 -0.003,0.003 -10e-4,10e-4 -10e-4,10e-4 -10e-4,0.002 -2.698,3.42 -4.914,8.12 -7.037,13.292"
       fill="#7f7e76"
       id="path103" />
    <path
       d="m 487.744,813.476 c -0.003,0 -0.006,0 -0.008,0 -6.357,-0.01 -10.232,-10.688 -13.734,-23.779 -0.459,-1.716 -0.912,-3.474 -1.363,-5.254 24.741,-52.686 41.706,-121.981 53.502,-184.501 0.052,0.035 0.105,0.07 0.158,0.105 0,10e-4 10e-4,10e-4 10e-4,10e-4 1.03,0.678 2.306,1.299 4.128,1.562 0.016,0.003 0.032,0.005 0.047,0.007 0.016,0.002 0.031,0.004 0.047,0.007 0.027,0.003 0.055,0.007 0.082,0.011 0.069,0.009 0.137,0.018 0.203,0.028 10e-4,0 10e-4,0 0.002,0 0.988,0.151 1.732,0.428 2.337,0.763 1.975,1.096 2.453,2.817 5.011,2.819 10e-4,0 0.003,0 0.005,0 0.002,0 0.005,0 0.007,0 0.896,-0.002 2.046,-0.213 3.603,-0.735 0.029,-0.009 0.059,-0.019 0.088,-0.03 6.414,-2.177 10.184,-13.154 12.602,-19.107 5.463,-13.44 7.502,-34.242 22,-42.403 0.019,-0.01 0.036,-0.02 0.055,-0.031 0.025,-0.013 0.051,-0.028 0.075,-0.042 0.01,-0.005 0.02,-0.011 0.03,-0.016 0.047,-0.026 0.091,-0.051 0.137,-0.077 3.899,-2.16 6.648,-3.025 8.663,-3.031 0.008,0 0.016,0 0.024,0 0.002,0 0.004,0 0.005,0 3.847,0.003 5.013,3.145 6.423,6.352 0.023,0.053 0.047,0.106 0.07,0.159 0.003,0.006 0.005,0.012 0.008,0.018 0.003,0.007 0.007,0.016 0.011,0.024 0.363,0.819 0.746,1.638 1.198,2.407 1.355,2.302 3.327,4.144 7.233,4.146 0.002,0 0.005,0 0.007,0 0.005,0 0.01,0 0.014,0 0.275,0 0.535,-0.085 0.799,-0.125 -10.852,15.613 -16.416,40.929 -21.281,72.234 -2.258,14.533 -4.375,30.385 -6.788,47.131 -1.289,1.184 -2.501,2.469 -3.585,3.932 -7.137,9.574 -2.323,21.541 -10.133,31.254 -0.073,0.09 -0.144,0.178 -0.216,0.266 -3.89,4.752 -6.947,6.079 -9.729,6.08 -0.002,0 -0.003,0 -0.005,0 -0.003,0 -0.005,0 -0.007,0 -1.692,-10e-4 -3.282,-0.491 -4.897,-0.998 -0.057,-0.018 -0.114,-0.036 -0.171,-0.053 -0.031,-0.01 -0.062,-0.02 -0.094,-0.03 -0.071,-0.022 -0.142,-0.044 -0.213,-0.067 -1.576,-0.491 -3.187,-0.954 -4.948,-0.955 -0.003,0 -0.005,0 -0.008,0 -0.006,0 -0.013,0 -0.02,0 -1.705,0.003 -3.551,0.44 -5.643,1.704 -0.016,0.009 -0.033,0.02 -0.049,0.03 -0.031,0.018 -0.061,0.037 -0.092,0.056 -8.449,5.221 -2.098,20.777 -12.656,26.695 -0.011,-0.027 -0.022,-0.055 -0.033,-0.082 -0.006,-0.016 -0.012,-0.03 -0.018,-0.045 -0.013,-0.033 -0.026,-0.064 -0.039,-0.096 -0.042,-0.104 -0.083,-0.207 -0.125,-0.31 -0.003,-0.006 -0.005,-0.013 -0.008,-0.019 -3.281,-8.071 -5.859,-11.251 -7.868,-11.276 -0.007,0 -0.016,0 -0.024,0 -0.002,0 -0.004,0 -0.007,0 -4.746,0.02 -6.299,17.701 -6.431,29.883 -0.004,0.35 -0.005,0.723 -0.005,1.118 -10e-4,2.164 0.047,4.979 0.048,8.189 0.001,16.874 -1.322,44.65 -17.934,46.06 -0.166,0.014 -0.328,0.021 -0.491,0.021"
       fill="#ece9dc"
       id="path104" />
    <path
       d="m 591.414,407.118 c -5.927,-10e-4 -12.3,-0.596 -18.638,-1.819 3.857,-3.338 6.018,-6.157 6.018,-6.157 3.103,0.366 6.049,0.542 8.859,0.541 3.13,0 6.081,-0.217 8.859,-0.631 6.564,2.203 12.931,3.545 18.426,3.883 -1.92,0.717 -3.91,1.383 -5.968,1.995 -4.859,1.444 -10.928,2.188 -17.556,2.188"
       fill="#d2b082"
       id="path105" />
    <path
       d="m 617.603,403.02 c -0.862,0 -1.751,-0.028 -2.665,-0.085 -5.495,-0.338 -11.862,-1.68 -18.426,-3.883 17.732,-2.644 28.431,-13.267 33.799,-26.18 13.714,3.44 27.229,7.474 37.558,11.036 -12.395,11.643 -28.512,18.88 -49.848,19.11 -0.14,0.001 -0.277,0.002 -0.418,0.002"
       fill="#ddc090"
       id="path106" />
    <path
       d="m 556.576,414.564 c 0.624,-5.63 1.226,-11.405 1.997,-16.933 9.793,-8.096 19.493,-21.078 26.393,-32.757 3.673,0.169 7.826,0.6 12.294,1.237 -2.066,21.238 -13.017,28.451 -13.017,28.451 0,0 2.97,-1.618 7.135,-4.658 -2.795,3.118 -5.321,5.568 -7.135,7.26 19.476,-3.424 29.898,-14.117 34.99,-26.925 3.668,0.821 7.38,1.705 11.078,2.633 -5.368,12.913 -16.067,23.536 -33.799,26.18 -2.778,0.414 -5.729,0.631 -8.859,0.631 -2.81,0.001 -5.756,-0.175 -8.859,-0.541 0,0 -2.161,2.819 -6.018,6.157 -3.857,3.336 -9.411,7.191 -16.2,9.265"
       fill="#edf2e8"
       id="path107" />
    <path
       d="m 584.243,394.562 c 0,0 10.951,-7.213 13.017,-28.451 2.888,0.412 5.909,0.91 9.021,1.48 -4.176,9.193 -9.96,16.797 -14.903,22.313 -4.165,3.04 -7.135,4.658 -7.135,4.658"
       fill="#ece5d8"
       id="path108" />
    <path
       d="m 565.02,376.291 c 0.715,-1.99 1.363,-3.973 1.942,-5.946 1.722,-2.212 3.771,-3.806 6.234,-4.605 -2.874,4.131 -5.719,7.895 -8.176,10.551"
       fill="#edf2e8"
       id="path109" />
    <path
       d="m 563.493,380.292 c 0.54,-1.337 1.048,-2.67 1.527,-4.001 2.457,-2.656 5.302,-6.42 8.176,-10.551 0.333,-0.108 0.675,-0.202 1.024,-0.28 0.535,-0.12 1.102,-0.223 1.703,-0.31 -0.967,1.399 -1.981,2.816 -3.041,4.245 -3.121,4.211 -6.265,7.817 -9.389,10.897"
       fill="#ece5d8"
       id="path110" />
    <path
       d="m 558.573,397.631 c 0.489,-3.506 1.046,-6.915 1.72,-10.12 1.166,-2.413 2.232,-4.819 3.2,-7.219 3.124,-3.08 6.268,-6.686 9.389,-10.897 1.06,-1.429 2.074,-2.846 3.041,-4.245 1.68,-0.241 3.612,-0.355 5.758,-0.355 1.046,0 2.142,0.027 3.285,0.079 -6.9,11.679 -16.6,24.661 -26.393,32.757"
       fill="#edf7f5"
       id="path111" />
    <path
       d="m 584.243,397.164 c 1.814,-1.692 4.34,-4.142 7.135,-7.26 4.943,-5.516 10.727,-13.12 14.903,-22.313 4.186,0.766 8.537,1.66 12.952,2.648 -5.092,12.808 -15.514,23.501 -34.99,26.925"
       fill="#edf7f5"
       id="path112" />
    <path
       d="m 560.293,387.511 c 1.484,-7.055 3.533,-13.135 6.669,-17.166 -0.579,1.973 -1.227,3.956 -1.942,5.946 -0.479,1.331 -0.987,2.664 -1.527,4.001 -0.968,2.4 -2.034,4.806 -3.2,7.219"
       fill="#bbd79b"
       id="path113" />
    <path
       d="m 263.147,567.362 c 0.353,6.657 0.662,13.306 0.969,19.92 1.071,23.058 2.178,46.901 5.152,69.127 5.479,40.981 18.075,83.11 35.468,118.625 5.139,10.491 10.266,20.1 15.348,28.783 -6.382,-11.849 -10.868,-22.53 -13.31,-28.812 -14.474,-37.2 -22.752,-74.345 -27.678,-124.2 -1.689,-17.096 -5.549,-34.399 -9.281,-51.133 -2.369,-10.622 -4.777,-21.417 -6.668,-32.31 z m 90.955,281.353 c 5.572,5.023 10.975,8.629 16.153,10.756 -5.731,-2.758 -11.118,-6.444 -16.153,-10.756 z m 45.858,40.943 0.211,0.009 c 0.297,0.025 3.034,0.244 7.611,0.244 24.818,0 107.988,-6.694 136.231,-92.823 16.478,-50.258 23.353,-99.244 29.419,-142.464 6.484,-46.208 11.606,-82.706 26.196,-103.486 9.05,-12.891 17.062,-27.755 24.811,-42.13 16.065,-29.799 32.675,-60.612 60.422,-78.707 11.898,-7.762 31.512,-22.408 41.161,-39.876 -6.18,2.835 -14.913,4.613 -24.143,4.613 -8.416,0 -16.337,-1.495 -22.907,-4.324 -18.663,-8.037 -72.581,-23.48 -97.291,-23.48 -2.807,0 -5.138,0.204 -6.926,0.606 -10.864,2.445 -13.3,24.639 -15.448,44.221 -1.321,12.023 -2.567,23.379 -5.575,31.198 -1.506,3.917 -3.748,19.868 -6.849,41.946 -12.87,91.606 -43.011,306.13 -120.747,368.915 -1.024,0.827 -2.516,0.694 -3.377,-0.3 -0.861,-0.994 -0.78,-2.491 0.183,-3.385 47.818,-44.404 67.323,-146.534 75.265,-224.391 9.222,-90.392 4.95,-166.889 0.678,-174.98 -9.446,-17.888 -84.465,-64.303 -116.615,-64.901 l -0.513,-0.004 c -30.816,0 -75.523,49.632 -77.252,51.568 -16.567,21.271 -40.396,68.441 -40.095,94.087 0.26,22.381 5.297,44.96 10.167,66.796 3.764,16.875 7.656,34.326 9.375,51.714 4.88,49.39 13.065,86.149 27.369,122.912 7.663,19.708 36.018,84.202 79.139,86.67 1.141,0.066 2.083,0.914 2.268,2.041 0.185,1.128 -0.438,2.233 -1.499,2.658 -3.325,1.335 -6.801,2.013 -10.333,2.013 -30.359,10e-4 -60.556,-48.636 -80.542,-89.437 -17.618,-35.977 -30.375,-78.638 -35.922,-120.125 -3.001,-22.436 -4.114,-46.386 -5.189,-69.547 -2.059,-44.334 -4.189,-90.177 -19.425,-129.603 -3.399,-8.794 -6.511,-17.326 -7.289,-24.992 -7.338,-9.404 -4.663,-21.995 -2.298,-33.131 2.072,-9.753 4.028,-18.964 -0.377,-24.961 -3.262,-4.442 -9.907,-7.08 -20.315,-8.067 -3.79,-0.36 -7.726,-0.542 -11.697,-0.542 -30.145,0 -60.503,10.264 -86.224,20.303 -10.273,4.008 -18,6.492 -24.773,6.493 -7.007,10e-4 -12.186,-2.723 -15.752,-8.415 8.16,20.277 31.61,37.648 43.967,45.707 27.742,18.094 44.352,48.906 60.415,78.704 7.75,14.375 15.763,29.241 24.814,42.133 14.592,20.781 19.715,57.282 26.201,103.494 6.066,43.218 12.941,92.201 29.419,142.456 28.242,86.129 111.412,92.823 136.23,92.823 4.58,0 7.314,-0.219 7.611,-0.244 z m 7.822,5.132 c -4.253,0 -7.038,-0.186 -7.822,-0.245 -0.788,0.059 -3.57,0.245 -7.821,0.245 -25.647,0 -111.602,-6.937 -140.867,-96.183 C 234.66,747.94 227.752,698.728 221.659,655.311 215.264,609.748 210.212,573.761 196.296,553.941 187.08,540.814 178.997,525.82 171.18,511.32 155.407,482.06 139.097,451.804 112.395,434.388 94.138,422.481 53.043,391.175 65.702,357.714 c 0.425,-1.122 1.598,-1.768 2.775,-1.526 1.173,0.242 1.998,1.302 1.944,2.499 -0.162,3.603 0.01,7.013 0.511,10.132 2.73,17.018 9.576,19.312 15.912,19.311 5.99,0 13.526,-2.463 23,-6.159 26.144,-10.205 57.044,-20.637 87.998,-20.637 4.124,0 8.215,0.189 12.158,0.563 11.873,1.126 19.653,4.409 23.787,10.037 5.699,7.759 3.421,18.487 1.217,28.862 -2.292,10.79 -4.662,21.948 1.755,29.59 0.325,0.388 0.522,0.866 0.564,1.371 0.588,7.21 3.668,15.651 7.046,24.39 8.353,21.616 12.833,44.991 15.513,68.943 3.179,-29.438 26.971,-72.666 40.824,-90.425 l 0.096,-0.116 c 1.936,-2.188 48.07,-53.916 81.558,-53.264 34.204,0.636 110.749,48.391 120.839,67.501 5.297,10.033 8.805,90.086 -0.137,177.753 -5.338,52.318 -15.899,115.539 -36.757,165.389 45.144,-89.615 65.72,-236.042 75.747,-307.402 3.263,-23.233 5.42,-38.582 7.128,-43.019 2.78,-7.228 3.993,-18.278 5.276,-29.978 2.441,-22.241 4.965,-45.239 19.229,-48.449 2.139,-0.481 4.83,-0.725 7.996,-0.725 25.291,0 80.241,15.704 99.22,23.878 5.966,2.568 13.22,3.926 20.978,3.926 14.261,0 26.031,-4.483 28.077,-8.669 0.562,-1.152 1.921,-1.673 3.109,-1.19 1.188,0.483 1.8,1.802 1.401,3.02 -7.417,22.625 -32.592,41.707 -46.939,51.068 -26.708,17.416 -43.018,47.674 -58.793,76.935 -7.816,14.499 -15.898,29.492 -25.114,42.618 -13.913,19.819 -18.964,55.803 -25.357,101.362 -6.094,43.421 -13,92.634 -29.614,143.304 -29.265,89.246 -115.22,96.183 -140.867,96.183"
       fill="#abd4d2"
       id="path114" />
    <g
       clip-path="url(#Clip_2)"
       id="g116">
      <path
         d="m 266.85,656.732 c 5.359,40.09 17.895,83.028 35.695,119.375 12.037,24.573 51.467,100.813 87.776,86.235 -40.23,-2.303 -68.957,-56.547 -81.274,-88.221 -16.121,-41.434 -23.198,-79.781 -27.523,-123.557 -3.931,-39.781 -19.089,-78.771 -19.554,-118.721 -0.319,-27.275 24.773,-75.311 40.659,-95.678 0,0 46.928,-53.045 79.686,-52.441 32.764,0.609 108.967,47.716 118.727,66.201 9.76,18.484 14.633,317.727 -76.439,402.298 95.953,-77.498 118.722,-388.708 126.853,-409.84 8.131,-21.136 3.256,-72.533 22.764,-76.923 19.517,-4.385 84.82,14.014 105.717,23.014 19.861,8.55 48.13,2.437 52.21,-5.913 0.145,-0.445 0.325,-0.879 0.454,-1.324 -6.053,6.503 -15.551,7.996 -26.645,7.482 -28.094,-1.299 -45.764,-23.244 -71.844,-30.496 -16.716,-4.655 -42.992,-7.497 -59.972,-2.028 -18.469,5.944 -17.821,17.356 -19.428,34.152 -4.465,46.438 -42.742,40.075 -76.844,26.385 -42.797,-17.186 -74.966,-55.363 -124.86,-31.305 -31.814,15.338 -73.227,78.942 -113.841,50.404 -1.709,-1.199 -3.118,-2.498 -4.276,-3.876 0.589,7.222 3.401,15.238 7.202,25.072 23.444,60.661 16.072,134.784 24.757,199.705"
         fill="#abd4d2"
         id="path115" />
      <path
         d="m 261.075,445.612 c -7.715,10e-4 -15.501,-2.298 -23.311,-7.785 -13.591,-9.548 -10.374,-24.689 -7.537,-38.048 2.071,-9.752 4.027,-18.962 -0.377,-24.959 -3.261,-4.44 -9.905,-7.078 -20.311,-8.065 -33.525,-3.179 -68.315,8.205 -97.921,19.761 -13.038,5.087 -25.471,9.235 -34.299,4.181 -5.793,-3.316 -9.458,-10.219 -11.205,-21.105 -0.553,-3.446 -0.744,-7.189 -0.567,-11.124 l 0.018,-0.389 0.137,-0.365 c 4.968,-13.128 17.795,-25.115 38.124,-35.63 1.197,-0.619 2.668,-0.151 3.288,1.046 0.618,1.197 0.15,2.669 -1.047,3.288 -19.033,9.844 -31.029,20.831 -35.662,32.662 -0.133,3.459 0.044,6.733 0.527,9.739 1.497,9.336 4.379,15.108 8.811,17.644 6.959,3.983 18.209,0.147 30.101,-4.492 30.14,-11.765 65.613,-23.35 100.156,-20.074 11.87,1.126 19.65,4.409 23.782,10.035 5.699,7.759 3.421,18.486 1.218,28.86 -2.769,13.036 -5.384,25.348 5.569,33.042 26.705,18.766 54.724,-5.45 79.445,-26.815 11.297,-9.762 21.968,-18.984 31.935,-23.789 37.468,-18.066 64.912,-2.315 93.967,14.36 10.505,6.029 21.366,12.263 32.861,16.878 27.394,10.997 46.572,12.778 58.631,5.444 8.465,-5.151 13.47,-15.176 14.875,-29.799 0.134,-1.396 0.252,-2.757 0.367,-4.079 1.272,-14.648 2.276,-26.218 20.743,-32.161 17.264,-5.56 43.917,-2.861 61.374,2 11.353,3.156 21.147,9.015 30.619,14.68 12.903,7.718 25.092,15.008 40.682,15.729 11.781,0.547 19.538,-1.457 24.353,-6.298 5.308,-19.175 -5.623,-36.465 -32.501,-51.393 -1.178,-0.654 -1.603,-2.139 -0.948,-3.317 0.655,-1.179 2.141,-1.601 3.317,-0.948 29.406,16.332 41.065,35.711 34.652,57.597 l -0.162,0.554 -0.392,0.422 c -7.662,8.231 -19.953,8.656 -28.544,8.257 -16.817,-0.778 -30.109,-8.728 -42.962,-16.416 -9.194,-5.499 -18.701,-11.186 -29.422,-14.167 -16.778,-4.672 -42.265,-7.307 -58.571,-2.056 -15.382,4.95 -16.133,13.603 -17.377,27.939 -0.116,1.336 -0.236,2.71 -0.37,4.123 -1.562,16.237 -7.347,27.508 -17.197,33.501 -13.462,8.189 -34.062,6.526 -62.985,-5.084 -11.811,-4.743 -22.822,-11.063 -33.472,-17.175 -27.908,-16.016 -54.267,-31.146 -89.419,-14.197 -9.385,4.525 -19.818,13.541 -30.864,23.087 -19.243,16.63 -40.386,34.898 -62.129,34.901"
         fill="#abd4d2"
         id="path116" />
    </g>
  </g>
</svg>
