<?xml version="1.0" encoding="UTF-8" standalone="no"?>
<svg
   version="1.1"
   x="0"
   y="0"
   width="817.23816"
   height="454.50003"
   viewBox="0 0 817.23816 454.50003"
   id="svg279"
   sodipodi:docname="Pastel-chocolate.svg"
   inkscape:version="1.3 (0e150ed6c4, 2023-07-21)"
   xmlns:inkscape="http://www.inkscape.org/namespaces/inkscape"
   xmlns:sodipodi="http://sodipodi.sourceforge.net/DTD/sodipodi-0.dtd"
   xmlns="http://www.w3.org/2000/svg"
   xmlns:svg="http://www.w3.org/2000/svg">
  <defs
     id="defs279">
    <filter
       id="filter5225-8"
       style="color-interpolation-filters:sRGB"
       height="1.0986334"
       width="1.0566923"
       y="-0.049316713"
       x="-0.028346128"
       inkscape:collect="always">
      <feGaussianBlur
         id="feGaussianBlur5227-5"
         stdDeviation="0.5092968"
         inkscape:collect="always" />
    </filter>
  </defs>
  <sodipodi:namedview
     id="namedview279"
     pagecolor="#ffffff"
     bordercolor="#000000"
     borderopacity="0.25"
     inkscape:showpageshadow="2"
     inkscape:pageopacity="0.0"
     inkscape:pagecheckerboard="0"
     inkscape:deskcolor="#d1d1d1"
     inkscape:zoom="0.56304348"
     inkscape:cx="158.0695"
     inkscape:cy="407.60618"
     inkscape:window-width="1920"
     inkscape:window-height="991"
     inkscape:window-x="-9"
     inkscape:window-y="-9"
     inkscape:window-maximized="1"
     inkscape:current-layer="svg279" />
  <path
     inkscape:connector-curvature="0"
     transform="matrix(16.506837,0,0,9.1673247,2627.1066,-1200.7941)"
     style="display:inline;fill:#000000;fill-rule:evenodd;filter:url(#filter5225-8)"
     d="m -134.16,154.73 a 21.561,12.195 0 0 0 -21.561,12.195 21.561,12.195 0 0 0 3.0195,6.1953 20.943,11.701 0 0 0 0.006,0.006 21.561,12.195 0 0 0 0.41406,0.40235 20.943,11.701 0 0 0 18.244,5.9863 20.943,11.701 0 0 0 20.039,-8.3144 21.561,12.195 0 0 0 1.3984,-4.2754 21.561,12.195 0 0 0 -21.561,-12.195 z"
     id="path7564" />
  <g
     transform="matrix(2.4553074,0,0,1.7931123,-98.42855,-18.262332)"
     id="g7566">
    <ellipse
       cx="203.31"
       cy="171.41"
       ry="84.997002"
       rx="152.13"
       style="fill:#cccccc;fill-opacity:1;fill-rule:evenodd"
       id="ellipse7568" />
    <ellipse
       cx="202.41"
       cy="164.95"
       ry="88.584"
       rx="156.62"
       style="fill:#f9f9f9;fill-opacity:1;fill-rule:evenodd"
       id="ellipse7570" />
    <path
       d="M 202.41,78.249 A 153.28,86.699 0 0 0 49.13,164.95 153.28,86.699 0 0 0 202.41,251.65 153.28,86.699 0 0 0 355.7,164.95 153.28,86.699 0 0 0 202.41,78.249 Z m 0,3.0156 a 147.95,83.684 0 0 1 147.96,83.685 147.95,83.684 0 0 1 -147.96,83.68 147.95,83.684 0 0 1 -147.95,-83.68 147.95,83.684 0 0 1 147.95,-83.685 z"
       inkscape:connector-curvature="0"
       style="opacity:0.1;fill:#565656;fill-opacity:1;fill-rule:evenodd"
       id="path7572" />
    <ellipse
       cx="202.41"
       cy="164.95"
       ry="79.259003"
       rx="140.13"
       style="fill:#e8e8e8;fill-opacity:1;fill-rule:evenodd"
       id="ellipse7574" />
    <ellipse
       cx="203.05"
       cy="180.17"
       ry="52.627998"
       rx="87.339996"
       style="fill:#d6d6d6;fill-opacity:1;fill-rule:evenodd"
       id="ellipse7576" />
    <path
       d="m 203.05,127.54 a 87.34,52.628 0 0 0 -87.352,52.621 87.34,52.628 0 0 0 70.824,51.657 87.34,52.628 0 0 1 -66.383,-51.018 87.34,52.628 0 0 1 87.338,-52.636 87.34,52.628 0 0 1 16.528,0.97889 87.34,52.628 0 0 0 -20.955,-1.6032 z"
       inkscape:connector-curvature="0"
       style="fill:#cccccc;fill-rule:evenodd"
       id="path7578" />
    <path
       d="m 247.86,135.08 a 87.34,52.628 0 0 1 37.512,43.187 87.34,52.628 0 0 1 -87.338,52.636 87.34,52.628 0 0 1 -44.804,-7.5194 87.34,52.628 0 0 0 49.826,9.4204 87.34,52.628 0 0 0 87.338,-52.636 87.34,52.628 0 0 0 -42.534,-45.088 z"
       inkscape:connector-curvature="0"
       style="fill:#cccccc;fill-rule:evenodd"
       id="path7580" />
    <path
       d="m 202.42,85.689 a 140.13,79.259 0 0 0 -140.13,79.265 140.13,79.259 0 0 0 140.13,79.251 140.13,79.259 0 0 0 3.7171,-0.0726 140.13,79.259 0 0 1 -137.51,-79.18 140.13,79.259 0 0 1 136.41,-79.194 140.13,79.259 0 0 0 -2.6247,-0.0726 z"
       inkscape:connector-curvature="0"
       style="fill:#ececec;fill-rule:evenodd"
       id="path7582" />
    <path
       d="m 202.42,85.689 a 140.13,79.259 0 0 0 -2.6105,0.0581 140.13,79.259 0 0 1 138.3,79.209 140.13,79.259 0 0 1 -137.52,79.194 140.13,79.259 0 0 0 1.8302,0.0581 140.13,79.259 0 0 0 140.13,-79.25 140.13,79.259 0 0 0 -140.13,-79.268 z"
       inkscape:connector-curvature="0"
       style="fill:#cccccc;fill-rule:evenodd"
       id="path7584" />
  </g>
  <g
     id="Layer_1"
     transform="matrix(-0.52258932,0,0,0.55685496,622.59852,0.94357215)">
    <path
       d="m 139.185,552.208 c 21.488,-12.376 11.5,-3.176 28.996,-2.196 12.008,0.707 3.387,-5.855 16.836,-7.976 2.141,10.961 0.828,15.429 -13.273,16.882 -6.536,0.641 -8.59,-10.082 -32.559,-6.71"
       fill="#614636"
       id="path1" />
    <path
       d="m 814.93,551.051 c -24.58,6.692 -8.05,13.063 -26.52,6.407 -12.69,-4.571 -3.4,-9.18 -17.99,-11.18 -0.75,-12.688 9.23,-11.688 24.45,-8.793 16.84,3.219 3.86,11.086 20.06,13.566"
       fill="#614636"
       id="path2" />
    <path
       d="m 3.271,387.305 c -2.473,-13.761 28.309,-2.59 33.789,16.332 -9.894,-2.035 -25.004,5.731 -32.937,2.371 -3.34,-1.445 1.082,-7.894 -0.852,-18.703"
       fill="#614636"
       id="path3" />
    <path
       d="m 731.62,341.965 c 12.17,-0.32 39.04,-0.543 44.54,18.367 -9.91,-2.027 -25.04,5.758 -32.97,2.36 -3.36,-1.422 -22.53,-20.379 -11.57,-20.727"
       fill="#614636"
       id="path4" />
    <path
       d="m 826.87,684.204 c 1.41,-11.266 -3.82,-74.864 -3.57,-96.231 0.17,-13.34 1.18,-22.043 1.02,-37.676 -0.03,-4.093 -2.83,-20.773 -3.04,-25.465 -0.83,-17.652 0.38,-35.468 0,-51.937 -0.45,-18.57 1.37,-29.633 0.86,-46.836 -0.52,-16.879 -2.42,-35.094 -2.91,-49.855 -1.1,-33.09 0,-86.379 0,-96.735 -29.33,-21.996 -788.799,11.137 -810.791,11.137 -2.82,13.164 -5.125,27.289 -4.895,61.152 0.055,6.887 2.918,29.313 3.059,36.664 0.07,4.176 -0.23,12.106 0,17.301 0.512,11.84 1.75,22.395 2.027,33.574 0.305,11.832 -0.429,18.59 0,29.532 0.68,16.863 3.305,22.488 4.086,38.699 0.274,5.859 -3.004,13.66 -3.058,19.344 -0.157,13.293 2.441,23.968 3.058,35.644 0.625,12.035 -3.554,35.766 -3.066,45.313 1.058,20.562 1.266,41.203 2.305,61.609 34.531,0.707 69.648,1.977 104.582,3.16 45.816,1.551 91.652,2.656 137.484,3.652 54.187,1.18 108.387,2.157 162.578,3.028 54.317,0.875 108.637,1.648 162.953,2.344 46.208,0.593 92.418,1.132 138.618,1.617 29.86,0.316 59.71,0.613 89.57,0.843 1.07,0.008 19.08,0.493 19.13,0.122"
       fill="#7f5a46"
       id="path5" />
    <path
       d="m 826.87,684.204 c 1.41,-11.266 -3.82,-74.864 -3.57,-96.231 0.17,-13.34 1.18,-22.043 1.02,-37.676 -0.03,-4.093 -2.83,-20.773 -3.04,-25.465 -0.83,-17.652 0.38,-35.468 0,-51.937 -0.45,-18.57 1.37,-29.633 0.86,-46.836 -0.52,-16.879 -2.42,-35.094 -2.91,-49.855 -1.1,-33.047 0,-86.215 0,-96.688 0,-8.144 -20.65,1.973 -23.15,4.645 -6.27,6.691 -7.3,18.211 -8.17,26.812 -1.93,18.91 1.15,37.785 2.34,56.602 3.33,52.683 1.08,105.578 3.35,158.386 1.49,34.555 2.39,69.114 3.24,103.688 0.23,9.527 -4.44,43.695 1.25,50.652 2.71,3.332 28.53,5.922 28.78,3.903"
       fill="#74523e"
       id="path6" />
    <path
       d="m 825.34,682.676 c 0,-22.398 -2.29,-73.336 -2.04,-94.703 0.17,-13.34 1.18,-22.043 1.02,-37.676 -0.03,-4.093 -2.83,-20.773 -3.04,-25.465 -0.83,-17.652 0.38,-35.468 0,-51.937 -0.45,-18.57 1.37,-29.633 0.86,-46.836 -0.52,-16.879 -2.42,-35.094 -2.91,-49.855 -1.1,-33.09 0,-70.262 0,-92.668 -29.33,-21.993 -788.799,7.07 -810.791,7.07 -2.82,13.164 -3.602,23.726 -3.371,57.602 0.047,6.882 1.394,32.863 1.535,40.214 0.07,4.176 -0.23,12.106 0,17.301 0.512,11.84 1.75,22.395 2.027,33.574 0.305,11.832 -0.429,18.59 0,29.532 0.68,16.863 0.246,17.414 1.02,33.605 0.273,5.867 0.062,18.754 0.008,24.438 -0.157,13.293 2.441,23.968 3.058,35.644 0.625,12.035 -2.535,23.051 -2.047,32.598 1.129,21.847 0.457,53.636 2.036,75.347 163.554,9.645 330.277,3.856 494.593,7.59 19.653,0.442 303.792,0.559 318.042,4.625 z"
       fill-opacity="0"
       stroke="#694939"
       stroke-width="6.661"
       stroke-linecap="round"
       stroke-linejoin="round"
       id="path7" />
    <path
       d="m 242.08,321.825 c -19.727,5.379 -2.582,14.836 -59.496,-1.578 -12.75,-3.637 -12.29,-9.743 -26.903,-11.743 13.219,-5.168 27.016,1.692 42.199,4.582 16.825,3.25 28.004,6.223 44.2,8.739"
       fill="#614636"
       id="path8" />
    <path
       d="m 596.947,434.122 c -24.574,6.691 -39.188,6.183 -57.684,-0.496 -12.687,-4.575 -11.015,-8.247 -25.601,-10.247 13.218,-5.148 19.203,-6.007 34.402,-3.019 16.793,3.176 32.652,11.281 48.883,13.762"
       fill="#614636"
       id="path9" />
    <path
       d="m 785.35,418.836 c -10.86,3.395 -19.13,7.133 -29.72,2.762 -8.82,-3.621 -15.83,-8.863 -25.53,-10.156 4,0.535 10.73,-5.352 14.89,-6.309 6.54,-1.484 10.41,-0.523 16.65,1.614 7.77,2.66 18.91,4.609 23.71,12.089"
       fill="#614636"
       id="path10" />
    <path
       d="m 790.61,579.665 c -24.58,6.738 -26.66,11.281 -45.17,4.48 -8.95,-3.297 -4.59,-7.684 -39.17,-12.34 13.22,-5.23 22.09,-2.293 37.31,0.617 16.8,3.219 30.83,4.754 47.03,7.243"
       fill="#614636"
       id="path11" />
    <path
       d="m 141.361,336.704 c -24.586,6.73 -8.035,13.117 -26.524,6.41 -12.668,-4.59 -14.73,-6.723 -29.355,-8.715 13.211,-5.211 14.945,-12.922 30.148,-10.039 16.797,3.23 9.52,9.84 25.731,12.344"
       fill="#614636"
       id="path12" />
    <path
       d="m 328.716,415.856 c -24.562,6.664 -8.011,13.078 -26.519,6.375 -12.668,-4.547 -14.723,-6.66 -29.328,-8.645 13.207,-5.218 14.914,-12.957 30.117,-10.054 16.816,3.211 9.519,9.855 25.73,12.324"
       fill="#614636"
       id="path13" />
    <path
       d="m 59.873,354.79 c -24.559,6.671 -8.008,13.089 -26.512,6.386 -12.676,-4.55 -12.668,-5.379 -27.274,-7.379 2.067,-21.617 12.852,-14.265 28.063,-11.355 16.808,3.215 9.519,9.879 25.723,12.348"
       fill="#614636"
       id="path14" />
    <path
       d="m 61.779,418.731 c -27.629,7.539 -13.227,-0.039 -26.492,6.383 -26.114,12.742 -26.778,2.148 -29.356,-8.668 13.211,-5.192 4.074,-2.059 19.277,0.855 16.817,3.235 20.399,-1.035 36.571,1.43"
       fill="#614636"
       id="path15" />
    <path
       d="m 350.794,350.528 c -24.582,6.703 -8.031,13.074 -26.531,6.39 -12.676,-4.562 -9.051,-7.929 -23.637,-9.933 -0.789,-12.703 9.602,-5.387 24.805,-2.477 16.824,3.239 9.141,3.524 25.363,6.02"
       fill="#614636"
       id="path16" />
    <path
       d="m 558.302,325.321 c -24.566,6.676 -8.05,13.082 -26.511,6.383 -12.715,-4.575 -9.071,-7.934 -23.704,-9.942 -0.753,-12.68 9.657,-5.383 24.868,-2.472 16.789,3.242 9.144,3.515 25.347,6.031"
       fill="#614636"
       id="path17" />
    <path
       d="m 617.37,579.801 c -24.591,6.684 -8.056,13.09 -26.536,6.379 -12.661,-4.551 -3.387,-9.152 -17.993,-11.172 -0.781,-12.683 9.243,-11.695 24.446,-8.773 16.833,3.203 3.836,11.043 20.083,13.566"
       fill="#614636"
       id="path18" />
    <path
       d="m 91.834,584.52 c -24.583,6.719 -8.032,13.109 -26.528,6.426 -12.687,-4.61 -3.371,-9.199 -17.972,-11.172 -0.762,-12.695 9.234,-11.703 24.433,-8.805 16.809,3.235 3.856,11.063 20.067,13.551"
       fill="#614636"
       id="path19" />
    <path
       d="m 647.23,307.477 c -24.69,8.141 -8.07,13.52 -26.61,7.922 -12.759,-3.82 -3.4,-8.906 -18.064,-10.043 -0.762,-12.641 9.289,-12.234 24.564,-10.188 16.9,2.239 3.86,10.793 20.11,12.309"
       fill="#614636"
       id="path20" />
    <path
       d="m 744.47,458.934 c -24.56,6.719 -8.01,13.125 -26.5,6.398 -12.66,-4.546 -9.05,-7.914 -23.66,-9.914 -0.77,-12.687 9.64,-5.371 24.81,-2.433 16.83,3.203 9.18,3.469 25.35,5.949"
       fill="#614636"
       id="path21" />
    <path
       d="m 784.01,307.918 c -23,10.922 -5.57,14.329 -24.97,10.95 -13.27,-2.246 -10.29,-6.203 -25.03,-5.61 -2.99,-12.355 8.54,-6.976 24,-6.746 17.13,0.203 9.63,1.809 26,1.406"
       fill="#614636"
       id="path22" />
    <path
       d="m 512.31,590.836 c -24.574,6.692 -8.012,13.118 -26.492,6.387 -12.695,-4.551 -9.059,-7.929 -23.664,-9.922 -0.754,-12.668 9.629,-5.371 24.82,-2.48 16.844,3.269 9.133,3.508 25.336,6.015"
       fill="#614636"
       id="path23" />
    <path
       d="m 183.9,465.579 c -24.566,6.699 -8.016,13.117 -26.496,6.39 -12.696,-4.547 -9.051,-7.922 -23.664,-9.914 -0.754,-12.679 9.629,-5.371 24.824,-2.488 16.844,3.265 9.133,3.504 25.336,6.012"
       fill="#614636"
       id="path24" />
    <path
       d="m 436.084,619.676 c -22.344,6.078 -7.301,11.899 -24.106,5.813 -11.539,-4.176 -8.234,-7.223 -21.527,-9.031 -0.68,-11.532 8.765,-4.868 22.59,-2.243 15.285,2.938 8.261,3.188 23.043,5.461"
       fill="#614636"
       id="path25" />
    <path
       d="m 795.37,377.582 c -24.56,6.684 -8.03,13.071 -26.47,6.379 -12.73,-4.57 -9.07,-7.941 -23.71,-9.933 -0.76,-12.696 9.61,-5.395 24.87,-2.477 16.79,3.239 9.12,3.524 25.31,6.031"
       fill="#614636"
       id="path26" />
    <path
       d="m 211.427,414.547 c -24.582,6.684 -8.039,13.047 -26.511,6.387 -12.684,-4.558 -9.051,-7.934 -23.645,-9.898 -0.801,-12.688 1.191,-17.16 16.402,-14.235 7.051,1.364 7.766,13.735 33.754,17.746"
       fill="#614636"
       id="path27" />
    <path
       d="m 601.197,378.235 c -24.563,6.683 -10.336,6.441 -28.832,-0.238 -12.696,-4.59 -1.028,-2.528 -15.66,-4.508 -0.754,-12.695 3.707,-8.391 18.882,-5.453 7.059,1.332 -0.351,6.214 25.61,10.199"
       fill="#614636"
       id="path28" />
    <path
       d="m 255.287,377.344 c -24.571,6.719 -10.371,6.442 -28.86,-0.258 -12.675,-4.597 -1.035,-2.507 -15.633,-4.48 -0.761,-12.676 3.672,-8.445 18.883,-5.516 7.031,1.332 -0.367,6.25 25.61,10.254"
       fill="#614636"
       id="path29" />
    <path
       d="m 27.771,292.696 c 12.152,-0.32 29.375,-5.891 34.836,13.027 -9.895,-1.992 -15.301,11.082 -23.281,7.684 -3.321,-1.395 -22.535,-20.434 -11.555,-20.711"
       fill="#ecd8ab"
       id="path30" />
    <path
       d="m 397.896,305.907 c 12.16,-0.348 39.023,-0.586 44.492,18.351 -9.875,-2.004 -24.988,5.746 -32.918,2.368 -3.367,-1.407 -22.562,-20.426 -11.574,-20.719"
       fill="#614636"
       id="path31" />
    <path
       d="m 490.068,342.196 c 12.109,-0.379 39.023,-0.59 44.484,18.348 -9.902,-2 -24.996,5.757 -32.945,2.398 -3.313,-1.453 -22.547,-20.465 -11.539,-20.746"
       fill="#614636"
       id="path32" />
    <path
       d="m 405.376,403.29 c 12.165,-0.352 39.024,-0.622 44.52,18.328 -9.902,-2.024 -25.012,5.699 -32.934,2.359 -3.351,-1.414 -22.574,-20.41 -11.586,-20.687"
       fill="#614636"
       id="path33" />
    <path
       d="m 111.205,409.582 c 12.152,-0.32 25.453,-16.25 30.89,2.672 -9.871,-1.992 -9.363,14.071 -17.285,10.75 -3.344,-1.457 -24.613,-13.125 -13.605,-13.422"
       fill="#614636"
       id="path34" />
    <path
       d="m 1.505,280.481 c 14.606,13.391 524.981,6.707 731.665,3.441 43.29,-1.394 62.64,-6.5 85.6,-1.441 C 789.7,196.465 540.712,43.715 515.13,56.129 489.287,68.676 19.958,265.223 1.505,280.481 Z"
       fill-opacity="0"
       stroke="#755143"
       stroke-width="6.286"
       stroke-linecap="round"
       stroke-linejoin="round"
       id="path35" />
    <path
       d="m 354.97,487.04 c -3.101,4.222 -3.258,10.097 -6.359,14.394 -3.235,4.461 -8.52,-0.293 -10.457,7.41 -2.156,8.598 2.652,10.61 9.316,10.758 18.461,0.457 29.504,-32.719 33.692,-45.312 -9.293,1.156 -20.379,4.839 -26.192,12.75"
       fill="#614636"
       id="path36" />
    <path
       d="m 39.529,573.762 c -1.461,0.313 -2.871,0.633 -4.278,0.961 -51.808,12.442 8.016,-29.879 4.278,-0.961"
       fill="#614636"
       id="path37" />
    <path
       d="m 57.935,527.055 c 9.281,6.188 17.277,15.203 5.195,18.774 -14.019,4.121 -19.343,-17.36 -30.586,-15.93 -3.48,0.441 -23.445,32.414 -19.132,3.812 2.093,-13.843 19.902,-13.835 30.984,-12.945 2.668,0.211 8.316,2.801 13.539,6.289"
       fill="#614636"
       id="path38" />
    <path
       d="m 162.326,539.071 c 11.574,-7.324 16.8,-24.031 31.625,-26.527 10.152,-1.719 21.894,4.285 21.25,15.171 -16.102,-9.453 -46.266,17.239 -60.926,21.785 -8.563,2.661 -16.238,5.25 -23.324,-2.386 -3.332,-3.61 -3.629,-21.438 -5.5,-22.309 7.574,3.527 8.941,14.762 18.074,16.863 8.117,1.864 14,0.442 18.801,-2.597"
       fill="#614636"
       id="path39" />
    <path
       d="m 288.701,582.649 c -9.215,8.371 -47.016,-0.215 -53.469,-8.731 -1.352,-1.781 71.793,-7.949 53.469,8.731"
       fill="#614636"
       id="path40" />
    <path
       d="m 439.919,463.504 c -9.207,8.364 -47.007,-0.21 -53.472,-8.73 -1.34,-1.781 71.805,-7.949 53.472,8.73"
       fill="#614636"
       id="path41" />
    <path
       d="m 303.978,536.821 c -9.219,8.375 -47.02,-0.211 -53.473,-8.731 -1.347,-1.777 71.793,-7.949 53.473,8.731"
       fill="#614636"
       id="path42" />
    <path
       d="m 334.49,573.211 c 17.426,-4.187 29.633,15.551 5.648,15.825 -13.789,0.156 -24.152,-11.375 -5.648,-15.825"
       fill="#614636"
       id="path43" />
    <path
       d="m 683.04,646.399 c -7.25,0.203 -18.07,0.25 -18.32,-1.117 -0.93,-4.848 -1.94,-9.574 -2.42,-14.469 -7.93,-1.434 -25.76,5.039 -34.5,7.465 6.39,9.445 67.9,33.219 61.45,7.855 -0.73,0.067 -3.15,0.176 -6.21,0.266"
       fill="#614636"
       id="path44" />
    <path
       d="m 288.197,637.301 c 9.988,7.914 24.586,3.739 36.433,6.235 -2.871,-0.606 -3.515,13.687 -3.293,15.082 26.289,-7.235 -4.535,-54.489 -33.14,-21.317"
       fill="#614636"
       id="path45" />
    <path
       d="m 443.189,512.387 c 0.762,3.129 38.801,3.543 42.297,3.055 1.187,-8.86 -3.11,-18.442 -2.633,-27.512 0.332,-6.14 6.793,-9.242 2.277,-16.062 -15.238,-22.969 -18.488,19.707 -21.179,23.562 -5.762,8.281 -23.957,3.867 -20.762,16.957"
       fill="#614636"
       id="path46" />
    <path
       d="m 303.998,469.536 c 8.445,1.046 17.578,9.371 11.664,18.074 -10.454,15.402 -14.403,-6.774 -16.567,-6.875 -7.566,-0.34 -20.343,3.422 -21.976,-5.785 6.746,-1.696 13.601,-3.844 20.496,-5.047 2.324,-0.422 4.508,-0.598 6.383,-0.367"
       fill="#614636"
       id="path47" />
    <path
       d="m 620.19,322.946 c 8.44,1.035 17.59,9.371 11.67,18.074 -10.46,15.402 -14.4,-6.785 -16.57,-6.875 -7.566,-0.34 -20.355,3.422 -21.988,-5.793 6.746,-1.691 13.614,-3.836 20.508,-5.051 2.33,-0.41 4.5,-0.586 6.38,-0.355"
       fill="#614636"
       id="path48" />
    <path
       d="m 104.134,383.329 c 2.473,8.14 -1.441,19.875 -11.785,17.996 -18.332,-3.301 0.348,-15.914 -0.441,-17.934 -2.754,-7.059 -11.391,-17.211 -3.625,-22.433 4.277,5.48 9.023,10.886 12.933,16.687 1.313,1.965 2.368,3.875 2.918,5.684"
       fill="#614636"
       id="path49" />
    <path
       d="m 88.697,501.004 c -4.426,7.258 -15.801,12.153 -21.281,3.184 -9.739,-15.871 12.109,-10.336 13.089,-12.273 3.434,-6.747 5.262,-19.946 14.332,-17.633 -1.25,6.84 -2.113,13.968 -3.847,20.754 -0.586,2.285 -1.313,4.343 -2.293,5.968"
       fill="#614636"
       id="path50" />
    <path
       d="m 517.798,552.325 c -34.625,6.75 8.051,-42.18 0,-7.637"
       fill="#614636"
       id="path51" />
    <path
       d="m 823.3,515.665 c -34.62,6.746 8.05,-42.184 0,-7.641"
       fill="#614636"
       id="path52" />
    <path
       d="m 739.29,358.387 c -34.62,6.731 8.05,-42.199 0,-7.637"
       fill="#614636"
       id="path53" />
    <path
       d="m 798.87,549.27 c -34.64,6.746 8.05,-42.18 0,-7.637"
       fill="#614636"
       id="path54" />
    <path
       d="m 820.25,408.77 c -34.63,6.723 8.05,-42.168 0,-7.625"
       fill="#614636"
       id="path55" />
    <path
       d="m 248.962,503.446 c -34.632,6.746 8.051,-42.184 0,-7.637"
       fill="#614636"
       id="path56" />
    <path
       d="m 71.767,378.243 c -34.625,6.738 8.051,-42.192 0,-7.637"
       fill="#614636"
       id="path57" />
    <path
       d="M 72.466,455.418 C 62.431,489.235 38.775,428.766 65.701,451.883"
       fill="#614636"
       id="path58" />
    <path
       d="m 281.736,452.36 c -10.043,33.816 -33.692,-26.649 -6.766,-3.535"
       fill="#614636"
       id="path59" />
    <path
       d="m 368.107,369.071 c -4.223,10.375 6.316,14.203 13.551,11.961 0.172,-6.946 -3.196,-15.715 -8.969,-15.008"
       fill="#614636"
       id="path60" />
    <path
       d="m 202.9,596.051 c -7.617,-0.297 -31.274,5.551 -33.066,-3.996 -1.512,-8.078 8.656,-13.594 15.054,-13.941 11.028,-0.598 19.262,17.98 18.012,17.937"
       fill="#614636"
       id="path61" />
    <path
       d="m 609.412,494.157 c -4.082,11.793 -16.301,19.035 -18.551,30.519 -15.293,0.59 -13.055,-13.078 -6.867,-21.031 3.332,-4.266 25.988,-11.133 25.418,-9.488"
       fill="#614636"
       id="path62" />
    <path
       d="m 817.94,326.754 c 2.51,12.227 -4.28,24.692 -0.34,35.707 -12.86,8.329 -17.91,-4.55 -16.66,-14.558 0.68,-5.367 16.64,-22.848 17,-21.149"
       fill="#614636"
       id="path63" />
    <path
       d="m 694.11,494.008 c -0.08,1.203 -0.1,2.633 -0.07,4.352 0.15,7.269 2.46,11.613 -3.04,17.808 -8.29,9.344 -25.49,9.161 -36.77,8.434 5.37,0.352 20.98,-7.773 24.22,-12.73 8.25,-12.606 -9.56,-24.043 2.02,-33.891 5.65,-4.801 21.23,-5.52 24.99,2.184 -7.77,7.453 -10.83,6.195 -11.35,13.843"
       fill="#614636"
       id="path64" />
    <path
       d="m 623.06,552.059 c -8.9,3.691 -20.789,2.012 -30.144,1.625 -7.59,-32.184 30.334,-1.707 30.144,-1.625"
       fill="#614636"
       id="path65" />
    <path
       d="m 38.013,475.684 c -8.883,3.692 -20.773,2.012 -30.125,1.625 -7.594,-32.183 30.328,-1.707 30.125,-1.625"
       fill="#614636"
       id="path66" />
    <path
       d="m 427.435,546 c -9.453,2.059 -24.629,2.461 -33.781,-1.347 2.59,-6.738 12.125,-11.539 19.726,-10.75 2.911,0.312 18.809,11.062 14.055,12.097"
       fill="#614636"
       id="path67" />
    <path
       d="m 504.482,383.329 c -11.016,15.425 -37.336,-2.305 -41.695,3.882 4.828,-6.839 12.164,-8.968 19.875,-8.793 7.582,0.172 15.531,2.571 21.82,4.911"
       fill="#614636"
       id="path68" />
    <path
       d="m 185.396,644.461 c 7.617,-10.078 14.879,8.262 10.555,12.586 -6.325,6.325 -15.789,-5.664 -10.555,-12.586"
       fill="#614636"
       id="path69" />
    <path
       d="m 505.388,655.352 c 2.985,-10.137 16.781,-8.52 11.66,-0.551 -2.507,3.891 -14.32,9.629 -11.66,0.551"
       fill="#614636"
       id="path70" />
    <path
       d="m 519.142,517.876 c 2.973,-10.133 16.777,-8.52 11.649,-0.551 -2.5,3.89 -14.321,9.629 -11.649,0.551"
       fill="#614636"
       id="path71" />
    <path
       d="m 264.044,351.418 c 2.977,-10.132 16.782,-8.515 11.653,-0.539 -2.5,3.891 -14.321,9.621 -11.653,0.539"
       fill="#614636"
       id="path72" />
    <path
       d="m 319.033,330.032 c 2.984,-10.125 16.781,-8.52 11.656,-0.543 -2.496,3.894 -14.32,9.629 -11.656,0.543"
       fill="#614636"
       id="path73" />
    <path
       d="m 621.49,664.512 c 2.97,-10.125 16.77,-8.519 11.65,-0.543 -2.5,3.883 -14.32,9.629 -11.65,0.543"
       fill="#614636"
       id="path74" />
    <path
       d="m 57.834,633.961 c 2.972,-10.125 16.781,-8.519 11.648,-0.543 -2.496,3.883 -14.32,9.633 -11.648,0.543"
       fill="#614636"
       id="path75" />
    <path
       d="m 111.294,507.18 c 2.977,-10.133 16.782,-8.519 11.653,-0.551 -2.5,3.895 -14.321,9.629 -11.653,0.551"
       fill="#614636"
       id="path76" />
    <path
       d="m 538.998,508.715 c 2.972,-10.136 16.777,-8.531 11.648,-0.55 -2.496,3.89 -14.32,9.629 -11.648,0.55"
       fill="#614636"
       id="path77" />
    <path
       d="m 687.17,366.696 c 2.97,-10.137 16.78,-8.52 11.65,-0.543 -2.5,3.894 -14.32,9.621 -11.65,0.543"
       fill="#614636"
       id="path78" />
    <path
       d="m 445.822,345.305 c 2.972,-10.125 16.773,-8.519 11.648,-0.539 -2.496,3.891 -14.32,9.629 -11.648,0.539"
       fill="#614636"
       id="path79" />
    <path
       d="m 291.853,667.696 c 3.375,-9.602 21.836,-11.152 22.59,0.496 -2.184,0.176 -23.113,2.984 -23.113,2.863 -0.028,-1.211 0.164,-2.312 0.523,-3.359"
       fill="#614636"
       id="path80" />
    <path
       d="m 734.83,638.68 c 3.38,-9.613 21.84,-11.164 22.59,0.485 -2.18,0.183 -23.11,2.984 -23.11,2.867 -0.03,-1.203 0.16,-2.317 0.52,-3.352"
       fill="#614636"
       id="path81" />
    <path
       d="m 624.85,493.567 c 3.38,-9.609 21.84,-11.16 22.59,0.488 -2.18,0.184 -23.11,2.981 -23.11,2.863 -0.03,-1.203 0.16,-2.312 0.52,-3.351"
       fill="#614636"
       id="path82" />
    <path
       d="m 278.099,368.356 c 3.379,-9.602 21.84,-11.16 22.594,0.488 -2.188,0.184 -23.106,2.981 -23.117,2.871 -0.016,-1.211 0.168,-2.32 0.523,-3.359"
       fill="#614636"
       id="path83" />
    <path
       d="m 39.814,328.645 c 3.379,-9.601 21.84,-11.164 22.59,0.488 -2.184,0.184 -23.113,2.981 -23.113,2.864 -0.028,-1.203 0.164,-2.325 0.523,-3.352"
       fill="#614636"
       id="path84" />
    <path
       d="m 563.744,356.137 c 3.379,-9.601 21.84,-11.16 22.593,0.489 -2.187,0.183 -23.105,2.984 -23.117,2.871 -0.027,-1.211 0.168,-2.321 0.524,-3.36"
       fill="#614636"
       id="path85" />
    <path
       d="m 620.27,369.891 c 3.38,-9.613 21.84,-11.164 22.59,0.477 -2.19,0.191 -23.12,2.984 -23.12,2.871 -0.02,-1.203 0.17,-2.321 0.53,-3.348"
       fill="#614636"
       id="path86" />
    <path
       d="m 491.951,644.786 c 3.379,-9.602 21.836,-11.157 22.59,0.496 -2.184,0.172 -23.106,2.98 -23.114,2.863 -0.019,-1.211 0.164,-2.313 0.524,-3.359"
       fill="#614636"
       id="path87" />
    <path
       d="m 760.49,656.876 c 2.97,-10.126 16.78,-8.52 11.65,-0.544 -2.5,3.883 -14.32,9.629 -11.65,0.544"
       fill="#614636"
       id="path88" />
    <path
       d="m 325.146,481.211 c 2.973,-10.125 16.781,-8.519 11.648,-0.543 -2.496,3.883 -14.32,9.633 -11.648,0.543"
       fill="#614636"
       id="path89" />
    <path
       d="m 393.884,528.571 c 2.973,-10.137 16.782,-8.52 11.649,-0.551 -2.496,3.891 -14.321,9.629 -11.649,0.551"
       fill="#614636"
       id="path90" />
    <path
       d="m 117.408,649.235 c 2.976,-10.125 16.773,-8.516 11.652,-0.539 -2.5,3.883 -14.32,9.629 -11.652,0.539"
       fill="#614636"
       id="path91" />
    <path
       d="m 814.6,645.493 c 10.48,1.383 11,15.265 2.34,11.437 -4.25,-1.883 -11.72,-12.68 -2.34,-11.437"
       fill="#614636"
       id="path92" />
    <path
       d="m 372.494,638.551 c 2.984,-10.133 16.781,-8.527 11.66,-0.551 -2.496,3.891 -14.32,9.629 -11.66,0.551"
       fill="#614636"
       id="path93" />
    <path
       d="m 453.376,655.938 c -10.546,0.598 -23.132,1.883 -33.25,-1.578 -9.261,-3.16 15.883,-10.934 15.692,-10.887 8.894,-1.875 20.57,-3.711 29.262,-1.992 -2.883,5.672 -8.133,9.086 -11.704,14.457"
       fill="#614636"
       id="path94" />
    <path
       d="m 170.173,642.61 c -2.191,1.258 -4.515,2.121 -6.902,2.414 -1.496,0.184 -18.734,-8.555 -19.027,-4.758 0.714,-9.187 8.793,-10.363 17.382,-9.93 9.172,0.458 18.93,2.727 20.848,-1.039 -2.57,5.039 -7.051,10.301 -12.301,13.313"
       fill="#614636"
       id="path95" />
    <path
       d="m 653.9,602.512 c -2.68,-0.074 3.94,-8.215 4.39,-8.609 2.65,-2.25 7.25,-2.27 11.04,-2.344 1.02,-0.008 1.98,-0.027 2.84,-0.098 6.42,-0.543 28.68,1.918 19.45,11.649 -5.37,5.652 -30.63,-0.422 -37.72,-0.598"
       fill="#614636"
       id="path96" />
    <path
       d="m 786.8,608.618 c -2.69,-0.074 3.94,-8.207 4.39,-8.602 2.64,-2.258 7.24,-2.269 11.04,-2.344 1.02,-0.007 1.98,-0.035 2.83,-0.109 6.42,-0.531 28.68,1.93 19.45,11.648 -5.37,5.657 -30.64,-0.41 -37.71,-0.593"
       fill="#614636"
       id="path97" />
    <path
       d="m 652.22,428.602 c -7.84,-1.312 -16.74,-3.129 -19.66,-10.668 -4.3,-11.129 36.66,5.602 38.24,6.426 -4.49,1.297 -9.36,2.332 -13.99,2.719"
       fill="#614636"
       id="path98" />
    <path
       d="m 806.51,469.836 c -7.85,-1.312 -16.76,-3.121 -19.68,-10.664 -4.29,-11.144 36.67,5.598 38.25,6.434 -4.49,1.285 -9.37,2.324 -13.99,2.707"
       fill="#614636"
       id="path99" />
    <path
       d="m 433.787,369.071 c -7.848,-1.313 -16.743,-3.121 -19.661,-10.664 -4.308,-11.157 36.653,5.597 38.231,6.425 -4.481,1.294 -9.352,2.333 -13.988,2.715"
       fill="#614636"
       id="path100" />
    <path
       d="m 175.646,369.071 c -7.848,-1.313 -16.754,-3.121 -19.672,-10.664 -4.297,-11.157 36.664,5.597 38.234,6.425 -4.48,1.294 -9.355,2.333 -13.98,2.715"
       fill="#614636"
       id="path101" />
    <path
       d="m 168.009,509.559 c -7.851,-1.312 -16.754,-3.133 -19.672,-10.668 -4.296,-11.152 36.665,5.59 38.231,6.426 -4.477,1.293 -9.352,2.332 -13.981,2.707"
       fill="#614636"
       id="path102" />
    <path
       d="m 688.94,547.122 c 2.45,2.183 3.18,5.406 0.16,9.132 -8.06,9.942 -30.39,-0.273 -16.18,-10.058 4.75,-3.27 12.34,-2.344 16.02,0.926"
       fill="#614636"
       id="path103" />
    <path
       d="m 774.12,469.993 c -3.2,3.656 -0.59,22.437 -5.13,29.754 -5.97,9.617 -15.91,14.64 -25.65,19.828 6.24,-17.188 18.79,-35.875 30.78,-49.582"
       fill="#614636"
       id="path104" />
    <path
       d="m 711.75,650.266 c 8.08,0.594 26.51,4.203 27.47,1.891 -5.1,12.316 -24.26,4.195 -30.73,-1.856 0.59,-0.156 1.75,-0.156 3.26,-0.035"
       fill="#614636"
       id="path105" />
    <path
       d="m 203.091,470.02 c 8.078,0.598 26.512,4.207 27.469,1.883 -5.098,12.328 -24.262,4.203 -30.746,-1.844 0.609,-0.156 1.766,-0.156 3.277,-0.039"
       fill="#614636"
       id="path106" />
    <path
       d="m 271.83,509.731 c 8.078,0.598 26.511,4.207 27.464,1.895 -5.093,12.328 -24.261,4.195 -30.742,-1.856 0.606,-0.156 1.762,-0.156 3.278,-0.039"
       fill="#614636"
       id="path107" />
    <path
       d="m 255.244,645.602 c -7.934,-1.617 -25.778,-7.508 -27.028,-5.336 6.621,-11.594 24.614,-1.109 30.266,5.703 -0.613,0.082 -1.754,-0.054 -3.238,-0.367"
       fill="#614636"
       id="path108" />
    <path
       d="m 414.095,498.958 c -7.929,-1.61 -25.773,-7.5 -27.015,-5.336 6.609,-11.582 24.613,-1.11 30.265,5.71 -0.613,0.083 -1.75,-0.066 -3.25,-0.374"
       fill="#614636"
       id="path109" />
    <path
       d="m 59.716,502.012 c -7.922,-1.605 -25.777,-7.5 -27.015,-5.332 6.609,-11.586 24.609,-1.113 30.265,5.707 -0.617,0.086 -1.754,-0.062 -3.25,-0.375"
       fill="#614636"
       id="path110" />
    <path
       d="m 551.169,653.211 c -3.656,-7.214 -10.117,-24.867 -12.585,-24.5 13.179,-2 16.156,18.606 14.308,27.274 -0.437,-0.434 -1.035,-1.426 -1.723,-2.774"
       fill="#614636"
       id="path111" />
    <path
       d="m 601.814,655.993 c -6.848,4.324 -23.824,12.394 -23.234,14.808 -3.215,-12.945 17.035,-17.801 25.839,-16.773 -0.394,0.488 -1.32,1.156 -2.605,1.965"
       fill="#614636"
       id="path112" />
    <path
       d="m 15.376,642.223 c -0.375,-13.449 25.153,9.793 27.254,5.094 -3.984,8.941 -26.976,4.324 -27.254,-5.094"
       fill="#614636"
       id="path113" />
    <path
       d="m 555.83,470.067 c -2.211,7.621 -18.348,17.332 -26.106,14.265 -15.824,-6.261 0.387,-17.984 0.121,-18.8 3.313,9.797 17.239,3.808 25.985,4.535"
       fill="#614636"
       id="path114" />
    <path
       d="m 241.169,437.993 c -2.211,7.609 -18.347,17.324 -26.105,14.257 -15.828,-6.253 0.383,-17.984 0.117,-18.792 3.317,9.796 17.242,3.8 25.988,4.535"
       fill="#614636"
       id="path115" />
    <path
       d="m 430.576,569.356 c -2.215,7.617 -18.352,17.332 -26.11,14.266 -15.824,-6.262 0.387,-17.985 0.121,-18.801 3.325,9.793 17.25,3.808 25.989,4.535"
       fill="#614636"
       id="path116" />
    <path
       d="m 106.24,597.84 c 4.652,-6.418 23.113,-10.117 29.39,-4.617 12.778,11.227 -6.441,16.809 -6.441,17.66 0.172,-10.355 -14.965,-9.398 -22.949,-13.043"
       fill="#614636"
       id="path117" />
    <path
       d="m 669.88,338.211 c 4.66,-6.417 23.12,-10.117 29.4,-4.609 12.78,11.227 -6.45,16.801 -6.45,17.652 0.19,-10.355 -14.96,-9.41 -22.95,-13.043"
       fill="#614636"
       id="path118" />
    <path
       d="m 3.544,284.555 c 41.247,6.106 769.856,1.02 815.226,-2.074 C 789.7,196.465 559.548,56.45 515.13,56.129 474.013,71.723 38.685,257.051 3.544,284.555 Z"
       fill-opacity="0"
       stroke="#755143"
       stroke-width="6.286"
       stroke-linecap="round"
       stroke-linejoin="round"
       id="path119" />
    <path
       d="M 807.01,271.317 461.033,207.493 59.267,258.981 3.029,283.536 4.564,312.563 c 0,0 511.934,-9.09 718.436,-7.125 -0.1,0.02 41.24,4.582 49.38,-0.109 0,0 -1.01,71.382 0,80.047 -17.31,1.019 -50.8,5.351 -142.56,5.601 -65.928,0.184 -159.654,-4.738 -239.83,-4.621 -87.785,0.141 -175.817,0.203 -245.922,0.074 -71.852,-0.117 -124.883,-0.441 -139.512,-1.054 0.512,20.855 2.063,64.046 1.293,73.75 16.762,-0.844 96.625,0.3 208.488,0.542 102.602,0.219 241.711,6.102 346.747,6.102 119.426,0.012 199.276,-5.918 211.296,-6.644 -0.5,15.816 -1.01,68.765 0,78.953 -38.69,1.011 -370.16,0 -370.16,0 l -180.246,1.011 c 0,0 -166.5,-4.582 -213.344,-1.011 -0.504,13.238 3.086,59.511 1.293,73.797 13.45,1.898 123.938,2.101 250.239,2.066 84.675,-0.027 172.25,0.043 258.152,-0.313 132.576,-0.535 242.956,-1.211 258.146,-1.211 0,18.321 0,67.204 0,67.204 l 35.13,3.054 -8.65,-395.062 h -0.02 c 2.05,-8.961 4.09,-16.297 4.09,-16.297"
       fill="#c5a690"
       id="path120" />
    <path
       d="M 807.01,271.317 461.033,207.493 59.267,258.981 3.029,283.536 4.564,312.563 c 0,0 511.934,-9.09 718.436,-7.125 -0.1,0.02 41.24,4.582 49.38,-0.109 0,0 -1.01,71.382 0,80.047 -17.31,1.019 -50.8,5.351 -142.56,5.601 -65.928,0.184 -159.654,-4.738 -239.83,-4.621 -87.785,0.141 -175.817,0.203 -245.922,0.074 -71.852,-0.117 -124.883,-0.441 -139.512,-1.054 0.512,20.855 2.063,64.046 1.293,73.75 16.762,-0.844 96.625,0.3 208.488,0.542 102.602,0.219 241.711,6.102 346.747,6.102 119.426,0.012 199.276,-5.918 211.296,-6.644 -0.5,15.816 -1.01,68.765 0,78.953 -38.69,1.011 -370.16,0 -370.16,0 l -180.246,1.011 c 0,0 -166.5,-4.582 -213.344,-1.011 -0.504,13.238 3.086,59.511 1.293,73.797 13.45,1.898 123.938,2.101 250.239,2.066 84.675,-0.027 172.25,0.043 258.152,-0.313 132.576,-0.535 242.956,-1.211 258.146,-1.211 0,18.321 0,67.204 0,67.204 l 35.13,3.054 -8.65,-395.062 h -0.02 c 2.05,-8.961 4.09,-16.297 4.09,-16.297 z"
       fill-opacity="0"
       stroke="#b3927f"
       stroke-width="6.661"
       stroke-linecap="round"
       stroke-linejoin="round"
       id="path121" />
    <path
       d="m 1.505,280.481 c 14.606,13.391 524.981,6.707 731.665,3.441 38.8,-1.406 63.61,-5.941 84.54,-2.929 C 788.63,194.981 540.712,43.715 515.13,56.129 483.173,67.145 19.958,265.223 1.505,280.481"
       fill="#7f5a46"
       id="path122" />
    <path
       d="m 1.505,280.481 c 151.735,-1.012 524.981,6.707 731.665,3.441 38.8,-1.406 64.68,-4.453 85.6,-1.441 C 789.7,196.465 540.712,43.715 515.13,56.129 483.173,67.145 44.779,261.137 1.505,280.481 Z"
       fill-opacity="0"
       stroke="#694939"
       stroke-width="6.661"
       stroke-linecap="round"
       stroke-linejoin="round"
       id="path123" />
    <path
       d="m 483.615,29.45 c 27.457,-10.93 63.093,-13.262 83.875,1.379 18.012,12.687 35.48,63.047 22.894,83.472 -12.918,20.93 -106.328,10.418 -122.504,-3.207 C 446.466,93.129 450.97,42.485 483.615,29.45"
       fill="#916f5c"
       id="path124" />
    <path
       d="m 480.849,34.264 c 28.359,-4.95 68.735,-7.529 89.016,2.747 16.801,11.481 32.553,57.361 20.519,77.29 C 577.276,136.91 484.657,125.54 467.766,110.995 446.811,92.999 450.928,47.373 480.849,34.264"
       fill="#8e6c59"
       id="path125" />
    <path
       d="m 478.082,39.078 c 29.262,1.03 74.379,-1.797 94.157,4.117 15.59,10.273 29.626,51.672 18.145,71.106 -13.299,24.287 -105.127,12.058 -122.732,-3.406 -20.496,-18.026 -16.765,-58.634 10.43,-71.817"
       fill="#8c6856"
       id="path126" />
    <path
       d="m 475.317,43.892 c 30.164,7.011 80.02,3.936 99.297,5.486 14.379,9.067 26.698,45.985 15.77,64.923 -13.489,25.966 -104.526,12.878 -122.846,-3.507 C 447.5,92.739 450.845,57.149 475.317,43.892"
       fill="#896553"
       id="path127" />
    <path
       d="m 472.55,48.707 c 31.067,12.99 85.663,9.667 104.438,6.854 13.168,7.859 23.77,40.297 13.396,58.74 -13.679,27.645 -103.924,13.698 -122.961,-3.606 -19.578,-18.086 -16.62,-48.657 5.127,-61.988"
       fill="#866250"
       id="path128" />
    <path
       d="m 469.785,53.521 c 31.968,18.971 91.305,15.399 109.578,8.224 11.957,6.652 20.843,34.609 11.021,52.556 -13.871,29.325 -103.325,14.518 -123.075,-3.706 -19.12,-18.117 -16.547,-43.67 2.476,-57.074"
       fill="#845f4d"
       id="path129" />
    <path
       d="m 467.018,58.335 c 32.871,24.951 96.948,21.131 114.719,9.592 10.746,5.446 17.916,28.922 8.647,46.374 -14.061,31.003 -102.723,15.337 -123.188,-3.805 C 448.534,92.348 450.72,71.813 467.018,58.335"
       fill="#815c4a"
       id="path130" />
    <path
       d="m 464.252,63.149 c 33.774,30.931 102.59,26.864 119.86,10.962 9.535,4.238 14.987,23.234 6.272,40.19 -14.252,32.682 -102.123,16.157 -123.302,-3.906 -18.204,-18.177 -16.404,-33.694 -2.83,-47.246"
       fill="#7e5947"
       id="path131" />
    <path
       d="m 461.486,67.963 c 34.676,36.912 108.233,32.596 125,12.33 8.324,3.032 12.06,17.547 3.898,34.008 -14.442,34.361 -101.522,16.977 -123.417,-4.006 -17.744,-18.208 -16.33,-28.706 -5.481,-42.332"
       fill="#7c5645"
       id="path132" />
    <path
       d="m 458.72,72.778 c 35.578,42.89 113.875,38.328 130.141,13.699 7.113,1.824 9.133,11.859 1.523,27.824 C 575.752,150.34 489.462,132.098 466.853,110.196 449.568,91.958 450.595,86.477 458.72,72.778"
       fill="#795342"
       id="path133" />
    <path
       d="m 576.716,110.801 c 1.754,-1.515 3.688,-2.617 5.27,-2.871 5,-0.847 9.012,2.11 7.59,7.012 -1.403,4.828 -14.614,10.73 -17.157,5.738 -1.503,-2.93 1.083,-7.097 4.297,-9.879"
       fill="#916f5c"
       id="path134" />
    <path
       d="m 576.376,91.204 c -1.617,-2.129 -2.8,-3.793 -2.113,-4.516 1.012,-1.102 11.055,-0.293 12.43,0.539 6.16,3.691 1.902,15.809 -5.203,16.367 1.402,-4 -2.453,-8.847 -5.114,-12.39"
       fill="#916f5c"
       id="path135" />
    <path
       d="m 557.384,76.102 c -1.609,-2.137 -2.793,-3.809 -2.105,-4.516 1.031,-1.109 11.035,-0.312 12.449,0.543 6.141,3.68 1.891,15.797 -5.215,16.368 1.414,-4.004 -2.461,-8.852 -5.129,-12.395"
       fill="#916f5c"
       id="path136" />
    <path
       d="m 558.466,51.602 c -1.617,-2.129 -2.789,-3.801 -2.113,-4.516 1.031,-1.101 11.035,-0.293 12.449,0.551 6.153,3.68 1.871,15.797 -5.203,16.36 1.383,-4.004 -2.453,-8.852 -5.133,-12.395"
       fill="#916f5c"
       id="path137" />
    <path
       d="m 540.806,82.016 c -1.609,-2.14 -2.773,-3.801 -2.094,-4.527 1.028,-1.102 11.032,-0.305 12.446,0.551 6.152,3.691 1.883,15.796 -5.211,16.359 1.394,-3.996 -2.461,-8.852 -5.141,-12.383"
       fill="#916f5c"
       id="path138" />
    <path
       d="m 531.009,106.489 c 2.774,-1.496 6.692,-0.938 8.465,3.312 2.617,6.168 -6.18,11.492 -10.254,5.25 -0.164,-0.273 -0.32,-0.539 -0.476,-0.851 -1.7,-3.434 -0.176,-6.383 2.265,-7.711"
       fill="#916f5c"
       id="path139" />
    <path
       d="m 551.544,112.848 c 3.563,-4.508 9.879,-7.527 9.825,0.707 -0.012,4.719 -8.52,10.207 -13.551,9.024 -5.582,-1.321 -4.442,-6.993 1.488,-5.325 0.281,-1.402 1.137,-2.984 2.238,-4.406"
       fill="#916f5c"
       id="path140" />
    <path
       d="m 569.462,95.876 c 3.536,-4.508 9.852,-7.536 9.813,0.699 -0.008,4.734 -8.535,10.215 -13.547,9.023 -5.582,-1.312 -4.434,-6.996 1.484,-5.308 0.278,-1.422 1.122,-2.981 2.25,-4.414"
       fill="#916f5c"
       id="path141" />
    <path
       d="m 584.15,66.961 c 4.051,-5.132 6.324,-3.664 7.144,0.016 1.286,5.773 0.172,18.332 -9.035,16.469 -6.418,-1.285 -9.738,-14.707 -0.375,-12.063 0.285,-1.414 1.118,-2.98 2.266,-4.422"
       fill="#916f5c"
       id="path142" />
    <path
       d="m 585.802,56.376 c 8.832,19.003 14.219,38.351 2.059,57.417 -13.176,20.61 -46.578,22.481 -70.262,19.196 -31.863,-4.414 -67.562,-18.754 -63.414,-56.848 2.414,-22.5 23.004,-48.48 47.231,-53.519 32.679,-6.801 70.875,4.625 84.386,33.754 z"
       fill-opacity="0"
       stroke="#664637"
       stroke-width="6.661"
       stroke-linecap="round"
       stroke-linejoin="round"
       id="path143" />
    <path
       d="m 512.587,28.094 c 0.907,-3.371 6.883,-7.344 8.969,-11.375 2.238,-4.297 4.082,-8.215 4.238,-13 3.7,9.52 7.821,20.004 17.305,26.192"
       fill="#916f5c"
       id="path144" />
    <path
       d="m 512.587,28.094 c 0.907,-3.371 6.883,-7.344 8.969,-11.375 2.238,-4.297 4.082,-8.215 4.238,-13 3.7,9.52 7.821,20.004 17.305,26.192"
       fill-opacity="0"
       stroke="#664637"
       stroke-width="6.661"
       stroke-linecap="round"
       stroke-linejoin="round"
       id="path145" />
    <path
       d="m 569.334,81.446 c 29.046,-11.594 66.746,-14.055 88.756,1.441 19.04,13.41 37.53,66.707 24.21,88.328 -13.67,22.149 -112.506,11.016 -129.634,-3.379 -22.657,-19.031 -17.891,-72.621 16.668,-86.39"
       fill="#916f5c"
       id="path146" />
    <path
       d="m 566.403,86.541 c 30.003,-5.267 72.727,-7.989 94.197,2.888 17.76,12.136 34.44,60.69 21.7,81.786 -13.87,23.924 -111.868,11.883 -129.756,-3.487 -22.17,-19.062 -17.815,-67.34 13.859,-81.187"
       fill="#8e6c59"
       id="path147" />
    <path
       d="m 563.473,91.635 c 30.96,1.062 78.697,-1.921 99.637,4.336 16.48,10.862 31.34,54.672 19.19,75.244 -14.07,25.699 -111.23,12.749 -129.878,-3.594 -21.682,-19.093 -17.739,-62.061 11.051,-75.986"
       fill="#8c6856"
       id="path148" />
    <path
       d="m 560.544,96.73 c 31.914,7.389 84.666,4.146 105.086,5.783 15.19,9.587 28.24,48.655 16.67,68.702 -14.27,27.473 -110.592,13.617 -129.999,-3.703 -21.196,-19.122 -17.664,-56.78 8.243,-70.782"
       fill="#896553"
       id="path149" />
    <path
       d="m 557.613,101.824 c 32.872,13.718 90.637,10.213 110.527,7.231 13.92,8.312 25.15,42.636 14.16,62.16 -14.47,29.247 -109.955,14.483 -130.121,-3.811 -20.71,-19.153 -17.589,-51.499 5.434,-65.58"
       fill="#866250"
       id="path150" />
    <path
       d="m 554.683,106.918 c 33.827,20.045 96.607,16.281 115.967,8.68 12.64,7.036 22.05,36.618 11.65,55.617 -14.67,31.023 -109.318,15.35 -130.242,-3.919 -20.224,-19.183 -17.514,-46.219 2.625,-60.378"
       fill="#845f4d"
       id="path151" />
    <path
       d="m 551.752,112.013 c 34.785,26.373 102.578,22.347 121.408,10.127 11.36,5.762 18.96,30.6 9.14,49.075 -14.88,32.797 -108.68,16.216 -130.364,-4.027 -19.736,-19.214 -17.437,-40.938 -0.184,-55.175"
       fill="#815c4a"
       id="path152" />
    <path
       d="m 548.823,117.108 c 35.74,32.7 108.557,28.413 126.847,11.574 10.08,4.487 15.86,24.582 6.63,42.533 -15.08,34.572 -108.043,17.083 -130.485,-4.135 -19.251,-19.244 -17.362,-35.659 -2.992,-49.972"
       fill="#7e5947"
       id="path153" />
    <path
       d="m 545.892,122.203 c 36.696,39.028 114.528,34.48 132.298,13.021 8.79,3.212 12.76,18.565 4.11,35.991 -15.28,36.347 -107.405,17.95 -130.607,-4.243 -18.764,-19.274 -17.286,-30.378 -5.801,-44.769"
       fill="#7c5645"
       id="path154" />
    <path
       d="m 542.962,127.297 c 37.653,45.356 120.498,40.547 137.738,14.469 7.52,1.938 9.67,12.547 1.6,29.449 -15.48,38.121 -106.767,18.817 -130.728,-4.351 -18.278,-19.305 -17.211,-25.098 -8.61,-39.567"
       fill="#795342"
       id="path155" />
    <path
       d="m 667.84,167.512 c 1.86,-1.605 3.91,-2.781 5.59,-3.047 5.29,-0.89 9.52,2.25 8.03,7.426 -1.5,5.113 -15.48,11.356 -18.18,6.07 -1.56,-3.093 1.15,-7.511 4.56,-10.449"
       fill="#916f5c"
       id="path156" />
    <path
       d="m 667.47,146.766 c -1.72,-2.258 -2.94,-4.008 -2.24,-4.773 1.09,-1.172 11.69,-0.309 13.18,0.562 6.5,3.918 2,16.735 -5.51,17.332 1.48,-4.242 -2.59,-9.363 -5.43,-13.121"
       fill="#916f5c"
       id="path157" />
    <path
       d="m 651.7,131.485 c -1.73,-2.258 -2.96,-4.024 -2.25,-4.774 1.09,-1.168 11.7,-0.312 13.18,0.586 6.5,3.895 1.99,16.707 -5.51,17.305 1.48,-4.23 -2.6,-9.355 -5.42,-13.117"
       fill="#916f5c"
       id="path158" />
    <path
       d="m 648.52,104.864 c -1.71,-2.25 -2.94,-4.012 -2.23,-4.774 1.09,-1.168 11.68,-0.324 13.18,0.567 6.49,3.902 1.99,16.734 -5.52,17.316 1.48,-4.234 -2.6,-9.355 -5.43,-13.109"
       fill="#916f5c"
       id="path159" />
    <path
       d="m 629.86,137.047 c -1.73,-2.257 -2.96,-4.031 -2.24,-4.785 1.09,-1.164 11.68,-0.308 13.18,0.582 6.5,3.899 1.99,16.715 -5.52,17.313 1.48,-4.242 -2.61,-9.375 -5.42,-13.11"
       fill="#916f5c"
       id="path160" />
    <path
       d="m 619.47,162.942 c 2.93,-1.578 7.08,-0.981 8.99,3.508 2.75,6.535 -6.57,12.152 -10.87,5.554 -0.19,-0.277 -0.35,-0.57 -0.52,-0.89 -1.81,-3.637 -0.19,-6.758 2.4,-8.172"
       fill="#916f5c"
       id="path161" />
    <path
       d="m 641.21,169.68 c 3.75,-4.765 10.43,-7.957 10.4,0.735 -0.03,5.011 -9.05,10.824 -14.35,9.554 -5.88,-1.383 -4.7,-7.398 1.56,-5.625 0.31,-1.496 1.21,-3.148 2.39,-4.664"
       fill="#916f5c"
       id="path162" />
    <path
       d="m 660.15,151.715 c 3.78,-4.754 10.43,-7.968 10.39,0.735 -0.01,5.011 -9.04,10.812 -14.33,9.566 -5.91,-1.394 -4.7,-7.398 1.57,-5.617 0.31,-1.508 1.2,-3.16 2.37,-4.684"
       fill="#916f5c"
       id="path163" />
    <path
       d="m 670.46,118.797 c 3.78,-4.773 10.44,-7.976 10.4,0.735 -0.01,5.004 -9.04,10.812 -14.35,9.554 -5.9,-1.394 -4.68,-7.398 1.57,-5.625 0.31,-1.496 1.21,-3.148 2.38,-4.664"
       fill="#916f5c"
       id="path164" />
    <path
       d="m 677.46,109.911 c 9.34,20.113 15.05,40.601 2.16,60.761 -13.93,21.809 -49.28,23.801 -74.345,20.332 -33.727,-4.679 -71.484,-19.855 -67.106,-60.164 2.571,-23.812 24.344,-51.304 49.993,-56.648 34.578,-7.195 74.988,4.894 89.298,35.719 z"
       fill-opacity="0"
       stroke="#664637"
       stroke-width="6.661"
       stroke-linecap="round"
       stroke-linejoin="round"
       id="path165" />
    <path
       d="m 599.994,79.985 c 0.937,-3.57 7.254,-7.766 9.484,-12.024 2.359,-4.554 4.313,-8.703 4.469,-13.761 3.923,10.07 8.273,21.16 18.313,27.715"
       fill="#916f5c"
       id="path166" />
    <path
       d="m 599.994,79.985 c 0.937,-3.57 7.254,-7.766 9.484,-12.024 2.359,-4.554 4.313,-8.703 4.469,-13.761 3.923,10.07 8.273,21.16 18.313,27.715"
       fill-opacity="0"
       stroke="#664637"
       stroke-width="6.661"
       stroke-linecap="round"
       stroke-linejoin="round"
       id="path167" />
    <path
       d="m 533.084,222.989 -69.637,3.926 -84.766,-53.102 45.852,-15.082 108.551,64.258"
       fill="#614335"
       id="path168" />
    <path
       d="m 525.4,222.958 -56.026,3.805 -83.851,-54.855 36.988,-11.616 102.889,62.666"
       fill="#6c4d3f"
       id="path169" />
    <path
       d="m 517.716,222.928 -42.414,3.684 -82.937,-56.61 28.125,-8.15 97.226,61.076"
       fill="#765849"
       id="path170" />
    <path
       d="m 510.033,222.898 -28.803,3.562 -82.023,-58.363 19.261,-4.684 91.565,59.485"
       fill="#816454"
       id="path171" />
    <path
       d="m 502.349,222.868 -15.191,3.441 -81.11,-60.117 10.399,-1.219 85.902,57.895"
       fill="#8b7060"
       id="path172" />
    <path
       d="m 421.513,157.977 111.489,67.535 -66.856,3.653 -87.465,-55.352 z"
       fill-opacity="0"
       stroke="#5e4133"
       stroke-width="6.661"
       stroke-linecap="round"
       stroke-linejoin="round"
       id="path173" />
    <path
       d="m 371.494,224.208 -57.282,4.019 -75.476,-51.66 36.519,-14.863 96.239,62.504"
       fill="#614335"
       id="path174" />
    <path
       d="m 365.132,224.199 -46.027,3.863 -74.999,-53.062 29.258,-11.311 91.768,60.51"
       fill="#6c4d3f"
       id="path175" />
    <path
       d="m 358.771,224.19 -34.773,3.707 -74.522,-54.465 21.996,-7.758 87.299,58.516"
       fill="#765849"
       id="path176" />
    <path
       d="m 352.41,224.181 -23.52,3.551 -74.044,-55.867 14.735,-4.205 82.829,56.521"
       fill="#816454"
       id="path177" />
    <path
       d="m 346.048,224.172 -12.265,3.395 -73.567,-57.27 7.473,-0.652 78.359,54.527"
       fill="#8b7060"
       id="path178" />
    <path
       d="m 272.666,160.961 98.984,65.707 -54.977,3.762 -77.937,-53.863 z"
       fill-opacity="0"
       stroke="#5e4133"
       stroke-width="6.661"
       stroke-linecap="round"
       stroke-linejoin="round"
       id="path179" />
    <path
       d="m 436.806,142.067 -34.836,-49.422 43.641,-3.793 15.469,45.883 18.148,30.09 -18.387,22.289 -24.035,-45.047"
       fill="#614335"
       id="path180" />
    <path
       d="m 440.666,143.8 -32.998,-50.359 34.859,-2.702 15.87,44.331 18.382,30.307 -14.997,19.467 -21.116,-41.044"
       fill="#6c4d3f"
       id="path181" />
    <path
       d="m 444.527,145.534 -31.16,-51.297 26.076,-1.611 16.271,42.779 18.616,30.525 -11.608,16.645 -18.195,-37.041"
       fill="#765849"
       id="path182" />
    <path
       d="m 448.387,147.267 -29.322,-52.234 17.294,-0.521 16.673,41.228 18.848,30.743 -8.217,13.822 -15.276,-33.038"
       fill="#816454"
       id="path183" />
    <path
       d="m 452.248,149 -27.485,-53.171 8.512,0.57 17.074,39.676 19.082,30.961 -4.828,11 L 452.248,149"
       fill="#8b7060"
       id="path184" />
    <path
       d="m 460.841,187.114 18.387,-22.289 -19.187,-34.231 -14.43,-41.742 -43.641,3.793 33.039,45.844 z"
       fill-opacity="0"
       stroke="#5e4133"
       stroke-width="6.661"
       stroke-linecap="round"
       stroke-linejoin="round"
       id="path185" />
    <path
       d="m 637.46,214.348 -61.49,7.508 -82.754,-42.977 38.813,-16.203 105.431,51.672"
       fill="#614335"
       id="path186" />
    <path
       d="m 630.62,214.761 -49.392,6.62 -82.176,-44.604 31.384,-12.579 100.184,50.563"
       fill="#6c4d3f"
       id="path187" />
    <path
       d="m 623.77,215.174 -37.284,5.733 -81.598,-46.233 23.955,-8.955 94.927,49.455"
       fill="#765849"
       id="path188" />
    <path
       d="m 616.93,215.587 -25.186,4.845 -81.02,-47.86 16.526,-5.331 89.68,48.346"
       fill="#816454"
       id="path189" />
    <path
       d="m 610.076,216 -13.074,3.958 -80.442,-49.489 9.098,-1.707 84.418,47.238"
       fill="#8b7060"
       id="path190" />
    <path
       d="m 529.228,162.172 108.492,54.446 -59.039,7.113 -85.465,-44.852 z"
       fill-opacity="0"
       stroke="#5e4133"
       stroke-width="6.661"
       stroke-linecap="round"
       stroke-linejoin="round"
       id="path191" />
    <path
       d="m 179.482,256.411 -57.539,8.14 21.637,-47.265 47.082,3.554 50.996,-11.129 -7.594,52.989 -54.582,-6.289"
       fill="#614335"
       id="path192" />
    <path
       d="m 180.404,255.006 -58.181,8.078 20.662,-44.278 47.102,3.456 51.808,-10.42 -7.61,49.311 -53.781,-6.147"
       fill="#664739"
       id="path193" />
    <path
       d="m 181.327,253.602 -58.823,8.015 19.687,-41.289 47.121,3.356 52.621,-9.711 -7.628,45.632 -52.978,-6.003"
       fill="#6a4c3d"
       id="path194" />
    <path
       d="m 182.249,252.198 -59.463,7.951 18.711,-38.301 47.14,3.258 53.434,-9.001 -7.645,41.953 -52.177,-5.86"
       fill="#6f5142"
       id="path195" />
    <path
       d="m 183.171,250.792 -60.105,7.889 17.736,-35.312 47.16,3.159 54.246,-8.292 -7.662,38.274 -51.375,-5.718"
       fill="#745546"
       id="path196" />
    <path
       d="m 184.093,249.388 -60.746,7.826 16.761,-32.324 47.179,3.06 55.059,-7.583 -7.678,34.596 -50.575,-5.575"
       fill="#795a4b"
       id="path197" />
    <path
       d="m 185.016,247.984 -61.389,7.763 15.786,-29.336 47.199,2.961 55.871,-6.874 -7.695,30.918 -49.772,-5.432"
       fill="#7e5f50"
       id="path198" />
    <path
       d="m 185.938,246.579 -62.029,7.7 14.809,-26.348 47.219,2.862 56.684,-6.164 -7.712,27.24 -48.971,-5.29"
       fill="#826555"
       id="path199" />
    <path
       d="m 186.861,245.174 -62.672,7.638 13.835,-23.359 47.238,2.762 57.496,-5.455 -7.729,23.561 -48.168,-5.147"
       fill="#876a5b"
       id="path200" />
    <path
       d="m 187.783,243.77 -63.313,7.574 12.86,-20.371 47.257,2.664 58.309,-4.746 -7.746,19.883 -47.367,-5.004"
       fill="#8b7060"
       id="path201" />
    <path
       d="m 241.658,209.711 1.238,19.18 -8.832,33.809 -54.582,-6.289 -55.25,7.617 0.238,-12.684 19.11,-34.058 47.082,3.554 z"
       fill-opacity="0"
       stroke="#614335"
       stroke-width="6.661"
       stroke-linecap="round"
       stroke-linejoin="round"
       id="path202" />
    <path
       d="m 482.322,232.184 c 0,0 -27.864,42.824 -30.25,47.973 -19.192,-27.473 -97.735,-13.364 -97.735,-13.364 l 10.493,-54.851 117.492,20.242"
       fill="#614335"
       id="path203" />
    <path
       d="m 478.943,236.719 c 0,0 -22.586,33.745 -25.471,38.739 -18.759,-24.938 -99.158,-15.083 -99.158,-15.083 l 10.316,-46.096 114.313,22.44"
       fill="#6c4d3f"
       id="path204" />
    <path
       d="m 475.564,241.254 c 0,0 -17.309,24.666 -20.691,29.504 -18.327,-22.402 -100.582,-16.802 -100.582,-16.802 l 10.14,-37.34 111.133,24.638"
       fill="#765849"
       id="path205" />
    <path
       d="m 472.185,245.79 c 0,0 -12.031,15.586 -15.912,20.269 -17.894,-19.867 -102.006,-18.522 -102.006,-18.522 l 9.965,-28.584 107.953,26.837"
       fill="#816454"
       id="path206" />
    <path
       d="m 468.806,250.325 c 0,0 -6.754,6.508 -11.133,11.035 -17.461,-17.332 -103.429,-20.242 -103.429,-20.242 l 9.789,-19.828 104.773,29.035"
       fill="#8b7060"
       id="path207" />
    <path
       d="m 354.337,266.793 c -0.101,-7.445 -0.093,-25.675 -0.093,-25.675 l 9.273,-26.438 117.547,20.352 c 0,0 -25.914,39.738 -28.992,45.125 -10.649,-10.84 -62.75,-24.914 -97.735,-13.364 z"
       fill-opacity="0"
       stroke="#5e4133"
       stroke-width="6.661"
       stroke-linecap="round"
       stroke-linejoin="round"
       id="path208" />
    <path
       d="m 262.349,196.458 c 0,0 45.871,1.195 59.391,-3.938 -2.434,5.848 -30.906,45.211 -30.906,45.211 l -42.227,-12.953 -33.82,-0.59 -0.68,-31.723 48.242,3.993"
       fill="#614335"
       id="path209" />
    <path
       d="m 259.126,199.189 c 0,0 48.307,2.693 58.447,-1.156 -1.825,4.385 -24.502,36.429 -24.502,36.429 l -41.531,-11.977 -36.659,-1.129 0.082,-26.415 44.163,4.248"
       fill="#6c4d3f"
       id="path210" />
    <path
       d="m 255.904,201.92 c 0,0 50.742,4.192 57.502,1.625 -1.217,2.924 -18.098,27.649 -18.098,27.649 l -40.836,-11.002 -39.496,-1.668 0.844,-21.108 40.084,4.504"
       fill="#765849"
       id="path211" />
    <path
       d="m 252.681,204.652 c 0,0 53.178,5.689 56.558,4.406 -0.609,1.462 -11.694,18.867 -11.694,18.867 l -40.14,-10.026 -42.334,-2.207 1.605,-15.8 36.005,4.76"
       fill="#816454"
       id="path212" />
    <path
       d="m 249.458,207.383 55.614,7.188 -5.289,10.086 -39.446,-9.051 -45.171,-2.746 2.367,-10.492 31.925,5.015"
       fill="#8b7060"
       id="path213" />
    <path
       d="m 214.107,192.465 0.68,31.723 37.371,2.121 c 0,0 29.496,1.414 38.676,11.422 13.968,-11.254 28.152,-39.805 30.906,-45.211 -16.926,5.992 -55.656,4.379 -55.656,4.379 z"
       fill-opacity="0"
       stroke="#5e4133"
       stroke-width="6.661"
       stroke-linecap="round"
       stroke-linejoin="round"
       id="path214" />
    <path
       d="m 406.084,137.844 63.605,-17.789 -25.316,55.996 -48.039,-4.386 -36.735,7.039 -6.457,-34.196 52.942,-6.664"
       fill="#614335"
       id="path215" />
    <path
       d="m 403.359,142.281 63.879,-16.915 -20.975,45.342 -48.568,-2.197 -37.958,6.138 -5.222,-27.652 48.844,-4.716"
       fill="#6c4d3f"
       id="path216" />
    <path
       d="m 400.634,146.717 64.153,-16.041 -16.633,34.69 -49.098,-0.008 -39.182,5.236 -3.986,-21.109 44.746,-2.768"
       fill="#765849"
       id="path217" />
    <path
       d="m 397.91,151.154 64.425,-15.167 -12.291,24.036 -49.626,2.182 -40.406,4.335 -2.751,-14.567 40.649,-0.819"
       fill="#816454"
       id="path218" />
    <path
       d="m 395.185,155.59 64.699,-14.293 -7.949,13.383 -50.156,4.371 -41.629,3.434 -1.516,-8.024 36.551,1.129"
       fill="#8b7060"
       id="path219" />
    <path
       d="m 353.142,144.508 6.457,34.196 40.84,-6.223 43.934,3.57 25.316,-55.996 -59.484,17.422 z"
       fill-opacity="0"
       stroke="#5e4133"
       stroke-width="6.661"
       stroke-linecap="round"
       stroke-linejoin="round"
       id="path220" />
    <path
       d="m 410.123,183.883 c 0,0 -36.399,48.469 -37.25,55.426 -9.899,-0.332 -61.211,12.152 -96.149,34.883 2.613,-7.785 13.574,-43.551 13.574,-43.551 l 119.825,-46.758"
       fill="#614335"
       id="path221" />
    <path
       d="m 405.611,189.74 c 0,0 -28.768,39.738 -29.406,44.956 -7.424,-0.249 -60.913,9.975 -97.56,34.257 2.152,-7.182 12.267,-37.047 12.267,-37.047 L 405.611,189.74"
       fill="#6c4d3f"
       id="path222" />
    <path
       d="m 401.099,195.596 c 0,0 -21.137,31.008 -21.562,34.487 -4.95,-0.167 -60.614,7.798 -98.971,33.63 1.691,-6.578 10.959,-30.543 10.959,-30.543 l 109.574,-37.574"
       fill="#765849"
       id="path223" />
    <path
       d="m 396.587,201.453 c 0,0 -13.505,22.277 -13.718,24.016 -2.475,-0.083 -60.315,5.622 -100.382,33.005 1.23,-5.974 9.651,-24.039 9.651,-24.039 l 104.449,-32.982"
       fill="#816454"
       id="path224" />
    <path
       d="m 392.076,207.309 -5.875,13.547 c 0,0 -60.016,3.445 -101.793,32.379 0.769,-5.371 8.344,-17.535 8.344,-17.535 l 99.324,-28.391"
       fill="#8b7060"
       id="path225" />
    <path
       d="m 277.08,271.09 c 2.875,-6.398 13.218,-40.449 13.218,-40.449 l 118.473,-42.832 c 0,0 -33.258,45.836 -35.898,51.5 -5.196,-1.902 -61.211,12.152 -95.793,31.781 z"
       fill-opacity="0"
       stroke="#5e4133"
       stroke-width="6.661"
       stroke-linecap="round"
       stroke-linejoin="round"
       id="path226" />
    <path
       d="m 373.072,171.551 59.953,25.422 -48.184,23.781 -28.211,-32.621 -52.937,-20.179 41.078,-36.598 28.301,40.195"
       fill="#614335"
       id="path227" />
    <path
       d="m 371.22,172.78 54.886,26.07 -38.194,19.782 -29.468,-31.646 -51.802,-22.938 35.616,-30.149 28.962,38.881"
       fill="#6c4d3f"
       id="path228" />
    <path
       d="m 369.369,174.008 49.818,26.719 -28.205,15.783 -30.725,-30.672 -50.666,-25.695 30.155,-23.701 29.623,37.566"
       fill="#765849"
       id="path229" />
    <path
       d="m 367.517,175.237 44.751,27.367 -18.216,11.784 -31.981,-29.697 -49.53,-28.453 24.692,-17.253 30.284,36.252"
       fill="#816454"
       id="path230" />
    <path
       d="m 365.666,176.465 39.683,28.016 -8.226,7.785 -33.239,-28.723 -48.394,-31.21 19.23,-10.805 30.946,34.937"
       fill="#8b7060"
       id="path231" />
    <path
       d="m 303.693,167.954 11.797,-15.621 29.281,-20.977 29.203,39.234 56.942,25.453 -13.219,10.336 -32.856,14.375 -30.074,-31.64 z"
       fill-opacity="0"
       stroke="#614335"
       stroke-width="6.661"
       stroke-linecap="round"
       stroke-linejoin="round"
       id="path232" />
    <path
       d="m 586.107,257.641 -57.266,-10.797 38.914,-37.461 37.364,23.371 31.991,8.969 -6.04,31.844 -44.963,-15.926"
       fill="#614335"
       id="path233" />
    <path
       d="m 589.74,255.715 -55.418,-12.441 30.999,-29.54 37.406,20.717 33.703,10.077 -5.65,26.356 -41.04,-15.169"
       fill="#6c4d3f"
       id="path234" />
    <path
       d="m 593.373,253.79 -53.571,-14.086 23.084,-21.62 37.449,18.063 35.405,11.186 -5.25,20.869 -37.117,-14.412"
       fill="#765849"
       id="path235" />
    <path
       d="m 597.005,251.864 -51.722,-15.731 15.169,-13.698 37.492,15.408 37.106,12.294 -4.84,15.382 -33.205,-13.655"
       fill="#816454"
       id="path236" />
    <path
       d="m 600.638,249.938 -49.875,-17.375 7.254,-5.777 37.535,12.754 38.818,13.402 -4.45,9.894 -29.282,-12.898"
       fill="#8b7060"
       id="path237" />
    <path
       d="m 631.07,273.567 6.04,-31.844 -35.05,-11.375 -34.305,-20.965 -38.914,37.461 53.778,9.418 z"
       fill-opacity="0"
       stroke="#614335"
       stroke-width="6.661"
       stroke-linecap="round"
       stroke-linejoin="round"
       id="path238" />
    <path
       d="m 481.392,137.395 46.305,-36.379 4.863,51.106 -43.035,21.128 -39.106,35.555 -20.027,-48.754 51,-22.656"
       fill="#614335"
       id="path239" />
    <path
       d="m 481.163,141.133 47.646,-37.001 3.398,44.294 -42.959,21.336 -41.508,35.135 -15.476,-40.233 48.899,-23.531"
       fill="#6c4d3f"
       id="path240" />
    <path
       d="m 480.933,144.872 48.988,-37.623 1.932,37.482 -42.883,21.543 -43.91,34.715 -10.924,-31.713 46.797,-24.404"
       fill="#765849"
       id="path241" />
    <path
       d="m 480.704,148.61 50.33,-38.245 0.466,30.671 -42.807,21.75 -46.313,34.295 -6.372,-23.193 44.696,-25.278"
       fill="#816454"
       id="path242" />
    <path
       d="m 480.474,152.348 51.672,-38.867 -1,23.859 -42.73,21.957 -48.715,33.875 -1.821,-14.672 42.594,-26.152"
       fill="#8b7060"
       id="path243" />
    <path
       d="m 450.419,208.805 -10.718,-15.633 -9.309,-33.121 51,-22.656 44.57,-34.762 6.184,10.848 0.414,38.641 -43.035,21.128 z"
       fill-opacity="0"
       stroke="#5e4133"
       stroke-width="6.286"
       stroke-linecap="round"
       stroke-linejoin="round"
       id="path244" />
    <path
       d="m 610.865,159.364 -30.149,59.722 -90.867,46.329 8.168,-45.055 112.848,-60.996"
       fill="#614335"
       id="path245" />
    <path
       d="m 609.196,162.197 -27.264,54.666 -91.519,46.129 7.942,-42.104 110.841,-58.691"
       fill="#664739"
       id="path246" />
    <path
       d="m 607.527,165.031 -24.378,49.608 -92.173,45.929 7.717,-39.15 108.834,-56.387"
       fill="#6a4c3d"
       id="path247" />
    <path
       d="m 605.858,167.864 -21.493,44.552 -92.824,45.729 7.49,-36.199 106.827,-54.082"
       fill="#6f5142"
       id="path248" />
    <path
       d="m 604.19,170.697 -18.608,39.496 -93.478,45.529 7.264,-33.248 104.822,-51.777"
       fill="#745546"
       id="path249" />
    <path
       d="m 602.52,173.531 -15.723,34.438 -94.129,45.329 7.038,-30.295 102.814,-49.472"
       fill="#795a4b"
       id="path250" />
    <path
       d="m 600.852,176.364 -12.839,29.382 -94.781,45.13 6.812,-27.344 100.808,-47.168"
       fill="#7e5f50"
       id="path251" />
    <path
       d="m 599.183,179.197 -9.954,24.325 -95.434,44.931 6.586,-24.393 98.802,-44.863"
       fill="#826555"
       id="path252" />
    <path
       d="m 597.514,182.031 -7.068,19.267 -96.086,44.731 6.358,-21.44 96.796,-42.558"
       fill="#876a5b"
       id="path253" />
    <path
       d="m 595.845,184.864 -4.183,14.211 -96.739,44.531 6.133,-18.488 94.789,-40.254"
       fill="#8b7060"
       id="path254" />
    <path
       d="m 489.837,262.266 8.18,-41.906 111.992,-56.942 -27.234,57.961 z"
       fill-opacity="0"
       stroke="#5e4133"
       stroke-width="6.661"
       stroke-linecap="round"
       stroke-linejoin="round"
       id="path255" />
    <path
       d="m 653.55,161.696 c 30.59,-12.192 70.29,-14.789 93.44,1.523 20.04,14.125 39.51,70.223 25.48,92.969 -14.37,23.328 -118.42,11.605 -136.46,-3.559 -23.844,-20.011 -18.82,-76.421 17.54,-90.933"
       fill="#916f5c"
       id="path256" />
    <path
       d="m 650.47,167.06 c 31.59,-5.531 76.57,-8.405 99.16,3.046 18.7,12.783 36.26,63.889 22.84,86.082 -14.58,25.196 -117.75,12.52 -136.59,-3.671 -23.332,-20.045 -18.74,-70.866 14.59,-85.457"
       fill="#8e6c59"
       id="path257" />
    <path
       d="m 647.39,172.423 c 32.6,1.13 82.85,-2.021 104.88,4.57 17.36,11.441 33,57.554 20.2,79.195 -14.8,27.065 -117.08,13.433 -136.71,-3.783 -22.829,-20.079 -18.67,-65.311 11.63,-79.982"
       fill="#8c6856"
       id="path258" />
    <path
       d="m 644.31,177.787 c 33.6,7.791 89.13,4.363 110.61,6.092 16,10.1 29.74,51.222 17.55,72.309 -15.01,28.934 -116.41,14.347 -136.84,-3.896 -22.316,-20.112 -18.59,-59.753 8.68,-74.505"
       fill="#896553"
       id="path259" />
    <path
       d="m 641.22,183.151 c 34.61,14.451 95.42,10.747 116.34,7.615 14.66,8.757 26.48,44.888 14.91,65.422 -15.22,30.802 -115.74,15.26 -136.97,-4.009 -21.803,-20.145 -18.51,-54.197 5.72,-69.028"
       fill="#866250"
       id="path260" />
    <path
       d="m 638.14,188.514 c 35.62,21.112 101.7,17.132 122.07,9.139 13.31,7.415 23.22,38.554 12.26,58.535 -15.44,32.671 -115.07,16.174 -137.09,-4.121 -21.3,-20.179 -18.44,-48.642 2.76,-63.553"
       fill="#845f4d"
       id="path261" />
    <path
       d="m 635.06,193.878 c 36.62,27.772 107.98,23.516 127.79,10.662 11.97,6.073 19.96,32.219 9.62,51.648 -15.65,34.539 -114.4,17.087 -137.22,-4.233 -20.78,-20.212 -18.36,-43.086 -0.19,-58.077"
       fill="#815c4a"
       id="path262" />
    <path
       d="m 631.98,199.242 c 37.62,34.432 114.27,29.899 133.51,12.184 10.62,4.731 16.71,25.887 6.98,44.762 -15.86,36.407 -113.73,18.001 -137.34,-4.346 -20.28,-20.245 -18.29,-37.529 -3.15,-52.6"
       fill="#7e5947"
       id="path263" />
    <path
       d="m 628.9,204.606 c 38.63,41.093 120.55,36.283 139.24,13.707 9.27,3.389 13.44,19.553 4.33,37.875 -16.08,38.276 -113.06,18.914 -137.47,-4.458 -19.77,-20.279 -18.21,-31.974 -6.1,-47.124"
       fill="#7c5645"
       id="path264" />
    <path
       d="m 625.81,209.969 c 39.64,47.754 126.84,42.668 144.97,15.231 7.93,2.047 10.19,13.218 1.69,30.988 -16.29,40.144 -112.39,19.828 -137.6,-4.57 -19.25,-20.313 -18.13,-26.418 -9.06,-41.649"
       fill="#795342"
       id="path265" />
    <path
       d="m 757.26,252.305 c 1.94,-1.687 4.1,-2.926 5.86,-3.219 5.59,-0.929 10.05,2.375 8.45,7.821 -1.55,5.386 -16.29,11.961 -19.1,6.398 -1.67,-3.262 1.19,-7.906 4.79,-11"
       fill="#916f5c"
       id="path266" />
    <path
       d="m 711.38,261.614 c 1.94,-1.696 4.12,-2.938 5.87,-3.223 5.58,-0.926 10.03,2.371 8.46,7.832 -1.56,5.379 -16.31,11.942 -19.11,6.391 -1.67,-3.262 1.19,-7.895 4.78,-11"
       fill="#916f5c"
       id="path267" />
    <path
       d="m 756.87,230.469 c -1.8,-2.379 -3.11,-4.242 -2.36,-5.031 1.14,-1.23 12.31,-0.34 13.86,0.613 6.85,4.106 2.1,17.59 -5.8,18.215 1.58,-4.453 -2.73,-9.851 -5.7,-13.797"
       fill="#916f5c"
       id="path268" />
    <path
       d="m 682.76,250.243 c -1.79,-2.379 -3.09,-4.235 -2.35,-5.032 1.15,-1.23 12.3,-0.339 13.87,0.606 6.84,4.121 2.1,17.605 -5.8,18.223 1.56,-4.454 -2.74,-9.852 -5.72,-13.797"
       fill="#916f5c"
       id="path269" />
    <path
       d="m 743.96,221.024 c -1.79,-2.387 -3.11,-4.242 -2.36,-5.043 1.15,-1.219 12.32,-0.32 13.89,0.609 6.83,4.11 2.08,17.606 -5.82,18.231 1.57,-4.453 -2.72,-9.86 -5.71,-13.797"
       fill="#916f5c"
       id="path270" />
    <path
       d="m 736.92,186.36 c -1.8,-2.387 -3.09,-4.242 -2.36,-5.031 1.16,-1.239 12.31,-0.34 13.88,0.605 6.84,4.106 2.09,17.598 -5.82,18.223 1.58,-4.453 -2.72,-9.86 -5.7,-13.797"
       fill="#916f5c"
       id="path271" />
    <path
       d="m 717.26,220.223 c -1.79,-2.367 -3.09,-4.223 -2.34,-5.031 1.15,-1.219 12.3,-0.32 13.86,0.617 6.85,4.094 2.1,17.606 -5.81,18.223 1.57,-4.465 -2.73,-9.86 -5.71,-13.809"
       fill="#916f5c"
       id="path272" />
    <path
       d="m 706.34,247.497 c 3.08,-1.672 7.44,-1.047 9.45,3.691 2.9,6.867 -6.9,12.797 -11.44,5.848 -0.2,-0.305 -0.37,-0.618 -0.54,-0.946 -1.9,-3.828 -0.2,-7.117 2.53,-8.593"
       fill="#916f5c"
       id="path273" />
    <path
       d="m 729.23,254.594 c 3.95,-5.031 10.98,-8.39 10.93,0.762 -0.03,5.277 -9.5,11.391 -15.11,10.059 -6.2,-1.457 -4.94,-7.786 1.66,-5.911 0.32,-1.578 1.26,-3.332 2.52,-4.91"
       fill="#916f5c"
       id="path274" />
    <path
       d="m 749.16,235.684 c 3.97,-5.023 11,-8.391 10.94,0.77 -0.02,5.269 -9.51,11.382 -15.1,10.062 -6.19,-1.469 -4.95,-7.785 1.65,-5.922 0.32,-1.57 1.27,-3.324 2.51,-4.91"
       fill="#916f5c"
       id="path275" />
    <path
       d="m 760.03,201.028 c 3.94,-5.028 10.96,-8.406 10.92,0.762 -0.03,5.281 -9.51,11.382 -15.09,10.062 -6.21,-1.469 -4.96,-7.785 1.65,-5.922 0.32,-1.57 1.26,-3.32 2.52,-4.902"
       fill="#916f5c"
       id="path276" />
    <path
       d="m 767.37,191.676 c 9.84,21.168 15.85,42.731 2.3,63.953 -14.68,22.95 -51.89,25.063 -78.26,21.399 -35.51,-4.93 -75.26,-20.902 -70.65,-63.34 2.71,-25.062 25.63,-53.996 52.62,-59.613 36.4,-7.582 78.94,5.148 93.99,37.601 z"
       fill-opacity="0"
       stroke="#664637"
       stroke-width="6.661"
       stroke-linecap="round"
       stroke-linejoin="round"
       id="path277" />
    <path
       d="m 685.83,160.18 c 1.01,-3.765 7.64,-8.187 9.98,-12.668 2.49,-4.801 4.55,-9.152 4.73,-14.484 4.12,10.601 8.71,22.277 19.26,29.172"
       fill="#916f5c"
       id="path278" />
    <path
       d="m 685.83,160.18 c 1.01,-3.765 7.64,-8.187 9.98,-12.668 2.49,-4.801 4.55,-9.152 4.73,-14.484 4.12,10.601 8.71,22.277 19.26,29.172"
       fill-opacity="0"
       stroke="#664637"
       stroke-width="6.661"
       stroke-linecap="round"
       stroke-linejoin="round"
       id="path279" />
  </g>
</svg>
