<?xml version="1.0" encoding="UTF-8" standalone="no"?>
<!-- Created with Inkscape (http://www.inkscape.org/) -->

<svg
   id="svg2"
   xml:space="preserve"
   viewBox="0 0 37.288 18.51"
   version="1.1"
   inkscape:version="1.3 (0e150ed6c4, 2023-07-21)"
   sodipodi:docname="espagueti-par-carne.svg"
   xmlns:inkscape="http://www.inkscape.org/namespaces/inkscape"
   xmlns:sodipodi="http://sodipodi.sourceforge.net/DTD/sodipodi-0.dtd"
   xmlns="http://www.w3.org/2000/svg"
   xmlns:svg="http://www.w3.org/2000/svg"
   xmlns:rdf="http://www.w3.org/1999/02/22-rdf-syntax-ns#"
   xmlns:cc="http://creativecommons.org/ns#"
   xmlns:dc="http://purl.org/dc/elements/1.1/"><sodipodi:namedview
   id="namedview1"
   pagecolor="#ffffff"
   bordercolor="#000000"
   borderopacity="0.25"
   inkscape:showpageshadow="2"
   inkscape:pageopacity="0.0"
   inkscape:pagecheckerboard="0"
   inkscape:deskcolor="#d1d1d1"
   inkscape:zoom="25.676428"
   inkscape:cx="13.00804"
   inkscape:cy="7.3024176"
   inkscape:window-width="1920"
   inkscape:window-height="991"
   inkscape:window-x="-9"
   inkscape:window-y="-9"
   inkscape:window-maximized="1"
   inkscape:current-layer="g12" />&#10;  <defs
   id="defs6">&#10;    <clipPath
   id="clipPath22">&#10;      <path
   id="path24"
   d="m2-0.19176h16v7h-16v-7z"
   inkscape:connector-curvature="0" />&#10;    </clipPath>&#10;    <mask
   id="mask26">&#10;      <g
   id="g28">&#10;        <g
   id="g30"
   clip-path="url(#clipPath22)">&#10;          <path
   id="path32"
   style="fill:#000000;fill-opacity:.44140"
   d="m2-0.19176h16v7h-16v-7z"
   inkscape:connector-curvature="0" />&#10;        </g>&#10;      </g>&#10;    </mask>&#10;    <clipPath
   id="clipPath38">&#10;      <path
   id="path40"
   d="m2-0.19176h16v7h-16v-7z"
   inkscape:connector-curvature="0" />&#10;    </clipPath>&#10;    <clipPath
   id="clipPath42">&#10;      <path
   id="path44"
   d="m2 0h16v7h-16v-7z"
   inkscape:connector-curvature="0" />&#10;    </clipPath>&#10;    <linearGradient
   id="linearGradient50"
   y2="-31.002"
   gradientUnits="userSpaceOnUse"
   x2="-5.8529"
   gradientTransform="matrix(.6 -.00186 .00186 .6 17.89 22.08)"
   y1="-31.002"
   x1="-21.853">&#10;      <stop
   id="stop52"
   style="stop-color:#ffffff"
   offset="0" />&#10;      <stop
   id="stop54"
   style="stop-color:#000000"
   offset="1" />&#10;    </linearGradient>&#10;    <linearGradient
   id="linearGradient90"
   y2="10.2"
   gradientUnits="userSpaceOnUse"
   x2="46.151"
   gradientTransform="matrix(.6 0 0 -.6 5.5389e-7 14.13)"
   y1="10.2"
   x1="1.1006">&#10;      <stop
   id="stop92"
   style="stop-color:#9cadb5"
   offset="0" />&#10;      <stop
   id="stop94"
   style="stop-color:#e0e0e0"
   offset="1" />&#10;    </linearGradient>&#10;    <radialGradient
   id="radialGradient110"
   gradientUnits="userSpaceOnUse"
   cy="-21.613"
   cx="2.2554"
   gradientTransform="matrix(-.06528 -.5964 .5568 -.07032 24.901 10.986)"
   r="21.012">&#10;      <stop
   id="stop112"
   style="stop-color:#f2db8a"
   offset="0.49861497" />&#10;      <stop
   id="stop114"
   style="stop-color:#877531"
   offset="1" />&#10;    </radialGradient>&#10;    <radialGradient
   id="radialGradient128"
   gradientUnits="userSpaceOnUse"
   cy="-16.343"
   cx="1.939"
   gradientTransform="matrix(-.066 -.5964 .55576 -.07104 18.81 11.725)"
   r="2.9554">&#10;      <stop
   id="stop130"
   style="stop-color:#d4c17d"
   offset="0" />&#10;      <stop
   id="stop132"
   style="stop-color:#b3a051"
   offset="1" />&#10;    </radialGradient>&#10;    <radialGradient
   id="radialGradient146"
   gradientUnits="userSpaceOnUse"
   cy="-16.098"
   cx="7.0215"
   gradientTransform="matrix(-.066 -.59632 .55768 -.07056 18.56 11.781)"
   r="3.295">&#10;      <stop
   id="stop148"
   style="stop-color:#d4c17d"
   offset="0" />&#10;      <stop
   id="stop150"
   style="stop-color:#b3a051"
   offset="1" />&#10;    </radialGradient>&#10;    <radialGradient
   id="radialGradient164"
   gradientUnits="userSpaceOnUse"
   cy="-36.492"
   cx="4.6558"
   gradientTransform="matrix(-.06496 -.59648 .55512 -.07088 41.981 8.7714)"
   r="2.5399">&#10;      <stop
   id="stop166"
   style="stop-color:#d4c17d"
   offset="0" />&#10;      <stop
   id="stop168"
   style="stop-color:#b3a051"
   offset="1" />&#10;    </radialGradient>&#10;    <radialGradient
   id="radialGradient182"
   gradientUnits="userSpaceOnUse"
   cy="-21.334"
   cx="4.3125"
   gradientTransform="matrix(-.06528 -.5964 .55656 -.07 24.574 11.039)"
   r="19.176">&#10;      <stop
   id="stop184"
   style="stop-color:#d4c17d"
   offset="0" />&#10;      <stop
   id="stop186"
   style="stop-color:#b3a051"
   offset="1" />&#10;    </radialGradient>&#10;    <radialGradient
   id="radialGradient200"
   gradientUnits="userSpaceOnUse"
   cy="-22.418"
   cx="-0.499"
   gradientTransform="matrix(-.06544 -.5964 .55688 -.07 25.831 10.883)"
   r="19.718">&#10;      <stop
   id="stop202"
   style="stop-color:#c7b577"
   offset="0" />&#10;      <stop
   id="stop204"
   style="stop-color:#bdaa57"
   offset="1" />&#10;    </radialGradient>&#10;    <radialGradient
   id="radialGradient218"
   gradientUnits="userSpaceOnUse"
   cy="-22.026"
   cx="-.85210"
   gradientTransform="matrix(-.06544 -.5964 .55688 -.07 25.38 10.94)"
   r="19.718">&#10;      <stop
   id="stop220"
   style="stop-color:#e3d49d"
   offset="0" />&#10;      <stop
   id="stop222"
   style="stop-color:#e0ca70"
   offset="1" />&#10;    </radialGradient>&#10;    <radialGradient
   id="radialGradient236"
   gradientUnits="userSpaceOnUse"
   cy="-22.192"
   cx="-.7324"
   gradientTransform="matrix(-.06536 -.5964 .55688 -.07024 25.57 10.904)"
   r="24.445">&#10;      <stop
   id="stop238"
   style="stop-color:#e6d189"
   offset="0" />&#10;      <stop
   id="stop240"
   style="stop-color:#bdaa57"
   offset="1" />&#10;    </radialGradient>&#10;    <radialGradient
   id="radialGradient254"
   gradientUnits="userSpaceOnUse"
   cy="-21.855"
   cx="-1.0425"
   gradientTransform="matrix(-.06536 -.5964 .55688 -.07024 25.182 10.953)"
   r="24.445">&#10;      <stop
   id="stop256"
   style="stop-color:#fff6d4"
   offset="0" />&#10;      <stop
   id="stop258"
   style="stop-color:#e0ca70"
   offset="1" />&#10;    </radialGradient>&#10;    <radialGradient
   id="radialGradient272"
   gradientUnits="userSpaceOnUse"
   cy="-24.477"
   cx="4.4702"
   gradientTransform="matrix(-.06552 -.5964 .5568 -.07008 28.202 10.581)"
   r="17.982">&#10;      <stop
   id="stop274"
   style="stop-color:#d6c894"
   offset="0" />&#10;      <stop
   id="stop276"
   style="stop-color:#a89642"
   offset="1" />&#10;    </radialGradient>&#10;    <radialGradient
   id="radialGradient290"
   gradientUnits="userSpaceOnUse"
   cy="-24.129"
   cx="4.061"
   gradientTransform="matrix(-.06552 -.5964 .5568 -.07008 27.802 10.631)"
   r="17.982">&#10;      <stop
   id="stop292"
   style="stop-color:#fff6d4"
   offset="0" />&#10;      <stop
   id="stop294"
   style="stop-color:#e0ca70"
   offset="1" />&#10;    </radialGradient>&#10;    <radialGradient
   id="radialGradient308"
   gradientUnits="userSpaceOnUse"
   cy="-26.365"
   cx="4.2339"
   gradientTransform="matrix(-.06552 -.5964 .5568 -.07008 30.378 10.308)"
   r="16.486">&#10;      <stop
   id="stop310"
   style="stop-color:#fff6d4"
   offset="0" />&#10;      <stop
   id="stop312"
   style="stop-color:#e0ca70"
   offset="1" />&#10;    </radialGradient>&#10;    <clipPath
   id="clipPath454">&#10;      <path
   id="path456"
   d="m3 7.8082h14v6h-14v-6z"
   inkscape:connector-curvature="0" />&#10;    </clipPath>&#10;    <mask
   id="mask458">&#10;      <g
   id="g460">&#10;        <g
   id="g462"
   clip-path="url(#clipPath454)">&#10;          <path
   id="path464"
   style="fill:#000000;fill-opacity:.62110"
   d="m3 7.8082h14v6h-14v-6z"
   inkscape:connector-curvature="0" />&#10;        </g>&#10;      </g>&#10;    </mask>&#10;    <clipPath
   id="clipPath470">&#10;      <path
   id="path472"
   d="m3 7.8082h14v6h-14v-6z"
   inkscape:connector-curvature="0" />&#10;    </clipPath>&#10;    <clipPath
   id="clipPath474">&#10;      <path
   id="path476"
   d="m3 8h14v6h-14v-6z"
   inkscape:connector-curvature="0" />&#10;    </clipPath>&#10;    <clipPath
   id="clipPath542">&#10;      <path
   id="path544"
   d="m12 13.808h4v1h-4v-1z"
   inkscape:connector-curvature="0" />&#10;    </clipPath>&#10;    <mask
   id="mask546">&#10;      <g
   id="g548">&#10;        <g
   id="g550"
   clip-path="url(#clipPath542)">&#10;          <path
   id="path552"
   style="fill:#000000;fill-opacity:.42190"
   d="m12 13.808h4v1h-4v-1z"
   inkscape:connector-curvature="0" />&#10;        </g>&#10;      </g>&#10;    </mask>&#10;    <clipPath
   id="clipPath558">&#10;      <path
   id="path560"
   d="m12 13.808h4v1h-4v-1z"
   inkscape:connector-curvature="0" />&#10;    </clipPath>&#10;    <clipPath
   id="clipPath562">&#10;      <path
   id="path564"
   d="m12 14h4v1h-4v-1z"
   inkscape:connector-curvature="0" />&#10;    </clipPath>&#10;    <clipPath
   id="clipPath586">&#10;      <path
   id="path588"
   d="m13 12.808h3v1h-3v-1z"
   inkscape:connector-curvature="0" />&#10;    </clipPath>&#10;    <mask
   id="mask590">&#10;      <g
   id="g592">&#10;        <g
   id="g594"
   clip-path="url(#clipPath586)">&#10;          <path
   id="path596"
   style="fill:#000000;fill-opacity:.42190"
   d="m13 12.808h3v1h-3v-1z"
   inkscape:connector-curvature="0" />&#10;        </g>&#10;      </g>&#10;    </mask>&#10;    <clipPath
   id="clipPath602">&#10;      <path
   id="path604"
   d="m13 12.808h3v1h-3v-1z"
   inkscape:connector-curvature="0" />&#10;    </clipPath>&#10;    <clipPath
   id="clipPath606">&#10;      <path
   id="path608"
   d="m13 13h3v1h-3v-1z"
   inkscape:connector-curvature="0" />&#10;    </clipPath>&#10;    <clipPath
   id="clipPath630">&#10;      <path
   id="path632"
   d="m15 12.808h2v1h-2v-1z"
   inkscape:connector-curvature="0" />&#10;    </clipPath>&#10;    <mask
   id="mask634">&#10;      <g
   id="g636">&#10;        <g
   id="g638"
   clip-path="url(#clipPath630)">&#10;          <path
   id="path640"
   style="fill:#000000;fill-opacity:.42190"
   d="m15 12.808h2v1h-2v-1z"
   inkscape:connector-curvature="0" />&#10;        </g>&#10;      </g>&#10;    </mask>&#10;    <clipPath
   id="clipPath646">&#10;      <path
   id="path648"
   d="m15 12.808h2v1h-2v-1z"
   inkscape:connector-curvature="0" />&#10;    </clipPath>&#10;    <clipPath
   id="clipPath650">&#10;      <path
   id="path652"
   d="m15 13h2v1h-2v-1z"
   inkscape:connector-curvature="0" />&#10;    </clipPath>&#10;    <clipPath
   id="clipPath674">&#10;      <path
   id="path676"
   d="m15 11.808h3v2h-3v-2z"
   inkscape:connector-curvature="0" />&#10;    </clipPath>&#10;    <mask
   id="mask678">&#10;      <g
   id="g680">&#10;        <g
   id="g682"
   clip-path="url(#clipPath674)">&#10;          <path
   id="path684"
   style="fill:#000000;fill-opacity:.42190"
   d="m15 11.808h3v2h-3v-2z"
   inkscape:connector-curvature="0" />&#10;        </g>&#10;      </g>&#10;    </mask>&#10;    <clipPath
   id="clipPath690">&#10;      <path
   id="path692"
   d="m15 11.808h3v2h-3v-2z"
   inkscape:connector-curvature="0" />&#10;    </clipPath>&#10;    <clipPath
   id="clipPath694">&#10;      <path
   id="path696"
   d="m15 12h3v2h-3v-2z"
   inkscape:connector-curvature="0" />&#10;    </clipPath>&#10;    <clipPath
   id="clipPath718">&#10;      <path
   id="path720"
   d="m16 12.808h3v1h-3v-1z"
   inkscape:connector-curvature="0" />&#10;    </clipPath>&#10;    <mask
   id="mask722">&#10;      <g
   id="g724">&#10;        <g
   id="g726"
   clip-path="url(#clipPath718)">&#10;          <path
   id="path728"
   style="fill:#000000;fill-opacity:.42190"
   d="m16 12.808h3v1h-3v-1z"
   inkscape:connector-curvature="0" />&#10;        </g>&#10;      </g>&#10;    </mask>&#10;    <clipPath
   id="clipPath734">&#10;      <path
   id="path736"
   d="m16 12.808h3v1h-3v-1z"
   inkscape:connector-curvature="0" />&#10;    </clipPath>&#10;    <clipPath
   id="clipPath738">&#10;      <path
   id="path740"
   d="m16 13h3v1h-3v-1z"
   inkscape:connector-curvature="0" />&#10;    </clipPath>&#10;    <clipPath
   id="clipPath762">&#10;      <path
   id="path764"
   d="m15 13.808h3v1h-3v-1z"
   inkscape:connector-curvature="0" />&#10;    </clipPath>&#10;    <mask
   id="mask766">&#10;      <g
   id="g768">&#10;        <g
   id="g770"
   clip-path="url(#clipPath762)">&#10;          <path
   id="path772"
   style="fill:#000000;fill-opacity:.42190"
   d="m15 13.808h3v1h-3v-1z"
   inkscape:connector-curvature="0" />&#10;        </g>&#10;      </g>&#10;    </mask>&#10;    <clipPath
   id="clipPath778">&#10;      <path
   id="path780"
   d="m15 13.808h3v1h-3v-1z"
   inkscape:connector-curvature="0" />&#10;    </clipPath>&#10;    <clipPath
   id="clipPath782">&#10;      <path
   id="path784"
   d="m15 14h3v1h-3v-1z"
   inkscape:connector-curvature="0" />&#10;    </clipPath>&#10;    <clipPath
   id="clipPath806">&#10;      <path
   id="path808"
   d="m14 13.808h2v1h-2v-1z"
   inkscape:connector-curvature="0" />&#10;    </clipPath>&#10;    <mask
   id="mask810">&#10;      <g
   id="g812">&#10;        <g
   id="g814"
   clip-path="url(#clipPath806)">&#10;          <path
   id="path816"
   style="fill:#000000;fill-opacity:.42190"
   d="m14 13.808h2v1h-2v-1z"
   inkscape:connector-curvature="0" />&#10;        </g>&#10;      </g>&#10;    </mask>&#10;    <clipPath
   id="clipPath822">&#10;      <path
   id="path824"
   d="m14 13.808h2v1h-2v-1z"
   inkscape:connector-curvature="0" />&#10;    </clipPath>&#10;    <clipPath
   id="clipPath826">&#10;      <path
   id="path828"
   d="m14 14h2v1h-2v-1z"
   inkscape:connector-curvature="0" />&#10;    </clipPath>&#10;    <clipPath
   id="clipPath850">&#10;      <path
   id="path852"
   d="m12 13.808h4v1h-4v-1z"
   inkscape:connector-curvature="0" />&#10;    </clipPath>&#10;    <mask
   id="mask854">&#10;      <g
   id="g856">&#10;        <g
   id="g858"
   clip-path="url(#clipPath850)">&#10;          <path
   id="path860"
   style="fill:#000000;fill-opacity:.42190"
   d="m12 13.808h4v1h-4v-1z"
   inkscape:connector-curvature="0" />&#10;        </g>&#10;      </g>&#10;    </mask>&#10;    <clipPath
   id="clipPath866">&#10;      <path
   id="path868"
   d="m12 13.808h4v1h-4v-1z"
   inkscape:connector-curvature="0" />&#10;    </clipPath>&#10;    <clipPath
   id="clipPath870">&#10;      <path
   id="path872"
   d="m12 14h4v1h-4v-1z"
   inkscape:connector-curvature="0" />&#10;    </clipPath>&#10;    <clipPath
   id="clipPath906">&#10;      <path
   id="path908"
   d="m5 10.808h5v2h-5v-2z"
   inkscape:connector-curvature="0" />&#10;    </clipPath>&#10;    <mask
   id="mask910">&#10;      <g
   id="g912">&#10;        <g
   id="g914"
   clip-path="url(#clipPath906)">&#10;          <path
   id="path916"
   style="fill:#000000;fill-opacity:.42190"
   d="m5 10.808h5v2h-5v-2z"
   inkscape:connector-curvature="0" />&#10;        </g>&#10;      </g>&#10;    </mask>&#10;    <clipPath
   id="clipPath922">&#10;      <path
   id="path924"
   d="m5 10.808h5v2h-5v-2z"
   inkscape:connector-curvature="0" />&#10;    </clipPath>&#10;    <clipPath
   id="clipPath926">&#10;      <path
   id="path928"
   d="m5 11h5v2h-5v-2z"
   inkscape:connector-curvature="0" />&#10;    </clipPath>&#10;    <clipPath
   id="clipPath950">&#10;      <path
   id="path952"
   d="m6 10.808h4v2h-4v-2z"
   inkscape:connector-curvature="0" />&#10;    </clipPath>&#10;    <mask
   id="mask954">&#10;      <g
   id="g956">&#10;        <g
   id="g958"
   clip-path="url(#clipPath950)">&#10;          <path
   id="path960"
   style="fill:#000000;fill-opacity:.42190"
   d="m6 10.808h4v2h-4v-2z"
   inkscape:connector-curvature="0" />&#10;        </g>&#10;      </g>&#10;    </mask>&#10;    <clipPath
   id="clipPath966">&#10;      <path
   id="path968"
   d="m6 10.808h4v2h-4v-2z"
   inkscape:connector-curvature="0" />&#10;    </clipPath>&#10;    <clipPath
   id="clipPath970">&#10;      <path
   id="path972"
   d="m6 11h4v2h-4v-2z"
   inkscape:connector-curvature="0" />&#10;    </clipPath>&#10;    <clipPath
   id="clipPath994">&#10;      <path
   id="path996"
   d="m9 9.8082h2v3h-2v-3z"
   inkscape:connector-curvature="0" />&#10;    </clipPath>&#10;    <mask
   id="mask998">&#10;      <g
   id="g1000">&#10;        <g
   id="g1002"
   clip-path="url(#clipPath994)">&#10;          <path
   id="path1004"
   style="fill:#000000;fill-opacity:.42190"
   d="m9 9.8082h2v3h-2v-3z"
   inkscape:connector-curvature="0" />&#10;        </g>&#10;      </g>&#10;    </mask>&#10;    <clipPath
   id="clipPath1010">&#10;      <path
   id="path1012"
   d="m9 9.8082h2v3h-2v-3z"
   inkscape:connector-curvature="0" />&#10;    </clipPath>&#10;    <clipPath
   id="clipPath1014">&#10;      <path
   id="path1016"
   d="m9 10h2v3h-2v-3z"
   inkscape:connector-curvature="0" />&#10;    </clipPath>&#10;    <clipPath
   id="clipPath1038">&#10;      <path
   id="path1040"
   d="m9 9.8082h4v3h-4v-3z"
   inkscape:connector-curvature="0" />&#10;    </clipPath>&#10;    <mask
   id="mask1042">&#10;      <g
   id="g1044">&#10;        <g
   id="g1046"
   clip-path="url(#clipPath1038)">&#10;          <path
   id="path1048"
   style="fill:#000000;fill-opacity:.42190"
   d="m9 9.8082h4v3h-4v-3z"
   inkscape:connector-curvature="0" />&#10;        </g>&#10;      </g>&#10;    </mask>&#10;    <clipPath
   id="clipPath1054">&#10;      <path
   id="path1056"
   d="m9 9.8082h4v3h-4v-3z"
   inkscape:connector-curvature="0" />&#10;    </clipPath>&#10;    <clipPath
   id="clipPath1058">&#10;      <path
   id="path1060"
   d="m9 10h4v3h-4v-3z"
   inkscape:connector-curvature="0" />&#10;    </clipPath>&#10;    <clipPath
   id="clipPath1082">&#10;      <path
   id="path1084"
   d="m10 10.808h3v2h-3v-2z"
   inkscape:connector-curvature="0" />&#10;    </clipPath>&#10;    <mask
   id="mask1086">&#10;      <g
   id="g1088">&#10;        <g
   id="g1090"
   clip-path="url(#clipPath1082)">&#10;          <path
   id="path1092"
   style="fill:#000000;fill-opacity:.42190"
   d="m10 10.808h3v2h-3v-2z"
   inkscape:connector-curvature="0" />&#10;        </g>&#10;      </g>&#10;    </mask>&#10;    <clipPath
   id="clipPath1098">&#10;      <path
   id="path1100"
   d="m10 10.808h3v2h-3v-2z"
   inkscape:connector-curvature="0" />&#10;    </clipPath>&#10;    <clipPath
   id="clipPath1102">&#10;      <path
   id="path1104"
   d="m10 11h3v2h-3v-2z"
   inkscape:connector-curvature="0" />&#10;    </clipPath>&#10;    <clipPath
   id="clipPath1126">&#10;      <path
   id="path1128"
   d="m9 11.808h3v2h-3v-2z"
   inkscape:connector-curvature="0" />&#10;    </clipPath>&#10;    <mask
   id="mask1130">&#10;      <g
   id="g1132">&#10;        <g
   id="g1134"
   clip-path="url(#clipPath1126)">&#10;          <path
   id="path1136"
   style="fill:#000000;fill-opacity:.42190"
   d="m9 11.808h3v2h-3v-2z"
   inkscape:connector-curvature="0" />&#10;        </g>&#10;      </g>&#10;    </mask>&#10;    <clipPath
   id="clipPath1142">&#10;      <path
   id="path1144"
   d="m9 11.808h3v2h-3v-2z"
   inkscape:connector-curvature="0" />&#10;    </clipPath>&#10;    <clipPath
   id="clipPath1146">&#10;      <path
   id="path1148"
   d="m9 12h3v2h-3v-2z"
   inkscape:connector-curvature="0" />&#10;    </clipPath>&#10;    <clipPath
   id="clipPath1170">&#10;      <path
   id="path1172"
   d="m8 11.808h2v2h-2v-2z"
   inkscape:connector-curvature="0" />&#10;    </clipPath>&#10;    <mask
   id="mask1174">&#10;      <g
   id="g1176">&#10;        <g
   id="g1178"
   clip-path="url(#clipPath1170)">&#10;          <path
   id="path1180"
   style="fill:#000000;fill-opacity:.42190"
   d="m8 11.808h2v2h-2v-2z"
   inkscape:connector-curvature="0" />&#10;        </g>&#10;      </g>&#10;    </mask>&#10;    <clipPath
   id="clipPath1186">&#10;      <path
   id="path1188"
   d="m8 11.808h2v2h-2v-2z"
   inkscape:connector-curvature="0" />&#10;    </clipPath>&#10;    <clipPath
   id="clipPath1190">&#10;      <path
   id="path1192"
   d="m8 12h2v2h-2v-2z"
   inkscape:connector-curvature="0" />&#10;    </clipPath>&#10;    <clipPath
   id="clipPath1214">&#10;      <path
   id="path1216"
   d="m6 11.808h4v1h-4v-1z"
   inkscape:connector-curvature="0" />&#10;    </clipPath>&#10;    <mask
   id="mask1218">&#10;      <g
   id="g1220">&#10;        <g
   id="g1222"
   clip-path="url(#clipPath1214)">&#10;          <path
   id="path1224"
   style="fill:#000000;fill-opacity:.42190"
   d="m6 11.808h4v1h-4v-1z"
   inkscape:connector-curvature="0" />&#10;        </g>&#10;      </g>&#10;    </mask>&#10;    <clipPath
   id="clipPath1230">&#10;      <path
   id="path1232"
   d="m6 11.808h4v1h-4v-1z"
   inkscape:connector-curvature="0" />&#10;    </clipPath>&#10;    <clipPath
   id="clipPath1234">&#10;      <path
   id="path1236"
   d="m6 12h4v1h-4v-1z"
   inkscape:connector-curvature="0" />&#10;    </clipPath>&#10;  </defs>&#10;  <g
   id="g10"
   transform="matrix(1.25 0 0 -1.25 0 18.51)">&#10;    <g
   id="g12">&#10;      <path
   id="path14"
   style="display:inline;fill:#d7eaf2;fill-rule:evenodd;fill-opacity:1"
   d="m 27.93,7.351 0.121,0.028 C 27.27,5.242 25.59,3.48 23.008,2.101 20.391,0.699 17.398,0 14.039,0 10.66,0 7.648,0.711 5.008,2.129 2.41,3.531 0.738,5.308 0,7.468 L 0.238,7.441 C 1.02,6.922 2.691,6.488 5.25,6.152 7.852,5.808 10.809,5.64 14.129,5.64 c 3.262,0 6.172,0.16 8.73,0.481 2.52,0.32 4.211,0.73 5.071,1.23 z"
   inkscape:connector-curvature="0" />&#10;      <path
   id="path16"
   style="fill-rule:evenodd;fill:#bdd4de"
   d="m26.82 6.902c-0.179-0.484-0.472-0.984-0.871-1.5-0.758-1.023-1.941-2.051-3.539-3.094-1.262-0.816-2.812-1.476-4.652-1.976-0.86-0.121-1.34-0.184-1.438-0.184 2.418 0.742 4.16 1.82 5.219 3.242 0.461 0.621 0.75 1.199 0.867 1.739 0.063 0.5 0.102 0.832 0.121 0.992 1.864 0.199 3.293 0.461 4.293 0.781z"
   inkscape:connector-curvature="0" />&#10;      &#10;      <path
   id="path78"
   style="display:inline;fill:#bdd4de;fill-rule:evenodd"
   d="M 2.281,4.652 C 3.547,3.152 5.148,2.007 7.078,1.214 5.43,1.824 4.012,2.621 2.82,3.601 1.441,4.742 0.5,6.031 0,7.468 L 0.238,7.441 C 0.379,7.339 0.531,7.261 0.691,7.199 1.031,6.359 1.559,5.511 2.281,4.652 Z"
   inkscape:connector-curvature="0" />&#10;      <g
   id="g80"
   style="display:inline">&#10;        <g
   id="g82">&#10;          <g
   id="g88">&#10;            <path
   id="path96"
   style="display:inline;fill:#bdd4de;fill-rule:evenodd;fill-opacity:1"
   d="m 23.73,11.609 c 2.641,-1 3.961,-2.199 3.961,-3.598 0,-1.402 -1.32,-2.589 -3.961,-3.57 -2.64,-1 -5.82,-1.5 -9.539,-1.5 -3.742,0 -6.929,0.5 -9.57,1.5 C 1.98,5.422 0.66,6.609 0.66,8.011 c 0,1.399 1.32,2.598 3.961,3.598 2.641,0.98 5.828,1.473 9.57,1.473 3.719,0 6.899,-0.493 9.539,-1.473 z"
   inkscape:connector-curvature="0" />&#10;          </g>&#10;        </g>&#10;      </g>&#10;      <path
   id="path98"
   style="display:inline;fill:#ffffff;fill-rule:evenodd"
   d="m 28.02,8.371 h -0.872 c -0.179,1.238 -1.527,2.289 -4.05,3.148 -2.496,0.86 -5.496,1.289 -8.996,1.289 -3.481,0 -6.473,-0.429 -8.973,-1.289 C 2.609,10.66 1.262,9.609 1.078,8.371 H 0.059 c 0.32,1.359 1.812,2.5 4.472,3.418 2.699,0.922 5.867,1.383 9.508,1.383 3.66,0 6.832,-0.461 9.512,-1.383 2.679,-0.918 4.168,-2.059 4.469,-3.418 z"
   inkscape:connector-curvature="0" />&#10;      <g
   id="g100"
   style="display:inline;fill:#e3bd26;fill-opacity:1">&#10;        <g
   id="g102"
   style="fill:#e3bd26;fill-opacity:1">&#10;          <g
   id="g108"
   style="fill:#e3cd22;fill-opacity:1">&#10;            <path
   id="path116"
   style="fill:#e3cd22;fill-rule:evenodd;fill-opacity:1"
   d="M 26.969,6.3 C 26.07,5.781 24.77,5.211 23.07,4.589 20.609,3.691 18.5,3.23 16.742,3.211 14.82,3.191 12.723,3.281 10.441,3.48 8.359,3.679 6.77,3.91 5.672,4.168 4.77,4.39 3.891,4.73 3.031,5.187 2.27,5.589 1.879,5.871 1.859,6.031 1.84,6.109 1.961,6.257 2.219,6.48 2.52,6.738 2.68,6.898 2.699,6.961 3.02,7.859 4.289,8.629 6.512,9.269 7.09,9.429 7.68,9.91 8.281,10.711 c 0.559,0.757 1.028,1.148 1.41,1.168 1.879,0.14 3.418,0.121 4.618,-0.059 0.421,-0.059 1.07,-0.27 1.953,-0.629 0.718,-0.301 1.328,-0.441 1.828,-0.422 0.461,0.02 1.5,0.102 3.121,0.242 1.461,0.078 2.359,-0.039 2.699,-0.359 0.5,-0.48 1.031,-1.09 1.59,-1.832 C 26.16,7.98 26.48,7.41 26.461,7.109 26.441,6.89 26.629,6.742 27.031,6.66 27.289,6.601 27.27,6.48 26.969,6.3 Z"
   inkscape:connector-curvature="0" />&#10;          </g>&#10;        </g>&#10;      </g>&#10;      <g
   id="g118"
   style="display:inline">&#10;        <g
   id="g120">&#10;          <g
   id="g126">&#10;            <path
   id="path134"
   style="fill:#e2cd85;fill-rule:evenodd;fill-opacity:1"
   d="m 9.691,11.879 c 0.579,0.101 0.668,-0.04 0.27,-0.418 -0.5,-0.5 -0.68,-0.809 -0.539,-0.93 0.156,-0.16 0.5,-0.141 1.016,0.058 0.484,0.2 0.742,0.25 0.781,0.153 0.082,-0.223 -0.071,-0.41 -0.449,-0.57 -0.422,-0.18 -0.981,-0.211 -1.68,-0.09 -0.699,0.14 -0.902,0.461 -0.602,0.961 0.301,0.457 0.703,0.738 1.203,0.836 z"
   inkscape:connector-curvature="0" />&#10;          </g>&#10;        </g>&#10;      </g>&#10;      <g
   id="g136">&#10;        <g
   id="g138">&#10;          <g
   id="g144">&#10;            <path
   id="path152"
   style="fill-rule:evenodd;fill:#e2cd85;fill-opacity:1"
   d="m10.352 8.941c0.3 0.039 0.449-0.09 0.449-0.391 0-0.16-0.039-0.429-0.121-0.808-0.039-0.281-0.149-0.524-0.328-0.723-0.2-0.219-0.422-0.316-0.661-0.301-0.218 0.043-0.589 0.043-1.109 0l-0.719-0.058c0.059 0.121 0.168 0.242 0.328 0.359 0.301 0.262 0.68 0.403 1.141 0.422 0.398 0.039 0.59 0.289 0.57 0.75-0.004 0.481 0.149 0.727 0.45 0.75z"
   inkscape:connector-curvature="0" />&#10;          </g>&#10;        </g>&#10;      </g>&#10;      <g
   id="g154">&#10;        <g
   id="g156">&#10;          <g
   id="g162">&#10;            <path
   id="path170"
   style="fill-rule:evenodd;fill:#e2cd85;fill-opacity:1"
   d="m22.289 8.672c0.719-0.184 0.879-0.512 0.481-0.993-0.399-0.461-1.008-0.578-1.829-0.359-0.781 0.199-0.91 0.512-0.39 0.93 0.5 0.441 1.078 0.582 1.738 0.422z"
   inkscape:connector-curvature="0" />&#10;          </g>&#10;        </g>&#10;      </g>&#10;      <g
   id="g172">&#10;        <g
   id="g174">&#10;          <g
   id="g180">&#10;            <path
   id="path188"
   style="fill-rule:evenodd;fill:#e2c974;fill-opacity:1"
   d="m25.23 7.23c-0.382 0.199-0.882 0.488-1.5 0.871-0.699 0.438-1.16 0.719-1.382 0.84-0.657 0.398-1.618 0.551-2.879 0.449-0.641-0.101-1.16-0.172-1.559-0.211-0.719-0.078-1.262-0.039-1.621 0.121-0.16 0.059-0.359 0.239-0.598 0.539-0.16 0.18-0.55 0.262-1.171 0.243-0.54-0.02-1.27-0.16-2.192-0.422-0.918-0.258-1.578-0.399-1.98-0.418-0.778-0.063-1.309-0.133-1.586-0.211-0.485-0.121-0.84-0.359-1.082-0.719-0.379-0.543-0.672-0.91-0.871-1.109-0.34-0.344-0.719-0.543-1.141-0.602-0.5-0.082-0.969-0.211-1.41-0.39-0.5-0.18-0.758-0.34-0.781-0.481-0.055-0.156-0.055-0.308 0-0.465-0.477 0.188-0.789 0.344-0.93 0.465-0.5 0.422-0.418 0.762 0.242 1.02 0.52 0.218 1.191 0.332 2.012 0.332 0.558 0 1.008 0.117 1.347 0.359 0.161 0.117 0.403 0.379 0.723 0.777 0.16 0.204 0.387 0.512 0.688 0.934 0.339 0.316 0.871 0.469 1.589 0.449 0.661-0.039 1.301 0.059 1.922 0.301 0.317 0.141 0.739 0.316 1.258 0.539 0.461 0.121 0.809 0.18 1.051 0.18 0.34 0 0.859-0.078 1.559-0.239 0.281-0.062 0.64-0.261 1.082-0.601 0.238-0.199 0.878-0.262 1.918-0.18 0.902 0.059 1.871 0.149 2.91 0.27 0.683-0.02 1.293-0.258 1.832-0.719 0.379-0.32 1.109-0.742 2.187-1.262 0.801-0.379 1.18-0.668 1.141-0.871-0.039-0.437-0.117-0.847-0.238-1.226-0.161-0.5-0.313-0.653-0.45-0.454-0.062 0.102 0.008 0.411 0.207 0.93 0.184 0.442 0.082 0.762-0.297 0.961zm-6.871 0c-0.738 0.301-1.25 0.488-1.531 0.57-0.48 0.161-0.859 0.161-1.137 0-0.121-0.058-0.55-0.218-1.293-0.48-0.558-0.199-0.929-0.402-1.109-0.602-0.379-0.457-0.68-0.82-0.898-1.078-0.442-0.519-0.789-0.82-1.051-0.902-0.399-0.117-0.891-0.188-1.469-0.207-0.66-0.02-1.082 0.07-1.262 0.269-0.238 0.258-0.41 0.418-0.507 0.481-0.204 0.098-0.524 0.168-0.961 0.207-0.481 0.043-0.961-0.047-1.442-0.27-0.441-0.211-0.605-0.394-0.496-0.554-0.371 0.117-0.707 0.23-1.004 0.332 0.047 0.031 0.098 0.066 0.153 0.105 0.48 0.34 1.078 0.641 1.8 0.899 0.778 0.3 1.348 0.402 1.707 0.3 0.18-0.039 0.461-0.32 0.84-0.839 0.301-0.403 0.692-0.551 1.172-0.454 0.66 0.161 1.109 0.313 1.352 0.454 0.257 0.16 0.5 0.457 0.718 0.898 0.598 1.102 1.352 1.652 2.25 1.652 0.262 0 0.579 0.137 0.961 0.418 0.301 0.219 0.7 0.25 1.2 0.09 0.878-0.281 1.808-0.519 2.789-0.719 0.382-0.101 0.91-0.109 1.589-0.031 0.54 0.063 0.969-0.019 1.29-0.238 0.402-0.301 0.621-0.52 0.66-0.66 0-0.039-0.051-0.289-0.149-0.75-0.062-0.262 0.047-0.672 0.328-1.231 0.2-0.422 0.192-0.64-0.031-0.66-0.219-0.019-0.41-0.082-0.57-0.18-0.039-0.019-0.078 0.02-0.117 0.118-0.039 0.183-0.071 0.492-0.09 0.933-0.039 0.516-0.031 0.918 0.027 1.199 0.16 0.68-0.219 1.02-1.137 1.02-0.121 0-0.519-0.07-1.199-0.211-0.441-0.078-0.902-0.039-1.383 0.121zm-5.757-3.422c-0.661-0.058-1.063-0.109-1.204-0.148-0.238-0.082-0.398-0.129-0.476-0.153-0.121-0.039-0.402-0.058-0.844-0.058-0.234 0-0.605 0.055-1.109 0.164 0.265 0.059 0.758 0.191 1.469 0.406 0.722 0.242 1.273 0.36 1.652 0.36h1.168c0.34 0.062 0.64 0.25 0.902 0.57 0.32 0.383 0.84 0.672 1.559 0.871 0.781 0.199 1.351 0.16 1.711-0.121 0.34-0.258 0.781-0.481 1.32-0.66 0.398-0.117 0.738-0.188 1.02-0.207 0.218-0.02 0.488-0.071 0.808-0.153 0.34-0.078 0.551-0.16 0.629-0.238 0.121-0.082 0.133-0.254 0.031-0.512-0.117-0.242-0.297-0.328-0.539-0.269-0.199 0.058-0.558 0.219-1.078 0.48-0.641 0.34-1.09 0.559-1.351 0.66-0.602 0.258-1.02 0.418-1.262 0.481-0.481 0.117-0.899 0.098-1.258-0.063-0.281-0.117-0.613-0.316-0.992-0.597-0.379-0.262-0.668-0.442-0.867-0.543-0.262-0.098-0.692-0.188-1.289-0.27zm-9.122 1.457c0.208-0.086 0.446-0.176 0.719-0.269-0.301-0.176-0.508-0.149-0.629 0.074-0.043 0.066-0.07 0.129-0.09 0.195zm1.723-0.601c0.293-0.086 0.609-0.184 0.949-0.285 1.188-0.356 2.125-0.614 2.817-0.762-0.031-0.008-0.063-0.012-0.09-0.016-0.418-0.062-1.117 0.059-2.098 0.36-0.902 0.3-1.422 0.527-1.558 0.687l-0.02 0.016z"
   inkscape:connector-curvature="0" />&#10;          </g>&#10;        </g>&#10;      </g>&#10;      <g
   id="g190">&#10;        <g
   id="g192">&#10;          <g
   id="g198">&#10;            <path
   id="path206"
   style="fill-rule:evenodd;fill:#a89656;fill-opacity:1"
   d="m25.352 9.3c-0.321 0.442-0.774 0.711-1.352 0.809-1.301 0.262-2.52 0.422-3.66 0.48-0.539 0.043-1.16 0.301-1.86 0.782-0.757 0.5-1.32 0.781-1.679 0.84-0.742 0.242-1.293 0.39-1.653 0.449-0.64 0.14-1.308-0.008-2.007-0.449-0.981-0.68-1.672-1.149-2.071-1.411-0.64-0.418-1.191-0.648-1.652-0.691-0.141-0.02-0.797 0.043-1.98 0.184-0.821 0.078-1.411-0.012-1.77-0.274-0.719-0.617-1.238-1.058-1.559-1.316-0.539-0.481-0.761-0.551-0.66-0.211 0.5 1.597 1.36 2.398 2.578 2.398h1.141c1.781-0.199 2.973-0.039 3.57 0.481 0.723 0.601 1.461 1.101 2.223 1.5 1.137 0.621 2.059 0.851 2.758 0.691 0.48-0.121 1.179-0.519 2.101-1.199 0.879-0.641 1.688-1.012 2.43-1.113 1.66-0.219 2.539-0.34 2.641-0.36 0.816-0.14 1.457-0.328 1.918-0.57 0.558-0.316 1.011-0.68 1.351-1.078 0.379-0.422 0.547-0.801 0.508-1.141-0.039-0.359-0.391-0.738-1.047-1.14-0.683-0.418-1.433-0.672-2.254-0.75-0.597-0.059-1.25-0.352-1.949-0.872-0.66-0.5-1.129-0.75-1.41-0.75h-0.988c-0.122 0.02-0.18 0.071-0.18 0.153 0 0.137 0.297 0.328 0.898 0.566 0.481 0.184 1.551 0.571 3.211 1.172 1.481 0.559 2.328 1.039 2.551 1.442 0.262 0.457 0.211 0.917-0.148 1.378z"
   inkscape:connector-curvature="0" />&#10;          </g>&#10;        </g>&#10;      </g>&#10;      <g
   id="g208">&#10;        <g
   id="g210">&#10;          <g
   id="g216">&#10;            <path
   id="path224"
   style="fill-rule:evenodd;fill:#e9d275;fill-opacity:1"
   d="m25.141 9.539c-0.34 0.441-0.789 0.711-1.352 0.812-1.301 0.258-2.519 0.418-3.66 0.481-0.539 0.039-1.16 0.3-1.859 0.777-0.758 0.5-1.329 0.781-1.711 0.844-0.739 0.238-1.289 0.386-1.649 0.449-0.621 0.141-1.281-0.012-1.98-0.449-1-0.684-1.692-1.153-2.071-1.41-0.64-0.422-1.199-0.653-1.679-0.692-0.141-0.019-0.789 0.039-1.953 0.18-0.84 0.082-1.43-0.012-1.77-0.27-0.719-0.621-1.238-1.058-1.559-1.32-0.539-0.48-0.757-0.551-0.66-0.211 0.5 1.602 1.364 2.399 2.582 2.399h1.141c1.777-0.2 2.969-0.051 3.57 0.453 0.637 0.578 1.379 1.09 2.219 1.527 1.141 0.621 2.059 0.852 2.758 0.691 0.461-0.121 1.16-0.519 2.101-1.199 0.879-0.64 1.692-1.012 2.43-1.113 1.699-0.219 2.582-0.34 2.641-0.359 0.8-0.141 1.429-0.329 1.89-0.571 0.559-0.316 1.02-0.679 1.379-1.078 0.383-0.422 0.551-0.801 0.512-1.141-0.039-0.359-0.391-0.738-1.051-1.14-0.699-0.418-1.449-0.668-2.25-0.75-0.621-0.059-1.269-0.352-1.953-0.871-0.66-0.5-1.137-0.75-1.437-0.75h-0.961l0.66 0.539c0.558 0.422 1.14 0.75 1.738 0.992 0.484 0.18 1.27 0.43 2.371 0.75 0.922 0.301 1.492 0.648 1.711 1.051 0.262 0.461 0.211 0.922-0.148 1.379z"
   inkscape:connector-curvature="0" />&#10;          </g>&#10;        </g>&#10;      </g>&#10;      <g
   id="g226">&#10;        <g
   id="g228">&#10;          <g
   id="g234">&#10;            <path
   id="path242"
   style="fill-rule:evenodd;fill:#a5954a;fill-opacity:1"
   d="m25.199 9.031c-0.66 0-1.328 0.269-2.008 0.808-0.363 0.321-0.851 0.84-1.472 1.563-0.36 0.437-0.981 0.629-1.86 0.566-0.781-0.039-1.461-0.226-2.039-0.566-0.761-0.441-1.332-0.844-1.711-1.203-0.519-0.52-0.371-0.75 0.45-0.688 0.183 0 0.871 0.161 2.07 0.481 0.582 0.16 1.141 0 1.68-0.481 0.441-0.422 0.933-0.922 1.472-1.5 0.442-0.359 0.989-0.5 1.649-0.422 0.82 0.102 1.511-0.097 2.07-0.597 0.582-0.52 0.453-0.961-0.391-1.32-0.738-0.321-1.199-0.442-1.379-0.36l-0.031 0.176 0.75 0.453c0.383 0.34 0.332 0.598-0.148 0.777-0.321 0.141-0.84 0.231-1.559 0.274-0.562 0.019-0.992 0.16-1.293 0.418-0.5 0.539-0.879 0.941-1.14 1.199-0.457 0.48-0.911 0.742-1.348 0.781-0.359 0.039-0.852-0.011-1.469-0.148-0.742-0.141-1.371-0.211-1.89-0.211-0.301 0-0.891-0.09-1.774-0.27-0.418-0.101-0.719 0.02-0.898 0.36-0.059 0.117-0.301 0.687-0.719 1.711-0.32 0.777-0.59 1.257-0.813 1.437-0.418 0.379-0.898 0.61-1.437 0.692-0.723 0.097-1.16-0.262-1.32-1.082-0.141-0.801 0.109-1.508 0.75-2.129 0.359-0.36 0.918-0.832 1.679-1.411 1.039-1.101 1.391-1.832 1.051-2.191-0.398-0.398-0.648-0.629-0.75-0.687-0.461-0.219-1.07-0.211-1.832 0.027-0.738 0.242-1.559 0.621-2.457 1.141-0.883 0.543-1.449 0.89-1.711 1.05-0.398 0.243-0.969 0.332-1.711 0.27-0.719-0.078-1.129-0.258-1.23-0.539-0.078-0.281 0.082-0.539 0.48-0.781 0.36-0.219 0.852-0.387 1.469-0.508 0.402-0.082 0.851-0.16 1.351-0.242 0.442-0.059 0.911-0.188 1.411-0.391 0.16-0.059 0.73-0.52 1.711-1.379 0.66-0.578 1.308-0.719 1.949-0.418 0.363 0.156 0.972 0.738 1.832 1.738 0.699 0.821 1.508 1.289 2.429 1.41 0.801 0.083 1.551 0.172 2.25 0.27 0.418-0.02 1.059-0.238 1.918-0.66 0.704-0.34 1.332-0.559 1.891-0.66 0.32-0.059 0.52-0.157 0.602-0.297 0.179-0.32 0.808-0.703 1.886-1.141l-1.347-0.39c0.019 0.101-0.032 0.218-0.153 0.359-0.218 0.281-0.636 0.539-1.257 0.781-0.102 0.039-0.711 0.309-1.829 0.809-0.601 0.262-1.152 0.41-1.652 0.453-0.582 0.039-1.211-0.02-1.891-0.184-0.64-0.136-1.168-0.34-1.589-0.597-0.301-0.18-0.68-0.539-1.141-1.082-0.48-0.559-0.75-0.86-0.809-0.899-0.718-0.601-1.55-0.762-2.488-0.48-0.422 0.121-0.902 0.398-1.441 0.84-0.52 0.441-1.051 0.73-1.59 0.871-1.063 0.257-1.844 0.457-2.344 0.597-0.898 0.243-1.539 0.481-1.918 0.719-0.918 0.582-1.359 1.141-1.32 1.684 0.082 0.679 0.699 1.117 1.859 1.316s2.113 0.063 2.852-0.418c0.48-0.32 1.121-0.82 1.922-1.5 0.82-0.558 1.777-0.918 2.879-1.082 1.16-0.16 1.398 0.191 0.718 1.051-0.218 0.281-1.031 1.082-2.429 2.402-0.782 0.738-1.2 1.387-1.262 1.949-0.059 0.622 0.281 1.239 1.023 1.86 0.719 0.582 1.508 0.699 2.368 0.359 0.781-0.32 1.41-0.918 1.89-1.801 0.039-0.058 0.219-0.75 0.539-2.066 0.102-0.422 0.543-0.363 1.321 0.18 1.679 1.136 2.812 1.859 3.39 2.16 1.399 0.719 2.469 0.918 3.211 0.597 0.617-0.277 1.012-0.609 1.172-0.988 0.238-0.519 0.527-0.922 0.867-1.199 1-0.863 2.133-1.121 3.391-0.781 0.379 0.117 0.879-0.063 1.5-0.539 0.621-0.481 0.969-0.711 1.051-0.692 0.359 0.121 0.589 0.141 0.691 0.059 0.039-0.039 0.047-0.09 0.027-0.149 0-0.519-0.148-0.781-0.449-0.781-0.121 0-0.351 0.18-0.691 0.539-0.34 0.403-0.641 0.641-0.899 0.723-0.281 0.058-0.609 0.078-0.988 0.058-0.742-0.039-1.273-0.058-1.594-0.058z"
   inkscape:connector-curvature="0" />&#10;          </g>&#10;        </g>&#10;      </g>&#10;      <g
   id="g244">&#10;        <g
   id="g246">&#10;          <g
   id="g252">&#10;            <path
   id="path260"
   style="fill-rule:evenodd;fill:#f1de91;fill-opacity:1"
   d="m25.02 9.211c-0.661 0-1.329 0.281-2.012 0.839-0.34 0.282-0.828 0.789-1.469 1.532-0.359 0.437-0.98 0.629-1.859 0.57-0.801-0.043-1.481-0.23-2.039-0.57-0.782-0.442-1.352-0.84-1.711-1.203-0.5-0.5-0.352-0.731 0.449-0.688 0.18 0 0.883 0.16 2.101 0.481 0.579 0.16 1.129 0 1.649-0.481 0.441-0.422 0.93-0.922 1.473-1.5 0.457-0.359 1.007-0.5 1.648-0.422 0.82 0.121 1.512-0.078 2.07-0.597 0.582-0.5 0.45-0.93-0.39-1.29-0.739-0.32-1.2-0.453-1.379-0.39l-0.031 0.18 0.75 0.449c0.382 0.34 0.332 0.609-0.149 0.808-0.34 0.141-0.851 0.231-1.531 0.274-0.582 0.015-1.012 0.148-1.289 0.386-0.5 0.543-0.879 0.954-1.141 1.231-0.48 0.48-0.93 0.742-1.351 0.781-0.36 0.02-0.86-0.031-1.5-0.152-0.719-0.16-1.352-0.238-1.887-0.238-0.301 0-0.891-0.09-1.774-0.27-0.418-0.082-0.718 0.039-0.898 0.359-0.039 0.079-0.281 0.649-0.719 1.711-0.32 0.758-0.59 1.239-0.812 1.438-0.418 0.402-0.899 0.633-1.442 0.691-0.718 0.121-1.156-0.238-1.316-1.082-0.141-0.777 0.109-1.48 0.75-2.097 0.359-0.36 0.918-0.832 1.68-1.411 1.019-1.14 1.371-1.871 1.05-2.191-0.359-0.398-0.609-0.641-0.75-0.719-0.461-0.218-1.07-0.211-1.832 0.032-0.738 0.257-1.558 0.64-2.457 1.136-0.882 0.563-1.453 0.922-1.711 1.082-0.402 0.219-0.968 0.301-1.711 0.242-0.718-0.082-1.128-0.261-1.23-0.543-0.078-0.281 0.082-0.539 0.48-0.781 0.36-0.219 0.852-0.386 1.469-0.508 0.403-0.082 0.852-0.16 1.352-0.242 0.441-0.058 0.91-0.187 1.41-0.386 0.18-0.063 0.75-0.512 1.711-1.352 0.66-0.602 1.308-0.75 1.949-0.449 0.359 0.179 0.973 0.758 1.832 1.738 0.699 0.82 1.508 1.289 2.43 1.41 1.48 0.18 2.23 0.27 2.25 0.27 0.398 0 1.039-0.219 1.918-0.66 0.703-0.34 1.332-0.559 1.89-0.661 0.321-0.058 0.52-0.16 0.602-0.296 0.18-0.301 0.809-0.684 1.887-1.141l-1.352-0.359c0.024 0.097-0.027 0.218-0.148 0.359-0.219 0.281-0.641 0.539-1.258 0.777-0.883 0.383-1.492 0.641-1.832 0.781-0.598 0.262-1.149 0.411-1.649 0.454-0.601 0.039-1.23-0.012-1.89-0.153-0.641-0.16-1.172-0.359-1.59-0.601-0.301-0.18-0.68-0.539-1.141-1.078-0.48-0.582-0.75-0.891-0.808-0.93-0.723-0.602-1.551-0.762-2.492-0.481-0.399 0.118-0.879 0.411-1.442 0.872-0.519 0.437-1.051 0.718-1.59 0.839-1.058 0.258-1.84 0.457-2.34 0.598-0.898 0.262-1.539 0.512-1.918 0.75-0.941 0.582-1.378 1.129-1.32 1.652 0.078 0.68 0.699 1.118 1.86 1.321 1.16 0.218 2.109 0.086 2.851-0.391 0.481-0.32 1.121-0.832 1.918-1.531 0.82-0.559 1.781-0.91 2.883-1.051 1.16-0.16 1.398 0.18 0.719 1.02-0.223 0.281-1.032 1.082-2.43 2.402-0.781 0.738-1.199 1.398-1.262 1.98-0.058 0.618 0.281 1.227 1.02 1.828 0.719 0.583 1.511 0.7 2.371 0.36 0.781-0.32 1.41-0.91 1.89-1.77 0.04-0.058 0.219-0.75 0.54-2.07 0.101-0.418 0.539-0.371 1.32 0.152 1.719 1.157 2.851 1.879 3.39 2.157 1.399 0.742 2.469 0.941 3.211 0.601 0.618-0.281 1.008-0.609 1.168-0.988 0.243-0.52 0.532-0.922 0.871-1.199 1.02-0.883 2.149-1.133 3.391-0.754 0.457 0.121 0.899 0.09 1.32-0.09 0.399-0.18 0.668-0.438 0.809-0.777 0.18-0.442 0.559-0.602 1.141-0.481 0-0.5-0.149-0.75-0.45-0.75-0.121 0-0.351 0.18-0.691 0.539-0.34 0.399-0.641 0.629-0.898 0.688-0.282 0.062-0.614 0.082-0.993 0.062-0.738-0.039-1.269-0.058-1.589-0.058z"
   inkscape:connector-curvature="0" />&#10;          </g>&#10;        </g>&#10;      </g>&#10;      <g
   id="g262">&#10;        <g
   id="g264">&#10;          <g
   id="g270">&#10;            <path
   id="path278"
   style="fill-rule:evenodd;fill:#c3b26b;fill-opacity:1"
   d="m25.5 8.308c0.539-0.238 0.91-0.496 1.109-0.777 0.262-0.34 0.313-0.77 0.153-1.289-0.082-0.262-0.184-0.481-0.301-0.66l-0.961-0.512 0.629 1.199c0.281 0.5 0.031 1.02-0.75 1.563-0.18 0.117-0.887 0.5-2.129 1.136-0.559 0.481-0.988 0.774-1.289 0.871-0.481 0.122-1.399-0.179-2.762-0.898-1.277-0.699-2.59-1.051-3.929-1.051h-2.161c-0.297-0.14-0.816-0.082-1.558 0.18-0.86 0.301-1.559 0.441-2.098 0.418-0.703-0.02-1.293-0.27-1.773-0.75-0.078-0.098-0.36-0.5-0.84-1.199-0.141-0.219-0.387-0.52-0.75-0.899-0.258-0.34-0.301-0.722-0.117-1.14 0.179-0.422 0.699-0.782 1.558-1.082 0.418-0.141 0.821-0.239 1.199-0.301-0.281-0.059-1.019 0.062-2.218 0.363-1.582 0.418-2.039 1.117-1.383 2.098 0.164 0.242 0.371 0.461 0.633 0.66 0.218 0.16 0.461 0.48 0.718 0.961 0.442 0.781 1.122 1.359 2.04 1.738 1.121 0.481 2.261 0.442 3.421-0.117 0.36-0.16 0.719-0.262 1.079-0.301 0.203-0.019 0.632-0.031 1.289-0.031 1.543 0 2.621 0.152 3.242 0.453 0.258 0.098 0.871 0.367 1.828 0.809 0.922 0.379 1.613 0.57 2.07 0.57 0.52 0 0.961-0.102 1.321-0.301 0.218-0.101 0.64-0.398 1.261-0.898 0.321-0.262 0.809-0.532 1.469-0.813z"
   inkscape:connector-curvature="0" />&#10;          </g>&#10;        </g>&#10;      </g>&#10;      <g
   id="g280">&#10;        <g
   id="g282">&#10;          <g
   id="g288">&#10;            <path
   id="path296"
   style="fill-rule:evenodd;fill:#e9d892;fill-opacity:1"
   d="m25.352 8.609c0.519-0.238 0.886-0.5 1.109-0.777 0.238-0.344 0.281-0.77 0.117-1.293-0.078-0.258-0.18-0.481-0.297-0.66l-0.961-0.54 0.629 1.2c0.281 0.523 0.031 1.05-0.75 1.59-0.199 0.14-0.91 0.519-2.129 1.14-0.558 0.481-0.992 0.762-1.289 0.84-0.48 0.121-1.402-0.18-2.761-0.898-1.282-0.68-2.59-1.02-3.93-1.02-1.399 0-2.121-0.012-2.16-0.031-0.301-0.141-0.821-0.078-1.559 0.179-0.879 0.301-1.578 0.454-2.101 0.454-0.7-0.02-1.278-0.282-1.739-0.782-0.261-0.261-0.551-0.648-0.871-1.172-0.14-0.218-0.39-0.519-0.75-0.898-0.238-0.359-0.269-0.75-0.09-1.172 0.18-0.418 0.692-0.769 1.532-1.051 0.418-0.156 0.82-0.269 1.199-0.328-0.281-0.058-1.02 0.071-2.219 0.391-1.562 0.418-2.023 1.121-1.383 2.098 0.16 0.222 0.371 0.433 0.629 0.632 0.223 0.18 0.461 0.508 0.723 0.989 0.437 0.781 1.121 1.359 2.039 1.742 1.121 0.457 2.262 0.418 3.422-0.121 0.359-0.18 0.718-0.282 1.078-0.301 0.14-0.02 0.57-0.031 1.289-0.031 1.519 0 2.601 0.14 3.242 0.422 0.258 0.101 0.871 0.371 1.828 0.808 0.922 0.383 1.621 0.57 2.102 0.57 0.519 0 0.949-0.089 1.289-0.269 0.238-0.117 0.672-0.43 1.289-0.93 0.32-0.261 0.812-0.519 1.473-0.781z"
   inkscape:connector-curvature="0" />&#10;          </g>&#10;        </g>&#10;      </g>&#10;      <g
   id="g298">&#10;        <g
   id="g300">&#10;          <g
   id="g306">&#10;            <path
   id="path314"
   style="fill-rule:evenodd;fill:#e7d17b;fill-opacity:1"
   d="m25.949 6.539c-0.418 0.64-1 1.402-1.738 2.281-0.383 0.422-0.672 0.68-0.871 0.781-0.301 0.16-0.649 0.129-1.051-0.09-0.519-0.3-0.969-0.648-1.348-1.05-0.461-0.5-0.664-0.961-0.601-1.379 0.238-1.481 0.359-2.41 0.359-2.793 0-0.957-1.558-1.379-4.679-1.258-0.282 0-0.329 0.512-0.153 1.531 0.203 1.141-0.07 1.899-0.808 2.277-0.762 0.383-1.442 0.372-2.039-0.027-0.883-0.582-1.461-0.89-1.743-0.93-0.738-0.14-1.429-0.41-2.07-0.812-0.578-0.34-0.98-0.688-1.199-1.051-0.262-0.437-0.59-0.609-0.988-0.508 0.078 0.219 0.218 0.469 0.418 0.75 0.398 0.559 0.878 0.981 1.441 1.258 0.238 0.102 0.949 0.383 2.129 0.84 0.82 0.344 1.379 0.633 1.68 0.871 0.359 0.32 0.851 0.5 1.468 0.539 0.621 0.02 1.153-0.109 1.59-0.387 0.844-0.562 1.262-1.441 1.262-2.64 0-0.66 0.012-1.012 0.031-1.051 0.059-0.18 0.359-0.289 0.899-0.332 0.679-0.039 1.261 0.09 1.738 0.391 0.543 0.339 0.722 0.789 0.543 1.351-0.301 0.719-0.5 1.238-0.602 1.559-0.14 0.543-0.051 1.039 0.274 1.5 0.515 0.801 1.199 1.41 2.039 1.832 1.097 0.558 1.949 0.398 2.547-0.481 0.621-0.882 1.043-1.441 1.261-1.679 0.059-0.063 0.219-0.192 0.481-0.391 0.261-0.18 0.39-0.652 0.39-1.41l-0.418-0.375c0.09 0.211 0.012 0.508-0.242 0.883z"
   inkscape:connector-curvature="0" />&#10;          </g>&#10;        </g>&#10;      </g>&#10;      <path
   id="path316"
   style="fill-rule:evenodd;fill:#ffffff"
   d="m9.27 13.679c0.179 0 0.179-0.058 0-0.179-0.418-0.239-0.668-0.391-0.75-0.45-0.399-0.281-0.598-0.902-0.598-1.859 0-0.203-0.063-0.191-0.184 0.027-0.097 0.223-0.14 0.52-0.117 0.903 0.02 0.418 0.219 0.789 0.598 1.109 0.34 0.301 0.691 0.449 1.051 0.449z"
   inkscape:connector-curvature="0" />&#10;      <path
   id="path318"
   style="fill-rule:evenodd;fill:#ffffff"
   d="m2.641 9.121c0.437 0 0.82-0.071 1.14-0.211 0.321-0.141 0.36-0.211 0.117-0.211-0.078 0-0.406-0.082-0.988-0.238-0.558-0.141-0.969-0.2-1.23-0.184-0.36 0.02-0.379 0.16-0.059 0.422 0.32 0.281 0.66 0.422 1.02 0.422z"
   inkscape:connector-curvature="0" />&#10;      <path
   id="path320"
   style="fill-rule:evenodd;fill:#ffffff"
   d="m12.48 11.672c0.18-0.524 0.211-0.782 0.09-0.782-0.14 0-0.25 0.168-0.332 0.512-0.058 0.297-0.058 0.488 0 0.566 0.063 0.063 0.141-0.039 0.242-0.296z"
   inkscape:connector-curvature="0" />&#10;      <path
   id="path322"
   style="fill-rule:evenodd;fill:#ffffff"
   d="m15.211 13.558c0.258-0.019 0.457-0.117 0.598-0.297 0.121-0.183 0.043-0.222-0.239-0.121-0.179 0.059-0.461 0.071-0.84 0.032-0.382-0.043-0.609-0.043-0.691 0-0.16 0.039-0.07 0.117 0.27 0.238 0.343 0.121 0.64 0.172 0.902 0.148z"
   inkscape:connector-curvature="0" />&#10;      <path
   id="path324"
   style="fill-rule:evenodd;fill:#ffffff"
   d="m20.52 12.961c0.261-0.082 0.378-0.18 0.359-0.301-0.02-0.121-0.16-0.129-0.418-0.031-0.184 0.082-0.512 0.043-0.992-0.118-0.438-0.14-0.707-0.179-0.809-0.121-0.16 0.098 0.039 0.239 0.598 0.418 0.543 0.18 0.961 0.231 1.262 0.153z"
   inkscape:connector-curvature="0" />&#10;      <path
   id="path326"
   style="fill-rule:evenodd;fill:#ffffff"
   d="m14.492 9.961c0.356 0.101 0.488 0.027 0.387-0.211-0.098-0.243-0.328-0.36-0.688-0.36-0.343 0-0.421 0.078-0.242 0.239 0.141 0.16 0.321 0.273 0.543 0.332z"
   inkscape:connector-curvature="0" />&#10;      <path
   id="path328"
   style="fill-rule:evenodd;fill:#ffffff"
   d="m26.879 9.871c0.5-0.02 0.613-0.102 0.332-0.242-0.281-0.118-0.551-0.168-0.813-0.149-0.218 0.02-0.25 0.09-0.089 0.211 0.14 0.141 0.332 0.199 0.57 0.18z"
   inkscape:connector-curvature="0" />&#10;      <path
   id="path330"
   style="fill-rule:evenodd;fill:#ffffff"
   d="m10.051 9.3c0.398-0.082 0.488-0.14 0.269-0.179-0.218-0.043-0.48-0.032-0.781 0.027-0.199 0.043-0.539-0.008-1.019-0.148-0.34-0.082-0.469-0.09-0.391-0.032 0.164 0.141 0.453 0.243 0.871 0.301 0.422 0.082 0.77 0.09 1.051 0.031z"
   inkscape:connector-curvature="0" />&#10;      <path
   id="path332"
   style="display:inline;fill:#ffffff;fill-rule:evenodd"
   d="m 4.98,10.769 c 0.282,0.063 0.461,0.07 0.54,0.031 0.082,-0.039 0,-0.101 -0.239,-0.179 C 5.121,10.558 4.91,10.379 4.652,10.078 4.43,9.839 4.281,9.761 4.199,9.839 c -0.097,0.102 -0.027,0.27 0.211,0.512 0.219,0.238 0.41,0.379 0.57,0.418 z"
   inkscape:connector-curvature="0" />&#10;      <path
   id="path334"
   style="display:inline;fill:#ffffff;fill-rule:evenodd"
   d="M 15.422,7.32 C 15.578,7.238 15.762,7.101 15.961,6.902 16.141,6.679 16.25,6.48 16.289,6.3 16.348,6 16.16,6.14 15.719,6.718 15.602,6.902 15.359,7.039 15,7.14 14.621,7.257 14.41,7.339 14.371,7.379 14.27,7.48 14.34,7.531 14.578,7.531 14.84,7.511 15.121,7.441 15.422,7.32 Z"
   inkscape:connector-curvature="0" />&#10;      <path
   id="path336"
   style="fill-rule:evenodd;fill:#ffffff"
   d="m17.672 7.082c0.359-0.02 0.48-0.09 0.359-0.211-0.121-0.102-0.293-0.11-0.511-0.032-0.18 0.083-0.243 0.141-0.18 0.18 0.039 0.063 0.152 0.082 0.332 0.063z"
   inkscape:connector-curvature="0" />&#10;      <path
   id="path338"
   style="fill-rule:evenodd;fill:#ffffff"
   d="m13.41 6.332c0.32 0.199 0.27 0.039-0.152-0.481-0.418-0.5-0.68-0.711-0.778-0.633-0.101 0.082-0.011 0.262 0.27 0.543 0.219 0.239 0.441 0.43 0.66 0.571z"
   inkscape:connector-curvature="0" />&#10;      <path
   id="path340"
   style="fill-rule:evenodd;fill:#ffffff"
   d="m21.629 9.66c0.262 0.121 0.25 0.051-0.027-0.211-0.422-0.379-0.711-0.641-0.872-0.781-0.199-0.2-0.351-0.45-0.453-0.75-0.117-0.379-0.187-0.579-0.207-0.598-0.121-0.242-0.152-0.051-0.09 0.57 0.02 0.278 0.258 0.629 0.719 1.051 0.383 0.379 0.692 0.617 0.93 0.719z"
   inkscape:connector-curvature="0" />&#10;      <path
   id="path342"
   style="fill-rule:evenodd;fill:#ffffff"
   d="m24.66 7.14c0.02-0.078-0.09-0.07-0.332 0.032-0.316 0.136-0.57 0.218-0.75 0.238-0.98 0.058-1.578 0.172-1.801 0.332-0.078 0.058-0.039 0.078 0.121 0.058 0.301-0.058 0.551-0.082 0.75-0.058 0.422 0.019 0.86-0.051 1.321-0.211 0.441-0.141 0.672-0.27 0.691-0.391z"
   inkscape:connector-curvature="0" />&#10;      <path
   id="path344"
   style="fill-rule:evenodd;fill:#ffd529;fill-opacity:1"
   d="m23.91 5.582c-0.219 0-0.281 0.07-0.18 0.207 0.098 0.16 0.258 0.242 0.481 0.242 0.699-0.02 0.898-0.102 0.598-0.242-0.278-0.137-0.579-0.207-0.899-0.207z"
   inkscape:connector-curvature="0" />&#10;      &#10;      <path
   id="path348"
   style="fill-rule:evenodd;fill:#efdfa1"
   d="m4.051 7.8c0.32 0 0.59-0.058 0.808-0.179 0.203-0.121 0.27-0.223 0.211-0.301-0.039-0.082-0.258-0.141-0.66-0.18-0.398-0.043-0.699-0.031-0.898 0.028-0.219 0.043-0.262 0.16-0.121 0.363 0.121 0.18 0.339 0.269 0.66 0.269z"
   inkscape:connector-curvature="0" />&#10;      <path
   id="path350"
   style="fill-rule:evenodd;fill:#efdfa1"
   d="m9.27 8.281c0.382 0.019 0.531-0.063 0.453-0.242-0.102-0.137-0.293-0.239-0.571-0.297-0.3-0.121-0.523-0.203-0.66-0.242-0.222-0.082-0.433-0.09-0.633-0.032-0.218 0.082-0.129 0.231 0.27 0.454 0.402 0.218 0.781 0.339 1.141 0.359z"
   inkscape:connector-curvature="0" />&#10;      <path
   id="path352"
   style="fill-rule:evenodd;fill:#ffffff"
   d="m11.25 7.769c0.301-0.359 0.34-0.508 0.121-0.449-0.242 0.059-0.43 0.191-0.57 0.391-0.121 0.16-0.133 0.269-0.031 0.328 0.121 0.062 0.281-0.028 0.48-0.27z"
   inkscape:connector-curvature="0" />&#10;      <path
   id="path354"
   style="fill-rule:evenodd;fill:#ffffff"
   d="m9.238 6.48c0.641-0.16 0.981-0.281 1.024-0.359 0.039-0.039-0.114-0.071-0.453-0.09-0.278-0.039-0.598 0.019-0.961 0.18-0.36 0.14-0.586 0.289-0.688 0.449-0.058 0.14 0.008 0.172 0.211 0.09 0.539-0.18 0.828-0.27 0.867-0.27z"
   inkscape:connector-curvature="0" />&#10;      &#10;      <path
   id="path358"
   style="fill-rule:evenodd;fill:#ffffff"
   d="m14.309 11.55c0.539-0.082 0.793-0.179 0.75-0.3-0.02-0.118-0.161-0.18-0.418-0.18-0.219 0-0.481 0.031-0.782 0.09-0.339 0.058-0.539 0.129-0.597 0.211-0.102 0.097-0.043 0.168 0.179 0.211 0.239 0.039 0.528 0.027 0.868-0.032z"
   inkscape:connector-curvature="0" />&#10;      <path
   id="path360"
   style="fill-rule:evenodd;fill:#efdfa1"
   d="m17.191 10.558c1.118 0 1.438-0.058 0.957-0.179-0.617-0.161-1.027-0.231-1.226-0.211-0.223 0.019-0.293 0.089-0.215 0.211 0.102 0.121 0.262 0.179 0.484 0.179z"
   inkscape:connector-curvature="0" />&#10;      <path
   id="path362"
   style="fill-rule:evenodd;fill:#ffffff"
   d="m17.789 9.269c0.402 0.16 0.5 0.153 0.301-0.027-0.199-0.16-0.461-0.32-0.781-0.481-0.258-0.121-0.668-0.199-1.231-0.242-0.5-0.039-0.871-0.039-1.109 0-0.18 0.02-0.071 0.09 0.332 0.211 0.398 0.102 0.758 0.149 1.078 0.149 0.281 0 0.531 0.043 0.75 0.121 0.121 0.039 0.34 0.129 0.66 0.269z"
   inkscape:connector-curvature="0" />&#10;      &#10;      <path
   id="path366"
   style="display:inline;fill:#efdfa1;fill-rule:evenodd"
   d="M 15.48,4.8 C 15.82,5 15.789,4.742 15.391,4.019 15.309,3.879 15.129,3.8 14.852,3.781 14.59,3.761 14.391,3.82 14.25,3.961 c -0.098,0.101 0,0.23 0.301,0.39 0.199,0.078 0.508,0.231 0.929,0.449 z"
   inkscape:connector-curvature="0" />&#10;      &#10;      <path
   id="path370"
   style="fill-rule:evenodd;fill:#ffffff"
   d="m8.879 5.519c0.281 0.059 0.273-0.051-0.027-0.328-0.282-0.262-0.532-0.441-0.75-0.543-0.18-0.059-0.153 0.063 0.089 0.359 0.239 0.301 0.469 0.473 0.688 0.512z"
   inkscape:connector-curvature="0" />&#10;      <path
   id="path372"
   style="fill-rule:evenodd;fill:#ffffff"
   d="m22.23 10.41c0.879-0.258 1.399-0.649 1.559-1.168-0.16 0.18-0.551 0.398-1.168 0.66-0.66 0.258-1 0.398-1.019 0.418-0.102 0.059-0.071 0.098 0.089 0.121 0.161 0.039 0.34 0.027 0.539-0.031z"
   inkscape:connector-curvature="0" />&#10;      &#10;      &#10;      <path
   id="path378"
   style="display:inline;fill:#ffffff;fill-rule:evenodd"
   d="m 10.922,11.879 c 0.18,0.062 0.207,0.011 0.086,-0.149 -0.117,-0.141 -0.289,-0.269 -0.508,-0.391 -0.539,-0.32 -0.961,-0.449 -1.262,-0.39 -0.16,0.019 -0.14,0.082 0.063,0.183 0.179,0.079 0.367,0.129 0.57,0.149 0.117,0 0.27,0.082 0.449,0.238 0.2,0.18 0.399,0.301 0.602,0.36 z"
   inkscape:connector-curvature="0" />&#10;      <path
   id="path380"
   style="display:inline;fill:#ffffff;fill-rule:evenodd"
   d="m 27.152,8.371 h 0.868 c 0.042,-0.102 0.058,-0.25 0.058,-0.453 0,-1.457 -1.367,-2.7 -4.109,-3.719 C 21.23,3.179 17.922,2.672 14.039,2.672 10.16,2.672 6.848,3.179 4.109,4.199 1.371,5.218 0,6.461 0,7.918 L 0.059,8.371 H 1.078 V 8.129 C 1.078,6.832 2.352,5.73 4.891,4.832 7.43,3.91 10.5,3.449 14.102,3.449 c 3.621,0 6.699,0.461 9.238,1.383 2.543,0.898 3.812,2 3.812,3.297 z"
   inkscape:connector-curvature="0" />&#10;      <path
   id="path382"
   style="display:inline;fill:#d4aa00;fill-rule:evenodd;fill-opacity:1"
   d="M 7.449,12.039 C 7.246,11.964 7.09,11.839 6.973,11.664 l 0.953,0.113 C 7.742,11.89 7.586,11.98 7.449,12.039 Z m 1.11,-1.2 C 8.578,10.824 9,10.64 9.824,10.289 10.5,10 10.809,9.789 10.742,9.648 10.66,9.5 10.203,9.382 9.379,9.308 8.621,9.277 8.094,9.23 7.797,9.172 7.289,9.062 6.91,8.75 6.656,8.234 6.613,8.14 6.605,7.867 6.625,7.41 6.645,7.062 6.527,6.8 6.273,6.632 5.684,6.25 5.387,6.406 5.387,7.089 5.387,7.226 5.559,7.57 5.895,8.117 6.062,8.379 5.844,8.675 5.23,9.011 4.512,9.254 4.004,9.461 3.707,9.629 3.16,9.945 3.348,10.25 4.277,10.543 4.492,10.601 5.02,10.519 5.863,10.289 6.582,10.093 7.047,10.132 7.258,10.406 7.066,10.91 6.93,11.328 6.844,11.664 c -0.114,0.492 0.086,0.617 0.601,0.375 0.063,0.023 0.125,0.043 0.192,0.058 0.297,0.059 0.593,0.032 0.886,-0.093 -0.211,-0.563 -0.199,-0.95 0.036,-1.165 z"
   inkscape:connector-curvature="0" />&#10;      &#10;      <path
   id="path386"
   style="display:inline;fill:#d4aa00;fill-rule:evenodd;fill-opacity:1"
   d="m 19.332,10.886 c -0.105,0.5 0.191,0.77 0.887,0.797 0.527,0.016 1.035,-0.086 1.523,-0.304 0.41,0.117 0.781,0.234 1.11,0.351 0.21,0.031 0.496,-0.129 0.855,-0.48 0.395,-0.688 0.574,-0.981 0.539,-0.879 0.043,-0.117 0.184,-0.211 0.41,-0.285 0.125,-0.047 0.125,-0.192 0,-0.438 C 24.402,9.132 24.035,9.011 23.547,9.285 23.039,9.726 22.691,10 22.5,10.109 c -0.422,0.242 -0.918,0.441 -1.488,0.594 -0.614,0.152 -1.172,0.211 -1.68,0.183 z"
   inkscape:connector-curvature="0" />&#10;      <path
   id="path388"
   style="display:inline;fill:#d4aa00;fill-opacity:1;fill-rule:evenodd"
   d="m 14.422,7.433 c -0.91,0.063 -1.449,0.137 -1.617,0.231 -0.426,0.258 -0.285,0.508 0.41,0.754 0.594,0.195 1.152,0.289 1.68,0.273 0.253,0 0.742,-0.09 1.457,-0.273 0.464,-0.11 0.878,-0.055 1.238,0.16 0.379,0.457 0.652,0.754 0.824,0.89 0.231,0.196 0.684,0.153 1.359,-0.125 L 19.172,9.605 C 20.059,9.406 20.387,9.14 20.156,8.804 19.754,8.195 19.574,7.812 19.617,7.66 19.66,7.507 20.027,7.273 20.727,6.953 21.297,6.695 21.445,6.375 21.172,5.992 20.957,5.656 20.559,5.605 19.965,5.832 19.289,6.168 18.816,6.359 18.539,6.406 17.715,6.406 17.125,6.422 16.766,6.449 16.133,6.511 15.973,6.8 16.289,7.32 16.184,7.336 15.562,7.371 14.422,7.433 Z"
   inkscape:connector-curvature="0" />&#10;      <path
   id="path390"
   style="fill-rule:evenodd;fill:#d4aa00;fill-opacity:1"
   d="m23.77 8.578c0.296-0.063 0.515-0.184 0.664-0.367l0.019-0.024-0.683 0.391zm0.695-0.426c0.101-0.168 0.121-0.363 0.066-0.582-0.551-0.031-1.109 0.008-1.679 0.113-0.786 0.168-1.122 0.43-1.016 0.778 0.105 0.351 0.516 0.421 1.234 0.207 0.364-0.114 0.828-0.286 1.395-0.516z"
   inkscape:connector-curvature="0" />&#10;      <path
   id="path392"
   style="fill-rule:evenodd;fill:#d4aa00;fill-opacity:1"
   d="m20.902 4.738c0.043-0.066 0.09-0.141 0.141-0.231-0.398-0.335-1.148-0.562-2.25-0.683-1.016-0.11-1.828-0.094-2.438 0.047 0.145 0.074 0.528 0.363 1.141 0.867 0.442 0.367 0.844 0.578 1.203 0.641 0.508 0.089 0.992 0.015 1.457-0.231 0.188-0.101 0.434-0.238 0.746-0.41z"
   inkscape:connector-curvature="0" />&#10;      <path
   id="path394"
   style="display:inline;fill:#d4aa00;fill-opacity:1;fill-rule:evenodd"
   d="m 8.4960939,5.8886869 c 0.613,-0.121 1.121,-0.082 1.5230001,0.113 0.043,0.016 0.359,0.352 0.949,1.008 0.34,0.379 0.782,0.426 1.332,0.137 0.379,-0.231 0.379,-0.488 0,-0.778 -0.23,-0.152 -0.625,-0.406 -1.172,-0.753 0.297,-0.504 0.508,-0.793 0.633,-0.872 0.168,-0.089 0.602,-0.144 1.301,-0.16 1.078,-0.027 1.656,-0.05 1.742,-0.066 0.614,-0.106 0.879,-0.426 0.793,-0.961 -2.597,-0.031 -4.554,-0.031 -5.8630001,0 -0.824,0.031 -1.637,0.176 -2.441,0.434 -1.133,0.367 -1.844,0.593 -2.137,0.687 0.5,-0.137 0.883,-0.019 1.156,0.344 0.422,0.547 0.719,0.851 0.887,0.914 0.23,0.09 0.664,0.074 1.297,-0.047 z"
   inkscape:connector-curvature="0" />&#10;      <path
   id="path396"
   style="fill-rule:evenodd;fill:#e3bd26;fill-opacity:1"
   d="m11.25 5.949h-0.156c0.211 0.457 0.621 0.648 1.234 0.57 0.168-0.531-0.031-0.922-0.601-1.164 0.062-0.031 0.16-0.121 0.285-0.277 0.148-0.137 0.261-0.227 0.347-0.274-0.336-0.242-0.769-0.16-1.297 0.25-0.531 0.414-0.464 0.711 0.188 0.895z"
   inkscape:connector-curvature="0" />&#10;      <path
   id="path398"
   style="fill-rule:evenodd;fill:#ffd529;fill-opacity:1"
   d="m8.082 5.261-0.156-0.113c0.125-0.016 0.386-0.121 0.793-0.32-0.34-0.336-0.625-0.403-0.856-0.207-0.234 0.199-0.16 0.414 0.219 0.64z"
   inkscape:connector-curvature="0" />&#10;      <path
   id="path400"
   style="display:inline;fill:#e3bd26;fill-rule:evenodd;fill-opacity:1"
   d="M 17.59,7.777 H 17.559 C 17.621,7.519 17.961,7.191 18.57,6.793 19.121,6.461 19.617,6.222 20.062,6.086 19.66,5.918 19.176,5.925 18.605,6.109 17.887,6.32 17.391,6.422 17.113,6.406 17.199,5.828 17.062,5.597 16.703,5.718 16.344,5.828 16.07,6.07 15.879,6.449 15.73,6.953 15.613,7.265 15.531,7.386 15.426,7.539 15,7.679 14.262,7.8 14.41,8.152 14.895,8.257 15.723,8.121 16.164,8.027 16.785,7.914 17.59,7.777 Z"
   inkscape:connector-curvature="0" />&#10;      <path
   id="path402"
   style="fill-rule:evenodd;fill:#ffd529;fill-opacity:1"
   d="m19.652 8.347-0.636 0.117c0.972-0.031 1.207-0.23 0.699-0.593-0.149-0.125-0.285-0.157-0.414-0.094-0.168 0.078-0.211 0.266-0.125 0.57 0.105 0.016 0.262 0.016 0.476 0z"
   inkscape:connector-curvature="0" />&#10;      <path
   id="path404"
   style="fill-rule:evenodd;fill:#e3bd26;fill-opacity:1"
   d="m20.664 10.703c-0.316 0.105-0.551 0.242-0.699 0.41 0.359 0.121 0.824 0.144 1.394 0.07 0.219-0.031 0.493-0.066 0.825-0.113 0.011-0.055 0.043-0.148 0.097-0.277 0.063-0.153 0.082-0.274 0.063-0.364 0.633-0.14 1.086-0.445 1.363-0.918 0.25-0.484-0.055-0.562-0.918-0.226-0.234 0.078-0.457 0.242-0.668 0.504-0.254 0.304-0.453 0.5-0.601 0.593-0.149 0.09-0.434 0.2-0.856 0.321z"
   inkscape:connector-curvature="0" />&#10;      <path
   id="path406"
   style="fill-rule:evenodd;fill:#ffd529;fill-opacity:1"
   d="m11.918 10.578c0.144 0.051 0.348 0.07 0.602 0.054l-0.239-0.031c0.043-0.015 0.082-0.031 0.11-0.058 0.129-0.106 0.105-0.297-0.063-0.571-0.57 0.016-0.801 0.137-0.695 0.364 0.031 0.082 0.086 0.148 0.172 0.195l-0.078-0.012c0.066 0.028 0.128 0.047 0.191 0.059z"
   inkscape:connector-curvature="0" />&#10;      <path
   id="path408"
   style="display:inline;fill:#e3bd26;fill-opacity:1;fill-rule:evenodd"
   d="M 9.762,10.382 C 10.141,10.214 10.828,9.957 11.824,9.605 11.379,9.437 10.754,9.285 9.953,9.148 9.086,8.98 8.453,8.836 8.051,8.714 7.48,8.531 7.027,8.058 6.688,7.297 6.352,6.566 6.023,6.164 5.707,6.086 5.641,7.074 5.77,7.824 6.086,8.328 c 0.402,0.609 1.16,1.011 2.281,1.211 -0.551,0.394 -0.855,0.875 -0.918,1.437 0.129,0 0.309,-0.027 0.539,-0.09 0.114,0.297 0.2,0.516 0.254,0.664 0.36,-0.503 0.863,-0.894 1.52,-1.168 z"
   inkscape:connector-curvature="0" />&#10;      <path
   id="path410"
   style="fill-rule:evenodd;fill:#ffd529;fill-opacity:1"
   d="m10.98 12.336-0.046 0.011c0.57-0.043 0.855-0.242 0.855-0.593-0.019-0.336-0.293-0.434-0.824-0.297-0.508 0.136-0.664 0.359-0.473 0.664 0.106 0.164 0.27 0.234 0.488 0.215z"
   inkscape:connector-curvature="0" />&#10;      <path
   id="path412"
   style="fill-rule:evenodd;fill:#e3bd26;fill-opacity:1"
   d="m22.977 7.433-0.317 0.903c0.039-0.082 0.262-0.305 0.668-0.672 0.274-0.246 0.293-0.465 0.063-0.664-0.192-0.2-0.559-0.231-1.11-0.09-0.593 0.195-0.992 0.332-1.207 0.41 0.086 0.441 0.371 0.672 0.856 0.684 0.465 0.015 0.816-0.172 1.047-0.571z"
   inkscape:connector-curvature="0" />&#10;      <path
   id="path414"
   style="fill:#ffd529;fill-rule:evenodd;fill-opacity:1"
   d="m 12.747875,8.8175303 -0.793,0.113 c 0.277,0.246 0.613,0.313 1.016,0.207 0.402,-0.105 0.515,-0.312 0.347,-0.617 -0.105,-0.183 -0.433,-0.351 -0.98,-0.504 -0.383,-0.105 -0.774,-0.175 -1.172,-0.203 -0.086,0.336 0.039,0.602 0.379,0.801 0.336,0.18 0.738,0.25 1.203,0.203 z"
   inkscape:connector-curvature="0" />&#10;      <path
   id="path416"
   style="fill-rule:evenodd;fill:#ffd529;fill-opacity:1"
   d="m17.605 10.863c0.481-0.09 0.833-0.129 1.063-0.117 0-0.332-0.211-0.547-0.633-0.637-0.426-0.094-0.836-0.055-1.238 0.113 0.055 0.387 0.324 0.598 0.808 0.641z"
   inkscape:connector-curvature="0" />&#10;      <path
   id="path418"
   style="fill-rule:evenodd;fill:#ffd529;fill-opacity:1"
   d="m15.371 5.718h-0.238c0.265-0.023 0.523-0.093 0.777-0.203 0.445-0.199 0.625-0.465 0.539-0.801-1.14 0.059-1.984 0.29-2.535 0.684 0.148 0.215 0.348 0.344 0.602 0.391 0.273 0.058 0.558 0.039 0.855-0.071z"
   inkscape:connector-curvature="0" />&#10;      <path
   id="path420"
   style="display:inline;fill:#e3bd26;fill-rule:evenodd;fill-opacity:1"
   d="M 8.398,7.089 8.082,7.207 C 8.949,7.312 9.254,7.144 9,6.703 8.746,6.277 8.281,6.183 7.605,6.429 c -0.082,0.41 0.18,0.633 0.793,0.66 z"
   inkscape:connector-curvature="0" />&#10;      <path
   id="path422"
   style="display:inline;fill:#e3bd26;fill-rule:evenodd;fill-opacity:1"
   d="M 17.035,12.793 C 17.008,12.8 16.98,12.8 16.957,12.804 h 0.207 c -0.043,0 -0.086,-0.004 -0.129,-0.011 0.414,-0.039 1.219,-0.075 2.426,-0.102 0.019,-0.383 -0.445,-0.648 -1.395,-0.801 -1.183,-0.195 -1.921,-0.41 -2.218,-0.64 -0.125,0.414 -0.043,0.777 0.254,1.097 0.226,0.258 0.535,0.407 0.933,0.446 z"
   inkscape:connector-curvature="0" />&#10;      &#10;      &#10;      &#10;      &#10;      &#10;      &#10;      &#10;      &#10;      &#10;      &#10;      &#10;      &#10;      &#10;      &#10;      &#10;      &#10;      &#10;      &#10;      &#10;      &#10;      &#10;      &#10;      &#10;      &#10;      &#10;      &#10;      &#10;      &#10;      &#10;      &#10;      &#10;      &#10;      &#10;      &#10;      &#10;      &#10;      &#10;      &#10;      &#10;      &#10;      &#10;      &#10;      &#10;      &#10;      &#10;      &#10;      &#10;      &#10;      &#10;      &#10;      &#10;      &#10;      &#10;      &#10;      &#10;      &#10;      &#10;      &#10;    <path
   id="path3644"
   style="display:inline;fill:#865f24;fill-rule:evenodd;stroke-width:0.910665"
   d="m 16.189839,9.9712513 c -0.06653,-0.121256 -0.231437,-0.269949 -0.487236,-0.446079 -0.259547,-0.193832 -0.566881,-0.366422 -0.918253,-0.518655 -0.329821,-0.152233 -0.552825,-0.22481 -0.666201,-0.217729 -0.168659,0.0097 -0.773019,0.314202 -1.815891,0.901894 -0.326073,0.148692 -0.534085,0.245166 -0.625911,0.286764 -0.142423,0.07966 -0.274538,0.1796707 -0.399158,0.2938457 -0.186462,0.211533 -0.299838,0.342525 -0.332633,0.398284 -0.06278,0.127452 -0.04404,0.269064 0.06184,0.421297 0.149919,0.238971 0.468496,0.4567 0.955732,0.650532 0.58562,0.241626 1.075667,0.269063 1.471078,0.07877 0.545329,-0.252246 1.010077,-0.438998 1.394244,-0.553173 0.790821,-0.217729 1.245263,-0.518655 1.365198,-0.898353 0.06278,-0.162854 0.05903,-0.297385 -0.0028,-0.3973987 z"
   inkscape:connector-curvature="0" /><path
   id="path3646"
   style="display:inline;fill:#6b4c1c;fill-rule:evenodd;stroke-width:0.910665"
   d="m 10.944556,10.669576 c -0.06278,0.127452 -0.04404,0.269064 0.06184,0.421297 0.08808,0.134532 0.260484,0.273489 0.512535,0.415101 l 0.560321,-0.0655 1.73812,-0.792143 0.274539,-1.8321097 c -0.164911,0.03098 -0.760838,0.321283 -1.789655,0.874456 -0.326073,0.148693 -0.534085,0.245167 -0.625911,0.286765 -0.142423,0.07966 -0.274538,0.1796707 -0.399158,0.2938457 -0.186462,0.211533 -0.299838,0.342525 -0.332633,0.398284 z"
   inkscape:connector-curvature="0" /><path
   id="path3648"
   style="display:inline;fill:#996c29;fill-rule:evenodd;stroke-width:0.910665"
   d="m 10.904266,10.858983 0.102132,0.23189 c 0.149919,0.238971 0.468496,0.4567 0.955732,0.650532 0.58562,0.241626 1.075667,0.269063 1.471078,0.07877 0.545329,-0.252246 1.010077,-0.438998 1.394244,-0.553173 0.516283,-0.145152 0.893891,-0.331903 1.138445,-0.562909 L 14.3702,9.7809593 14.077858,9.6703253 c -0.58562,0.4142157 -1.109399,0.6912447 -1.566651,0.8328567 -0.424457,0.121255 -0.95948,0.238971 -1.606941,0.355801 z"
   inkscape:connector-curvature="0" /><path
   id="path3650"
   style="display:inline;fill:#bd8533;fill-rule:evenodd;stroke-width:0.910665"
   d="m 13.308588,11.322763 c 0.120872,0.100014 0.147107,0.159314 0.07309,0.183211 -0.240807,0.05133 -0.505039,-0.06195 -0.789884,-0.342525 -0.10307,-0.117715 -0.205202,-0.200027 -0.300775,-0.245166 -0.09838,-0.04514 -0.134927,-0.0416 -0.113376,0.0071 0.117124,0.276144 0.311081,0.459355 0.581872,0.546092 0.270791,0.121256 0.285783,0.190292 0.04404,0.207108 l -0.779584,-0.234564 c -0.369175,-0.152233 -0.607171,-0.28411 -0.71024,-0.401825 l 0.09557,0.128336 c 0.164911,0.162854 0.332633,0.293846 0.508787,0.386779 0.391663,0.184096 0.717736,0.266408 0.981031,0.249591 0.186462,0.0035 0.44226,-0.07612 0.768334,-0.242511 0.197705,-0.12037 0.523778,-0.252247 0.984778,-0.390319 0.182714,-0.06904 0.391663,-0.128336 0.633407,-0.17967 0.09089,-0.0071 0.182714,-0.0416 0.274539,-0.100899 0.08714,-0.07523 0.127431,-0.134532 0.123683,-0.16905 -0.131179,-0.0239 -0.240807,-0.0071 -0.332632,0.05222 -0.102133,0.114175 -0.259547,0.152233 -0.468496,0.114175 -0.09557,-0.01062 -0.215509,0.01328 -0.362616,0.07877 -0.201454,0.04868 -0.311082,0.07612 -0.328885,0.07612 -0.274538,-0.138072 -0.406654,-0.138072 -0.39541,0.0035 -0.0253,0.162855 -0.113376,0.22127 -0.267043,0.179671 -0.19021,-0.0239 -0.458189,-0.189406 -0.802065,-0.500953 -0.120872,-0.100014 -0.149919,-0.09647 -0.08433,0.0035 0.06278,0.103554 0.157415,0.210648 0.278287,0.328363 0.08058,0.0655 0.212697,0.152234 0.387915,0.262868 z"
   inkscape:connector-curvature="0" /><path
   id="path3660"
   style="display:inline;fill:#865f24;fill-rule:evenodd;stroke-width:0.910665"
   d="m 10.878967,10.223498 c 0.193957,-0.193832 0.281098,-0.3770427 0.267043,-0.5531727 -0.0075,-0.06904 -0.07683,-0.253132 -0.212698,-0.543438 -0.07309,-0.17259 -0.186461,-0.307121 -0.343876,-0.400939 -0.362616,-0.276144 -0.560321,-0.431918 -0.6006125,-0.462896 -1.0503681,-0.86472 -1.6500431,-1.310799 -1.8008988,-1.334696 -0.1349269,-0.0239 -0.4385123,0.04868 -0.9107564,0.22481 -0.4947319,0.17967 -0.95948,0.373502 -1.3914334,0.58061 -0.4169615,0.207993 -0.6915002,0.387664 -0.8301751,0.539897 -0.1208719,0.134532 -0.1902094,0.317743 -0.2089492,0.549633 -0.058094,0.466436 0.35512,0.894813 1.2330817,1.2957527 0.5453294,0.242511 1.0175735,0.529276 1.4204801,0.854099 0.3991587,0.273489 1.0213215,0.273489 1.8627407,-0.0035 0.6961859,-0.207108 1.2012249,-0.459355 1.5160539,-0.74612 z"
   inkscape:connector-curvature="0" /><path
   id="path3662"
   style="display:inline;fill:#6b4c1c;fill-rule:evenodd;stroke-width:0.910665"
   d="M 10.589436,8.7259483 C 10.22682,8.4498043 10.029115,8.2940303 9.9888235,8.2630523 8.9609432,7.4328503 8.3828191,6.9938523 8.2469552,6.9522533 l -0.593116,2.413605 1.7315613,1.2028197 0.6334075,0.141612 c 0.292342,-0.110635 0.578124,-0.272604 0.860159,-0.486792 0.193957,-0.193832 0.281098,-0.3770427 0.267043,-0.5531727 -0.0075,-0.06904 -0.07683,-0.253132 -0.212698,-0.543437 -0.07309,-0.172591 -0.186461,-0.307122 -0.343876,-0.40094 z"
   inkscape:connector-curvature="0" /><path
   id="path3664"
   style="display:inline;fill:#996c29;fill-rule:evenodd;stroke-width:0.910665"
   d="m 10.878967,10.223498 0.2305,-0.3115467 C 10.336448,9.6836013 9.7480165,9.4871143 9.3413623,9.3207193 9.0115408,9.1861883 8.6536098,8.9374813 8.2647581,8.5737143 l -0.4610002,-0.473516 -0.4169615,0.08674 -2.4483606,1.082449 c 0.2155082,0.321283 0.5959271,0.604507 1.1412565,0.8496737 0.5453294,0.242511 1.0175735,0.529276 1.4204801,0.854099 0.3991587,0.273489 1.0213215,0.273489 1.8627407,-0.0035 0.6961859,-0.207108 1.2012249,-0.459355 1.5160539,-0.74612 z"
   inkscape:connector-curvature="0" /><path
   id="path3666"
   style="display:inline;fill:#bd8533;fill-rule:evenodd;stroke-width:0.910665"
   d="m 8.5392968,10.551861 c 0.4216464,-0.121255 0.743035,-0.338984 0.9594797,-0.6567267 -0.09557,-0.04514 -0.303585,0.04071 -0.6259105,0.2593277 -0.475992,0.372617 -0.8526629,0.497413 -1.1234536,0.376157 -0.080581,-0.04779 -0.029984,-0.12391 0.1499187,-0.224809 0.12462,-0.06196 0.3326322,-0.165509 0.6221628,-0.3106617 0.1977054,-0.121256 0.366364,-0.248707 0.5050388,-0.384123 0.138675,-0.134532 0.1096283,-0.141613 -0.088077,-0.02036 C 8.3856304,9.9500063 7.9686688,10.140298 7.6903822,10.160654 7.4823699,10.174814 7.4120955,10.091614 7.471126,9.9084073 7.518913,9.7844973 7.3577499,9.7667953 6.987638,9.8632673 6.914553,9.8880473 6.7796258,9.8464473 6.5856684,9.7358163 l -0.120872,-0.09736 c -0.040291,0 -0.1321159,0 -0.2857826,-0.0062 -0.2230042,-0.0035 -0.3991587,-0.06903 -0.5237787,-0.204448 -0.061841,-0.100014 -0.1789655,-0.145153 -0.3476241,-0.130992 -0.032795,0.07258 -0.0075,0.148693 0.073085,0.23189 0.066527,0.103554 0.1536668,0.158429 0.2679798,0.16905 l 0.7027441,0.293846 c 0.4497563,0.2141877 0.7823885,0.4151007 1.0063296,0.5912307 0.2998375,0.245166 0.5743762,0.377043 0.8198682,0.393859 0.3073334,0.04868 0.7505307,-0.03452 1.3324031,-0.255787 0.42071,-0.155774 0.7533422,-0.355801 0.9950862,-0.604508 C 10.32989,10.271286 9.9785168,10.4306 9.4434948,10.593454 8.9309594,10.751883 8.5692804,10.824459 8.3603312,10.804102 8.0380059,10.773122 8.1007843,10.689927 8.5392971,10.551855 Z"
   inkscape:connector-curvature="0" /><path
   id="path3668"
   style="display:inline;fill:#865f24;fill-rule:evenodd;stroke-width:0.910665"
   d="m 18.729087,9.3313403 c 0.391663,-0.491218 0.802066,-0.899238 1.226523,-1.234682 0.758027,-0.604508 1.069108,-1.186003 0.929496,-1.741832 -0.04029,-0.266408 -0.134926,-0.470861 -0.278286,-0.623094 -0.161163,-0.145152 -0.457252,-0.321283 -0.885458,-0.518655 -0.449756,-0.200027 -0.922,-0.359341 -1.423291,-0.483252 -0.49848,-0.107094 -0.809561,-0.135417 -0.936992,-0.09028 -0.128368,0.04514 -0.611856,0.663808 -1.453275,1.860432 -0.260484,0.303581 -0.428205,0.511574 -0.516283,0.625749 -0.135864,0.152234 -0.226752,0.335445 -0.263295,0.549633 -0.06278,0.379698 -0.09183,0.611588 -0.08433,0.698326 0,0.214189 0.109628,0.411561 0.328884,0.591231 0.362616,0.290306 0.896702,0.511575 1.603194,0.653187 0.842356,0.190292 1.427976,0.09382 1.753112,-0.286765 z"
   inkscape:connector-curvature="0" /><path
   id="path3670"
   style="display:inline;fill:#6b4c1c;fill-rule:evenodd;stroke-width:0.910665"
   d="m 18.32337,7.4434713 -0.804876,-2.285269 c -0.09183,-0.169049 -0.150856,-0.335444 -0.183651,-0.491217 -0.178965,0.100898 -0.654957,0.712487 -1.427039,1.832994 -0.260484,0.303581 -0.428205,0.511574 -0.516283,0.625749 -0.135864,0.152234 -0.226752,0.335445 -0.263295,0.549633 -0.06278,0.379698 -0.09183,0.611588 -0.08433,0.698326 0,0.214189 0.109628,0.411561 0.328884,0.591231 0.183651,0.145153 0.483488,0.300926 0.911694,0.466436 l 0.600612,-0.259328 z"
   inkscape:connector-curvature="0" /><path
   id="path3672"
   style="display:inline;fill:#996c29;fill-rule:evenodd;stroke-width:0.910665"
   d="m 20.871052,6.8867583 -2.526131,-0.881537 -0.398222,-0.05222 c -0.385104,0.792144 -0.802065,1.355938 -1.245263,1.687842 -0.03279,0.02036 -0.559384,0.352261 -1.580705,0.995712 0.0253,0.06904 0.109628,0.17613 0.25205,0.328363 0.362616,0.290306 0.896702,0.511575 1.603194,0.653187 0.842356,0.186751 1.427976,0.09382 1.753112,-0.286765 0.391663,-0.491218 0.802066,-0.899238 1.226523,-1.234682 0.493795,-0.373503 0.802065,-0.774443 0.915442,-1.2099 z"
   inkscape:connector-curvature="0" /><path
   id="path3674"
   style="display:inline;fill:#bd8533;fill-rule:evenodd;stroke-width:0.910665"
   d="m 17.580335,8.3489053 c 0.153667,0.06284 0.366364,0.152233 0.640903,0.273489 0.215508,0.09382 0.284845,0.166394 0.215508,0.224809 -0.2305,0.17613 -0.610919,0.09028 -1.14969,-0.262868 -0.219256,-0.145152 -0.401969,-0.23543 -0.555636,-0.279684 -0.135864,-0.02478 -0.172406,-0.0035 -0.110565,0.06195 0.370112,0.362882 0.725232,0.57707 1.069108,0.643451 0.24924,0.05133 0.366364,0.103554 0.351372,0.158429 0.0037,0.05222 -0.05153,0.09382 -0.161163,0.117715 -0.16491,0.04868 -0.516282,0.02124 -1.050368,-0.0832 -0.537833,-0.138072 -0.904197,-0.279684 -1.105651,-0.424837 l 0.183651,0.145153 c 0.296089,0.210648 0.581872,0.359341 0.852663,0.446078 0.596864,0.16905 1.039124,0.207108 1.332403,0.114175 0.274538,-0.107094 0.512534,-0.318627 0.71024,-0.63637 0.167721,-0.22481 0.457252,-0.511575 0.860159,-0.86118 0.263294,-0.231005 0.468496,-0.379698 0.614666,-0.442538 0.105881,-0.04425 0.186462,-0.130992 0.230501,-0.259328 0.04779,-0.110635 0.05153,-0.196487 0.0075,-0.265523 -0.149918,0.0097 -0.249239,0.07258 -0.297026,0.183211 -0.05809,0.179671 -0.219256,0.290305 -0.478803,0.324823 -0.128368,0.02744 -0.212697,0.05133 -0.24924,0.07258 -0.01499,0.03806 -0.05154,0.07612 -0.102132,0.114175 -0.176155,0.17259 -0.289531,0.252247 -0.348561,0.238086 -0.361679,-0.04514 -0.515346,-0.0071 -0.468496,0.114175 0.09183,0.224809 0.03748,0.342525 -0.167722,0.359341 -0.263295,0.0177 -0.6915,-0.154888 -1.284616,-0.52131 -0.216445,-0.10798 -0.241744,-0.08674 -0.08058,0.05842 0.14617,0.152233 0.325136,0.279684 0.541581,0.386778 z"
   inkscape:connector-curvature="0" /><path
   id="path3668-4"
   style="display:inline;fill:#865f24;fill-rule:evenodd;stroke-width:0.568016"
   d="m 10.702748,6.1412113 c 0.325567,-0.229906 0.666712,-0.420872 1.01954,-0.577871 0.630105,-0.282929 0.88869,-0.555087 0.772638,-0.815233 -0.03349,-0.124687 -0.112156,-0.220377 -0.231324,-0.291628 -0.133965,-0.06793 -0.380088,-0.15037 -0.736032,-0.242747 -0.373857,-0.09362 -0.766407,-0.168183 -1.183102,-0.226177 -0.4143595,-0.05012 -0.6729435,-0.06338 -0.7788695,-0.04225 -0.106705,0.02113 -0.5086023,0.310683 -1.2080273,0.870741 -0.216526,0.142086 -0.355943,0.239434 -0.429157,0.292871 -0.112936,0.07125 -0.188486,0.156999 -0.218862,0.257246 -0.05219,0.177711 -0.07633,0.286242 -0.0701,0.326838 0,0.100248 0.09113,0.192624 0.273383,0.276716 0.301422,0.135872 0.745378,0.239433 1.332645,0.305712 0.7002043,0.08906 1.1869978,0.04391 1.4572678,-0.134215 z"
   inkscape:connector-curvature="0" /><path
   id="path3670-7"
   style="display:inline;fill:#6b4c1c;fill-rule:evenodd;stroke-width:0.568016"
   d="M 10.365498,5.2576283 9.6964485,4.1880493 c -0.07633,-0.07912 -0.125398,-0.156998 -0.152659,-0.229905 -0.148763,0.04722 -0.5444293,0.333466 -1.1862183,0.857899 -0.216526,0.142086 -0.355943,0.239434 -0.429157,0.292871 -0.112936,0.07125 -0.188486,0.156999 -0.218862,0.257246 -0.05219,0.177711 -0.07633,0.286242 -0.0701,0.326838 0,0.100248 0.09113,0.192624 0.273383,0.276716 0.152658,0.06794 0.401896,0.140843 0.75784,0.218306 l 0.499256,-0.121373 z"
   inkscape:connector-curvature="0" /><path
   id="path3672-6"
   style="display:inline;fill:#996c29;fill-rule:evenodd;stroke-width:0.568016"
   d="m 12.483244,4.9970683 -2.099832,-0.412587 -0.33102,-0.02444 c -0.3201155,0.370748 -0.6667125,0.634622 -1.0351188,0.789964 -0.02726,0.0095 -0.464984,0.164869 -1.313952,0.466024 0.02103,0.03231 0.09113,0.08243 0.209515,0.153685 0.301423,0.135872 0.745379,0.239433 1.332646,0.305712 0.7002043,0.08741 1.1869978,0.04391 1.4572658,-0.134215 0.325567,-0.229906 0.666712,-0.420872 1.01954,-0.577871 0.410464,-0.174811 0.666712,-0.362464 0.760956,-0.566272 z"
   inkscape:connector-curvature="0" /><path
   id="path3674-9"
   style="display:inline;fill:#bd8533;fill-rule:evenodd;stroke-width:0.568016"
   d="m 9.7478535,5.6814003 c 0.127735,0.02941 0.3045385,0.07125 0.5327475,0.128001 0.17914,0.04391 0.236776,0.07788 0.17914,0.105218 -0.191602,0.08244 -0.5078235,0.04225 -0.9556735,-0.12303 -0.1822563,-0.06794 -0.3341353,-0.110189 -0.4618703,-0.130902 -0.112936,-0.0116 -0.143311,-0.0017 -0.09191,0.029 0.307653,0.169841 0.6028453,0.270088 0.8886903,0.301156 0.2071795,0.02403 0.3045385,0.04847 0.2920765,0.07415 0.0031,0.02444 -0.04283,0.04391 -0.1339665,0.05509 -0.137081,0.02278 -0.429157,0.0099 -0.8731133,-0.03894 -0.44707,-0.06462 -0.751608,-0.130901 -0.919066,-0.198837 l 0.152659,0.06794 c 0.246123,0.09859 0.483678,0.168183 0.708771,0.208779 0.4961403,0.07912 0.8637663,0.09693 1.1075538,0.05344 0.228208,-0.05012 0.426041,-0.149128 0.590383,-0.297842 0.139417,-0.105218 0.380088,-0.239433 0.715002,-0.403059 0.218862,-0.108118 0.389435,-0.177711 0.510938,-0.207122 0.08801,-0.02071 0.154995,-0.06131 0.191602,-0.121374 0.03973,-0.05178 0.04283,-0.09196 0.0062,-0.124273 -0.124619,0.0046 -0.207179,0.03397 -0.246902,0.08575 -0.04829,0.08409 -0.182255,0.135872 -0.398002,0.152027 -0.106705,0.01284 -0.176803,0.02403 -0.207179,0.03397 -0.01246,0.01781 -0.04284,0.03562 -0.0849,0.05344 -0.146428,0.08078 -0.240671,0.11806 -0.289739,0.111432 -0.300644,-0.02113 -0.428379,-0.0033 -0.389435,0.05344 0.07633,0.105218 0.03116,0.160312 -0.139418,0.168183 -0.218862,0.0083 -0.5748055,-0.07249 -1.0678298,-0.24399 -0.179919,-0.05054 -0.200949,-0.0406 -0.06698,0.02734 0.1215033,0.07125 0.2702673,0.130901 0.4501863,0.181025 z"
   inkscape:connector-curvature="0" /><path
   id="path3668-1"
   style="display:inline;fill:#865f24;fill-rule:evenodd;stroke-width:0.578072"
   d="m 23.555083,9.6357113 c -0.394095,-0.186152 -0.756015,-0.314378 -1.088937,-0.392784 -0.59716,-0.143433 -1.001685,-0.411136 -1.210778,-0.802609 -0.111039,-0.179371 -0.17036,-0.3368 -0.184909,-0.476636 -0.0039,-0.140924 0.03216,-0.343123 0.111785,-0.599619 0.08711,-0.264846 0.202828,-0.511168 0.347283,-0.744329 0.151355,-0.221754 0.264229,-0.336021 0.337603,-0.347288 0.07375,-0.01156 0.56612,0.225933 1.480355,0.714373 0.251047,0.109327 0.418681,0.187564 0.509079,0.23175 0.128022,0.05319 0.252578,0.139752 0.369866,0.262573 0.207107,0.21835 0.329813,0.354586 0.368252,0.41124 0.102438,0.13416 0.152284,0.291803 0.149108,0.472378 -0.0085,0.294354 -0.11974,0.598672 -0.33912,0.906592 -0.251311,0.380569 -0.535437,0.501854 -0.849585,0.364357 z"
   inkscape:connector-curvature="0" /><path
   id="path3670-8"
   style="display:inline;fill:#6b4c1c;fill-rule:evenodd;stroke-width:0.578072"
   d="m 22.817071,8.3273223 c 2.733439,2.8269927 0.098,-0.431031 -0.765861,-1.681163 -0.04353,-0.13438 -0.09913,-0.256919 -0.160297,-0.364667 0.120988,0.0077 0.606918,0.243049 1.456571,0.705327 0.251047,0.109327 0.418681,0.187565 0.509079,0.231751 0.128022,0.05319 0.252578,0.139751 0.369866,0.262573 0.207107,0.218349 0.329813,0.354586 0.368252,0.41124 0.102438,0.13416 0.152284,0.291802 0.149109,0.472377 -0.0052,0.147904 -0.05256,0.338513 -0.147422,0.575052 l -0.368106,0.02393 z"
   inkscape:connector-curvature="0"
   sodipodi:nodetypes="ccccccccccc" /><path
   id="path3672-2"
   style="display:inline;fill:#996c29;fill-rule:evenodd;stroke-width:0.578072"
   d="m 21.51548,8.7691413 0.604977,-1.336004 0.136857,-0.156274 c 0.535349,0.376678 0.974435,0.60044 1.31328,0.670813 0.02306,0.0026 0.395796,0.04707 1.11858,0.133201 0.02274,0.05109 0.03969,0.144337 0.05461,0.283884 -0.0085,0.294355 -0.119737,0.598673 -0.339117,0.906594 -0.253004,0.37835 -0.535437,0.501854 -0.849584,0.364356 -0.394095,-0.186152 -0.756015,-0.314378 -1.088937,-0.392784 -0.379301,-0.08073 -0.69633,-0.23621 -0.950666,-0.473786 z"
   inkscape:connector-curvature="0" /><path
   id="path3674-8"
   style="display:inline;fill:#bd8533;fill-rule:evenodd;stroke-width:0.578072"
   d="m 23.552059,8.6638983 c -0.03239,0.08704 -0.07608,0.209033 -0.129654,0.370171 -0.04271,0.125635 -0.03618,0.192609 0.01994,0.207684 0.177907,0.0388 0.291444,-0.133017 0.341497,-0.521392 0.01968,-0.158952 0.05076,-0.272194 0.09204,-0.347594 0.04336,-0.05768 0.06837,-0.05571 0.07456,0.0045 0.02314,0.34214 -0.01873,0.586492 -0.126733,0.734772 -0.07674,0.109492 -0.09936,0.178543 -0.06702,0.208263 0.02346,0.03386 0.06581,0.04277 0.12179,0.02373 0.0903,-0.02068 0.219968,-0.146894 0.387063,-0.378034 0.152532,-0.253368 0.23369,-0.45575 0.246137,-0.609178 l -0.0052,0.147904 c -0.01958,0.223815 -0.0646,0.405627 -0.133165,0.543981 -0.161706,0.291089 -0.323232,0.452158 -0.486861,0.484949 -0.162801,0.01811 -0.360687,-0.04054 -0.592995,-0.178218 -0.175676,-0.08877 -0.430484,-0.178552 -0.761421,-0.272514 -0.217479,-0.063 -0.371984,-0.09246 -0.461439,-0.08647 -0.06419,0.0051 -0.138424,-0.02419 -0.217697,-0.09091 -0.07234,-0.05447 -0.114915,-0.107082 -0.130009,-0.164009 0.06558,-0.04041 0.135997,-0.03188 0.208329,0.02259 0.109535,0.09452 0.227943,0.113804 0.349927,0.05489 0.06529,-0.02265 0.110988,-0.03385 0.135999,-0.03188 0.02432,0.01917 0.05735,0.03169 0.09611,0.03983 0.154131,0.05344 0.2383,0.06816 0.255516,0.04097 0.125392,-0.1405 0.206042,-0.164343 0.244995,-0.07386 0.0702,0.169305 0.148579,0.22618 0.24002,0.173034 0.115465,-0.07061 0.206938,-0.311584 0.272727,-0.725138 0.03632,-0.134795 0.05676,-0.129341 0.06068,0.01159 0.0134,0.140711 0.0016,0.276072 -0.03511,0.410313 z"
   inkscape:connector-curvature="0" /><path
   id="path3668-17"
   style="display:inline;fill:#865f24;fill-rule:evenodd;stroke-width:0.587423"
   d="m 12.646849,8.7690803 c 0.39707,-0.19978 0.792688,-0.355036 1.185264,-0.47174 0.702136,-0.211181 1.054188,-0.46684 1.052749,-0.766104 0.0199,-0.140093 -0.0141,-0.255609 -0.0958,-0.350778 -0.09682,-0.09382 -0.292061,-0.220282 -0.585409,-0.374111 -0.309506,-0.157882 -0.644209,-0.297952 -1.008163,-0.423727 -0.365003,-0.116899 -0.600168,-0.17033 -0.707376,-0.163459 -0.107933,0.0068 -0.600452,0.259599 -1.480578,0.760423 -0.25965,0.121153 -0.429235,0.205507 -0.51924,0.252314 -0.134258,0.06009 -0.239668,0.141539 -0.308986,0.245512 -0.121333,0.184567 -0.1882485,0.298454 -0.1990735,0.34336 -0.04105,0.108563 0.0059,0.222374 0.1410385,0.340983 0.224807,0.192694 0.595464,0.371935 1.11473,0.532459 0.615014,0.202263 1.086431,0.226927 1.410844,0.07487 z"
   inkscape:connector-curvature="0" /><path
   id="path3670-9"
   style="display:inline;fill:#6b4c1c;fill-rule:evenodd;stroke-width:0.587423"
   d="m 12.694919,7.7612333 -0.184472,-1.259413 c -0.03861,-0.09722 -0.05237,-0.188973 -0.04788,-0.272047 -0.157754,0.02866 -0.643118,0.278857 -1.455028,0.749811 -0.25965,0.121153 -0.429235,0.205507 -0.51924,0.252314 -0.134257,0.06009 -0.239668,0.141539 -0.308986,0.245512 -0.121333,0.184567 -0.1882485,0.298454 -0.1990735,0.34336 -0.04105,0.108563 0.0059,0.222374 0.1410395,0.340983 0.114215,0.09664 0.316255,0.21326 0.615711,0.350939 l 0.514226,-0.056 z"
   inkscape:connector-curvature="0" /><path
   id="path3672-7"
   style="display:inline;fill:#996c29;fill-rule:evenodd;stroke-width:0.587423"
   d="m 14.772034,7.7990843 -1.784771,-0.764134 -0.29798,-0.07649 c -0.449678,0.353131 -0.880226,0.586518 -1.286617,0.699074 -0.02926,0.0062 -0.500154,0.108279 -1.4133895,0.306125 0.0063,0.03817 0.05103,0.103044 0.1319995,0.198095 0.224807,0.192694 0.595464,0.371935 1.11473,0.532458 0.615692,0.200469 1.086431,0.226928 1.410843,0.07487 0.39707,-0.19978 0.792688,-0.355036 1.185264,-0.47174 0.453498,-0.127285 0.768767,-0.291782 0.939921,-0.498256 z"
   inkscape:connector-curvature="0" /><path
   id="path3674-2"
   style="display:inline;fill:#bd8533;fill-rule:evenodd;stroke-width:0.587423"
   d="m 11.946698,8.1268233 c 0.106803,0.05116 0.254171,0.123182 0.443261,0.219127 0.148694,0.07462 0.188409,0.12012 0.123587,0.141018 -0.212032,0.06032 -0.489796,-0.03098 -0.838799,-0.277655 -0.141753,-0.101114 -0.265761,-0.169823 -0.376127,-0.211557 -0.100329,-0.02963 -0.132663,-0.02345 -0.09739,0.01751 0.216694,0.230422 0.450294,0.383593 0.703528,0.460435 0.182926,0.05733 0.263501,0.09851 0.241388,0.124439 -0.0072,0.02693 -0.05784,0.04108 -0.147209,0.03942 -0.136873,0.004 -0.403369,-0.05409 -0.796419,-0.174111 -0.3895,-0.137543 -0.645707,-0.255341 -0.773691,-0.354219 l 0.114215,0.09664 c 0.188623,0.143962 0.381151,0.255227 0.573958,0.333206 0.429219,0.160659 0.763973,0.235504 1.008611,0.22524 0.232859,-0.0198 0.457473,-0.09712 0.671285,-0.233333 0.172807,-0.09288 0.4517,-0.201858 0.830323,-0.328447 0.247913,-0.08401 0.435119,-0.133604 0.560213,-0.147094 0.09037,-0.0091 0.16932,-0.04297 0.227979,-0.102488 0.05817,-0.05007 0.07751,-0.09312 0.05669,-0.13364 -0.117815,-0.0139 -0.206675,0.0055 -0.26484,0.05555 -0.07937,0.08377 -0.22522,0.119602 -0.432573,0.104494 -0.104539,-0.0022 -0.174341,-6.99e-4 -0.206675,0.0055 -0.01888,0.01741 -0.05445,0.03211 -0.100875,0.04504 -0.169322,0.06535 -0.272276,0.09148 -0.315216,0.07689 -0.271075,-0.06831 -0.397218,-0.06832 -0.384225,-9.81e-4 0.02793,0.125482 -0.03667,0.178319 -0.198594,0.161066 -0.207029,-0.0241 -0.505126,-0.165369 -0.893615,-0.425597 -0.146705,-0.08192 -0.170343,-0.07433 -0.07352,0.01949 0.08387,0.09552 0.197856,0.182602 0.344729,0.264073 z"
   inkscape:connector-curvature="0" /></g>&#10;  </g>&#10;<metadata
   id="metadata1"><rdf:RDF><cc:Work><dc:format>image/svg+xml</dc:format><dc:type
         rdf:resource="http://purl.org/dc/dcmitype/StillImage" /><cc:license
         rdf:resource="http://creativecommons.org/licenses/publicdomain/" /><dc:publisher><cc:Agent
           rdf:about="http://openclipart.org/"><dc:title>Openclipart</dc:title></cc:Agent></dc:publisher></cc:Work><cc:License
       rdf:about="http://creativecommons.org/licenses/publicdomain/"><cc:permits
         rdf:resource="http://creativecommons.org/ns#Reproduction" /><cc:permits
         rdf:resource="http://creativecommons.org/ns#Distribution" /><cc:permits
         rdf:resource="http://creativecommons.org/ns#DerivativeWorks" /></cc:License></rdf:RDF></metadata></svg>
