<?xml version="1.0" encoding="UTF-8" standalone="no"?>
<!-- Created with Inkscape (http://www.inkscape.org/) -->

<svg
   id="svg2"
   xml:space="preserve"
   viewBox="0 0 37.288 18.51"
   version="1.1"
   inkscape:version="1.3 (0e150ed6c4, 2023-07-21)"
   sodipodi:docname="espagueti-pom-carne.svg"
   xmlns:inkscape="http://www.inkscape.org/namespaces/inkscape"
   xmlns:sodipodi="http://sodipodi.sourceforge.net/DTD/sodipodi-0.dtd"
   xmlns="http://www.w3.org/2000/svg"
   xmlns:svg="http://www.w3.org/2000/svg"
   xmlns:rdf="http://www.w3.org/1999/02/22-rdf-syntax-ns#"
   xmlns:cc="http://creativecommons.org/ns#"
   xmlns:dc="http://purl.org/dc/elements/1.1/"><sodipodi:namedview
   id="namedview1"
   pagecolor="#ffffff"
   bordercolor="#000000"
   borderopacity="0.25"
   inkscape:showpageshadow="2"
   inkscape:pageopacity="0.0"
   inkscape:pagecheckerboard="0"
   inkscape:deskcolor="#d1d1d1"
   inkscape:zoom="36.311952"
   inkscape:cx="18.61646"
   inkscape:cy="9.2669213"
   inkscape:window-width="1920"
   inkscape:window-height="991"
   inkscape:window-x="-9"
   inkscape:window-y="-9"
   inkscape:window-maximized="1"
   inkscape:current-layer="g12" />&#10;  <defs
   id="defs6">&#10;    <clipPath
   id="clipPath22">&#10;      <path
   id="path24"
   d="m2-0.19176h16v7h-16v-7z"
   inkscape:connector-curvature="0" />&#10;    </clipPath>&#10;    <mask
   id="mask26">&#10;      <g
   id="g28">&#10;        <g
   id="g30"
   clip-path="url(#clipPath22)">&#10;          <path
   id="path32"
   style="fill:#000000;fill-opacity:.44140"
   d="m2-0.19176h16v7h-16v-7z"
   inkscape:connector-curvature="0" />&#10;        </g>&#10;      </g>&#10;    </mask>&#10;    <clipPath
   id="clipPath38">&#10;      <path
   id="path40"
   d="m2-0.19176h16v7h-16v-7z"
   inkscape:connector-curvature="0" />&#10;    </clipPath>&#10;    <clipPath
   id="clipPath42">&#10;      <path
   id="path44"
   d="m2 0h16v7h-16v-7z"
   inkscape:connector-curvature="0" />&#10;    </clipPath>&#10;    <linearGradient
   id="linearGradient50"
   y2="-31.002"
   gradientUnits="userSpaceOnUse"
   x2="-5.8529"
   gradientTransform="matrix(.6 -.00186 .00186 .6 17.89 22.08)"
   y1="-31.002"
   x1="-21.853">&#10;      <stop
   id="stop52"
   style="stop-color:#ffffff"
   offset="0" />&#10;      <stop
   id="stop54"
   style="stop-color:#000000"
   offset="1" />&#10;    </linearGradient>&#10;    <linearGradient
   id="linearGradient90"
   y2="10.2"
   gradientUnits="userSpaceOnUse"
   x2="46.151"
   gradientTransform="matrix(.6 0 0 -.6 5.5389e-7 14.13)"
   y1="10.2"
   x1="1.1006">&#10;      <stop
   id="stop92"
   style="stop-color:#9cadb5"
   offset="0" />&#10;      <stop
   id="stop94"
   style="stop-color:#e0e0e0"
   offset="1" />&#10;    </linearGradient>&#10;    <radialGradient
   id="radialGradient110"
   gradientUnits="userSpaceOnUse"
   cy="-21.613"
   cx="2.2554"
   gradientTransform="matrix(-.06528 -.5964 .5568 -.07032 24.901 10.986)"
   r="21.012">&#10;      <stop
   id="stop112"
   style="stop-color:#f2db8a"
   offset="0.49861497" />&#10;      <stop
   id="stop114"
   style="stop-color:#877531"
   offset="1" />&#10;    </radialGradient>&#10;    <radialGradient
   id="radialGradient128"
   gradientUnits="userSpaceOnUse"
   cy="-16.343"
   cx="1.939"
   gradientTransform="matrix(-.066 -.5964 .55576 -.07104 18.81 11.725)"
   r="2.9554">&#10;      <stop
   id="stop130"
   style="stop-color:#d4c17d"
   offset="0" />&#10;      <stop
   id="stop132"
   style="stop-color:#b3a051"
   offset="1" />&#10;    </radialGradient>&#10;    <radialGradient
   id="radialGradient146"
   gradientUnits="userSpaceOnUse"
   cy="-16.098"
   cx="7.0215"
   gradientTransform="matrix(-.066 -.59632 .55768 -.07056 18.56 11.781)"
   r="3.295">&#10;      <stop
   id="stop148"
   style="stop-color:#d4c17d"
   offset="0" />&#10;      <stop
   id="stop150"
   style="stop-color:#b3a051"
   offset="1" />&#10;    </radialGradient>&#10;    <radialGradient
   id="radialGradient164"
   gradientUnits="userSpaceOnUse"
   cy="-36.492"
   cx="4.6558"
   gradientTransform="matrix(-.06496 -.59648 .55512 -.07088 41.981 8.7714)"
   r="2.5399">&#10;      <stop
   id="stop166"
   style="stop-color:#d4c17d"
   offset="0" />&#10;      <stop
   id="stop168"
   style="stop-color:#b3a051"
   offset="1" />&#10;    </radialGradient>&#10;    <radialGradient
   id="radialGradient182"
   gradientUnits="userSpaceOnUse"
   cy="-21.334"
   cx="4.3125"
   gradientTransform="matrix(-.06528 -.5964 .55656 -.07 24.574 11.039)"
   r="19.176">&#10;      <stop
   id="stop184"
   style="stop-color:#d4c17d"
   offset="0" />&#10;      <stop
   id="stop186"
   style="stop-color:#b3a051"
   offset="1" />&#10;    </radialGradient>&#10;    <radialGradient
   id="radialGradient200"
   gradientUnits="userSpaceOnUse"
   cy="-22.418"
   cx="-0.499"
   gradientTransform="matrix(-.06544 -.5964 .55688 -.07 25.831 10.883)"
   r="19.718">&#10;      <stop
   id="stop202"
   style="stop-color:#c7b577"
   offset="0" />&#10;      <stop
   id="stop204"
   style="stop-color:#bdaa57"
   offset="1" />&#10;    </radialGradient>&#10;    <radialGradient
   id="radialGradient218"
   gradientUnits="userSpaceOnUse"
   cy="-22.026"
   cx="-.85210"
   gradientTransform="matrix(-.06544 -.5964 .55688 -.07 25.38 10.94)"
   r="19.718">&#10;      <stop
   id="stop220"
   style="stop-color:#e3d49d"
   offset="0" />&#10;      <stop
   id="stop222"
   style="stop-color:#e0ca70"
   offset="1" />&#10;    </radialGradient>&#10;    <radialGradient
   id="radialGradient236"
   gradientUnits="userSpaceOnUse"
   cy="-22.192"
   cx="-.7324"
   gradientTransform="matrix(-.06536 -.5964 .55688 -.07024 25.57 10.904)"
   r="24.445">&#10;      <stop
   id="stop238"
   style="stop-color:#e6d189"
   offset="0" />&#10;      <stop
   id="stop240"
   style="stop-color:#bdaa57"
   offset="1" />&#10;    </radialGradient>&#10;    <radialGradient
   id="radialGradient254"
   gradientUnits="userSpaceOnUse"
   cy="-21.855"
   cx="-1.0425"
   gradientTransform="matrix(-.06536 -.5964 .55688 -.07024 25.182 10.953)"
   r="24.445">&#10;      <stop
   id="stop256"
   style="stop-color:#fff6d4"
   offset="0" />&#10;      <stop
   id="stop258"
   style="stop-color:#e0ca70"
   offset="1" />&#10;    </radialGradient>&#10;    <radialGradient
   id="radialGradient272"
   gradientUnits="userSpaceOnUse"
   cy="-24.477"
   cx="4.4702"
   gradientTransform="matrix(-.06552 -.5964 .5568 -.07008 28.202 10.581)"
   r="17.982">&#10;      <stop
   id="stop274"
   style="stop-color:#d6c894"
   offset="0" />&#10;      <stop
   id="stop276"
   style="stop-color:#a89642"
   offset="1" />&#10;    </radialGradient>&#10;    <radialGradient
   id="radialGradient290"
   gradientUnits="userSpaceOnUse"
   cy="-24.129"
   cx="4.061"
   gradientTransform="matrix(-.06552 -.5964 .5568 -.07008 27.802 10.631)"
   r="17.982">&#10;      <stop
   id="stop292"
   style="stop-color:#fff6d4"
   offset="0" />&#10;      <stop
   id="stop294"
   style="stop-color:#e0ca70"
   offset="1" />&#10;    </radialGradient>&#10;    <radialGradient
   id="radialGradient308"
   gradientUnits="userSpaceOnUse"
   cy="-26.365"
   cx="4.2339"
   gradientTransform="matrix(-.06552 -.5964 .5568 -.07008 30.378 10.308)"
   r="16.486">&#10;      <stop
   id="stop310"
   style="stop-color:#fff6d4"
   offset="0" />&#10;      <stop
   id="stop312"
   style="stop-color:#e0ca70"
   offset="1" />&#10;    </radialGradient>&#10;    <clipPath
   id="clipPath454">&#10;      <path
   id="path456"
   d="m3 7.8082h14v6h-14v-6z"
   inkscape:connector-curvature="0" />&#10;    </clipPath>&#10;    <mask
   id="mask458">&#10;      <g
   id="g460">&#10;        <g
   id="g462"
   clip-path="url(#clipPath454)">&#10;          <path
   id="path464"
   style="fill:#000000;fill-opacity:.62110"
   d="m3 7.8082h14v6h-14v-6z"
   inkscape:connector-curvature="0" />&#10;        </g>&#10;      </g>&#10;    </mask>&#10;    <clipPath
   id="clipPath470">&#10;      <path
   id="path472"
   d="m3 7.8082h14v6h-14v-6z"
   inkscape:connector-curvature="0" />&#10;    </clipPath>&#10;    <clipPath
   id="clipPath474">&#10;      <path
   id="path476"
   d="m3 8h14v6h-14v-6z"
   inkscape:connector-curvature="0" />&#10;    </clipPath>&#10;    <clipPath
   id="clipPath542">&#10;      <path
   id="path544"
   d="m12 13.808h4v1h-4v-1z"
   inkscape:connector-curvature="0" />&#10;    </clipPath>&#10;    <mask
   id="mask546">&#10;      <g
   id="g548">&#10;        <g
   id="g550"
   clip-path="url(#clipPath542)">&#10;          <path
   id="path552"
   style="fill:#000000;fill-opacity:.42190"
   d="m12 13.808h4v1h-4v-1z"
   inkscape:connector-curvature="0" />&#10;        </g>&#10;      </g>&#10;    </mask>&#10;    <clipPath
   id="clipPath558">&#10;      <path
   id="path560"
   d="m12 13.808h4v1h-4v-1z"
   inkscape:connector-curvature="0" />&#10;    </clipPath>&#10;    <clipPath
   id="clipPath562">&#10;      <path
   id="path564"
   d="m12 14h4v1h-4v-1z"
   inkscape:connector-curvature="0" />&#10;    </clipPath>&#10;    <clipPath
   id="clipPath586">&#10;      <path
   id="path588"
   d="m13 12.808h3v1h-3v-1z"
   inkscape:connector-curvature="0" />&#10;    </clipPath>&#10;    <mask
   id="mask590">&#10;      <g
   id="g592">&#10;        <g
   id="g594"
   clip-path="url(#clipPath586)">&#10;          <path
   id="path596"
   style="fill:#000000;fill-opacity:.42190"
   d="m13 12.808h3v1h-3v-1z"
   inkscape:connector-curvature="0" />&#10;        </g>&#10;      </g>&#10;    </mask>&#10;    <clipPath
   id="clipPath602">&#10;      <path
   id="path604"
   d="m13 12.808h3v1h-3v-1z"
   inkscape:connector-curvature="0" />&#10;    </clipPath>&#10;    <clipPath
   id="clipPath606">&#10;      <path
   id="path608"
   d="m13 13h3v1h-3v-1z"
   inkscape:connector-curvature="0" />&#10;    </clipPath>&#10;    <clipPath
   id="clipPath630">&#10;      <path
   id="path632"
   d="m15 12.808h2v1h-2v-1z"
   inkscape:connector-curvature="0" />&#10;    </clipPath>&#10;    <mask
   id="mask634">&#10;      <g
   id="g636">&#10;        <g
   id="g638"
   clip-path="url(#clipPath630)">&#10;          <path
   id="path640"
   style="fill:#000000;fill-opacity:.42190"
   d="m15 12.808h2v1h-2v-1z"
   inkscape:connector-curvature="0" />&#10;        </g>&#10;      </g>&#10;    </mask>&#10;    <clipPath
   id="clipPath646">&#10;      <path
   id="path648"
   d="m15 12.808h2v1h-2v-1z"
   inkscape:connector-curvature="0" />&#10;    </clipPath>&#10;    <clipPath
   id="clipPath650">&#10;      <path
   id="path652"
   d="m15 13h2v1h-2v-1z"
   inkscape:connector-curvature="0" />&#10;    </clipPath>&#10;    <clipPath
   id="clipPath674">&#10;      <path
   id="path676"
   d="m15 11.808h3v2h-3v-2z"
   inkscape:connector-curvature="0" />&#10;    </clipPath>&#10;    <mask
   id="mask678">&#10;      <g
   id="g680">&#10;        <g
   id="g682"
   clip-path="url(#clipPath674)">&#10;          <path
   id="path684"
   style="fill:#000000;fill-opacity:.42190"
   d="m15 11.808h3v2h-3v-2z"
   inkscape:connector-curvature="0" />&#10;        </g>&#10;      </g>&#10;    </mask>&#10;    <clipPath
   id="clipPath690">&#10;      <path
   id="path692"
   d="m15 11.808h3v2h-3v-2z"
   inkscape:connector-curvature="0" />&#10;    </clipPath>&#10;    <clipPath
   id="clipPath694">&#10;      <path
   id="path696"
   d="m15 12h3v2h-3v-2z"
   inkscape:connector-curvature="0" />&#10;    </clipPath>&#10;    <clipPath
   id="clipPath718">&#10;      <path
   id="path720"
   d="m16 12.808h3v1h-3v-1z"
   inkscape:connector-curvature="0" />&#10;    </clipPath>&#10;    <mask
   id="mask722">&#10;      <g
   id="g724">&#10;        <g
   id="g726"
   clip-path="url(#clipPath718)">&#10;          <path
   id="path728"
   style="fill:#000000;fill-opacity:.42190"
   d="m16 12.808h3v1h-3v-1z"
   inkscape:connector-curvature="0" />&#10;        </g>&#10;      </g>&#10;    </mask>&#10;    <clipPath
   id="clipPath734">&#10;      <path
   id="path736"
   d="m16 12.808h3v1h-3v-1z"
   inkscape:connector-curvature="0" />&#10;    </clipPath>&#10;    <clipPath
   id="clipPath738">&#10;      <path
   id="path740"
   d="m16 13h3v1h-3v-1z"
   inkscape:connector-curvature="0" />&#10;    </clipPath>&#10;    <clipPath
   id="clipPath762">&#10;      <path
   id="path764"
   d="m15 13.808h3v1h-3v-1z"
   inkscape:connector-curvature="0" />&#10;    </clipPath>&#10;    <mask
   id="mask766">&#10;      <g
   id="g768">&#10;        <g
   id="g770"
   clip-path="url(#clipPath762)">&#10;          <path
   id="path772"
   style="fill:#000000;fill-opacity:.42190"
   d="m15 13.808h3v1h-3v-1z"
   inkscape:connector-curvature="0" />&#10;        </g>&#10;      </g>&#10;    </mask>&#10;    <clipPath
   id="clipPath778">&#10;      <path
   id="path780"
   d="m15 13.808h3v1h-3v-1z"
   inkscape:connector-curvature="0" />&#10;    </clipPath>&#10;    <clipPath
   id="clipPath782">&#10;      <path
   id="path784"
   d="m15 14h3v1h-3v-1z"
   inkscape:connector-curvature="0" />&#10;    </clipPath>&#10;    <clipPath
   id="clipPath806">&#10;      <path
   id="path808"
   d="m14 13.808h2v1h-2v-1z"
   inkscape:connector-curvature="0" />&#10;    </clipPath>&#10;    <mask
   id="mask810">&#10;      <g
   id="g812">&#10;        <g
   id="g814"
   clip-path="url(#clipPath806)">&#10;          <path
   id="path816"
   style="fill:#000000;fill-opacity:.42190"
   d="m14 13.808h2v1h-2v-1z"
   inkscape:connector-curvature="0" />&#10;        </g>&#10;      </g>&#10;    </mask>&#10;    <clipPath
   id="clipPath822">&#10;      <path
   id="path824"
   d="m14 13.808h2v1h-2v-1z"
   inkscape:connector-curvature="0" />&#10;    </clipPath>&#10;    <clipPath
   id="clipPath826">&#10;      <path
   id="path828"
   d="m14 14h2v1h-2v-1z"
   inkscape:connector-curvature="0" />&#10;    </clipPath>&#10;    <clipPath
   id="clipPath850">&#10;      <path
   id="path852"
   d="m12 13.808h4v1h-4v-1z"
   inkscape:connector-curvature="0" />&#10;    </clipPath>&#10;    <mask
   id="mask854">&#10;      <g
   id="g856">&#10;        <g
   id="g858"
   clip-path="url(#clipPath850)">&#10;          <path
   id="path860"
   style="fill:#000000;fill-opacity:.42190"
   d="m12 13.808h4v1h-4v-1z"
   inkscape:connector-curvature="0" />&#10;        </g>&#10;      </g>&#10;    </mask>&#10;    <clipPath
   id="clipPath866">&#10;      <path
   id="path868"
   d="m12 13.808h4v1h-4v-1z"
   inkscape:connector-curvature="0" />&#10;    </clipPath>&#10;    <clipPath
   id="clipPath870">&#10;      <path
   id="path872"
   d="m12 14h4v1h-4v-1z"
   inkscape:connector-curvature="0" />&#10;    </clipPath>&#10;    <clipPath
   id="clipPath906">&#10;      <path
   id="path908"
   d="m5 10.808h5v2h-5v-2z"
   inkscape:connector-curvature="0" />&#10;    </clipPath>&#10;    <mask
   id="mask910">&#10;      <g
   id="g912">&#10;        <g
   id="g914"
   clip-path="url(#clipPath906)">&#10;          <path
   id="path916"
   style="fill:#000000;fill-opacity:.42190"
   d="m5 10.808h5v2h-5v-2z"
   inkscape:connector-curvature="0" />&#10;        </g>&#10;      </g>&#10;    </mask>&#10;    <clipPath
   id="clipPath922">&#10;      <path
   id="path924"
   d="m5 10.808h5v2h-5v-2z"
   inkscape:connector-curvature="0" />&#10;    </clipPath>&#10;    <clipPath
   id="clipPath926">&#10;      <path
   id="path928"
   d="m5 11h5v2h-5v-2z"
   inkscape:connector-curvature="0" />&#10;    </clipPath>&#10;    <clipPath
   id="clipPath950">&#10;      <path
   id="path952"
   d="m6 10.808h4v2h-4v-2z"
   inkscape:connector-curvature="0" />&#10;    </clipPath>&#10;    <mask
   id="mask954">&#10;      <g
   id="g956">&#10;        <g
   id="g958"
   clip-path="url(#clipPath950)">&#10;          <path
   id="path960"
   style="fill:#000000;fill-opacity:.42190"
   d="m6 10.808h4v2h-4v-2z"
   inkscape:connector-curvature="0" />&#10;        </g>&#10;      </g>&#10;    </mask>&#10;    <clipPath
   id="clipPath966">&#10;      <path
   id="path968"
   d="m6 10.808h4v2h-4v-2z"
   inkscape:connector-curvature="0" />&#10;    </clipPath>&#10;    <clipPath
   id="clipPath970">&#10;      <path
   id="path972"
   d="m6 11h4v2h-4v-2z"
   inkscape:connector-curvature="0" />&#10;    </clipPath>&#10;    <clipPath
   id="clipPath994">&#10;      <path
   id="path996"
   d="m9 9.8082h2v3h-2v-3z"
   inkscape:connector-curvature="0" />&#10;    </clipPath>&#10;    <mask
   id="mask998">&#10;      <g
   id="g1000">&#10;        <g
   id="g1002"
   clip-path="url(#clipPath994)">&#10;          <path
   id="path1004"
   style="fill:#000000;fill-opacity:.42190"
   d="m9 9.8082h2v3h-2v-3z"
   inkscape:connector-curvature="0" />&#10;        </g>&#10;      </g>&#10;    </mask>&#10;    <clipPath
   id="clipPath1010">&#10;      <path
   id="path1012"
   d="m9 9.8082h2v3h-2v-3z"
   inkscape:connector-curvature="0" />&#10;    </clipPath>&#10;    <clipPath
   id="clipPath1014">&#10;      <path
   id="path1016"
   d="m9 10h2v3h-2v-3z"
   inkscape:connector-curvature="0" />&#10;    </clipPath>&#10;    <clipPath
   id="clipPath1038">&#10;      <path
   id="path1040"
   d="m9 9.8082h4v3h-4v-3z"
   inkscape:connector-curvature="0" />&#10;    </clipPath>&#10;    <mask
   id="mask1042">&#10;      <g
   id="g1044">&#10;        <g
   id="g1046"
   clip-path="url(#clipPath1038)">&#10;          <path
   id="path1048"
   style="fill:#000000;fill-opacity:.42190"
   d="m9 9.8082h4v3h-4v-3z"
   inkscape:connector-curvature="0" />&#10;        </g>&#10;      </g>&#10;    </mask>&#10;    <clipPath
   id="clipPath1054">&#10;      <path
   id="path1056"
   d="m9 9.8082h4v3h-4v-3z"
   inkscape:connector-curvature="0" />&#10;    </clipPath>&#10;    <clipPath
   id="clipPath1058">&#10;      <path
   id="path1060"
   d="m9 10h4v3h-4v-3z"
   inkscape:connector-curvature="0" />&#10;    </clipPath>&#10;    <clipPath
   id="clipPath1082">&#10;      <path
   id="path1084"
   d="m10 10.808h3v2h-3v-2z"
   inkscape:connector-curvature="0" />&#10;    </clipPath>&#10;    <mask
   id="mask1086">&#10;      <g
   id="g1088">&#10;        <g
   id="g1090"
   clip-path="url(#clipPath1082)">&#10;          <path
   id="path1092"
   style="fill:#000000;fill-opacity:.42190"
   d="m10 10.808h3v2h-3v-2z"
   inkscape:connector-curvature="0" />&#10;        </g>&#10;      </g>&#10;    </mask>&#10;    <clipPath
   id="clipPath1098">&#10;      <path
   id="path1100"
   d="m10 10.808h3v2h-3v-2z"
   inkscape:connector-curvature="0" />&#10;    </clipPath>&#10;    <clipPath
   id="clipPath1102">&#10;      <path
   id="path1104"
   d="m10 11h3v2h-3v-2z"
   inkscape:connector-curvature="0" />&#10;    </clipPath>&#10;    <clipPath
   id="clipPath1126">&#10;      <path
   id="path1128"
   d="m9 11.808h3v2h-3v-2z"
   inkscape:connector-curvature="0" />&#10;    </clipPath>&#10;    <mask
   id="mask1130">&#10;      <g
   id="g1132">&#10;        <g
   id="g1134"
   clip-path="url(#clipPath1126)">&#10;          <path
   id="path1136"
   style="fill:#000000;fill-opacity:.42190"
   d="m9 11.808h3v2h-3v-2z"
   inkscape:connector-curvature="0" />&#10;        </g>&#10;      </g>&#10;    </mask>&#10;    <clipPath
   id="clipPath1142">&#10;      <path
   id="path1144"
   d="m9 11.808h3v2h-3v-2z"
   inkscape:connector-curvature="0" />&#10;    </clipPath>&#10;    <clipPath
   id="clipPath1146">&#10;      <path
   id="path1148"
   d="m9 12h3v2h-3v-2z"
   inkscape:connector-curvature="0" />&#10;    </clipPath>&#10;    <clipPath
   id="clipPath1170">&#10;      <path
   id="path1172"
   d="m8 11.808h2v2h-2v-2z"
   inkscape:connector-curvature="0" />&#10;    </clipPath>&#10;    <mask
   id="mask1174">&#10;      <g
   id="g1176">&#10;        <g
   id="g1178"
   clip-path="url(#clipPath1170)">&#10;          <path
   id="path1180"
   style="fill:#000000;fill-opacity:.42190"
   d="m8 11.808h2v2h-2v-2z"
   inkscape:connector-curvature="0" />&#10;        </g>&#10;      </g>&#10;    </mask>&#10;    <clipPath
   id="clipPath1186">&#10;      <path
   id="path1188"
   d="m8 11.808h2v2h-2v-2z"
   inkscape:connector-curvature="0" />&#10;    </clipPath>&#10;    <clipPath
   id="clipPath1190">&#10;      <path
   id="path1192"
   d="m8 12h2v2h-2v-2z"
   inkscape:connector-curvature="0" />&#10;    </clipPath>&#10;    <clipPath
   id="clipPath1214">&#10;      <path
   id="path1216"
   d="m6 11.808h4v1h-4v-1z"
   inkscape:connector-curvature="0" />&#10;    </clipPath>&#10;    <mask
   id="mask1218">&#10;      <g
   id="g1220">&#10;        <g
   id="g1222"
   clip-path="url(#clipPath1214)">&#10;          <path
   id="path1224"
   style="fill:#000000;fill-opacity:.42190"
   d="m6 11.808h4v1h-4v-1z"
   inkscape:connector-curvature="0" />&#10;        </g>&#10;      </g>&#10;    </mask>&#10;    <clipPath
   id="clipPath1230">&#10;      <path
   id="path1232"
   d="m6 11.808h4v1h-4v-1z"
   inkscape:connector-curvature="0" />&#10;    </clipPath>&#10;    <clipPath
   id="clipPath1234">&#10;      <path
   id="path1236"
   d="m6 12h4v1h-4v-1z"
   inkscape:connector-curvature="0" />&#10;    </clipPath>&#10;  </defs>&#10;  <g
   id="g10"
   transform="matrix(1.25 0 0 -1.25 0 18.51)">&#10;    <g
   id="g12">&#10;      <path
   id="path14"
   style="display:inline;fill:#d7eaf2;fill-rule:evenodd;fill-opacity:1"
   d="m 27.93,7.351 0.121,0.028 C 27.27,5.242 25.59,3.48 23.008,2.101 20.391,0.699 17.398,0 14.039,0 10.66,0 7.648,0.711 5.008,2.129 2.41,3.531 0.738,5.308 0,7.468 L 0.238,7.441 C 1.02,6.922 2.691,6.488 5.25,6.152 7.852,5.808 10.809,5.64 14.129,5.64 c 3.262,0 6.172,0.16 8.73,0.481 2.52,0.32 4.211,0.73 5.071,1.23 z"
   inkscape:connector-curvature="0" />&#10;      <path
   id="path16"
   style="fill-rule:evenodd;fill:#bdd4de"
   d="m26.82 6.902c-0.179-0.484-0.472-0.984-0.871-1.5-0.758-1.023-1.941-2.051-3.539-3.094-1.262-0.816-2.812-1.476-4.652-1.976-0.86-0.121-1.34-0.184-1.438-0.184 2.418 0.742 4.16 1.82 5.219 3.242 0.461 0.621 0.75 1.199 0.867 1.739 0.063 0.5 0.102 0.832 0.121 0.992 1.864 0.199 3.293 0.461 4.293 0.781z"
   inkscape:connector-curvature="0" />&#10;      &#10;      <path
   id="path78"
   style="display:inline;fill:#bdd4de;fill-rule:evenodd"
   d="M 2.281,4.652 C 3.547,3.152 5.148,2.007 7.078,1.214 5.43,1.824 4.012,2.621 2.82,3.601 1.441,4.742 0.5,6.031 0,7.468 L 0.238,7.441 C 0.379,7.339 0.531,7.261 0.691,7.199 1.031,6.359 1.559,5.511 2.281,4.652 Z"
   inkscape:connector-curvature="0" />&#10;      <g
   id="g80"
   style="display:inline">&#10;        <g
   id="g82">&#10;          <g
   id="g88">&#10;            <path
   id="path96"
   style="display:inline;fill:#bdd4de;fill-rule:evenodd;fill-opacity:1"
   d="m 23.73,11.609 c 2.641,-1 3.961,-2.199 3.961,-3.598 0,-1.402 -1.32,-2.589 -3.961,-3.57 -2.64,-1 -5.82,-1.5 -9.539,-1.5 -3.742,0 -6.929,0.5 -9.57,1.5 C 1.98,5.422 0.66,6.609 0.66,8.011 c 0,1.399 1.32,2.598 3.961,3.598 2.641,0.98 5.828,1.473 9.57,1.473 3.719,0 6.899,-0.493 9.539,-1.473 z"
   inkscape:connector-curvature="0" />&#10;          </g>&#10;        </g>&#10;      </g>&#10;      <path
   id="path98"
   style="display:inline;fill:#ffffff;fill-rule:evenodd"
   d="m 28.02,8.371 h -0.872 c -0.179,1.238 -1.527,2.289 -4.05,3.148 -2.496,0.86 -5.496,1.289 -8.996,1.289 -3.481,0 -6.473,-0.429 -8.973,-1.289 C 2.609,10.66 1.262,9.609 1.078,8.371 H 0.059 c 0.32,1.359 1.812,2.5 4.472,3.418 2.699,0.922 5.867,1.383 9.508,1.383 3.66,0 6.832,-0.461 9.512,-1.383 2.679,-0.918 4.168,-2.059 4.469,-3.418 z"
   inkscape:connector-curvature="0" />&#10;      <g
   id="g100"
   style="display:inline;fill:#993d00;fill-opacity:1">&#10;        <g
   id="g102"
   style="fill:#993d00;fill-opacity:1">&#10;          <g
   id="g108"
   style="fill:#993d00;fill-opacity:1">&#10;            <path
   id="path116"
   style="fill:#993d00;fill-rule:evenodd;fill-opacity:1"
   d="M 26.969,6.3 C 26.07,5.781 24.77,5.211 23.07,4.589 20.609,3.691 18.5,3.23 16.742,3.211 14.82,3.191 12.723,3.281 10.441,3.48 8.359,3.679 6.77,3.91 5.672,4.168 4.77,4.39 3.891,4.73 3.031,5.187 2.27,5.589 1.879,5.871 1.859,6.031 1.84,6.109 1.961,6.257 2.219,6.48 2.52,6.738 2.68,6.898 2.699,6.961 3.02,7.859 4.289,8.629 6.512,9.269 7.09,9.429 7.68,9.91 8.281,10.711 c 0.559,0.757 1.028,1.148 1.41,1.168 1.879,0.14 3.418,0.121 4.618,-0.059 0.421,-0.059 1.07,-0.27 1.953,-0.629 0.718,-0.301 1.328,-0.441 1.828,-0.422 0.461,0.02 1.5,0.102 3.121,0.242 1.461,0.078 2.359,-0.039 2.699,-0.359 0.5,-0.48 1.031,-1.09 1.59,-1.832 C 26.16,7.98 26.48,7.41 26.461,7.109 26.441,6.89 26.629,6.742 27.031,6.66 27.289,6.601 27.27,6.48 26.969,6.3 Z"
   inkscape:connector-curvature="0" />&#10;          </g>&#10;        </g>&#10;      </g>&#10;      <g
   id="g118"
   style="display:inline">&#10;        <g
   id="g120">&#10;          <g
   id="g126">&#10;            <path
   id="path134"
   style="fill:#e2cd85;fill-rule:evenodd;fill-opacity:1"
   d="m 9.691,11.879 c 0.579,0.101 0.668,-0.04 0.27,-0.418 -0.5,-0.5 -0.68,-0.809 -0.539,-0.93 0.156,-0.16 0.5,-0.141 1.016,0.058 0.484,0.2 0.742,0.25 0.781,0.153 0.082,-0.223 -0.071,-0.41 -0.449,-0.57 -0.422,-0.18 -0.981,-0.211 -1.68,-0.09 -0.699,0.14 -0.902,0.461 -0.602,0.961 0.301,0.457 0.703,0.738 1.203,0.836 z"
   inkscape:connector-curvature="0" />&#10;          </g>&#10;        </g>&#10;      </g>&#10;      <g
   id="g136">&#10;        <g
   id="g138">&#10;          <g
   id="g144">&#10;            <path
   id="path152"
   style="fill-rule:evenodd;fill:#e2cd85;fill-opacity:1"
   d="m10.352 8.941c0.3 0.039 0.449-0.09 0.449-0.391 0-0.16-0.039-0.429-0.121-0.808-0.039-0.281-0.149-0.524-0.328-0.723-0.2-0.219-0.422-0.316-0.661-0.301-0.218 0.043-0.589 0.043-1.109 0l-0.719-0.058c0.059 0.121 0.168 0.242 0.328 0.359 0.301 0.262 0.68 0.403 1.141 0.422 0.398 0.039 0.59 0.289 0.57 0.75-0.004 0.481 0.149 0.727 0.45 0.75z"
   inkscape:connector-curvature="0" />&#10;          </g>&#10;        </g>&#10;      </g>&#10;      <g
   id="g154">&#10;        <g
   id="g156">&#10;          <g
   id="g162">&#10;            <path
   id="path170"
   style="fill-rule:evenodd;fill:#e2cd85;fill-opacity:1"
   d="m22.289 8.672c0.719-0.184 0.879-0.512 0.481-0.993-0.399-0.461-1.008-0.578-1.829-0.359-0.781 0.199-0.91 0.512-0.39 0.93 0.5 0.441 1.078 0.582 1.738 0.422z"
   inkscape:connector-curvature="0" />&#10;          </g>&#10;        </g>&#10;      </g>&#10;      <g
   id="g172">&#10;        <g
   id="g174">&#10;          <g
   id="g180">&#10;            <path
   id="path188"
   style="fill-rule:evenodd;fill:#e2c974;fill-opacity:1"
   d="m25.23 7.23c-0.382 0.199-0.882 0.488-1.5 0.871-0.699 0.438-1.16 0.719-1.382 0.84-0.657 0.398-1.618 0.551-2.879 0.449-0.641-0.101-1.16-0.172-1.559-0.211-0.719-0.078-1.262-0.039-1.621 0.121-0.16 0.059-0.359 0.239-0.598 0.539-0.16 0.18-0.55 0.262-1.171 0.243-0.54-0.02-1.27-0.16-2.192-0.422-0.918-0.258-1.578-0.399-1.98-0.418-0.778-0.063-1.309-0.133-1.586-0.211-0.485-0.121-0.84-0.359-1.082-0.719-0.379-0.543-0.672-0.91-0.871-1.109-0.34-0.344-0.719-0.543-1.141-0.602-0.5-0.082-0.969-0.211-1.41-0.39-0.5-0.18-0.758-0.34-0.781-0.481-0.055-0.156-0.055-0.308 0-0.465-0.477 0.188-0.789 0.344-0.93 0.465-0.5 0.422-0.418 0.762 0.242 1.02 0.52 0.218 1.191 0.332 2.012 0.332 0.558 0 1.008 0.117 1.347 0.359 0.161 0.117 0.403 0.379 0.723 0.777 0.16 0.204 0.387 0.512 0.688 0.934 0.339 0.316 0.871 0.469 1.589 0.449 0.661-0.039 1.301 0.059 1.922 0.301 0.317 0.141 0.739 0.316 1.258 0.539 0.461 0.121 0.809 0.18 1.051 0.18 0.34 0 0.859-0.078 1.559-0.239 0.281-0.062 0.64-0.261 1.082-0.601 0.238-0.199 0.878-0.262 1.918-0.18 0.902 0.059 1.871 0.149 2.91 0.27 0.683-0.02 1.293-0.258 1.832-0.719 0.379-0.32 1.109-0.742 2.187-1.262 0.801-0.379 1.18-0.668 1.141-0.871-0.039-0.437-0.117-0.847-0.238-1.226-0.161-0.5-0.313-0.653-0.45-0.454-0.062 0.102 0.008 0.411 0.207 0.93 0.184 0.442 0.082 0.762-0.297 0.961zm-6.871 0c-0.738 0.301-1.25 0.488-1.531 0.57-0.48 0.161-0.859 0.161-1.137 0-0.121-0.058-0.55-0.218-1.293-0.48-0.558-0.199-0.929-0.402-1.109-0.602-0.379-0.457-0.68-0.82-0.898-1.078-0.442-0.519-0.789-0.82-1.051-0.902-0.399-0.117-0.891-0.188-1.469-0.207-0.66-0.02-1.082 0.07-1.262 0.269-0.238 0.258-0.41 0.418-0.507 0.481-0.204 0.098-0.524 0.168-0.961 0.207-0.481 0.043-0.961-0.047-1.442-0.27-0.441-0.211-0.605-0.394-0.496-0.554-0.371 0.117-0.707 0.23-1.004 0.332 0.047 0.031 0.098 0.066 0.153 0.105 0.48 0.34 1.078 0.641 1.8 0.899 0.778 0.3 1.348 0.402 1.707 0.3 0.18-0.039 0.461-0.32 0.84-0.839 0.301-0.403 0.692-0.551 1.172-0.454 0.66 0.161 1.109 0.313 1.352 0.454 0.257 0.16 0.5 0.457 0.718 0.898 0.598 1.102 1.352 1.652 2.25 1.652 0.262 0 0.579 0.137 0.961 0.418 0.301 0.219 0.7 0.25 1.2 0.09 0.878-0.281 1.808-0.519 2.789-0.719 0.382-0.101 0.91-0.109 1.589-0.031 0.54 0.063 0.969-0.019 1.29-0.238 0.402-0.301 0.621-0.52 0.66-0.66 0-0.039-0.051-0.289-0.149-0.75-0.062-0.262 0.047-0.672 0.328-1.231 0.2-0.422 0.192-0.64-0.031-0.66-0.219-0.019-0.41-0.082-0.57-0.18-0.039-0.019-0.078 0.02-0.117 0.118-0.039 0.183-0.071 0.492-0.09 0.933-0.039 0.516-0.031 0.918 0.027 1.199 0.16 0.68-0.219 1.02-1.137 1.02-0.121 0-0.519-0.07-1.199-0.211-0.441-0.078-0.902-0.039-1.383 0.121zm-5.757-3.422c-0.661-0.058-1.063-0.109-1.204-0.148-0.238-0.082-0.398-0.129-0.476-0.153-0.121-0.039-0.402-0.058-0.844-0.058-0.234 0-0.605 0.055-1.109 0.164 0.265 0.059 0.758 0.191 1.469 0.406 0.722 0.242 1.273 0.36 1.652 0.36h1.168c0.34 0.062 0.64 0.25 0.902 0.57 0.32 0.383 0.84 0.672 1.559 0.871 0.781 0.199 1.351 0.16 1.711-0.121 0.34-0.258 0.781-0.481 1.32-0.66 0.398-0.117 0.738-0.188 1.02-0.207 0.218-0.02 0.488-0.071 0.808-0.153 0.34-0.078 0.551-0.16 0.629-0.238 0.121-0.082 0.133-0.254 0.031-0.512-0.117-0.242-0.297-0.328-0.539-0.269-0.199 0.058-0.558 0.219-1.078 0.48-0.641 0.34-1.09 0.559-1.351 0.66-0.602 0.258-1.02 0.418-1.262 0.481-0.481 0.117-0.899 0.098-1.258-0.063-0.281-0.117-0.613-0.316-0.992-0.597-0.379-0.262-0.668-0.442-0.867-0.543-0.262-0.098-0.692-0.188-1.289-0.27zm-9.122 1.457c0.208-0.086 0.446-0.176 0.719-0.269-0.301-0.176-0.508-0.149-0.629 0.074-0.043 0.066-0.07 0.129-0.09 0.195zm1.723-0.601c0.293-0.086 0.609-0.184 0.949-0.285 1.188-0.356 2.125-0.614 2.817-0.762-0.031-0.008-0.063-0.012-0.09-0.016-0.418-0.062-1.117 0.059-2.098 0.36-0.902 0.3-1.422 0.527-1.558 0.687l-0.02 0.016z"
   inkscape:connector-curvature="0" />&#10;          </g>&#10;        </g>&#10;      </g>&#10;      <g
   id="g190">&#10;        <g
   id="g192">&#10;          <g
   id="g198">&#10;            <path
   id="path206"
   style="fill-rule:evenodd;fill:#a89656;fill-opacity:1"
   d="m25.352 9.3c-0.321 0.442-0.774 0.711-1.352 0.809-1.301 0.262-2.52 0.422-3.66 0.48-0.539 0.043-1.16 0.301-1.86 0.782-0.757 0.5-1.32 0.781-1.679 0.84-0.742 0.242-1.293 0.39-1.653 0.449-0.64 0.14-1.308-0.008-2.007-0.449-0.981-0.68-1.672-1.149-2.071-1.411-0.64-0.418-1.191-0.648-1.652-0.691-0.141-0.02-0.797 0.043-1.98 0.184-0.821 0.078-1.411-0.012-1.77-0.274-0.719-0.617-1.238-1.058-1.559-1.316-0.539-0.481-0.761-0.551-0.66-0.211 0.5 1.597 1.36 2.398 2.578 2.398h1.141c1.781-0.199 2.973-0.039 3.57 0.481 0.723 0.601 1.461 1.101 2.223 1.5 1.137 0.621 2.059 0.851 2.758 0.691 0.48-0.121 1.179-0.519 2.101-1.199 0.879-0.641 1.688-1.012 2.43-1.113 1.66-0.219 2.539-0.34 2.641-0.36 0.816-0.14 1.457-0.328 1.918-0.57 0.558-0.316 1.011-0.68 1.351-1.078 0.379-0.422 0.547-0.801 0.508-1.141-0.039-0.359-0.391-0.738-1.047-1.14-0.683-0.418-1.433-0.672-2.254-0.75-0.597-0.059-1.25-0.352-1.949-0.872-0.66-0.5-1.129-0.75-1.41-0.75h-0.988c-0.122 0.02-0.18 0.071-0.18 0.153 0 0.137 0.297 0.328 0.898 0.566 0.481 0.184 1.551 0.571 3.211 1.172 1.481 0.559 2.328 1.039 2.551 1.442 0.262 0.457 0.211 0.917-0.148 1.378z"
   inkscape:connector-curvature="0" />&#10;          </g>&#10;        </g>&#10;      </g>&#10;      <g
   id="g208">&#10;        <g
   id="g210">&#10;          <g
   id="g216">&#10;            <path
   id="path224"
   style="fill-rule:evenodd;fill:#e9d275;fill-opacity:1"
   d="m25.141 9.539c-0.34 0.441-0.789 0.711-1.352 0.812-1.301 0.258-2.519 0.418-3.66 0.481-0.539 0.039-1.16 0.3-1.859 0.777-0.758 0.5-1.329 0.781-1.711 0.844-0.739 0.238-1.289 0.386-1.649 0.449-0.621 0.141-1.281-0.012-1.98-0.449-1-0.684-1.692-1.153-2.071-1.41-0.64-0.422-1.199-0.653-1.679-0.692-0.141-0.019-0.789 0.039-1.953 0.18-0.84 0.082-1.43-0.012-1.77-0.27-0.719-0.621-1.238-1.058-1.559-1.32-0.539-0.48-0.757-0.551-0.66-0.211 0.5 1.602 1.364 2.399 2.582 2.399h1.141c1.777-0.2 2.969-0.051 3.57 0.453 0.637 0.578 1.379 1.09 2.219 1.527 1.141 0.621 2.059 0.852 2.758 0.691 0.461-0.121 1.16-0.519 2.101-1.199 0.879-0.64 1.692-1.012 2.43-1.113 1.699-0.219 2.582-0.34 2.641-0.359 0.8-0.141 1.429-0.329 1.89-0.571 0.559-0.316 1.02-0.679 1.379-1.078 0.383-0.422 0.551-0.801 0.512-1.141-0.039-0.359-0.391-0.738-1.051-1.14-0.699-0.418-1.449-0.668-2.25-0.75-0.621-0.059-1.269-0.352-1.953-0.871-0.66-0.5-1.137-0.75-1.437-0.75h-0.961l0.66 0.539c0.558 0.422 1.14 0.75 1.738 0.992 0.484 0.18 1.27 0.43 2.371 0.75 0.922 0.301 1.492 0.648 1.711 1.051 0.262 0.461 0.211 0.922-0.148 1.379z"
   inkscape:connector-curvature="0" />&#10;          </g>&#10;        </g>&#10;      </g>&#10;      <g
   id="g226">&#10;        <g
   id="g228">&#10;          <g
   id="g234">&#10;            <path
   id="path242"
   style="fill-rule:evenodd;fill:#a5954a;fill-opacity:1"
   d="m25.199 9.031c-0.66 0-1.328 0.269-2.008 0.808-0.363 0.321-0.851 0.84-1.472 1.563-0.36 0.437-0.981 0.629-1.86 0.566-0.781-0.039-1.461-0.226-2.039-0.566-0.761-0.441-1.332-0.844-1.711-1.203-0.519-0.52-0.371-0.75 0.45-0.688 0.183 0 0.871 0.161 2.07 0.481 0.582 0.16 1.141 0 1.68-0.481 0.441-0.422 0.933-0.922 1.472-1.5 0.442-0.359 0.989-0.5 1.649-0.422 0.82 0.102 1.511-0.097 2.07-0.597 0.582-0.52 0.453-0.961-0.391-1.32-0.738-0.321-1.199-0.442-1.379-0.36l-0.031 0.176 0.75 0.453c0.383 0.34 0.332 0.598-0.148 0.777-0.321 0.141-0.84 0.231-1.559 0.274-0.562 0.019-0.992 0.16-1.293 0.418-0.5 0.539-0.879 0.941-1.14 1.199-0.457 0.48-0.911 0.742-1.348 0.781-0.359 0.039-0.852-0.011-1.469-0.148-0.742-0.141-1.371-0.211-1.89-0.211-0.301 0-0.891-0.09-1.774-0.27-0.418-0.101-0.719 0.02-0.898 0.36-0.059 0.117-0.301 0.687-0.719 1.711-0.32 0.777-0.59 1.257-0.813 1.437-0.418 0.379-0.898 0.61-1.437 0.692-0.723 0.097-1.16-0.262-1.32-1.082-0.141-0.801 0.109-1.508 0.75-2.129 0.359-0.36 0.918-0.832 1.679-1.411 1.039-1.101 1.391-1.832 1.051-2.191-0.398-0.398-0.648-0.629-0.75-0.687-0.461-0.219-1.07-0.211-1.832 0.027-0.738 0.242-1.559 0.621-2.457 1.141-0.883 0.543-1.449 0.89-1.711 1.05-0.398 0.243-0.969 0.332-1.711 0.27-0.719-0.078-1.129-0.258-1.23-0.539-0.078-0.281 0.082-0.539 0.48-0.781 0.36-0.219 0.852-0.387 1.469-0.508 0.402-0.082 0.851-0.16 1.351-0.242 0.442-0.059 0.911-0.188 1.411-0.391 0.16-0.059 0.73-0.52 1.711-1.379 0.66-0.578 1.308-0.719 1.949-0.418 0.363 0.156 0.972 0.738 1.832 1.738 0.699 0.821 1.508 1.289 2.429 1.41 0.801 0.083 1.551 0.172 2.25 0.27 0.418-0.02 1.059-0.238 1.918-0.66 0.704-0.34 1.332-0.559 1.891-0.66 0.32-0.059 0.52-0.157 0.602-0.297 0.179-0.32 0.808-0.703 1.886-1.141l-1.347-0.39c0.019 0.101-0.032 0.218-0.153 0.359-0.218 0.281-0.636 0.539-1.257 0.781-0.102 0.039-0.711 0.309-1.829 0.809-0.601 0.262-1.152 0.41-1.652 0.453-0.582 0.039-1.211-0.02-1.891-0.184-0.64-0.136-1.168-0.34-1.589-0.597-0.301-0.18-0.68-0.539-1.141-1.082-0.48-0.559-0.75-0.86-0.809-0.899-0.718-0.601-1.55-0.762-2.488-0.48-0.422 0.121-0.902 0.398-1.441 0.84-0.52 0.441-1.051 0.73-1.59 0.871-1.063 0.257-1.844 0.457-2.344 0.597-0.898 0.243-1.539 0.481-1.918 0.719-0.918 0.582-1.359 1.141-1.32 1.684 0.082 0.679 0.699 1.117 1.859 1.316s2.113 0.063 2.852-0.418c0.48-0.32 1.121-0.82 1.922-1.5 0.82-0.558 1.777-0.918 2.879-1.082 1.16-0.16 1.398 0.191 0.718 1.051-0.218 0.281-1.031 1.082-2.429 2.402-0.782 0.738-1.2 1.387-1.262 1.949-0.059 0.622 0.281 1.239 1.023 1.86 0.719 0.582 1.508 0.699 2.368 0.359 0.781-0.32 1.41-0.918 1.89-1.801 0.039-0.058 0.219-0.75 0.539-2.066 0.102-0.422 0.543-0.363 1.321 0.18 1.679 1.136 2.812 1.859 3.39 2.16 1.399 0.719 2.469 0.918 3.211 0.597 0.617-0.277 1.012-0.609 1.172-0.988 0.238-0.519 0.527-0.922 0.867-1.199 1-0.863 2.133-1.121 3.391-0.781 0.379 0.117 0.879-0.063 1.5-0.539 0.621-0.481 0.969-0.711 1.051-0.692 0.359 0.121 0.589 0.141 0.691 0.059 0.039-0.039 0.047-0.09 0.027-0.149 0-0.519-0.148-0.781-0.449-0.781-0.121 0-0.351 0.18-0.691 0.539-0.34 0.403-0.641 0.641-0.899 0.723-0.281 0.058-0.609 0.078-0.988 0.058-0.742-0.039-1.273-0.058-1.594-0.058z"
   inkscape:connector-curvature="0" />&#10;          </g>&#10;        </g>&#10;      </g>&#10;      <g
   id="g244">&#10;        <g
   id="g246">&#10;          <g
   id="g252">&#10;            <path
   id="path260"
   style="fill-rule:evenodd;fill:#f1de91;fill-opacity:1"
   d="m25.02 9.211c-0.661 0-1.329 0.281-2.012 0.839-0.34 0.282-0.828 0.789-1.469 1.532-0.359 0.437-0.98 0.629-1.859 0.57-0.801-0.043-1.481-0.23-2.039-0.57-0.782-0.442-1.352-0.84-1.711-1.203-0.5-0.5-0.352-0.731 0.449-0.688 0.18 0 0.883 0.16 2.101 0.481 0.579 0.16 1.129 0 1.649-0.481 0.441-0.422 0.93-0.922 1.473-1.5 0.457-0.359 1.007-0.5 1.648-0.422 0.82 0.121 1.512-0.078 2.07-0.597 0.582-0.5 0.45-0.93-0.39-1.29-0.739-0.32-1.2-0.453-1.379-0.39l-0.031 0.18 0.75 0.449c0.382 0.34 0.332 0.609-0.149 0.808-0.34 0.141-0.851 0.231-1.531 0.274-0.582 0.015-1.012 0.148-1.289 0.386-0.5 0.543-0.879 0.954-1.141 1.231-0.48 0.48-0.93 0.742-1.351 0.781-0.36 0.02-0.86-0.031-1.5-0.152-0.719-0.16-1.352-0.238-1.887-0.238-0.301 0-0.891-0.09-1.774-0.27-0.418-0.082-0.718 0.039-0.898 0.359-0.039 0.079-0.281 0.649-0.719 1.711-0.32 0.758-0.59 1.239-0.812 1.438-0.418 0.402-0.899 0.633-1.442 0.691-0.718 0.121-1.156-0.238-1.316-1.082-0.141-0.777 0.109-1.48 0.75-2.097 0.359-0.36 0.918-0.832 1.68-1.411 1.019-1.14 1.371-1.871 1.05-2.191-0.359-0.398-0.609-0.641-0.75-0.719-0.461-0.218-1.07-0.211-1.832 0.032-0.738 0.257-1.558 0.64-2.457 1.136-0.882 0.563-1.453 0.922-1.711 1.082-0.402 0.219-0.968 0.301-1.711 0.242-0.718-0.082-1.128-0.261-1.23-0.543-0.078-0.281 0.082-0.539 0.48-0.781 0.36-0.219 0.852-0.386 1.469-0.508 0.403-0.082 0.852-0.16 1.352-0.242 0.441-0.058 0.91-0.187 1.41-0.386 0.18-0.063 0.75-0.512 1.711-1.352 0.66-0.602 1.308-0.75 1.949-0.449 0.359 0.179 0.973 0.758 1.832 1.738 0.699 0.82 1.508 1.289 2.43 1.41 1.48 0.18 2.23 0.27 2.25 0.27 0.398 0 1.039-0.219 1.918-0.66 0.703-0.34 1.332-0.559 1.89-0.661 0.321-0.058 0.52-0.16 0.602-0.296 0.18-0.301 0.809-0.684 1.887-1.141l-1.352-0.359c0.024 0.097-0.027 0.218-0.148 0.359-0.219 0.281-0.641 0.539-1.258 0.777-0.883 0.383-1.492 0.641-1.832 0.781-0.598 0.262-1.149 0.411-1.649 0.454-0.601 0.039-1.23-0.012-1.89-0.153-0.641-0.16-1.172-0.359-1.59-0.601-0.301-0.18-0.68-0.539-1.141-1.078-0.48-0.582-0.75-0.891-0.808-0.93-0.723-0.602-1.551-0.762-2.492-0.481-0.399 0.118-0.879 0.411-1.442 0.872-0.519 0.437-1.051 0.718-1.59 0.839-1.058 0.258-1.84 0.457-2.34 0.598-0.898 0.262-1.539 0.512-1.918 0.75-0.941 0.582-1.378 1.129-1.32 1.652 0.078 0.68 0.699 1.118 1.86 1.321 1.16 0.218 2.109 0.086 2.851-0.391 0.481-0.32 1.121-0.832 1.918-1.531 0.82-0.559 1.781-0.91 2.883-1.051 1.16-0.16 1.398 0.18 0.719 1.02-0.223 0.281-1.032 1.082-2.43 2.402-0.781 0.738-1.199 1.398-1.262 1.98-0.058 0.618 0.281 1.227 1.02 1.828 0.719 0.583 1.511 0.7 2.371 0.36 0.781-0.32 1.41-0.91 1.89-1.77 0.04-0.058 0.219-0.75 0.54-2.07 0.101-0.418 0.539-0.371 1.32 0.152 1.719 1.157 2.851 1.879 3.39 2.157 1.399 0.742 2.469 0.941 3.211 0.601 0.618-0.281 1.008-0.609 1.168-0.988 0.243-0.52 0.532-0.922 0.871-1.199 1.02-0.883 2.149-1.133 3.391-0.754 0.457 0.121 0.899 0.09 1.32-0.09 0.399-0.18 0.668-0.438 0.809-0.777 0.18-0.442 0.559-0.602 1.141-0.481 0-0.5-0.149-0.75-0.45-0.75-0.121 0-0.351 0.18-0.691 0.539-0.34 0.399-0.641 0.629-0.898 0.688-0.282 0.062-0.614 0.082-0.993 0.062-0.738-0.039-1.269-0.058-1.589-0.058z"
   inkscape:connector-curvature="0" />&#10;          </g>&#10;        </g>&#10;      </g>&#10;      <g
   id="g262">&#10;        <g
   id="g264">&#10;          <g
   id="g270">&#10;            <path
   id="path278"
   style="fill-rule:evenodd;fill:#c3b26b;fill-opacity:1"
   d="m25.5 8.308c0.539-0.238 0.91-0.496 1.109-0.777 0.262-0.34 0.313-0.77 0.153-1.289-0.082-0.262-0.184-0.481-0.301-0.66l-0.961-0.512 0.629 1.199c0.281 0.5 0.031 1.02-0.75 1.563-0.18 0.117-0.887 0.5-2.129 1.136-0.559 0.481-0.988 0.774-1.289 0.871-0.481 0.122-1.399-0.179-2.762-0.898-1.277-0.699-2.59-1.051-3.929-1.051h-2.161c-0.297-0.14-0.816-0.082-1.558 0.18-0.86 0.301-1.559 0.441-2.098 0.418-0.703-0.02-1.293-0.27-1.773-0.75-0.078-0.098-0.36-0.5-0.84-1.199-0.141-0.219-0.387-0.52-0.75-0.899-0.258-0.34-0.301-0.722-0.117-1.14 0.179-0.422 0.699-0.782 1.558-1.082 0.418-0.141 0.821-0.239 1.199-0.301-0.281-0.059-1.019 0.062-2.218 0.363-1.582 0.418-2.039 1.117-1.383 2.098 0.164 0.242 0.371 0.461 0.633 0.66 0.218 0.16 0.461 0.48 0.718 0.961 0.442 0.781 1.122 1.359 2.04 1.738 1.121 0.481 2.261 0.442 3.421-0.117 0.36-0.16 0.719-0.262 1.079-0.301 0.203-0.019 0.632-0.031 1.289-0.031 1.543 0 2.621 0.152 3.242 0.453 0.258 0.098 0.871 0.367 1.828 0.809 0.922 0.379 1.613 0.57 2.07 0.57 0.52 0 0.961-0.102 1.321-0.301 0.218-0.101 0.64-0.398 1.261-0.898 0.321-0.262 0.809-0.532 1.469-0.813z"
   inkscape:connector-curvature="0" />&#10;          </g>&#10;        </g>&#10;      </g>&#10;      <g
   id="g280">&#10;        <g
   id="g282">&#10;          <g
   id="g288">&#10;            <path
   id="path296"
   style="fill-rule:evenodd;fill:#e9d892;fill-opacity:1"
   d="m25.352 8.609c0.519-0.238 0.886-0.5 1.109-0.777 0.238-0.344 0.281-0.77 0.117-1.293-0.078-0.258-0.18-0.481-0.297-0.66l-0.961-0.54 0.629 1.2c0.281 0.523 0.031 1.05-0.75 1.59-0.199 0.14-0.91 0.519-2.129 1.14-0.558 0.481-0.992 0.762-1.289 0.84-0.48 0.121-1.402-0.18-2.761-0.898-1.282-0.68-2.59-1.02-3.93-1.02-1.399 0-2.121-0.012-2.16-0.031-0.301-0.141-0.821-0.078-1.559 0.179-0.879 0.301-1.578 0.454-2.101 0.454-0.7-0.02-1.278-0.282-1.739-0.782-0.261-0.261-0.551-0.648-0.871-1.172-0.14-0.218-0.39-0.519-0.75-0.898-0.238-0.359-0.269-0.75-0.09-1.172 0.18-0.418 0.692-0.769 1.532-1.051 0.418-0.156 0.82-0.269 1.199-0.328-0.281-0.058-1.02 0.071-2.219 0.391-1.562 0.418-2.023 1.121-1.383 2.098 0.16 0.222 0.371 0.433 0.629 0.632 0.223 0.18 0.461 0.508 0.723 0.989 0.437 0.781 1.121 1.359 2.039 1.742 1.121 0.457 2.262 0.418 3.422-0.121 0.359-0.18 0.718-0.282 1.078-0.301 0.14-0.02 0.57-0.031 1.289-0.031 1.519 0 2.601 0.14 3.242 0.422 0.258 0.101 0.871 0.371 1.828 0.808 0.922 0.383 1.621 0.57 2.102 0.57 0.519 0 0.949-0.089 1.289-0.269 0.238-0.117 0.672-0.43 1.289-0.93 0.32-0.261 0.812-0.519 1.473-0.781z"
   inkscape:connector-curvature="0" />&#10;          </g>&#10;        </g>&#10;      </g>&#10;      <g
   id="g298">&#10;        <g
   id="g300">&#10;          <g
   id="g306">&#10;            <path
   id="path314"
   style="fill-rule:evenodd;fill:#e7d17b;fill-opacity:1"
   d="m25.949 6.539c-0.418 0.64-1 1.402-1.738 2.281-0.383 0.422-0.672 0.68-0.871 0.781-0.301 0.16-0.649 0.129-1.051-0.09-0.519-0.3-0.969-0.648-1.348-1.05-0.461-0.5-0.664-0.961-0.601-1.379 0.238-1.481 0.359-2.41 0.359-2.793 0-0.957-1.558-1.379-4.679-1.258-0.282 0-0.329 0.512-0.153 1.531 0.203 1.141-0.07 1.899-0.808 2.277-0.762 0.383-1.442 0.372-2.039-0.027-0.883-0.582-1.461-0.89-1.743-0.93-0.738-0.14-1.429-0.41-2.07-0.812-0.578-0.34-0.98-0.688-1.199-1.051-0.262-0.437-0.59-0.609-0.988-0.508 0.078 0.219 0.218 0.469 0.418 0.75 0.398 0.559 0.878 0.981 1.441 1.258 0.238 0.102 0.949 0.383 2.129 0.84 0.82 0.344 1.379 0.633 1.68 0.871 0.359 0.32 0.851 0.5 1.468 0.539 0.621 0.02 1.153-0.109 1.59-0.387 0.844-0.562 1.262-1.441 1.262-2.64 0-0.66 0.012-1.012 0.031-1.051 0.059-0.18 0.359-0.289 0.899-0.332 0.679-0.039 1.261 0.09 1.738 0.391 0.543 0.339 0.722 0.789 0.543 1.351-0.301 0.719-0.5 1.238-0.602 1.559-0.14 0.543-0.051 1.039 0.274 1.5 0.515 0.801 1.199 1.41 2.039 1.832 1.097 0.558 1.949 0.398 2.547-0.481 0.621-0.882 1.043-1.441 1.261-1.679 0.059-0.063 0.219-0.192 0.481-0.391 0.261-0.18 0.39-0.652 0.39-1.41l-0.418-0.375c0.09 0.211 0.012 0.508-0.242 0.883z"
   inkscape:connector-curvature="0" />&#10;          </g>&#10;        </g>&#10;      </g>&#10;      <path
   id="path316"
   style="fill-rule:evenodd;fill:#ffffff"
   d="m9.27 13.679c0.179 0 0.179-0.058 0-0.179-0.418-0.239-0.668-0.391-0.75-0.45-0.399-0.281-0.598-0.902-0.598-1.859 0-0.203-0.063-0.191-0.184 0.027-0.097 0.223-0.14 0.52-0.117 0.903 0.02 0.418 0.219 0.789 0.598 1.109 0.34 0.301 0.691 0.449 1.051 0.449z"
   inkscape:connector-curvature="0" />&#10;      <path
   id="path318"
   style="fill-rule:evenodd;fill:#ffffff"
   d="m2.641 9.121c0.437 0 0.82-0.071 1.14-0.211 0.321-0.141 0.36-0.211 0.117-0.211-0.078 0-0.406-0.082-0.988-0.238-0.558-0.141-0.969-0.2-1.23-0.184-0.36 0.02-0.379 0.16-0.059 0.422 0.32 0.281 0.66 0.422 1.02 0.422z"
   inkscape:connector-curvature="0" />&#10;      <path
   id="path320"
   style="fill-rule:evenodd;fill:#ffffff"
   d="m12.48 11.672c0.18-0.524 0.211-0.782 0.09-0.782-0.14 0-0.25 0.168-0.332 0.512-0.058 0.297-0.058 0.488 0 0.566 0.063 0.063 0.141-0.039 0.242-0.296z"
   inkscape:connector-curvature="0" />&#10;      <path
   id="path322"
   style="fill-rule:evenodd;fill:#ffffff"
   d="m15.211 13.558c0.258-0.019 0.457-0.117 0.598-0.297 0.121-0.183 0.043-0.222-0.239-0.121-0.179 0.059-0.461 0.071-0.84 0.032-0.382-0.043-0.609-0.043-0.691 0-0.16 0.039-0.07 0.117 0.27 0.238 0.343 0.121 0.64 0.172 0.902 0.148z"
   inkscape:connector-curvature="0" />&#10;      <path
   id="path324"
   style="fill-rule:evenodd;fill:#ffffff"
   d="m20.52 12.961c0.261-0.082 0.378-0.18 0.359-0.301-0.02-0.121-0.16-0.129-0.418-0.031-0.184 0.082-0.512 0.043-0.992-0.118-0.438-0.14-0.707-0.179-0.809-0.121-0.16 0.098 0.039 0.239 0.598 0.418 0.543 0.18 0.961 0.231 1.262 0.153z"
   inkscape:connector-curvature="0" />&#10;      <path
   id="path326"
   style="fill-rule:evenodd;fill:#ffffff"
   d="m14.492 9.961c0.356 0.101 0.488 0.027 0.387-0.211-0.098-0.243-0.328-0.36-0.688-0.36-0.343 0-0.421 0.078-0.242 0.239 0.141 0.16 0.321 0.273 0.543 0.332z"
   inkscape:connector-curvature="0" />&#10;      <path
   id="path328"
   style="fill-rule:evenodd;fill:#ffffff"
   d="m26.879 9.871c0.5-0.02 0.613-0.102 0.332-0.242-0.281-0.118-0.551-0.168-0.813-0.149-0.218 0.02-0.25 0.09-0.089 0.211 0.14 0.141 0.332 0.199 0.57 0.18z"
   inkscape:connector-curvature="0" />&#10;      <path
   id="path330"
   style="fill-rule:evenodd;fill:#ffffff"
   d="m10.051 9.3c0.398-0.082 0.488-0.14 0.269-0.179-0.218-0.043-0.48-0.032-0.781 0.027-0.199 0.043-0.539-0.008-1.019-0.148-0.34-0.082-0.469-0.09-0.391-0.032 0.164 0.141 0.453 0.243 0.871 0.301 0.422 0.082 0.77 0.09 1.051 0.031z"
   inkscape:connector-curvature="0" />&#10;      <path
   id="path332"
   style="fill-rule:evenodd;fill:#ffffff"
   d="m4.98 10.769c0.282 0.063 0.461 0.07 0.54 0.031 0.082-0.039 0-0.101-0.239-0.179-0.16-0.063-0.371-0.242-0.629-0.543-0.222-0.239-0.371-0.317-0.453-0.239-0.097 0.102-0.027 0.27 0.211 0.512 0.219 0.238 0.41 0.379 0.57 0.418z"
   inkscape:connector-curvature="0" />&#10;      <path
   id="path334"
   style="fill-rule:evenodd;fill:#ffffff"
   d="m15.422 7.32c0.156-0.082 0.34-0.219 0.539-0.418 0.18-0.223 0.289-0.422 0.328-0.602 0.059-0.3-0.129-0.16-0.57 0.418-0.117 0.184-0.36 0.321-0.719 0.422-0.379 0.117-0.59 0.199-0.629 0.239-0.101 0.101-0.031 0.152 0.207 0.152 0.262-0.02 0.543-0.09 0.844-0.211z"
   inkscape:connector-curvature="0" />&#10;      <path
   id="path336"
   style="fill-rule:evenodd;fill:#ffffff"
   d="m17.672 7.082c0.359-0.02 0.48-0.09 0.359-0.211-0.121-0.102-0.293-0.11-0.511-0.032-0.18 0.083-0.243 0.141-0.18 0.18 0.039 0.063 0.152 0.082 0.332 0.063z"
   inkscape:connector-curvature="0" />&#10;      <path
   id="path338"
   style="fill-rule:evenodd;fill:#ffffff"
   d="m13.41 6.332c0.32 0.199 0.27 0.039-0.152-0.481-0.418-0.5-0.68-0.711-0.778-0.633-0.101 0.082-0.011 0.262 0.27 0.543 0.219 0.239 0.441 0.43 0.66 0.571z"
   inkscape:connector-curvature="0" />&#10;      <path
   id="path340"
   style="fill-rule:evenodd;fill:#ffffff"
   d="m21.629 9.66c0.262 0.121 0.25 0.051-0.027-0.211-0.422-0.379-0.711-0.641-0.872-0.781-0.199-0.2-0.351-0.45-0.453-0.75-0.117-0.379-0.187-0.579-0.207-0.598-0.121-0.242-0.152-0.051-0.09 0.57 0.02 0.278 0.258 0.629 0.719 1.051 0.383 0.379 0.692 0.617 0.93 0.719z"
   inkscape:connector-curvature="0" />&#10;      <path
   id="path342"
   style="fill-rule:evenodd;fill:#ffffff"
   d="m24.66 7.14c0.02-0.078-0.09-0.07-0.332 0.032-0.316 0.136-0.57 0.218-0.75 0.238-0.98 0.058-1.578 0.172-1.801 0.332-0.078 0.058-0.039 0.078 0.121 0.058 0.301-0.058 0.551-0.082 0.75-0.058 0.422 0.019 0.86-0.051 1.321-0.211 0.441-0.141 0.672-0.27 0.691-0.391z"
   inkscape:connector-curvature="0" />&#10;      <path
   id="path344"
   style="fill-rule:evenodd;fill:#c25105;fill-opacity:1"
   d="m23.91 5.582c-0.219 0-0.281 0.07-0.18 0.207 0.098 0.16 0.258 0.242 0.481 0.242 0.699-0.02 0.898-0.102 0.598-0.242-0.278-0.137-0.579-0.207-0.899-0.207z"
   inkscape:connector-curvature="0" />&#10;      <path
   id="path346"
   style="fill-rule:evenodd;fill:#efdfa1"
   d="m6.871 9.152c0.418-0.02 0.449-0.113 0.09-0.273-0.34-0.18-0.582-0.188-0.723-0.028-0.238 0.238-0.027 0.34 0.633 0.301z"
   inkscape:connector-curvature="0" />&#10;      <path
   id="path348"
   style="fill-rule:evenodd;fill:#efdfa1"
   d="m4.051 7.8c0.32 0 0.59-0.058 0.808-0.179 0.203-0.121 0.27-0.223 0.211-0.301-0.039-0.082-0.258-0.141-0.66-0.18-0.398-0.043-0.699-0.031-0.898 0.028-0.219 0.043-0.262 0.16-0.121 0.363 0.121 0.18 0.339 0.269 0.66 0.269z"
   inkscape:connector-curvature="0" />&#10;      <path
   id="path350"
   style="fill-rule:evenodd;fill:#efdfa1"
   d="m9.27 8.281c0.382 0.019 0.531-0.063 0.453-0.242-0.102-0.137-0.293-0.239-0.571-0.297-0.3-0.121-0.523-0.203-0.66-0.242-0.222-0.082-0.433-0.09-0.633-0.032-0.218 0.082-0.129 0.231 0.27 0.454 0.402 0.218 0.781 0.339 1.141 0.359z"
   inkscape:connector-curvature="0" />&#10;      <path
   id="path352"
   style="fill-rule:evenodd;fill:#ffffff"
   d="m11.25 7.769c0.301-0.359 0.34-0.508 0.121-0.449-0.242 0.059-0.43 0.191-0.57 0.391-0.121 0.16-0.133 0.269-0.031 0.328 0.121 0.062 0.281-0.028 0.48-0.27z"
   inkscape:connector-curvature="0" />&#10;      <path
   id="path354"
   style="fill-rule:evenodd;fill:#ffffff"
   d="m9.238 6.48c0.641-0.16 0.981-0.281 1.024-0.359 0.039-0.039-0.114-0.071-0.453-0.09-0.278-0.039-0.598 0.019-0.961 0.18-0.36 0.14-0.586 0.289-0.688 0.449-0.058 0.14 0.008 0.172 0.211 0.09 0.539-0.18 0.828-0.27 0.867-0.27z"
   inkscape:connector-curvature="0" />&#10;      &#10;      <path
   id="path358"
   style="fill-rule:evenodd;fill:#ffffff"
   d="m14.309 11.55c0.539-0.082 0.793-0.179 0.75-0.3-0.02-0.118-0.161-0.18-0.418-0.18-0.219 0-0.481 0.031-0.782 0.09-0.339 0.058-0.539 0.129-0.597 0.211-0.102 0.097-0.043 0.168 0.179 0.211 0.239 0.039 0.528 0.027 0.868-0.032z"
   inkscape:connector-curvature="0" />&#10;      <path
   id="path360"
   style="fill-rule:evenodd;fill:#efdfa1"
   d="m17.191 10.558c1.118 0 1.438-0.058 0.957-0.179-0.617-0.161-1.027-0.231-1.226-0.211-0.223 0.019-0.293 0.089-0.215 0.211 0.102 0.121 0.262 0.179 0.484 0.179z"
   inkscape:connector-curvature="0" />&#10;      <path
   id="path362"
   style="fill-rule:evenodd;fill:#ffffff"
   d="m17.789 9.269c0.402 0.16 0.5 0.153 0.301-0.027-0.199-0.16-0.461-0.32-0.781-0.481-0.258-0.121-0.668-0.199-1.231-0.242-0.5-0.039-0.871-0.039-1.109 0-0.18 0.02-0.071 0.09 0.332 0.211 0.398 0.102 0.758 0.149 1.078 0.149 0.281 0 0.531 0.043 0.75 0.121 0.121 0.039 0.34 0.129 0.66 0.269z"
   inkscape:connector-curvature="0" />&#10;      <path
   id="path364"
   style="fill-rule:evenodd;fill:#efdfa1"
   d="m18.121 4.621c0.098 0 0.199-0.082 0.301-0.242 0.078-0.161 0.027-0.27-0.152-0.329-0.2-0.039-0.411-0.019-0.629 0.059-0.219 0.102-0.364 0.242-0.422 0.422-0.059 0.117-0.02 0.18 0.121 0.18 0.441-0.059 0.699-0.09 0.781-0.09z"
   inkscape:connector-curvature="0" />&#10;      <path
   id="path366"
   style="fill-rule:evenodd;fill:#efdfa1"
   d="m15.48 4.8c0.34 0.2 0.309-0.058-0.089-0.781-0.082-0.14-0.262-0.219-0.539-0.238-0.262-0.02-0.461 0.039-0.602 0.18-0.098 0.101 0 0.23 0.301 0.39 0.199 0.078 0.508 0.231 0.929 0.449z"
   inkscape:connector-curvature="0" />&#10;      &#10;      <path
   id="path370"
   style="fill-rule:evenodd;fill:#ffffff"
   d="m8.879 5.519c0.281 0.059 0.273-0.051-0.027-0.328-0.282-0.262-0.532-0.441-0.75-0.543-0.18-0.059-0.153 0.063 0.089 0.359 0.239 0.301 0.469 0.473 0.688 0.512z"
   inkscape:connector-curvature="0" />&#10;      <path
   id="path372"
   style="fill-rule:evenodd;fill:#ffffff"
   d="m22.23 10.41c0.879-0.258 1.399-0.649 1.559-1.168-0.16 0.18-0.551 0.398-1.168 0.66-0.66 0.258-1 0.398-1.019 0.418-0.102 0.059-0.071 0.098 0.089 0.121 0.161 0.039 0.34 0.027 0.539-0.031z"
   inkscape:connector-curvature="0" />&#10;      &#10;      &#10;      <path
   id="path378"
   style="display:inline;fill:#ffffff;fill-rule:evenodd"
   d="m 10.922,11.879 c 0.18,0.062 0.207,0.011 0.086,-0.149 -0.117,-0.141 -0.289,-0.269 -0.508,-0.391 -0.539,-0.32 -0.961,-0.449 -1.262,-0.39 -0.16,0.019 -0.14,0.082 0.063,0.183 0.179,0.079 0.367,0.129 0.57,0.149 0.117,0 0.27,0.082 0.449,0.238 0.2,0.18 0.399,0.301 0.602,0.36 z"
   inkscape:connector-curvature="0" />&#10;      <path
   id="path380"
   style="display:inline;fill:#ffffff;fill-rule:evenodd"
   d="m 27.152,8.371 h 0.868 c 0.042,-0.102 0.058,-0.25 0.058,-0.453 0,-1.457 -1.367,-2.7 -4.109,-3.719 C 21.23,3.179 17.922,2.672 14.039,2.672 10.16,2.672 6.848,3.179 4.109,4.199 1.371,5.218 0,6.461 0,7.918 L 0.059,8.371 H 1.078 V 8.129 C 1.078,6.832 2.352,5.73 4.891,4.832 7.43,3.91 10.5,3.449 14.102,3.449 c 3.621,0 6.699,0.461 9.238,1.383 2.543,0.898 3.812,2 3.812,3.297 z"
   inkscape:connector-curvature="0" />&#10;      <path
   id="path382"
   style="display:inline;fill:#bf5712;fill-rule:evenodd;fill-opacity:1"
   d="M 7.449,12.039 C 7.246,11.964 7.09,11.839 6.973,11.664 l 0.953,0.113 C 7.742,11.89 7.586,11.98 7.449,12.039 Z m 1.11,-1.2 C 8.578,10.824 9,10.64 9.824,10.289 10.5,10 10.809,9.789 10.742,9.648 10.66,9.5 10.203,9.382 9.379,9.308 8.621,9.277 8.094,9.23 7.797,9.172 7.289,9.062 6.91,8.75 6.656,8.234 6.613,8.14 6.605,7.867 6.625,7.41 6.645,7.062 6.527,6.8 6.273,6.632 5.684,6.25 5.387,6.406 5.387,7.089 5.387,7.226 5.559,7.57 5.895,8.117 6.062,8.379 5.844,8.675 5.23,9.011 4.512,9.254 4.004,9.461 3.707,9.629 3.16,9.945 3.348,10.25 4.277,10.543 4.492,10.601 5.02,10.519 5.863,10.289 6.582,10.093 7.047,10.132 7.258,10.406 7.066,10.91 6.93,11.328 6.844,11.664 c -0.114,0.492 0.086,0.617 0.601,0.375 0.063,0.023 0.125,0.043 0.192,0.058 0.297,0.059 0.593,0.032 0.886,-0.093 -0.211,-0.563 -0.199,-0.95 0.036,-1.165 z"
   inkscape:connector-curvature="0" />&#10;      &#10;      <path
   id="path386"
   style="display:inline;fill:#c25105;fill-rule:evenodd;fill-opacity:1"
   d="m 19.332,10.886 c -0.105,0.5 0.191,0.77 0.887,0.797 0.527,0.016 1.035,-0.086 1.523,-0.304 0.41,0.117 0.781,0.234 1.11,0.351 0.21,0.031 0.496,-0.129 0.855,-0.48 0.395,-0.688 0.574,-0.981 0.539,-0.879 0.043,-0.117 0.184,-0.211 0.41,-0.285 0.125,-0.047 0.125,-0.192 0,-0.438 C 24.402,9.132 24.035,9.011 23.547,9.285 23.039,9.726 22.691,10 22.5,10.109 c -0.422,0.242 -0.918,0.441 -1.488,0.594 -0.614,0.152 -1.172,0.211 -1.68,0.183 z"
   inkscape:connector-curvature="0" />&#10;      <path
   id="path388"
   style="display:inline;fill:#bf5712;fill-rule:evenodd;fill-opacity:1"
   d="m 14.422,7.433 c -0.91,0.063 -1.449,0.137 -1.617,0.231 -0.426,0.258 -0.285,0.508 0.41,0.754 0.594,0.195 1.152,0.289 1.68,0.273 0.253,0 0.742,-0.09 1.457,-0.273 0.464,-0.11 0.878,-0.055 1.238,0.16 0.379,0.457 0.652,0.754 0.824,0.89 0.231,0.196 0.684,0.153 1.359,-0.125 L 19.172,9.605 C 20.059,9.406 20.387,9.14 20.156,8.804 19.754,8.195 19.574,7.812 19.617,7.66 19.66,7.507 20.027,7.273 20.727,6.953 21.297,6.695 21.445,6.375 21.172,5.992 20.957,5.656 20.559,5.605 19.965,5.832 19.289,6.168 18.816,6.359 18.539,6.406 17.715,6.406 17.125,6.422 16.766,6.449 16.133,6.511 15.973,6.8 16.289,7.32 16.184,7.336 15.562,7.371 14.422,7.433 Z"
   inkscape:connector-curvature="0" />&#10;      <path
   id="path390"
   style="fill-rule:evenodd;fill:#bf5712;fill-opacity:1"
   d="m23.77 8.578c0.296-0.063 0.515-0.184 0.664-0.367l0.019-0.024-0.683 0.391zm0.695-0.426c0.101-0.168 0.121-0.363 0.066-0.582-0.551-0.031-1.109 0.008-1.679 0.113-0.786 0.168-1.122 0.43-1.016 0.778 0.105 0.351 0.516 0.421 1.234 0.207 0.364-0.114 0.828-0.286 1.395-0.516z"
   inkscape:connector-curvature="0" />&#10;      <path
   id="path392"
   style="fill-rule:evenodd;fill:#bf5712;fill-opacity:1"
   d="m20.902 4.738c0.043-0.066 0.09-0.141 0.141-0.231-0.398-0.335-1.148-0.562-2.25-0.683-1.016-0.11-1.828-0.094-2.438 0.047 0.145 0.074 0.528 0.363 1.141 0.867 0.442 0.367 0.844 0.578 1.203 0.641 0.508 0.089 0.992 0.015 1.457-0.231 0.188-0.101 0.434-0.238 0.746-0.41z"
   inkscape:connector-curvature="0" />&#10;      <path
   id="path394"
   style="display:inline;fill:#bf5712;fill-rule:evenodd;fill-opacity:1"
   d="m 8.43,6.109 c 0.613,-0.121 1.121,-0.082 1.523,0.113 0.043,0.016 0.359,0.352 0.949,1.008 0.34,0.379 0.782,0.426 1.332,0.137 0.379,-0.231 0.379,-0.488 0,-0.778 C 12.004,6.437 11.609,6.183 11.062,5.836 11.359,5.332 11.57,5.043 11.695,4.964 11.863,4.875 12.297,4.82 12.996,4.804 14.074,4.777 14.652,4.754 14.738,4.738 15.352,4.632 15.617,4.312 15.531,3.777 12.934,3.746 10.977,3.746 9.668,3.777 8.844,3.808 8.031,3.953 7.227,4.211 6.094,4.578 5.383,4.804 5.09,4.898 5.59,4.761 5.973,4.879 6.246,5.242 6.668,5.789 6.965,6.093 7.133,6.156 7.363,6.246 7.797,6.23 8.43,6.109 Z"
   inkscape:connector-curvature="0" />&#10;      <path
   id="path396"
   style="fill-rule:evenodd;fill:#c25105;fill-opacity:1"
   d="m11.25 5.949h-0.156c0.211 0.457 0.621 0.648 1.234 0.57 0.168-0.531-0.031-0.922-0.601-1.164 0.062-0.031 0.16-0.121 0.285-0.277 0.148-0.137 0.261-0.227 0.347-0.274-0.336-0.242-0.769-0.16-1.297 0.25-0.531 0.414-0.464 0.711 0.188 0.895z"
   inkscape:connector-curvature="0" />&#10;      <path
   id="path398"
   style="fill-rule:evenodd;fill:#c25105;fill-opacity:1"
   d="m8.082 5.261-0.156-0.113c0.125-0.016 0.386-0.121 0.793-0.32-0.34-0.336-0.625-0.403-0.856-0.207-0.234 0.199-0.16 0.414 0.219 0.64z"
   inkscape:connector-curvature="0" />&#10;      <path
   id="path400"
   style="display:inline;fill:#c25105;fill-rule:evenodd;fill-opacity:1"
   d="M 17.59,7.777 H 17.559 C 17.621,7.519 17.961,7.191 18.57,6.793 19.121,6.461 19.617,6.222 20.062,6.086 19.66,5.918 19.176,5.925 18.605,6.109 17.887,6.32 17.391,6.422 17.113,6.406 17.199,5.828 17.062,5.597 16.703,5.718 16.344,5.828 16.07,6.07 15.879,6.449 15.73,6.953 15.613,7.265 15.531,7.386 15.426,7.539 15,7.679 14.262,7.8 14.41,8.152 14.895,8.257 15.723,8.121 16.164,8.027 16.785,7.914 17.59,7.777 Z"
   inkscape:connector-curvature="0" />&#10;      <path
   id="path402"
   style="fill-rule:evenodd;fill:#b35c1b;fill-opacity:1"
   d="m19.652 8.347-0.636 0.117c0.972-0.031 1.207-0.23 0.699-0.593-0.149-0.125-0.285-0.157-0.414-0.094-0.168 0.078-0.211 0.266-0.125 0.57 0.105 0.016 0.262 0.016 0.476 0z"
   inkscape:connector-curvature="0" />&#10;      <path
   id="path404"
   style="fill-rule:evenodd;fill:#b35c1b;fill-opacity:1"
   d="m20.664 10.703c-0.316 0.105-0.551 0.242-0.699 0.41 0.359 0.121 0.824 0.144 1.394 0.07 0.219-0.031 0.493-0.066 0.825-0.113 0.011-0.055 0.043-0.148 0.097-0.277 0.063-0.153 0.082-0.274 0.063-0.364 0.633-0.14 1.086-0.445 1.363-0.918 0.25-0.484-0.055-0.562-0.918-0.226-0.234 0.078-0.457 0.242-0.668 0.504-0.254 0.304-0.453 0.5-0.601 0.593-0.149 0.09-0.434 0.2-0.856 0.321z"
   inkscape:connector-curvature="0" />&#10;      <path
   id="path406"
   style="fill-rule:evenodd;fill:#c25105;fill-opacity:1"
   d="m11.918 10.578c0.144 0.051 0.348 0.07 0.602 0.054l-0.239-0.031c0.043-0.015 0.082-0.031 0.11-0.058 0.129-0.106 0.105-0.297-0.063-0.571-0.57 0.016-0.801 0.137-0.695 0.364 0.031 0.082 0.086 0.148 0.172 0.195l-0.078-0.012c0.066 0.028 0.128 0.047 0.191 0.059z"
   inkscape:connector-curvature="0" />&#10;      <path
   id="path408"
   style="display:inline;fill:#c25105;fill-rule:evenodd;fill-opacity:1"
   d="M 9.762,10.382 C 10.141,10.214 10.828,9.957 11.824,9.605 11.379,9.437 10.754,9.285 9.953,9.148 9.086,8.98 8.453,8.836 8.051,8.714 7.48,8.531 7.027,8.058 6.688,7.297 6.352,6.566 6.023,6.164 5.707,6.086 5.641,7.074 5.77,7.824 6.086,8.328 c 0.402,0.609 1.16,1.011 2.281,1.211 -0.551,0.394 -0.855,0.875 -0.918,1.437 0.129,0 0.309,-0.027 0.539,-0.09 0.114,0.297 0.2,0.516 0.254,0.664 0.36,-0.503 0.863,-0.894 1.52,-1.168 z"
   inkscape:connector-curvature="0" />&#10;      <path
   id="path410"
   style="fill-rule:evenodd;fill:#c25105;fill-opacity:1"
   d="m10.98 12.336-0.046 0.011c0.57-0.043 0.855-0.242 0.855-0.593-0.019-0.336-0.293-0.434-0.824-0.297-0.508 0.136-0.664 0.359-0.473 0.664 0.106 0.164 0.27 0.234 0.488 0.215z"
   inkscape:connector-curvature="0" />&#10;      <path
   id="path412"
   style="fill-rule:evenodd;fill:#c25105;fill-opacity:1"
   d="m22.977 7.433-0.317 0.903c0.039-0.082 0.262-0.305 0.668-0.672 0.274-0.246 0.293-0.465 0.063-0.664-0.192-0.2-0.559-0.231-1.11-0.09-0.593 0.195-0.992 0.332-1.207 0.41 0.086 0.441 0.371 0.672 0.856 0.684 0.465 0.015 0.816-0.172 1.047-0.571z"
   inkscape:connector-curvature="0" />&#10;      <path
   id="path414"
   style="fill:#c25105;fill-rule:evenodd;fill-opacity:1"
   d="m 12.747875,8.8175303 -0.793,0.113 c 0.277,0.246 0.613,0.313 1.016,0.207 0.402,-0.105 0.515,-0.312 0.347,-0.617 -0.105,-0.183 -0.433,-0.351 -0.98,-0.504 -0.383,-0.105 -0.774,-0.175 -1.172,-0.203 -0.086,0.336 0.039,0.602 0.379,0.801 0.336,0.18 0.738,0.25 1.203,0.203 z"
   inkscape:connector-curvature="0" />&#10;      <path
   id="path416"
   style="fill-rule:evenodd;fill:#c25105;fill-opacity:1"
   d="m17.605 10.863c0.481-0.09 0.833-0.129 1.063-0.117 0-0.332-0.211-0.547-0.633-0.637-0.426-0.094-0.836-0.055-1.238 0.113 0.055 0.387 0.324 0.598 0.808 0.641z"
   inkscape:connector-curvature="0" />&#10;      <path
   id="path418"
   style="fill-rule:evenodd;fill:#c25105;fill-opacity:1"
   d="m15.371 5.718h-0.238c0.265-0.023 0.523-0.093 0.777-0.203 0.445-0.199 0.625-0.465 0.539-0.801-1.14 0.059-1.984 0.29-2.535 0.684 0.148 0.215 0.348 0.344 0.602 0.391 0.273 0.058 0.558 0.039 0.855-0.071z"
   inkscape:connector-curvature="0" />&#10;      <path
   id="path420"
   style="display:inline;fill:#c25105;fill-rule:evenodd;fill-opacity:1"
   d="M 8.398,7.089 8.082,7.207 C 8.949,7.312 9.254,7.144 9,6.703 8.746,6.277 8.281,6.183 7.605,6.429 c -0.082,0.41 0.18,0.633 0.793,0.66 z"
   inkscape:connector-curvature="0" />&#10;      <path
   id="path422"
   style="display:inline;fill:#c25105;fill-rule:evenodd;fill-opacity:1"
   d="M 17.035,12.793 C 17.008,12.8 16.98,12.8 16.957,12.804 h 0.207 c -0.043,0 -0.086,-0.004 -0.129,-0.011 0.414,-0.039 1.219,-0.075 2.426,-0.102 0.019,-0.383 -0.445,-0.648 -1.395,-0.801 -1.183,-0.195 -1.921,-0.41 -2.218,-0.64 -0.125,0.414 -0.043,0.777 0.254,1.097 0.226,0.258 0.535,0.407 0.933,0.446 z"
   inkscape:connector-curvature="0" />&#10;      &#10;      &#10;      &#10;      &#10;      &#10;      &#10;      &#10;      &#10;      &#10;      &#10;      &#10;      &#10;      &#10;      &#10;      &#10;      &#10;      &#10;      &#10;      &#10;      &#10;      &#10;      &#10;      &#10;      &#10;      &#10;      &#10;      &#10;      &#10;      &#10;      &#10;      &#10;      &#10;      &#10;      &#10;      &#10;      &#10;      &#10;      &#10;      &#10;      &#10;      &#10;      &#10;      &#10;      &#10;      &#10;      &#10;      &#10;      &#10;      &#10;      &#10;      &#10;      &#10;      &#10;      &#10;      &#10;      &#10;      &#10;      &#10;    <path
   id="path3644"
   style="display:inline;fill:#865f24;fill-rule:evenodd;stroke-width:0.910665"
   d="M 16.806024,10.090382 C 16.739497,9.9691263 16.574587,9.8204334 16.318788,9.6443031 16.059241,9.4504712 15.751907,9.2778812 15.400535,9.125648 15.070714,8.9734147 14.84771,8.9008384 14.734334,8.9079191 c -0.168659,0.00974 -0.773019,0.3142023 -1.815891,0.9018934 -0.326073,0.1486929 -0.534085,0.2451665 -0.625911,0.2867645 -0.142423,0.07966 -0.274538,0.179671 -0.399158,0.293846 -0.186462,0.211533 -0.299838,0.342525 -0.332633,0.398284 -0.06278,0.127452 -0.04404,0.269064 0.06184,0.421297 0.149919,0.238971 0.468496,0.4567 0.955732,0.650532 0.58562,0.241626 1.075667,0.269063 1.471078,0.07877 0.545329,-0.252246 1.010077,-0.438998 1.394244,-0.553173 0.790821,-0.217729 1.245263,-0.518655 1.365198,-0.898353 0.06278,-0.162854 0.05903,-0.297385 -0.0028,-0.397399 z"
   inkscape:connector-curvature="0" /><path
   id="path3646"
   style="display:inline;fill:#6b4c1c;fill-rule:evenodd;stroke-width:0.910665"
   d="m 11.560741,10.788707 c -0.06278,0.127452 -0.04404,0.269064 0.06184,0.421297 0.08808,0.134532 0.260484,0.273489 0.512535,0.415101 l 0.560321,-0.0655 1.73812,-0.792143 0.274539,-1.8321096 c -0.164911,0.030978 -0.760838,0.321283 -1.789655,0.8744561 -0.326073,0.1486929 -0.534085,0.2451665 -0.625911,0.2867645 -0.142423,0.07966 -0.274538,0.179671 -0.399158,0.293846 -0.186462,0.211533 -0.299838,0.342525 -0.332633,0.398284 z"
   inkscape:connector-curvature="0" /><path
   id="path3648"
   style="display:inline;fill:#996c29;fill-rule:evenodd;stroke-width:0.910665"
   d="m 11.520451,10.978114 0.102132,0.23189 c 0.149919,0.238971 0.468496,0.4567 0.955732,0.650532 0.58562,0.241626 1.075667,0.269063 1.471078,0.07877 0.545329,-0.252246 1.010077,-0.438998 1.394244,-0.553173 0.516283,-0.145152 0.893891,-0.331903 1.138445,-0.562909 L 14.986385,9.9000903 14.694043,9.7894557 c -0.58562,0.4142163 -1.109399,0.6912453 -1.566651,0.8328573 -0.424457,0.121255 -0.95948,0.238971 -1.606941,0.355801 z"
   inkscape:connector-curvature="0" /><path
   id="path3650"
   style="display:inline;fill:#bd8533;fill-rule:evenodd;stroke-width:0.910665"
   d="m 13.924773,11.441894 c 0.120872,0.100014 0.147107,0.159314 0.07309,0.183211 -0.240807,0.05133 -0.505039,-0.06195 -0.789884,-0.342525 -0.10307,-0.117715 -0.205202,-0.200027 -0.300775,-0.245166 -0.09838,-0.04514 -0.134927,-0.0416 -0.113376,0.0071 0.117124,0.276144 0.311081,0.459355 0.581872,0.546092 0.270791,0.121256 0.285783,0.190292 0.04404,0.207108 L 12.640156,11.56315 c -0.369175,-0.152233 -0.607171,-0.28411 -0.71024,-0.401825 l 0.09557,0.128336 c 0.164911,0.162854 0.332633,0.293846 0.508787,0.386779 0.391663,0.184096 0.717736,0.266408 0.981031,0.249591 0.186462,0.0035 0.44226,-0.07612 0.768334,-0.242511 0.197705,-0.12037 0.523778,-0.252247 0.984778,-0.390319 0.182714,-0.06904 0.391663,-0.128336 0.633407,-0.17967 0.09089,-0.0071 0.182714,-0.0416 0.274539,-0.100899 0.08714,-0.07523 0.127431,-0.134532 0.123683,-0.16905 -0.131179,-0.0239 -0.240807,-0.0071 -0.332632,0.05222 -0.102133,0.114175 -0.259547,0.152233 -0.468496,0.114175 -0.09557,-0.01062 -0.215509,0.01328 -0.362616,0.07877 -0.201454,0.04868 -0.311082,0.07612 -0.328885,0.07612 -0.274538,-0.138072 -0.406654,-0.138072 -0.39541,0.0035 -0.0253,0.162855 -0.113376,0.22127 -0.267043,0.179671 -0.19021,-0.0239 -0.458189,-0.189406 -0.802065,-0.500953 -0.120872,-0.100014 -0.149919,-0.09647 -0.08433,0.0035 0.06278,0.103554 0.157415,0.210648 0.278287,0.328363 0.08058,0.0655 0.212697,0.152234 0.387915,0.262868 z"
   inkscape:connector-curvature="0" /><path
   id="path3660"
   style="display:inline;fill:#865f24;fill-rule:evenodd;stroke-width:0.910665"
   d="M 11.495152,10.342629 C 11.689109,10.148797 11.77625,9.965586 11.762195,9.7894557 11.754699,9.7204197 11.685361,9.5363237 11.549497,9.2460185 11.476412,9.0734284 11.363036,8.9388967 11.205621,8.8450786 10.843005,8.5689346 10.6453,8.413161 10.605009,8.3821833 9.5546409,7.5174631 8.9549659,7.0713844 8.8041102,7.0474873 8.6691833,7.0235902 8.3655979,7.0961665 7.8933538,7.2722968 7.3986219,7.4519675 6.9338738,7.6457993 6.5019204,7.8529073 6.0849589,8.0609004 5.8104202,8.240571 5.6717453,8.3928043 5.5508734,8.527336 5.4815359,8.7105469 5.4627961,8.9424371 c -0.058094,0.4664355 0.35512,0.8948128 1.2330817,1.2957529 0.5453294,0.242511 1.0175735,0.529276 1.4204801,0.854099 0.3991587,0.273489 1.0213215,0.273489 1.8627407,-0.0035 0.6961854,-0.207108 1.2012244,-0.459355 1.5160534,-0.74612 z"
   inkscape:connector-curvature="0" /><path
   id="path3662"
   style="display:inline;fill:#6b4c1c;fill-rule:evenodd;stroke-width:0.910665"
   d="M 11.205621,8.8450786 C 10.843005,8.5689346 10.6453,8.413161 10.605009,8.3821833 9.5771287,7.5519811 8.9990046,7.112983 8.8631407,7.0713844 l -0.593116,2.4136048 1.7315613,1.2028198 0.633407,0.141612 c 0.292342,-0.110635 0.578124,-0.272604 0.860159,-0.486792 0.193957,-0.193832 0.281098,-0.377043 0.267043,-0.5531733 -0.0075,-0.069036 -0.07683,-0.253132 -0.212698,-0.5434372 -0.07309,-0.1725901 -0.186461,-0.3071218 -0.343876,-0.4009399 z"
   inkscape:connector-curvature="0" /><path
   id="path3664"
   style="display:inline;fill:#996c29;fill-rule:evenodd;stroke-width:0.910665"
   d="m 11.495152,10.342629 0.2305,-0.311547 C 10.952633,9.8027319 10.364202,9.6062448 9.9575478,9.4398503 9.6277263,9.3053186 9.2697953,9.056612 8.8809436,8.6928454 L 8.4199434,8.2193292 8.0029819,8.3060667 5.5546213,9.3885158 c 0.2155082,0.321283 0.5959271,0.6045076 1.1412565,0.8496742 0.5453294,0.242511 1.0175735,0.529276 1.4204801,0.854099 0.3991587,0.273489 1.0213215,0.273489 1.8627407,-0.0035 0.6961854,-0.207108 1.2012244,-0.459355 1.5160534,-0.74612 z"
   inkscape:connector-curvature="0" /><path
   id="path3666"
   style="display:inline;fill:#bd8533;fill-rule:evenodd;stroke-width:0.910665"
   d="m 9.1554823,10.670992 c 0.4216464,-0.121255 0.743035,-0.338984 0.9594797,-0.656727 -0.09557,-0.045139 -0.303585,0.04071 -0.6259105,0.259328 -0.475992,0.372617 -0.8526629,0.497413 -1.1234536,0.376157 -0.080581,-0.04779 -0.029984,-0.12391 0.1499187,-0.224809 0.12462,-0.06196 0.3326322,-0.165509 0.6221628,-0.310662 C 9.3353848,9.9930234 9.5040434,9.8655723 9.6427182,9.7301556 9.7813932,9.5956239 9.7523465,9.5885432 9.5546409,9.7097988 9.0018156,10.06914 8.584854,10.259432 8.3065674,10.279788 8.0985551,10.29395 8.0282807,10.210752 8.0873112,10.027541 8.1350978,9.9036306 7.9739351,9.8859291 7.6038232,9.9824025 7.5307378,10.007185 7.395811,9.965586 7.2018536,9.8549514 l -0.120872,-0.097358 c -0.040291,0 -0.1321159,0 -0.2857826,-0.0062 C 6.5721948,9.7478571 6.3960403,9.6823614 6.2714203,9.5469446 6.2095789,9.4469309 6.0924548,9.401792 5.9237962,9.4159532 c -0.032795,0.072576 -0.0075,0.148693 0.073085,0.2318902 0.066527,0.103554 0.1536668,0.1584288 0.2679798,0.1690497 l 0.7027441,0.2938459 c 0.4497563,0.214188 0.7823885,0.415101 1.0063296,0.591231 0.2998375,0.245166 0.5743762,0.377043 0.8198682,0.393859 0.3073334,0.04868 0.7505307,-0.03452 1.3324031,-0.255787 0.42071,-0.155774 0.753342,-0.355801 0.995086,-0.604508 -0.175217,0.154889 -0.52659,0.314203 -1.061612,0.477057 -0.5125354,0.158429 -0.8742144,0.231005 -1.0831636,0.210648 -0.3223253,-0.03098 -0.2595469,-0.114175 0.1789659,-0.252247 z"
   inkscape:connector-curvature="0" /><path
   id="path3668"
   style="display:inline;fill:#865f24;fill-rule:evenodd;stroke-width:0.910665"
   d="M 19.345272,9.4504712 C 19.736935,8.9592535 20.147338,8.551233 20.571795,8.2157889 21.329822,7.6112813 21.640903,7.0297857 21.501291,6.4739574 21.461001,6.2075492 21.366365,6.0030965 21.223005,5.8508632 21.061842,5.7057106 20.765753,5.5295803 20.337547,5.3322081 19.887791,5.1321807 19.415547,4.9728669 18.914256,4.8489561 18.415776,4.7418618 18.104695,4.7135393 17.977264,4.7586783 17.848896,4.8038172 17.365408,5.422486 16.523989,6.61911 c -0.260484,0.3035814 -0.428205,0.5115745 -0.516283,0.6257494 -0.135864,0.1522333 -0.226752,0.3354442 -0.263295,0.5496328 -0.06278,0.3796981 -0.09183,0.6115882 -0.08433,0.6983258 0,0.2141886 0.109628,0.4115607 0.328884,0.5912314 0.362616,0.2903052 0.896702,0.5115745 1.603194,0.6531868 0.842356,0.1902915 1.427976,0.093818 1.753112,-0.286765 z"
   inkscape:connector-curvature="0" /><path
   id="path3670"
   style="display:inline;fill:#6b4c1c;fill-rule:evenodd;stroke-width:0.910665"
   d="M 18.939555,7.5626021 18.134679,5.2773334 C 18.042853,5.1082837 17.983823,4.9418892 17.951028,4.7861156 17.772063,4.8870144 17.296071,5.4986026 16.523989,6.61911 c -0.260484,0.3035814 -0.428205,0.5115745 -0.516283,0.6257494 -0.135864,0.1522333 -0.226752,0.3354442 -0.263295,0.5496328 -0.06278,0.3796981 -0.09183,0.6115882 -0.08433,0.6983258 0,0.2141886 0.109628,0.4115607 0.328884,0.5912314 0.183651,0.1451526 0.483488,0.3009261 0.911694,0.4664355 l 0.600612,-0.2593275 z"
   inkscape:connector-curvature="0" /><path
   id="path3672"
   style="display:inline;fill:#996c29;fill-rule:evenodd;stroke-width:0.910665"
   d="M 21.487237,7.0058887 18.961106,6.124352 18.562884,6.0721325 c -0.385104,0.7921438 -0.802065,1.3559379 -1.245263,1.6878417 -0.03279,0.020357 -0.559384,0.3522607 -1.580705,0.9957116 0.0253,0.069036 0.109628,0.1761303 0.25205,0.3283636 0.362616,0.2903052 0.896702,0.5115745 1.603194,0.6531868 0.842356,0.1867512 1.427976,0.093818 1.753112,-0.286765 C 19.736935,8.9592535 20.147338,8.551233 20.571795,8.2157889 21.06559,7.8422864 21.37386,7.4413465 21.487237,7.0058887 Z"
   inkscape:connector-curvature="0" /><path
   id="path3674"
   style="display:inline;fill:#bd8533;fill-rule:evenodd;stroke-width:0.910665"
   d="m 18.19652,8.4680358 c 0.153667,0.062841 0.366364,0.1522332 0.640903,0.2734888 0.215508,0.093818 0.284845,0.1663945 0.215508,0.2248095 -0.2305,0.1761303 -0.610919,0.090278 -1.14969,-0.2628678 C 17.683985,8.5583137 17.501272,8.4680358 17.347605,8.423782 17.211741,8.399 17.175199,8.420242 17.23704,8.485737 c 0.370112,0.3628816 0.725232,0.5770702 1.069108,0.643451 0.24924,0.051335 0.366364,0.103554 0.351372,0.1584288 0.0037,0.052219 -0.05153,0.093818 -0.161163,0.1177152 C 18.331447,9.454011 17.980075,9.426574 17.445989,9.322135 16.908156,9.184063 16.541792,9.0424507 16.340338,8.897298 l 0.183651,0.1451527 c 0.296089,0.2106483 0.581872,0.3593412 0.852663,0.4460787 0.596864,0.1690497 1.039124,0.2071081 1.332403,0.114175 0.274538,-0.1070943 0.512534,-0.3186277 0.71024,-0.6363704 0.167721,-0.2248095 0.457252,-0.5115745 0.860159,-0.8611799 0.263294,-0.231005 0.468496,-0.379698 0.614666,-0.4425384 0.105881,-0.044254 0.186462,-0.1309914 0.230501,-0.2593276 0.04779,-0.1106346 0.05153,-0.1964871 0.0075,-0.2655231 -0.149918,0.00974 -0.249239,0.072576 -0.297026,0.183211 -0.05809,0.1796706 -0.219256,0.2903052 -0.478803,0.3248232 -0.128368,0.027437 -0.212697,0.051334 -0.24924,0.072576 -0.01499,0.038058 -0.05154,0.076117 -0.102132,0.1141749 -0.176155,0.1725901 -0.289531,0.252247 -0.348561,0.2380857 -0.361679,-0.045139 -0.515346,-0.00708 -0.468496,0.114175 0.09183,0.2248095 0.03748,0.3425248 -0.167722,0.3593412 -0.263295,0.017702 -0.6915,-0.1548884 -1.284616,-0.5213103 -0.216445,-0.1079794 -0.241744,-0.086738 -0.08058,0.058415 0.14617,0.1522332 0.325136,0.2796843 0.541581,0.3867786 z"
   inkscape:connector-curvature="0" /><path
   id="path3668-4"
   style="display:inline;fill:#865f24;fill-rule:evenodd;stroke-width:0.568016"
   d="M 11.318933,6.2603417 C 11.6445,6.0304361 11.985645,5.8394696 12.338473,5.682471 12.968578,5.3995422 13.227163,5.1273838 13.111111,4.8672385 13.07762,4.7425509 12.998955,4.6468606 12.879787,4.5756105 12.745822,4.5076745 12.499699,4.4252399 12.143755,4.3328634 11.769898,4.2392443 11.377348,4.1646803 10.960653,4.1066861 10.546294,4.0565626 10.28771,4.0433068 10.181784,4.0644332 10.075079,4.0855602 9.6731817,4.3751164 8.9737567,4.9351745 c -0.216526,0.1420858 -0.355943,0.2394331 -0.429157,0.2928706 -0.112936,0.07125 -0.188486,0.1569986 -0.218862,0.2572457 -0.05219,0.1777108 -0.07633,0.2862427 -0.0701,0.3268387 0,0.1002471 0.09113,0.1926235 0.273383,0.2767151 0.301422,0.1358721 0.745378,0.2394331 1.332645,0.3057122 0.7002043,0.089062 1.1869973,0.043909 1.4572673,-0.1342151 z"
   inkscape:connector-curvature="0" /><path
   id="path3670-7"
   style="display:inline;fill:#6b4c1c;fill-rule:evenodd;stroke-width:0.568016"
   d="M 10.981683,5.3767588 10.312634,4.3071803 c -0.07633,-0.079121 -0.125398,-0.1569985 -0.152659,-0.2299055 -0.148763,0.047224 -0.5444293,0.3334666 -1.1862183,0.8578997 -0.216526,0.1420858 -0.355943,0.2394331 -0.429157,0.2928706 -0.112936,0.07125 -0.188486,0.1569986 -0.218862,0.2572457 -0.05219,0.1777108 -0.07633,0.2862427 -0.0701,0.3268387 0,0.1002471 0.09113,0.1926235 0.273383,0.2767151 0.152658,0.067936 0.401896,0.140843 0.75784,0.2183067 l 0.499256,-0.1213736 z"
   inkscape:connector-curvature="0" /><path
   id="path3672-6"
   style="display:inline;fill:#996c29;fill-rule:evenodd;stroke-width:0.568016"
   d="M 13.099429,5.1161992 10.999597,4.703612 10.668577,4.679172 c -0.320115,0.3707485 -0.666712,0.6346221 -1.0351183,0.7899637 -0.02726,0.00953 -0.464984,0.1648692 -1.313952,0.4660247 0.02103,0.032311 0.09113,0.082435 0.209515,0.1536846 0.301423,0.1358721 0.745379,0.2394331 1.332646,0.3057122 0.7002043,0.087405 1.1869973,0.043909 1.4572653,-0.1342151 0.325567,-0.229906 0.666712,-0.4208725 1.01954,-0.5778711 0.410464,-0.174811 0.666712,-0.3624637 0.760956,-0.5662718 z"
   inkscape:connector-curvature="0" /><path
   id="path3674-9"
   style="display:inline;fill:#bd8533;fill-rule:evenodd;stroke-width:0.568016"
   d="m 10.364039,5.8005306 c 0.127735,0.029412 0.304538,0.07125 0.532747,0.1280015 0.17914,0.04391 0.236776,0.077878 0.17914,0.105218 -0.191602,0.082435 -0.507823,0.042253 -0.955673,-0.1230305 -0.1822563,-0.067936 -0.3341353,-0.110189 -0.4618703,-0.1309012 -0.112936,-0.011599 -0.143311,-0.00166 -0.09191,0.028997 0.307653,0.1698402 0.6028453,0.2700873 0.8886903,0.3011556 0.207179,0.024026 0.304538,0.048467 0.292076,0.07415 0.0031,0.02444 -0.04283,0.04391 -0.133966,0.055094 C 10.476192,6.261998 10.184116,6.249155 9.7401597,6.200276 9.2930897,6.135654 8.9885517,6.0693749 8.8210937,6.0014388 l 0.152659,0.067936 c 0.246123,0.09859 0.483678,0.1681831 0.708771,0.208779 0.4961403,0.079121 0.8637663,0.096933 1.1075533,0.053437 0.228208,-0.050123 0.426041,-0.1491279 0.590383,-0.2978416 0.139417,-0.105218 0.380088,-0.2394331 0.715002,-0.4030596 0.218862,-0.1081177 0.389435,-0.1777107 0.510938,-0.207122 0.08801,-0.020712 0.154995,-0.061308 0.191602,-0.1213736 0.03973,-0.05178 0.04283,-0.091962 0.0062,-0.1242733 -0.124619,0.00456 -0.207179,0.033968 -0.246902,0.085749 -0.04829,0.084092 -0.182255,0.1358721 -0.398002,0.1520276 -0.106705,0.012841 -0.176803,0.024026 -0.207179,0.033968 -0.01246,0.017812 -0.04284,0.035625 -0.0849,0.053437 -0.146428,0.080778 -0.240671,0.1180596 -0.289739,0.1114317 -0.300644,-0.021126 -0.428379,-0.00331 -0.389435,0.053437 0.07633,0.105218 0.03116,0.1603125 -0.139418,0.1681831 -0.218862,0.00829 -0.574805,-0.072493 -1.0678293,-0.2439898 -0.179919,-0.050538 -0.200949,-0.040596 -0.06698,0.02734 0.1215033,0.07125 0.2702673,0.1309011 0.4501863,0.1810247 z"
   inkscape:connector-curvature="0" /><path
   id="path3668-1"
   style="display:inline;fill:#865f24;fill-rule:evenodd;stroke-width:0.578072"
   d="M 24.171268,9.754842 C 23.777173,9.5686896 23.415253,9.4404641 23.082331,9.3620585 22.485171,9.2186247 22.080646,8.9509217 21.871553,8.5594487 21.760514,8.380078 21.701193,8.2226493 21.686644,8.0828133 c -0.0039,-0.1409246 0.03216,-0.3431228 0.111785,-0.599619 0.08711,-0.2648463 0.202828,-0.5111687 0.347283,-0.744329 0.151355,-0.2217547 0.264229,-0.3360212 0.337603,-0.3472887 0.07375,-0.011555 0.56612,0.2259336 1.480355,0.7143732 0.251047,0.1093271 0.418681,0.1875646 0.509079,0.2317503 0.128022,0.053195 0.252578,0.1397515 0.369866,0.2625728 0.207107,0.2183497 0.329813,0.3545861 0.368252,0.4112399 0.102438,0.1341606 0.152284,0.2918028 0.149108,0.4723778 -0.0085,0.2943544 -0.11974,0.5986728 -0.33912,0.9065927 -0.251311,0.3805688 -0.535437,0.5018541 -0.849585,0.3643569 z"
   inkscape:connector-curvature="0" /><path
   id="path3670-8"
   style="display:inline;fill:#6b4c1c;fill-rule:evenodd;stroke-width:0.578072"
   d="m 23.433256,8.4464527 c 2.733439,2.8269933 0.098,-0.4310309 -0.765861,-1.6811628 -0.04353,-0.1343795 -0.09913,-0.2569187 -0.160297,-0.3646673 0.120988,0.00767 0.606918,0.2430499 1.456571,0.7053279 0.251047,0.109327 0.418681,0.1875646 0.509079,0.2317503 0.128022,0.053195 0.252578,0.1397515 0.369866,0.2625727 0.207107,0.2183498 0.329813,0.3545861 0.368252,0.41124 0.102438,0.1341605 0.152284,0.2918028 0.149109,0.4723778 -0.0052,0.1479036 -0.05256,0.3385125 -0.147422,0.5750514 l -0.368106,0.023932 z"
   inkscape:connector-curvature="0"
   sodipodi:nodetypes="ccccccccccc" /><path
   id="path3672-2"
   style="display:inline;fill:#996c29;fill-rule:evenodd;stroke-width:0.578072"
   d="m 22.131665,8.8882718 0.604977,-1.3360041 0.136857,-0.1562733 c 0.535349,0.3766779 0.974435,0.60044 1.31328,0.6708125 0.02306,0.00258 0.395796,0.047072 1.11858,0.1332007 0.02274,0.051089 0.03969,0.1443371 0.05461,0.2838849 -0.0085,0.2943543 -0.119737,0.5986727 -0.339117,0.9065932 C 24.767848,9.7688364 24.485415,9.8923397 24.171268,9.754842 23.777173,9.5686896 23.415253,9.4404641 23.082331,9.3620585 22.70303,9.2813296 22.386001,9.125848 22.131665,8.8882718 Z"
   inkscape:connector-curvature="0" /><path
   id="path3674-8"
   style="display:inline;fill:#bd8533;fill-rule:evenodd;stroke-width:0.578072"
   d="m 24.168244,8.7830289 c -0.03239,0.087043 -0.07608,0.2090334 -0.129654,0.370171 -0.04271,0.1256353 -0.03618,0.1926093 0.01994,0.2076839 0.177907,0.0388 0.291444,-0.1330164 0.341497,-0.5213913 0.01968,-0.1589522 0.05076,-0.272194 0.09204,-0.3475947 0.04336,-0.057682 0.06837,-0.055713 0.07456,0.0045 0.02314,0.3421399 -0.01873,0.5864918 -0.126733,0.7347723 -0.07674,0.1094919 -0.09936,0.1785427 -0.06702,0.2082625 0.02346,0.033862 0.06581,0.042774 0.12179,0.023727 0.0903,-0.02068 0.219968,-0.1468934 0.387063,-0.3780332 0.152532,-0.2533685 0.23369,-0.4557499 0.246137,-0.6091785 l -0.0052,0.1479037 c -0.01958,0.2238152 -0.0646,0.4056275 -0.133165,0.5439814 -0.161706,0.291089 -0.323232,0.4521578 -0.486861,0.4849491 -0.162801,0.018107 -0.360687,-0.040542 -0.592995,-0.1782182 -0.175676,-0.088771 -0.430484,-0.1785519 -0.761421,-0.2725142 -0.217479,-0.062996 -0.371984,-0.092459 -0.461439,-0.086465 -0.06419,0.00514 -0.138424,-0.02419 -0.217697,-0.090912 -0.07234,-0.054466 -0.114915,-0.1070821 -0.130009,-0.1640088 0.06558,-0.040412 0.135997,-0.031877 0.208329,0.022592 0.109535,0.094516 0.227943,0.113804 0.349927,0.05489 0.06529,-0.022649 0.110988,-0.033845 0.135999,-0.031878 0.02432,0.019166 0.05735,0.031686 0.09611,0.039825 0.154131,0.053444 0.2383,0.06816 0.255516,0.040974 0.125392,-0.1404996 0.206042,-0.1643426 0.244995,-0.073855 0.0702,0.1693055 0.148579,0.2261797 0.24002,0.1730344 0.115465,-0.070611 0.206938,-0.3115839 0.272727,-0.7251382 0.03632,-0.1347954 0.05676,-0.1293408 0.06068,0.011587 0.0134,0.1407111 0.0016,0.2760718 -0.03511,0.4103128 z"
   inkscape:connector-curvature="0" /><path
   id="path3668-17"
   style="display:inline;fill:#865f24;fill-rule:evenodd;stroke-width:0.587423"
   d="m 13.263034,8.8882105 c 0.39707,-0.1997793 0.792688,-0.3550352 1.185264,-0.4717399 0.702136,-0.2111803 1.054188,-0.46684 1.052749,-0.7661038 0.0199,-0.1400923 -0.0141,-0.2556086 -0.0958,-0.3507775 C 15.308425,7.205773 15.113186,7.0793066 14.819838,6.9254777 14.510332,6.7675961 14.175629,6.6275256 13.811675,6.5017507 13.446672,6.3848525 13.211507,6.3314206 13.104299,6.3382924 c -0.107933,0.00675 -0.600452,0.2595985 -1.480578,0.7604229 -0.25965,0.1211523 -0.429235,0.2055071 -0.51924,0.2523137 -0.134258,0.060094 -0.239668,0.1415394 -0.308986,0.2455124 -0.121333,0.1845671 -0.188248,0.2984535 -0.199073,0.3433593 -0.04105,0.1085634 0.0059,0.222374 0.141038,0.3409835 0.224807,0.1926937 0.595464,0.3719351 1.11473,0.5324585 0.615014,0.2022633 1.086431,0.2269275 1.410844,0.074868 z"
   inkscape:connector-curvature="0" /><path
   id="path3670-9"
   style="display:inline;fill:#6b4c1c;fill-rule:evenodd;stroke-width:0.587423"
   d="M 13.311104,7.8803636 13.126632,6.620951 c -0.03861,-0.097219 -0.05237,-0.1889726 -0.04788,-0.2720474 -0.157754,0.028661 -0.643118,0.2788579 -1.455028,0.7498117 -0.25965,0.1211523 -0.429235,0.2055071 -0.51924,0.2523137 -0.134257,0.060094 -0.239668,0.1415394 -0.308986,0.2455124 -0.121333,0.1845671 -0.188248,0.2984535 -0.199073,0.3433593 -0.04105,0.1085634 0.0059,0.222374 0.141039,0.3409835 0.114215,0.096641 0.316255,0.2132603 0.615711,0.3509392 l 0.514226,-0.055997 z"
   inkscape:connector-curvature="0" /><path
   id="path3672-7"
   style="display:inline;fill:#996c29;fill-rule:evenodd;stroke-width:0.587423"
   d="M 15.388219,7.9182154 13.603448,7.1540812 13.305468,7.0775904 C 12.85579,7.4307206 12.425242,7.664108 12.018851,7.776664 c -0.02926,0.0062 -0.500154,0.1082794 -1.413389,0.3061249 0.0063,0.03817 0.05103,0.1030441 0.131999,0.1980952 0.224807,0.1926936 0.595464,0.3719351 1.11473,0.5324584 0.615692,0.200469 1.086431,0.2269276 1.410843,0.074868 0.39707,-0.1997792 0.792688,-0.3550352 1.185264,-0.4717398 0.453498,-0.127285 0.768767,-0.2917815 0.939921,-0.4982553 z"
   inkscape:connector-curvature="0" /><path
   id="path3674-2"
   style="display:inline;fill:#bd8533;fill-rule:evenodd;stroke-width:0.587423"
   d="m 12.562883,8.2459542 c 0.106803,0.051155 0.254171,0.1231815 0.443261,0.2191271 0.148694,0.074624 0.188409,0.1201193 0.123587,0.1410177 C 12.917699,8.666418 12.639935,8.575117 12.290932,8.328444 12.149179,8.2273303 12.025171,8.1586207 11.914805,8.1168874 c -0.100329,-0.029628 -0.132663,-0.023451 -0.09739,0.017514 0.216694,0.2304213 0.450294,0.383593 0.703528,0.4604346 0.182926,0.057328 0.263501,0.098508 0.241388,0.1244386 -0.0072,0.026933 -0.05784,0.041079 -0.147209,0.03942 -0.136873,0.00396 -0.403369,-0.054086 -0.796419,-0.174111 -0.3895,-0.1375427 -0.645707,-0.255341 -0.773691,-0.3542185 l 0.114215,0.096641 c 0.188623,0.1439621 0.381151,0.255227 0.573958,0.333206 0.429219,0.1606594 0.763973,0.2355041 1.008611,0.2252403 0.232859,-0.019796 0.457473,-0.097117 0.671285,-0.2333331 0.172807,-0.092878 0.4517,-0.2018583 0.830323,-0.3284477 0.247913,-0.084013 0.435119,-0.1336031 0.560213,-0.1470931 0.09037,-0.00913 0.16932,-0.042972 0.227979,-0.1024882 0.05817,-0.050073 0.07751,-0.093118 0.05669,-0.1336405 -0.117815,-0.013895 -0.206675,0.00548 -0.26484,0.055551 -0.07937,0.083771 -0.22522,0.1196019 -0.432573,0.1044946 -0.104539,-0.00222 -0.174341,-6.997e-4 -0.206675,0.00548 -0.01888,0.017407 -0.05445,0.032106 -0.100875,0.045041 -0.169322,0.065351 -0.272276,0.091484 -0.315216,0.076891 -0.271075,-0.068311 -0.397218,-0.068324 -0.384225,-9.817e-4 0.02793,0.1254819 -0.03667,0.1783197 -0.198594,0.1610668 -0.207029,-0.024101 -0.505126,-0.1653692 -0.893615,-0.4255976 -0.146705,-0.081919 -0.170343,-0.074331 -0.07352,0.019486 0.08387,0.095522 0.197856,0.1826023 0.344729,0.2640727 z"
   inkscape:connector-curvature="0" /></g>&#10;  </g>&#10;<metadata
   id="metadata1"><rdf:RDF><cc:Work><dc:format>image/svg+xml</dc:format><dc:type
         rdf:resource="http://purl.org/dc/dcmitype/StillImage" /><cc:license
         rdf:resource="http://creativecommons.org/licenses/publicdomain/" /><dc:publisher><cc:Agent
           rdf:about="http://openclipart.org/"><dc:title>Openclipart</dc:title></cc:Agent></dc:publisher></cc:Work><cc:License
       rdf:about="http://creativecommons.org/licenses/publicdomain/"><cc:permits
         rdf:resource="http://creativecommons.org/ns#Reproduction" /><cc:permits
         rdf:resource="http://creativecommons.org/ns#Distribution" /><cc:permits
         rdf:resource="http://creativecommons.org/ns#DerivativeWorks" /></cc:License></rdf:RDF></metadata></svg>
