<?xml version="1.0" encoding="UTF-8" standalone="no"?>
<!-- Created with Inkscape (http://www.inkscape.org/) -->

<svg
   id="svg2"
   xml:space="preserve"
   viewBox="0 0 40 40"
   version="1.1"
   inkscape:version="1.3 (0e150ed6c4, 2023-07-21)"
   sodipodi:docname="champiñon.svg"
   xmlns:inkscape="http://www.inkscape.org/namespaces/inkscape"
   xmlns:sodipodi="http://sodipodi.sourceforge.net/DTD/sodipodi-0.dtd"
   xmlns="http://www.w3.org/2000/svg"
   xmlns:svg="http://www.w3.org/2000/svg"
   xmlns:rdf="http://www.w3.org/1999/02/22-rdf-syntax-ns#"
   xmlns:cc="http://creativecommons.org/ns#"
   xmlns:dc="http://purl.org/dc/elements/1.1/"><sodipodi:namedview
   id="namedview1"
   pagecolor="#ffffff"
   bordercolor="#000000"
   borderopacity="0.25"
   inkscape:showpageshadow="2"
   inkscape:pageopacity="0.0"
   inkscape:pagecheckerboard="0"
   inkscape:deskcolor="#d1d1d1"
   inkscape:zoom="19.425"
   inkscape:cx="19.97426"
   inkscape:cy="20"
   inkscape:window-width="1920"
   inkscape:window-height="991"
   inkscape:window-x="-9"
   inkscape:window-y="-9"
   inkscape:window-maximized="1"
   inkscape:current-layer="g12" />&#10;  <defs
   id="defs6">&#10;    <radialGradient
   id="radialGradient24"
   gradientUnits="userSpaceOnUse"
   cy="2.8501"
   cx="18.3"
   gradientTransform="matrix(-.41032 -.66728 -.67408 .41448 27.165 36.358)"
   r="27.082">&#10;      <stop
   id="stop26"
   style="stop-color:#ffd66e"
   offset="0" />&#10;      <stop
   id="stop28"
   style="stop-color:#806733"
   offset="1" />&#10;    </radialGradient>&#10;    <clipPath
   id="clipPath36">&#10;      <path
   id="path38"
   d="m8 19h12v9h-12v-9z"
   inkscape:connector-curvature="0" />&#10;    </clipPath>&#10;    <mask
   id="mask40">&#10;      <g
   id="g42">&#10;        <g
   id="g44"
   clip-path="url(#clipPath36)">&#10;          <path
   id="path46"
   style="fill:#000000;fill-opacity:0.0898"
   d="m8 19h12v9h-12v-9z"
   inkscape:connector-curvature="0" />&#10;        </g>&#10;      </g>&#10;    </mask>&#10;    <clipPath
   id="clipPath52">&#10;      <path
   id="path54"
   d="m8 19h12v9h-12v-9z"
   inkscape:connector-curvature="0" />&#10;    </clipPath>&#10;    <clipPath
   id="clipPath56">&#10;      <path
   id="path58"
   d="m8 19h12v9h-12v-9z"
   inkscape:connector-curvature="0" />&#10;    </clipPath>&#10;    <clipPath
   id="clipPath80">&#10;      <path
   id="path82"
   d="m11 21h8v6h-8v-6z"
   inkscape:connector-curvature="0" />&#10;    </clipPath>&#10;    <mask
   id="mask84">&#10;      <g
   id="g86">&#10;        <g
   id="g88"
   clip-path="url(#clipPath80)">&#10;          <path
   id="path90"
   style="fill:#000000;fill-opacity:.17970"
   d="m11 21h8v6h-8v-6z"
   inkscape:connector-curvature="0" />&#10;        </g>&#10;      </g>&#10;    </mask>&#10;    <clipPath
   id="clipPath96">&#10;      <path
   id="path98"
   d="m11 21h8v6h-8v-6z"
   inkscape:connector-curvature="0" />&#10;    </clipPath>&#10;    <clipPath
   id="clipPath100">&#10;      <path
   id="path102"
   d="m11 21h8v6h-8v-6z"
   inkscape:connector-curvature="0" />&#10;    </clipPath>&#10;    <radialGradient
   id="radialGradient132"
   gradientUnits="userSpaceOnUse"
   cy="-23.073"
   cx="-9.5635"
   gradientTransform="matrix(-.70176 -.34808 -.50768 1.2371 -1.4343 39.341)"
   r="17.358">&#10;      <stop
   id="stop134"
   style="stop-color:#856d33"
   offset="0" />&#10;      <stop
   id="stop136"
   style="stop-color:#876d35"
   offset="1" />&#10;    </radialGradient>&#10;    <radialGradient
   id="radialGradient150"
   gradientUnits="userSpaceOnUse"
   cy="-14.634"
   cx="-13.398"
   gradientTransform="matrix(-.782 -.04632 -.33416 1.3074 1.4014 35.379)"
   r="9.7373">&#10;      <stop
   id="stop152"
   style="stop-color:#615024"
   offset="0" />&#10;      <stop
   id="stop154"
   style="stop-color:#756337"
   offset="1" />&#10;    </radialGradient>&#10;    <linearGradient
   id="linearGradient168"
   y2="24.511"
   gradientUnits="userSpaceOnUse"
   x2="19.655"
   gradientTransform="matrix(.78336 0 0 -.78336 3.4002 27.56)"
   y1="16.811"
   x1="26.78">&#10;      <stop
   id="stop170"
   style="stop-color:#fcdf95"
   offset="0" />&#10;      <stop
   id="stop172"
   style="stop-color:#d4b46d"
   offset="1" />&#10;    </linearGradient>&#10;    <linearGradient
   id="linearGradient186"
   y2="21.482"
   gradientUnits="userSpaceOnUse"
   x2="21.344"
   gradientTransform="matrix(.78336 0 0 -.78336 3.4002 27.56)"
   y1="28.407"
   x1="27.044">&#10;      <stop
   id="stop188"
   style="stop-color:#bda262"
   offset="0" />&#10;      <stop
   id="stop190"
   style="stop-color:#cfb46e"
   offset="1" />&#10;    </linearGradient>&#10;    <linearGradient
   id="linearGradient204"
   y2="21.862"
   gradientUnits="userSpaceOnUse"
   x2="19.591"
   gradientTransform="matrix(.78336 0 0 -.78336 3.4002 27.56)"
   y1="28.938"
   x1="26.041">&#10;      <stop
   id="stop206"
   style="stop-color:#bda262"
   offset="0" />&#10;      <stop
   id="stop208"
   style="stop-color:#cfb46e"
   offset="1" />&#10;    </linearGradient>&#10;    <linearGradient
   id="linearGradient234"
   y2="23.6"
   gradientUnits="userSpaceOnUse"
   x2="17.856"
   gradientTransform="matrix(.78336 0 0 -.78336 3.4002 27.56)"
   y1="17.475"
   x1="29.558">&#10;      <stop
   id="stop236"
   style="stop-color:#bda262"
   offset="0" />&#10;      <stop
   id="stop238"
   style="stop-color:#cfb46e"
   offset="1" />&#10;    </linearGradient>&#10;    <linearGradient
   id="linearGradient258"
   y2="18.996"
   gradientUnits="userSpaceOnUse"
   x2="26.911"
   gradientTransform="matrix(.78336 0 0 -.78336 3.4002 27.56)"
   y1="25.146"
   x1="14.461">&#10;      <stop
   id="stop260"
   style="stop-color:#b3985d"
   offset="0" />&#10;      <stop
   id="stop262"
   style="stop-color:#b39b5a"
   offset="1" />&#10;    </linearGradient>&#10;    <linearGradient
   id="linearGradient276"
   y2="18.811"
   gradientUnits="userSpaceOnUse"
   x2="27.447"
   gradientTransform="matrix(.78336 0 0 -.78336 3.4002 27.56)"
   y1="30.989"
   x1="28.847">&#10;      <stop
   id="stop278"
   style="stop-color:#bda262"
   offset="0" />&#10;      <stop
   id="stop280"
   style="stop-color:#cfb46e"
   offset="1" />&#10;    </linearGradient>&#10;  </defs>&#10;  <g
   id="g10"
   transform="matrix(1.25,0,0,-1.25,0,40)">&#10;    <g
   id="g12"
   style="display:inline">&#10;      <g
   id="g14"
   style="display:inline;fill:#b99146;fill-opacity:1">&#10;        <g
   id="g16"
   style="fill:#b99146;fill-opacity:1">&#10;          <g
   id="g22"
   style="fill:#b99146;fill-opacity:1">&#10;            <path
   id="path30"
   style="fill:#b99146;fill-opacity:1;fill-rule:evenodd"
   d="m 13.504,26.66 c 2.141,1.016 4.621,1.199 7.441,0.547 2.953,-0.703 4.61,-2.035 4.977,-3.996 C 26.703,19.008 24.891,15.105 20.477,11.5 17.422,8.996 14.535,7.363 11.82,6.605 9.184,5.875 7.043,6.07 5.398,7.191 4.77,7.637 4.246,8.562 3.832,9.973 c -0.473,1.648 -0.574,3.355 -0.316,5.132 0.785,4.911 4.113,8.762 9.988,11.555 z"
   inkscape:connector-curvature="0" />&#10;          </g>&#10;        </g>&#10;      </g>&#10;      &#10;      &#10;      <path
   id="path120"
   style="display:inline;fill:#ffe175;fill-rule:evenodd"
   d="m 15.621,26.348 c 0.34,0.156 0.68,0.195 1.016,0.117 0.445,-0.106 0.629,-0.406 0.551,-0.903 -0.055,-0.363 -0.329,-0.703 -0.825,-1.019 -0.441,-0.285 -0.925,-0.469 -1.449,-0.547 -0.574,-0.078 -0.82,0.195 -0.742,0.824 0.078,0.653 0.562,1.16 1.449,1.528 z"
   inkscape:connector-curvature="0" />&#10;      <g
   id="g122"
   style="display:inline">&#10;        <g
   id="g124">&#10;          <g
   id="g130">&#10;            <path
   id="path138"
   style="fill:#8a6d34;fill-rule:evenodd;fill-opacity:1"
   d="m 25.254,22.742 c 0.211,-1.304 0.094,-2.765 -0.352,-4.387 -0.468,-1.777 -1.214,-3.199 -2.23,-4.269 C 21.363,12.703 19.875,11.465 18.207,10.367 16.141,9.008 14.238,8.211 12.488,7.977 10.789,7.77 9.613,7.832 8.961,8.172 8.777,8.25 8.258,8.762 7.395,9.699 c -1.434,1.465 -0.887,3.867 1.644,7.207 1.227,1.621 2.457,2.938 3.684,3.957 1.566,1.305 3.472,2.414 5.718,3.328 1.516,0.602 2.95,0.797 4.309,0.59 1.488,-0.238 2.324,-0.914 2.504,-2.039 z"
   inkscape:connector-curvature="0" />&#10;          </g>&#10;        </g>&#10;      </g>&#10;      <g
   id="g140"
   style="display:inline;fill:#624d25;fill-opacity:1">&#10;        <g
   id="g142"
   style="fill:#624d25;fill-opacity:1">&#10;          <g
   id="g148"
   style="fill:#624d25;fill-opacity:1">&#10;            <path
   id="path156"
   style="fill:#624d25;fill-opacity:1;fill-rule:evenodd"
   d="m 24.961,20.785 c -0.316,-0.66 -0.887,-1.43 -1.703,-2.312 -0.625,-0.68 -1.41,-1.149 -2.352,-1.411 l -1.215,-0.195 2.118,-0.117 c 0.992,0.027 1.761,0.223 2.312,0.586 -0.836,-0.809 -1.594,-1.238 -2.273,-1.293 -0.418,-0.023 -0.887,0.055 -1.41,0.234 l -0.629,0.235 1.609,-1.25 c 0.547,-0.395 0.992,-0.551 1.332,-0.473 -0.184,-0.101 -0.496,-0.117 -0.941,-0.039 -0.286,0.027 -0.719,0.195 -1.293,0.512 l -0.786,0.468 0.59,-0.82 c 0.418,-0.523 0.926,-1.047 1.528,-1.57 -0.239,-0.024 -0.524,0.121 -0.864,0.433 l -1.8,1.489 c -0.418,-0.418 -0.848,-0.891 -1.293,-1.41 -0.914,-1.047 -1.489,-1.817 -1.723,-2.313 -0.34,-0.809 -0.875,-1.516 -1.606,-2.117 0.184,0.183 0.352,0.418 0.508,0.707 0.106,0.183 0.172,0.484 0.196,0.902 v 0.586 C 15.008,11.043 14.445,10.496 13.582,9.973 12.695,9.449 11.48,9.332 9.941,9.621 c 0.836,0.129 1.852,0.469 3.055,1.016 0.758,0.34 1.316,0.808 1.684,1.41 l 0.351,0.824 c -0.547,-0.68 -1.277,-1.176 -2.191,-1.488 -0.942,-0.289 -2.508,-0.262 -4.699,0.078 1.75,-0.129 3.222,0.027 4.425,0.469 0.758,0.289 1.278,0.64 1.567,1.058 l 0.234,0.547 c -0.601,-0.18 -1.41,-0.297 -2.429,-0.351 -0.993,-0.079 -2.075,0.132 -3.25,0.628 0.445,-0.156 1.449,-0.171 3.015,-0.039 0.992,0.102 1.738,0.325 2.235,0.665 0.257,0.156 0.417,0.312 0.468,0.468 -0.394,-0.156 -0.941,-0.246 -1.644,-0.273 -0.446,-0.028 -1.071,0.105 -1.883,0.39 l -1.055,0.473 c 0.781,-0.234 1.668,-0.301 2.664,-0.195 1.016,0.101 1.723,0.535 2.114,1.293 -0.418,0 -0.887,0.09 -1.411,0.273 -0.312,0.129 -0.691,0.324 -1.136,0.586 l -0.547,0.391 0.742,-0.313 c 0.629,-0.207 1.254,-0.285 1.883,-0.234 1.019,0.051 1.433,0.195 1.254,0.43 -0.262,0.261 -0.524,0.64 -0.785,1.136 l -0.704,1.567 1.172,-1.606 c 0.395,-0.445 0.618,-0.629 0.668,-0.551 l 0.157,0.395 c 0.105,0.234 0.3,1.5 0.585,3.797 0.133,-0.832 0.145,-1.695 0.043,-2.582 -0.105,-0.891 -0.144,-1.426 -0.117,-1.61 0.207,0.34 0.508,0.707 0.899,1.098 0.418,0.395 1.031,1.895 1.84,4.504 l -0.274,-2.543 -0.508,-1.215 c -0.316,-0.812 -0.691,-1.437 -1.136,-1.883 0.523,0.184 1.265,0.668 2.234,1.454 0.965,0.808 2.125,2.441 3.484,4.894 -0.652,-1.855 -1.383,-3.371 -2.191,-4.543 -0.625,-0.863 -1.254,-1.469 -1.883,-1.82 0.43,0.187 1.016,0.453 1.762,0.801 1.515,0.679 3.015,2.101 4.504,4.269 -0.18,-0.836 -0.782,-1.867 -1.801,-3.094 -0.625,-0.757 -1.539,-1.461 -2.742,-2.117 l -1.567,-0.703 c 0.285,0 1.254,0.313 2.899,0.941 1.047,0.364 1.894,0.954 2.547,1.762 0.211,0.242 0.371,0.477 0.488,0.707 z"
   inkscape:connector-curvature="0" />&#10;          </g>&#10;        </g>&#10;      </g>&#10;      <g
   id="g158"
   style="display:inline;fill:#d0aa62;fill-opacity:1">&#10;        <g
   id="g160"
   style="fill:#d0aa62;fill-opacity:1">&#10;          <g
   id="g166"
   style="fill:#d0aa62;fill-opacity:1">&#10;            <path
   id="path174"
   style="fill:#d0aa62;fill-rule:evenodd;fill-opacity:1"
   d="m 23.297,12.676 c 1.879,-1.071 3.394,-1.567 4.543,-1.488 l 0.351,-1.016 C 28.297,9.281 28.023,8.328 27.371,7.312 26.641,6.188 25.766,5.406 24.746,4.961 L 23.453,4.609 c -1.176,0.52 -2.441,1.528 -3.797,3.016 -0.679,0.758 -1.648,1.945 -2.898,3.563 l -1.645,2.234 c 0,0.574 0.157,1.148 0.469,1.723 0.574,1.175 1.578,1.789 3.016,1.839 0.468,0 1.097,-0.507 1.879,-1.527 0.964,-1.305 1.906,-2.23 2.82,-2.781 z"
   inkscape:connector-curvature="0" />&#10;          </g>&#10;        </g>&#10;      </g>&#10;      &#10;      &#10;      <path
   id="path212"
   style="display:inline;fill:#cfb572;fill-rule:evenodd"
   d="M 21.496,8.957 C 21.391,9.113 21.625,9.008 22.199,8.641 22.539,8.434 23.48,8.082 25.02,7.586 25.125,7.48 24.914,7.492 24.395,7.625 23.949,7.73 23.559,7.832 23.219,7.938 22.984,8.016 22.656,8.188 22.238,8.445 21.82,8.684 21.574,8.852 21.496,8.957 Z"
   inkscape:connector-curvature="0" />&#10;      &#10;      <path
   id="path216"
   style="display:inline;fill:#cfb572;fill-rule:evenodd"
   d="M 22.277,9.113 C 23.141,8.852 23.465,8.668 23.258,8.562 23.156,8.512 22.918,8.602 22.555,8.836 22.16,9.074 22.07,9.164 22.277,9.113 Z"
   inkscape:connector-curvature="0" />&#10;      <path
   id="path218"
   style="display:inline;fill:#ffe49e;fill-rule:evenodd"
   d="m 20.398,11.266 c -0.207,0.289 -0.234,0.484 -0.078,0.589 0.129,0.102 0.301,0.102 0.508,0 0.133,-0.054 0.641,-0.378 1.527,-0.98 1.153,-0.68 1.766,-1.086 1.844,-1.215 0.34,-0.469 0.196,-0.629 -0.433,-0.469 -0.418,0.079 -1.016,0.352 -1.801,0.821 -0.809,0.472 -1.332,0.89 -1.567,1.254 z"
   inkscape:connector-curvature="0" />&#10;      &#10;      &#10;      <g
   id="g224"
   style="display:inline">&#10;        <g
   id="g226"
   style="fill:#987c3e;fill-opacity:0.37943262">&#10;          <g
   id="g232"
   style="fill:#987c3e;fill-opacity:0.37943262">&#10;            <path
   id="path240"
   style="fill:#987c3e;fill-rule:evenodd;fill-opacity:0.37943262"
   d="M 28.391,10.367 C 28.152,9.609 27.801,8.824 27.332,8.016 26.445,6.344 25.465,5.301 24.395,4.883 23.586,4.543 22.176,5.34 20.164,7.27 18.91,8.473 17.84,9.648 16.953,10.797 l -1.844,2.625 c -0.05,0.285 -0.05,0.613 0,0.976 0.133,0.758 0.496,1.372 1.098,1.84 0.602,0.496 1.281,0.774 2.039,0.824 0.391,0.028 0.715,0.012 0.977,-0.039 l 0.98,-1.136 c -0.285,0.316 -0.625,0.472 -1.015,0.472 -0.184,0.079 -0.329,0.141 -0.434,0.196 -0.156,0.05 -0.184,0 -0.078,-0.157 0.367,-0.652 0.785,-1.187 1.254,-1.605 0.39,-0.367 0.679,-0.602 0.863,-0.707 -0.707,0.289 -1.281,0.68 -1.727,1.176 -0.339,0.39 -0.636,0.679 -0.898,0.863 -0.262,0.234 -0.367,0.262 -0.313,0.078 0.079,-0.211 0.352,-0.613 0.821,-1.215 -0.262,0.024 -0.524,0.168 -0.785,0.43 -0.418,0.445 -0.692,0.574 -0.821,0.391 -0.183,-0.129 -0.312,-0.247 -0.39,-0.352 -0.157,-0.184 -0.118,-0.418 0.117,-0.703 0.391,-0.418 0.914,-0.887 1.566,-1.41 -0.418,0.156 -0.797,0.363 -1.136,0.625 -0.758,0.601 -1.11,0.836 -1.059,0.707 0.078,-0.211 0.25,-0.473 0.512,-0.785 -0.157,0.132 -0.317,0.25 -0.473,0.351 -0.285,0.211 -0.391,0.235 -0.312,0.082 0.105,-0.211 0.339,-0.539 0.703,-0.98 0.394,-0.473 0.718,-0.797 0.98,-0.981 0.758,-0.625 0.965,-0.863 0.629,-0.703 -0.16,0.024 -0.418,0.129 -0.785,0.313 -0.445,0.234 -0.742,0.441 -0.899,0.625 -0.132,0.183 -0.316,0.34 -0.55,0.468 -0.235,0.161 -0.34,0.211 -0.313,0.161 0.184,-0.262 0.715,-0.903 1.606,-1.922 1.121,-1.278 1.918,-2.035 2.39,-2.27 0.313,-0.156 0.887,-0.629 1.723,-1.41 0.754,-0.68 1.332,-1.059 1.723,-1.137 0.914,-0.211 1.878,0 2.898,0.625 0.758,0.496 1.293,0.992 1.605,1.489 0.262,0.418 0.524,1.007 0.786,1.765 z"
   inkscape:connector-curvature="0" />&#10;          </g>&#10;        </g>&#10;      </g>&#10;      <path
   id="path242"
   style="display:inline;fill:#ffe49e;fill-rule:evenodd"
   d="m 20.828,13.578 c 0.262,-0.234 1.047,-0.863 2.352,-1.879 1.175,-0.918 1.75,-1.453 1.722,-1.609 0,-0.184 -0.613,0.066 -1.84,0.746 -0.835,0.469 -1.566,0.902 -2.195,1.293 -0.207,0.129 -0.508,0.48 -0.898,1.059 -0.367,0.519 -0.59,0.886 -0.668,1.093 -0.024,0.184 0.156,0.172 0.551,-0.039 0.339,-0.183 0.664,-0.402 0.976,-0.664 z"
   inkscape:connector-curvature="0" />&#10;      &#10;      <g
   id="g248"
   style="display:inline;fill:#98772a;fill-opacity:1">&#10;        <g
   id="g250"
   style="fill:#98772a;fill-opacity:1">&#10;          <g
   id="g256"
   style="fill:#98772a;fill-opacity:1">&#10;            <path
   id="path264"
   style="fill:#98772a;fill-rule:evenodd;fill-opacity:1"
   d="M 16.699,16.594 C 16.555,16.52 16.391,16.402 16.207,16.242 15.816,15.902 15.566,15.484 15.465,14.988 15.309,14.363 15.281,13.801 15.387,13.305 L 16.68,11.582 C 17.695,10.273 18.559,9.27 19.262,8.566 20.906,6.867 21.898,5.98 22.238,5.902 23.129,5.668 23.547,5.629 23.492,5.785 L 24.395,4.883 23.609,4.492 C 22.277,5.094 21,6.043 19.773,7.352 c -1.906,2.062 -3.238,3.695 -3.996,4.894 l -0.668,1.176 c -0.234,0.367 -0.195,0.926 0.118,1.683 0.211,0.469 0.523,0.864 0.941,1.176 0.207,0.137 0.383,0.242 0.531,0.313 z"
   inkscape:connector-curvature="0" />&#10;          </g>&#10;        </g>&#10;      </g><path
   id="path246"
   style="display:inline;fill:#ffe49e;fill-rule:evenodd"
   d="m 19.105,11.934 c 0.235,-0.34 0.133,-0.407 -0.312,-0.196 -0.418,0.207 -0.809,0.496 -1.176,0.86 -0.363,0.39 -0.285,0.484 0.235,0.273 0.523,-0.234 0.941,-0.547 1.253,-0.937 z"
   inkscape:connector-curvature="0" />&#10;      &#10;      <g
   id="g266"
   style="display:inline;fill:#c7a769;fill-opacity:1">&#10;        <g
   id="g268"
   style="display:inline;fill:#c7a769;fill-opacity:1">&#10;          <g
   id="g274"
   style="fill:#c7a769;fill-opacity:1">&#10;            <path
   id="path282"
   style="fill:#c7a769;fill-opacity:1;fill-rule:evenodd"
   d="m 27.996,11.07 0.59,-1.449 C 28.742,8.367 28.152,7.047 26.824,5.664 25.984,4.805 25.137,4.375 24.277,4.375 l -1.058,0.234 c -0.313,0.313 -0.563,0.715 -0.746,1.215 -0.364,1.043 -0.207,2.086 0.472,3.133 0.836,1.305 1.93,2.047 3.289,2.231 0.68,0.078 1.266,0.039 1.762,-0.118 z"
   inkscape:connector-curvature="0" />&#10;          </g>&#10;        </g>&#10;      </g>&#10;    </g>&#10;  </g>&#10;<metadata
   id="metadata1"><rdf:RDF><cc:Work><dc:format>image/svg+xml</dc:format><dc:type
         rdf:resource="http://purl.org/dc/dcmitype/StillImage" /><cc:license
         rdf:resource="http://creativecommons.org/licenses/publicdomain/" /><dc:publisher><cc:Agent
           rdf:about="http://openclipart.org/"><dc:title>Openclipart</dc:title></cc:Agent></dc:publisher></cc:Work><cc:License
       rdf:about="http://creativecommons.org/licenses/publicdomain/"><cc:permits
         rdf:resource="http://creativecommons.org/ns#Reproduction" /><cc:permits
         rdf:resource="http://creativecommons.org/ns#Distribution" /><cc:permits
         rdf:resource="http://creativecommons.org/ns#DerivativeWorks" /></cc:License></rdf:RDF></metadata></svg>
