<?xml version="1.0" encoding="UTF-8" standalone="no"?>
<!-- Created with Inkscape (http://www.inkscape.org/) -->

<svg
   width="655.32031mm"
   height="321.15256mm"
   viewBox="0 0 655.32031 321.15256"
   version="1.1"
   id="svg1"
   inkscape:version="1.3 (0e150ed6c4, 2023-07-21)"
   sodipodi:docname="restaurante.svg"
   xmlns:inkscape="http://www.inkscape.org/namespaces/inkscape"
   xmlns:sodipodi="http://sodipodi.sourceforge.net/DTD/sodipodi-0.dtd"
   xmlns="http://www.w3.org/2000/svg"
   xmlns:svg="http://www.w3.org/2000/svg">
  <sodipodi:namedview
     id="namedview1"
     pagecolor="#ffffff"
     bordercolor="#000000"
     borderopacity="0.25"
     inkscape:showpageshadow="2"
     inkscape:pageopacity="0.0"
     inkscape:pagecheckerboard="0"
     inkscape:deskcolor="#d1d1d1"
     inkscape:document-units="mm"
     inkscape:zoom="0.32"
     inkscape:cx="906.25"
     inkscape:cy="414.0625"
     inkscape:window-width="1920"
     inkscape:window-height="991"
     inkscape:window-x="-9"
     inkscape:window-y="-9"
     inkscape:window-maximized="1"
     inkscape:current-layer="g2" />
  <defs
     id="defs1">
    <rect
       x="926.9728"
       y="272.89902"
       width="646.3398"
       height="107.17088"
       id="rect2" />
    <filter
       id="filter7800"
       height="1.5888707"
       width="1.0231748"
       y="-0.29443536"
       x="-0.01158739"
       inkscape:collect="always"
       style="color-interpolation-filters:sRGB">
      <feGaussianBlur
         id="feGaussianBlur7802"
         stdDeviation="0.33484662"
         inkscape:collect="always" />
    </filter>
  </defs>
  <g
     inkscape:label="Layer 1"
     inkscape:groupmode="layer"
     id="layer1"
     transform="translate(206.09808,19.351752)">
    <g
       id="g46807"
       transform="matrix(0.26458333,0,0,0.26458333,-28.371474,-13.314376)">
      <g
         id="g46235"
         transform="matrix(6.1962,0,0,6.1962,-3958.0421,-1100.6668)">
        <g
           id="g44700">
          <g
             id="g7898"
             transform="matrix(0.85341,0,0,0.85341,152.03,-248.26)">
            <g
               id="g65218">
              <g
                 id="g7885"
                 style="display:inline">
                <path
                   inkscape:connector-curvature="0"
                   style="display:inline;fill:#666666;fill-opacity:1;stroke-width:1.84474"
                   sodipodi:nodetypes="ccccc"
                   d="m 443.34593,702.72015 h 468.37833 v 21.56031 H 443.34593 Z"
                   id="path6440-1-4" />
                <path
                   inkscape:connector-curvature="0"
                   style="display:inline;fill:#87cdde;fill-opacity:1;stroke-width:5.8063"
                   sodipodi:nodetypes="ccccc"
                   d="m 443.33509,494.73656 h 468.3904 v 213.58681 h -468.3904 z"
                   id="path6440-1-4-1" />
                <path
                   inkscape:connector-curvature="0"
                   style="display:inline;fill:#800000"
                   sodipodi:nodetypes="ccccc"
                   d="M 556.78,553.83 H 791.84 V 714.59 H 556.78 Z"
                   id="rect6305" />
                <g
                   id="g7875">
                  <path
                     d="m 556.78,700.96 v 13.636 h 104.25 26.562 104.25 V 700.96 H 687.592 661.03 Z"
                     inkscape:connector-curvature="0"
                     style="display:inline;fill:#005500"
                     id="path7350" />
                  <path
                     d="m 556.78,700.97 v 1.9375 H 791.84 V 700.97 Z"
                     inkscape:connector-curvature="0"
                     style="fill:#502d16"
                     id="path7271-6" />
                </g>
                <g
                   id="g7879">
                  <path
                     d="M 577.12,540.25 H 771.5 v 25.233 H 577.12 Z"
                     inkscape:connector-curvature="0"
                     style="display:inline;fill:#008000"
                     sodipodi:nodetypes="ccccc"
                     id="path7695" />
                  <path
                     inkscape:connector-curvature="0"
                     style="display:inline;fill:#008000"
                     sodipodi:nodetypes="ccccc"
                     d="m 555.29,552.56 h 238.04 v 12.928 H 555.29 Z"
                     id="path7246" />
                  <path
                     d="m 555.28,552.56 v 1.9375 H 793.34 V 552.56 Z"
                     inkscape:connector-curvature="0"
                     style="display:inline;fill:#524100;fill-opacity:1"
                     id="path7771" />
                </g>
              </g>
              <g
                 transform="translate(-2.1369708,3.1337043)"
                 id="g6810"
                 style="display:inline">
                <path
                   inkscape:connector-curvature="0"
                   style="display:inline;fill:#000000;fill-opacity:1;stroke-width:1.14295"
                   sodipodi:nodetypes="ccccc"
                   d="m 590.74156,606.64994 h 50.72308 v 76.42503 h -50.72308 z"
                   id="path6440-1" />
                <path
                   inkscape:connector-curvature="0"
                   style="fill:#afdde9;fill-opacity:1"
                   sodipodi:nodetypes="ccccc"
                   d="m 594.29,610.72 h 43.404 v 68.369 H 594.29 Z"
                   id="path6440" />
              </g>
              <g
                 transform="translate(118.76802,3.1337043)"
                 id="g6815"
                 style="display:inline">
                <path
                   inkscape:connector-curvature="0"
                   style="display:inline;fill:#000000;fill-opacity:1;stroke-width:1.14295"
                   sodipodi:nodetypes="ccccc"
                   d="m 590.45246,607.57167 h 50.72308 v 76.42503 h -50.72308 z"
                   id="path6440-1-8" />
                <path
                   d="m 594.29,610.72 h 43.404 v 68.369 H 594.29 Z"
                   inkscape:connector-curvature="0"
                   style="display:inline;fill:#afdde9;fill-opacity:1"
                   sodipodi:nodetypes="ccccc"
                   id="path6821" />
              </g>
              <g
                 id="g7220"
                 transform="translate(0.1280119,1.3439954)"
                 style="display:inline">
                <g
                   transform="translate(2.4883,-2.8878)"
                   id="g6444">
                  <path
                     d="m 586.41,690.47 v -6.5938 h 54.641 v 6.5938 z"
                     inkscape:connector-curvature="0"
                     style="display:inline;fill:#a38200;fill-opacity:1"
                     id="path6042-8"
                     transform="translate(-2.4883064,2.8877941)" />
                  <path
                     inkscape:connector-curvature="0"
                     style="display:inline;fill:#a38200;fill-opacity:1"
                     d="m 707.32,690.47 v -6.5938 h 54.641 v 6.5938 z"
                     id="path7123"
                     transform="translate(-2.4883064,2.8877941)" />
                  <path
                     inkscape:connector-curvature="0"
                     style="display:inline;fill:#000000;fill-opacity:1;stroke-width:1.27586"
                     sodipodi:nodetypes="ccccc"
                     d="m 645.84262,612.09001 h 52.13436 v 92.6547 h -52.13436 z"
                     id="path6440-1-7" />
                  <path
                     inkscape:connector-curvature="0"
                     transform="translate(226.42,1.5438)"
                     style="fill:#502d16;fill-opacity:1"
                     d="m 422.78,613.62 v 86.375 h 44.969 V 613.62 Z m 39.312,44.625 h 3.2812 v 11.781 h -3.2812 z"
                     id="path6344" />
                </g>
                <path
                   d="m 643.09,704.99 v -8.5785 h 62.183 v 8.5785 z"
                   inkscape:connector-curvature="0"
                   style="display:inline;fill:#a38200;fill-opacity:1"
                   id="path7163" />
                <g
                   id="g7845"
                   style="display:inline">
                  <path
                     inkscape:connector-curvature="0"
                     transform="matrix(1.0002,0,0,1.4336,-0.10515,-305.98)"
                     sodipodi:nodetypes="ccccac"
                     d="m 639.51,705.21 v 2.0851 h 69.354 V 705.21 c 0,0 -23.115,-0.6443 -34.677,-0.6443 -11.562,0 -34.677,0.6443 -34.677,0.6443 z"
                     style="display:inline;fill:#542200;fill-opacity:1;filter:url(#filter7800)"
                     id="path7782" />
                  <path
                     d="m 637.51,704.57 v 8.6836 h 73.354 V 704.57 Z"
                     inkscape:connector-curvature="0"
                     style="display:inline;fill:#a38200;fill-opacity:1"
                     id="path7271" />
                </g>
              </g>
              <g
                 transform="translate(-4.8125e-6)"
                 id="g7711"
                 style="display:inline">
                <path
                   inkscape:connector-curvature="0"
                   style="display:inline;fill:#000000"
                   sodipodi:nodetypes="cccccccccc"
                   d="m 575.42,604.22 v 97.192 h 4.7723 V 604.22 Z m 193.01,0 v 97.192 h 4.7723 V 604.22 Z"
                   id="rect6929" />
                <g
                   transform="matrix(1.0526,0,0,1,-36.416,-6.1618)"
                   id="g6889"
                   style="display:inline">
                  <g
                     transform="translate(-0.040575)"
                     id="g6791">
                    <path
                       transform="translate(0.040575)"
                       inkscape:connector-curvature="0"
                       sodipodi:nodetypes="ccssscccccssscccccssscccccscccccccccccsccccccccssscccccssscccccsssccc"
                       d="M 603.44,593.12 573.88,608 v 2.5938 c 0,4.6309 3.4806,8.375 7.7812,8.375 4.3006,0 7.75,-3.7441 7.75,-8.375 V 608 l 24,-14.875 z m 19.906,0 -18.406,14.875 v 2.5938 c 0,4.6309 3.4807,8.375 7.7812,8.375 4.3006,0 7.75,-3.7441 7.75,-8.375 v -2.5938 l 12.844,-14.875 z m 21.781,0 -9.1562,14.875 v 2.5938 c 0,4.6309 3.4807,8.375 7.7812,8.375 4.3006,0 7.75,-3.7441 7.75,-8.375 v -2.5938 l 3.5938,-14.875 z m 23.719,0 -1.875,14.875 v 2.5938 c 0,3.7834 2.3366,6.9585 5.5312,8 0.22686,0.074 0.45234,0.16703 0.6875,0.21875 0.0182,0.004 0.0443,-0.004 0.0625,0 0.23556,0.0499 0.47602,0.0985 0.71875,0.125 0.27983,0.0328 0.55548,0.0312 0.84375,0.0312 0.12733,-9.7e-4 0.24877,-0.0239 0.375,-0.0312 0.12623,0.007 0.24767,0.0303 0.375,0.0312 0.28827,0 0.56392,0.002 0.84375,-0.0312 0.24273,-0.0265 0.48319,-0.0751 0.71875,-0.125 0.0182,-0.004 0.0443,0.004 0.0625,0 0.23516,-0.0517 0.46064,-0.14475 0.6875,-0.21875 3.1946,-1.0415 5.5312,-4.2166 5.5312,-8 v -2.5938 l -1.875,-14.875 h -0.0625 -6.2812 -6.2812 z m 26.438,0 3.5938,14.875 v 2.5938 c 0,4.6309 3.4494,8.375 7.75,8.375 4.3006,0 7.7812,-3.7441 7.7812,-8.375 v -2.5938 l -9.1562,-14.875 z m 21.781,0 12.844,14.875 v 2.5938 c 0,4.6309 3.4494,8.375 7.75,8.375 4.3006,0 7.7812,-3.7441 7.7812,-8.375 v -2.5938 l -18.406,-14.875 z m 19.906,0 24,14.875 v 2.5938 c 0,4.6309 3.4494,8.375 7.75,8.375 4.3006,0 7.7812,-3.7441 7.7812,-8.375 l -0.01,-2.59 -29.56,-14.88 z"
                       style="display:inline;fill:#d40000;fill-opacity:1"
                       id="rect6554" />
                    <path
                       inkscape:connector-curvature="0"
                       transform="translate(1.3243,6.1618)"
                       style="display:inline;fill:#44aa00"
                       d="m 612.12,586.97 -24,14.875 v 2.5938 c 0,4.6309 3.4807,8.375 7.7812,8.375 4.3006,0 7.75,-3.7441 7.75,-8.375 v -2.5938 l 18.406,-14.875 h -9.9375 z m 19.906,0 -12.844,14.875 v 2.5938 c 0,4.6309 3.4494,8.375 7.75,8.375 4.3006,0 7.75,-3.7441 7.75,-8.375 v -2.5938 l 9.1562,-14.875 h -11.812 z m 21.781,0 -3.5938,14.875 v 2.5938 c 0,4.6309 3.4807,8.375 7.7812,8.375 4.3006,0 7.7812,-3.7441 7.7812,-8.375 v -2.5938 l 1.8438,-14.875 h -13.812 z m 26.375,0 1.8438,14.875 v 2.5938 c 0,4.6309 3.4807,8.375 7.7812,8.375 4.3006,0 7.7812,-3.7441 7.7812,-8.375 v -2.5938 l -3.5938,-14.875 h -13.812 z m 23.781,0 9.1562,14.875 v 2.5938 c 0,4.6309 3.4494,8.375 7.75,8.375 4.3006,0 7.75,-3.7441 7.75,-8.375 v -2.5938 l -12.844,-14.875 h -11.812 z m 21.781,0 18.406,14.875 v 2.5938 c 0,4.6309 3.4494,8.375 7.75,8.375 4.3006,0 7.7812,-3.7441 7.7812,-8.375 v -2.5938 l -24,-14.875 h -9.9375 z"
                       id="path6559" />
                  </g>
                  <path
                     inkscape:connector-curvature="0"
                     style="display:inline;fill:#2b1100"
                     d="m 776.39,607.93 c 0,-0.19369 -45.311,-0.35071 -101.21,-0.35071 -55.895,0 -101.21,0.15702 -101.21,0.35071 0,0.19368 45.311,0.3507 101.21,0.3507 55.895,0 101.21,-0.15702 101.21,-0.3507 z"
                     id="path6789" />
                </g>
                <path
                   inkscape:connector-curvature="0"
                   style="display:inline;fill:#008000"
                   sodipodi:nodetypes="cccccccccccc"
                   d="m 573.53,676.66 -2,37.938 h 12.562 l -2,-37.938 z m 193,0 -2,37.938 h 3.9062 4.75 3.9062 l -2,-37.938 z"
                   id="path7266" />
              </g>
            </g>
          </g>
        </g>
      </g>
    </g>
    <path
       inkscape:connector-curvature="0"
       style="display:inline;fill:#e9ddaf;stroke-width:1.39187"
       d="M 30.254713,40.61804 H 203.8658 V 89.184648 H 30.254713 Z"
       sodipodi:nodetypes="ccccc"
       id="rect6477" />
    <path
       inkscape:connector-curvature="0"
       style="display:inline;fill:#a38200;fill-opacity:1;stroke-width:1.39187"
       sodipodi:nodetypes="ccccccccccccccccc"
       d="m 24.162125,35.189571 v 2.885623 6.033576 50.395218 l -13.587166,6.661902 v 8.9192 H 223.55248 v -8.9192 L 209.96532,94.503988 V 44.10877 35.189571 Z m 8.82733,8.919199 H 201.14491 V 85.997521 H 32.989455 Z"
       id="path6042-7" />
    <path
       d="m 117.06026,94.30112 c -50.824655,0 -92.03825,0.253669 -92.03825,0.524658 0,0.270976 41.213595,0.480938 92.03825,0.480938 50.82465,0 91.99532,-0.209962 91.99532,-0.480938 0,-0.270989 -41.16928,-0.524658 -91.99532,-0.524658 z m 0,6.68933 c -58.717327,0 -106.317063,0.20995 -106.317063,0.48094 0,0.27097 47.599736,0.48093 106.317063,0.48093 58.71732,0 106.31706,-0.20996 106.31706,-0.48093 0,-0.27099 -47.59974,-0.48094 -106.31706,-0.48094 z"
       inkscape:connector-curvature="0"
       style="display:inline;fill:#784421;stroke-width:1.39187"
       id="path6789-9" />
    <g
       id="g2"
       transform="matrix(0.26458333,0,0,0.26458333,-56.822119,-0.21644267)">
      <path
         d="m 764.1,706.14 -0.10452,8.4507 h 13.664 l -0.10452,-8.4507 h -13.455 z"
         style="display:inline;fill:#a38200;fill-opacity:1"
         inkscape:connector-curvature="0"
         sodipodi:nodetypes="cccccc"
         id="path6161"
         transform="matrix(5.287899,0,0,5.287899,-2908.557,-2688.4394)" />
      <text
         xml:space="preserve"
         transform="matrix(0.99821126,0,0,1.4040225,-582.40623,-193.04487)"
         id="text2"
         style="font-size:130.667px;line-height:0.8;white-space:pre;shape-inside:url(#rect2);display:inline;fill:#000000"><tspan
           x="926.97266"
           y="362.70983"
           id="tspan1">IRISFERA</tspan></text>
      <path
         inkscape:connector-curvature="0"
         style="display:inline;fill:#a38200;fill-opacity:1"
         d="m 571.08,706.14 -0.10452,8.4507 h 13.664 l -0.10452,-8.4507 h -13.455 z"
         sodipodi:nodetypes="cccccc"
         id="path7869"
         transform="matrix(5.287899,0,0,5.287899,-2908.557,-2688.4394)" />
    </g>
  </g>
</svg>
