<?xml version="1.0" encoding="UTF-8" standalone="no"?>
<!-- Created with Inkscape (http://www.inkscape.org/) -->

<svg
   id="svg2"
   sodipodi:docname="restaurant.svg"
   viewBox="0 0 1258.8373 1075"
   version="1.1"
   inkscape:version="1.3 (0e150ed6c4, 2023-07-21)"
   width="1258.8373"
   height="1075"
   xmlns:inkscape="http://www.inkscape.org/namespaces/inkscape"
   xmlns:sodipodi="http://sodipodi.sourceforge.net/DTD/sodipodi-0.dtd"
   xmlns="http://www.w3.org/2000/svg"
   xmlns:svg="http://www.w3.org/2000/svg"
   xmlns:rdf="http://www.w3.org/1999/02/22-rdf-syntax-ns#"
   xmlns:cc="http://creativecommons.org/ns#"
   xmlns:dc="http://purl.org/dc/elements/1.1/">
  <title
     id="title5179">Store Fronts</title>
  <defs
     id="defs4">
    <linearGradient
       id="linearGradient16181">
      <stop
         id="stop16183"
         style="stop-color:#784421"
         offset="0" />
      <stop
         id="stop16185"
         style="stop-color:#fee47f"
         offset=".5" />
      <stop
         id="stop16187"
         style="stop-color:#784421"
         offset="1" />
    </linearGradient>
    <linearGradient
       id="linearGradient6315">
      <stop
         id="stop6317"
         style="stop-color:#2b1100"
         offset="0" />
      <stop
         id="stop6319"
         style="stop-color:#c8b7b7"
         offset=".5" />
      <stop
         id="stop6321"
         style="stop-color:#2b1100"
         offset="1" />
    </linearGradient>
    <linearGradient
       id="linearGradient3338">
      <stop
         id="stop3340"
         style="stop-color:#000000"
         offset="0" />
      <stop
         id="stop3342"
         style="stop-color:#666666"
         offset="1" />
    </linearGradient>
    <linearGradient
       id="linearGradient7250">
      <stop
         id="stop7252"
         style="stop-color:#083566"
         offset="0" />
      <stop
         id="stop7258"
         style="stop-color:#4fd1f4"
         offset=".5" />
      <stop
         id="stop7254"
         style="stop-color:#083566"
         offset="1" />
    </linearGradient>
    <linearGradient
       id="linearGradient6918">
      <stop
         id="stop6920"
         style="stop-color:#002255"
         offset="0" />
      <stop
         id="stop6922"
         style="stop-color:#55ddff"
         offset="1" />
    </linearGradient>
    <linearGradient
       id="linearGradient6903">
      <stop
         id="stop6905"
         style="stop-color:#2c89a0"
         offset="0" />
      <stop
         id="stop6907"
         style="stop-color:#87decd"
         offset="1" />
    </linearGradient>
    <filter
       id="filter7800"
       height="1.5888707"
       width="1.0231748"
       y="-0.29443536"
       x="-0.01158739"
       inkscape:collect="always"
       style="color-interpolation-filters:sRGB">
      <feGaussianBlur
         id="feGaussianBlur7802"
         stdDeviation="0.33484662"
         inkscape:collect="always" />
    </filter>
    <linearGradient
       x1="-0.60000002"
       x2="743.35999"
       y1="526.92999"
       gradientUnits="userSpaceOnUse"
       y2="526.92999"
       id="linearGradient4440">
      <stop
         offset="0"
         stop-color="#98f9ea"
         id="stop4436" />
      <stop
         offset="1"
         stop-opacity="0"
         stop-color="#98f9ea"
         id="stop4438" />
    </linearGradient>
  </defs>
  <sodipodi:namedview
     id="base"
     bordercolor="#666666"
     inkscape:pageshadow="2"
     inkscape:window-y="-9"
     pagecolor="#ffffff"
     inkscape:window-height="991"
     inkscape:window-maximized="1"
     inkscape:zoom="0.67"
     inkscape:window-x="-9"
     showgrid="false"
     borderopacity="1.0"
     inkscape:current-layer="layer1"
     inkscape:cx="385.07463"
     inkscape:cy="608.20896"
     inkscape:showpageshadow="false"
     inkscape:window-width="1920"
     inkscape:pageopacity="0.0"
     inkscape:document-units="px"
     fit-margin-top="0"
     fit-margin-left="0"
     fit-margin-right="0"
     fit-margin-bottom="0"
     inkscape:pagecheckerboard="0"
     inkscape:deskcolor="#d1d1d1" />
  <g
     id="layer1"
     inkscape:label="Layer 1"
     inkscape:groupmode="layer"
     transform="translate(-27.760766,-15.282669)">
    <g
       id="g46807"
       transform="translate(107.53,-49.504)">
      <g
         id="g46235"
         transform="matrix(6.1962,0,0,6.1962,-3958.0421,-1100.6668)">
        <g
           id="g44700">
          <g
             id="g7898"
             transform="matrix(0.85341,0,0,0.85341,152.03,-248.26)">
            <g
               id="g65218">
              <g
                 id="g7885"
                 style="display:inline">
                <path
                   inkscape:connector-curvature="0"
                   style="display:inline;fill:#800000"
                   sodipodi:nodetypes="ccccc"
                   d="M 556.78,553.83 H 791.84 V 714.59 H 556.78 Z"
                   id="rect6305" />
                <g
                   id="g7875">
                  <path
                     d="m 556.78,700.96 v 13.636 h 104.25 26.562 104.25 V 700.96 H 687.592 661.03 Z"
                     inkscape:connector-curvature="0"
                     style="display:inline;fill:#005500"
                     id="path7350" />
                  <path
                     d="m 556.78,700.97 v 1.9375 H 791.84 V 700.97 Z"
                     inkscape:connector-curvature="0"
                     style="fill:#502d16"
                     id="path7271-6" />
                </g>
                <g
                   id="g7879">
                  <path
                     d="M 577.12,540.25 H 771.5 v 25.233 H 577.12 Z"
                     inkscape:connector-curvature="0"
                     style="display:inline;fill:#008000"
                     sodipodi:nodetypes="ccccc"
                     id="path7695" />
                  <path
                     inkscape:connector-curvature="0"
                     style="display:inline;fill:#008000"
                     sodipodi:nodetypes="ccccc"
                     d="m 555.29,552.56 h 238.04 v 12.928 H 555.29 Z"
                     id="path7246" />
                  <path
                     d="m 555.28,552.56 v 1.9375 H 793.34 V 552.56 Z"
                     inkscape:connector-curvature="0"
                     style="display:inline;fill:#524100;fill-opacity:1"
                     id="path7771" />
                </g>
              </g>
              <g
                 transform="translate(-2.1369708,3.1337043)"
                 id="g6810"
                 style="display:inline">
                <path
                   inkscape:connector-curvature="0"
                   style="display:inline;fill:#000000;fill-opacity:1;stroke-width:1.14295"
                   sodipodi:nodetypes="ccccc"
                   d="m 590.74156,606.64994 h 50.72308 v 76.42503 h -50.72308 z"
                   id="path6440-1" />
                <path
                   inkscape:connector-curvature="0"
                   style="fill:#afdde9;fill-opacity:1"
                   sodipodi:nodetypes="ccccc"
                   d="m 594.29,610.72 h 43.404 v 68.369 H 594.29 Z"
                   id="path6440" />
              </g>
              <g
                 transform="translate(118.76802,3.1337043)"
                 id="g6815"
                 style="display:inline">
                <path
                   inkscape:connector-curvature="0"
                   style="display:inline;fill:#000000;fill-opacity:1;stroke-width:1.14295"
                   sodipodi:nodetypes="ccccc"
                   d="m 590.45246,607.57167 h 50.72308 v 76.42503 h -50.72308 z"
                   id="path6440-1-8" />
                <path
                   d="m 594.29,610.72 h 43.404 v 68.369 H 594.29 Z"
                   inkscape:connector-curvature="0"
                   style="display:inline;fill:#afdde9;fill-opacity:1"
                   sodipodi:nodetypes="ccccc"
                   id="path6821" />
              </g>
              <g
                 id="g7220"
                 transform="translate(0.1280119,1.3439954)"
                 style="display:inline">
                <g
                   transform="translate(2.4883,-2.8878)"
                   id="g6444">
                  <path
                     d="m 586.41,690.47 v -6.5938 h 54.641 v 6.5938 z"
                     inkscape:connector-curvature="0"
                     style="display:inline;fill:#a38200;fill-opacity:1"
                     id="path6042-8"
                     transform="translate(-2.4883064,2.8877941)" />
                  <path
                     inkscape:connector-curvature="0"
                     style="display:inline;fill:#a38200;fill-opacity:1"
                     d="m 707.32,690.47 v -6.5938 h 54.641 v 6.5938 z"
                     id="path7123"
                     transform="translate(-2.4883064,2.8877941)" />
                  <path
                     inkscape:connector-curvature="0"
                     style="display:inline;fill:#000000;fill-opacity:1;stroke-width:1.27586"
                     sodipodi:nodetypes="ccccc"
                     d="m 645.84262,612.09001 h 52.13436 v 92.6547 h -52.13436 z"
                     id="path6440-1-7" />
                  <path
                     inkscape:connector-curvature="0"
                     transform="translate(226.42,1.5438)"
                     style="fill:#502d16;fill-opacity:1"
                     d="m 422.78,613.62 v 86.375 h 44.969 V 613.62 Z m 39.312,44.625 h 3.2812 v 11.781 h -3.2812 z"
                     id="path6344" />
                </g>
                <path
                   d="m 643.09,704.99 v -8.5785 h 62.183 v 8.5785 z"
                   inkscape:connector-curvature="0"
                   style="display:inline;fill:#a38200;fill-opacity:1"
                   id="path7163" />
                <g
                   id="g7845"
                   style="display:inline">
                  <path
                     inkscape:connector-curvature="0"
                     transform="matrix(1.0002,0,0,1.4336,-0.10515,-305.98)"
                     sodipodi:nodetypes="ccccac"
                     d="m 639.51,705.21 v 2.0851 h 69.354 V 705.21 c 0,0 -23.115,-0.6443 -34.677,-0.6443 -11.562,0 -34.677,0.6443 -34.677,0.6443 z"
                     style="display:inline;fill:#542200;filter:url(#filter7800);fill-opacity:1"
                     id="path7782" />
                  <path
                     d="m 637.51,704.57 v 8.6836 h 73.354 V 704.57 Z"
                     inkscape:connector-curvature="0"
                     style="display:inline;fill:#a38200;fill-opacity:1"
                     id="path7271" />
                </g>
              </g>
              <g
                 transform="translate(-4.8125e-6)"
                 id="g7711"
                 style="display:inline">
                <path
                   inkscape:connector-curvature="0"
                   style="display:inline;fill:#000000"
                   sodipodi:nodetypes="cccccccccc"
                   d="m 575.42,604.22 v 97.192 h 4.7723 V 604.22 Z m 193.01,0 v 97.192 h 4.7723 V 604.22 Z"
                   id="rect6929" />
                <g
                   transform="matrix(1.0526,0,0,1,-36.416,-6.1618)"
                   id="g6889"
                   style="display:inline">
                  <g
                     transform="translate(-0.040575)"
                     id="g6791">
                    <path
                       transform="translate(0.040575)"
                       inkscape:connector-curvature="0"
                       sodipodi:nodetypes="ccssscccccssscccccssscccccscccccccccccsccccccccssscccccssscccccsssccc"
                       d="M 603.44,593.12 573.88,608 v 2.5938 c 0,4.6309 3.4806,8.375 7.7812,8.375 4.3006,0 7.75,-3.7441 7.75,-8.375 V 608 l 24,-14.875 z m 19.906,0 -18.406,14.875 v 2.5938 c 0,4.6309 3.4807,8.375 7.7812,8.375 4.3006,0 7.75,-3.7441 7.75,-8.375 v -2.5938 l 12.844,-14.875 z m 21.781,0 -9.1562,14.875 v 2.5938 c 0,4.6309 3.4807,8.375 7.7812,8.375 4.3006,0 7.75,-3.7441 7.75,-8.375 v -2.5938 l 3.5938,-14.875 z m 23.719,0 -1.875,14.875 v 2.5938 c 0,3.7834 2.3366,6.9585 5.5312,8 0.22686,0.074 0.45234,0.16703 0.6875,0.21875 0.0182,0.004 0.0443,-0.004 0.0625,0 0.23556,0.0499 0.47602,0.0985 0.71875,0.125 0.27983,0.0328 0.55548,0.0312 0.84375,0.0312 0.12733,-9.7e-4 0.24877,-0.0239 0.375,-0.0312 0.12623,0.007 0.24767,0.0303 0.375,0.0312 0.28827,0 0.56392,0.002 0.84375,-0.0312 0.24273,-0.0265 0.48319,-0.0751 0.71875,-0.125 0.0182,-0.004 0.0443,0.004 0.0625,0 0.23516,-0.0517 0.46064,-0.14475 0.6875,-0.21875 3.1946,-1.0415 5.5312,-4.2166 5.5312,-8 v -2.5938 l -1.875,-14.875 h -0.0625 -6.2812 -6.2812 z m 26.438,0 3.5938,14.875 v 2.5938 c 0,4.6309 3.4494,8.375 7.75,8.375 4.3006,0 7.7812,-3.7441 7.7812,-8.375 v -2.5938 l -9.1562,-14.875 z m 21.781,0 12.844,14.875 v 2.5938 c 0,4.6309 3.4494,8.375 7.75,8.375 4.3006,0 7.7812,-3.7441 7.7812,-8.375 v -2.5938 l -18.406,-14.875 z m 19.906,0 24,14.875 v 2.5938 c 0,4.6309 3.4494,8.375 7.75,8.375 4.3006,0 7.7812,-3.7441 7.7812,-8.375 l -0.01,-2.59 -29.56,-14.88 z"
                       style="display:inline;fill:#d40000;fill-opacity:1"
                       id="rect6554" />
                    <path
                       inkscape:connector-curvature="0"
                       transform="translate(1.3243,6.1618)"
                       style="display:inline;fill:#44aa00"
                       d="m 612.12,586.97 -24,14.875 v 2.5938 c 0,4.6309 3.4807,8.375 7.7812,8.375 4.3006,0 7.75,-3.7441 7.75,-8.375 v -2.5938 l 18.406,-14.875 h -9.9375 z m 19.906,0 -12.844,14.875 v 2.5938 c 0,4.6309 3.4494,8.375 7.75,8.375 4.3006,0 7.75,-3.7441 7.75,-8.375 v -2.5938 l 9.1562,-14.875 h -11.812 z m 21.781,0 -3.5938,14.875 v 2.5938 c 0,4.6309 3.4807,8.375 7.7812,8.375 4.3006,0 7.7812,-3.7441 7.7812,-8.375 v -2.5938 l 1.8438,-14.875 h -13.812 z m 26.375,0 1.8438,14.875 v 2.5938 c 0,4.6309 3.4807,8.375 7.7812,8.375 4.3006,0 7.7812,-3.7441 7.7812,-8.375 v -2.5938 l -3.5938,-14.875 h -13.812 z m 23.781,0 9.1562,14.875 v 2.5938 c 0,4.6309 3.4494,8.375 7.75,8.375 4.3006,0 7.75,-3.7441 7.75,-8.375 v -2.5938 l -12.844,-14.875 h -11.812 z m 21.781,0 18.406,14.875 v 2.5938 c 0,4.6309 3.4494,8.375 7.75,8.375 4.3006,0 7.7812,-3.7441 7.7812,-8.375 v -2.5938 l -24,-14.875 h -9.9375 z"
                       id="path6559" />
                  </g>
                  <path
                     inkscape:connector-curvature="0"
                     style="display:inline;fill:#2b1100"
                     d="m 776.39,607.93 c 0,-0.19369 -45.311,-0.35071 -101.21,-0.35071 -55.895,0 -101.21,0.15702 -101.21,0.35071 0,0.19368 45.311,0.3507 101.21,0.3507 55.895,0 101.21,-0.15702 101.21,-0.3507 z"
                     id="path6789" />
                </g>
                <path
                   inkscape:connector-curvature="0"
                   style="display:inline;fill:#008000"
                   sodipodi:nodetypes="cccccccccccc"
                   d="m 573.53,676.66 -2,37.938 h 12.562 l -2,-37.938 z m 193,0 -2,37.938 h 3.9062 4.75 3.9062 l -2,-37.938 z"
                   id="path7266" />
              </g>
            </g>
          </g>
        </g>
      </g>
    </g>
    <path
       inkscape:connector-curvature="0"
       style="display:inline;fill:#e9ddaf"
       d="M 611.62,537.6 H 737 v 34.713 H 611.62 Z"
       sodipodi:nodetypes="ccccc"
       id="rect6477"
       transform="matrix(5.2334337,0,0,5.287899,-2871.7634,-2688.4394)" />
    <path
       inkscape:connector-curvature="0"
       style="display:inline;fill:#a38200;fill-opacity:1"
       sodipodi:nodetypes="ccccccccccccccccc"
       d="m 607.22,533.72 v 2.0625 4.3125 36.02 l -9.8125,4.7616 v 6.375 h 153.81 v -6.375 l -9.8125,-4.7616 v -36.02 -6.375 z m 6.375,6.375 h 121.44 v 29.94 h -121.44 z"
       id="path6042-7"
       transform="matrix(5.2334337,0,0,5.287899,-2871.7634,-2688.4394)" />
    <path
       d="m 674.31,575.97 c -36.705,0 -66.469,0.18131 -66.469,0.375 0,0.19368 29.764,0.34375 66.469,0.34375 36.705,0 66.438,-0.15007 66.438,-0.34375 0,-0.19369 -29.732,-0.375 -66.438,-0.375 z m 0,4.7812 c -42.405,0 -76.781,0.15006 -76.781,0.34375 0,0.19368 34.376,0.34375 76.781,0.34375 42.405,0 76.781,-0.15007 76.781,-0.34375 0,-0.19369 -34.376,-0.34375 -76.781,-0.34375 z"
       inkscape:connector-curvature="0"
       style="display:inline;fill:#784421"
       id="path6789-9"
       transform="matrix(5.2334337,0,0,5.287899,-2871.7634,-2688.4394)" />
    <g
       id="g1">
      <path
         d="m 764.1,706.14 -0.10452,8.4507 h 13.664 l -0.10452,-8.4507 h -13.455 z"
         style="display:inline;fill:#a38200;fill-opacity:1"
         inkscape:connector-curvature="0"
         sodipodi:nodetypes="cccccc"
         id="path6161"
         transform="matrix(5.287899,0,0,5.287899,-2908.557,-2688.4394)" />
      <path
         inkscape:connector-curvature="0"
         style="display:inline;fill:#a38200;fill-opacity:1"
         d="m 571.08,706.14 -0.10452,8.4507 h 13.664 l -0.10452,-8.4507 h -13.455 z"
         sodipodi:nodetypes="cccccc"
         id="path7869"
         transform="matrix(5.287899,0,0,5.287899,-2908.557,-2688.4394)" />
    </g>
  </g>
  <metadata
     id="metadata62391">
    <rdf:RDF>
      <cc:Work>
        <dc:format>image/svg+xml</dc:format>
        <dc:type
           rdf:resource="http://purl.org/dc/dcmitype/StillImage" />
        <cc:license
           rdf:resource="http://creativecommons.org/publicdomain/zero/1.0/" />
        <dc:publisher>
          <cc:Agent
             rdf:about="http://openclipart.org/">
            <dc:title>Openclipart</dc:title>
          </cc:Agent>
        </dc:publisher>
        <dc:title>Store Fronts</dc:title>
        <dc:date>2013-01-07T21:50:20</dc:date>
        <dc:description>remix by j4p4n</dc:description>
        <dc:source />
        <dc:creator>
          <cc:Agent>
            <dc:title>Viscious-Speed</dc:title>
          </cc:Agent>
        </dc:creator>
        <dc:subject>
          <rdf:Bag />
        </dc:subject>
      </cc:Work>
      <cc:License
         rdf:about="http://creativecommons.org/publicdomain/zero/1.0/">
        <cc:permits
           rdf:resource="http://creativecommons.org/ns#Reproduction" />
        <cc:permits
           rdf:resource="http://creativecommons.org/ns#Distribution" />
        <cc:permits
           rdf:resource="http://creativecommons.org/ns#DerivativeWorks" />
      </cc:License>
    </rdf:RDF>
  </metadata>
</svg>
