<?xml version="1.0" encoding="UTF-8" standalone="no"?>
<!-- Created with Inkscape (http://www.inkscape.org/) -->

<svg
   id="svg2"
   xml:space="preserve"
   viewBox="0 0 19.358 31.969"
   version="1.1"
   inkscape:version="1.3 (0e150ed6c4, 2023-07-21)"
   sodipodi:docname="SalsaAjo.svg"
   xmlns:inkscape="http://www.inkscape.org/namespaces/inkscape"
   xmlns:sodipodi="http://sodipodi.sourceforge.net/DTD/sodipodi-0.dtd"
   xmlns="http://www.w3.org/2000/svg"
   xmlns:svg="http://www.w3.org/2000/svg"
   xmlns:rdf="http://www.w3.org/1999/02/22-rdf-syntax-ns#"
   xmlns:cc="http://creativecommons.org/ns#"
   xmlns:dc="http://purl.org/dc/elements/1.1/"><sodipodi:namedview
   id="namedview1"
   pagecolor="#ffffff"
   bordercolor="#000000"
   borderopacity="0.25"
   inkscape:showpageshadow="2"
   inkscape:pageopacity="0.0"
   inkscape:pagecheckerboard="0"
   inkscape:deskcolor="#d1d1d1"
   inkscape:zoom="24.304795"
   inkscape:cx="9.6688738"
   inkscape:cy="15.9845"
   inkscape:window-width="1920"
   inkscape:window-height="991"
   inkscape:window-x="-9"
   inkscape:window-y="-9"
   inkscape:window-maximized="1"
   inkscape:current-layer="g12" />&#10;  <defs
   id="defs6">&#10;    <linearGradient
   id="linearGradient24"
   y2="22.981"
   gradientUnits="userSpaceOnUse"
   x2="24.175"
   gradientTransform="matrix(.64 0 0 -.64 -.00079989 25.575)"
   y1="22.981">&#10;      <stop
   id="stop26"
   style="stop-color:#fae894"
   offset="0" />&#10;      <stop
   id="stop28"
   style="stop-color:#705829"
   offset="1" />&#10;    </linearGradient>&#10;    <linearGradient
   id="linearGradient42"
   y2="22.806"
   gradientUnits="userSpaceOnUse"
   x2="23.35"
   gradientTransform="matrix(.64 0 0 -.64 -.00079989 25.575)"
   y1="22.806"
   x1=".64990">&#10;      <stop
   id="stop44"
   style="stop-color:#e3cf70"
   offset="0" />&#10;      <stop
   id="stop46"
   style="stop-color:#876a31"
   offset="1" />&#10;    </linearGradient>&#10;    <clipPath
   id="clipPath68">&#10;      <path
   id="path70"
   d="m8 13.575h2v3h-2v-3z"
   inkscape:connector-curvature="0" />&#10;    </clipPath>&#10;    <mask
   id="mask72">&#10;      <g
   id="g74">&#10;        <g
   id="g76"
   clip-path="url(#clipPath68)">&#10;          <path
   id="path78"
   style="fill:#000000;fill-opacity:.32810"
   d="m8 13.575h2v3h-2v-3z"
   inkscape:connector-curvature="0" />&#10;        </g>&#10;      </g>&#10;    </mask>&#10;    <clipPath
   id="clipPath84">&#10;      <path
   id="path86"
   d="m8 13.575h2v3h-2v-3z"
   inkscape:connector-curvature="0" />&#10;    </clipPath>&#10;    <clipPath
   id="clipPath88">&#10;      <path
   id="path90"
   d="m8 14h2v3h-2v-3z"
   inkscape:connector-curvature="0" />&#10;    </clipPath>&#10;    <clipPath
   id="clipPath112">&#10;      <path
   id="path114"
   d="m3 14.575h2v2h-2v-2z"
   inkscape:connector-curvature="0" />&#10;    </clipPath>&#10;    <mask
   id="mask116">&#10;      <g
   id="g118">&#10;        <g
   id="g120"
   clip-path="url(#clipPath112)">&#10;          <path
   id="path122"
   style="fill:#000000;fill-opacity:.32810"
   d="m3 14.575h2v2h-2v-2z"
   inkscape:connector-curvature="0" />&#10;        </g>&#10;      </g>&#10;    </mask>&#10;    <clipPath
   id="clipPath128">&#10;      <path
   id="path130"
   d="m3 14.575h2v2h-2v-2z"
   inkscape:connector-curvature="0" />&#10;    </clipPath>&#10;    <clipPath
   id="clipPath132">&#10;      <path
   id="path134"
   d="m3 15h2v2h-2v-2z"
   inkscape:connector-curvature="0" />&#10;    </clipPath>&#10;    <clipPath
   id="clipPath156">&#10;      <path
   id="path158"
   d="m5 0.57538h3v2h-3v-2z"
   inkscape:connector-curvature="0" />&#10;    </clipPath>&#10;    <mask
   id="mask160">&#10;      <g
   id="g162">&#10;        <g
   id="g164"
   clip-path="url(#clipPath156)">&#10;          <path
   id="path166"
   style="fill:#000000;fill-opacity:.32810"
   d="m5 0.57538h3v2h-3v-2z"
   inkscape:connector-curvature="0" />&#10;        </g>&#10;      </g>&#10;    </mask>&#10;    <clipPath
   id="clipPath172">&#10;      <path
   id="path174"
   d="m5 0.57538h3v2h-3v-2z"
   inkscape:connector-curvature="0" />&#10;    </clipPath>&#10;    <clipPath
   id="clipPath176">&#10;      <path
   id="path178"
   d="m5 1h3v2h-3v-2z"
   inkscape:connector-curvature="0" />&#10;    </clipPath>&#10;    <clipPath
   id="clipPath200">&#10;      <path
   id="path202"
   d="m11 1.5754h3v2h-3v-2z"
   inkscape:connector-curvature="0" />&#10;    </clipPath>&#10;    <mask
   id="mask204">&#10;      <g
   id="g206">&#10;        <g
   id="g208"
   clip-path="url(#clipPath200)">&#10;          <path
   id="path210"
   style="fill:#000000;fill-opacity:.32810"
   d="m11 1.5754h3v2h-3v-2z"
   inkscape:connector-curvature="0" />&#10;        </g>&#10;      </g>&#10;    </mask>&#10;    <clipPath
   id="clipPath216">&#10;      <path
   id="path218"
   d="m11 1.5754h3v2h-3v-2z"
   inkscape:connector-curvature="0" />&#10;    </clipPath>&#10;    <clipPath
   id="clipPath220">&#10;      <path
   id="path222"
   d="m11 2h3v2h-3v-2z"
   inkscape:connector-curvature="0" />&#10;    </clipPath>&#10;    <clipPath
   id="clipPath244">&#10;      <path
   id="path246"
   d="m12 6.5754h2v2h-2v-2z"
   inkscape:connector-curvature="0" />&#10;    </clipPath>&#10;    <mask
   id="mask248">&#10;      <g
   id="g250">&#10;        <g
   id="g252"
   clip-path="url(#clipPath244)">&#10;          <path
   id="path254"
   style="fill:#000000;fill-opacity:.32810"
   d="m12 6.5754h2v2h-2v-2z"
   inkscape:connector-curvature="0" />&#10;        </g>&#10;      </g>&#10;    </mask>&#10;    <clipPath
   id="clipPath260">&#10;      <path
   id="path262"
   d="m12 6.5754h2v2h-2v-2z"
   inkscape:connector-curvature="0" />&#10;    </clipPath>&#10;    <clipPath
   id="clipPath264">&#10;      <path
   id="path266"
   d="m12 7h2v2h-2v-2z"
   inkscape:connector-curvature="0" />&#10;    </clipPath>&#10;    <clipPath
   id="clipPath288">&#10;      <path
   id="path290"
   d="m12 12.575h2v2h-2v-2z"
   inkscape:connector-curvature="0" />&#10;    </clipPath>&#10;    <mask
   id="mask292">&#10;      <g
   id="g294">&#10;        <g
   id="g296"
   clip-path="url(#clipPath288)">&#10;          <path
   id="path298"
   style="fill:#000000;fill-opacity:.32810"
   d="m12 12.575h2v2h-2v-2z"
   inkscape:connector-curvature="0" />&#10;        </g>&#10;      </g>&#10;    </mask>&#10;    <clipPath
   id="clipPath304">&#10;      <path
   id="path306"
   d="m12 12.575h2v2h-2v-2z"
   inkscape:connector-curvature="0" />&#10;    </clipPath>&#10;    <clipPath
   id="clipPath308">&#10;      <path
   id="path310"
   d="m12 13h2v2h-2v-2z"
   inkscape:connector-curvature="0" />&#10;    </clipPath>&#10;    <linearGradient
   id="linearGradient338"
   y2="26.155"
   gradientUnits="userSpaceOnUse"
   x2="16.925"
   gradientTransform="matrix(.64 0 0 -.64 -.00079989 25.575)"
   y1="26.155"
   x1="1.3999">&#10;      <stop
   id="stop340"
   style="stop-color:#6fc22f"
   offset="0" />&#10;      <stop
   id="stop342"
   style="stop-color:#69b92c"
   offset=".1882" />&#10;      <stop
   id="stop344"
   style="stop-color:#59a025"
   offset=".498" />&#10;      <stop
   id="stop346"
   style="stop-color:#3f7819"
   offset=".88630" />&#10;      <stop
   id="stop348"
   style="stop-color:#366b15"
   offset="1" />&#10;    </linearGradient>&#10;    <linearGradient
   id="linearGradient362"
   y2="27.35"
   gradientUnits="userSpaceOnUse"
   x2="12.837"
   gradientTransform="matrix(.64 0 0 -.64 -.00079989 25.575)"
   y1="27.35"
   x1="3.4624">&#10;      <stop
   id="stop364"
   style="stop-color:#fff7ad"
   offset="0" />&#10;      <stop
   id="stop366"
   style="stop-color:#f9f0a4"
   offset=".1529" />&#10;      <stop
   id="stop368"
   style="stop-color:#e7de8b"
   offset="0.4" />&#10;      <stop
   id="stop370"
   style="stop-color:#cbc063"
   offset=".71760" />&#10;      <stop
   id="stop372"
   style="stop-color:#ada139"
   offset="1" />&#10;    </linearGradient>&#10;    <clipPath
   id="clipPath380">&#10;      <path
   id="path382"
   d="m1 0.57538h4v21h-4v-21z"
   inkscape:connector-curvature="0" />&#10;    </clipPath>&#10;    <mask
   id="mask384">&#10;      <g
   id="g386">&#10;        <g
   id="g388"
   clip-path="url(#clipPath380)">&#10;          <path
   id="path390"
   style="fill:#000000;fill-opacity:.57810"
   d="m1 0.57538h4v21h-4v-21z"
   inkscape:connector-curvature="0" />&#10;        </g>&#10;      </g>&#10;    </mask>&#10;    <clipPath
   id="clipPath396">&#10;      <path
   id="path398"
   d="m1 0.57538h4v21h-4v-21z"
   inkscape:connector-curvature="0" />&#10;    </clipPath>&#10;    <clipPath
   id="clipPath400">&#10;      <path
   id="path402"
   d="m1 1h4v21h-4v-21z"
   inkscape:connector-curvature="0" />&#10;    </clipPath>&#10;    <linearGradient
   id="linearGradient408"
   y2="-15752"
   gradientUnits="userSpaceOnUse"
   x2="-520.78"
   gradientTransform="matrix(.044544 -.63846 .63846 .044544 10084 373.01)"
   y1="-15752"
   x1="-545.94">&#10;      <stop
   id="stop410"
   style="stop-color:#ffffff"
   offset="0" />&#10;      <stop
   id="stop412"
   style="stop-color:#000000"
   offset="1" />&#10;    </linearGradient>&#10;    <clipPath
   id="clipPath440">&#10;      <path
   id="path442"
   d="m10 0.57538h5v21h-5v-21z"
   inkscape:connector-curvature="0" />&#10;    </clipPath>&#10;    <mask
   id="mask444">&#10;      <g
   id="g446">&#10;        <g
   id="g448"
   clip-path="url(#clipPath440)">&#10;          <path
   id="path450"
   style="fill:#000000;fill-opacity:.21090"
   d="m10 0.57538h5v21h-5v-21z"
   inkscape:connector-curvature="0" />&#10;        </g>&#10;      </g>&#10;    </mask>&#10;    <clipPath
   id="clipPath456">&#10;      <path
   id="path458"
   d="m10 0.57538h5v21h-5v-21z"
   inkscape:connector-curvature="0" />&#10;    </clipPath>&#10;    <clipPath
   id="clipPath460">&#10;      <path
   id="path462"
   d="m10 1h5v21h-5v-21z"
   inkscape:connector-curvature="0" />&#10;    </clipPath>&#10;    <linearGradient
   id="linearGradient468"
   y2="-2.3844"
   gradientUnits="userSpaceOnUse"
   x2="2.4663"
   gradientTransform="matrix(.64 0 0 .64 10.839 21.96)"
   y1="-27.484"
   x1="4.2163">&#10;      <stop
   id="stop470"
   style="stop-color:#ffffff"
   offset="0" />&#10;      <stop
   id="stop472"
   style="stop-color:#000000"
   offset="1" />&#10;    </linearGradient>&#10;    <clipPath
   id="clipPath500">&#10;      <path
   id="path502"
   d="m2 19.575h12v3h-12v-3z"
   inkscape:connector-curvature="0" />&#10;    </clipPath>&#10;    <mask
   id="mask504">&#10;      <g
   id="g506">&#10;        <g
   id="g508"
   clip-path="url(#clipPath500)">&#10;          <path
   id="path510"
   style="fill:#000000;fill-opacity:.67190"
   d="m2 19.575h12v3h-12v-3z"
   inkscape:connector-curvature="0" />&#10;        </g>&#10;      </g>&#10;    </mask>&#10;    <clipPath
   id="clipPath516">&#10;      <path
   id="path518"
   d="m2 19.575h12v3h-12v-3z"
   inkscape:connector-curvature="0" />&#10;    </clipPath>&#10;    <clipPath
   id="clipPath520">&#10;      <path
   id="path522"
   d="m2 20h12v3h-12v-3z"
   inkscape:connector-curvature="0" />&#10;    </clipPath>&#10;    <linearGradient
   id="linearGradient550"
   y2="6"
   gradientUnits="userSpaceOnUse"
   x2="20.774"
   gradientTransform="matrix(.64 0 0 -.64 -.00079989 25.575)"
   y1="6"
   x1="3.2993">&#10;      <stop
   id="stop552"
   style="stop-color:#e3cf70"
   offset="0" />&#10;      <stop
   id="stop554"
   style="stop-color:#705829"
   offset="1" />&#10;    </linearGradient>&#10;    <linearGradient
   id="linearGradient568"
   y2="5.5244"
   gradientUnits="userSpaceOnUse"
   x2="21.25"
   gradientTransform="matrix(.64 0 0 -.64 -.00079989 25.575)"
   y1="5.5244"
   x1="3.0498">&#10;      <stop
   id="stop570"
   style="stop-color:#e3cf70"
   offset="0" />&#10;      <stop
   id="stop572"
   style="stop-color:#634e24"
   offset="1" />&#10;    </linearGradient>&#10;    <linearGradient
   id="linearGradient588"
   y2="4.2998"
   gradientUnits="userSpaceOnUse"
   x2="20.925"
   gradientTransform="matrix(.64 0 0 -.64 -.00079989 25.575)"
   y1="4.2998"
   x1="3.25">&#10;      <stop
   id="stop590"
   style="stop-color:#6fc22f"
   offset="0" />&#10;      <stop
   id="stop592"
   style="stop-color:#76c638"
   offset=".0627" />&#10;      <stop
   id="stop594"
   style="stop-color:#88d151"
   offset=".1647" />&#10;      <stop
   id="stop596"
   style="stop-color:#97d964"
   offset=".2314" />&#10;      <stop
   id="stop598"
   style="stop-color:#2f5e12"
   offset="1" />&#10;    </linearGradient>&#10;    <linearGradient
   id="linearGradient612"
   y2="-2.582"
   gradientUnits="userSpaceOnUse"
   x2="-3.3813"
   gradientTransform="matrix(-.63824 -.04696 -.04696 .63824 1.1254e-7 25.576)"
   y1="-2.582"
   x1="-19.399">&#10;      <stop
   id="stop614"
   style="stop-color:#6fc22f"
   offset="0" />&#10;      <stop
   id="stop616"
   style="stop-color:#71c838"
   offset=".69020" />&#10;      <stop
   id="stop618"
   style="stop-color:#73cc3e"
   offset="1" />&#10;    </linearGradient>&#10;    <clipPath
   id="clipPath626">&#10;      <path
   id="path628"
   d="m2 19.575h7v2h-7v-2z"
   inkscape:connector-curvature="0" />&#10;    </clipPath>&#10;    <mask
   id="mask630">&#10;      <g
   id="g632">&#10;        <g
   id="g634"
   clip-path="url(#clipPath626)">&#10;          <path
   id="path636"
   style="fill:#000000;fill-opacity:.48050"
   d="m2 19.575h7v2h-7v-2z"
   inkscape:connector-curvature="0" />&#10;        </g>&#10;      </g>&#10;    </mask>&#10;    <clipPath
   id="clipPath642">&#10;      <path
   id="path644"
   d="m2 19.575h7v2h-7v-2z"
   inkscape:connector-curvature="0" />&#10;    </clipPath>&#10;    <clipPath
   id="clipPath646">&#10;      <path
   id="path648"
   d="m2 20h7v2h-7v-2z"
   inkscape:connector-curvature="0" />&#10;    </clipPath>&#10;  </defs>&#10;  <g
   id="g10"
   transform="matrix(1.25 0 0 -1.25 0 31.969)">&#10;    <g
   id="g12">&#10;      <g
   id="g14"
   style="fill:#a0892c">&#10;        <g
   id="g16"
   style="fill:#a0892c">&#10;          <g
   id="g22"
   style="fill:#a0892c">&#10;            <path
   id="path30"
   style="fill-rule:evenodd;fill:#a0892c"
   d="m14.27 19.368c0.449-0.468 0.75-0.918 0.898-1.343 0.211-0.536 0.32-1.239 0.32-2.114 0-0.851-0.078-2.902-0.226-6.144-0.149-3.094-0.254-4.926-0.321-5.504-0.062-0.684-0.359-1.344-0.894-1.984-0.703-0.875-1.738-1.504-3.106-1.887-1.086-0.297-2.152-0.426-3.199-0.383-1.043-0.043-2.121 0.086-3.23 0.383-1.367 0.383-2.403 1.015-3.106 1.887-0.531 0.64-0.82 1.3-0.863 1.984-0.063 0.578-0.168 2.41-0.32 5.504-0.149 3.242-0.223 5.289-0.223 6.144 0 0.875 0.105 1.578 0.32 2.114 0.149 0.406 0.438 0.851 0.864 1.343 0.769 0.809 1.355 1.598 1.761 2.368l4.797-0.258 4.801 0.258c0.449-0.813 1.023-1.602 1.727-2.368z"
   inkscape:connector-curvature="0" />&#10;          </g>&#10;        </g>&#10;      </g>&#10;      <g
   id="g32"
   style="display:inline;fill:#b9a868;fill-opacity:1">&#10;        <g
   id="g34"
   style="fill:#b9a868;fill-opacity:1">&#10;          <g
   id="g40"
   style="fill:#b9a868;fill-opacity:1">&#10;            <path
   id="path48"
   style="fill:#b9a868;fill-rule:evenodd;fill-opacity:1"
   d="m 13.824,19.239 c 0.403,-0.468 0.692,-0.906 0.864,-1.312 0.171,-0.512 0.253,-1.195 0.253,-2.047 0,-0.789 -0.074,-2.785 -0.222,-5.984 C 14.59,7.056 14.504,5.279 14.461,4.552 14.398,3.868 14.121,3.228 13.633,2.634 12.969,1.779 12,1.169 10.719,0.81 9.652,0.509 8.637,0.38 7.68,0.423 6.699,0.38 5.695,0.509 4.672,0.81 3.391,1.169 2.422,1.779 1.758,2.634 1.246,3.251 0.969,3.888 0.926,4.552 0.883,5.083 0.789,6.868 0.637,9.896 0.488,13.032 0.414,15.029 0.414,15.88 c 0,0.852 0.098,1.535 0.289,2.047 0.149,0.406 0.426,0.844 0.832,1.312 0.766,0.832 1.313,1.602 1.633,2.305 l 4.512,-0.258 4.511,0.258 c 0.426,-0.789 0.969,-1.558 1.633,-2.305 z"
   inkscape:connector-curvature="0" />&#10;          </g>&#10;        </g>&#10;      </g>&#10;      <path
   id="path50"
   style="fill:#d6ce86;fill-opacity:1;fill-rule:evenodd"
   d="m 8.1040685,15.83073 c 0.258,-0.191 0.215,-0.406 -0.129,-0.641 -0.316,-0.234 -0.593,-0.234 -0.832,0 -0.34,0.34 -0.445,1.333 -0.316,2.977 0.062,0.66 0.359,0.926 0.894,0.797 0.086,-0.039 0.118,-0.086 0.098,-0.125 -0.066,-0.129 -0.098,-0.301 -0.098,-0.512 0,-0.215 -0.031,-0.633 -0.097,-1.25 0.023,-0.574 0.183,-0.992 0.48,-1.246 z"
   inkscape:connector-curvature="0" />&#10;      <path
   id="path52"
   style="fill:#d6ce86;fill-opacity:1;fill-rule:evenodd"
   d="m 4.7450685,17.20573 c -0.063,-0.301 -0.289,-0.769 -0.672,-1.406 -0.363,-0.598 -0.566,-1.035 -0.609,-1.317 -0.04,-0.425 -0.192,-0.777 -0.446,-1.054 -0.277,-0.297 -0.468,-0.266 -0.578,0.097 -0.125,0.34 -0.051,0.926 0.227,1.758 0.234,0.77 0.5,1.356 0.797,1.762 0.3,0.363 0.609,0.574 0.929,0.641 0.321,0.062 0.438,-0.098 0.352,-0.481 z"
   inkscape:connector-curvature="0" />&#10;      <path
   id="path54"
   style="fill:#d6ce86;fill-opacity:1;fill-rule:evenodd"
   d="m 5.2250685,3.0297297 c 0.66,-0.191 0.961,-0.418 0.895,-0.672 -0.082,-0.234 -0.457,-0.375 -1.117,-0.418 -0.579,-0.019 -1.059,0.278 -1.442,0.899 -0.363,0.598 -0.449,1.066 -0.258,1.406 0.11,0.192 0.344,0.098 0.707,-0.285 0.469,-0.535 0.875,-0.844 1.215,-0.93 z"
   inkscape:connector-curvature="0" />&#10;      <path
   id="path56"
   style="fill:#d6ce86;fill-opacity:1;fill-rule:evenodd"
   d="m 10.280068,14.86973 c 0.363,0.043 0.672,-0.18 0.93,-0.672 0.254,-0.511 0.265,-0.738 0.031,-0.672 -0.301,0.043 -0.973,0.012 -2.0159995,-0.097 -0.449,-0.043 -0.523,0.172 -0.226,0.64 0.277,0.469 0.707,0.739 1.2809995,0.801 z"
   inkscape:connector-curvature="0" />&#10;      <path
   id="path58"
   style="fill:#d6ce86;fill-opacity:1;fill-rule:evenodd"
   d="m 11.882068,17.04573 c 0.339,-0.129 0.394,-0.301 0.16,-0.512 -0.258,-0.215 -0.555,-0.203 -0.899,0.031 -0.316,0.211 -0.351,0.372 -0.093,0.481 0.234,0.105 0.511,0.105 0.832,0 z"
   inkscape:connector-curvature="0" />&#10;      <path
   id="path60"
   style="fill:#d6ce86;fill-opacity:1;fill-rule:evenodd"
   d="m 11.882068,3.8307297 c 0.832,-0.152 0.82,-0.351 -0.032,-0.609 -0.875,-0.278 -1.398,-0.289 -1.57,-0.032 -0.148,0.235 -0.051,0.426 0.289,0.575 0.34,0.129 0.777,0.148 1.313,0.066 z"
   inkscape:connector-curvature="0" />&#10;      <path
   id="path62"
   style="display:inline;fill:#d6ce86;fill-opacity:1;fill-rule:evenodd"
   d="m 13.706068,10.38973 c 0.875,0 0.992,-0.4500003 0.351,-1.3440003 -0.64,-0.898 -1.183,-1.086 -1.633,-0.578 -0.382,0.472 -0.371,0.918 0.032,1.344 0.363,0.3860003 0.781,0.5780003 1.25,0.5780003 z"
   inkscape:connector-curvature="0" />&#10;      &#10;      &#10;      &#10;      &#10;      &#10;      &#10;      <g
   id="g328"
   style="display:inline;fill:#9e2ca0;fill-opacity:1">&#10;        <g
   id="g330"
   style="fill:#9e2ca0;fill-opacity:1">&#10;          <g
   id="g336"
   style="fill:#9e2ca0;fill-opacity:1">&#10;            <path
   id="path350"
   style="fill:#9e2ca0;fill-opacity:1;fill-rule:evenodd"
   d="m 8.32,12.009 c 1.024,0.043 1.856,0.105 2.492,0.191 L 10.59,3.4 C 10.27,3.294 9.801,3.196 9.184,3.111 7.965,2.943 6.656,2.931 5.246,3.079 3.988,3.208 2.965,3.517 2.176,4.009 L 1.344,4.712 C 1.301,5.009 1.258,5.63 1.215,6.568 l -0.32,6.015 c 0.191,-0.105 0.64,-0.211 1.343,-0.316 0.235,0.722 0.621,1.308 1.153,1.758 0.535,0.449 1.132,0.671 1.793,0.671 0.703,0.02 1.343,-0.222 1.918,-0.734 C 7.68,13.47 8.086,12.818 8.32,12.009 Z"
   inkscape:connector-curvature="0" />&#10;          </g>&#10;        </g>&#10;      </g>&#10;      <g
   id="g352"
   style="display:inline;fill:#e9ddaf">&#10;        <g
   id="g354"
   style="fill:#e9ddaf">&#10;          <g
   id="g360"
   style="fill:#e9ddaf">&#10;            <path
   id="path374"
   style="fill:#e9ddaf;fill-rule:evenodd"
   d="M 2.688,10.439 C 2.516,10.29 2.367,10.142 2.238,9.993 l 0.387,0.703 c 0.168,0.297 0.402,0.438 0.703,0.415 0.168,-0.02 0.309,-0.075 0.414,-0.161 l -0.16,0.227 C 3.52,11.282 3.371,11.388 3.137,11.497 L 2.781,11.654 3.07,11.72 c 0.258,0.019 0.481,0 0.672,-0.066 0.32,-0.106 0.567,-0.34 0.738,-0.704 v 0.227 c 0,0.105 0.192,0.297 0.575,0.574 L 5.598,12.134 5.121,11.271 C 4.648,10.396 5.289,9.489 7.039,8.552 7.957,8.04 8.352,7.251 8.223,6.185 8.094,5.032 7.273,4.329 5.758,4.071 4.285,3.814 3.359,4.325 2.973,5.607 2.633,6.759 2.762,7.654 3.359,8.294 3.723,8.7 3.859,9.212 3.773,9.833 L 3.52,10.63 C 3.328,10.759 3.051,10.696 2.688,10.439 Z"
   inkscape:connector-curvature="0" />&#10;          </g>&#10;        </g>&#10;      </g>&#10;      &#10;      &#10;      &#10;      <g
   id="g540"
   style="display:inline;fill:#a0892c">&#10;        <g
   id="g542"
   style="fill:#a0892c">&#10;          <g
   id="g548"
   style="fill:#a0892c">&#10;            <path
   id="path556"
   style="fill:#a0892c;fill-rule:evenodd"
   d="m 13.312,21.736 c 0,-0.364 -0.546,-0.672 -1.632,-0.93 -1.09,-0.254 -2.41,-0.383 -3.969,-0.383 -1.535,0 -2.848,0.129 -3.938,0.383 -1.109,0.258 -1.664,0.566 -1.664,0.93 0,0.363 0.555,0.671 1.664,0.929 1.09,0.254 2.403,0.383 3.938,0.383 1.535,0 2.859,-0.129 3.969,-0.383 1.086,-0.258 1.632,-0.566 1.632,-0.929 z"
   inkscape:connector-curvature="0" />&#10;          </g>&#10;        </g>&#10;      </g>&#10;      <g
   id="g558"
   style="display:inline;fill:#711d64;fill-opacity:1">&#10;        <g
   id="g560"
   style="fill:#711d64;fill-opacity:1">&#10;          <g
   id="g566"
   style="fill:#711d64;fill-opacity:1">&#10;            <path
   id="path574"
   style="fill:#711d64;fill-rule:evenodd;fill-opacity:1"
   d="m 13.598,22.025 c 0,-0.364 -0.563,-0.664 -1.696,-0.899 -1.152,-0.254 -2.527,-0.383 -4.129,-0.383 -1.617,0 -2.996,0.129 -4.125,0.383 -1.132,0.235 -1.695,0.535 -1.695,0.899 0,0.359 0.563,0.671 1.695,0.925 1.129,0.258 2.504,0.387 4.125,0.387 1.602,0 2.977,-0.129 4.129,-0.387 1.133,-0.254 1.696,-0.566 1.696,-0.925 z"
   inkscape:connector-curvature="0" />&#10;          </g>&#10;        </g>&#10;      </g>&#10;      &#10;      <g
   id="g578"
   style="display:inline;fill:#902c8f;fill-opacity:1">&#10;        <g
   id="g580"
   style="fill:#902c8f;fill-opacity:1">&#10;          <g
   id="g586"
   style="fill:#902c8f;fill-opacity:1">&#10;            <path
   id="path600"
   style="fill:#902c8f;fill-rule:evenodd;fill-opacity:1"
   d="M 13.406,24.521 V 22.247 C 13.363,21.97 12.801,21.712 11.711,21.482 10.559,21.247 9.234,21.13 7.742,21.13 6.25,21.13 4.926,21.247 3.773,21.482 2.688,21.716 2.121,21.97 2.078,22.247 v 2.274 z"
   inkscape:connector-curvature="0" />&#10;          </g>&#10;        </g>&#10;      </g>&#10;      <g
   id="g602"
   style="display:inline;fill:#690070;fill-opacity:1">&#10;        <g
   id="g604"
   style="fill:#690070;fill-opacity:1">&#10;          <g
   id="g610"
   style="fill:#690070;fill-opacity:1">&#10;            <path
   id="path620"
   style="fill:#690070;fill-rule:evenodd;fill-opacity:1"
   d="m 13.375,24.486 c 0,-0.297 -0.555,-0.551 -1.664,-0.766 -1.086,-0.215 -2.41,-0.32 -3.969,-0.32 -1.578,0 -2.91,0.105 -4,0.32 -1.109,0.215 -1.664,0.469 -1.664,0.766 0,0.3 0.555,0.554 1.664,0.769 1.09,0.215 2.422,0.32 4,0.32 1.559,0 2.883,-0.105 3.969,-0.32 1.109,-0.215 1.664,-0.469 1.664,-0.769 z"
   inkscape:connector-curvature="0" />&#10;          </g>&#10;        </g>&#10;      </g>&#10;      &#10;      <path
   id="path666"
   style="fill-rule:evenodd;fill:#f9e2c9"
   d="m2.91 2.314c0.449-0.235 0.715-0.481 0.801-0.739 0.086-0.234 0.031-0.351-0.16-0.351-0.278 0-0.684 0.246-1.215 0.738-0.234 0.234-0.258 0.383-0.066 0.445 0.195 0.086 0.406 0.055 0.64-0.093z"
   inkscape:connector-curvature="0" />&#10;      <path
   id="path668"
   style="display:inline;fill:#f9e2c9;fill-rule:evenodd"
   d="M 4.641,1.446 C 4.938,1.384 5.012,1.267 4.863,1.095 4.715,0.923 4.586,0.892 4.48,1.001 4.371,1.083 4.32,1.193 4.32,1.318 4.297,1.446 4.402,1.489 4.641,1.446 Z"
   inkscape:connector-curvature="0" />&#10;    </g>&#10;  </g>&#10;<metadata
   id="metadata1"><rdf:RDF><cc:Work><dc:format>image/svg+xml</dc:format><dc:type
         rdf:resource="http://purl.org/dc/dcmitype/StillImage" /><cc:license
         rdf:resource="http://creativecommons.org/licenses/publicdomain/" /><dc:publisher><cc:Agent
           rdf:about="http://openclipart.org/"><dc:title>Openclipart</dc:title></cc:Agent></dc:publisher></cc:Work><cc:License
       rdf:about="http://creativecommons.org/licenses/publicdomain/"><cc:permits
         rdf:resource="http://creativecommons.org/ns#Reproduction" /><cc:permits
         rdf:resource="http://creativecommons.org/ns#Distribution" /><cc:permits
         rdf:resource="http://creativecommons.org/ns#DerivativeWorks" /></cc:License></rdf:RDF></metadata></svg>
