<?xml version="1.0" encoding="UTF-8" standalone="no"?>
<!-- Created with Inkscape (http://www.inkscape.org/) -->

<svg
   width="64.711197mm"
   height="22.890705mm"
   viewBox="0 0 64.711197 22.890705"
   version="1.1"
   id="svg1"
   inkscape:version="1.3 (0e150ed6c4, 2023-07-21)"
   sodipodi:docname="vagon.svg"
   xmlns:inkscape="http://www.inkscape.org/namespaces/inkscape"
   xmlns:sodipodi="http://sodipodi.sourceforge.net/DTD/sodipodi-0.dtd"
   xmlns="http://www.w3.org/2000/svg"
   xmlns:svg="http://www.w3.org/2000/svg">
  <sodipodi:namedview
     id="namedview1"
     pagecolor="#ffffff"
     bordercolor="#000000"
     borderopacity="0.25"
     inkscape:showpageshadow="2"
     inkscape:pageopacity="0.0"
     inkscape:pagecheckerboard="0"
     inkscape:deskcolor="#d1d1d1"
     inkscape:document-units="mm"
     inkscape:zoom="4"
     inkscape:cx="119.875"
     inkscape:cy="22.625"
     inkscape:window-width="1680"
     inkscape:window-height="987"
     inkscape:window-x="-8"
     inkscape:window-y="-8"
     inkscape:window-maximized="1"
     inkscape:current-layer="g4317" />
  <defs
     id="defs1" />
  <g
     inkscape:label="Capa 1"
     inkscape:groupmode="layer"
     id="layer1"
     transform="matrix(-1,0,0,1,171.74061,-163.81582)">
    <g
       id="g4317"
       transform="matrix(-0.97878183,1.0699537,0.92876797,0.95217009,136.85169,-90.123884)"
       style="display:inline">
      <path
         id="path4260"
         fill="#333333"
         d="m 132.29124,139.0543 c 0.74788,0.78397 1.96199,0.75159 2.71177,-0.0724 0.74977,-0.82394 0.75131,-2.12742 0.003,-2.91141 -0.74788,-0.78396 -1.96199,-0.75159 -2.71177,0.0724 -0.74977,0.82394 -0.75131,2.12742 -0.003,2.91141 z"
         style="stroke-width:0.163618" />
      <path
         id="path4262"
         fill="#333333"
         d="m 129.01124,142.7383 c 0.74788,0.78397 1.96199,0.75159 2.71177,-0.0724 0.74977,-0.82394 0.75131,-2.12742 0.003,-2.91141 -0.74788,-0.78396 -1.96199,-0.75159 -2.71177,0.0724 -0.74977,0.82394 -0.75131,2.12742 -0.003,2.91141 z"
         style="stroke-width:0.163618" />
      <path
         id="path4264"
         transform="matrix(-0.1118,0.12286,0.11152,0.1169,118.13,38.73)"
         fill="#333333"
         d="m 475.36,483.43 c 0,6.7063 -5.4365,12.143 -12.143,12.143 -6.7063,0 -12.143,-5.4365 -12.143,-12.143 0,-6.7063 5.4365,-12.143 12.143,-12.143 6.7063,0 12.143,5.4365 12.143,12.143 z" />
      <path
         id="path4266"
         transform="matrix(-0.1118,0.12286,0.11152,0.1169,114.98,42.025)"
         fill="#333333"
         d="m 475.36,483.43 c 0,6.7063 -5.4365,12.143 -12.143,12.143 -6.7063,0 -12.143,-5.4365 -12.143,-12.143 0,-6.7063 5.4365,-12.143 12.143,-12.143 6.7063,0 12.143,5.4365 12.143,12.143 z" />
      <path
         id="path4270"
         fill="#501616"
         d="m 119.88,133.27 c 0,0 -0.56447,0.43889 -0.84846,2.1418 -0.13723,0.82284 0.92562,4.1228 1.7986,5.0985 0.7576,0.8468 2.2828,0.99866 2.2828,0.99866 0,0 -3.3301,2.3291 -3.8947,2.9496 -0.56469,0.62053 -0.96906,1.3041 -0.84833,2.0207 0.15542,0.92263 1.8587,1.9485 1.8587,1.9485 l 6.2114,-6.7048 z" />
      <path
         id="path4272"
         fill="#501616"
         d="m 128.03505,124.32203 c 0,0 -0.56448,0.4389 -0.84847,2.1418 -0.13723,0.82285 0.92562,4.1228 1.7986,5.0985 0.75761,0.84679 2.2828,0.99866 2.2828,0.99866 0,0 -3.3301,2.3291 -3.8948,2.9496 -0.56469,0.62053 -0.96905,1.304 -0.84832,2.0207 0.15542,0.92263 1.8587,1.9485 1.8587,1.9485 l 6.2114,-6.7048 z" />
      <path
         id="path4260-0"
         fill="#333333"
         d="m 141.88603,128.32393 c 0.74788,0.78396 1.96198,0.75158 2.71177,-0.0724 0.74976,-0.82393 0.75131,-2.12741 0.003,-2.9114 -0.74789,-0.78397 -1.96199,-0.75159 -2.71177,0.0724 -0.74977,0.82394 -0.75131,2.12742 -0.003,2.91141 z"
         style="display:inline;stroke-width:0.163618" />
      <path
         id="path4262-1"
         fill="#333333"
         d="m 138.60603,132.00793 c 0.74788,0.78396 1.96198,0.75158 2.71177,-0.0724 0.74976,-0.82393 0.75131,-2.12741 0.003,-2.9114 -0.74789,-0.78397 -1.96199,-0.75159 -2.71177,0.0724 -0.74977,0.82394 -0.75131,2.12742 -0.003,2.91141 z"
         style="display:inline;stroke-width:0.163618" />
      <path
         id="path4272-6"
         fill="#501616"
         d="m 136.18916,115.61723 c 0,0 -0.56448,0.4389 -0.84847,2.1418 -0.13723,0.82285 0.92562,4.1228 1.7986,5.0985 0.75761,0.84679 2.2828,0.99866 2.2828,0.99866 0,0 -3.3301,2.3291 -3.8948,2.9496 -0.56469,0.62053 -0.96905,1.304 -0.84832,2.0207 0.15542,0.92263 1.8587,1.9485 1.8587,1.9485 l 6.2114,-6.7048 z"
         style="display:inline" />
      <path
         id="path4274"
         fill="#a02c2c"
         d="m 127.12036,124.53184 c 0,0 2.92625,3.2812 2.44495,5.6059 -0.48129,2.3248 -4.57576,6.97344 -5.73676,5.60144 l -2.87195,-3.68388 c -0.50575,-0.64873 -2.1149,1.2124 -1.8363,1.6759 0.42496,0.70703 1.79516,3.79168 1.29426,5.59588 -1.1614,4.1839 -5.10234,6.67955 -6.21744,5.42495 -0.5127,-0.57687 -0.0734,-0.99753 -0.83072,-1.36263 -0.75723,-0.36512 -2.8296,-1.423 -3.3094,-0.29702 -0.47987,1.126 -0.68764,8.1957 0.54549,10.774 0.52543,1.0987 3.7445,3.3252 5.022,2.1779 1.2774,-1.1472 27.51632,-30.59224 27.91532,-31.03124 4.67998,-4.92582 -5.41785,-10.16599 -6.35096,-10.13662 -0.65871,0.0207 -0.26351,-0.25807 -1.89309,1.17418 0.26039,0.78294 2.3551,4.00898 1.85919,7.17252 -0.45058,2.87435 -4.34033,4.8281 -5.21278,3.82945 -1.25971,-1.44195 -2.75018,-3.97596 -3.0914,-3.70715 z"
         sodipodi:nodetypes="cccsscscccscscsscc" />
      <circle
         id="path1"
         style="fill:#efdd20;stroke:#000000;stroke-width:0.191004"
         cx="-20.280806"
         cy="188.29428"
         r="0"
         transform="matrix(-0.66479281,0.74702779,0.68833067,0.72539705,0,0)" />
      <path
         id="path4274-1"
         fill="#a02c2c"
         d="m 118.84302,149.07741 c -1.33935,0.42167 -8.64947,1.94009 -8.59392,3.68028 0.20051,1.56204 1.12813,2.53196 3.38682,3.42588 1.48477,0.58763 31.40316,-33.01773 31.11219,-34.32717 -0.07,-1.72338 -1.85915,-3.39242 -1.83965,-3.32907 1.44372,4.68969 -14.89909,21.40531 -24.06544,30.55008 z"
         sodipodi:nodetypes="ccscsc"
         style="display:inline;fill:#f2de2a;fill-opacity:1" />
    </g>
  </g>
</svg>
